M48
; DRILL file {KiCad (6.0.11)} date Fri Jan 26 14:49:33 2024
; FORMAT={-:-/ absolute / inch / decimal}
; #@! TF.CreationDate,2024-01-26T14:49:33-06:00
; #@! TF.GenerationSoftware,Kicad,Pcbnew,(6.0.11)
; #@! TF.FileFunction,Plated,1,6,PTH
FMAT,2
INCH
; #@! TA.AperFunction,Plated,PTH,ViaDrill
T1C0.0118
; #@! TA.AperFunction,Plated,PTH,ComponentDrill
T2C0.0350
; #@! TA.AperFunction,Plated,PTH,ComponentDrill
T3C0.0394
; #@! TA.AperFunction,Plated,PTH,ComponentDrill
T4C0.0402
; #@! TA.AperFunction,Plated,PTH,ComponentDrill
T5C0.0500
; #@! TA.AperFunction,Plated,PTH,ComponentDrill
T6C0.0512
; #@! TA.AperFunction,Plated,PTH,ComponentDrill
T7C0.0700
; #@! TA.AperFunction,Plated,PTH,ComponentDrill
T8C0.0791
; #@! TA.AperFunction,Plated,PTH,ComponentDrill
T9C0.0866
%
G90
G05
T1
X0.07Y1.1425
X0.13Y1.0125
X0.13Y0.9625
X0.21Y0.8325
X0.235Y1.0375
X0.24Y0.9325
X0.248Y0.884
X0.26Y0.7361
X0.27Y0.8105
X0.2714Y0.9079
X0.275Y0.4775
X0.375Y1.2825
X0.3781Y1.0644
X0.3795Y1.222
X0.3798Y0.9563
X0.4502Y0.6675
X0.4521Y0.8246
X0.4598Y0.7324
X0.46Y0.9475
X0.47Y1.0775
X0.4943Y0.7025
X0.4954Y0.9501
X0.505Y0.7275
X0.5123Y0.6575
X0.5275Y0.55
X0.545Y1.1275
X0.57Y1.0225
X0.585Y0.7643
X0.595Y0.8625
X0.6Y0.6225
X0.6519Y0.9248
X0.6714Y0.9039
X0.685Y0.4725
X0.7Y0.8225
X0.7084Y0.9451
X0.7525Y0.595
X0.793Y0.777
X0.795Y0.5775
X0.815Y0.4375
X0.8275Y0.78
X0.8475Y0.6418
X0.876Y0.3325
X0.88Y0.9483
X0.885Y0.8825
X0.895Y0.5825
X0.9Y0.4425
X0.935Y0.7175
X0.935Y0.6775
X0.935Y0.6418
X0.98Y0.8925
X0.985Y0.3775
X1.03Y0.4525
X1.09Y1.2075
X1.0913Y0.6525
X1.1015Y0.2703
X1.11Y0.4125
X1.145Y0.2575
X1.1798Y0.6734
X1.18Y0.8225
X1.1846Y0.5177
X1.1914Y0.9075
X1.195Y1.0275
X1.21Y0.7575
X1.2242Y0.4969
X1.2286Y0.9059
X1.235Y0.3775
X1.25Y0.2225
X1.275Y1.1525
X1.28Y0.8925
X1.283Y0.8106
X1.315Y1.2675
X1.335Y0.2825
X1.3542Y0.3839
X1.37Y0.8225
X1.405Y0.8975
X1.4059Y0.9413
X1.41Y0.2025
X1.455Y0.4075
X1.4745Y1.062
X1.4971Y1.0354
X1.4987Y0.5012
X1.5Y1.1625
X1.5322Y0.9753
X1.535Y0.2075
X1.5496Y1.0677
X1.565Y0.9873
X1.625Y1.0125
X1.685Y1.1725
X1.69Y1.0125
X1.695Y1.1425
X1.735Y0.9973
T2
X1.52Y0.7818
X1.52Y0.6818
T3
X0.795Y1.1175
X1.0996Y0.1247
X1.1996Y0.1247
X1.2996Y0.1247
X1.3996Y0.1247
T4
X0.795Y1.2475
X0.94Y0.1225
T5
X0.19Y0.2325
T6
X0.0952Y1.2278
X0.0952Y0.6097
X0.2881Y1.2042
X0.2881Y0.6333
T7
X0.0896Y0.3329
X0.0896Y0.1321
X0.2904Y0.3329
X0.2904Y0.1321
T8
X1.72Y0.8818
X1.72Y0.4818
T9
X1.7795Y0.1306
T0
M30
