%TF.GenerationSoftware,KiCad,Pcbnew,(6.0.11)*%
%TF.CreationDate,2024-01-26T14:49:33-06:00*%
%TF.ProjectId,voltage_sense,766f6c74-6167-4655-9f73-656e73652e6b,rev?*%
%TF.SameCoordinates,Original*%
%TF.FileFunction,Legend,Bot*%
%TF.FilePolarity,Positive*%
%FSLAX46Y46*%
G04 Gerber Fmt 4.6, Leading zero omitted, Abs format (unit mm)*
G04 Created by KiCad (PCBNEW (6.0.11)) date 2024-01-26 14:49:33*
%MOMM*%
%LPD*%
G01*
G04 APERTURE LIST*
G04 Aperture macros list*
%AMRoundRect*
0 Rectangle with rounded corners*
0 $1 Rounding radius*
0 $2 $3 $4 $5 $6 $7 $8 $9 X,Y pos of 4 corners*
0 Add a 4 corners polygon primitive as box body*
4,1,4,$2,$3,$4,$5,$6,$7,$8,$9,$2,$3,0*
0 Add four circle primitives for the rounded corners*
1,1,$1+$1,$2,$3*
1,1,$1+$1,$4,$5*
1,1,$1+$1,$6,$7*
1,1,$1+$1,$8,$9*
0 Add four rect primitives between the rounded corners*
20,1,$1+$1,$2,$3,$4,$5,0*
20,1,$1+$1,$4,$5,$6,$7,0*
20,1,$1+$1,$6,$7,$8,$9,0*
20,1,$1+$1,$8,$9,$2,$3,0*%
G04 Aperture macros list end*
%ADD10C,0.150000*%
%ADD11C,0.200000*%
%ADD12C,0.120000*%
%ADD13R,1.700000X1.700000*%
%ADD14O,1.700000X1.700000*%
%ADD15C,2.020000*%
%ADD16C,2.000000*%
%ADD17C,2.200000*%
%ADD18O,2.500000X1.600000*%
%ADD19O,7.000000X3.500000*%
%ADD20C,2.153200*%
%ADD21C,4.400000*%
%ADD22C,2.108200*%
%ADD23C,2.870200*%
%ADD24R,0.650001X1.200000*%
%ADD25RoundRect,0.225000X0.225000X0.250000X-0.225000X0.250000X-0.225000X-0.250000X0.225000X-0.250000X0*%
%ADD26RoundRect,0.200000X-0.200000X-0.275000X0.200000X-0.275000X0.200000X0.275000X-0.200000X0.275000X0*%
%ADD27RoundRect,0.225000X-0.250000X0.225000X-0.250000X-0.225000X0.250000X-0.225000X0.250000X0.225000X0*%
%ADD28RoundRect,0.150000X0.825000X0.150000X-0.825000X0.150000X-0.825000X-0.150000X0.825000X-0.150000X0*%
%ADD29R,1.750000X0.450000*%
%ADD30RoundRect,0.225000X-0.225000X-0.250000X0.225000X-0.250000X0.225000X0.250000X-0.225000X0.250000X0*%
%ADD31RoundRect,0.200000X-0.275000X0.200000X-0.275000X-0.200000X0.275000X-0.200000X0.275000X0.200000X0*%
%ADD32RoundRect,0.200000X0.200000X0.275000X-0.200000X0.275000X-0.200000X-0.275000X0.200000X-0.275000X0*%
%ADD33O,1.400000X0.449999*%
%ADD34RoundRect,0.200000X0.275000X-0.200000X0.275000X0.200000X-0.275000X0.200000X-0.275000X-0.200000X0*%
%ADD35O,0.449999X1.400000*%
G04 APERTURE END LIST*
D10*
%TO.C,U11*%
X16986095Y29567119D02*
X16986095Y28757595D01*
X16938476Y28662357D01*
X16890857Y28614738D01*
X16795619Y28567119D01*
X16605142Y28567119D01*
X16509904Y28614738D01*
X16462285Y28662357D01*
X16414666Y28757595D01*
X16414666Y29567119D01*
X15414666Y28567119D02*
X15986095Y28567119D01*
X15700380Y28567119D02*
X15700380Y29567119D01*
X15795619Y29424261D01*
X15890857Y29329023D01*
X15986095Y29281404D01*
X14462285Y28567119D02*
X15033714Y28567119D01*
X14748000Y28567119D02*
X14748000Y29567119D01*
X14843238Y29424261D01*
X14938476Y29329023D01*
X15033714Y29281404D01*
%TO.C,C16*%
X36343437Y18121357D02*
X36391056Y18073738D01*
X36533913Y18026119D01*
X36629151Y18026119D01*
X36772008Y18073738D01*
X36867246Y18168976D01*
X36914865Y18264214D01*
X36962484Y18454690D01*
X36962484Y18597547D01*
X36914865Y18788023D01*
X36867246Y18883261D01*
X36772008Y18978500D01*
X36629151Y19026119D01*
X36533913Y19026119D01*
X36391056Y18978500D01*
X36343437Y18930880D01*
X35391056Y18026119D02*
X35962484Y18026119D01*
X35676770Y18026119D02*
X35676770Y19026119D01*
X35772008Y18883261D01*
X35867246Y18788023D01*
X35962484Y18740404D01*
X34533913Y19026119D02*
X34724389Y19026119D01*
X34819627Y18978500D01*
X34867246Y18930880D01*
X34962484Y18788023D01*
X35010103Y18597547D01*
X35010103Y18216595D01*
X34962484Y18121357D01*
X34914865Y18073738D01*
X34819627Y18026119D01*
X34629151Y18026119D01*
X34533913Y18073738D01*
X34486294Y18121357D01*
X34438675Y18216595D01*
X34438675Y18454690D01*
X34486294Y18549928D01*
X34533913Y18597547D01*
X34629151Y18645166D01*
X34819627Y18645166D01*
X34914865Y18597547D01*
X34962484Y18549928D01*
X35010103Y18454690D01*
%TO.C,R36*%
X32773857Y27043119D02*
X33107190Y27519309D01*
X33345285Y27043119D02*
X33345285Y28043119D01*
X32964333Y28043119D01*
X32869095Y27995500D01*
X32821476Y27947880D01*
X32773857Y27852642D01*
X32773857Y27709785D01*
X32821476Y27614547D01*
X32869095Y27566928D01*
X32964333Y27519309D01*
X33345285Y27519309D01*
X32440523Y28043119D02*
X31821476Y28043119D01*
X32154809Y27662166D01*
X32011952Y27662166D01*
X31916714Y27614547D01*
X31869095Y27566928D01*
X31821476Y27471690D01*
X31821476Y27233595D01*
X31869095Y27138357D01*
X31916714Y27090738D01*
X32011952Y27043119D01*
X32297666Y27043119D01*
X32392904Y27090738D01*
X32440523Y27138357D01*
X30964333Y28043119D02*
X31154809Y28043119D01*
X31250047Y27995500D01*
X31297666Y27947880D01*
X31392904Y27805023D01*
X31440523Y27614547D01*
X31440523Y27233595D01*
X31392904Y27138357D01*
X31345285Y27090738D01*
X31250047Y27043119D01*
X31059571Y27043119D01*
X30964333Y27090738D01*
X30916714Y27138357D01*
X30869095Y27233595D01*
X30869095Y27471690D01*
X30916714Y27566928D01*
X30964333Y27614547D01*
X31059571Y27662166D01*
X31250047Y27662166D01*
X31345285Y27614547D01*
X31392904Y27566928D01*
X31440523Y27471690D01*
%TO.C,C31*%
X44934142Y28138357D02*
X44981761Y28185976D01*
X45029380Y28328833D01*
X45029380Y28424071D01*
X44981761Y28566928D01*
X44886523Y28662166D01*
X44791285Y28709785D01*
X44600809Y28757404D01*
X44457952Y28757404D01*
X44267476Y28709785D01*
X44172238Y28662166D01*
X44077000Y28566928D01*
X44029380Y28424071D01*
X44029380Y28328833D01*
X44077000Y28185976D01*
X44124619Y28138357D01*
X44029380Y27805023D02*
X44029380Y27185976D01*
X44410333Y27519309D01*
X44410333Y27376452D01*
X44457952Y27281214D01*
X44505571Y27233595D01*
X44600809Y27185976D01*
X44838904Y27185976D01*
X44934142Y27233595D01*
X44981761Y27281214D01*
X45029380Y27376452D01*
X45029380Y27662166D01*
X44981761Y27757404D01*
X44934142Y27805023D01*
X45029380Y26233595D02*
X45029380Y26805023D01*
X45029380Y26519309D02*
X44029380Y26519309D01*
X44172238Y26614547D01*
X44267476Y26709785D01*
X44315095Y26805023D01*
%TO.C,U6*%
X5079904Y30300119D02*
X5079904Y29490595D01*
X5032285Y29395357D01*
X4984666Y29347738D01*
X4889428Y29300119D01*
X4698952Y29300119D01*
X4603714Y29347738D01*
X4556095Y29395357D01*
X4508476Y29490595D01*
X4508476Y30300119D01*
X3603714Y30300119D02*
X3794190Y30300119D01*
X3889428Y30252500D01*
X3937047Y30204880D01*
X4032285Y30062023D01*
X4079904Y29871547D01*
X4079904Y29490595D01*
X4032285Y29395357D01*
X3984666Y29347738D01*
X3889428Y29300119D01*
X3698952Y29300119D01*
X3603714Y29347738D01*
X3556095Y29395357D01*
X3508476Y29490595D01*
X3508476Y29728690D01*
X3556095Y29823928D01*
X3603714Y29871547D01*
X3698952Y29919166D01*
X3889428Y29919166D01*
X3984666Y29871547D01*
X4032285Y29823928D01*
X4079904Y29728690D01*
%TO.C,C32*%
X32361142Y31567357D02*
X32408761Y31614976D01*
X32456380Y31757833D01*
X32456380Y31853071D01*
X32408761Y31995928D01*
X32313523Y32091166D01*
X32218285Y32138785D01*
X32027809Y32186404D01*
X31884952Y32186404D01*
X31694476Y32138785D01*
X31599238Y32091166D01*
X31504000Y31995928D01*
X31456380Y31853071D01*
X31456380Y31757833D01*
X31504000Y31614976D01*
X31551619Y31567357D01*
X31456380Y31234023D02*
X31456380Y30614976D01*
X31837333Y30948309D01*
X31837333Y30805452D01*
X31884952Y30710214D01*
X31932571Y30662595D01*
X32027809Y30614976D01*
X32265904Y30614976D01*
X32361142Y30662595D01*
X32408761Y30710214D01*
X32456380Y30805452D01*
X32456380Y31091166D01*
X32408761Y31186404D01*
X32361142Y31234023D01*
X31551619Y30234023D02*
X31504000Y30186404D01*
X31456380Y30091166D01*
X31456380Y29853071D01*
X31504000Y29757833D01*
X31551619Y29710214D01*
X31646857Y29662595D01*
X31742095Y29662595D01*
X31884952Y29710214D01*
X32456380Y30281642D01*
X32456380Y29662595D01*
%TO.C,C17*%
X35821857Y24979357D02*
X35869476Y24931738D01*
X36012333Y24884119D01*
X36107571Y24884119D01*
X36250428Y24931738D01*
X36345666Y25026976D01*
X36393285Y25122214D01*
X36440904Y25312690D01*
X36440904Y25455547D01*
X36393285Y25646023D01*
X36345666Y25741261D01*
X36250428Y25836500D01*
X36107571Y25884119D01*
X36012333Y25884119D01*
X35869476Y25836500D01*
X35821857Y25788880D01*
X34869476Y24884119D02*
X35440904Y24884119D01*
X35155190Y24884119D02*
X35155190Y25884119D01*
X35250428Y25741261D01*
X35345666Y25646023D01*
X35440904Y25598404D01*
X34536142Y25884119D02*
X33869476Y25884119D01*
X34298047Y24884119D01*
%TO.C,R22*%
X24137857Y18407119D02*
X24471190Y18883309D01*
X24709285Y18407119D02*
X24709285Y19407119D01*
X24328333Y19407119D01*
X24233095Y19359500D01*
X24185476Y19311880D01*
X24137857Y19216642D01*
X24137857Y19073785D01*
X24185476Y18978547D01*
X24233095Y18930928D01*
X24328333Y18883309D01*
X24709285Y18883309D01*
X23756904Y19311880D02*
X23709285Y19359500D01*
X23614047Y19407119D01*
X23375952Y19407119D01*
X23280714Y19359500D01*
X23233095Y19311880D01*
X23185476Y19216642D01*
X23185476Y19121404D01*
X23233095Y18978547D01*
X23804523Y18407119D01*
X23185476Y18407119D01*
X22804523Y19311880D02*
X22756904Y19359500D01*
X22661666Y19407119D01*
X22423571Y19407119D01*
X22328333Y19359500D01*
X22280714Y19311880D01*
X22233095Y19216642D01*
X22233095Y19121404D01*
X22280714Y18978547D01*
X22852142Y18407119D01*
X22233095Y18407119D01*
%TO.C,U2*%
X14350904Y11660119D02*
X14350904Y10850595D01*
X14303285Y10755357D01*
X14255666Y10707738D01*
X14160428Y10660119D01*
X13969952Y10660119D01*
X13874714Y10707738D01*
X13827095Y10755357D01*
X13779476Y10850595D01*
X13779476Y11660119D01*
X13350904Y11564880D02*
X13303285Y11612500D01*
X13208047Y11660119D01*
X12969952Y11660119D01*
X12874714Y11612500D01*
X12827095Y11564880D01*
X12779476Y11469642D01*
X12779476Y11374404D01*
X12827095Y11231547D01*
X13398523Y10660119D01*
X12779476Y10660119D01*
%TO.C,R8*%
X2452666Y17518119D02*
X2786000Y17994309D01*
X3024095Y17518119D02*
X3024095Y18518119D01*
X2643142Y18518119D01*
X2547904Y18470500D01*
X2500285Y18422880D01*
X2452666Y18327642D01*
X2452666Y18184785D01*
X2500285Y18089547D01*
X2547904Y18041928D01*
X2643142Y17994309D01*
X3024095Y17994309D01*
X1881238Y18089547D02*
X1976476Y18137166D01*
X2024095Y18184785D01*
X2071714Y18280023D01*
X2071714Y18327642D01*
X2024095Y18422880D01*
X1976476Y18470500D01*
X1881238Y18518119D01*
X1690761Y18518119D01*
X1595523Y18470500D01*
X1547904Y18422880D01*
X1500285Y18327642D01*
X1500285Y18280023D01*
X1547904Y18184785D01*
X1595523Y18137166D01*
X1690761Y18089547D01*
X1881238Y18089547D01*
X1976476Y18041928D01*
X2024095Y17994309D01*
X2071714Y17899071D01*
X2071714Y17708595D01*
X2024095Y17613357D01*
X1976476Y17565738D01*
X1881238Y17518119D01*
X1690761Y17518119D01*
X1595523Y17565738D01*
X1547904Y17613357D01*
X1500285Y17708595D01*
X1500285Y17899071D01*
X1547904Y17994309D01*
X1595523Y18041928D01*
X1690761Y18089547D01*
%TO.C,C23*%
X9374142Y26233357D02*
X9421761Y26280976D01*
X9469380Y26423833D01*
X9469380Y26519071D01*
X9421761Y26661928D01*
X9326523Y26757166D01*
X9231285Y26804785D01*
X9040809Y26852404D01*
X8897952Y26852404D01*
X8707476Y26804785D01*
X8612238Y26757166D01*
X8517000Y26661928D01*
X8469380Y26519071D01*
X8469380Y26423833D01*
X8517000Y26280976D01*
X8564619Y26233357D01*
X8564619Y25852404D02*
X8517000Y25804785D01*
X8469380Y25709547D01*
X8469380Y25471452D01*
X8517000Y25376214D01*
X8564619Y25328595D01*
X8659857Y25280976D01*
X8755095Y25280976D01*
X8897952Y25328595D01*
X9469380Y25900023D01*
X9469380Y25280976D01*
X8469380Y24947642D02*
X8469380Y24328595D01*
X8850333Y24661928D01*
X8850333Y24519071D01*
X8897952Y24423833D01*
X8945571Y24376214D01*
X9040809Y24328595D01*
X9278904Y24328595D01*
X9374142Y24376214D01*
X9421761Y24423833D01*
X9469380Y24519071D01*
X9469380Y24804785D01*
X9421761Y24900023D01*
X9374142Y24947642D01*
%TO.C,R41*%
X26106378Y12263345D02*
X25630188Y12596678D01*
X26106378Y12834773D02*
X25106378Y12834773D01*
X25106378Y12453821D01*
X25153998Y12358583D01*
X25201617Y12310964D01*
X25296855Y12263345D01*
X25439712Y12263345D01*
X25534950Y12310964D01*
X25582569Y12358583D01*
X25630188Y12453821D01*
X25630188Y12834773D01*
X25439712Y11406202D02*
X26106378Y11406202D01*
X25058759Y11644297D02*
X25773045Y11882392D01*
X25773045Y11263345D01*
X26106378Y10358583D02*
X26106378Y10930011D01*
X26106378Y10644297D02*
X25106378Y10644297D01*
X25249236Y10739535D01*
X25344474Y10834773D01*
X25392093Y10930011D01*
%TO.C,R20*%
X24137857Y20185119D02*
X24471190Y20661309D01*
X24709285Y20185119D02*
X24709285Y21185119D01*
X24328333Y21185119D01*
X24233095Y21137500D01*
X24185476Y21089880D01*
X24137857Y20994642D01*
X24137857Y20851785D01*
X24185476Y20756547D01*
X24233095Y20708928D01*
X24328333Y20661309D01*
X24709285Y20661309D01*
X23756904Y21089880D02*
X23709285Y21137500D01*
X23614047Y21185119D01*
X23375952Y21185119D01*
X23280714Y21137500D01*
X23233095Y21089880D01*
X23185476Y20994642D01*
X23185476Y20899404D01*
X23233095Y20756547D01*
X23804523Y20185119D01*
X23185476Y20185119D01*
X22566428Y21185119D02*
X22471190Y21185119D01*
X22375952Y21137500D01*
X22328333Y21089880D01*
X22280714Y20994642D01*
X22233095Y20804166D01*
X22233095Y20566071D01*
X22280714Y20375595D01*
X22328333Y20280357D01*
X22375952Y20232738D01*
X22471190Y20185119D01*
X22566428Y20185119D01*
X22661666Y20232738D01*
X22709285Y20280357D01*
X22756904Y20375595D01*
X22804523Y20566071D01*
X22804523Y20804166D01*
X22756904Y20994642D01*
X22709285Y21089880D01*
X22661666Y21137500D01*
X22566428Y21185119D01*
%TO.C,C18*%
X29661142Y6167357D02*
X29708761Y6214976D01*
X29756380Y6357833D01*
X29756380Y6453071D01*
X29708761Y6595928D01*
X29613523Y6691166D01*
X29518285Y6738785D01*
X29327809Y6786404D01*
X29184952Y6786404D01*
X28994476Y6738785D01*
X28899238Y6691166D01*
X28804000Y6595928D01*
X28756380Y6453071D01*
X28756380Y6357833D01*
X28804000Y6214976D01*
X28851619Y6167357D01*
X29756380Y5214976D02*
X29756380Y5786404D01*
X29756380Y5500690D02*
X28756380Y5500690D01*
X28899238Y5595928D01*
X28994476Y5691166D01*
X29042095Y5786404D01*
X29184952Y4643547D02*
X29137333Y4738785D01*
X29089714Y4786404D01*
X28994476Y4834023D01*
X28946857Y4834023D01*
X28851619Y4786404D01*
X28804000Y4738785D01*
X28756380Y4643547D01*
X28756380Y4453071D01*
X28804000Y4357833D01*
X28851619Y4310214D01*
X28946857Y4262595D01*
X28994476Y4262595D01*
X29089714Y4310214D01*
X29137333Y4357833D01*
X29184952Y4453071D01*
X29184952Y4643547D01*
X29232571Y4738785D01*
X29280190Y4786404D01*
X29375428Y4834023D01*
X29565904Y4834023D01*
X29661142Y4786404D01*
X29708761Y4738785D01*
X29756380Y4643547D01*
X29756380Y4453071D01*
X29708761Y4357833D01*
X29661142Y4310214D01*
X29565904Y4262595D01*
X29375428Y4262595D01*
X29280190Y4310214D01*
X29232571Y4357833D01*
X29184952Y4453071D01*
%TO.C,C7*%
X6516666Y21169357D02*
X6564285Y21121738D01*
X6707142Y21074119D01*
X6802380Y21074119D01*
X6945238Y21121738D01*
X7040476Y21216976D01*
X7088095Y21312214D01*
X7135714Y21502690D01*
X7135714Y21645547D01*
X7088095Y21836023D01*
X7040476Y21931261D01*
X6945238Y22026500D01*
X6802380Y22074119D01*
X6707142Y22074119D01*
X6564285Y22026500D01*
X6516666Y21978880D01*
X6183333Y22074119D02*
X5516666Y22074119D01*
X5945238Y21074119D01*
%TO.C,R40*%
X27185857Y13708119D02*
X27519190Y14184309D01*
X27757285Y13708119D02*
X27757285Y14708119D01*
X27376333Y14708119D01*
X27281095Y14660500D01*
X27233476Y14612880D01*
X27185857Y14517642D01*
X27185857Y14374785D01*
X27233476Y14279547D01*
X27281095Y14231928D01*
X27376333Y14184309D01*
X27757285Y14184309D01*
X26328714Y14374785D02*
X26328714Y13708119D01*
X26566809Y14755738D02*
X26804904Y14041452D01*
X26185857Y14041452D01*
X25614428Y14708119D02*
X25519190Y14708119D01*
X25423952Y14660500D01*
X25376333Y14612880D01*
X25328714Y14517642D01*
X25281095Y14327166D01*
X25281095Y14089071D01*
X25328714Y13898595D01*
X25376333Y13803357D01*
X25423952Y13755738D01*
X25519190Y13708119D01*
X25614428Y13708119D01*
X25709666Y13755738D01*
X25757285Y13803357D01*
X25804904Y13898595D01*
X25852523Y14089071D01*
X25852523Y14327166D01*
X25804904Y14517642D01*
X25757285Y14612880D01*
X25709666Y14660500D01*
X25614428Y14708119D01*
%TO.C,R25*%
X18168857Y7993119D02*
X18502190Y8469309D01*
X18740285Y7993119D02*
X18740285Y8993119D01*
X18359333Y8993119D01*
X18264095Y8945500D01*
X18216476Y8897880D01*
X18168857Y8802642D01*
X18168857Y8659785D01*
X18216476Y8564547D01*
X18264095Y8516928D01*
X18359333Y8469309D01*
X18740285Y8469309D01*
X17787904Y8897880D02*
X17740285Y8945500D01*
X17645047Y8993119D01*
X17406952Y8993119D01*
X17311714Y8945500D01*
X17264095Y8897880D01*
X17216476Y8802642D01*
X17216476Y8707404D01*
X17264095Y8564547D01*
X17835523Y7993119D01*
X17216476Y7993119D01*
X16311714Y8993119D02*
X16787904Y8993119D01*
X16835523Y8516928D01*
X16787904Y8564547D01*
X16692666Y8612166D01*
X16454571Y8612166D01*
X16359333Y8564547D01*
X16311714Y8516928D01*
X16264095Y8421690D01*
X16264095Y8183595D01*
X16311714Y8088357D01*
X16359333Y8040738D01*
X16454571Y7993119D01*
X16692666Y7993119D01*
X16787904Y8040738D01*
X16835523Y8088357D01*
%TO.C,R5*%
X2452666Y19550119D02*
X2786000Y20026309D01*
X3024095Y19550119D02*
X3024095Y20550119D01*
X2643142Y20550119D01*
X2547904Y20502500D01*
X2500285Y20454880D01*
X2452666Y20359642D01*
X2452666Y20216785D01*
X2500285Y20121547D01*
X2547904Y20073928D01*
X2643142Y20026309D01*
X3024095Y20026309D01*
X1547904Y20550119D02*
X2024095Y20550119D01*
X2071714Y20073928D01*
X2024095Y20121547D01*
X1928857Y20169166D01*
X1690761Y20169166D01*
X1595523Y20121547D01*
X1547904Y20073928D01*
X1500285Y19978690D01*
X1500285Y19740595D01*
X1547904Y19645357D01*
X1595523Y19597738D01*
X1690761Y19550119D01*
X1928857Y19550119D01*
X2024095Y19597738D01*
X2071714Y19645357D01*
%TO.C,R21*%
X24181857Y11549119D02*
X24515190Y12025309D01*
X24753285Y11549119D02*
X24753285Y12549119D01*
X24372333Y12549119D01*
X24277095Y12501500D01*
X24229476Y12453880D01*
X24181857Y12358642D01*
X24181857Y12215785D01*
X24229476Y12120547D01*
X24277095Y12072928D01*
X24372333Y12025309D01*
X24753285Y12025309D01*
X23800904Y12453880D02*
X23753285Y12501500D01*
X23658047Y12549119D01*
X23419952Y12549119D01*
X23324714Y12501500D01*
X23277095Y12453880D01*
X23229476Y12358642D01*
X23229476Y12263404D01*
X23277095Y12120547D01*
X23848523Y11549119D01*
X23229476Y11549119D01*
X22277095Y11549119D02*
X22848523Y11549119D01*
X22562809Y11549119D02*
X22562809Y12549119D01*
X22658047Y12406261D01*
X22753285Y12311023D01*
X22848523Y12263404D01*
%TO.C,R23*%
X18168857Y9898119D02*
X18502190Y10374309D01*
X18740285Y9898119D02*
X18740285Y10898119D01*
X18359333Y10898119D01*
X18264095Y10850500D01*
X18216476Y10802880D01*
X18168857Y10707642D01*
X18168857Y10564785D01*
X18216476Y10469547D01*
X18264095Y10421928D01*
X18359333Y10374309D01*
X18740285Y10374309D01*
X17787904Y10802880D02*
X17740285Y10850500D01*
X17645047Y10898119D01*
X17406952Y10898119D01*
X17311714Y10850500D01*
X17264095Y10802880D01*
X17216476Y10707642D01*
X17216476Y10612404D01*
X17264095Y10469547D01*
X17835523Y9898119D01*
X17216476Y9898119D01*
X16883142Y10898119D02*
X16264095Y10898119D01*
X16597428Y10517166D01*
X16454571Y10517166D01*
X16359333Y10469547D01*
X16311714Y10421928D01*
X16264095Y10326690D01*
X16264095Y10088595D01*
X16311714Y9993357D01*
X16359333Y9945738D01*
X16454571Y9898119D01*
X16740285Y9898119D01*
X16835523Y9945738D01*
X16883142Y9993357D01*
%TO.C,U10*%
X34004095Y14454119D02*
X34004095Y13644595D01*
X33956476Y13549357D01*
X33908857Y13501738D01*
X33813619Y13454119D01*
X33623142Y13454119D01*
X33527904Y13501738D01*
X33480285Y13549357D01*
X33432666Y13644595D01*
X33432666Y14454119D01*
X32432666Y13454119D02*
X33004095Y13454119D01*
X32718380Y13454119D02*
X32718380Y14454119D01*
X32813619Y14311261D01*
X32908857Y14216023D01*
X33004095Y14168404D01*
X31813619Y14454119D02*
X31718380Y14454119D01*
X31623142Y14406500D01*
X31575523Y14358880D01*
X31527904Y14263642D01*
X31480285Y14073166D01*
X31480285Y13835071D01*
X31527904Y13644595D01*
X31575523Y13549357D01*
X31623142Y13501738D01*
X31718380Y13454119D01*
X31813619Y13454119D01*
X31908857Y13501738D01*
X31956476Y13549357D01*
X32004095Y13644595D01*
X32051714Y13835071D01*
X32051714Y14073166D01*
X32004095Y14263642D01*
X31956476Y14358880D01*
X31908857Y14406500D01*
X31813619Y14454119D01*
X33908998Y12041107D02*
X33908998Y11803011D01*
X34147093Y11898249D02*
X33908998Y11803011D01*
X33670902Y11898249D01*
X34051855Y11612535D02*
X33908998Y11803011D01*
X33766140Y11612535D01*
%TO.C,R33*%
X29344857Y27043119D02*
X29678190Y27519309D01*
X29916285Y27043119D02*
X29916285Y28043119D01*
X29535333Y28043119D01*
X29440095Y27995500D01*
X29392476Y27947880D01*
X29344857Y27852642D01*
X29344857Y27709785D01*
X29392476Y27614547D01*
X29440095Y27566928D01*
X29535333Y27519309D01*
X29916285Y27519309D01*
X29011523Y28043119D02*
X28392476Y28043119D01*
X28725809Y27662166D01*
X28582952Y27662166D01*
X28487714Y27614547D01*
X28440095Y27566928D01*
X28392476Y27471690D01*
X28392476Y27233595D01*
X28440095Y27138357D01*
X28487714Y27090738D01*
X28582952Y27043119D01*
X28868666Y27043119D01*
X28963904Y27090738D01*
X29011523Y27138357D01*
X28059142Y28043119D02*
X27440095Y28043119D01*
X27773428Y27662166D01*
X27630571Y27662166D01*
X27535333Y27614547D01*
X27487714Y27566928D01*
X27440095Y27471690D01*
X27440095Y27233595D01*
X27487714Y27138357D01*
X27535333Y27090738D01*
X27630571Y27043119D01*
X27916285Y27043119D01*
X28011523Y27090738D01*
X28059142Y27138357D01*
%TO.C,U5*%
X38985904Y32562119D02*
X38985904Y31752595D01*
X38938285Y31657357D01*
X38890666Y31609738D01*
X38795428Y31562119D01*
X38604952Y31562119D01*
X38509714Y31609738D01*
X38462095Y31657357D01*
X38414476Y31752595D01*
X38414476Y32562119D01*
X37462095Y32562119D02*
X37938285Y32562119D01*
X37985904Y32085928D01*
X37938285Y32133547D01*
X37843047Y32181166D01*
X37604952Y32181166D01*
X37509714Y32133547D01*
X37462095Y32085928D01*
X37414476Y31990690D01*
X37414476Y31752595D01*
X37462095Y31657357D01*
X37509714Y31609738D01*
X37604952Y31562119D01*
X37843047Y31562119D01*
X37938285Y31609738D01*
X37985904Y31657357D01*
%TO.C,R17*%
X21216857Y23233119D02*
X21550190Y23709309D01*
X21788285Y23233119D02*
X21788285Y24233119D01*
X21407333Y24233119D01*
X21312095Y24185500D01*
X21264476Y24137880D01*
X21216857Y24042642D01*
X21216857Y23899785D01*
X21264476Y23804547D01*
X21312095Y23756928D01*
X21407333Y23709309D01*
X21788285Y23709309D01*
X20264476Y23233119D02*
X20835904Y23233119D01*
X20550190Y23233119D02*
X20550190Y24233119D01*
X20645428Y24090261D01*
X20740666Y23995023D01*
X20835904Y23947404D01*
X19931142Y24233119D02*
X19264476Y24233119D01*
X19693047Y23233119D01*
%TO.C,R32*%
X36329857Y15613119D02*
X36663190Y16089309D01*
X36901285Y15613119D02*
X36901285Y16613119D01*
X36520333Y16613119D01*
X36425095Y16565500D01*
X36377476Y16517880D01*
X36329857Y16422642D01*
X36329857Y16279785D01*
X36377476Y16184547D01*
X36425095Y16136928D01*
X36520333Y16089309D01*
X36901285Y16089309D01*
X35996523Y16613119D02*
X35377476Y16613119D01*
X35710809Y16232166D01*
X35567952Y16232166D01*
X35472714Y16184547D01*
X35425095Y16136928D01*
X35377476Y16041690D01*
X35377476Y15803595D01*
X35425095Y15708357D01*
X35472714Y15660738D01*
X35567952Y15613119D01*
X35853666Y15613119D01*
X35948904Y15660738D01*
X35996523Y15708357D01*
X34996523Y16517880D02*
X34948904Y16565500D01*
X34853666Y16613119D01*
X34615571Y16613119D01*
X34520333Y16565500D01*
X34472714Y16517880D01*
X34425095Y16422642D01*
X34425095Y16327404D01*
X34472714Y16184547D01*
X35044142Y15613119D01*
X34425095Y15613119D01*
%TO.C,R38*%
X27566855Y7231107D02*
X27900188Y7707297D01*
X28138283Y7231107D02*
X28138283Y8231107D01*
X27757331Y8231107D01*
X27662093Y8183488D01*
X27614474Y8135868D01*
X27566855Y8040630D01*
X27566855Y7897773D01*
X27614474Y7802535D01*
X27662093Y7754916D01*
X27757331Y7707297D01*
X28138283Y7707297D01*
X27233521Y8231107D02*
X26614474Y8231107D01*
X26947807Y7850154D01*
X26804950Y7850154D01*
X26709712Y7802535D01*
X26662093Y7754916D01*
X26614474Y7659678D01*
X26614474Y7421583D01*
X26662093Y7326345D01*
X26709712Y7278726D01*
X26804950Y7231107D01*
X27090664Y7231107D01*
X27185902Y7278726D01*
X27233521Y7326345D01*
X26043045Y7802535D02*
X26138283Y7850154D01*
X26185902Y7897773D01*
X26233521Y7993011D01*
X26233521Y8040630D01*
X26185902Y8135868D01*
X26138283Y8183488D01*
X26043045Y8231107D01*
X25852569Y8231107D01*
X25757331Y8183488D01*
X25709712Y8135868D01*
X25662093Y8040630D01*
X25662093Y7993011D01*
X25709712Y7897773D01*
X25757331Y7850154D01*
X25852569Y7802535D01*
X26043045Y7802535D01*
X26138283Y7754916D01*
X26185902Y7707297D01*
X26233521Y7612059D01*
X26233521Y7421583D01*
X26185902Y7326345D01*
X26138283Y7278726D01*
X26043045Y7231107D01*
X25852569Y7231107D01*
X25757331Y7278726D01*
X25709712Y7326345D01*
X25662093Y7421583D01*
X25662093Y7612059D01*
X25709712Y7707297D01*
X25757331Y7754916D01*
X25852569Y7802535D01*
%TO.C,R42*%
X38552380Y8072357D02*
X38076190Y8405690D01*
X38552380Y8643785D02*
X37552380Y8643785D01*
X37552380Y8262833D01*
X37600000Y8167595D01*
X37647619Y8119976D01*
X37742857Y8072357D01*
X37885714Y8072357D01*
X37980952Y8119976D01*
X38028571Y8167595D01*
X38076190Y8262833D01*
X38076190Y8643785D01*
X37885714Y7215214D02*
X38552380Y7215214D01*
X37504761Y7453309D02*
X38219047Y7691404D01*
X38219047Y7072357D01*
X37647619Y6739023D02*
X37600000Y6691404D01*
X37552380Y6596166D01*
X37552380Y6358071D01*
X37600000Y6262833D01*
X37647619Y6215214D01*
X37742857Y6167595D01*
X37838095Y6167595D01*
X37980952Y6215214D01*
X38552380Y6786642D01*
X38552380Y6167595D01*
%TO.C,R34*%
X26106380Y18867357D02*
X25630190Y19200690D01*
X26106380Y19438785D02*
X25106380Y19438785D01*
X25106380Y19057833D01*
X25154000Y18962595D01*
X25201619Y18914976D01*
X25296857Y18867357D01*
X25439714Y18867357D01*
X25534952Y18914976D01*
X25582571Y18962595D01*
X25630190Y19057833D01*
X25630190Y19438785D01*
X25106380Y18534023D02*
X25106380Y17914976D01*
X25487333Y18248309D01*
X25487333Y18105452D01*
X25534952Y18010214D01*
X25582571Y17962595D01*
X25677809Y17914976D01*
X25915904Y17914976D01*
X26011142Y17962595D01*
X26058761Y18010214D01*
X26106380Y18105452D01*
X26106380Y18391166D01*
X26058761Y18486404D01*
X26011142Y18534023D01*
X25439714Y17057833D02*
X26106380Y17057833D01*
X25058761Y17295928D02*
X25773047Y17534023D01*
X25773047Y16914976D01*
%TO.C,U8*%
X26630380Y21653404D02*
X27439904Y21653404D01*
X27535142Y21605785D01*
X27582761Y21558166D01*
X27630380Y21462928D01*
X27630380Y21272452D01*
X27582761Y21177214D01*
X27535142Y21129595D01*
X27439904Y21081976D01*
X26630380Y21081976D01*
X27058952Y20462928D02*
X27011333Y20558166D01*
X26963714Y20605785D01*
X26868476Y20653404D01*
X26820857Y20653404D01*
X26725619Y20605785D01*
X26678000Y20558166D01*
X26630380Y20462928D01*
X26630380Y20272452D01*
X26678000Y20177214D01*
X26725619Y20129595D01*
X26820857Y20081976D01*
X26868476Y20081976D01*
X26963714Y20129595D01*
X27011333Y20177214D01*
X27058952Y20272452D01*
X27058952Y20462928D01*
X27106571Y20558166D01*
X27154190Y20605785D01*
X27249428Y20653404D01*
X27439904Y20653404D01*
X27535142Y20605785D01*
X27582761Y20558166D01*
X27630380Y20462928D01*
X27630380Y20272452D01*
X27582761Y20177214D01*
X27535142Y20129595D01*
X27439904Y20081976D01*
X27249428Y20081976D01*
X27154190Y20129595D01*
X27106571Y20177214D01*
X27058952Y20272452D01*
X28916380Y22415500D02*
X29154476Y22415500D01*
X29059238Y22653595D02*
X29154476Y22415500D01*
X29059238Y22177404D01*
X29344952Y22558357D02*
X29154476Y22415500D01*
X29344952Y22272642D01*
%TO.C,R24*%
X21216857Y15105119D02*
X21550190Y15581309D01*
X21788285Y15105119D02*
X21788285Y16105119D01*
X21407333Y16105119D01*
X21312095Y16057500D01*
X21264476Y16009880D01*
X21216857Y15914642D01*
X21216857Y15771785D01*
X21264476Y15676547D01*
X21312095Y15628928D01*
X21407333Y15581309D01*
X21788285Y15581309D01*
X20835904Y16009880D02*
X20788285Y16057500D01*
X20693047Y16105119D01*
X20454952Y16105119D01*
X20359714Y16057500D01*
X20312095Y16009880D01*
X20264476Y15914642D01*
X20264476Y15819404D01*
X20312095Y15676547D01*
X20883523Y15105119D01*
X20264476Y15105119D01*
X19407333Y15771785D02*
X19407333Y15105119D01*
X19645428Y16152738D02*
X19883523Y15438452D01*
X19264476Y15438452D01*
%TO.C,R35*%
X27058857Y15359119D02*
X27392190Y15835309D01*
X27630285Y15359119D02*
X27630285Y16359119D01*
X27249333Y16359119D01*
X27154095Y16311500D01*
X27106476Y16263880D01*
X27058857Y16168642D01*
X27058857Y16025785D01*
X27106476Y15930547D01*
X27154095Y15882928D01*
X27249333Y15835309D01*
X27630285Y15835309D01*
X26725523Y16359119D02*
X26106476Y16359119D01*
X26439809Y15978166D01*
X26296952Y15978166D01*
X26201714Y15930547D01*
X26154095Y15882928D01*
X26106476Y15787690D01*
X26106476Y15549595D01*
X26154095Y15454357D01*
X26201714Y15406738D01*
X26296952Y15359119D01*
X26582666Y15359119D01*
X26677904Y15406738D01*
X26725523Y15454357D01*
X25201714Y16359119D02*
X25677904Y16359119D01*
X25725523Y15882928D01*
X25677904Y15930547D01*
X25582666Y15978166D01*
X25344571Y15978166D01*
X25249333Y15930547D01*
X25201714Y15882928D01*
X25154095Y15787690D01*
X25154095Y15549595D01*
X25201714Y15454357D01*
X25249333Y15406738D01*
X25344571Y15359119D01*
X25582666Y15359119D01*
X25677904Y15406738D01*
X25725523Y15454357D01*
%TO.C,R39*%
X38679380Y15184357D02*
X38203190Y15517690D01*
X38679380Y15755785D02*
X37679380Y15755785D01*
X37679380Y15374833D01*
X37727000Y15279595D01*
X37774619Y15231976D01*
X37869857Y15184357D01*
X38012714Y15184357D01*
X38107952Y15231976D01*
X38155571Y15279595D01*
X38203190Y15374833D01*
X38203190Y15755785D01*
X37679380Y14851023D02*
X37679380Y14231976D01*
X38060333Y14565309D01*
X38060333Y14422452D01*
X38107952Y14327214D01*
X38155571Y14279595D01*
X38250809Y14231976D01*
X38488904Y14231976D01*
X38584142Y14279595D01*
X38631761Y14327214D01*
X38679380Y14422452D01*
X38679380Y14708166D01*
X38631761Y14803404D01*
X38584142Y14851023D01*
X38679380Y13755785D02*
X38679380Y13565309D01*
X38631761Y13470071D01*
X38584142Y13422452D01*
X38441285Y13327214D01*
X38250809Y13279595D01*
X37869857Y13279595D01*
X37774619Y13327214D01*
X37727000Y13374833D01*
X37679380Y13470071D01*
X37679380Y13660547D01*
X37727000Y13755785D01*
X37774619Y13803404D01*
X37869857Y13851023D01*
X38107952Y13851023D01*
X38203190Y13803404D01*
X38250809Y13755785D01*
X38298428Y13660547D01*
X38298428Y13470071D01*
X38250809Y13374833D01*
X38203190Y13327214D01*
X38107952Y13279595D01*
%TO.C,C24*%
X14739857Y21550357D02*
X14787476Y21502738D01*
X14930333Y21455119D01*
X15025571Y21455119D01*
X15168428Y21502738D01*
X15263666Y21597976D01*
X15311285Y21693214D01*
X15358904Y21883690D01*
X15358904Y22026547D01*
X15311285Y22217023D01*
X15263666Y22312261D01*
X15168428Y22407500D01*
X15025571Y22455119D01*
X14930333Y22455119D01*
X14787476Y22407500D01*
X14739857Y22359880D01*
X14358904Y22359880D02*
X14311285Y22407500D01*
X14216047Y22455119D01*
X13977952Y22455119D01*
X13882714Y22407500D01*
X13835095Y22359880D01*
X13787476Y22264642D01*
X13787476Y22169404D01*
X13835095Y22026547D01*
X14406523Y21455119D01*
X13787476Y21455119D01*
X12930333Y22121785D02*
X12930333Y21455119D01*
X13168428Y22502738D02*
X13406523Y21788452D01*
X12787476Y21788452D01*
%TO.C,R19*%
X24308857Y13327119D02*
X24642190Y13803309D01*
X24880285Y13327119D02*
X24880285Y14327119D01*
X24499333Y14327119D01*
X24404095Y14279500D01*
X24356476Y14231880D01*
X24308857Y14136642D01*
X24308857Y13993785D01*
X24356476Y13898547D01*
X24404095Y13850928D01*
X24499333Y13803309D01*
X24880285Y13803309D01*
X23356476Y13327119D02*
X23927904Y13327119D01*
X23642190Y13327119D02*
X23642190Y14327119D01*
X23737428Y14184261D01*
X23832666Y14089023D01*
X23927904Y14041404D01*
X22880285Y13327119D02*
X22689809Y13327119D01*
X22594571Y13374738D01*
X22546952Y13422357D01*
X22451714Y13565214D01*
X22404095Y13755690D01*
X22404095Y14136642D01*
X22451714Y14231880D01*
X22499333Y14279500D01*
X22594571Y14327119D01*
X22785047Y14327119D01*
X22880285Y14279500D01*
X22927904Y14231880D01*
X22975523Y14136642D01*
X22975523Y13898547D01*
X22927904Y13803309D01*
X22880285Y13755690D01*
X22785047Y13708071D01*
X22594571Y13708071D01*
X22499333Y13755690D01*
X22451714Y13803309D01*
X22404095Y13898547D01*
%TO.C,C20*%
X34805857Y4405357D02*
X34853476Y4357738D01*
X34996333Y4310119D01*
X35091571Y4310119D01*
X35234428Y4357738D01*
X35329666Y4452976D01*
X35377285Y4548214D01*
X35424904Y4738690D01*
X35424904Y4881547D01*
X35377285Y5072023D01*
X35329666Y5167261D01*
X35234428Y5262500D01*
X35091571Y5310119D01*
X34996333Y5310119D01*
X34853476Y5262500D01*
X34805857Y5214880D01*
X34424904Y5214880D02*
X34377285Y5262500D01*
X34282047Y5310119D01*
X34043952Y5310119D01*
X33948714Y5262500D01*
X33901095Y5214880D01*
X33853476Y5119642D01*
X33853476Y5024404D01*
X33901095Y4881547D01*
X34472523Y4310119D01*
X33853476Y4310119D01*
X33234428Y5310119D02*
X33139190Y5310119D01*
X33043952Y5262500D01*
X32996333Y5214880D01*
X32948714Y5119642D01*
X32901095Y4929166D01*
X32901095Y4691071D01*
X32948714Y4500595D01*
X32996333Y4405357D01*
X33043952Y4357738D01*
X33139190Y4310119D01*
X33234428Y4310119D01*
X33329666Y4357738D01*
X33377285Y4405357D01*
X33424904Y4500595D01*
X33472523Y4691071D01*
X33472523Y4929166D01*
X33424904Y5119642D01*
X33377285Y5214880D01*
X33329666Y5262500D01*
X33234428Y5310119D01*
%TO.C,C22*%
X19565857Y24852357D02*
X19613476Y24804738D01*
X19756333Y24757119D01*
X19851571Y24757119D01*
X19994428Y24804738D01*
X20089666Y24899976D01*
X20137285Y24995214D01*
X20184904Y25185690D01*
X20184904Y25328547D01*
X20137285Y25519023D01*
X20089666Y25614261D01*
X19994428Y25709500D01*
X19851571Y25757119D01*
X19756333Y25757119D01*
X19613476Y25709500D01*
X19565857Y25661880D01*
X19184904Y25661880D02*
X19137285Y25709500D01*
X19042047Y25757119D01*
X18803952Y25757119D01*
X18708714Y25709500D01*
X18661095Y25661880D01*
X18613476Y25566642D01*
X18613476Y25471404D01*
X18661095Y25328547D01*
X19232523Y24757119D01*
X18613476Y24757119D01*
X18232523Y25661880D02*
X18184904Y25709500D01*
X18089666Y25757119D01*
X17851571Y25757119D01*
X17756333Y25709500D01*
X17708714Y25661880D01*
X17661095Y25566642D01*
X17661095Y25471404D01*
X17708714Y25328547D01*
X18280142Y24757119D01*
X17661095Y24757119D01*
D11*
%TO.C,U11*%
X16535999Y26117499D02*
X16535999Y25342497D01*
X13436001Y27542500D02*
X13436001Y25367501D01*
D12*
%TO.C,C16*%
X35700580Y19365500D02*
X35419420Y19365500D01*
X35700580Y20385500D02*
X35419420Y20385500D01*
%TO.C,R36*%
X31893742Y26621000D02*
X32368258Y26621000D01*
X31893742Y25576000D02*
X32368258Y25576000D01*
%TO.C,C31*%
X42416000Y27636080D02*
X42416000Y27354920D01*
X43436000Y27636080D02*
X43436000Y27354920D01*
%TO.C,U6*%
X4318000Y28912500D02*
X2368000Y28912500D01*
X4318000Y28912500D02*
X7768000Y28912500D01*
X4318000Y23792500D02*
X6268000Y23792500D01*
X4318000Y23792500D02*
X2368000Y23792500D01*
%TO.C,C32*%
X32891000Y30557080D02*
X32891000Y30275920D01*
X33911000Y30557080D02*
X33911000Y30275920D01*
%TO.C,C17*%
X35054000Y23445080D02*
X35054000Y23163920D01*
X34034000Y23445080D02*
X34034000Y23163920D01*
%TO.C,R22*%
X20336742Y19382000D02*
X20811258Y19382000D01*
X20336742Y18337000D02*
X20811258Y18337000D01*
D10*
%TO.C,U2*%
X16591000Y20419500D02*
X18191000Y20419500D01*
X10841000Y11994500D02*
X10841000Y12294500D01*
X10841000Y20644500D02*
X10841000Y20344500D01*
X16591000Y11994500D02*
X10841000Y11994500D01*
X16591000Y20644500D02*
X10841000Y20644500D01*
X16591000Y11994500D02*
X16591000Y12294500D01*
X16591000Y20644500D02*
X16591000Y20419500D01*
D12*
%TO.C,R8*%
X4588742Y17448000D02*
X5063258Y17448000D01*
X4588742Y18493000D02*
X5063258Y18493000D01*
%TO.C,C23*%
X11162420Y25080500D02*
X11443580Y25080500D01*
X11162420Y26100500D02*
X11443580Y26100500D01*
%TO.C,R41*%
X26655498Y11857746D02*
X26655498Y11383230D01*
X27700498Y11857746D02*
X27700498Y11383230D01*
%TO.C,R20*%
X20336742Y21160000D02*
X20811258Y21160000D01*
X20336742Y20115000D02*
X20811258Y20115000D01*
%TO.C,C18*%
X30224000Y5665080D02*
X30224000Y5383920D01*
X31244000Y5665080D02*
X31244000Y5383920D01*
%TO.C,C7*%
X8622420Y21143500D02*
X8903580Y21143500D01*
X8622420Y22163500D02*
X8903580Y22163500D01*
%TO.C,R40*%
X29480742Y13511000D02*
X29955258Y13511000D01*
X29480742Y14556000D02*
X29955258Y14556000D01*
%TO.C,R25*%
X20336742Y8968000D02*
X20811258Y8968000D01*
X20336742Y7923000D02*
X20811258Y7923000D01*
%TO.C,R5*%
X5063258Y20525000D02*
X4588742Y20525000D01*
X5063258Y19480000D02*
X4588742Y19480000D01*
%TO.C,R21*%
X20336742Y11479000D02*
X20811258Y11479000D01*
X20336742Y12524000D02*
X20811258Y12524000D01*
%TO.C,R23*%
X20336742Y10873000D02*
X20811258Y10873000D01*
X20336742Y9828000D02*
X20811258Y9828000D01*
D11*
%TO.C,U10*%
X36138999Y12973488D02*
X30788999Y12973488D01*
X34488997Y7673491D02*
X30788999Y7673491D01*
D12*
%TO.C,R33*%
X28939258Y25576000D02*
X28464742Y25576000D01*
X28939258Y26621000D02*
X28464742Y26621000D01*
%TO.C,U5*%
X38224000Y26054500D02*
X36274000Y26054500D01*
X38224000Y31174500D02*
X41674000Y31174500D01*
X38224000Y31174500D02*
X36274000Y31174500D01*
X38224000Y26054500D02*
X40174000Y26054500D01*
%TO.C,R17*%
X20336742Y21766000D02*
X20811258Y21766000D01*
X20336742Y22811000D02*
X20811258Y22811000D01*
%TO.C,R32*%
X32876258Y16588000D02*
X32401742Y16588000D01*
X32876258Y15543000D02*
X32401742Y15543000D01*
%TO.C,R38*%
X26813740Y9729988D02*
X27288256Y9729988D01*
X26813740Y8684988D02*
X27288256Y8684988D01*
%TO.C,R42*%
X37577500Y10714758D02*
X37577500Y10240242D01*
X38622500Y10714758D02*
X38622500Y10240242D01*
%TO.C,R34*%
X26528500Y17987242D02*
X26528500Y18461758D01*
X27573500Y17987242D02*
X27573500Y18461758D01*
D11*
%TO.C,U8*%
X27984000Y24645501D02*
X27984000Y19295501D01*
X33283997Y22995499D02*
X33283997Y19295501D01*
D12*
%TO.C,R24*%
X20336742Y17604000D02*
X20811258Y17604000D01*
X20336742Y16559000D02*
X20811258Y16559000D01*
%TO.C,R35*%
X28972742Y15416000D02*
X29447258Y15416000D01*
X28972742Y16461000D02*
X29447258Y16461000D01*
%TO.C,R39*%
X36178256Y14555988D02*
X35703740Y14555988D01*
X36178256Y13510988D02*
X35703740Y13510988D01*
%TO.C,C24*%
X17158580Y22417500D02*
X16877420Y22417500D01*
X17158580Y21397500D02*
X16877420Y21397500D01*
%TO.C,R19*%
X20336742Y14302000D02*
X20811258Y14302000D01*
X20336742Y13257000D02*
X20811258Y13257000D01*
%TO.C,C20*%
X35065580Y5649500D02*
X34784420Y5649500D01*
X35065580Y6669500D02*
X34784420Y6669500D01*
%TO.C,C22*%
X18655420Y26096500D02*
X18936580Y26096500D01*
X18655420Y27116500D02*
X18936580Y27116500D01*
%TD*%
%LPC*%
D13*
%TO.C,J2*%
X35550000Y3168500D03*
D14*
X33010000Y3168500D03*
X30470000Y3168500D03*
X27930000Y3168500D03*
%TD*%
D15*
%TO.C,TP1*%
X23876000Y3111500D03*
%TD*%
D16*
%TO.C,TP9*%
X20193000Y28384500D03*
%TD*%
D17*
%TO.C,H7*%
X45200000Y31617500D03*
%TD*%
D18*
%TO.C,J5*%
X38608000Y17317500D03*
D19*
X43688000Y22397500D03*
D18*
X38608000Y19857500D03*
D19*
X43688000Y12237500D03*
%TD*%
D20*
%TO.C,J4*%
X7318000Y16085500D03*
X7318000Y30585500D03*
X2418000Y31185500D03*
X2418000Y15485500D03*
%TD*%
D17*
%TO.C,H2*%
X14100000Y3317500D03*
%TD*%
D21*
%TO.C,H3*%
X45200000Y3317500D03*
%TD*%
D15*
%TO.C,TP2*%
X20193000Y31686500D03*
%TD*%
D17*
%TO.C,H1*%
X14100000Y31617500D03*
%TD*%
D22*
%TO.C,J1*%
X4826000Y5905500D03*
D23*
X7375900Y3355600D03*
X2276100Y3355600D03*
X2276100Y8455400D03*
X7375900Y8455400D03*
%TD*%
D24*
%TO.C,U11*%
X14035999Y27192501D03*
X14986000Y27192501D03*
X15935998Y27192501D03*
X15935998Y24242502D03*
X14986000Y24242502D03*
X14035999Y24242502D03*
%TD*%
D25*
%TO.C,C16*%
X36335000Y19875500D03*
X34785000Y19875500D03*
%TD*%
D26*
%TO.C,R36*%
X31306000Y26098500D03*
X32956000Y26098500D03*
%TD*%
D27*
%TO.C,C31*%
X42926000Y28270500D03*
X42926000Y26720500D03*
%TD*%
D28*
%TO.C,U6*%
X6793000Y28257500D03*
X6793000Y26987500D03*
X6793000Y25717500D03*
X6793000Y24447500D03*
X1843000Y24447500D03*
X1843000Y25717500D03*
X1843000Y26987500D03*
X1843000Y28257500D03*
%TD*%
D27*
%TO.C,C32*%
X33401000Y31191500D03*
X33401000Y29641500D03*
%TD*%
%TO.C,C17*%
X34544000Y24079500D03*
X34544000Y22529500D03*
%TD*%
D26*
%TO.C,R22*%
X19749000Y18859500D03*
X21399000Y18859500D03*
%TD*%
D29*
%TO.C,U2*%
X17316000Y19894500D03*
X17316000Y19244500D03*
X17316000Y18594500D03*
X17316000Y17944500D03*
X17316000Y17294500D03*
X17316000Y16644500D03*
X17316000Y15994500D03*
X17316000Y15344500D03*
X17316000Y14694500D03*
X17316000Y14044500D03*
X17316000Y13394500D03*
X17316000Y12744500D03*
X10116000Y12744500D03*
X10116000Y13394500D03*
X10116000Y14044500D03*
X10116000Y14694500D03*
X10116000Y15344500D03*
X10116000Y15994500D03*
X10116000Y16644500D03*
X10116000Y17294500D03*
X10116000Y17944500D03*
X10116000Y18594500D03*
X10116000Y19244500D03*
X10116000Y19894500D03*
%TD*%
D26*
%TO.C,R8*%
X4001000Y17970500D03*
X5651000Y17970500D03*
%TD*%
D30*
%TO.C,C23*%
X10528000Y25590500D03*
X12078000Y25590500D03*
%TD*%
D31*
%TO.C,R41*%
X27177998Y12445488D03*
X27177998Y10795488D03*
%TD*%
D26*
%TO.C,R20*%
X19749000Y20637500D03*
X21399000Y20637500D03*
%TD*%
D27*
%TO.C,C18*%
X30734000Y6299500D03*
X30734000Y4749500D03*
%TD*%
D30*
%TO.C,C7*%
X7988000Y21653500D03*
X9538000Y21653500D03*
%TD*%
D26*
%TO.C,R40*%
X28893000Y14033500D03*
X30543000Y14033500D03*
%TD*%
%TO.C,R25*%
X19749000Y8445500D03*
X21399000Y8445500D03*
%TD*%
D32*
%TO.C,R5*%
X5651000Y20002500D03*
X4001000Y20002500D03*
%TD*%
D26*
%TO.C,R21*%
X19749000Y12001500D03*
X21399000Y12001500D03*
%TD*%
%TO.C,R23*%
X19749000Y10350500D03*
X21399000Y10350500D03*
%TD*%
D33*
%TO.C,U10*%
X35588997Y12498487D03*
X35588997Y11848486D03*
X35588997Y11198487D03*
X35588997Y10548486D03*
X35588997Y9898487D03*
X35588997Y9248486D03*
X35588997Y8598487D03*
X35588997Y7948486D03*
X29688996Y7948486D03*
X29688996Y8598487D03*
X29688996Y9248486D03*
X29688996Y9898487D03*
X29688996Y10548486D03*
X29688996Y11198487D03*
X29688996Y11848486D03*
X29688996Y12498487D03*
%TD*%
D32*
%TO.C,R33*%
X29527000Y26098500D03*
X27877000Y26098500D03*
%TD*%
D28*
%TO.C,U5*%
X40699000Y30519500D03*
X40699000Y29249500D03*
X40699000Y27979500D03*
X40699000Y26709500D03*
X35749000Y26709500D03*
X35749000Y27979500D03*
X35749000Y29249500D03*
X35749000Y30519500D03*
%TD*%
D26*
%TO.C,R17*%
X19749000Y22288500D03*
X21399000Y22288500D03*
%TD*%
D32*
%TO.C,R32*%
X33464000Y16065500D03*
X31814000Y16065500D03*
%TD*%
D26*
%TO.C,R38*%
X26225998Y9207488D03*
X27875998Y9207488D03*
%TD*%
D31*
%TO.C,R42*%
X38100000Y11302500D03*
X38100000Y9652500D03*
%TD*%
D34*
%TO.C,R34*%
X27051000Y17399500D03*
X27051000Y19049500D03*
%TD*%
D35*
%TO.C,U8*%
X28459001Y24095499D03*
X29109002Y24095499D03*
X29759001Y24095499D03*
X30409002Y24095499D03*
X31059001Y24095499D03*
X31709002Y24095499D03*
X32359001Y24095499D03*
X33009002Y24095499D03*
X33009002Y18195498D03*
X32359001Y18195498D03*
X31709002Y18195498D03*
X31059001Y18195498D03*
X30409002Y18195498D03*
X29759001Y18195498D03*
X29109002Y18195498D03*
X28459001Y18195498D03*
%TD*%
D26*
%TO.C,R24*%
X19749000Y17081500D03*
X21399000Y17081500D03*
%TD*%
%TO.C,R35*%
X28385000Y15938500D03*
X30035000Y15938500D03*
%TD*%
D32*
%TO.C,R39*%
X36765998Y14033488D03*
X35115998Y14033488D03*
%TD*%
D25*
%TO.C,C24*%
X17793000Y21907500D03*
X16243000Y21907500D03*
%TD*%
D26*
%TO.C,R19*%
X19749000Y13779500D03*
X21399000Y13779500D03*
%TD*%
D25*
%TO.C,C20*%
X35700000Y6159500D03*
X34150000Y6159500D03*
%TD*%
D30*
%TO.C,C22*%
X18021000Y26606500D03*
X19571000Y26606500D03*
%TD*%
M02*
