%TF.GenerationSoftware,KiCad,Pcbnew,(6.0.11)*%
%TF.CreationDate,2024-01-26T14:49:33-06:00*%
%TF.ProjectId,voltage_sense,766f6c74-6167-4655-9f73-656e73652e6b,rev?*%
%TF.SameCoordinates,Original*%
%TF.FileFunction,Paste,Bot*%
%TF.FilePolarity,Positive*%
%FSLAX46Y46*%
G04 Gerber Fmt 4.6, Leading zero omitted, Abs format (unit mm)*
G04 Created by KiCad (PCBNEW (6.0.11)) date 2024-01-26 14:49:33*
%MOMM*%
%LPD*%
G01*
G04 APERTURE LIST*
G04 Aperture macros list*
%AMRoundRect*
0 Rectangle with rounded corners*
0 $1 Rounding radius*
0 $2 $3 $4 $5 $6 $7 $8 $9 X,Y pos of 4 corners*
0 Add a 4 corners polygon primitive as box body*
4,1,4,$2,$3,$4,$5,$6,$7,$8,$9,$2,$3,0*
0 Add four circle primitives for the rounded corners*
1,1,$1+$1,$2,$3*
1,1,$1+$1,$4,$5*
1,1,$1+$1,$6,$7*
1,1,$1+$1,$8,$9*
0 Add four rect primitives between the rounded corners*
20,1,$1+$1,$2,$3,$4,$5,0*
20,1,$1+$1,$4,$5,$6,$7,0*
20,1,$1+$1,$6,$7,$8,$9,0*
20,1,$1+$1,$8,$9,$2,$3,0*%
G04 Aperture macros list end*
%ADD10R,0.650001X1.200000*%
%ADD11RoundRect,0.225000X0.225000X0.250000X-0.225000X0.250000X-0.225000X-0.250000X0.225000X-0.250000X0*%
%ADD12RoundRect,0.200000X-0.200000X-0.275000X0.200000X-0.275000X0.200000X0.275000X-0.200000X0.275000X0*%
%ADD13RoundRect,0.225000X-0.250000X0.225000X-0.250000X-0.225000X0.250000X-0.225000X0.250000X0.225000X0*%
%ADD14RoundRect,0.150000X0.825000X0.150000X-0.825000X0.150000X-0.825000X-0.150000X0.825000X-0.150000X0*%
%ADD15R,1.750000X0.450000*%
%ADD16RoundRect,0.225000X-0.225000X-0.250000X0.225000X-0.250000X0.225000X0.250000X-0.225000X0.250000X0*%
%ADD17RoundRect,0.200000X-0.275000X0.200000X-0.275000X-0.200000X0.275000X-0.200000X0.275000X0.200000X0*%
%ADD18RoundRect,0.200000X0.200000X0.275000X-0.200000X0.275000X-0.200000X-0.275000X0.200000X-0.275000X0*%
%ADD19O,1.400000X0.449999*%
%ADD20RoundRect,0.200000X0.275000X-0.200000X0.275000X0.200000X-0.275000X0.200000X-0.275000X-0.200000X0*%
%ADD21O,0.449999X1.400000*%
G04 APERTURE END LIST*
D10*
%TO.C,U11*%
X14035999Y27192501D03*
X14986000Y27192501D03*
X15935998Y27192501D03*
X15935998Y24242502D03*
X14986000Y24242502D03*
X14035999Y24242502D03*
%TD*%
D11*
%TO.C,C16*%
X36335000Y19875500D03*
X34785000Y19875500D03*
%TD*%
D12*
%TO.C,R36*%
X31306000Y26098500D03*
X32956000Y26098500D03*
%TD*%
D13*
%TO.C,C31*%
X42926000Y28270500D03*
X42926000Y26720500D03*
%TD*%
D14*
%TO.C,U6*%
X6793000Y28257500D03*
X6793000Y26987500D03*
X6793000Y25717500D03*
X6793000Y24447500D03*
X1843000Y24447500D03*
X1843000Y25717500D03*
X1843000Y26987500D03*
X1843000Y28257500D03*
%TD*%
D13*
%TO.C,C32*%
X33401000Y31191500D03*
X33401000Y29641500D03*
%TD*%
%TO.C,C17*%
X34544000Y24079500D03*
X34544000Y22529500D03*
%TD*%
D12*
%TO.C,R22*%
X19749000Y18859500D03*
X21399000Y18859500D03*
%TD*%
D15*
%TO.C,U2*%
X17316000Y19894500D03*
X17316000Y19244500D03*
X17316000Y18594500D03*
X17316000Y17944500D03*
X17316000Y17294500D03*
X17316000Y16644500D03*
X17316000Y15994500D03*
X17316000Y15344500D03*
X17316000Y14694500D03*
X17316000Y14044500D03*
X17316000Y13394500D03*
X17316000Y12744500D03*
X10116000Y12744500D03*
X10116000Y13394500D03*
X10116000Y14044500D03*
X10116000Y14694500D03*
X10116000Y15344500D03*
X10116000Y15994500D03*
X10116000Y16644500D03*
X10116000Y17294500D03*
X10116000Y17944500D03*
X10116000Y18594500D03*
X10116000Y19244500D03*
X10116000Y19894500D03*
%TD*%
D12*
%TO.C,R8*%
X4001000Y17970500D03*
X5651000Y17970500D03*
%TD*%
D16*
%TO.C,C23*%
X10528000Y25590500D03*
X12078000Y25590500D03*
%TD*%
D17*
%TO.C,R41*%
X27177998Y12445488D03*
X27177998Y10795488D03*
%TD*%
D12*
%TO.C,R20*%
X19749000Y20637500D03*
X21399000Y20637500D03*
%TD*%
D13*
%TO.C,C18*%
X30734000Y6299500D03*
X30734000Y4749500D03*
%TD*%
D16*
%TO.C,C7*%
X7988000Y21653500D03*
X9538000Y21653500D03*
%TD*%
D12*
%TO.C,R40*%
X28893000Y14033500D03*
X30543000Y14033500D03*
%TD*%
%TO.C,R25*%
X19749000Y8445500D03*
X21399000Y8445500D03*
%TD*%
D18*
%TO.C,R5*%
X5651000Y20002500D03*
X4001000Y20002500D03*
%TD*%
D12*
%TO.C,R21*%
X19749000Y12001500D03*
X21399000Y12001500D03*
%TD*%
%TO.C,R23*%
X19749000Y10350500D03*
X21399000Y10350500D03*
%TD*%
D19*
%TO.C,U10*%
X35588997Y12498487D03*
X35588997Y11848486D03*
X35588997Y11198487D03*
X35588997Y10548486D03*
X35588997Y9898487D03*
X35588997Y9248486D03*
X35588997Y8598487D03*
X35588997Y7948486D03*
X29688996Y7948486D03*
X29688996Y8598487D03*
X29688996Y9248486D03*
X29688996Y9898487D03*
X29688996Y10548486D03*
X29688996Y11198487D03*
X29688996Y11848486D03*
X29688996Y12498487D03*
%TD*%
D18*
%TO.C,R33*%
X29527000Y26098500D03*
X27877000Y26098500D03*
%TD*%
D14*
%TO.C,U5*%
X40699000Y30519500D03*
X40699000Y29249500D03*
X40699000Y27979500D03*
X40699000Y26709500D03*
X35749000Y26709500D03*
X35749000Y27979500D03*
X35749000Y29249500D03*
X35749000Y30519500D03*
%TD*%
D12*
%TO.C,R17*%
X19749000Y22288500D03*
X21399000Y22288500D03*
%TD*%
D18*
%TO.C,R32*%
X33464000Y16065500D03*
X31814000Y16065500D03*
%TD*%
D12*
%TO.C,R38*%
X26225998Y9207488D03*
X27875998Y9207488D03*
%TD*%
D17*
%TO.C,R42*%
X38100000Y11302500D03*
X38100000Y9652500D03*
%TD*%
D20*
%TO.C,R34*%
X27051000Y17399500D03*
X27051000Y19049500D03*
%TD*%
D21*
%TO.C,U8*%
X28459001Y24095499D03*
X29109002Y24095499D03*
X29759001Y24095499D03*
X30409002Y24095499D03*
X31059001Y24095499D03*
X31709002Y24095499D03*
X32359001Y24095499D03*
X33009002Y24095499D03*
X33009002Y18195498D03*
X32359001Y18195498D03*
X31709002Y18195498D03*
X31059001Y18195498D03*
X30409002Y18195498D03*
X29759001Y18195498D03*
X29109002Y18195498D03*
X28459001Y18195498D03*
%TD*%
D12*
%TO.C,R24*%
X19749000Y17081500D03*
X21399000Y17081500D03*
%TD*%
%TO.C,R35*%
X28385000Y15938500D03*
X30035000Y15938500D03*
%TD*%
D18*
%TO.C,R39*%
X36765998Y14033488D03*
X35115998Y14033488D03*
%TD*%
D11*
%TO.C,C24*%
X17793000Y21907500D03*
X16243000Y21907500D03*
%TD*%
D12*
%TO.C,R19*%
X19749000Y13779500D03*
X21399000Y13779500D03*
%TD*%
D11*
%TO.C,C20*%
X35700000Y6159500D03*
X34150000Y6159500D03*
%TD*%
D16*
%TO.C,C22*%
X18021000Y26606500D03*
X19571000Y26606500D03*
%TD*%
M02*
