%TF.GenerationSoftware,KiCad,Pcbnew,(6.0.11)*%
%TF.CreationDate,2024-01-26T14:49:32-06:00*%
%TF.ProjectId,voltage_sense,766f6c74-6167-4655-9f73-656e73652e6b,rev?*%
%TF.SameCoordinates,Original*%
%TF.FileFunction,Legend,Top*%
%TF.FilePolarity,Positive*%
%FSLAX46Y46*%
G04 Gerber Fmt 4.6, Leading zero omitted, Abs format (unit mm)*
G04 Created by KiCad (PCBNEW (6.0.11)) date 2024-01-26 14:49:32*
%MOMM*%
%LPD*%
G01*
G04 APERTURE LIST*
G04 Aperture macros list*
%AMRoundRect*
0 Rectangle with rounded corners*
0 $1 Rounding radius*
0 $2 $3 $4 $5 $6 $7 $8 $9 X,Y pos of 4 corners*
0 Add a 4 corners polygon primitive as box body*
4,1,4,$2,$3,$4,$5,$6,$7,$8,$9,$2,$3,0*
0 Add four circle primitives for the rounded corners*
1,1,$1+$1,$2,$3*
1,1,$1+$1,$4,$5*
1,1,$1+$1,$6,$7*
1,1,$1+$1,$8,$9*
0 Add four rect primitives between the rounded corners*
20,1,$1+$1,$2,$3,$4,$5,0*
20,1,$1+$1,$4,$5,$6,$7,0*
20,1,$1+$1,$6,$7,$8,$9,0*
20,1,$1+$1,$8,$9,$2,$3,0*%
G04 Aperture macros list end*
%ADD10C,0.150000*%
%ADD11C,0.096520*%
%ADD12C,0.100000*%
%ADD13C,0.146710*%
%ADD14C,0.152400*%
%ADD15C,0.120000*%
%ADD16C,0.127000*%
%ADD17C,0.200000*%
%ADD18C,0.203200*%
%ADD19R,0.558800X1.981200*%
%ADD20RoundRect,0.150000X-0.512500X-0.150000X0.512500X-0.150000X0.512500X0.150000X-0.512500X0.150000X0*%
%ADD21RoundRect,0.200000X0.200000X0.275000X-0.200000X0.275000X-0.200000X-0.275000X0.200000X-0.275000X0*%
%ADD22R,1.700000X1.700000*%
%ADD23O,1.700000X1.700000*%
%ADD24RoundRect,0.200000X0.275000X-0.200000X0.275000X0.200000X-0.275000X0.200000X-0.275000X-0.200000X0*%
%ADD25RoundRect,0.225000X-0.225000X-0.250000X0.225000X-0.250000X0.225000X0.250000X-0.225000X0.250000X0*%
%ADD26RoundRect,0.150000X0.512500X0.150000X-0.512500X0.150000X-0.512500X-0.150000X0.512500X-0.150000X0*%
%ADD27RoundRect,0.225000X-0.250000X0.225000X-0.250000X-0.225000X0.250000X-0.225000X0.250000X0.225000X0*%
%ADD28C,2.020000*%
%ADD29RoundRect,0.200000X-0.200000X-0.275000X0.200000X-0.275000X0.200000X0.275000X-0.200000X0.275000X0*%
%ADD30R,0.420000X0.600000*%
%ADD31RoundRect,0.200000X-0.275000X0.200000X-0.275000X-0.200000X0.275000X-0.200000X0.275000X0.200000X0*%
%ADD32RoundRect,0.225000X0.225000X0.250000X-0.225000X0.250000X-0.225000X-0.250000X0.225000X-0.250000X0*%
%ADD33C,2.000000*%
%ADD34C,2.200000*%
%ADD35O,2.500000X1.600000*%
%ADD36O,7.000000X3.500000*%
%ADD37RoundRect,0.101600X-0.950000X0.150000X-0.950000X-0.150000X0.950000X-0.150000X0.950000X0.150000X0*%
%ADD38RoundRect,0.100000X-0.950000X0.150000X-0.950000X-0.150000X0.950000X-0.150000X0.950000X0.150000X0*%
%ADD39C,2.153200*%
%ADD40C,4.400000*%
%ADD41RoundRect,0.250000X-0.325000X-0.650000X0.325000X-0.650000X0.325000X0.650000X-0.325000X0.650000X0*%
%ADD42RoundRect,0.102000X-1.395000X-0.595000X1.395000X-0.595000X1.395000X0.595000X-1.395000X0.595000X0*%
%ADD43RoundRect,0.225000X0.250000X-0.225000X0.250000X0.225000X-0.250000X0.225000X-0.250000X-0.225000X0*%
%ADD44C,2.108200*%
%ADD45C,2.870200*%
G04 APERTURE END LIST*
D10*
%TO.C,U7*%
X32485080Y12776295D02*
X33294604Y12776295D01*
X33389842Y12823914D01*
X33437461Y12871533D01*
X33485080Y12966771D01*
X33485080Y13157247D01*
X33437461Y13252485D01*
X33389842Y13300104D01*
X33294604Y13347723D01*
X32485080Y13347723D01*
X32485080Y13728676D02*
X32485080Y14395342D01*
X33485080Y13966771D01*
%TO.C,U3*%
X23625795Y15532919D02*
X23625795Y14723395D01*
X23673414Y14628157D01*
X23721033Y14580538D01*
X23816271Y14532919D01*
X24006747Y14532919D01*
X24101985Y14580538D01*
X24149604Y14628157D01*
X24197223Y14723395D01*
X24197223Y15532919D01*
X24578176Y15532919D02*
X25197223Y15532919D01*
X24863890Y15151966D01*
X25006747Y15151966D01*
X25101985Y15104347D01*
X25149604Y15056728D01*
X25197223Y14961490D01*
X25197223Y14723395D01*
X25149604Y14628157D01*
X25101985Y14580538D01*
X25006747Y14532919D01*
X24721033Y14532919D01*
X24625795Y14580538D01*
X24578176Y14628157D01*
%TO.C,R10*%
X11628380Y9072642D02*
X11152190Y8739309D01*
X11628380Y8501214D02*
X10628380Y8501214D01*
X10628380Y8882166D01*
X10676000Y8977404D01*
X10723619Y9025023D01*
X10818857Y9072642D01*
X10961714Y9072642D01*
X11056952Y9025023D01*
X11104571Y8977404D01*
X11152190Y8882166D01*
X11152190Y8501214D01*
X11628380Y10025023D02*
X11628380Y9453595D01*
X11628380Y9739309D02*
X10628380Y9739309D01*
X10771238Y9644071D01*
X10866476Y9548833D01*
X10914095Y9453595D01*
X10628380Y10644071D02*
X10628380Y10739309D01*
X10676000Y10834547D01*
X10723619Y10882166D01*
X10818857Y10929785D01*
X11009333Y10977404D01*
X11247428Y10977404D01*
X11437904Y10929785D01*
X11533142Y10882166D01*
X11580761Y10834547D01*
X11628380Y10739309D01*
X11628380Y10644071D01*
X11580761Y10548833D01*
X11533142Y10501214D01*
X11437904Y10453595D01*
X11247428Y10405976D01*
X11009333Y10405976D01*
X10818857Y10453595D01*
X10723619Y10501214D01*
X10676000Y10548833D01*
X10628380Y10644071D01*
%TO.C,J2*%
X37272380Y-1549833D02*
X37986666Y-1549833D01*
X38129523Y-1597452D01*
X38224761Y-1692690D01*
X38272380Y-1835547D01*
X38272380Y-1930785D01*
X37367619Y-1121261D02*
X37320000Y-1073642D01*
X37272380Y-978404D01*
X37272380Y-740309D01*
X37320000Y-645071D01*
X37367619Y-597452D01*
X37462857Y-549833D01*
X37558095Y-549833D01*
X37700952Y-597452D01*
X38272380Y-1168880D01*
X38272380Y-549833D01*
%TO.C,R13*%
X32837380Y25455642D02*
X32361190Y25122309D01*
X32837380Y24884214D02*
X31837380Y24884214D01*
X31837380Y25265166D01*
X31885000Y25360404D01*
X31932619Y25408023D01*
X32027857Y25455642D01*
X32170714Y25455642D01*
X32265952Y25408023D01*
X32313571Y25360404D01*
X32361190Y25265166D01*
X32361190Y24884214D01*
X32837380Y26408023D02*
X32837380Y25836595D01*
X32837380Y26122309D02*
X31837380Y26122309D01*
X31980238Y26027071D01*
X32075476Y25931833D01*
X32123095Y25836595D01*
X31837380Y26741357D02*
X31837380Y27360404D01*
X32218333Y27027071D01*
X32218333Y27169928D01*
X32265952Y27265166D01*
X32313571Y27312785D01*
X32408809Y27360404D01*
X32646904Y27360404D01*
X32742142Y27312785D01*
X32789761Y27265166D01*
X32837380Y27169928D01*
X32837380Y26884214D01*
X32789761Y26788976D01*
X32742142Y26741357D01*
%TO.C,C6*%
X38330142Y8151833D02*
X38377761Y8104214D01*
X38425380Y7961357D01*
X38425380Y7866119D01*
X38377761Y7723261D01*
X38282523Y7628023D01*
X38187285Y7580404D01*
X37996809Y7532785D01*
X37853952Y7532785D01*
X37663476Y7580404D01*
X37568238Y7628023D01*
X37473000Y7723261D01*
X37425380Y7866119D01*
X37425380Y7961357D01*
X37473000Y8104214D01*
X37520619Y8151833D01*
X37425380Y9008976D02*
X37425380Y8818500D01*
X37473000Y8723261D01*
X37520619Y8675642D01*
X37663476Y8580404D01*
X37853952Y8532785D01*
X38234904Y8532785D01*
X38330142Y8580404D01*
X38377761Y8628023D01*
X38425380Y8723261D01*
X38425380Y8913738D01*
X38377761Y9008976D01*
X38330142Y9056595D01*
X38234904Y9104214D01*
X37996809Y9104214D01*
X37901571Y9056595D01*
X37853952Y9008976D01*
X37806333Y8913738D01*
X37806333Y8723261D01*
X37853952Y8628023D01*
X37901571Y8580404D01*
X37996809Y8532785D01*
%TO.C,U9*%
X28281380Y7429595D02*
X29090904Y7429595D01*
X29186142Y7477214D01*
X29233761Y7524833D01*
X29281380Y7620071D01*
X29281380Y7810547D01*
X29233761Y7905785D01*
X29186142Y7953404D01*
X29090904Y8001023D01*
X28281380Y8001023D01*
X29281380Y8524833D02*
X29281380Y8715309D01*
X29233761Y8810547D01*
X29186142Y8858166D01*
X29043285Y8953404D01*
X28852809Y9001023D01*
X28471857Y9001023D01*
X28376619Y8953404D01*
X28329000Y8905785D01*
X28281380Y8810547D01*
X28281380Y8620071D01*
X28329000Y8524833D01*
X28376619Y8477214D01*
X28471857Y8429595D01*
X28709952Y8429595D01*
X28805190Y8477214D01*
X28852809Y8524833D01*
X28900428Y8620071D01*
X28900428Y8810547D01*
X28852809Y8905785D01*
X28805190Y8953404D01*
X28709952Y9001023D01*
%TO.C,C2*%
X28932142Y18819833D02*
X28979761Y18772214D01*
X29027380Y18629357D01*
X29027380Y18534119D01*
X28979761Y18391261D01*
X28884523Y18296023D01*
X28789285Y18248404D01*
X28598809Y18200785D01*
X28455952Y18200785D01*
X28265476Y18248404D01*
X28170238Y18296023D01*
X28075000Y18391261D01*
X28027380Y18534119D01*
X28027380Y18629357D01*
X28075000Y18772214D01*
X28122619Y18819833D01*
X28122619Y19200785D02*
X28075000Y19248404D01*
X28027380Y19343642D01*
X28027380Y19581738D01*
X28075000Y19676976D01*
X28122619Y19724595D01*
X28217857Y19772214D01*
X28313095Y19772214D01*
X28455952Y19724595D01*
X29027380Y19153166D01*
X29027380Y19772214D01*
%TO.C,TP1*%
X19947095Y2770119D02*
X20518523Y2770119D01*
X20232809Y1770119D02*
X20232809Y2770119D01*
X20851857Y1770119D02*
X20851857Y2770119D01*
X21232809Y2770119D01*
X21328047Y2722500D01*
X21375666Y2674880D01*
X21423285Y2579642D01*
X21423285Y2436785D01*
X21375666Y2341547D01*
X21328047Y2293928D01*
X21232809Y2246309D01*
X20851857Y2246309D01*
X22375666Y1770119D02*
X21804238Y1770119D01*
X22089952Y1770119D02*
X22089952Y2770119D01*
X21994714Y2627261D01*
X21899476Y2532023D01*
X21804238Y2484404D01*
%TO.C,R4*%
X11009333Y21201119D02*
X10676000Y21677309D01*
X10437904Y21201119D02*
X10437904Y22201119D01*
X10818857Y22201119D01*
X10914095Y22153500D01*
X10961714Y22105880D01*
X11009333Y22010642D01*
X11009333Y21867785D01*
X10961714Y21772547D01*
X10914095Y21724928D01*
X10818857Y21677309D01*
X10437904Y21677309D01*
X11866476Y21867785D02*
X11866476Y21201119D01*
X11628380Y22248738D02*
X11390285Y21534452D01*
X12009333Y21534452D01*
%TO.C,R6*%
X16216333Y21709119D02*
X15883000Y22185309D01*
X15644904Y21709119D02*
X15644904Y22709119D01*
X16025857Y22709119D01*
X16121095Y22661500D01*
X16168714Y22613880D01*
X16216333Y22518642D01*
X16216333Y22375785D01*
X16168714Y22280547D01*
X16121095Y22232928D01*
X16025857Y22185309D01*
X15644904Y22185309D01*
X17073476Y22709119D02*
X16883000Y22709119D01*
X16787761Y22661500D01*
X16740142Y22613880D01*
X16644904Y22471023D01*
X16597285Y22280547D01*
X16597285Y21899595D01*
X16644904Y21804357D01*
X16692523Y21756738D01*
X16787761Y21709119D01*
X16978238Y21709119D01*
X17073476Y21756738D01*
X17121095Y21804357D01*
X17168714Y21899595D01*
X17168714Y22137690D01*
X17121095Y22232928D01*
X17073476Y22280547D01*
X16978238Y22328166D01*
X16787761Y22328166D01*
X16692523Y22280547D01*
X16644904Y22232928D01*
X16597285Y22137690D01*
%TO.C,C39*%
X12549142Y30916642D02*
X12596761Y30869023D01*
X12644380Y30726166D01*
X12644380Y30630928D01*
X12596761Y30488071D01*
X12501523Y30392833D01*
X12406285Y30345214D01*
X12215809Y30297595D01*
X12072952Y30297595D01*
X11882476Y30345214D01*
X11787238Y30392833D01*
X11692000Y30488071D01*
X11644380Y30630928D01*
X11644380Y30726166D01*
X11692000Y30869023D01*
X11739619Y30916642D01*
X11644380Y31249976D02*
X11644380Y31869023D01*
X12025333Y31535690D01*
X12025333Y31678547D01*
X12072952Y31773785D01*
X12120571Y31821404D01*
X12215809Y31869023D01*
X12453904Y31869023D01*
X12549142Y31821404D01*
X12596761Y31773785D01*
X12644380Y31678547D01*
X12644380Y31392833D01*
X12596761Y31297595D01*
X12549142Y31249976D01*
X12644380Y32345214D02*
X12644380Y32535690D01*
X12596761Y32630928D01*
X12549142Y32678547D01*
X12406285Y32773785D01*
X12215809Y32821404D01*
X11834857Y32821404D01*
X11739619Y32773785D01*
X11692000Y32726166D01*
X11644380Y32630928D01*
X11644380Y32440452D01*
X11692000Y32345214D01*
X11739619Y32297595D01*
X11834857Y32249976D01*
X12072952Y32249976D01*
X12168190Y32297595D01*
X12215809Y32345214D01*
X12263428Y32440452D01*
X12263428Y32630928D01*
X12215809Y32726166D01*
X12168190Y32773785D01*
X12072952Y32821404D01*
%TO.C,C8*%
X26757333Y21931357D02*
X26709714Y21883738D01*
X26566857Y21836119D01*
X26471619Y21836119D01*
X26328761Y21883738D01*
X26233523Y21978976D01*
X26185904Y22074214D01*
X26138285Y22264690D01*
X26138285Y22407547D01*
X26185904Y22598023D01*
X26233523Y22693261D01*
X26328761Y22788500D01*
X26471619Y22836119D01*
X26566857Y22836119D01*
X26709714Y22788500D01*
X26757333Y22740880D01*
X27328761Y22407547D02*
X27233523Y22455166D01*
X27185904Y22502785D01*
X27138285Y22598023D01*
X27138285Y22645642D01*
X27185904Y22740880D01*
X27233523Y22788500D01*
X27328761Y22836119D01*
X27519238Y22836119D01*
X27614476Y22788500D01*
X27662095Y22740880D01*
X27709714Y22645642D01*
X27709714Y22598023D01*
X27662095Y22502785D01*
X27614476Y22455166D01*
X27519238Y22407547D01*
X27328761Y22407547D01*
X27233523Y22359928D01*
X27185904Y22312309D01*
X27138285Y22217071D01*
X27138285Y22026595D01*
X27185904Y21931357D01*
X27233523Y21883738D01*
X27328761Y21836119D01*
X27519238Y21836119D01*
X27614476Y21883738D01*
X27662095Y21931357D01*
X27709714Y22026595D01*
X27709714Y22217071D01*
X27662095Y22312309D01*
X27614476Y22359928D01*
X27519238Y22407547D01*
%TO.C,R66*%
X25138142Y9517119D02*
X24804809Y9993309D01*
X24566714Y9517119D02*
X24566714Y10517119D01*
X24947666Y10517119D01*
X25042904Y10469500D01*
X25090523Y10421880D01*
X25138142Y10326642D01*
X25138142Y10183785D01*
X25090523Y10088547D01*
X25042904Y10040928D01*
X24947666Y9993309D01*
X24566714Y9993309D01*
X25995285Y10517119D02*
X25804809Y10517119D01*
X25709571Y10469500D01*
X25661952Y10421880D01*
X25566714Y10279023D01*
X25519095Y10088547D01*
X25519095Y9707595D01*
X25566714Y9612357D01*
X25614333Y9564738D01*
X25709571Y9517119D01*
X25900047Y9517119D01*
X25995285Y9564738D01*
X26042904Y9612357D01*
X26090523Y9707595D01*
X26090523Y9945690D01*
X26042904Y10040928D01*
X25995285Y10088547D01*
X25900047Y10136166D01*
X25709571Y10136166D01*
X25614333Y10088547D01*
X25566714Y10040928D01*
X25519095Y9945690D01*
X26947666Y10517119D02*
X26757190Y10517119D01*
X26661952Y10469500D01*
X26614333Y10421880D01*
X26519095Y10279023D01*
X26471476Y10088547D01*
X26471476Y9707595D01*
X26519095Y9612357D01*
X26566714Y9564738D01*
X26661952Y9517119D01*
X26852428Y9517119D01*
X26947666Y9564738D01*
X26995285Y9612357D01*
X27042904Y9707595D01*
X27042904Y9945690D01*
X26995285Y10040928D01*
X26947666Y10088547D01*
X26852428Y10136166D01*
X26661952Y10136166D01*
X26566714Y10088547D01*
X26519095Y10040928D01*
X26471476Y9945690D01*
%TO.C,R71*%
X40124142Y3388119D02*
X39790809Y3864309D01*
X39552714Y3388119D02*
X39552714Y4388119D01*
X39933666Y4388119D01*
X40028904Y4340500D01*
X40076523Y4292880D01*
X40124142Y4197642D01*
X40124142Y4054785D01*
X40076523Y3959547D01*
X40028904Y3911928D01*
X39933666Y3864309D01*
X39552714Y3864309D01*
X40457476Y4388119D02*
X41124142Y4388119D01*
X40695571Y3388119D01*
X42028904Y3388119D02*
X41457476Y3388119D01*
X41743190Y3388119D02*
X41743190Y4388119D01*
X41647952Y4245261D01*
X41552714Y4150023D01*
X41457476Y4102404D01*
%TO.C,R28*%
X17597380Y24312642D02*
X17121190Y23979309D01*
X17597380Y23741214D02*
X16597380Y23741214D01*
X16597380Y24122166D01*
X16645000Y24217404D01*
X16692619Y24265023D01*
X16787857Y24312642D01*
X16930714Y24312642D01*
X17025952Y24265023D01*
X17073571Y24217404D01*
X17121190Y24122166D01*
X17121190Y23741214D01*
X16692619Y24693595D02*
X16645000Y24741214D01*
X16597380Y24836452D01*
X16597380Y25074547D01*
X16645000Y25169785D01*
X16692619Y25217404D01*
X16787857Y25265023D01*
X16883095Y25265023D01*
X17025952Y25217404D01*
X17597380Y24645976D01*
X17597380Y25265023D01*
X17025952Y25836452D02*
X16978333Y25741214D01*
X16930714Y25693595D01*
X16835476Y25645976D01*
X16787857Y25645976D01*
X16692619Y25693595D01*
X16645000Y25741214D01*
X16597380Y25836452D01*
X16597380Y26026928D01*
X16645000Y26122166D01*
X16692619Y26169785D01*
X16787857Y26217404D01*
X16835476Y26217404D01*
X16930714Y26169785D01*
X16978333Y26122166D01*
X17025952Y26026928D01*
X17025952Y25836452D01*
X17073571Y25741214D01*
X17121190Y25693595D01*
X17216428Y25645976D01*
X17406904Y25645976D01*
X17502142Y25693595D01*
X17549761Y25741214D01*
X17597380Y25836452D01*
X17597380Y26026928D01*
X17549761Y26122166D01*
X17502142Y26169785D01*
X17406904Y26217404D01*
X17216428Y26217404D01*
X17121190Y26169785D01*
X17073571Y26122166D01*
X17025952Y26026928D01*
%TO.C,R16*%
X20693142Y4310119D02*
X20359809Y4786309D01*
X20121714Y4310119D02*
X20121714Y5310119D01*
X20502666Y5310119D01*
X20597904Y5262500D01*
X20645523Y5214880D01*
X20693142Y5119642D01*
X20693142Y4976785D01*
X20645523Y4881547D01*
X20597904Y4833928D01*
X20502666Y4786309D01*
X20121714Y4786309D01*
X21645523Y4310119D02*
X21074095Y4310119D01*
X21359809Y4310119D02*
X21359809Y5310119D01*
X21264571Y5167261D01*
X21169333Y5072023D01*
X21074095Y5024404D01*
X22502666Y5310119D02*
X22312190Y5310119D01*
X22216952Y5262500D01*
X22169333Y5214880D01*
X22074095Y5072023D01*
X22026476Y4881547D01*
X22026476Y4500595D01*
X22074095Y4405357D01*
X22121714Y4357738D01*
X22216952Y4310119D01*
X22407428Y4310119D01*
X22502666Y4357738D01*
X22550285Y4405357D01*
X22597904Y4500595D01*
X22597904Y4738690D01*
X22550285Y4833928D01*
X22502666Y4881547D01*
X22407428Y4929166D01*
X22216952Y4929166D01*
X22121714Y4881547D01*
X22074095Y4833928D01*
X22026476Y4738690D01*
%TO.C,R15*%
X14978142Y5928119D02*
X14644809Y6404309D01*
X14406714Y5928119D02*
X14406714Y6928119D01*
X14787666Y6928119D01*
X14882904Y6880500D01*
X14930523Y6832880D01*
X14978142Y6737642D01*
X14978142Y6594785D01*
X14930523Y6499547D01*
X14882904Y6451928D01*
X14787666Y6404309D01*
X14406714Y6404309D01*
X15930523Y5928119D02*
X15359095Y5928119D01*
X15644809Y5928119D02*
X15644809Y6928119D01*
X15549571Y6785261D01*
X15454333Y6690023D01*
X15359095Y6642404D01*
X16835285Y6928119D02*
X16359095Y6928119D01*
X16311476Y6451928D01*
X16359095Y6499547D01*
X16454333Y6547166D01*
X16692428Y6547166D01*
X16787666Y6499547D01*
X16835285Y6451928D01*
X16882904Y6356690D01*
X16882904Y6118595D01*
X16835285Y6023357D01*
X16787666Y5975738D01*
X16692428Y5928119D01*
X16454333Y5928119D01*
X16359095Y5975738D01*
X16311476Y6023357D01*
%TO.C,U4*%
X41275095Y28678119D02*
X41275095Y27868595D01*
X41322714Y27773357D01*
X41370333Y27725738D01*
X41465571Y27678119D01*
X41656047Y27678119D01*
X41751285Y27725738D01*
X41798904Y27773357D01*
X41846523Y27868595D01*
X41846523Y28678119D01*
X42751285Y28344785D02*
X42751285Y27678119D01*
X42513190Y28725738D02*
X42275095Y28011452D01*
X42894142Y28011452D01*
%TO.C,IC1*%
X13882809Y13835119D02*
X13882809Y14835119D01*
X14930428Y13930357D02*
X14882809Y13882738D01*
X14739952Y13835119D01*
X14644714Y13835119D01*
X14501857Y13882738D01*
X14406619Y13977976D01*
X14359000Y14073214D01*
X14311380Y14263690D01*
X14311380Y14406547D01*
X14359000Y14597023D01*
X14406619Y14692261D01*
X14501857Y14787500D01*
X14644714Y14835119D01*
X14739952Y14835119D01*
X14882809Y14787500D01*
X14930428Y14739880D01*
X15882809Y13835119D02*
X15311380Y13835119D01*
X15597095Y13835119D02*
X15597095Y14835119D01*
X15501857Y14692261D01*
X15406619Y14597023D01*
X15311380Y14549404D01*
%TO.C,R27*%
X13327142Y21709119D02*
X12993809Y22185309D01*
X12755714Y21709119D02*
X12755714Y22709119D01*
X13136666Y22709119D01*
X13231904Y22661500D01*
X13279523Y22613880D01*
X13327142Y22518642D01*
X13327142Y22375785D01*
X13279523Y22280547D01*
X13231904Y22232928D01*
X13136666Y22185309D01*
X12755714Y22185309D01*
X13708095Y22613880D02*
X13755714Y22661500D01*
X13850952Y22709119D01*
X14089047Y22709119D01*
X14184285Y22661500D01*
X14231904Y22613880D01*
X14279523Y22518642D01*
X14279523Y22423404D01*
X14231904Y22280547D01*
X13660476Y21709119D01*
X14279523Y21709119D01*
X14612857Y22709119D02*
X15279523Y22709119D01*
X14850952Y21709119D01*
%TO.C,C11*%
X20439142Y11136357D02*
X20391523Y11088738D01*
X20248666Y11041119D01*
X20153428Y11041119D01*
X20010571Y11088738D01*
X19915333Y11183976D01*
X19867714Y11279214D01*
X19820095Y11469690D01*
X19820095Y11612547D01*
X19867714Y11803023D01*
X19915333Y11898261D01*
X20010571Y11993500D01*
X20153428Y12041119D01*
X20248666Y12041119D01*
X20391523Y11993500D01*
X20439142Y11945880D01*
X21391523Y11041119D02*
X20820095Y11041119D01*
X21105809Y11041119D02*
X21105809Y12041119D01*
X21010571Y11898261D01*
X20915333Y11803023D01*
X20820095Y11755404D01*
X22343904Y11041119D02*
X21772476Y11041119D01*
X22058190Y11041119D02*
X22058190Y12041119D01*
X21962952Y11898261D01*
X21867714Y11803023D01*
X21772476Y11755404D01*
%TO.C,R31*%
X21709142Y21074119D02*
X21375809Y21550309D01*
X21137714Y21074119D02*
X21137714Y22074119D01*
X21518666Y22074119D01*
X21613904Y22026500D01*
X21661523Y21978880D01*
X21709142Y21883642D01*
X21709142Y21740785D01*
X21661523Y21645547D01*
X21613904Y21597928D01*
X21518666Y21550309D01*
X21137714Y21550309D01*
X22042476Y22074119D02*
X22661523Y22074119D01*
X22328190Y21693166D01*
X22471047Y21693166D01*
X22566285Y21645547D01*
X22613904Y21597928D01*
X22661523Y21502690D01*
X22661523Y21264595D01*
X22613904Y21169357D01*
X22566285Y21121738D01*
X22471047Y21074119D01*
X22185333Y21074119D01*
X22090095Y21121738D01*
X22042476Y21169357D01*
X23613904Y21074119D02*
X23042476Y21074119D01*
X23328190Y21074119D02*
X23328190Y22074119D01*
X23232952Y21931261D01*
X23137714Y21836023D01*
X23042476Y21788404D01*
%TO.C,R3*%
X17613333Y11041119D02*
X17280000Y11517309D01*
X17041904Y11041119D02*
X17041904Y12041119D01*
X17422857Y12041119D01*
X17518095Y11993500D01*
X17565714Y11945880D01*
X17613333Y11850642D01*
X17613333Y11707785D01*
X17565714Y11612547D01*
X17518095Y11564928D01*
X17422857Y11517309D01*
X17041904Y11517309D01*
X17946666Y12041119D02*
X18565714Y12041119D01*
X18232380Y11660166D01*
X18375238Y11660166D01*
X18470476Y11612547D01*
X18518095Y11564928D01*
X18565714Y11469690D01*
X18565714Y11231595D01*
X18518095Y11136357D01*
X18470476Y11088738D01*
X18375238Y11041119D01*
X18089523Y11041119D01*
X17994285Y11088738D01*
X17946666Y11136357D01*
%TO.C,TP9*%
X21852095Y28805119D02*
X22423523Y28805119D01*
X22137809Y27805119D02*
X22137809Y28805119D01*
X22756857Y27805119D02*
X22756857Y28805119D01*
X23137809Y28805119D01*
X23233047Y28757500D01*
X23280666Y28709880D01*
X23328285Y28614642D01*
X23328285Y28471785D01*
X23280666Y28376547D01*
X23233047Y28328928D01*
X23137809Y28281309D01*
X22756857Y28281309D01*
X23804476Y27805119D02*
X23994952Y27805119D01*
X24090190Y27852738D01*
X24137809Y27900357D01*
X24233047Y28043214D01*
X24280666Y28233690D01*
X24280666Y28614642D01*
X24233047Y28709880D01*
X24185428Y28757500D01*
X24090190Y28805119D01*
X23899714Y28805119D01*
X23804476Y28757500D01*
X23756857Y28709880D01*
X23709238Y28614642D01*
X23709238Y28376547D01*
X23756857Y28281309D01*
X23804476Y28233690D01*
X23899714Y28186071D01*
X24090190Y28186071D01*
X24185428Y28233690D01*
X24233047Y28281309D01*
X24280666Y28376547D01*
%TO.C,H7*%
X41783095Y30853119D02*
X41783095Y31853119D01*
X41783095Y31376928D02*
X42354523Y31376928D01*
X42354523Y30853119D02*
X42354523Y31853119D01*
X42735476Y31853119D02*
X43402142Y31853119D01*
X42973571Y30853119D01*
%TO.C,R14*%
X9898142Y4945119D02*
X9564809Y5421309D01*
X9326714Y4945119D02*
X9326714Y5945119D01*
X9707666Y5945119D01*
X9802904Y5897500D01*
X9850523Y5849880D01*
X9898142Y5754642D01*
X9898142Y5611785D01*
X9850523Y5516547D01*
X9802904Y5468928D01*
X9707666Y5421309D01*
X9326714Y5421309D01*
X10850523Y4945119D02*
X10279095Y4945119D01*
X10564809Y4945119D02*
X10564809Y5945119D01*
X10469571Y5802261D01*
X10374333Y5707023D01*
X10279095Y5659404D01*
X11707666Y5611785D02*
X11707666Y4945119D01*
X11469571Y5992738D02*
X11231476Y5278452D01*
X11850523Y5278452D01*
%TO.C,R11*%
X46045380Y26344642D02*
X45569190Y26011309D01*
X46045380Y25773214D02*
X45045380Y25773214D01*
X45045380Y26154166D01*
X45093000Y26249404D01*
X45140619Y26297023D01*
X45235857Y26344642D01*
X45378714Y26344642D01*
X45473952Y26297023D01*
X45521571Y26249404D01*
X45569190Y26154166D01*
X45569190Y25773214D01*
X46045380Y27297023D02*
X46045380Y26725595D01*
X46045380Y27011309D02*
X45045380Y27011309D01*
X45188238Y26916071D01*
X45283476Y26820833D01*
X45331095Y26725595D01*
X46045380Y28249404D02*
X46045380Y27677976D01*
X46045380Y27963690D02*
X45045380Y27963690D01*
X45188238Y27868452D01*
X45283476Y27773214D01*
X45331095Y27677976D01*
%TO.C,R26*%
X27170142Y13835119D02*
X26836809Y14311309D01*
X26598714Y13835119D02*
X26598714Y14835119D01*
X26979666Y14835119D01*
X27074904Y14787500D01*
X27122523Y14739880D01*
X27170142Y14644642D01*
X27170142Y14501785D01*
X27122523Y14406547D01*
X27074904Y14358928D01*
X26979666Y14311309D01*
X26598714Y14311309D01*
X27551095Y14739880D02*
X27598714Y14787500D01*
X27693952Y14835119D01*
X27932047Y14835119D01*
X28027285Y14787500D01*
X28074904Y14739880D01*
X28122523Y14644642D01*
X28122523Y14549404D01*
X28074904Y14406547D01*
X27503476Y13835119D01*
X28122523Y13835119D01*
X28979666Y14835119D02*
X28789190Y14835119D01*
X28693952Y14787500D01*
X28646333Y14739880D01*
X28551095Y14597023D01*
X28503476Y14406547D01*
X28503476Y14025595D01*
X28551095Y13930357D01*
X28598714Y13882738D01*
X28693952Y13835119D01*
X28884428Y13835119D01*
X28979666Y13882738D01*
X29027285Y13930357D01*
X29074904Y14025595D01*
X29074904Y14263690D01*
X29027285Y14358928D01*
X28979666Y14406547D01*
X28884428Y14454166D01*
X28693952Y14454166D01*
X28598714Y14406547D01*
X28551095Y14358928D01*
X28503476Y14263690D01*
%TO.C,J5*%
X36242666Y26519119D02*
X36242666Y25804833D01*
X36195047Y25661976D01*
X36099809Y25566738D01*
X35956952Y25519119D01*
X35861714Y25519119D01*
X37195047Y26519119D02*
X36718857Y26519119D01*
X36671238Y26042928D01*
X36718857Y26090547D01*
X36814095Y26138166D01*
X37052190Y26138166D01*
X37147428Y26090547D01*
X37195047Y26042928D01*
X37242666Y25947690D01*
X37242666Y25709595D01*
X37195047Y25614357D01*
X37147428Y25566738D01*
X37052190Y25519119D01*
X36814095Y25519119D01*
X36718857Y25566738D01*
X36671238Y25614357D01*
D11*
%TO.C,J4*%
X1577297Y22933333D02*
X2439083Y22933333D01*
X2611440Y22875880D01*
X2726345Y22760976D01*
X2783797Y22588619D01*
X2783797Y22473714D01*
X1979464Y24024928D02*
X2783797Y24024928D01*
X1519845Y23737666D02*
X2381630Y23450404D01*
X2381630Y24197285D01*
D12*
X60857Y20325976D02*
X98952Y20440261D01*
X137047Y20478357D01*
X213238Y20516452D01*
X327523Y20516452D01*
X403714Y20478357D01*
X441809Y20440261D01*
X479904Y20364071D01*
X479904Y20059309D01*
X-320095Y20059309D01*
X-320095Y20325976D01*
X-282000Y20402166D01*
X-243904Y20440261D01*
X-167714Y20478357D01*
X-91523Y20478357D01*
X-15333Y20440261D01*
X22761Y20402166D01*
X60857Y20325976D01*
X60857Y20059309D01*
X479904Y20973595D02*
X441809Y20897404D01*
X403714Y20859309D01*
X327523Y20821214D01*
X98952Y20821214D01*
X22761Y20859309D01*
X-15333Y20897404D01*
X-53428Y20973595D01*
X-53428Y21087880D01*
X-15333Y21164071D01*
X22761Y21202166D01*
X98952Y21240261D01*
X327523Y21240261D01*
X403714Y21202166D01*
X441809Y21164071D01*
X479904Y21087880D01*
X479904Y20973595D01*
X479904Y21925976D02*
X60857Y21925976D01*
X-15333Y21887880D01*
X-53428Y21811690D01*
X-53428Y21659309D01*
X-15333Y21583119D01*
X441809Y21925976D02*
X479904Y21849785D01*
X479904Y21659309D01*
X441809Y21583119D01*
X365619Y21545023D01*
X289428Y21545023D01*
X213238Y21583119D01*
X175142Y21659309D01*
X175142Y21849785D01*
X137047Y21925976D01*
X479904Y22306928D02*
X-53428Y22306928D01*
X98952Y22306928D02*
X22761Y22345023D01*
X-15333Y22383119D01*
X-53428Y22459309D01*
X-53428Y22535500D01*
X479904Y23145023D02*
X-320095Y23145023D01*
X441809Y23145023D02*
X479904Y23068833D01*
X479904Y22916452D01*
X441809Y22840261D01*
X403714Y22802166D01*
X327523Y22764071D01*
X98952Y22764071D01*
X22761Y22802166D01*
X-15333Y22840261D01*
X-53428Y22916452D01*
X-53428Y23068833D01*
X-15333Y23145023D01*
X60857Y24135500D02*
X60857Y24402166D01*
X479904Y24516452D02*
X479904Y24135500D01*
X-320095Y24135500D01*
X-320095Y24516452D01*
X479904Y25202166D02*
X-320095Y25202166D01*
X441809Y25202166D02*
X479904Y25125976D01*
X479904Y24973595D01*
X441809Y24897404D01*
X403714Y24859309D01*
X327523Y24821214D01*
X98952Y24821214D01*
X22761Y24859309D01*
X-15333Y24897404D01*
X-53428Y24973595D01*
X-53428Y25125976D01*
X-15333Y25202166D01*
X-53428Y25925976D02*
X594190Y25925976D01*
X670380Y25887880D01*
X708476Y25849785D01*
X746571Y25773595D01*
X746571Y25659309D01*
X708476Y25583119D01*
X441809Y25925976D02*
X479904Y25849785D01*
X479904Y25697404D01*
X441809Y25621214D01*
X403714Y25583119D01*
X327523Y25545023D01*
X98952Y25545023D01*
X22761Y25583119D01*
X-15333Y25621214D01*
X-53428Y25697404D01*
X-53428Y25849785D01*
X-15333Y25925976D01*
X441809Y26611690D02*
X479904Y26535500D01*
X479904Y26383119D01*
X441809Y26306928D01*
X365619Y26268833D01*
X60857Y26268833D01*
X-15333Y26306928D01*
X-53428Y26383119D01*
X-53428Y26535500D01*
X-15333Y26611690D01*
X60857Y26649785D01*
X137047Y26649785D01*
X213238Y26268833D01*
D10*
%TO.C,R9*%
X18121333Y20820119D02*
X17788000Y21296309D01*
X17549904Y20820119D02*
X17549904Y21820119D01*
X17930857Y21820119D01*
X18026095Y21772500D01*
X18073714Y21724880D01*
X18121333Y21629642D01*
X18121333Y21486785D01*
X18073714Y21391547D01*
X18026095Y21343928D01*
X17930857Y21296309D01*
X17549904Y21296309D01*
X18597523Y20820119D02*
X18788000Y20820119D01*
X18883238Y20867738D01*
X18930857Y20915357D01*
X19026095Y21058214D01*
X19073714Y21248690D01*
X19073714Y21629642D01*
X19026095Y21724880D01*
X18978476Y21772500D01*
X18883238Y21820119D01*
X18692761Y21820119D01*
X18597523Y21772500D01*
X18549904Y21724880D01*
X18502285Y21629642D01*
X18502285Y21391547D01*
X18549904Y21296309D01*
X18597523Y21248690D01*
X18692761Y21201071D01*
X18883238Y21201071D01*
X18978476Y21248690D01*
X19026095Y21296309D01*
X19073714Y21391547D01*
%TO.C,C9*%
X27027142Y16533833D02*
X27074761Y16486214D01*
X27122380Y16343357D01*
X27122380Y16248119D01*
X27074761Y16105261D01*
X26979523Y16010023D01*
X26884285Y15962404D01*
X26693809Y15914785D01*
X26550952Y15914785D01*
X26360476Y15962404D01*
X26265238Y16010023D01*
X26170000Y16105261D01*
X26122380Y16248119D01*
X26122380Y16343357D01*
X26170000Y16486214D01*
X26217619Y16533833D01*
X27122380Y17010023D02*
X27122380Y17200500D01*
X27074761Y17295738D01*
X27027142Y17343357D01*
X26884285Y17438595D01*
X26693809Y17486214D01*
X26312857Y17486214D01*
X26217619Y17438595D01*
X26170000Y17390976D01*
X26122380Y17295738D01*
X26122380Y17105261D01*
X26170000Y17010023D01*
X26217619Y16962404D01*
X26312857Y16914785D01*
X26550952Y16914785D01*
X26646190Y16962404D01*
X26693809Y17010023D01*
X26741428Y17105261D01*
X26741428Y17295738D01*
X26693809Y17390976D01*
X26646190Y17438595D01*
X26550952Y17486214D01*
%TO.C,C14*%
X26281142Y23709357D02*
X26233523Y23661738D01*
X26090666Y23614119D01*
X25995428Y23614119D01*
X25852571Y23661738D01*
X25757333Y23756976D01*
X25709714Y23852214D01*
X25662095Y24042690D01*
X25662095Y24185547D01*
X25709714Y24376023D01*
X25757333Y24471261D01*
X25852571Y24566500D01*
X25995428Y24614119D01*
X26090666Y24614119D01*
X26233523Y24566500D01*
X26281142Y24518880D01*
X27233523Y23614119D02*
X26662095Y23614119D01*
X26947809Y23614119D02*
X26947809Y24614119D01*
X26852571Y24471261D01*
X26757333Y24376023D01*
X26662095Y24328404D01*
X28090666Y24280785D02*
X28090666Y23614119D01*
X27852571Y24661738D02*
X27614476Y23947452D01*
X28233523Y23947452D01*
%TO.C,C15*%
X16629142Y28154357D02*
X16581523Y28106738D01*
X16438666Y28059119D01*
X16343428Y28059119D01*
X16200571Y28106738D01*
X16105333Y28201976D01*
X16057714Y28297214D01*
X16010095Y28487690D01*
X16010095Y28630547D01*
X16057714Y28821023D01*
X16105333Y28916261D01*
X16200571Y29011500D01*
X16343428Y29059119D01*
X16438666Y29059119D01*
X16581523Y29011500D01*
X16629142Y28963880D01*
X17581523Y28059119D02*
X17010095Y28059119D01*
X17295809Y28059119D02*
X17295809Y29059119D01*
X17200571Y28916261D01*
X17105333Y28821023D01*
X17010095Y28773404D01*
X18486285Y29059119D02*
X18010095Y29059119D01*
X17962476Y28582928D01*
X18010095Y28630547D01*
X18105333Y28678166D01*
X18343428Y28678166D01*
X18438666Y28630547D01*
X18486285Y28582928D01*
X18533904Y28487690D01*
X18533904Y28249595D01*
X18486285Y28154357D01*
X18438666Y28106738D01*
X18343428Y28059119D01*
X18105333Y28059119D01*
X18010095Y28106738D01*
X17962476Y28154357D01*
%TO.C,R29*%
X23868142Y11643119D02*
X23534809Y12119309D01*
X23296714Y11643119D02*
X23296714Y12643119D01*
X23677666Y12643119D01*
X23772904Y12595500D01*
X23820523Y12547880D01*
X23868142Y12452642D01*
X23868142Y12309785D01*
X23820523Y12214547D01*
X23772904Y12166928D01*
X23677666Y12119309D01*
X23296714Y12119309D01*
X24249095Y12547880D02*
X24296714Y12595500D01*
X24391952Y12643119D01*
X24630047Y12643119D01*
X24725285Y12595500D01*
X24772904Y12547880D01*
X24820523Y12452642D01*
X24820523Y12357404D01*
X24772904Y12214547D01*
X24201476Y11643119D01*
X24820523Y11643119D01*
X25296714Y11643119D02*
X25487190Y11643119D01*
X25582428Y11690738D01*
X25630047Y11738357D01*
X25725285Y11881214D01*
X25772904Y12071690D01*
X25772904Y12452642D01*
X25725285Y12547880D01*
X25677666Y12595500D01*
X25582428Y12643119D01*
X25391952Y12643119D01*
X25296714Y12595500D01*
X25249095Y12547880D01*
X25201476Y12452642D01*
X25201476Y12214547D01*
X25249095Y12119309D01*
X25296714Y12071690D01*
X25391952Y12024071D01*
X25582428Y12024071D01*
X25677666Y12071690D01*
X25725285Y12119309D01*
X25772904Y12214547D01*
%TO.C,C13*%
X18661142Y8850357D02*
X18613523Y8802738D01*
X18470666Y8755119D01*
X18375428Y8755119D01*
X18232571Y8802738D01*
X18137333Y8897976D01*
X18089714Y8993214D01*
X18042095Y9183690D01*
X18042095Y9326547D01*
X18089714Y9517023D01*
X18137333Y9612261D01*
X18232571Y9707500D01*
X18375428Y9755119D01*
X18470666Y9755119D01*
X18613523Y9707500D01*
X18661142Y9659880D01*
X19613523Y8755119D02*
X19042095Y8755119D01*
X19327809Y8755119D02*
X19327809Y9755119D01*
X19232571Y9612261D01*
X19137333Y9517023D01*
X19042095Y9469404D01*
X19946857Y9755119D02*
X20565904Y9755119D01*
X20232571Y9374166D01*
X20375428Y9374166D01*
X20470666Y9326547D01*
X20518285Y9278928D01*
X20565904Y9183690D01*
X20565904Y8945595D01*
X20518285Y8850357D01*
X20470666Y8802738D01*
X20375428Y8755119D01*
X20089714Y8755119D01*
X19994476Y8802738D01*
X19946857Y8850357D01*
%TO.C,U1*%
X19431095Y26953119D02*
X19431095Y26143595D01*
X19478714Y26048357D01*
X19526333Y26000738D01*
X19621571Y25953119D01*
X19812047Y25953119D01*
X19907285Y26000738D01*
X19954904Y26048357D01*
X20002523Y26143595D01*
X20002523Y26953119D01*
X21002523Y25953119D02*
X20431095Y25953119D01*
X20716809Y25953119D02*
X20716809Y26953119D01*
X20621571Y26810261D01*
X20526333Y26715023D01*
X20431095Y26667404D01*
%TO.C,R30*%
X31234142Y20693119D02*
X30900809Y21169309D01*
X30662714Y20693119D02*
X30662714Y21693119D01*
X31043666Y21693119D01*
X31138904Y21645500D01*
X31186523Y21597880D01*
X31234142Y21502642D01*
X31234142Y21359785D01*
X31186523Y21264547D01*
X31138904Y21216928D01*
X31043666Y21169309D01*
X30662714Y21169309D01*
X31567476Y21693119D02*
X32186523Y21693119D01*
X31853190Y21312166D01*
X31996047Y21312166D01*
X32091285Y21264547D01*
X32138904Y21216928D01*
X32186523Y21121690D01*
X32186523Y20883595D01*
X32138904Y20788357D01*
X32091285Y20740738D01*
X31996047Y20693119D01*
X31710333Y20693119D01*
X31615095Y20740738D01*
X31567476Y20788357D01*
X32805571Y21693119D02*
X32900809Y21693119D01*
X32996047Y21645500D01*
X33043666Y21597880D01*
X33091285Y21502642D01*
X33138904Y21312166D01*
X33138904Y21074071D01*
X33091285Y20883595D01*
X33043666Y20788357D01*
X32996047Y20740738D01*
X32900809Y20693119D01*
X32805571Y20693119D01*
X32710333Y20740738D01*
X32662714Y20788357D01*
X32615095Y20883595D01*
X32567476Y21074071D01*
X32567476Y21312166D01*
X32615095Y21502642D01*
X32662714Y21597880D01*
X32710333Y21645500D01*
X32805571Y21693119D01*
%TO.C,H2*%
X16129095Y2786119D02*
X16129095Y3786119D01*
X16129095Y3309928D02*
X16700523Y3309928D01*
X16700523Y2786119D02*
X16700523Y3786119D01*
X17129095Y3690880D02*
X17176714Y3738500D01*
X17271952Y3786119D01*
X17510047Y3786119D01*
X17605285Y3738500D01*
X17652904Y3690880D01*
X17700523Y3595642D01*
X17700523Y3500404D01*
X17652904Y3357547D01*
X17081476Y2786119D01*
X17700523Y2786119D01*
%TO.C,R1*%
X12550380Y28471833D02*
X12074190Y28138500D01*
X12550380Y27900404D02*
X11550380Y27900404D01*
X11550380Y28281357D01*
X11598000Y28376595D01*
X11645619Y28424214D01*
X11740857Y28471833D01*
X11883714Y28471833D01*
X11978952Y28424214D01*
X12026571Y28376595D01*
X12074190Y28281357D01*
X12074190Y27900404D01*
X12550380Y29424214D02*
X12550380Y28852785D01*
X12550380Y29138500D02*
X11550380Y29138500D01*
X11693238Y29043261D01*
X11788476Y28948023D01*
X11836095Y28852785D01*
%TO.C,H3*%
X44438095Y6065119D02*
X44438095Y7065119D01*
X44438095Y6588928D02*
X45009523Y6588928D01*
X45009523Y6065119D02*
X45009523Y7065119D01*
X45390476Y7065119D02*
X46009523Y7065119D01*
X45676190Y6684166D01*
X45819047Y6684166D01*
X45914285Y6636547D01*
X45961904Y6588928D01*
X46009523Y6493690D01*
X46009523Y6255595D01*
X45961904Y6160357D01*
X45914285Y6112738D01*
X45819047Y6065119D01*
X45533333Y6065119D01*
X45438095Y6112738D01*
X45390476Y6160357D01*
%TO.C,R12*%
X35631380Y18470642D02*
X35155190Y18137309D01*
X35631380Y17899214D02*
X34631380Y17899214D01*
X34631380Y18280166D01*
X34679000Y18375404D01*
X34726619Y18423023D01*
X34821857Y18470642D01*
X34964714Y18470642D01*
X35059952Y18423023D01*
X35107571Y18375404D01*
X35155190Y18280166D01*
X35155190Y17899214D01*
X35631380Y19423023D02*
X35631380Y18851595D01*
X35631380Y19137309D02*
X34631380Y19137309D01*
X34774238Y19042071D01*
X34869476Y18946833D01*
X34917095Y18851595D01*
X34726619Y19803976D02*
X34679000Y19851595D01*
X34631380Y19946833D01*
X34631380Y20184928D01*
X34679000Y20280166D01*
X34726619Y20327785D01*
X34821857Y20375404D01*
X34917095Y20375404D01*
X35059952Y20327785D01*
X35631380Y19756357D01*
X35631380Y20375404D01*
%TO.C,TP2*%
X21852095Y33123119D02*
X22423523Y33123119D01*
X22137809Y32123119D02*
X22137809Y33123119D01*
X22756857Y32123119D02*
X22756857Y33123119D01*
X23137809Y33123119D01*
X23233047Y33075500D01*
X23280666Y33027880D01*
X23328285Y32932642D01*
X23328285Y32789785D01*
X23280666Y32694547D01*
X23233047Y32646928D01*
X23137809Y32599309D01*
X22756857Y32599309D01*
X23709238Y33027880D02*
X23756857Y33075500D01*
X23852095Y33123119D01*
X24090190Y33123119D01*
X24185428Y33075500D01*
X24233047Y33027880D01*
X24280666Y32932642D01*
X24280666Y32837404D01*
X24233047Y32694547D01*
X23661619Y32123119D01*
X24280666Y32123119D01*
%TO.C,FB1*%
X1198571Y11168166D02*
X1198571Y10834833D01*
X1722380Y10834833D02*
X722380Y10834833D01*
X722380Y11311023D01*
X1198571Y12025309D02*
X1246190Y12168166D01*
X1293809Y12215785D01*
X1389047Y12263404D01*
X1531904Y12263404D01*
X1627142Y12215785D01*
X1674761Y12168166D01*
X1722380Y12072928D01*
X1722380Y11691976D01*
X722380Y11691976D01*
X722380Y12025309D01*
X770000Y12120547D01*
X817619Y12168166D01*
X912857Y12215785D01*
X1008095Y12215785D01*
X1103333Y12168166D01*
X1150952Y12120547D01*
X1198571Y12025309D01*
X1198571Y11691976D01*
X1722380Y13215785D02*
X1722380Y12644357D01*
X1722380Y12930071D02*
X722380Y12930071D01*
X865238Y12834833D01*
X960476Y12739595D01*
X1008095Y12644357D01*
%TO.C,R18*%
X10787142Y24249119D02*
X10453809Y24725309D01*
X10215714Y24249119D02*
X10215714Y25249119D01*
X10596666Y25249119D01*
X10691904Y25201500D01*
X10739523Y25153880D01*
X10787142Y25058642D01*
X10787142Y24915785D01*
X10739523Y24820547D01*
X10691904Y24772928D01*
X10596666Y24725309D01*
X10215714Y24725309D01*
X11739523Y24249119D02*
X11168095Y24249119D01*
X11453809Y24249119D02*
X11453809Y25249119D01*
X11358571Y25106261D01*
X11263333Y25011023D01*
X11168095Y24963404D01*
X12310952Y24820547D02*
X12215714Y24868166D01*
X12168095Y24915785D01*
X12120476Y25011023D01*
X12120476Y25058642D01*
X12168095Y25153880D01*
X12215714Y25201500D01*
X12310952Y25249119D01*
X12501428Y25249119D01*
X12596666Y25201500D01*
X12644285Y25153880D01*
X12691904Y25058642D01*
X12691904Y25011023D01*
X12644285Y24915785D01*
X12596666Y24868166D01*
X12501428Y24820547D01*
X12310952Y24820547D01*
X12215714Y24772928D01*
X12168095Y24725309D01*
X12120476Y24630071D01*
X12120476Y24439595D01*
X12168095Y24344357D01*
X12215714Y24296738D01*
X12310952Y24249119D01*
X12501428Y24249119D01*
X12596666Y24296738D01*
X12644285Y24344357D01*
X12691904Y24439595D01*
X12691904Y24630071D01*
X12644285Y24725309D01*
X12596666Y24772928D01*
X12501428Y24820547D01*
%TO.C,C21*%
X19042142Y14311357D02*
X18994523Y14263738D01*
X18851666Y14216119D01*
X18756428Y14216119D01*
X18613571Y14263738D01*
X18518333Y14358976D01*
X18470714Y14454214D01*
X18423095Y14644690D01*
X18423095Y14787547D01*
X18470714Y14978023D01*
X18518333Y15073261D01*
X18613571Y15168500D01*
X18756428Y15216119D01*
X18851666Y15216119D01*
X18994523Y15168500D01*
X19042142Y15120880D01*
X19423095Y15120880D02*
X19470714Y15168500D01*
X19565952Y15216119D01*
X19804047Y15216119D01*
X19899285Y15168500D01*
X19946904Y15120880D01*
X19994523Y15025642D01*
X19994523Y14930404D01*
X19946904Y14787547D01*
X19375476Y14216119D01*
X19994523Y14216119D01*
X20946904Y14216119D02*
X20375476Y14216119D01*
X20661190Y14216119D02*
X20661190Y15216119D01*
X20565952Y15073261D01*
X20470714Y14978023D01*
X20375476Y14930404D01*
%TO.C,C19*%
X25392142Y5040357D02*
X25344523Y4992738D01*
X25201666Y4945119D01*
X25106428Y4945119D01*
X24963571Y4992738D01*
X24868333Y5087976D01*
X24820714Y5183214D01*
X24773095Y5373690D01*
X24773095Y5516547D01*
X24820714Y5707023D01*
X24868333Y5802261D01*
X24963571Y5897500D01*
X25106428Y5945119D01*
X25201666Y5945119D01*
X25344523Y5897500D01*
X25392142Y5849880D01*
X26344523Y4945119D02*
X25773095Y4945119D01*
X26058809Y4945119D02*
X26058809Y5945119D01*
X25963571Y5802261D01*
X25868333Y5707023D01*
X25773095Y5659404D01*
X26820714Y4945119D02*
X27011190Y4945119D01*
X27106428Y4992738D01*
X27154047Y5040357D01*
X27249285Y5183214D01*
X27296904Y5373690D01*
X27296904Y5754642D01*
X27249285Y5849880D01*
X27201666Y5897500D01*
X27106428Y5945119D01*
X26915952Y5945119D01*
X26820714Y5897500D01*
X26773095Y5849880D01*
X26725476Y5754642D01*
X26725476Y5516547D01*
X26773095Y5421309D01*
X26820714Y5373690D01*
X26915952Y5326071D01*
X27106428Y5326071D01*
X27201666Y5373690D01*
X27249285Y5421309D01*
X27296904Y5516547D01*
%TO.C,C12*%
X35569142Y22153642D02*
X35616761Y22106023D01*
X35664380Y21963166D01*
X35664380Y21867928D01*
X35616761Y21725071D01*
X35521523Y21629833D01*
X35426285Y21582214D01*
X35235809Y21534595D01*
X35092952Y21534595D01*
X34902476Y21582214D01*
X34807238Y21629833D01*
X34712000Y21725071D01*
X34664380Y21867928D01*
X34664380Y21963166D01*
X34712000Y22106023D01*
X34759619Y22153642D01*
X35664380Y23106023D02*
X35664380Y22534595D01*
X35664380Y22820309D02*
X34664380Y22820309D01*
X34807238Y22725071D01*
X34902476Y22629833D01*
X34950095Y22534595D01*
X34759619Y23486976D02*
X34712000Y23534595D01*
X34664380Y23629833D01*
X34664380Y23867928D01*
X34712000Y23963166D01*
X34759619Y24010785D01*
X34854857Y24058404D01*
X34950095Y24058404D01*
X35092952Y24010785D01*
X35664380Y23439357D01*
X35664380Y24058404D01*
%TO.C,RV1*%
X30519761Y23614119D02*
X30186428Y24090309D01*
X29948333Y23614119D02*
X29948333Y24614119D01*
X30329285Y24614119D01*
X30424523Y24566500D01*
X30472142Y24518880D01*
X30519761Y24423642D01*
X30519761Y24280785D01*
X30472142Y24185547D01*
X30424523Y24137928D01*
X30329285Y24090309D01*
X29948333Y24090309D01*
X30805476Y24614119D02*
X31138809Y23614119D01*
X31472142Y24614119D01*
X32329285Y23614119D02*
X31757857Y23614119D01*
X32043571Y23614119D02*
X32043571Y24614119D01*
X31948333Y24471261D01*
X31853095Y24376023D01*
X31757857Y24328404D01*
%TO.C,C4*%
X38076142Y5865833D02*
X38123761Y5818214D01*
X38171380Y5675357D01*
X38171380Y5580119D01*
X38123761Y5437261D01*
X38028523Y5342023D01*
X37933285Y5294404D01*
X37742809Y5246785D01*
X37599952Y5246785D01*
X37409476Y5294404D01*
X37314238Y5342023D01*
X37219000Y5437261D01*
X37171380Y5580119D01*
X37171380Y5675357D01*
X37219000Y5818214D01*
X37266619Y5865833D01*
X37504714Y6722976D02*
X38171380Y6722976D01*
X37123761Y6484880D02*
X37838047Y6246785D01*
X37838047Y6865833D01*
%TO.C,C10*%
X19677142Y17232357D02*
X19629523Y17184738D01*
X19486666Y17137119D01*
X19391428Y17137119D01*
X19248571Y17184738D01*
X19153333Y17279976D01*
X19105714Y17375214D01*
X19058095Y17565690D01*
X19058095Y17708547D01*
X19105714Y17899023D01*
X19153333Y17994261D01*
X19248571Y18089500D01*
X19391428Y18137119D01*
X19486666Y18137119D01*
X19629523Y18089500D01*
X19677142Y18041880D01*
X20629523Y17137119D02*
X20058095Y17137119D01*
X20343809Y17137119D02*
X20343809Y18137119D01*
X20248571Y17994261D01*
X20153333Y17899023D01*
X20058095Y17851404D01*
X21248571Y18137119D02*
X21343809Y18137119D01*
X21439047Y18089500D01*
X21486666Y18041880D01*
X21534285Y17946642D01*
X21581904Y17756166D01*
X21581904Y17518071D01*
X21534285Y17327595D01*
X21486666Y17232357D01*
X21439047Y17184738D01*
X21343809Y17137119D01*
X21248571Y17137119D01*
X21153333Y17184738D01*
X21105714Y17232357D01*
X21058095Y17327595D01*
X21010476Y17518071D01*
X21010476Y17756166D01*
X21058095Y17946642D01*
X21105714Y18041880D01*
X21153333Y18089500D01*
X21248571Y18137119D01*
%TO.C,C3*%
X12549142Y15136833D02*
X12596761Y15089214D01*
X12644380Y14946357D01*
X12644380Y14851119D01*
X12596761Y14708261D01*
X12501523Y14613023D01*
X12406285Y14565404D01*
X12215809Y14517785D01*
X12072952Y14517785D01*
X11882476Y14565404D01*
X11787238Y14613023D01*
X11692000Y14708261D01*
X11644380Y14851119D01*
X11644380Y14946357D01*
X11692000Y15089214D01*
X11739619Y15136833D01*
X11644380Y15470166D02*
X11644380Y16089214D01*
X12025333Y15755880D01*
X12025333Y15898738D01*
X12072952Y15993976D01*
X12120571Y16041595D01*
X12215809Y16089214D01*
X12453904Y16089214D01*
X12549142Y16041595D01*
X12596761Y15993976D01*
X12644380Y15898738D01*
X12644380Y15613023D01*
X12596761Y15517785D01*
X12549142Y15470166D01*
%TO.C,H1*%
X16129095Y31107119D02*
X16129095Y32107119D01*
X16129095Y31630928D02*
X16700523Y31630928D01*
X16700523Y31107119D02*
X16700523Y32107119D01*
X17700523Y31107119D02*
X17129095Y31107119D01*
X17414809Y31107119D02*
X17414809Y32107119D01*
X17319571Y31964261D01*
X17224333Y31869023D01*
X17129095Y31821404D01*
%TO.C,R2*%
X10501333Y17772119D02*
X10168000Y18248309D01*
X9929904Y17772119D02*
X9929904Y18772119D01*
X10310857Y18772119D01*
X10406095Y18724500D01*
X10453714Y18676880D01*
X10501333Y18581642D01*
X10501333Y18438785D01*
X10453714Y18343547D01*
X10406095Y18295928D01*
X10310857Y18248309D01*
X9929904Y18248309D01*
X10882285Y18676880D02*
X10929904Y18724500D01*
X11025142Y18772119D01*
X11263238Y18772119D01*
X11358476Y18724500D01*
X11406095Y18676880D01*
X11453714Y18581642D01*
X11453714Y18486404D01*
X11406095Y18343547D01*
X10834666Y17772119D01*
X11453714Y17772119D01*
%TO.C,C5*%
X22185333Y9612357D02*
X22137714Y9564738D01*
X21994857Y9517119D01*
X21899619Y9517119D01*
X21756761Y9564738D01*
X21661523Y9659976D01*
X21613904Y9755214D01*
X21566285Y9945690D01*
X21566285Y10088547D01*
X21613904Y10279023D01*
X21661523Y10374261D01*
X21756761Y10469500D01*
X21899619Y10517119D01*
X21994857Y10517119D01*
X22137714Y10469500D01*
X22185333Y10421880D01*
X23090095Y10517119D02*
X22613904Y10517119D01*
X22566285Y10040928D01*
X22613904Y10088547D01*
X22709142Y10136166D01*
X22947238Y10136166D01*
X23042476Y10088547D01*
X23090095Y10040928D01*
X23137714Y9945690D01*
X23137714Y9707595D01*
X23090095Y9612357D01*
X23042476Y9564738D01*
X22947238Y9517119D01*
X22709142Y9517119D01*
X22613904Y9564738D01*
X22566285Y9612357D01*
%TO.C,C1*%
X15597142Y27201833D02*
X15644761Y27154214D01*
X15692380Y27011357D01*
X15692380Y26916119D01*
X15644761Y26773261D01*
X15549523Y26678023D01*
X15454285Y26630404D01*
X15263809Y26582785D01*
X15120952Y26582785D01*
X14930476Y26630404D01*
X14835238Y26678023D01*
X14740000Y26773261D01*
X14692380Y26916119D01*
X14692380Y27011357D01*
X14740000Y27154214D01*
X14787619Y27201833D01*
X15692380Y28154214D02*
X15692380Y27582785D01*
X15692380Y27868500D02*
X14692380Y27868500D01*
X14835238Y27773261D01*
X14930476Y27678023D01*
X14978095Y27582785D01*
%TO.C,C47*%
X36441142Y30440357D02*
X36393523Y30392738D01*
X36250666Y30345119D01*
X36155428Y30345119D01*
X36012571Y30392738D01*
X35917333Y30487976D01*
X35869714Y30583214D01*
X35822095Y30773690D01*
X35822095Y30916547D01*
X35869714Y31107023D01*
X35917333Y31202261D01*
X36012571Y31297500D01*
X36155428Y31345119D01*
X36250666Y31345119D01*
X36393523Y31297500D01*
X36441142Y31249880D01*
X37298285Y31011785D02*
X37298285Y30345119D01*
X37060190Y31392738D02*
X36822095Y30678452D01*
X37441142Y30678452D01*
X37726857Y31345119D02*
X38393523Y31345119D01*
X37964952Y30345119D01*
D13*
%TO.C,J1*%
X5071826Y2142429D02*
X5071826Y1590886D01*
X5035056Y1480578D01*
X4961517Y1407039D01*
X4851209Y1370269D01*
X4777670Y1370269D01*
X5843986Y1370269D02*
X5402751Y1370269D01*
X5623369Y1370269D02*
X5623369Y2142429D01*
X5549830Y2032120D01*
X5476291Y1958581D01*
X5402751Y1921812D01*
D14*
%TO.C,U7*%
X30391100Y15646400D02*
X30391100Y11404600D01*
X30619700Y11404600D02*
X30619700Y9829800D01*
X35661600Y11417300D02*
X35661600Y15659100D01*
X30416500Y11404600D02*
X30619700Y11404600D01*
D15*
%TO.C,U3*%
X23752700Y18958300D02*
X21952700Y18958300D01*
X23752700Y18958300D02*
X24552700Y18958300D01*
X23752700Y15838300D02*
X24552700Y15838300D01*
X23752700Y15838300D02*
X22952700Y15838300D01*
%TO.C,R10*%
X13699258Y10238000D02*
X13224742Y10238000D01*
X13699258Y9193000D02*
X13224742Y9193000D01*
%TO.C,J2*%
X28310000Y-931500D02*
X28310000Y-6931500D01*
X36880000Y-931500D02*
X36880000Y1728500D01*
X35510000Y-931500D02*
X35510000Y-6931500D01*
X35630000Y-931500D02*
X35630000Y-6931500D01*
X35930000Y2058500D02*
X35930000Y1728500D01*
X28310000Y-6931500D02*
X27550000Y-6931500D01*
X35170000Y-6931500D02*
X35170000Y-931500D01*
X32630000Y2125571D02*
X32630000Y1728500D01*
X31740000Y1728500D02*
X31740000Y-931500D01*
X35930000Y-931500D02*
X35930000Y-6931500D01*
X35390000Y-931500D02*
X35390000Y-6931500D01*
X30090000Y-6931500D02*
X30090000Y-931500D01*
X36880000Y1728500D02*
X26600000Y1728500D01*
X26600000Y-931500D02*
X36880000Y-931500D01*
X33390000Y-6931500D02*
X32630000Y-6931500D01*
X33390000Y-931500D02*
X33390000Y-6931500D01*
X27550000Y-6931500D02*
X27550000Y-931500D01*
X35930000Y-6931500D02*
X35170000Y-6931500D01*
X35270000Y-931500D02*
X35270000Y-6931500D01*
X28310000Y2125571D02*
X28310000Y1728500D01*
X36820000Y4438500D02*
X36820000Y3168500D01*
X35550000Y4438500D02*
X36820000Y4438500D01*
X29200000Y1728500D02*
X29200000Y-931500D01*
X35870000Y-931500D02*
X35870000Y-6931500D01*
X30850000Y2125571D02*
X30850000Y1728500D01*
X35170000Y2058500D02*
X35170000Y1728500D01*
X32630000Y-6931500D02*
X32630000Y-931500D01*
X30850000Y-6931500D02*
X30090000Y-6931500D01*
X26600000Y1728500D02*
X26600000Y-931500D01*
X30850000Y-931500D02*
X30850000Y-6931500D01*
X27550000Y2125571D02*
X27550000Y1728500D01*
X33390000Y2125571D02*
X33390000Y1728500D01*
X35750000Y-931500D02*
X35750000Y-6931500D01*
X34280000Y1728500D02*
X34280000Y-931500D01*
X30090000Y2125571D02*
X30090000Y1728500D01*
%TO.C,R13*%
X34304500Y25988242D02*
X34304500Y26462758D01*
X33259500Y25988242D02*
X33259500Y26462758D01*
%TO.C,C6*%
X35546420Y7935500D02*
X35827580Y7935500D01*
X35546420Y8955500D02*
X35827580Y8955500D01*
%TO.C,U9*%
X31623000Y5742500D02*
X33423000Y5742500D01*
X31623000Y8862500D02*
X32423000Y8862500D01*
X31623000Y8862500D02*
X30823000Y8862500D01*
X31623000Y5742500D02*
X30823000Y5742500D01*
%TO.C,C2*%
X29462000Y19254080D02*
X29462000Y18972920D01*
X30482000Y19254080D02*
X30482000Y18972920D01*
D12*
%TO.C,TP1*%
X25246000Y3111500D02*
G75*
G03*
X25246000Y3111500I-1370000J0D01*
G01*
D15*
%TO.C,R4*%
X11667258Y22655000D02*
X11192742Y22655000D01*
X11667258Y23700000D02*
X11192742Y23700000D01*
%TO.C,R6*%
X15860500Y19892242D02*
X15860500Y20366758D01*
X16905500Y19892242D02*
X16905500Y20366758D01*
%TO.C,C39*%
X10158000Y31827080D02*
X10158000Y31545920D01*
X11178000Y31827080D02*
X11178000Y31545920D01*
%TO.C,C8*%
X25783000Y21032080D02*
X25783000Y20750920D01*
X24763000Y21032080D02*
X24763000Y20750920D01*
%TO.C,R66*%
X26018258Y8050000D02*
X25543742Y8050000D01*
X26018258Y9095000D02*
X25543742Y9095000D01*
%TO.C,R71*%
X41004258Y4748000D02*
X40529742Y4748000D01*
X41004258Y5793000D02*
X40529742Y5793000D01*
%TO.C,R28*%
X16143500Y24210242D02*
X16143500Y24684758D01*
X15098500Y24210242D02*
X15098500Y24684758D01*
%TO.C,R16*%
X21987742Y6809000D02*
X22462258Y6809000D01*
X21987742Y5764000D02*
X22462258Y5764000D01*
%TO.C,R15*%
X15858258Y7288000D02*
X15383742Y7288000D01*
X15858258Y8333000D02*
X15383742Y8333000D01*
D12*
%TO.C,U4*%
X38399000Y26639500D02*
X38699000Y26314500D01*
X40574000Y26314500D02*
X40849000Y26314500D01*
X40549000Y27914500D02*
X40849000Y27914500D01*
X38699000Y27914500D02*
X38399000Y27914500D01*
X38399000Y27914500D02*
X38399000Y27614500D01*
X38699000Y26314500D02*
X38699000Y25914500D01*
X40849000Y26314500D02*
X40849000Y26564500D01*
X40849000Y27914500D02*
X40849000Y27689500D01*
D15*
%TO.C,IC1*%
X15240000Y18260500D02*
X16040000Y18260500D01*
X15240000Y18260500D02*
X13440000Y18260500D01*
X15240000Y15140500D02*
X16040000Y15140500D01*
X15240000Y15140500D02*
X14440000Y15140500D01*
%TO.C,R27*%
X13320500Y20239758D02*
X13320500Y19765242D01*
X14365500Y20239758D02*
X14365500Y19765242D01*
%TO.C,C11*%
X21222580Y12380500D02*
X20941420Y12380500D01*
X21222580Y13400500D02*
X20941420Y13400500D01*
%TO.C,R31*%
X22970258Y19607000D02*
X22495742Y19607000D01*
X22970258Y20652000D02*
X22495742Y20652000D01*
%TO.C,R3*%
X18081258Y13444000D02*
X17606742Y13444000D01*
X18081258Y12399000D02*
X17606742Y12399000D01*
%TO.C,TP9*%
X21393000Y28384500D02*
G75*
G03*
X21393000Y28384500I-1200000J0D01*
G01*
%TO.C,R14*%
X10938742Y6399000D02*
X11413258Y6399000D01*
X10938742Y7444000D02*
X11413258Y7444000D01*
%TO.C,R11*%
X44591500Y26750242D02*
X44591500Y27224758D01*
X43546500Y26750242D02*
X43546500Y27224758D01*
%TO.C,R26*%
X28843500Y12365758D02*
X28843500Y11891242D01*
X27798500Y12365758D02*
X27798500Y11891242D01*
%TO.C,J5*%
X51108000Y17317500D02*
X50108000Y18317500D01*
X51108000Y17317500D02*
X50108000Y16317500D01*
X51308000Y9817500D02*
X36308000Y9817500D01*
X36308000Y9817500D02*
X36308000Y24817500D01*
X36308000Y24817500D02*
X51308000Y24817500D01*
X51308000Y24817500D02*
X51308000Y9817500D01*
D16*
%TO.C,J4*%
X8318000Y15835500D02*
X8318000Y16835500D01*
X1568000Y28085500D02*
X1568000Y27085500D01*
X1818000Y30835500D02*
X-682000Y30835500D01*
X818000Y28085500D02*
X568000Y28085500D01*
X8318000Y30835500D02*
X2818000Y30835500D01*
X2318000Y28085500D02*
X1568000Y28085500D01*
X1818000Y31335500D02*
X1818000Y30835500D01*
X818000Y28085500D02*
X818000Y27085500D01*
X7318000Y17835500D02*
X7818000Y17835500D01*
X5146281Y28310968D02*
X3568000Y28085500D01*
X5043200Y17763600D02*
X3268000Y17985500D01*
X8318000Y29835500D02*
X-682000Y29835500D01*
X2818000Y31335500D02*
X1818000Y31335500D01*
X3318000Y28585500D02*
X5093200Y28807400D01*
X4818000Y28235500D02*
X4818000Y26935500D01*
X2818000Y15835500D02*
X8318000Y15835500D01*
X7818000Y19335500D02*
X7318000Y19335500D01*
X8018000Y20835500D02*
X8318000Y20835500D01*
X-682000Y16835500D02*
X-682000Y15835500D01*
X8318000Y20835500D02*
X8318000Y19835500D01*
X518000Y19485500D02*
X518000Y18485500D01*
X18000Y19485500D02*
X18000Y18485500D01*
X7818000Y21135500D02*
X7818000Y21035500D01*
X518000Y18485500D02*
X768000Y18485500D01*
X1568000Y28085500D02*
X1318000Y28085500D01*
X1518000Y19485500D02*
X1518000Y18485500D01*
X3568000Y28085500D02*
X2318000Y28085500D01*
X768000Y19485500D02*
X518000Y19485500D01*
X8018000Y25335500D02*
X8318000Y25335500D01*
X1318000Y27085500D02*
X1568000Y27085500D01*
X5268000Y18062041D02*
X5268000Y17962057D01*
X1268000Y19485500D02*
X1268000Y18485500D01*
X2268000Y18485500D02*
X3518000Y18485500D01*
X3518000Y19485500D02*
X2268000Y19485500D01*
X-682000Y15835500D02*
X1818000Y15835500D01*
X2818000Y15335500D02*
X2818000Y15835500D01*
X568000Y27085500D02*
X818000Y27085500D01*
X6818000Y18835500D02*
X6818000Y18335500D01*
X568000Y28085500D02*
X568000Y27085500D01*
X1318000Y28085500D02*
X1318000Y27085500D01*
X8318000Y26835500D02*
X8318000Y25835500D01*
X-682000Y29835500D02*
X-682000Y16835500D01*
X8318000Y21335500D02*
X8018000Y21335500D01*
X2818000Y30835500D02*
X1818000Y30835500D01*
X3568000Y27085500D02*
X5146281Y26860031D01*
X5268000Y20008944D02*
X5268000Y19908960D01*
X8318000Y25335500D02*
X8318000Y21335500D01*
X8318000Y29335500D02*
X8318000Y29835500D01*
X1818000Y15835500D02*
X2818000Y15835500D01*
X5318000Y28608943D02*
X5318000Y28508959D01*
X2318000Y28085500D02*
X2318000Y27085500D01*
X3268000Y19985500D02*
X5043200Y20207400D01*
X2268000Y19485500D02*
X1518000Y19485500D01*
X1268000Y18485500D02*
X1518000Y18485500D01*
X818000Y27085500D02*
X1318000Y27085500D01*
X8318000Y29835500D02*
X8318000Y30835500D01*
X1518000Y18485500D02*
X2268000Y18485500D01*
X4768000Y19635500D02*
X4768000Y18335500D01*
X5096281Y19710969D02*
X3518000Y19485500D01*
X7818000Y27335500D02*
X8318000Y26835500D01*
X3518000Y18485500D02*
X5096281Y18260032D01*
X8318000Y29335500D02*
X7818000Y28835500D01*
X1568000Y27085500D02*
X2318000Y27085500D01*
X-682000Y30835500D02*
X-682000Y29835500D01*
X7818000Y25635500D02*
X7818000Y25535500D01*
X8318000Y16835500D02*
X8318000Y17335500D01*
X1268000Y19485500D02*
X768000Y19485500D01*
X3318000Y28585500D02*
X568000Y28585500D01*
X8318000Y16835500D02*
X-682000Y16835500D01*
X6818000Y28335500D02*
X6818000Y27835500D01*
X9318000Y27835500D02*
X9318000Y18335500D01*
X2818000Y30835500D02*
X2818000Y31335500D01*
X68000Y28085500D02*
X68000Y27085500D01*
X568000Y26585500D02*
X3318000Y26585500D01*
X518000Y17985500D02*
X3268000Y17985500D01*
X7818000Y17835500D02*
X8318000Y17335500D01*
X1318000Y28085500D02*
X818000Y28085500D01*
X1818000Y15835500D02*
X1818000Y15335500D01*
X2318000Y27085500D02*
X3568000Y27085500D01*
X1518000Y19485500D02*
X1268000Y19485500D01*
X1818000Y15335500D02*
X2818000Y15335500D01*
X3268000Y19985500D02*
X518000Y19985500D01*
X7818000Y28835500D02*
X7318000Y28835500D01*
X768000Y18485500D02*
X1268000Y18485500D01*
X5318000Y26662040D02*
X5318000Y26562056D01*
X5093200Y26363600D02*
X3318000Y26585500D01*
X2268000Y19485500D02*
X2268000Y18485500D01*
X768000Y19485500D02*
X768000Y18485500D01*
X8318000Y25835500D02*
X8018000Y25835500D01*
X8318000Y19835500D02*
X7818000Y19335500D01*
X7318000Y27335500D02*
X7818000Y27335500D01*
X568000Y28585500D02*
G75*
G03*
X68000Y28085500I1J-500001D01*
G01*
X6818000Y27835500D02*
G75*
G03*
X7318000Y27335500I500001J1D01*
G01*
X5318000Y26662039D02*
G75*
G03*
X5146281Y26860031I-200002J0D01*
G01*
X5146281Y28310967D02*
G75*
G03*
X5318000Y28508959I-28281J197990D01*
G01*
X7818000Y21035500D02*
G75*
G03*
X8018000Y20835500I200000J0D01*
G01*
X5093200Y26363600D02*
G75*
G03*
X5318000Y26562056I24800J198456D01*
G01*
X5267996Y20008943D02*
G75*
G03*
X5043200Y20207400I-199976J27D01*
G01*
X6818000Y18335500D02*
G75*
G03*
X7318000Y17835500I500000J0D01*
G01*
X7318000Y19335500D02*
G75*
G03*
X6818000Y18835500I0J-500000D01*
G01*
X5268054Y18062041D02*
G75*
G03*
X5096281Y18260032I-200154J-141D01*
G01*
X5318001Y28608941D02*
G75*
G03*
X5093200Y28807400I-199999J4D01*
G01*
X68000Y27085500D02*
G75*
G03*
X568000Y26585500I500001J1D01*
G01*
X7318000Y28835500D02*
G75*
G03*
X6818000Y28335500I1J-500001D01*
G01*
X7818000Y25535500D02*
G75*
G03*
X8018000Y25335500I200001J1D01*
G01*
X5043189Y17763532D02*
G75*
G03*
X5268000Y17962057I24711J198568D01*
G01*
X8018000Y21335500D02*
G75*
G03*
X7818000Y21135500I0J-200000D01*
G01*
X5096286Y19710924D02*
G75*
G03*
X5268000Y19908960I-28386J198076D01*
G01*
X18000Y18485500D02*
G75*
G03*
X518000Y17985500I500000J0D01*
G01*
X8018000Y25835500D02*
G75*
G03*
X7818000Y25635500I1J-200001D01*
G01*
X518000Y19985500D02*
G75*
G03*
X18000Y19485500I0J-500000D01*
G01*
D15*
%TO.C,R9*%
X17638500Y19350758D02*
X17638500Y18876242D01*
X18683500Y19350758D02*
X18683500Y18876242D01*
%TO.C,C9*%
X27434000Y19254080D02*
X27434000Y18972920D01*
X26414000Y19254080D02*
X26414000Y18972920D01*
%TO.C,C14*%
X24143580Y23175500D02*
X23862420Y23175500D01*
X24143580Y24195500D02*
X23862420Y24195500D01*
%TO.C,C15*%
X17412580Y27624500D02*
X17131420Y27624500D01*
X17412580Y26604500D02*
X17131420Y26604500D01*
%TO.C,R29*%
X24748258Y13003000D02*
X24273742Y13003000D01*
X24748258Y14048000D02*
X24273742Y14048000D01*
%TO.C,C13*%
X20068000Y7189080D02*
X20068000Y6907920D01*
X19048000Y7189080D02*
X19048000Y6907920D01*
%TO.C,U1*%
X20228750Y22445500D02*
X19428750Y22445500D01*
X20228750Y25565500D02*
X21028750Y25565500D01*
X20228750Y22445500D02*
X21028750Y22445500D01*
X20228750Y25565500D02*
X18428750Y25565500D01*
%TO.C,R30*%
X32399500Y18876242D02*
X32399500Y19350758D01*
X31354500Y18876242D02*
X31354500Y19350758D01*
%TO.C,R1*%
X10145500Y28875758D02*
X10145500Y28401242D01*
X11190500Y28875758D02*
X11190500Y28401242D01*
%TO.C,R12*%
X34304500Y19350758D02*
X34304500Y18876242D01*
X33259500Y19350758D02*
X33259500Y18876242D01*
D12*
%TO.C,TP2*%
X21563000Y31686500D02*
G75*
G03*
X21563000Y31686500I-1370000J0D01*
G01*
D15*
%TO.C,FB1*%
X3606748Y10964500D02*
X5029252Y10964500D01*
X3606748Y12784500D02*
X5029252Y12784500D01*
%TO.C,R18*%
X11667258Y26621000D02*
X11192742Y26621000D01*
X11667258Y25576000D02*
X11192742Y25576000D01*
%TO.C,C21*%
X19825580Y16702500D02*
X19544420Y16702500D01*
X19825580Y15682500D02*
X19544420Y15682500D01*
%TO.C,C19*%
X26302580Y7431500D02*
X26021420Y7431500D01*
X26302580Y6411500D02*
X26021420Y6411500D01*
%TO.C,C12*%
X34292000Y22937080D02*
X34292000Y22655920D01*
X33272000Y22937080D02*
X33272000Y22655920D01*
D16*
%TO.C,RV1*%
X30354000Y31432500D02*
X30354000Y29257500D01*
X26034000Y26657500D02*
X26034000Y29857500D01*
X30354000Y25082500D02*
X27494000Y25082500D01*
X30354000Y27257500D02*
X30354000Y25082500D01*
X27494000Y31432500D02*
X30354000Y31432500D01*
D17*
X23794000Y30797500D02*
G75*
G03*
X23794000Y30797500I-100000J0D01*
G01*
D15*
%TO.C,C4*%
X35419420Y6542500D02*
X35700580Y6542500D01*
X35419420Y5522500D02*
X35700580Y5522500D01*
%TO.C,C10*%
X19683000Y19734920D02*
X19683000Y20016080D01*
X20703000Y19734920D02*
X20703000Y20016080D01*
%TO.C,C3*%
X10285000Y15162920D02*
X10285000Y15444080D01*
X11305000Y15162920D02*
X11305000Y15444080D01*
%TO.C,R2*%
X11667258Y19226000D02*
X11192742Y19226000D01*
X11667258Y20271000D02*
X11192742Y20271000D01*
%TO.C,C5*%
X22492580Y8062500D02*
X22211420Y8062500D01*
X22492580Y9082500D02*
X22211420Y9082500D01*
%TO.C,C1*%
X14353000Y26592920D02*
X14353000Y26874080D01*
X13333000Y26592920D02*
X13333000Y26874080D01*
%TO.C,C47*%
X37594000Y28906080D02*
X37594000Y28624920D01*
X36574000Y28906080D02*
X36574000Y28624920D01*
D18*
%TO.C,J1*%
X-10474000Y8805500D02*
X-11074000Y8805500D01*
X-1474000Y3005500D02*
X-2274000Y3005500D01*
X-4074000Y10305500D02*
X-3174000Y10305500D01*
X3726000Y9305500D02*
X5926000Y9305500D01*
X-11074000Y8805500D02*
X-11074000Y3005500D01*
X-10474000Y3005500D02*
X-11074000Y3005500D01*
X-3174000Y8105500D02*
X-3174000Y3705500D01*
X-2274000Y9205500D02*
X-3174000Y9205500D01*
X-2274000Y3005500D02*
X-2274000Y2605500D01*
X-10174000Y2505500D02*
X-10474000Y3005500D01*
X-1474000Y3005500D02*
X-1474000Y8805500D01*
X-574000Y2605500D02*
X-574000Y2005500D01*
X-574000Y9205500D02*
X-1474000Y9205500D01*
X-1474000Y9205500D02*
X-1474000Y8805500D01*
X-3174000Y1505500D02*
X-4074000Y1505500D01*
X1426000Y2005500D02*
X-574000Y2005500D01*
X-3174000Y3705500D02*
X-3174000Y2605500D01*
X-2274000Y2605500D02*
X-3174000Y2605500D01*
X5926000Y2505500D02*
X3726000Y2505500D01*
X-4074000Y9305500D02*
X-4074000Y8105500D01*
X-1474000Y8805500D02*
X-2274000Y8805500D01*
X-574000Y2605500D02*
X-1474000Y2605500D01*
X-2274000Y3005500D02*
X-2274000Y8805500D01*
X-10174000Y9305500D02*
X-10474000Y8805500D01*
X-4074000Y9305500D02*
X-10174000Y9305500D01*
X-574000Y9805500D02*
X-574000Y9205500D01*
X-4074000Y2505500D02*
X-4074000Y1505500D01*
X-1474000Y2605500D02*
X-1474000Y3005500D01*
X-3174000Y9205500D02*
X-3174000Y10305500D01*
X1426000Y4805500D02*
X1426000Y7005500D01*
X-3174000Y3705500D02*
X-4074000Y3705500D01*
X-2274000Y8805500D02*
X-2274000Y9205500D01*
X-4074000Y2505500D02*
X-10174000Y2505500D01*
X-4074000Y10305500D02*
X-4074000Y9305500D01*
X-4074000Y3705500D02*
X-4074000Y8105500D01*
X-4074000Y3705500D02*
X-4074000Y2505500D01*
X1426000Y9805500D02*
X-574000Y9805500D01*
X-3174000Y8105500D02*
X-4074000Y8105500D01*
X-3174000Y8105500D02*
X-3174000Y9205500D01*
X-10474000Y8805500D02*
X-10474000Y3005500D01*
X-3174000Y2605500D02*
X-3174000Y1505500D01*
X-574000Y9205500D02*
X-574000Y2605500D01*
X8226000Y7005500D02*
X8226000Y4805500D01*
%TD*%
%LPC*%
D19*
%TO.C,U7*%
X31127700Y11074400D03*
X32397700Y11074400D03*
X33667700Y11074400D03*
X34937700Y11074400D03*
X34937700Y16002000D03*
X33667700Y16002000D03*
X32397700Y16002000D03*
X31127700Y16002000D03*
%TD*%
D20*
%TO.C,U3*%
X22615200Y18348300D03*
X22615200Y17398300D03*
X22615200Y16448300D03*
X24890200Y16448300D03*
X24890200Y18348300D03*
%TD*%
D21*
%TO.C,R10*%
X14287000Y9715500D03*
X12637000Y9715500D03*
%TD*%
D22*
%TO.C,J2*%
X35550000Y3168500D03*
D23*
X33010000Y3168500D03*
X30470000Y3168500D03*
X27930000Y3168500D03*
%TD*%
D24*
%TO.C,R13*%
X33782000Y25400500D03*
X33782000Y27050500D03*
%TD*%
D25*
%TO.C,C6*%
X34912000Y8445500D03*
X36462000Y8445500D03*
%TD*%
D26*
%TO.C,U9*%
X32760500Y6352500D03*
X32760500Y7302500D03*
X32760500Y8252500D03*
X30485500Y8252500D03*
X30485500Y6352500D03*
%TD*%
D27*
%TO.C,C2*%
X29972000Y19888500D03*
X29972000Y18338500D03*
%TD*%
D28*
%TO.C,TP1*%
X23876000Y3111500D03*
%TD*%
D21*
%TO.C,R4*%
X12255000Y23177500D03*
X10605000Y23177500D03*
%TD*%
D24*
%TO.C,R6*%
X16383000Y19304500D03*
X16383000Y20954500D03*
%TD*%
D27*
%TO.C,C39*%
X10668000Y32461500D03*
X10668000Y30911500D03*
%TD*%
%TO.C,C8*%
X25273000Y21666500D03*
X25273000Y20116500D03*
%TD*%
D21*
%TO.C,R66*%
X26606000Y8572500D03*
X24956000Y8572500D03*
%TD*%
%TO.C,R71*%
X41592000Y5270500D03*
X39942000Y5270500D03*
%TD*%
D24*
%TO.C,R28*%
X15621000Y23622500D03*
X15621000Y25272500D03*
%TD*%
D29*
%TO.C,R16*%
X21400000Y6286500D03*
X23050000Y6286500D03*
%TD*%
D21*
%TO.C,R15*%
X16446000Y7810500D03*
X14796000Y7810500D03*
%TD*%
D30*
%TO.C,U4*%
X38974000Y26164500D03*
X39624000Y26164500D03*
X40274000Y26164500D03*
X40274000Y28064500D03*
X39624000Y28064500D03*
X38974000Y28064500D03*
%TD*%
D20*
%TO.C,IC1*%
X14102500Y17650500D03*
X14102500Y16700500D03*
X14102500Y15750500D03*
X16377500Y15750500D03*
X16377500Y16700500D03*
X16377500Y17650500D03*
%TD*%
D31*
%TO.C,R27*%
X13843000Y20827500D03*
X13843000Y19177500D03*
%TD*%
D32*
%TO.C,C11*%
X21857000Y12890500D03*
X20307000Y12890500D03*
%TD*%
D21*
%TO.C,R31*%
X23558000Y20129500D03*
X21908000Y20129500D03*
%TD*%
%TO.C,R3*%
X17019000Y12921500D03*
X18669000Y12921500D03*
%TD*%
D33*
%TO.C,TP9*%
X20193000Y28384500D03*
%TD*%
D34*
%TO.C,H7*%
X45200000Y31617500D03*
%TD*%
D29*
%TO.C,R14*%
X10351000Y6921500D03*
X12001000Y6921500D03*
%TD*%
D24*
%TO.C,R11*%
X44069000Y26162500D03*
X44069000Y27812500D03*
%TD*%
D31*
%TO.C,R26*%
X28321000Y12953500D03*
X28321000Y11303500D03*
%TD*%
D35*
%TO.C,J5*%
X38608000Y17317500D03*
D36*
X43688000Y22397500D03*
D35*
X38608000Y19857500D03*
D36*
X43688000Y12237500D03*
%TD*%
D37*
%TO.C,J4*%
X8268000Y18585500D03*
X8268000Y19085500D03*
X8268000Y19585500D03*
X8268000Y20085500D03*
X8268000Y20585500D03*
X8268000Y21085500D03*
X8268000Y21585500D03*
X8268000Y22085500D03*
X8268000Y22585500D03*
X8268000Y23085500D03*
X8268000Y23585500D03*
X8268000Y24085500D03*
X8268000Y24585500D03*
X8268000Y25085500D03*
X8268000Y25585500D03*
X8268000Y26085500D03*
X8268000Y26585500D03*
D38*
X8268000Y27085500D03*
X8268000Y27585500D03*
D39*
X7318000Y16085500D03*
X7318000Y30585500D03*
X2418000Y31185500D03*
X2418000Y15485500D03*
%TD*%
D31*
%TO.C,R9*%
X18161000Y19938500D03*
X18161000Y18288500D03*
%TD*%
D27*
%TO.C,C9*%
X26924000Y19888500D03*
X26924000Y18338500D03*
%TD*%
D32*
%TO.C,C14*%
X24778000Y23685500D03*
X23228000Y23685500D03*
%TD*%
%TO.C,C15*%
X18047000Y27114500D03*
X16497000Y27114500D03*
%TD*%
D21*
%TO.C,R29*%
X25336000Y13525500D03*
X23686000Y13525500D03*
%TD*%
D27*
%TO.C,C13*%
X19558000Y7823500D03*
X19558000Y6273500D03*
%TD*%
D20*
%TO.C,U1*%
X19091250Y24955500D03*
X19091250Y24005500D03*
X19091250Y23055500D03*
X21366250Y23055500D03*
X21366250Y24955500D03*
%TD*%
D24*
%TO.C,R30*%
X31877000Y18288500D03*
X31877000Y19938500D03*
%TD*%
D34*
%TO.C,H2*%
X14100000Y3317500D03*
%TD*%
D31*
%TO.C,R1*%
X10668000Y29463500D03*
X10668000Y27813500D03*
%TD*%
D40*
%TO.C,H3*%
X45200000Y3317500D03*
%TD*%
D31*
%TO.C,R12*%
X33782000Y19938500D03*
X33782000Y18288500D03*
%TD*%
D28*
%TO.C,TP2*%
X20193000Y31686500D03*
%TD*%
D41*
%TO.C,FB1*%
X2843000Y11874500D03*
X5793000Y11874500D03*
%TD*%
D21*
%TO.C,R18*%
X12255000Y26098500D03*
X10605000Y26098500D03*
%TD*%
D32*
%TO.C,C21*%
X20460000Y16192500D03*
X18910000Y16192500D03*
%TD*%
%TO.C,C19*%
X26937000Y6921500D03*
X25387000Y6921500D03*
%TD*%
D27*
%TO.C,C12*%
X33782000Y23571500D03*
X33782000Y22021500D03*
%TD*%
D42*
%TO.C,RV1*%
X25779000Y30797500D03*
X30609000Y28257500D03*
X25779000Y25717500D03*
%TD*%
D25*
%TO.C,C4*%
X34785000Y6032500D03*
X36335000Y6032500D03*
%TD*%
D43*
%TO.C,C10*%
X20193000Y19100500D03*
X20193000Y20650500D03*
%TD*%
%TO.C,C3*%
X10795000Y14528500D03*
X10795000Y16078500D03*
%TD*%
D34*
%TO.C,H1*%
X14100000Y31617500D03*
%TD*%
D21*
%TO.C,R2*%
X12255000Y19748500D03*
X10605000Y19748500D03*
%TD*%
D32*
%TO.C,C5*%
X23127000Y8572500D03*
X21577000Y8572500D03*
%TD*%
D43*
%TO.C,C1*%
X13843000Y25958500D03*
X13843000Y27508500D03*
%TD*%
D27*
%TO.C,C47*%
X37084000Y29540500D03*
X37084000Y27990500D03*
%TD*%
D44*
%TO.C,J1*%
X4826000Y5905500D03*
D45*
X7375900Y3355600D03*
X2276100Y3355600D03*
X2276100Y8455400D03*
X7375900Y8455400D03*
%TD*%
M02*
