%TF.GenerationSoftware,KiCad,Pcbnew,(6.0.4-0)*%
%TF.CreationDate,2023-05-15T15:29:42-05:00*%
%TF.ProjectId,voltage_sense,766f6c74-6167-4655-9f73-656e73652e6b,rev?*%
%TF.SameCoordinates,Original*%
%TF.FileFunction,Copper,L3,Inr*%
%TF.FilePolarity,Positive*%
%FSLAX46Y46*%
G04 Gerber Fmt 4.6, Leading zero omitted, Abs format (unit mm)*
G04 Created by KiCad (PCBNEW (6.0.4-0)) date 2023-05-15 15:29:42*
%MOMM*%
%LPD*%
G01*
G04 APERTURE LIST*
%TA.AperFunction,ComponentPad*%
%ADD10R,1.700000X1.700000*%
%TD*%
%TA.AperFunction,ComponentPad*%
%ADD11O,1.700000X1.700000*%
%TD*%
%TA.AperFunction,ComponentPad*%
%ADD12C,2.000000*%
%TD*%
%TA.AperFunction,ComponentPad*%
%ADD13O,2.500000X1.600000*%
%TD*%
%TA.AperFunction,ComponentPad*%
%ADD14O,7.000000X3.500000*%
%TD*%
%TA.AperFunction,ComponentPad*%
%ADD15C,1.950000*%
%TD*%
%TA.AperFunction,ComponentPad*%
%ADD16C,4.400000*%
%TD*%
%TA.AperFunction,ComponentPad*%
%ADD17C,2.020000*%
%TD*%
%TA.AperFunction,ViaPad*%
%ADD18C,0.600000*%
%TD*%
%TA.AperFunction,Conductor*%
%ADD19C,0.127000*%
%TD*%
G04 APERTURE END LIST*
D10*
%TO.N,+5V*%
%TO.C,J2*%
X25999600Y3270100D03*
D11*
%TO.N,-15V*%
X23459600Y3270100D03*
%TO.N,+15V*%
X20919600Y3270100D03*
%TO.N,GND*%
X18379600Y3270100D03*
%TD*%
D10*
%TO.N,/vsense/CAL_ADC*%
%TO.C,J1*%
X13193000Y3270100D03*
D11*
%TO.N,GND*%
X10653000Y3270100D03*
%TO.N,/vsense/AMP_OUT*%
X8113000Y3270100D03*
%TD*%
D12*
%TO.N,GND*%
%TO.C,TP9*%
X30988000Y26225500D03*
%TD*%
D13*
%TO.N,Net-(U2-Pad3)*%
%TO.C,J5*%
X38501200Y14897100D03*
D14*
%TO.N,GND*%
X43581200Y19977100D03*
D13*
X38501200Y17437100D03*
D14*
X43581200Y9817100D03*
%TD*%
D15*
%TO.N,Net-(FB1-Pad1)*%
%TO.C,J4*%
X6860800Y7697900D03*
X1960800Y7097900D03*
X6860800Y22197900D03*
X1960800Y22797900D03*
%TD*%
D16*
%TO.N,Net-(R71-Pad1)*%
%TO.C,H3*%
X45212000Y3365500D03*
%TD*%
D17*
%TO.N,Net-(C1-Pad2)*%
%TO.C,TP2*%
X22860000Y26225500D03*
%TD*%
D18*
%TO.N,Net-(C19-Pad1)*%
X7044500Y25980900D03*
%TO.N,Net-(IC1-Pad6)*%
X16997000Y10660500D03*
%TO.N,Net-(R6-Pad1)*%
X24760800Y9117300D03*
%TO.N,/vsense/AMP_OUT*%
X10519600Y17277600D03*
%TO.N,+3V3*%
X26835400Y24692300D03*
X20557200Y16822700D03*
X7786100Y26817500D03*
%TO.N,/vsense/SDA*%
X27145300Y20883500D03*
X9497900Y17481100D03*
X17461000Y12907500D03*
%TO.N,Net-(R8-Pad2)*%
X21135900Y11986300D03*
%TO.N,Net-(C7-Pad2)*%
X29015900Y10612100D03*
X12014500Y15049500D03*
%TO.N,Net-(C7-Pad1)*%
X30407500Y9637600D03*
%TO.N,-15V*%
X32882800Y19617800D03*
X28860000Y2603500D03*
X21155600Y10948800D03*
X43180000Y24079700D03*
X9280900Y6142700D03*
X9213800Y16204500D03*
X21667200Y16571300D03*
X31059000Y16288000D03*
%TO.N,+15V*%
X26119800Y13651500D03*
X1001600Y24328600D03*
X40132000Y27366500D03*
X25183900Y12707700D03*
X33611100Y4434900D03*
X24669300Y18225900D03*
X29972000Y15679600D03*
X9194300Y14696700D03*
%TO.N,+5V*%
X12630000Y9556400D03*
X6452300Y18730300D03*
X23875800Y13143600D03*
X4813000Y27643500D03*
X4172600Y11069800D03*
X11297500Y24574800D03*
X12363200Y26952500D03*
%TO.N,GND*%
X13344100Y9239300D03*
X26877600Y7267500D03*
X6448500Y12322900D03*
X3660100Y25165600D03*
X7231000Y24839100D03*
X3377500Y2522400D03*
X10351000Y22299100D03*
X6458100Y10797900D03*
X27166300Y23487300D03*
X9281900Y7577300D03*
X1257000Y27614400D03*
X20181800Y24901800D03*
X19198700Y7706200D03*
X1765000Y10107900D03*
X6363000Y27610100D03*
X10230100Y26058700D03*
X21631300Y13206200D03*
X29063300Y12593800D03*
X29972000Y23189600D03*
X40263000Y5390400D03*
X40132000Y24072200D03*
X43180000Y27363900D03*
X26692000Y22691800D03*
X28893200Y27419700D03*
X29627600Y19551600D03*
X19129700Y10036200D03*
%TD*%
D19*
%TO.N,Net-(FB1-Pad1)*%
X8329800Y9166900D02*
X6860800Y7697900D01*
X8803600Y9166900D02*
X8329800Y9166900D01*
X10668000Y7302500D02*
X8803600Y9166900D01*
X10668000Y6096000D02*
X10668000Y7302500D01*
X7417900Y19578800D02*
X8691600Y19578800D01*
X5918200Y11658600D02*
X6832600Y11658600D01*
X5892800Y11684000D02*
X5918200Y11658600D01*
X5892800Y16141700D02*
X5892800Y11684000D01*
X7417900Y17666800D02*
X5892800Y16141700D01*
X7417900Y19578800D02*
X7417900Y17666800D01*
X8691600Y9278900D02*
X8691600Y19578800D01*
X8803600Y9166900D02*
X8691600Y9278900D01*
X8691600Y22843000D02*
X10646500Y24797900D01*
X8691600Y19578800D02*
X8691600Y22843000D01*
X7417900Y23887600D02*
X7417900Y21733200D01*
X6464300Y24841200D02*
X7417900Y23887600D01*
X7417900Y21733200D02*
X7417900Y19578800D01*
X7325500Y21733200D02*
X6860800Y22197900D01*
X7417900Y21733200D02*
X7325500Y21733200D01*
%TO.N,+3V3*%
X21478100Y15726400D02*
X22816900Y14387600D01*
X21478000Y15726400D02*
X21478100Y15726400D01*
X21478000Y15901900D02*
X21478000Y15726400D01*
X20557200Y16822700D02*
X21478000Y15901900D01*
X24750800Y16321500D02*
X22816900Y14387600D01*
X22809200Y14379900D02*
X22809200Y12255500D01*
X22816900Y14387600D02*
X22809200Y14379900D01*
%TO.N,Net-(C1-Pad2)*%
X31192000Y7443900D02*
X30820000Y7815900D01*
X31192000Y3359700D02*
X31192000Y7443900D01*
X22860000Y23754700D02*
X22860000Y26225500D01*
X25390400Y21224300D02*
X22860000Y23754700D01*
X25390400Y13245500D02*
X25390400Y21224300D01*
X30820000Y7815900D02*
X25390400Y13245500D01*
%TO.N,GND*%
X38501200Y17437100D02*
X38389500Y17325400D01*
X39090600Y16624300D02*
X38389500Y17325400D01*
X43865800Y16624300D02*
X39090600Y16624300D01*
X45415200Y15074900D02*
X43865800Y16624300D01*
X45948600Y15074900D02*
X45415200Y15074900D01*
X46888400Y14135100D02*
X45948600Y15074900D01*
X47989800Y14135100D02*
X46888400Y14135100D01*
X38389500Y17325400D02*
X38315900Y17399000D01*
X21631300Y13206200D02*
X21750600Y13206200D01*
X21750600Y13206200D02*
X21597000Y13359800D01*
X22148200Y12808600D02*
X21750600Y13206200D01*
X22148200Y11863200D02*
X22148200Y12808600D01*
X21709100Y11424100D02*
X22148200Y11863200D01*
X21709100Y10436000D02*
X21709100Y11424100D01*
X22148200Y9996900D02*
X21709100Y10436000D01*
%TD*%
%TA.AperFunction,Conductor*%
%TO.N,+5V*%
G36*
X5829959Y28042998D02*
G01*
X5876452Y27989342D01*
X5886556Y27919068D01*
X5878247Y27888781D01*
X5822772Y27754854D01*
X5821695Y27746670D01*
X5821694Y27746668D01*
X5809322Y27652693D01*
X5803715Y27610100D01*
X5804793Y27601912D01*
X5821617Y27474122D01*
X5822772Y27465346D01*
X5825931Y27457720D01*
X5866903Y27358806D01*
X5878645Y27330458D01*
X5892101Y27312922D01*
X5962063Y27221746D01*
X5967526Y27214626D01*
X5974076Y27209600D01*
X5974079Y27209597D01*
X6073241Y27133507D01*
X6083357Y27125745D01*
X6218246Y27069872D01*
X6226434Y27068794D01*
X6290623Y27060344D01*
X6363000Y27050815D01*
X6371188Y27051893D01*
X6499566Y27068794D01*
X6507754Y27069872D01*
X6642643Y27125745D01*
X6652759Y27133507D01*
X6751921Y27209597D01*
X6751924Y27209600D01*
X6758474Y27214626D01*
X6763938Y27221746D01*
X6833899Y27312922D01*
X6847355Y27330458D01*
X6859098Y27358806D01*
X6900069Y27457720D01*
X6903228Y27465346D01*
X6904384Y27474122D01*
X6921207Y27601912D01*
X6922285Y27610100D01*
X6916678Y27652693D01*
X6904306Y27746668D01*
X6904305Y27746670D01*
X6903228Y27754854D01*
X6847753Y27888781D01*
X6840164Y27959371D01*
X6871943Y28022858D01*
X6933001Y28059086D01*
X6964162Y28063000D01*
X28449514Y28063000D01*
X28517635Y28042998D01*
X28564128Y27989342D01*
X28574232Y27919068D01*
X28544738Y27854488D01*
X28526219Y27837038D01*
X28526218Y27837037D01*
X28497726Y27815174D01*
X28408845Y27699342D01*
X28405686Y27691716D01*
X28405685Y27691714D01*
X28385732Y27643542D01*
X28352972Y27564454D01*
X28333915Y27419700D01*
X28335344Y27408847D01*
X28347251Y27318405D01*
X28352972Y27274946D01*
X28356131Y27267320D01*
X28386778Y27193333D01*
X28408845Y27140058D01*
X28413872Y27133507D01*
X28488002Y27036899D01*
X28497726Y27024226D01*
X28504276Y27019200D01*
X28504279Y27019197D01*
X28607004Y26940373D01*
X28613557Y26935345D01*
X28748446Y26879472D01*
X28893200Y26860415D01*
X28901388Y26861493D01*
X29029766Y26878394D01*
X29037954Y26879472D01*
X29172843Y26935345D01*
X29179396Y26940373D01*
X29282121Y27019197D01*
X29282124Y27019200D01*
X29288674Y27024226D01*
X29298399Y27036899D01*
X29372528Y27133507D01*
X29377555Y27140058D01*
X29399623Y27193333D01*
X29430269Y27267320D01*
X29433428Y27274946D01*
X29439150Y27318405D01*
X29451056Y27408847D01*
X29452485Y27419700D01*
X29433428Y27564454D01*
X29400668Y27643542D01*
X29380715Y27691714D01*
X29380714Y27691716D01*
X29377555Y27699342D01*
X29329108Y27762480D01*
X29293701Y27808623D01*
X29293700Y27808624D01*
X29288674Y27815174D01*
X29260179Y27837039D01*
X29218313Y27894377D01*
X29214092Y27965248D01*
X29248857Y28027150D01*
X29311570Y28060431D01*
X29336885Y28063000D01*
X39757646Y28063000D01*
X39825767Y28042998D01*
X39872260Y27989342D01*
X39882364Y27919068D01*
X39852870Y27854488D01*
X39834351Y27837038D01*
X39736526Y27761974D01*
X39647645Y27646142D01*
X39644486Y27638516D01*
X39644485Y27638514D01*
X39636107Y27618288D01*
X39591772Y27511254D01*
X39590695Y27503070D01*
X39590694Y27503068D01*
X39585728Y27465346D01*
X39572715Y27366500D01*
X39573793Y27358312D01*
X39581888Y27296827D01*
X39591772Y27221746D01*
X39594931Y27214120D01*
X39640672Y27103693D01*
X39647645Y27086858D01*
X39684480Y27038854D01*
X39729556Y26980110D01*
X39736526Y26971026D01*
X39743076Y26966000D01*
X39743079Y26965997D01*
X39831573Y26898093D01*
X39852357Y26882145D01*
X39987246Y26826272D01*
X39995434Y26825194D01*
X40051788Y26817775D01*
X40132000Y26807215D01*
X40140188Y26808293D01*
X40268566Y26825194D01*
X40276754Y26826272D01*
X40411643Y26882145D01*
X40432427Y26898093D01*
X40520921Y26965997D01*
X40520924Y26966000D01*
X40527474Y26971026D01*
X40534445Y26980110D01*
X40579520Y27038854D01*
X40616355Y27086858D01*
X40623329Y27103693D01*
X40669069Y27214120D01*
X40672228Y27221746D01*
X40682113Y27296827D01*
X40690207Y27358312D01*
X40691285Y27366500D01*
X40678272Y27465346D01*
X40673306Y27503068D01*
X40673305Y27503070D01*
X40672228Y27511254D01*
X40627893Y27618288D01*
X40619515Y27638514D01*
X40619514Y27638516D01*
X40616355Y27646142D01*
X40534492Y27752828D01*
X40532501Y27755423D01*
X40532500Y27755424D01*
X40527474Y27761974D01*
X40429648Y27837039D01*
X40387782Y27894376D01*
X40383561Y27965247D01*
X40418326Y28027150D01*
X40481039Y28060431D01*
X40506354Y28063000D01*
X42809034Y28063000D01*
X42877155Y28042998D01*
X42923648Y27989342D01*
X42933752Y27919068D01*
X42904258Y27854488D01*
X42885738Y27837038D01*
X42791076Y27764401D01*
X42791072Y27764397D01*
X42784526Y27759374D01*
X42695645Y27643542D01*
X42692486Y27635916D01*
X42692485Y27635914D01*
X42680182Y27606212D01*
X42639772Y27508654D01*
X42638695Y27500470D01*
X42638694Y27500468D01*
X42628061Y27419700D01*
X42620715Y27363900D01*
X42639772Y27219146D01*
X42645040Y27206428D01*
X42687595Y27103693D01*
X42695645Y27084258D01*
X42704259Y27073032D01*
X42777685Y26977342D01*
X42784526Y26968426D01*
X42791076Y26963400D01*
X42791079Y26963397D01*
X42890416Y26887173D01*
X42900357Y26879545D01*
X43035246Y26823672D01*
X43043434Y26822594D01*
X43092572Y26816125D01*
X43180000Y26804615D01*
X43188188Y26805693D01*
X43207938Y26808293D01*
X43267428Y26816125D01*
X43316566Y26822594D01*
X43324754Y26823672D01*
X43459643Y26879545D01*
X43469584Y26887173D01*
X43568921Y26963397D01*
X43568924Y26963400D01*
X43575474Y26968426D01*
X43582316Y26977342D01*
X43655741Y27073032D01*
X43664355Y27084258D01*
X43672406Y27103693D01*
X43714960Y27206428D01*
X43720228Y27219146D01*
X43739285Y27363900D01*
X43731939Y27419700D01*
X43721306Y27500468D01*
X43721305Y27500470D01*
X43720228Y27508654D01*
X43679818Y27606212D01*
X43667515Y27635914D01*
X43667514Y27635916D01*
X43664355Y27643542D01*
X43575474Y27759374D01*
X43568923Y27764401D01*
X43568921Y27764403D01*
X43474261Y27837038D01*
X43432394Y27894376D01*
X43428172Y27965247D01*
X43462936Y28027150D01*
X43525649Y28060431D01*
X43550965Y28063000D01*
X47619500Y28063000D01*
X47687621Y28042998D01*
X47734114Y27989342D01*
X47745500Y27937000D01*
X47745500Y14579100D01*
X47725498Y14510979D01*
X47671842Y14464486D01*
X47619500Y14453100D01*
X47072310Y14453100D01*
X47004189Y14473102D01*
X46983215Y14490005D01*
X46187169Y15286051D01*
X46179743Y15294155D01*
X46163248Y15313813D01*
X46156160Y15322260D01*
X46146615Y15327771D01*
X46146611Y15327774D01*
X46124390Y15340603D01*
X46115120Y15346508D01*
X46094096Y15361229D01*
X46085066Y15367552D01*
X46074414Y15370406D01*
X46071553Y15371740D01*
X46068587Y15372819D01*
X46059040Y15378332D01*
X46048184Y15380246D01*
X46048179Y15380248D01*
X46022910Y15384704D01*
X46012181Y15387082D01*
X45988678Y15393379D01*
X45976743Y15396577D01*
X45944122Y15393723D01*
X45940190Y15393379D01*
X45929208Y15392900D01*
X45599109Y15392900D01*
X45530988Y15412902D01*
X45510014Y15429805D01*
X44823506Y16116314D01*
X44104369Y16835451D01*
X44096943Y16843555D01*
X44080448Y16863213D01*
X44073360Y16871660D01*
X44063815Y16877171D01*
X44063811Y16877174D01*
X44041590Y16890003D01*
X44032320Y16895908D01*
X44011296Y16910629D01*
X44002266Y16916952D01*
X43991614Y16919806D01*
X43988753Y16921140D01*
X43985787Y16922219D01*
X43976240Y16927732D01*
X43965384Y16929646D01*
X43965379Y16929648D01*
X43940110Y16934104D01*
X43929381Y16936482D01*
X43904594Y16943123D01*
X43893943Y16945977D01*
X43861322Y16943123D01*
X43857390Y16942779D01*
X43846408Y16942300D01*
X40072850Y16942300D01*
X40004729Y16962302D01*
X39958236Y17015958D01*
X39948132Y17086232D01*
X39952485Y17105559D01*
X39978067Y17188203D01*
X39989160Y17224037D01*
X39997357Y17302028D01*
X40010132Y17423574D01*
X40010132Y17423576D01*
X40010776Y17429703D01*
X39994904Y17604110D01*
X39992593Y17629509D01*
X39992593Y17629510D01*
X39992034Y17635650D01*
X39933646Y17834034D01*
X39911407Y17876574D01*
X39840692Y18011839D01*
X39840689Y18011843D01*
X39837837Y18017299D01*
X39832289Y18024200D01*
X39714471Y18170736D01*
X39708257Y18178465D01*
X39549840Y18311392D01*
X39368622Y18411018D01*
X39171504Y18473547D01*
X39165387Y18474233D01*
X39165383Y18474234D01*
X39089363Y18482761D01*
X39010560Y18491600D01*
X37999166Y18491600D01*
X37845389Y18476522D01*
X37647417Y18416751D01*
X37575064Y18378280D01*
X37470267Y18322559D01*
X37470264Y18322557D01*
X37464825Y18319665D01*
X37460055Y18315774D01*
X37460051Y18315772D01*
X37309343Y18192858D01*
X37309340Y18192855D01*
X37304568Y18188963D01*
X37300641Y18184216D01*
X37300639Y18184214D01*
X37176678Y18034371D01*
X37176675Y18034366D01*
X37172750Y18029622D01*
X37169820Y18024203D01*
X37169818Y18024200D01*
X37077322Y17853132D01*
X37077320Y17853127D01*
X37074392Y17847712D01*
X37013240Y17650163D01*
X37012596Y17644038D01*
X37012596Y17644037D01*
X36992429Y17452152D01*
X36991624Y17444497D01*
X37010366Y17238550D01*
X37068754Y17040166D01*
X37071611Y17034701D01*
X37161708Y16862361D01*
X37161711Y16862357D01*
X37164563Y16856901D01*
X37168423Y16852101D01*
X37168423Y16852100D01*
X37181809Y16835451D01*
X37294143Y16695735D01*
X37452560Y16562808D01*
X37633778Y16463182D01*
X37830896Y16400653D01*
X37837013Y16399967D01*
X37837017Y16399966D01*
X37913037Y16391439D01*
X37991840Y16382600D01*
X38839475Y16382600D01*
X38902477Y16365718D01*
X38911265Y16360644D01*
X38914813Y16358596D01*
X38924080Y16352692D01*
X38928990Y16349254D01*
X38954134Y16331648D01*
X38964786Y16328794D01*
X38967647Y16327460D01*
X38970613Y16326381D01*
X38980160Y16320868D01*
X38991016Y16318954D01*
X38991021Y16318952D01*
X39016290Y16314496D01*
X39027019Y16312118D01*
X39048734Y16306300D01*
X39062457Y16302623D01*
X39099010Y16305821D01*
X39109992Y16306300D01*
X43681890Y16306300D01*
X43750011Y16286298D01*
X43770985Y16269395D01*
X45176626Y14863755D01*
X45184052Y14855651D01*
X45199434Y14837320D01*
X45207640Y14827540D01*
X45239413Y14809196D01*
X45248681Y14803291D01*
X45269701Y14788573D01*
X45269705Y14788571D01*
X45278734Y14782249D01*
X45289379Y14779396D01*
X45292251Y14778057D01*
X45295217Y14776977D01*
X45304760Y14771468D01*
X45315609Y14769555D01*
X45315617Y14769552D01*
X45340894Y14765095D01*
X45351622Y14762717D01*
X45376405Y14756077D01*
X45376406Y14756077D01*
X45387057Y14753223D01*
X45423610Y14756421D01*
X45434592Y14756900D01*
X45764690Y14756900D01*
X45832811Y14736898D01*
X45853785Y14719995D01*
X46649831Y13923949D01*
X46657257Y13915845D01*
X46680840Y13887740D01*
X46690385Y13882229D01*
X46690389Y13882226D01*
X46712610Y13869397D01*
X46721880Y13863492D01*
X46751934Y13842448D01*
X46762586Y13839594D01*
X46765447Y13838260D01*
X46768413Y13837181D01*
X46777960Y13831668D01*
X46788816Y13829754D01*
X46788821Y13829752D01*
X46814090Y13825296D01*
X46824819Y13822918D01*
X46846534Y13817100D01*
X46860257Y13813423D01*
X46896810Y13816621D01*
X46907792Y13817100D01*
X47619500Y13817100D01*
X47687621Y13797098D01*
X47734114Y13743442D01*
X47745500Y13691100D01*
X47745500Y4306651D01*
X47725498Y4238530D01*
X47671842Y4192037D01*
X47601568Y4181933D01*
X47536988Y4211427D01*
X47502277Y4263777D01*
X47501329Y4263402D01*
X47499875Y4267074D01*
X47498649Y4270848D01*
X47367147Y4550302D01*
X47352474Y4573424D01*
X47203780Y4807727D01*
X47201658Y4811071D01*
X47004791Y5049043D01*
X46779651Y5260464D01*
X46776447Y5262792D01*
X46532996Y5439669D01*
X46532991Y5439672D01*
X46529787Y5442000D01*
X46346470Y5542780D01*
X46262604Y5588886D01*
X46262601Y5588888D01*
X46259142Y5590789D01*
X45971982Y5704484D01*
X45672837Y5781291D01*
X45366424Y5820000D01*
X45057576Y5820000D01*
X44751163Y5781291D01*
X44452018Y5704484D01*
X44164858Y5590789D01*
X44161399Y5588888D01*
X44161396Y5588886D01*
X44077530Y5542780D01*
X43894213Y5442000D01*
X43891009Y5439672D01*
X43891004Y5439669D01*
X43647553Y5262792D01*
X43644349Y5260464D01*
X43419209Y5049043D01*
X43222342Y4811071D01*
X43220220Y4807727D01*
X43071527Y4573424D01*
X43056853Y4550302D01*
X42925351Y4270848D01*
X42829912Y3977116D01*
X42772040Y3673739D01*
X42752647Y3365500D01*
X42772040Y3057261D01*
X42829912Y2753884D01*
X42925351Y2460152D01*
X43056853Y2180698D01*
X43222342Y1919929D01*
X43419209Y1681957D01*
X43644349Y1470536D01*
X43647551Y1468209D01*
X43647553Y1468208D01*
X43891004Y1291331D01*
X43891009Y1291328D01*
X43894213Y1289000D01*
X44164858Y1140211D01*
X44345595Y1068652D01*
X44401569Y1024977D01*
X44425045Y957974D01*
X44408569Y888916D01*
X44357374Y839727D01*
X44299211Y825500D01*
X1180100Y825500D01*
X1111979Y845502D01*
X1065486Y899158D01*
X1054100Y951500D01*
X1054100Y2522400D01*
X2818215Y2522400D01*
X2819293Y2514212D01*
X2831124Y2424349D01*
X2837272Y2377646D01*
X2840431Y2370020D01*
X2887343Y2256766D01*
X2893145Y2242758D01*
X2935729Y2187262D01*
X2942879Y2177944D01*
X2982026Y2126926D01*
X2988576Y2121900D01*
X2988579Y2121897D01*
X3088411Y2045293D01*
X3097857Y2038045D01*
X3232746Y1982172D01*
X3377500Y1963115D01*
X3385688Y1964193D01*
X3514066Y1981094D01*
X3522254Y1982172D01*
X3657143Y2038045D01*
X3666589Y2045293D01*
X3766421Y2121897D01*
X3766424Y2121900D01*
X3772974Y2126926D01*
X3812122Y2177944D01*
X3819271Y2187262D01*
X3861855Y2242758D01*
X3867658Y2256766D01*
X3914569Y2370020D01*
X3917728Y2377646D01*
X3923877Y2424349D01*
X3935707Y2514212D01*
X3936785Y2522400D01*
X3917728Y2667154D01*
X3880187Y2757785D01*
X3865015Y2794414D01*
X3865014Y2794416D01*
X3861855Y2802042D01*
X3772974Y2917874D01*
X3766424Y2922900D01*
X3766421Y2922903D01*
X3663696Y3001727D01*
X3663694Y3001728D01*
X3657143Y3006755D01*
X3522254Y3062628D01*
X3377500Y3081685D01*
X3369312Y3080607D01*
X3240932Y3063706D01*
X3240930Y3063705D01*
X3232746Y3062628D01*
X3219789Y3057261D01*
X3105486Y3009915D01*
X3105484Y3009914D01*
X3097858Y3006755D01*
X2982026Y2917874D01*
X2893145Y2802042D01*
X2889986Y2794416D01*
X2889985Y2794414D01*
X2874813Y2757785D01*
X2837272Y2667154D01*
X2818215Y2522400D01*
X1054100Y2522400D01*
X1054100Y3299136D01*
X7004148Y3299136D01*
X7017424Y3096578D01*
X7018845Y3090982D01*
X7018846Y3090977D01*
X7043875Y2992428D01*
X7067392Y2899831D01*
X7069809Y2894588D01*
X7107010Y2813892D01*
X7152377Y2715484D01*
X7155710Y2710768D01*
X7237306Y2595312D01*
X7269533Y2549711D01*
X7414938Y2408065D01*
X7419742Y2404855D01*
X7471876Y2370020D01*
X7583720Y2295288D01*
X7589023Y2293010D01*
X7589026Y2293008D01*
X7705987Y2242758D01*
X7770228Y2215158D01*
X7823972Y2202997D01*
X7962579Y2171633D01*
X7962584Y2171632D01*
X7968216Y2170358D01*
X7973987Y2170131D01*
X7973989Y2170131D01*
X8033756Y2167783D01*
X8171053Y2162388D01*
X8278348Y2177945D01*
X8366231Y2190687D01*
X8366236Y2190688D01*
X8371945Y2191516D01*
X8377409Y2193371D01*
X8377414Y2193372D01*
X8558693Y2254908D01*
X8558698Y2254910D01*
X8564165Y2256766D01*
X8741276Y2355953D01*
X8756495Y2368610D01*
X8892913Y2482069D01*
X8897345Y2485755D01*
X9027147Y2641824D01*
X9089904Y2753884D01*
X9123510Y2813892D01*
X9123511Y2813894D01*
X9126334Y2818935D01*
X9128190Y2824402D01*
X9128192Y2824407D01*
X9189728Y3005686D01*
X9189729Y3005691D01*
X9191584Y3011155D01*
X9192412Y3016864D01*
X9192413Y3016869D01*
X9210806Y3143728D01*
X9220712Y3212047D01*
X9222232Y3270100D01*
X9219564Y3299136D01*
X9544148Y3299136D01*
X9557424Y3096578D01*
X9558845Y3090982D01*
X9558846Y3090977D01*
X9583875Y2992428D01*
X9607392Y2899831D01*
X9609809Y2894588D01*
X9647010Y2813892D01*
X9692377Y2715484D01*
X9695710Y2710768D01*
X9777306Y2595312D01*
X9809533Y2549711D01*
X9954938Y2408065D01*
X9959742Y2404855D01*
X10011876Y2370020D01*
X10123720Y2295288D01*
X10129023Y2293010D01*
X10129026Y2293008D01*
X10245987Y2242758D01*
X10310228Y2215158D01*
X10363972Y2202997D01*
X10502579Y2171633D01*
X10502584Y2171632D01*
X10508216Y2170358D01*
X10513987Y2170131D01*
X10513989Y2170131D01*
X10573756Y2167783D01*
X10711053Y2162388D01*
X10818348Y2177945D01*
X10906231Y2190687D01*
X10906236Y2190688D01*
X10911945Y2191516D01*
X10917409Y2193371D01*
X10917414Y2193372D01*
X11098693Y2254908D01*
X11098698Y2254910D01*
X11104165Y2256766D01*
X11281276Y2355953D01*
X11296495Y2368610D01*
X11432913Y2482069D01*
X11437345Y2485755D01*
X11567147Y2641824D01*
X11629904Y2753884D01*
X11663510Y2813892D01*
X11663511Y2813894D01*
X11666334Y2818935D01*
X11668190Y2824402D01*
X11668192Y2824407D01*
X11729728Y3005686D01*
X11729729Y3005691D01*
X11731584Y3011155D01*
X11732412Y3016864D01*
X11732413Y3016869D01*
X11750806Y3143728D01*
X11760712Y3212047D01*
X11762232Y3270100D01*
X11743658Y3472241D01*
X11742090Y3477801D01*
X11690125Y3662054D01*
X11690124Y3662056D01*
X11688557Y3667613D01*
X11677978Y3689067D01*
X11601331Y3844491D01*
X11598776Y3849672D01*
X11477320Y4012321D01*
X11333609Y4145167D01*
X12088500Y4145167D01*
X12088501Y2395034D01*
X12103266Y2320799D01*
X12110161Y2310480D01*
X12110162Y2310478D01*
X12150315Y2250386D01*
X12159516Y2236616D01*
X12243699Y2180366D01*
X12317933Y2165600D01*
X13192858Y2165600D01*
X14068066Y2165601D01*
X14103818Y2172712D01*
X14130126Y2177944D01*
X14130128Y2177945D01*
X14142301Y2180366D01*
X14152621Y2187261D01*
X14152622Y2187262D01*
X14216168Y2229723D01*
X14226484Y2236616D01*
X14282734Y2320799D01*
X14297500Y2395033D01*
X14297499Y3299136D01*
X17270748Y3299136D01*
X17284024Y3096578D01*
X17285445Y3090982D01*
X17285446Y3090977D01*
X17310475Y2992428D01*
X17333992Y2899831D01*
X17336409Y2894588D01*
X17373610Y2813892D01*
X17418977Y2715484D01*
X17422310Y2710768D01*
X17503906Y2595312D01*
X17536133Y2549711D01*
X17681538Y2408065D01*
X17686342Y2404855D01*
X17738476Y2370020D01*
X17850320Y2295288D01*
X17855623Y2293010D01*
X17855626Y2293008D01*
X17972587Y2242758D01*
X18036828Y2215158D01*
X18090572Y2202997D01*
X18229179Y2171633D01*
X18229184Y2171632D01*
X18234816Y2170358D01*
X18240587Y2170131D01*
X18240589Y2170131D01*
X18300356Y2167783D01*
X18437653Y2162388D01*
X18544948Y2177945D01*
X18632831Y2190687D01*
X18632836Y2190688D01*
X18638545Y2191516D01*
X18644009Y2193371D01*
X18644014Y2193372D01*
X18825293Y2254908D01*
X18825298Y2254910D01*
X18830765Y2256766D01*
X19007876Y2355953D01*
X19023095Y2368610D01*
X19159513Y2482069D01*
X19163945Y2485755D01*
X19293747Y2641824D01*
X19356504Y2753884D01*
X19390110Y2813892D01*
X19390111Y2813894D01*
X19392934Y2818935D01*
X19394790Y2824402D01*
X19394792Y2824407D01*
X19456328Y3005686D01*
X19456329Y3005691D01*
X19458184Y3011155D01*
X19459012Y3016864D01*
X19459013Y3016869D01*
X19477406Y3143728D01*
X19487312Y3212047D01*
X19488832Y3270100D01*
X19486164Y3299136D01*
X19810748Y3299136D01*
X19824024Y3096578D01*
X19825445Y3090982D01*
X19825446Y3090977D01*
X19850475Y2992428D01*
X19873992Y2899831D01*
X19876409Y2894588D01*
X19913610Y2813892D01*
X19958977Y2715484D01*
X19962310Y2710768D01*
X20043906Y2595312D01*
X20076133Y2549711D01*
X20221538Y2408065D01*
X20226342Y2404855D01*
X20278476Y2370020D01*
X20390320Y2295288D01*
X20395623Y2293010D01*
X20395626Y2293008D01*
X20512587Y2242758D01*
X20576828Y2215158D01*
X20630572Y2202997D01*
X20769179Y2171633D01*
X20769184Y2171632D01*
X20774816Y2170358D01*
X20780587Y2170131D01*
X20780589Y2170131D01*
X20840356Y2167783D01*
X20977653Y2162388D01*
X21084948Y2177945D01*
X21172831Y2190687D01*
X21172836Y2190688D01*
X21178545Y2191516D01*
X21184009Y2193371D01*
X21184014Y2193372D01*
X21365293Y2254908D01*
X21365298Y2254910D01*
X21370765Y2256766D01*
X21547876Y2355953D01*
X21563095Y2368610D01*
X21699513Y2482069D01*
X21703945Y2485755D01*
X21833747Y2641824D01*
X21896504Y2753884D01*
X21930110Y2813892D01*
X21930111Y2813894D01*
X21932934Y2818935D01*
X21934790Y2824402D01*
X21934792Y2824407D01*
X21996328Y3005686D01*
X21996329Y3005691D01*
X21998184Y3011155D01*
X21999012Y3016864D01*
X21999013Y3016869D01*
X22017406Y3143728D01*
X22027312Y3212047D01*
X22028832Y3270100D01*
X22026164Y3299136D01*
X22350748Y3299136D01*
X22364024Y3096578D01*
X22365445Y3090982D01*
X22365446Y3090977D01*
X22390475Y2992428D01*
X22413992Y2899831D01*
X22416409Y2894588D01*
X22453610Y2813892D01*
X22498977Y2715484D01*
X22502310Y2710768D01*
X22583906Y2595312D01*
X22616133Y2549711D01*
X22761538Y2408065D01*
X22766342Y2404855D01*
X22818476Y2370020D01*
X22930320Y2295288D01*
X22935623Y2293010D01*
X22935626Y2293008D01*
X23052587Y2242758D01*
X23116828Y2215158D01*
X23170572Y2202997D01*
X23309179Y2171633D01*
X23309184Y2171632D01*
X23314816Y2170358D01*
X23320587Y2170131D01*
X23320589Y2170131D01*
X23380356Y2167783D01*
X23517653Y2162388D01*
X23624948Y2177945D01*
X23712831Y2190687D01*
X23712836Y2190688D01*
X23718545Y2191516D01*
X23724009Y2193371D01*
X23724014Y2193372D01*
X23905293Y2254908D01*
X23905298Y2254910D01*
X23910765Y2256766D01*
X24087876Y2355953D01*
X24103095Y2368610D01*
X24239513Y2482069D01*
X24243945Y2485755D01*
X24373747Y2641824D01*
X24376569Y2646864D01*
X24376573Y2646869D01*
X24405667Y2698821D01*
X24456404Y2748483D01*
X24525935Y2762830D01*
X24592186Y2737309D01*
X24634122Y2680020D01*
X24641601Y2637255D01*
X24641601Y2375431D01*
X24641971Y2368610D01*
X24647495Y2317748D01*
X24651121Y2302496D01*
X24696276Y2182046D01*
X24704814Y2166451D01*
X24781315Y2064376D01*
X24793876Y2051815D01*
X24895951Y1975314D01*
X24911546Y1966776D01*
X25031994Y1921622D01*
X25047249Y1917995D01*
X25098114Y1912469D01*
X25104928Y1912100D01*
X25727485Y1912100D01*
X25742724Y1916575D01*
X25743929Y1917965D01*
X25745600Y1925648D01*
X25745600Y1930216D01*
X26253600Y1930216D01*
X26258075Y1914977D01*
X26259465Y1913772D01*
X26267148Y1912101D01*
X26894269Y1912101D01*
X26901090Y1912471D01*
X26951952Y1917995D01*
X26967204Y1921621D01*
X27087654Y1966776D01*
X27103249Y1975314D01*
X27205324Y2051815D01*
X27217885Y2064376D01*
X27294386Y2166451D01*
X27302924Y2182046D01*
X27348078Y2302494D01*
X27351705Y2317749D01*
X27357231Y2368614D01*
X27357600Y2375428D01*
X27357600Y2603500D01*
X28300715Y2603500D01*
X28301793Y2595312D01*
X28318607Y2467598D01*
X28319772Y2458746D01*
X28322931Y2451120D01*
X28371870Y2332972D01*
X28375645Y2323858D01*
X28464526Y2208026D01*
X28471076Y2203000D01*
X28471079Y2202997D01*
X28573804Y2124173D01*
X28580357Y2119145D01*
X28715246Y2063272D01*
X28860000Y2044215D01*
X28868188Y2045293D01*
X28996566Y2062194D01*
X29004754Y2063272D01*
X29139643Y2119145D01*
X29146196Y2124173D01*
X29248921Y2202997D01*
X29248924Y2203000D01*
X29255474Y2208026D01*
X29344355Y2323858D01*
X29348131Y2332972D01*
X29397069Y2451120D01*
X29400228Y2458746D01*
X29401394Y2467598D01*
X29418207Y2595312D01*
X29419285Y2603500D01*
X29400228Y2748254D01*
X29344355Y2883142D01*
X29255474Y2998974D01*
X29248924Y3004000D01*
X29248921Y3004003D01*
X29146196Y3082827D01*
X29146194Y3082828D01*
X29139643Y3087855D01*
X29004754Y3143728D01*
X28860000Y3162785D01*
X28851812Y3161707D01*
X28723432Y3144806D01*
X28723430Y3144805D01*
X28715246Y3143728D01*
X28667430Y3123922D01*
X28587986Y3091015D01*
X28587984Y3091014D01*
X28580358Y3087855D01*
X28464526Y2998974D01*
X28375645Y2883142D01*
X28319772Y2748254D01*
X28300715Y2603500D01*
X27357600Y2603500D01*
X27357600Y2997985D01*
X27353125Y3013224D01*
X27351735Y3014429D01*
X27344052Y3016100D01*
X26271715Y3016100D01*
X26256476Y3011625D01*
X26255271Y3010235D01*
X26253600Y3002552D01*
X26253600Y1930216D01*
X25745600Y1930216D01*
X25745600Y3542215D01*
X26253600Y3542215D01*
X26258075Y3526976D01*
X26259465Y3525771D01*
X26267148Y3524100D01*
X27339484Y3524100D01*
X27354723Y3528575D01*
X27355928Y3529965D01*
X27357599Y3537648D01*
X27357599Y4164769D01*
X27357229Y4171590D01*
X27351705Y4222452D01*
X27348079Y4237704D01*
X27302924Y4358154D01*
X27294386Y4373749D01*
X27217885Y4475824D01*
X27205324Y4488385D01*
X27103249Y4564886D01*
X27087654Y4573424D01*
X26967206Y4618578D01*
X26951951Y4622205D01*
X26901086Y4627731D01*
X26894272Y4628100D01*
X26271715Y4628100D01*
X26256476Y4623625D01*
X26255271Y4622235D01*
X26253600Y4614552D01*
X26253600Y3542215D01*
X25745600Y3542215D01*
X25745600Y4609984D01*
X25741125Y4625223D01*
X25739735Y4626428D01*
X25732052Y4628099D01*
X25104931Y4628099D01*
X25098110Y4627729D01*
X25047248Y4622205D01*
X25031996Y4618579D01*
X24911546Y4573424D01*
X24895951Y4564886D01*
X24793876Y4488385D01*
X24781315Y4475824D01*
X24704814Y4373749D01*
X24696276Y4358154D01*
X24651122Y4237706D01*
X24647495Y4222451D01*
X24641969Y4171586D01*
X24641600Y4164772D01*
X24641600Y3909940D01*
X24621598Y3841819D01*
X24567942Y3795326D01*
X24497668Y3785222D01*
X24433088Y3814716D01*
X24408167Y3844106D01*
X24407931Y3844492D01*
X24405376Y3849672D01*
X24283920Y4012321D01*
X24134858Y4150113D01*
X24129975Y4153194D01*
X24129971Y4153197D01*
X23968064Y4255352D01*
X23963181Y4258433D01*
X23774639Y4333654D01*
X23768979Y4334780D01*
X23768975Y4334781D01*
X23581213Y4372129D01*
X23581210Y4372129D01*
X23575546Y4373256D01*
X23569771Y4373332D01*
X23569767Y4373332D01*
X23468393Y4374659D01*
X23372571Y4375913D01*
X23366874Y4374934D01*
X23366873Y4374934D01*
X23278997Y4359834D01*
X23172510Y4341536D01*
X22982063Y4271276D01*
X22807610Y4167488D01*
X22803270Y4163682D01*
X22803266Y4163679D01*
X22669054Y4045977D01*
X22654992Y4033645D01*
X22529320Y3874231D01*
X22526631Y3869120D01*
X22526629Y3869117D01*
X22513673Y3844491D01*
X22434803Y3694585D01*
X22374607Y3500722D01*
X22350748Y3299136D01*
X22026164Y3299136D01*
X22010258Y3472241D01*
X22008690Y3477801D01*
X21956725Y3662054D01*
X21956724Y3662056D01*
X21955157Y3667613D01*
X21944578Y3689067D01*
X21867931Y3844491D01*
X21865376Y3849672D01*
X21743920Y4012321D01*
X21594858Y4150113D01*
X21589975Y4153194D01*
X21589971Y4153197D01*
X21428064Y4255352D01*
X21423181Y4258433D01*
X21234639Y4333654D01*
X21228979Y4334780D01*
X21228975Y4334781D01*
X21041213Y4372129D01*
X21041210Y4372129D01*
X21035546Y4373256D01*
X21029771Y4373332D01*
X21029767Y4373332D01*
X20928393Y4374659D01*
X20832571Y4375913D01*
X20826874Y4374934D01*
X20826873Y4374934D01*
X20738997Y4359834D01*
X20632510Y4341536D01*
X20442063Y4271276D01*
X20267610Y4167488D01*
X20263270Y4163682D01*
X20263266Y4163679D01*
X20129054Y4045977D01*
X20114992Y4033645D01*
X19989320Y3874231D01*
X19986631Y3869120D01*
X19986629Y3869117D01*
X19973673Y3844491D01*
X19894803Y3694585D01*
X19834607Y3500722D01*
X19810748Y3299136D01*
X19486164Y3299136D01*
X19470258Y3472241D01*
X19468690Y3477801D01*
X19416725Y3662054D01*
X19416724Y3662056D01*
X19415157Y3667613D01*
X19404578Y3689067D01*
X19327931Y3844491D01*
X19325376Y3849672D01*
X19203920Y4012321D01*
X19054858Y4150113D01*
X19049975Y4153194D01*
X19049971Y4153197D01*
X18888064Y4255352D01*
X18883181Y4258433D01*
X18694639Y4333654D01*
X18688979Y4334780D01*
X18688975Y4334781D01*
X18501213Y4372129D01*
X18501210Y4372129D01*
X18495546Y4373256D01*
X18489771Y4373332D01*
X18489767Y4373332D01*
X18388393Y4374659D01*
X18292571Y4375913D01*
X18286874Y4374934D01*
X18286873Y4374934D01*
X18198997Y4359834D01*
X18092510Y4341536D01*
X17902063Y4271276D01*
X17727610Y4167488D01*
X17723270Y4163682D01*
X17723266Y4163679D01*
X17589054Y4045977D01*
X17574992Y4033645D01*
X17449320Y3874231D01*
X17446631Y3869120D01*
X17446629Y3869117D01*
X17433673Y3844491D01*
X17354803Y3694585D01*
X17294607Y3500722D01*
X17270748Y3299136D01*
X14297499Y3299136D01*
X14297499Y4145166D01*
X14282734Y4219401D01*
X14269953Y4238530D01*
X14233377Y4293268D01*
X14226484Y4303584D01*
X14142301Y4359834D01*
X14068067Y4374600D01*
X13193142Y4374600D01*
X12317934Y4374599D01*
X12282182Y4367488D01*
X12255874Y4362256D01*
X12255872Y4362255D01*
X12243699Y4359834D01*
X12233379Y4352939D01*
X12233378Y4352938D01*
X12172985Y4312584D01*
X12159516Y4303584D01*
X12103266Y4219401D01*
X12088500Y4145167D01*
X11333609Y4145167D01*
X11328258Y4150113D01*
X11323375Y4153194D01*
X11323371Y4153197D01*
X11161464Y4255352D01*
X11156581Y4258433D01*
X10968039Y4333654D01*
X10962379Y4334780D01*
X10962375Y4334781D01*
X10774613Y4372129D01*
X10774610Y4372129D01*
X10768946Y4373256D01*
X10763171Y4373332D01*
X10763167Y4373332D01*
X10661793Y4374659D01*
X10565971Y4375913D01*
X10560274Y4374934D01*
X10560273Y4374934D01*
X10472397Y4359834D01*
X10365910Y4341536D01*
X10175463Y4271276D01*
X10001010Y4167488D01*
X9996670Y4163682D01*
X9996666Y4163679D01*
X9862454Y4045977D01*
X9848392Y4033645D01*
X9722720Y3874231D01*
X9720031Y3869120D01*
X9720029Y3869117D01*
X9707073Y3844491D01*
X9628203Y3694585D01*
X9568007Y3500722D01*
X9544148Y3299136D01*
X9219564Y3299136D01*
X9203658Y3472241D01*
X9202090Y3477801D01*
X9150125Y3662054D01*
X9150124Y3662056D01*
X9148557Y3667613D01*
X9137978Y3689067D01*
X9061331Y3844491D01*
X9058776Y3849672D01*
X8937320Y4012321D01*
X8788258Y4150113D01*
X8783375Y4153194D01*
X8783371Y4153197D01*
X8621464Y4255352D01*
X8616581Y4258433D01*
X8428039Y4333654D01*
X8422379Y4334780D01*
X8422375Y4334781D01*
X8234613Y4372129D01*
X8234610Y4372129D01*
X8228946Y4373256D01*
X8223171Y4373332D01*
X8223167Y4373332D01*
X8121793Y4374659D01*
X8025971Y4375913D01*
X8020274Y4374934D01*
X8020273Y4374934D01*
X7932397Y4359834D01*
X7825910Y4341536D01*
X7635463Y4271276D01*
X7461010Y4167488D01*
X7456670Y4163682D01*
X7456666Y4163679D01*
X7322454Y4045977D01*
X7308392Y4033645D01*
X7182720Y3874231D01*
X7180031Y3869120D01*
X7180029Y3869117D01*
X7167073Y3844491D01*
X7088203Y3694585D01*
X7028007Y3500722D01*
X7004148Y3299136D01*
X1054100Y3299136D01*
X1054100Y5989793D01*
X1074102Y6057914D01*
X1127758Y6104407D01*
X1198032Y6114511D01*
X1252370Y6093007D01*
X1343702Y6029055D01*
X1348684Y6026732D01*
X1348689Y6026729D01*
X1533698Y5940458D01*
X1538680Y5938135D01*
X1543988Y5936713D01*
X1543990Y5936712D01*
X1608732Y5919365D01*
X1746484Y5882454D01*
X1960800Y5863704D01*
X2175116Y5882454D01*
X2312868Y5919365D01*
X2377610Y5936712D01*
X2377612Y5936713D01*
X2382920Y5938135D01*
X2387902Y5940458D01*
X2572911Y6026729D01*
X2572916Y6026732D01*
X2577898Y6029055D01*
X2699942Y6114511D01*
X2740201Y6142700D01*
X8721615Y6142700D01*
X8722693Y6134512D01*
X8736883Y6026729D01*
X8740672Y5997946D01*
X8760478Y5950130D01*
X8788966Y5881356D01*
X8796545Y5863058D01*
X8885426Y5747226D01*
X8891976Y5742200D01*
X8891979Y5742197D01*
X8986013Y5670042D01*
X9001257Y5658345D01*
X9136146Y5602472D01*
X9280900Y5583415D01*
X9289088Y5584493D01*
X9417466Y5601394D01*
X9425654Y5602472D01*
X9560543Y5658345D01*
X9575787Y5670042D01*
X9669821Y5742197D01*
X9669824Y5742200D01*
X9676374Y5747226D01*
X9765255Y5863058D01*
X9772835Y5881356D01*
X9801322Y5950130D01*
X9821128Y5997946D01*
X9824918Y6026729D01*
X9839107Y6134512D01*
X9840185Y6142700D01*
X9821128Y6287454D01*
X9765255Y6422342D01*
X9676374Y6538174D01*
X9669824Y6543200D01*
X9669821Y6543203D01*
X9567096Y6622027D01*
X9567094Y6622028D01*
X9560543Y6627055D01*
X9425654Y6682928D01*
X9280900Y6701985D01*
X9272712Y6700907D01*
X9144332Y6684006D01*
X9144330Y6684005D01*
X9136146Y6682928D01*
X9106862Y6670798D01*
X9008886Y6630215D01*
X9008884Y6630214D01*
X9001258Y6627055D01*
X8885426Y6538174D01*
X8796545Y6422342D01*
X8740672Y6287454D01*
X8721615Y6142700D01*
X2740201Y6142700D01*
X2749615Y6149292D01*
X2749618Y6149294D01*
X2754126Y6152451D01*
X2906249Y6304574D01*
X3018009Y6464183D01*
X3026488Y6476293D01*
X3026489Y6476295D01*
X3029645Y6480802D01*
X3031968Y6485784D01*
X3031971Y6485789D01*
X3118242Y6670798D01*
X3118243Y6670799D01*
X3120565Y6675780D01*
X3176246Y6883584D01*
X3194996Y7097900D01*
X3176246Y7312216D01*
X3127774Y7493115D01*
X3121988Y7514710D01*
X3121987Y7514712D01*
X3120565Y7520020D01*
X3118242Y7525002D01*
X3031971Y7710011D01*
X3031968Y7710016D01*
X3029645Y7714998D01*
X3026488Y7719507D01*
X2909408Y7886715D01*
X2909406Y7886718D01*
X2906249Y7891226D01*
X2754126Y8043349D01*
X2749618Y8046506D01*
X2749615Y8046508D01*
X2582407Y8163588D01*
X2582405Y8163589D01*
X2577898Y8166745D01*
X2572916Y8169068D01*
X2572911Y8169071D01*
X2387902Y8255342D01*
X2387901Y8255343D01*
X2382920Y8257665D01*
X2377612Y8259087D01*
X2377610Y8259088D01*
X2254388Y8292105D01*
X2175116Y8313346D01*
X1960800Y8332096D01*
X1746484Y8313346D01*
X1667212Y8292105D01*
X1543990Y8259088D01*
X1543988Y8259087D01*
X1538680Y8257665D01*
X1533699Y8255343D01*
X1533698Y8255342D01*
X1348689Y8169071D01*
X1348684Y8169068D01*
X1343702Y8166745D01*
X1252370Y8102794D01*
X1185097Y8080106D01*
X1116237Y8097391D01*
X1067652Y8149160D01*
X1054100Y8206007D01*
X1054100Y9752562D01*
X1074102Y9820683D01*
X1127758Y9867176D01*
X1198032Y9877280D01*
X1262612Y9847786D01*
X1279477Y9827362D01*
X1280645Y9828258D01*
X1360910Y9723655D01*
X1369526Y9712426D01*
X1376076Y9707400D01*
X1376079Y9707397D01*
X1462966Y9640726D01*
X1485357Y9623545D01*
X1620246Y9567672D01*
X1765000Y9548615D01*
X1773188Y9549693D01*
X1789535Y9551845D01*
X1909754Y9567672D01*
X2044643Y9623545D01*
X2067034Y9640726D01*
X2153921Y9707397D01*
X2153924Y9707400D01*
X2160474Y9712426D01*
X2169091Y9723655D01*
X2226586Y9798585D01*
X2249355Y9828258D01*
X2257809Y9848666D01*
X2302069Y9955520D01*
X2305228Y9963146D01*
X2324285Y10107900D01*
X2315745Y10172768D01*
X2306306Y10244468D01*
X2306305Y10244470D01*
X2305228Y10252654D01*
X2269012Y10340086D01*
X2252515Y10379914D01*
X2252514Y10379916D01*
X2249355Y10387542D01*
X2192770Y10461285D01*
X2165501Y10496823D01*
X2165500Y10496824D01*
X2160474Y10503374D01*
X2153924Y10508400D01*
X2153921Y10508403D01*
X2051196Y10587227D01*
X2051194Y10587228D01*
X2044643Y10592255D01*
X1909754Y10648128D01*
X1765000Y10667185D01*
X1756812Y10666107D01*
X1628432Y10649206D01*
X1628430Y10649205D01*
X1620246Y10648128D01*
X1572430Y10628322D01*
X1492986Y10595415D01*
X1492984Y10595414D01*
X1485358Y10592255D01*
X1443162Y10559877D01*
X1385650Y10515746D01*
X1369526Y10503374D01*
X1280645Y10387542D01*
X1278019Y10389557D01*
X1237834Y10351243D01*
X1168120Y10337809D01*
X1102210Y10364197D01*
X1061029Y10422030D01*
X1054100Y10463238D01*
X1054100Y11655857D01*
X5571123Y11655857D01*
X5573977Y11645206D01*
X5580618Y11620419D01*
X5582996Y11609690D01*
X5587452Y11584421D01*
X5587454Y11584416D01*
X5589368Y11573560D01*
X5594881Y11564013D01*
X5595960Y11561047D01*
X5597294Y11558186D01*
X5600148Y11547534D01*
X5606471Y11538504D01*
X5621192Y11517480D01*
X5627097Y11508210D01*
X5639926Y11485989D01*
X5639929Y11485985D01*
X5645440Y11476440D01*
X5672451Y11453775D01*
X5687975Y11438251D01*
X5710640Y11411240D01*
X5720184Y11405730D01*
X5720189Y11405726D01*
X5742410Y11392897D01*
X5751680Y11386992D01*
X5781734Y11365948D01*
X5792386Y11363094D01*
X5795247Y11361760D01*
X5798213Y11360681D01*
X5807760Y11355168D01*
X5818616Y11353254D01*
X5818621Y11353252D01*
X5843890Y11348796D01*
X5854619Y11346418D01*
X5876334Y11340600D01*
X5890057Y11336923D01*
X5901037Y11337884D01*
X5901044Y11337883D01*
X5907851Y11338479D01*
X5977456Y11324491D01*
X6028449Y11275092D01*
X6044640Y11205966D01*
X6018797Y11136255D01*
X5973745Y11077542D01*
X5970586Y11069916D01*
X5970585Y11069914D01*
X5942049Y11001023D01*
X5917872Y10942654D01*
X5916795Y10934470D01*
X5916794Y10934468D01*
X5908405Y10870745D01*
X5898815Y10797900D01*
X5899893Y10789712D01*
X5916166Y10666107D01*
X5917872Y10653146D01*
X5928686Y10627038D01*
X5968544Y10530815D01*
X5973745Y10518258D01*
X6062626Y10402426D01*
X6069176Y10397400D01*
X6069179Y10397397D01*
X6166926Y10322393D01*
X6178457Y10313545D01*
X6313346Y10257672D01*
X6458100Y10238615D01*
X6466288Y10239693D01*
X6594666Y10256594D01*
X6602854Y10257672D01*
X6737743Y10313545D01*
X6749274Y10322393D01*
X6847021Y10397397D01*
X6847024Y10397400D01*
X6853574Y10402426D01*
X6942455Y10518258D01*
X6947657Y10530815D01*
X6987514Y10627038D01*
X6998328Y10653146D01*
X7000035Y10666107D01*
X7016307Y10789712D01*
X7017385Y10797900D01*
X7007795Y10870745D01*
X6999406Y10934468D01*
X6999405Y10934470D01*
X6998328Y10942654D01*
X6974151Y11001023D01*
X6945615Y11069914D01*
X6945614Y11069916D01*
X6942455Y11077542D01*
X6879449Y11159653D01*
X6853849Y11225873D01*
X6868114Y11295422D01*
X6917715Y11346218D01*
X6933574Y11353499D01*
X6943040Y11355168D01*
X7040160Y11411240D01*
X7083987Y11463470D01*
X7105158Y11488701D01*
X7112245Y11497147D01*
X7150600Y11602528D01*
X7150600Y11714672D01*
X7112245Y11820053D01*
X7040160Y11905960D01*
X7003364Y11927204D01*
X6954371Y11978586D01*
X6940934Y12048300D01*
X6949956Y12084542D01*
X6985567Y12170513D01*
X6985568Y12170518D01*
X6988728Y12178146D01*
X6994263Y12220185D01*
X7006707Y12314712D01*
X7007785Y12322900D01*
X7000896Y12375228D01*
X6989806Y12459468D01*
X6989805Y12459470D01*
X6988728Y12467654D01*
X6960347Y12536171D01*
X6936015Y12594914D01*
X6936014Y12594916D01*
X6932855Y12602542D01*
X6884183Y12665972D01*
X6849001Y12711823D01*
X6849000Y12711824D01*
X6843974Y12718374D01*
X6837424Y12723400D01*
X6837421Y12723403D01*
X6734696Y12802227D01*
X6734694Y12802228D01*
X6728143Y12807255D01*
X6593254Y12863128D01*
X6448500Y12882185D01*
X6440312Y12881107D01*
X6440311Y12881107D01*
X6353246Y12869645D01*
X6283097Y12880585D01*
X6229999Y12927713D01*
X6210800Y12994567D01*
X6210800Y15957790D01*
X6230802Y16025911D01*
X6247705Y16046885D01*
X7629051Y17428231D01*
X7637155Y17435657D01*
X7656813Y17452152D01*
X7665260Y17459240D01*
X7670771Y17468785D01*
X7670774Y17468789D01*
X7683603Y17491010D01*
X7689508Y17500280D01*
X7704229Y17521304D01*
X7710552Y17530334D01*
X7713406Y17540986D01*
X7714740Y17543847D01*
X7715819Y17546813D01*
X7721332Y17556360D01*
X7723246Y17567216D01*
X7723248Y17567221D01*
X7727704Y17592490D01*
X7730082Y17603219D01*
X7736723Y17628006D01*
X7739577Y17638657D01*
X7736379Y17675210D01*
X7735900Y17686192D01*
X7735900Y19134800D01*
X7755902Y19202921D01*
X7809558Y19249414D01*
X7861900Y19260800D01*
X8247600Y19260800D01*
X8315721Y19240798D01*
X8362214Y19187142D01*
X8373600Y19134800D01*
X8373600Y9604538D01*
X8353598Y9536417D01*
X8299942Y9489924D01*
X8280212Y9482832D01*
X8266221Y9479083D01*
X8255490Y9476704D01*
X8230221Y9472248D01*
X8230216Y9472246D01*
X8219360Y9470332D01*
X8209813Y9464819D01*
X8206847Y9463740D01*
X8203986Y9462406D01*
X8193334Y9459552D01*
X8184304Y9453229D01*
X8163280Y9438508D01*
X8154010Y9432603D01*
X8131789Y9419774D01*
X8131785Y9419771D01*
X8122240Y9414260D01*
X8115152Y9405813D01*
X8098657Y9386155D01*
X8091231Y9378051D01*
X7541666Y8828486D01*
X7479354Y8794460D01*
X7408539Y8799525D01*
X7399321Y8803386D01*
X7287902Y8855342D01*
X7287901Y8855343D01*
X7282920Y8857665D01*
X7277612Y8859087D01*
X7277610Y8859088D01*
X7212541Y8876523D01*
X7075116Y8913346D01*
X6860800Y8932096D01*
X6646484Y8913346D01*
X6509059Y8876523D01*
X6443990Y8859088D01*
X6443988Y8859087D01*
X6438680Y8857665D01*
X6433699Y8855343D01*
X6433698Y8855342D01*
X6248689Y8769071D01*
X6248684Y8769068D01*
X6243702Y8766745D01*
X6239195Y8763589D01*
X6239193Y8763588D01*
X6071985Y8646508D01*
X6071982Y8646506D01*
X6067474Y8643349D01*
X5915351Y8491226D01*
X5912194Y8486718D01*
X5912192Y8486715D01*
X5802966Y8330723D01*
X5791955Y8314998D01*
X5789632Y8310016D01*
X5789629Y8310011D01*
X5723908Y8169071D01*
X5701035Y8120020D01*
X5699613Y8114712D01*
X5699612Y8114710D01*
X5694365Y8095128D01*
X5645354Y7912216D01*
X5626604Y7697900D01*
X5645354Y7483584D01*
X5664283Y7412940D01*
X5696130Y7294087D01*
X5701035Y7275780D01*
X5703357Y7270799D01*
X5703358Y7270798D01*
X5789629Y7085789D01*
X5789632Y7085784D01*
X5791955Y7080802D01*
X5915351Y6904574D01*
X6067474Y6752451D01*
X6071982Y6749294D01*
X6071985Y6749292D01*
X6239193Y6632212D01*
X6243702Y6629055D01*
X6248684Y6626732D01*
X6248689Y6626729D01*
X6433698Y6540458D01*
X6438680Y6538135D01*
X6443988Y6536713D01*
X6443990Y6536712D01*
X6462964Y6531628D01*
X6646484Y6482454D01*
X6860800Y6463704D01*
X7075116Y6482454D01*
X7258636Y6531628D01*
X7277610Y6536712D01*
X7277612Y6536713D01*
X7282920Y6538135D01*
X7287902Y6540458D01*
X7472911Y6626729D01*
X7472916Y6626732D01*
X7477898Y6629055D01*
X7482407Y6632212D01*
X7649615Y6749292D01*
X7649618Y6749294D01*
X7654126Y6752451D01*
X7806249Y6904574D01*
X7929645Y7080802D01*
X7931968Y7085784D01*
X7931971Y7085789D01*
X8018242Y7270798D01*
X8018243Y7270799D01*
X8020565Y7275780D01*
X8025471Y7294087D01*
X8057317Y7412940D01*
X8076246Y7483584D01*
X8094996Y7697900D01*
X8076246Y7912216D01*
X8027235Y8095128D01*
X8021988Y8114710D01*
X8021987Y8114712D01*
X8020565Y8120020D01*
X7966286Y8236422D01*
X7955625Y8306612D01*
X7984605Y8371425D01*
X7991386Y8378766D01*
X8424615Y8811995D01*
X8486927Y8846021D01*
X8513710Y8848900D01*
X8619690Y8848900D01*
X8687811Y8828898D01*
X8708785Y8811995D01*
X9193580Y8327200D01*
X9227606Y8264888D01*
X9222541Y8194073D01*
X9179994Y8137237D01*
X9140265Y8117939D01*
X9137146Y8117528D01*
X9129517Y8114368D01*
X9009886Y8064815D01*
X9009884Y8064814D01*
X9002258Y8061655D01*
X8935899Y8010736D01*
X8893516Y7978214D01*
X8886426Y7972774D01*
X8797545Y7856942D01*
X8794386Y7849316D01*
X8794385Y7849314D01*
X8779243Y7812758D01*
X8741672Y7722054D01*
X8740595Y7713870D01*
X8740594Y7713868D01*
X8732378Y7651460D01*
X8722615Y7577300D01*
X8723693Y7569112D01*
X8729614Y7524140D01*
X8741672Y7432546D01*
X8749793Y7412940D01*
X8793785Y7306736D01*
X8797545Y7297658D01*
X8886426Y7181826D01*
X8892976Y7176800D01*
X8892979Y7176797D01*
X8968836Y7118590D01*
X9002257Y7092945D01*
X9137146Y7037072D01*
X9281900Y7018015D01*
X9290088Y7019093D01*
X9418466Y7035994D01*
X9426654Y7037072D01*
X9561543Y7092945D01*
X9594964Y7118590D01*
X9670821Y7176797D01*
X9670824Y7176800D01*
X9677374Y7181826D01*
X9766255Y7297658D01*
X9770016Y7306736D01*
X9818968Y7424917D01*
X9818969Y7424920D01*
X9822128Y7432546D01*
X9822430Y7434843D01*
X9857946Y7493115D01*
X9921805Y7524140D01*
X9992300Y7515714D01*
X10031800Y7488980D01*
X10313095Y7207685D01*
X10347121Y7145373D01*
X10350000Y7118590D01*
X10350000Y6068177D01*
X10364568Y5985560D01*
X10420640Y5888440D01*
X10506547Y5816355D01*
X10611928Y5778000D01*
X10724072Y5778000D01*
X10829453Y5816355D01*
X10915360Y5888440D01*
X10971432Y5985560D01*
X10986000Y6068177D01*
X10986000Y7283106D01*
X10986479Y7294087D01*
X10986792Y7297658D01*
X10989677Y7330643D01*
X10986825Y7341288D01*
X10980182Y7366081D01*
X10977804Y7376810D01*
X10973348Y7402079D01*
X10973346Y7402084D01*
X10971432Y7412940D01*
X10965919Y7422487D01*
X10964840Y7425453D01*
X10963506Y7428314D01*
X10960652Y7438966D01*
X10939608Y7469020D01*
X10933703Y7478290D01*
X10920874Y7500511D01*
X10920871Y7500515D01*
X10915360Y7510060D01*
X10887255Y7533643D01*
X10879151Y7541069D01*
X10714020Y7706200D01*
X18639415Y7706200D01*
X18642539Y7682469D01*
X18652025Y7610419D01*
X18658472Y7561446D01*
X18673568Y7525002D01*
X18694890Y7473527D01*
X18714345Y7426558D01*
X18803226Y7310726D01*
X18809776Y7305700D01*
X18809779Y7305697D01*
X18870229Y7259312D01*
X18919057Y7221845D01*
X19053946Y7165972D01*
X19198700Y7146915D01*
X19206888Y7147993D01*
X19335266Y7164894D01*
X19343454Y7165972D01*
X19478343Y7221845D01*
X19527171Y7259312D01*
X19537842Y7267500D01*
X26318315Y7267500D01*
X26319393Y7259312D01*
X26328732Y7188377D01*
X26337372Y7122746D01*
X26393245Y6987858D01*
X26482126Y6872026D01*
X26488676Y6867000D01*
X26488679Y6866997D01*
X26591404Y6788173D01*
X26597957Y6783145D01*
X26732846Y6727272D01*
X26877600Y6708215D01*
X26885788Y6709293D01*
X27014166Y6726194D01*
X27022354Y6727272D01*
X27157243Y6783145D01*
X27163796Y6788173D01*
X27266521Y6866997D01*
X27266524Y6867000D01*
X27273074Y6872026D01*
X27361955Y6987858D01*
X27417828Y7122746D01*
X27426469Y7188377D01*
X27435807Y7259312D01*
X27436885Y7267500D01*
X27423907Y7366081D01*
X27418906Y7404068D01*
X27418905Y7404070D01*
X27417828Y7412254D01*
X27384334Y7493115D01*
X27365115Y7539514D01*
X27365114Y7539516D01*
X27361955Y7547142D01*
X27313401Y7610419D01*
X27278101Y7656423D01*
X27278100Y7656424D01*
X27273074Y7662974D01*
X27266524Y7668000D01*
X27266521Y7668003D01*
X27163796Y7746827D01*
X27163794Y7746828D01*
X27157243Y7751855D01*
X27022354Y7807728D01*
X26877600Y7826785D01*
X26869412Y7825707D01*
X26741032Y7808806D01*
X26741030Y7808805D01*
X26732846Y7807728D01*
X26685030Y7787922D01*
X26605586Y7755015D01*
X26605584Y7755014D01*
X26597958Y7751855D01*
X26482126Y7662974D01*
X26393245Y7547142D01*
X26390086Y7539516D01*
X26390085Y7539514D01*
X26370866Y7493115D01*
X26337372Y7412254D01*
X26336295Y7404070D01*
X26336294Y7404068D01*
X26331293Y7366081D01*
X26318315Y7267500D01*
X19537842Y7267500D01*
X19587621Y7305697D01*
X19587624Y7305700D01*
X19594174Y7310726D01*
X19683055Y7426558D01*
X19702511Y7473527D01*
X19723832Y7525002D01*
X19738928Y7561446D01*
X19745376Y7610419D01*
X19754861Y7682469D01*
X19757985Y7706200D01*
X19752636Y7746828D01*
X19740006Y7842768D01*
X19740005Y7842770D01*
X19738928Y7850954D01*
X19713552Y7912216D01*
X19686215Y7978214D01*
X19686214Y7978216D01*
X19683055Y7985842D01*
X19594174Y8101674D01*
X19587624Y8106700D01*
X19587621Y8106703D01*
X19484896Y8185527D01*
X19484894Y8185528D01*
X19478343Y8190555D01*
X19343454Y8246428D01*
X19198700Y8265485D01*
X19190512Y8264407D01*
X19062132Y8247506D01*
X19062130Y8247505D01*
X19053946Y8246428D01*
X19029787Y8236421D01*
X18926686Y8193715D01*
X18926684Y8193714D01*
X18919058Y8190555D01*
X18803226Y8101674D01*
X18714345Y7985842D01*
X18711186Y7978216D01*
X18711185Y7978214D01*
X18683848Y7912216D01*
X18658472Y7850954D01*
X18657395Y7842770D01*
X18657394Y7842768D01*
X18644764Y7746828D01*
X18639415Y7706200D01*
X10714020Y7706200D01*
X9180920Y9239300D01*
X12784815Y9239300D01*
X12803872Y9094546D01*
X12807031Y9086920D01*
X12854407Y8972546D01*
X12859745Y8959658D01*
X12948626Y8843826D01*
X12955176Y8838800D01*
X12955179Y8838797D01*
X13057904Y8759973D01*
X13064457Y8754945D01*
X13199346Y8699072D01*
X13344100Y8680015D01*
X13352288Y8681093D01*
X13480666Y8697994D01*
X13488854Y8699072D01*
X13623743Y8754945D01*
X13630296Y8759973D01*
X13733021Y8838797D01*
X13733024Y8838800D01*
X13739574Y8843826D01*
X13828455Y8959658D01*
X13833794Y8972546D01*
X13881169Y9086920D01*
X13884328Y9094546D01*
X13887324Y9117300D01*
X24201515Y9117300D01*
X24220572Y8972546D01*
X24226781Y8957557D01*
X24271177Y8850377D01*
X24276445Y8837658D01*
X24309592Y8794460D01*
X24327574Y8771026D01*
X24365326Y8721826D01*
X24371876Y8716800D01*
X24371879Y8716797D01*
X24467598Y8643349D01*
X24481157Y8632945D01*
X24616046Y8577072D01*
X24760800Y8558015D01*
X24768988Y8559093D01*
X24897366Y8575994D01*
X24905554Y8577072D01*
X25040443Y8632945D01*
X25054002Y8643349D01*
X25149721Y8716797D01*
X25149724Y8716800D01*
X25156274Y8721826D01*
X25194027Y8771026D01*
X25212008Y8794460D01*
X25245155Y8837658D01*
X25250424Y8850377D01*
X25294819Y8957557D01*
X25301028Y8972546D01*
X25320085Y9117300D01*
X25306295Y9222048D01*
X25302106Y9253868D01*
X25302105Y9253870D01*
X25301028Y9262054D01*
X25281222Y9309870D01*
X25248315Y9389314D01*
X25248314Y9389316D01*
X25245155Y9396942D01*
X25185574Y9474590D01*
X25161301Y9506223D01*
X25161300Y9506224D01*
X25156274Y9512774D01*
X25149724Y9517800D01*
X25149721Y9517803D01*
X25046996Y9596627D01*
X25046994Y9596628D01*
X25040443Y9601655D01*
X24905554Y9657528D01*
X24760800Y9676585D01*
X24737055Y9673459D01*
X24624232Y9658606D01*
X24624230Y9658605D01*
X24616046Y9657528D01*
X24573240Y9639797D01*
X24488786Y9604815D01*
X24488784Y9604814D01*
X24481158Y9601655D01*
X24365326Y9512774D01*
X24276445Y9396942D01*
X24273286Y9389316D01*
X24273285Y9389314D01*
X24240378Y9309870D01*
X24220572Y9262054D01*
X24219495Y9253870D01*
X24219494Y9253868D01*
X24215305Y9222048D01*
X24201515Y9117300D01*
X13887324Y9117300D01*
X13903385Y9239300D01*
X13887764Y9357958D01*
X13885406Y9375868D01*
X13885405Y9375870D01*
X13884328Y9384054D01*
X13861486Y9439198D01*
X13831615Y9511314D01*
X13831614Y9511316D01*
X13828455Y9518942D01*
X13768845Y9596627D01*
X13744601Y9628223D01*
X13744600Y9628224D01*
X13739574Y9634774D01*
X13733024Y9639800D01*
X13733021Y9639803D01*
X13630296Y9718627D01*
X13630294Y9718628D01*
X13623743Y9723655D01*
X13488854Y9779528D01*
X13344100Y9798585D01*
X13335912Y9797507D01*
X13207532Y9780606D01*
X13207530Y9780605D01*
X13199346Y9779528D01*
X13186406Y9774168D01*
X13072086Y9726815D01*
X13072084Y9726814D01*
X13064458Y9723655D01*
X12948626Y9634774D01*
X12859745Y9518942D01*
X12856586Y9511316D01*
X12856585Y9511314D01*
X12826714Y9439198D01*
X12803872Y9384054D01*
X12802795Y9375870D01*
X12802794Y9375868D01*
X12800436Y9357958D01*
X12784815Y9239300D01*
X9180920Y9239300D01*
X9046505Y9373715D01*
X9012479Y9436027D01*
X9009600Y9462810D01*
X9009600Y10036200D01*
X18570415Y10036200D01*
X18571493Y10028012D01*
X18581037Y9955520D01*
X18589472Y9891446D01*
X18592631Y9883820D01*
X18638051Y9774168D01*
X18645345Y9756558D01*
X18679209Y9712426D01*
X18707756Y9675223D01*
X18734226Y9640726D01*
X18740776Y9635700D01*
X18740779Y9635697D01*
X18843504Y9556873D01*
X18850057Y9551845D01*
X18984946Y9495972D01*
X18993134Y9494894D01*
X19030886Y9489924D01*
X19129700Y9476915D01*
X19137888Y9477993D01*
X19174645Y9482832D01*
X19228514Y9489924D01*
X19266266Y9494894D01*
X19274454Y9495972D01*
X19409343Y9551845D01*
X19415896Y9556873D01*
X19518621Y9635697D01*
X19518624Y9635700D01*
X19525174Y9640726D01*
X19551645Y9675223D01*
X19580191Y9712426D01*
X19614055Y9756558D01*
X19621350Y9774168D01*
X19666769Y9883820D01*
X19669928Y9891446D01*
X19678364Y9955520D01*
X19687907Y10028012D01*
X19688985Y10036200D01*
X19677279Y10125115D01*
X19671006Y10172768D01*
X19671005Y10172770D01*
X19669928Y10180954D01*
X19633259Y10269480D01*
X19617215Y10308214D01*
X19617214Y10308216D01*
X19614055Y10315842D01*
X19564891Y10379914D01*
X19530201Y10425123D01*
X19530200Y10425124D01*
X19525174Y10431674D01*
X19518624Y10436700D01*
X19518621Y10436703D01*
X19415896Y10515527D01*
X19415894Y10515528D01*
X19409343Y10520555D01*
X19292479Y10568962D01*
X19282083Y10573268D01*
X19274454Y10576428D01*
X19129700Y10595485D01*
X19121512Y10594407D01*
X18993132Y10577506D01*
X18993130Y10577505D01*
X18984946Y10576428D01*
X18944989Y10559877D01*
X18857686Y10523715D01*
X18857684Y10523714D01*
X18850058Y10520555D01*
X18734226Y10431674D01*
X18645345Y10315842D01*
X18642186Y10308216D01*
X18642185Y10308214D01*
X18626141Y10269480D01*
X18589472Y10180954D01*
X18588395Y10172770D01*
X18588394Y10172768D01*
X18582121Y10125115D01*
X18570415Y10036200D01*
X9009600Y10036200D01*
X9009600Y10660500D01*
X16437715Y10660500D01*
X16438793Y10652312D01*
X16452487Y10548297D01*
X16456772Y10515746D01*
X16459931Y10508120D01*
X16509042Y10389557D01*
X16512645Y10380858D01*
X16545678Y10337809D01*
X16562534Y10315842D01*
X16601526Y10265026D01*
X16608076Y10260000D01*
X16608079Y10259997D01*
X16710804Y10181173D01*
X16717357Y10176145D01*
X16822066Y10132773D01*
X16841834Y10124585D01*
X16852246Y10120272D01*
X16860434Y10119194D01*
X16877654Y10116927D01*
X16997000Y10101215D01*
X17005188Y10102293D01*
X17133566Y10119194D01*
X17141754Y10120272D01*
X17152167Y10124585D01*
X17171934Y10132773D01*
X17276643Y10176145D01*
X17283196Y10181173D01*
X17385921Y10259997D01*
X17385924Y10260000D01*
X17392474Y10265026D01*
X17431467Y10315842D01*
X17448322Y10337809D01*
X17481355Y10380858D01*
X17484959Y10389557D01*
X17534069Y10508120D01*
X17537228Y10515746D01*
X17541514Y10548297D01*
X17555207Y10652312D01*
X17556285Y10660500D01*
X17542596Y10764480D01*
X17538306Y10797068D01*
X17538305Y10797070D01*
X17537228Y10805254D01*
X17511600Y10867124D01*
X17484515Y10932514D01*
X17484514Y10932516D01*
X17481355Y10940142D01*
X17392474Y11055974D01*
X17385924Y11061000D01*
X17385921Y11061003D01*
X17283196Y11139827D01*
X17283194Y11139828D01*
X17276643Y11144855D01*
X17141754Y11200728D01*
X16997000Y11219785D01*
X16988812Y11218707D01*
X16860432Y11201806D01*
X16860430Y11201805D01*
X16852246Y11200728D01*
X16834492Y11193374D01*
X16724986Y11148015D01*
X16724984Y11148014D01*
X16717358Y11144855D01*
X16601526Y11055974D01*
X16512645Y10940142D01*
X16509486Y10932516D01*
X16509485Y10932514D01*
X16482400Y10867124D01*
X16456772Y10805254D01*
X16455695Y10797070D01*
X16455694Y10797068D01*
X16451404Y10764480D01*
X16437715Y10660500D01*
X9009600Y10660500D01*
X9009600Y12907500D01*
X16901715Y12907500D01*
X16902793Y12899312D01*
X16910040Y12844268D01*
X16920772Y12762746D01*
X16923931Y12755120D01*
X16968305Y12647993D01*
X16976645Y12627858D01*
X17065526Y12512026D01*
X17072076Y12507000D01*
X17072079Y12506997D01*
X17165013Y12435686D01*
X17181357Y12423145D01*
X17316246Y12367272D01*
X17461000Y12348215D01*
X17469188Y12349293D01*
X17597566Y12366194D01*
X17605754Y12367272D01*
X17740643Y12423145D01*
X17756987Y12435686D01*
X17849921Y12506997D01*
X17849924Y12507000D01*
X17856474Y12512026D01*
X17945355Y12627858D01*
X17953696Y12647993D01*
X17998069Y12755120D01*
X18001228Y12762746D01*
X18011961Y12844268D01*
X18019207Y12899312D01*
X18020285Y12907500D01*
X18009774Y12987342D01*
X18002306Y13044068D01*
X18002305Y13044070D01*
X18001228Y13052254D01*
X17953638Y13167145D01*
X17948515Y13179514D01*
X17948514Y13179516D01*
X17945355Y13187142D01*
X17895417Y13252223D01*
X17861501Y13296423D01*
X17861500Y13296424D01*
X17856474Y13302974D01*
X17849924Y13308000D01*
X17849921Y13308003D01*
X17747196Y13386827D01*
X17747194Y13386828D01*
X17740643Y13391855D01*
X17605754Y13447728D01*
X17461000Y13466785D01*
X17452812Y13465707D01*
X17324432Y13448806D01*
X17324430Y13448805D01*
X17316246Y13447728D01*
X17268430Y13427922D01*
X17188986Y13395015D01*
X17188984Y13395014D01*
X17181358Y13391855D01*
X17065526Y13302974D01*
X16976645Y13187142D01*
X16973486Y13179516D01*
X16973485Y13179514D01*
X16968362Y13167145D01*
X16920772Y13052254D01*
X16919695Y13044070D01*
X16919694Y13044068D01*
X16912226Y12987342D01*
X16901715Y12907500D01*
X9009600Y12907500D01*
X9009600Y14018056D01*
X9029602Y14086177D01*
X9083258Y14132670D01*
X9152046Y14142978D01*
X9194300Y14137415D01*
X9202488Y14138493D01*
X9330866Y14155394D01*
X9339054Y14156472D01*
X9473943Y14212345D01*
X9480496Y14217373D01*
X9583221Y14296197D01*
X9583224Y14296200D01*
X9589774Y14301226D01*
X9605992Y14322361D01*
X9673628Y14410507D01*
X9678655Y14417058D01*
X9701870Y14473102D01*
X9731369Y14544320D01*
X9734528Y14551946D01*
X9753585Y14696700D01*
X9743742Y14771468D01*
X9735606Y14833268D01*
X9735605Y14833270D01*
X9734528Y14841454D01*
X9710958Y14898357D01*
X9681815Y14968714D01*
X9681814Y14968716D01*
X9678655Y14976342D01*
X9622519Y15049500D01*
X11455215Y15049500D01*
X11456293Y15041312D01*
X11465851Y14968714D01*
X11474272Y14904746D01*
X11480503Y14889703D01*
X11526749Y14778057D01*
X11530145Y14769858D01*
X11555436Y14736898D01*
X11584862Y14698550D01*
X11619026Y14654026D01*
X11625576Y14649000D01*
X11625579Y14648997D01*
X11728304Y14570173D01*
X11734857Y14565145D01*
X11869746Y14509272D01*
X12014500Y14490215D01*
X12022688Y14491293D01*
X12151066Y14508194D01*
X12159254Y14509272D01*
X12294143Y14565145D01*
X12300696Y14570173D01*
X12403421Y14648997D01*
X12403424Y14649000D01*
X12409974Y14654026D01*
X12444139Y14698550D01*
X12473564Y14736898D01*
X12498855Y14769858D01*
X12502252Y14778057D01*
X12548497Y14889703D01*
X12554728Y14904746D01*
X12563150Y14968714D01*
X12572707Y15041312D01*
X12573785Y15049500D01*
X12554728Y15194254D01*
X12531462Y15250422D01*
X12502015Y15321514D01*
X12502014Y15321516D01*
X12498855Y15329142D01*
X12409974Y15444974D01*
X12403424Y15450000D01*
X12403421Y15450003D01*
X12300696Y15528827D01*
X12300694Y15528828D01*
X12294143Y15533855D01*
X12159254Y15589728D01*
X12014500Y15608785D01*
X12006312Y15607707D01*
X11877932Y15590806D01*
X11877930Y15590805D01*
X11869746Y15589728D01*
X11842869Y15578595D01*
X11742486Y15537015D01*
X11742484Y15537014D01*
X11734858Y15533855D01*
X11619026Y15444974D01*
X11530145Y15329142D01*
X11526986Y15321516D01*
X11526985Y15321514D01*
X11497538Y15250422D01*
X11474272Y15194254D01*
X11455215Y15049500D01*
X9622519Y15049500D01*
X9589774Y15092174D01*
X9583224Y15097200D01*
X9583221Y15097203D01*
X9480496Y15176027D01*
X9480494Y15176028D01*
X9473943Y15181055D01*
X9339054Y15236928D01*
X9194300Y15255985D01*
X9152046Y15250422D01*
X9081898Y15261361D01*
X9028799Y15308489D01*
X9009600Y15375344D01*
X9009600Y15528423D01*
X9029602Y15596544D01*
X9083258Y15643037D01*
X9152046Y15653345D01*
X9213800Y15645215D01*
X9221988Y15646293D01*
X9350366Y15663194D01*
X9358554Y15664272D01*
X9493443Y15720145D01*
X9504612Y15728715D01*
X9602721Y15803997D01*
X9602724Y15804000D01*
X9609274Y15809026D01*
X9698155Y15924858D01*
X9702249Y15934740D01*
X9750869Y16052120D01*
X9754028Y16059746D01*
X9756708Y16080097D01*
X9772007Y16196312D01*
X9773085Y16204500D01*
X9765166Y16264653D01*
X9755106Y16341068D01*
X9755105Y16341070D01*
X9754028Y16349254D01*
X9719017Y16433777D01*
X9701315Y16476514D01*
X9701314Y16476516D01*
X9698155Y16484142D01*
X9638306Y16562139D01*
X9614301Y16593423D01*
X9614300Y16593424D01*
X9609274Y16599974D01*
X9602724Y16605000D01*
X9602721Y16605003D01*
X9499996Y16683827D01*
X9499994Y16683828D01*
X9493443Y16688855D01*
X9485816Y16692014D01*
X9485392Y16692259D01*
X9436401Y16743644D01*
X9422967Y16813358D01*
X9449356Y16879268D01*
X9507190Y16920448D01*
X9531947Y16926297D01*
X9642654Y16940872D01*
X9652659Y16945016D01*
X9660679Y16948338D01*
X9777543Y16996745D01*
X9843493Y17047350D01*
X9909709Y17072950D01*
X9979258Y17058686D01*
X10029313Y17010387D01*
X10032085Y17005586D01*
X10035245Y16997958D01*
X10040268Y16991412D01*
X10040269Y16991410D01*
X10115972Y16892752D01*
X10124126Y16882126D01*
X10130676Y16877100D01*
X10130679Y16877097D01*
X10233404Y16798273D01*
X10239957Y16793245D01*
X10374846Y16737372D01*
X10519600Y16718315D01*
X10527788Y16719393D01*
X10656166Y16736294D01*
X10664354Y16737372D01*
X10799243Y16793245D01*
X10805796Y16798273D01*
X10837630Y16822700D01*
X19997915Y16822700D01*
X19998993Y16814512D01*
X20015088Y16692259D01*
X20016972Y16677946D01*
X20020131Y16670320D01*
X20065822Y16560014D01*
X20072845Y16543058D01*
X20077872Y16536507D01*
X20151633Y16440380D01*
X20161726Y16427226D01*
X20168276Y16422200D01*
X20168279Y16422197D01*
X20263332Y16349260D01*
X20277557Y16338345D01*
X20412446Y16282472D01*
X20557200Y16263415D01*
X20592415Y16268051D01*
X20662564Y16257111D01*
X20697956Y16232224D01*
X21120950Y15809230D01*
X21154976Y15746918D01*
X21157339Y15709743D01*
X21157383Y15709235D01*
X21156423Y15698257D01*
X21159275Y15687613D01*
X21159520Y15684813D01*
X21159563Y15683831D01*
X21160000Y15681352D01*
X21160000Y15670328D01*
X21163770Y15659970D01*
X21163770Y15659968D01*
X21165893Y15654136D01*
X21171576Y15632928D01*
X21174568Y15615960D01*
X21180081Y15606410D01*
X21180951Y15604020D01*
X21181342Y15603268D01*
X21182594Y15600582D01*
X21185448Y15589934D01*
X21191769Y15580907D01*
X21192982Y15578306D01*
X21193311Y15577511D01*
X21194587Y15575302D01*
X21198355Y15564947D01*
X21205439Y15556505D01*
X21205440Y15556503D01*
X21209428Y15551751D01*
X21222028Y15533756D01*
X21230640Y15518840D01*
X21239086Y15511753D01*
X21243837Y15507766D01*
X21259366Y15492237D01*
X21262859Y15488075D01*
X21270440Y15479040D01*
X21279988Y15473527D01*
X21283639Y15470464D01*
X21291743Y15463037D01*
X22454295Y14300485D01*
X22488321Y14238173D01*
X22491200Y14211390D01*
X22491200Y13219510D01*
X22471198Y13151389D01*
X22417542Y13104896D01*
X22347268Y13094792D01*
X22282688Y13124286D01*
X22276105Y13130415D01*
X22219353Y13187167D01*
X22185327Y13249479D01*
X22183526Y13259816D01*
X22172606Y13342768D01*
X22172605Y13342770D01*
X22171528Y13350954D01*
X22151722Y13398770D01*
X22118815Y13478214D01*
X22118814Y13478216D01*
X22115655Y13485842D01*
X22026774Y13601674D01*
X22020224Y13606700D01*
X22020221Y13606703D01*
X21917496Y13685527D01*
X21917494Y13685528D01*
X21910943Y13690555D01*
X21776054Y13746428D01*
X21631300Y13765485D01*
X21623112Y13764407D01*
X21494732Y13747506D01*
X21494730Y13747505D01*
X21486546Y13746428D01*
X21438730Y13726622D01*
X21359286Y13693715D01*
X21359284Y13693714D01*
X21351658Y13690555D01*
X21235826Y13601674D01*
X21146945Y13485842D01*
X21143786Y13478216D01*
X21143785Y13478214D01*
X21110878Y13398770D01*
X21091072Y13350954D01*
X21089995Y13342770D01*
X21089994Y13342768D01*
X21075141Y13229945D01*
X21072015Y13206200D01*
X21073093Y13198012D01*
X21084936Y13108057D01*
X21091072Y13061446D01*
X21098270Y13044068D01*
X21139279Y12945066D01*
X21146945Y12926558D01*
X21151972Y12920007D01*
X21225159Y12824628D01*
X21235826Y12810726D01*
X21242376Y12805700D01*
X21242379Y12805697D01*
X21300558Y12761055D01*
X21342425Y12703717D01*
X21346647Y12632846D01*
X21311883Y12570943D01*
X21249170Y12537662D01*
X21207408Y12536171D01*
X21144088Y12544507D01*
X21135900Y12545585D01*
X21127712Y12544507D01*
X20999332Y12527606D01*
X20999330Y12527605D01*
X20991146Y12526528D01*
X20943994Y12506997D01*
X20863886Y12473815D01*
X20863884Y12473814D01*
X20856258Y12470655D01*
X20740426Y12381774D01*
X20651545Y12265942D01*
X20648386Y12258316D01*
X20648385Y12258314D01*
X20626251Y12204877D01*
X20595672Y12131054D01*
X20594595Y12122870D01*
X20594594Y12122868D01*
X20579741Y12010045D01*
X20576615Y11986300D01*
X20577693Y11978112D01*
X20583040Y11937500D01*
X20595672Y11841546D01*
X20604070Y11821272D01*
X20646970Y11717704D01*
X20651545Y11706658D01*
X20694855Y11650215D01*
X20721795Y11615107D01*
X20740426Y11590826D01*
X20746976Y11585800D01*
X20746979Y11585797D01*
X20762927Y11573560D01*
X20779235Y11561047D01*
X20780659Y11559954D01*
X20822526Y11502616D01*
X20826748Y11431745D01*
X20791984Y11369842D01*
X20780657Y11360028D01*
X20760126Y11344274D01*
X20755103Y11337728D01*
X20744946Y11324491D01*
X20671245Y11228442D01*
X20668086Y11220816D01*
X20668085Y11220814D01*
X20661935Y11205966D01*
X20615372Y11093554D01*
X20614295Y11085370D01*
X20614294Y11085368D01*
X20609563Y11049428D01*
X20596315Y10948800D01*
X20615372Y10804046D01*
X20671245Y10669158D01*
X20760126Y10553326D01*
X20766676Y10548300D01*
X20766679Y10548297D01*
X20861508Y10475532D01*
X20875957Y10464445D01*
X21010846Y10408572D01*
X21155600Y10389515D01*
X21163788Y10390593D01*
X21163789Y10390593D01*
X21273704Y10405063D01*
X21343853Y10394123D01*
X21396951Y10346995D01*
X21404679Y10331166D01*
X21405668Y10325560D01*
X21411181Y10316011D01*
X21412261Y10313045D01*
X21413594Y10310186D01*
X21416448Y10299534D01*
X21422771Y10290504D01*
X21437492Y10269480D01*
X21443397Y10260210D01*
X21456226Y10237989D01*
X21456229Y10237985D01*
X21461740Y10228440D01*
X21470187Y10221352D01*
X21489845Y10204857D01*
X21497949Y10197431D01*
X21943014Y9752366D01*
X21978197Y9727731D01*
X22000055Y9712426D01*
X22011734Y9704248D01*
X22065895Y9689736D01*
X22109408Y9678076D01*
X22109410Y9678076D01*
X22120057Y9675223D01*
X22231774Y9684997D01*
X22314677Y9723655D01*
X22323418Y9727731D01*
X22323419Y9727732D01*
X22333411Y9732391D01*
X22412709Y9811689D01*
X22417381Y9821707D01*
X22455446Y9903339D01*
X22460103Y9913326D01*
X22469877Y10025043D01*
X22466888Y10036200D01*
X22453686Y10085467D01*
X22440852Y10133366D01*
X22392734Y10202086D01*
X22064005Y10530815D01*
X22029979Y10593127D01*
X22027100Y10619910D01*
X22027100Y11240190D01*
X22047102Y11308311D01*
X22064005Y11329285D01*
X22359351Y11624631D01*
X22367455Y11632057D01*
X22387113Y11648552D01*
X22395560Y11655640D01*
X22401071Y11665185D01*
X22401074Y11665189D01*
X22413903Y11687410D01*
X22419808Y11696680D01*
X22434529Y11717704D01*
X22440852Y11726734D01*
X22443706Y11737386D01*
X22445040Y11740247D01*
X22446119Y11743213D01*
X22451632Y11752760D01*
X22453546Y11763616D01*
X22453548Y11763621D01*
X22458004Y11788890D01*
X22460382Y11799619D01*
X22467023Y11824406D01*
X22469877Y11835057D01*
X22468333Y11852709D01*
X22482323Y11922313D01*
X22531723Y11973305D01*
X22600849Y11989495D01*
X22647637Y11975554D01*
X22647747Y11975855D01*
X22652809Y11974012D01*
X22652818Y11974009D01*
X22753128Y11937500D01*
X22865272Y11937500D01*
X22970653Y11975855D01*
X22983101Y11986300D01*
X23048118Y12040856D01*
X23048119Y12040857D01*
X23056560Y12047940D01*
X23112632Y12145060D01*
X23127200Y12227677D01*
X23127200Y14195990D01*
X23147202Y14264111D01*
X23164105Y14285085D01*
X24857305Y15978285D01*
X24919617Y16012311D01*
X24990432Y16007246D01*
X25047268Y15964699D01*
X25072079Y15898179D01*
X25072400Y15889190D01*
X25072400Y13345893D01*
X25052398Y13277772D01*
X24994618Y13229484D01*
X24918639Y13198012D01*
X24904258Y13192055D01*
X24851261Y13151389D01*
X24798980Y13111272D01*
X24788426Y13103174D01*
X24699545Y12987342D01*
X24696386Y12979716D01*
X24696385Y12979714D01*
X24674367Y12926558D01*
X24643672Y12852454D01*
X24642595Y12844270D01*
X24642594Y12844268D01*
X24631862Y12762746D01*
X24624615Y12707700D01*
X24625693Y12699512D01*
X24639284Y12596279D01*
X24643672Y12562946D01*
X24662050Y12518577D01*
X24687461Y12457232D01*
X24699545Y12428058D01*
X24704572Y12421507D01*
X24780236Y12322900D01*
X24788426Y12312226D01*
X24794976Y12307200D01*
X24794979Y12307197D01*
X24897704Y12228373D01*
X24904257Y12223345D01*
X25039146Y12167472D01*
X25183900Y12148415D01*
X25192088Y12149493D01*
X25320466Y12166394D01*
X25328654Y12167472D01*
X25463543Y12223345D01*
X25470096Y12228373D01*
X25572821Y12307197D01*
X25572824Y12307200D01*
X25579374Y12312226D01*
X25587565Y12322900D01*
X25619809Y12364922D01*
X25677147Y12406789D01*
X25748018Y12411011D01*
X25808867Y12377313D01*
X30575466Y7610714D01*
X30717161Y7469020D01*
X30837095Y7349086D01*
X30871121Y7286774D01*
X30874000Y7259991D01*
X30874000Y3331877D01*
X30888568Y3249260D01*
X30944640Y3152140D01*
X30953081Y3145057D01*
X30953082Y3145056D01*
X30958431Y3140568D01*
X31030547Y3080055D01*
X31135928Y3041700D01*
X31248072Y3041700D01*
X31353453Y3080055D01*
X31425569Y3140568D01*
X31430918Y3145056D01*
X31430919Y3145057D01*
X31439360Y3152140D01*
X31495432Y3249260D01*
X31510000Y3331877D01*
X31510000Y4434900D01*
X33051815Y4434900D01*
X33052893Y4426712D01*
X33063978Y4342515D01*
X33070872Y4290146D01*
X33074031Y4282520D01*
X33119982Y4171586D01*
X33126745Y4155258D01*
X33215626Y4039426D01*
X33222176Y4034400D01*
X33222179Y4034397D01*
X33291908Y3980892D01*
X33331457Y3950545D01*
X33466346Y3894672D01*
X33611100Y3875615D01*
X33619288Y3876693D01*
X33635050Y3878768D01*
X33755854Y3894672D01*
X33890743Y3950545D01*
X33930292Y3980892D01*
X34000021Y4034397D01*
X34000024Y4034400D01*
X34006574Y4039426D01*
X34095455Y4155258D01*
X34102219Y4171586D01*
X34148169Y4282520D01*
X34151328Y4290146D01*
X34158223Y4342515D01*
X34169307Y4426712D01*
X34170385Y4434900D01*
X34155192Y4550302D01*
X34152406Y4571468D01*
X34152405Y4571470D01*
X34151328Y4579654D01*
X34095455Y4714542D01*
X34006574Y4830374D01*
X34000024Y4835400D01*
X34000021Y4835403D01*
X33897296Y4914227D01*
X33897294Y4914228D01*
X33890743Y4919255D01*
X33755854Y4975128D01*
X33611100Y4994185D01*
X33602912Y4993107D01*
X33474532Y4976206D01*
X33474530Y4976205D01*
X33466346Y4975128D01*
X33418530Y4955322D01*
X33339086Y4922415D01*
X33339084Y4922414D01*
X33331458Y4919255D01*
X33215626Y4830374D01*
X33126745Y4714542D01*
X33070872Y4579654D01*
X33069795Y4571470D01*
X33069794Y4571468D01*
X33067008Y4550302D01*
X33051815Y4434900D01*
X31510000Y4434900D01*
X31510000Y5390400D01*
X39703715Y5390400D01*
X39704793Y5382212D01*
X39720515Y5262792D01*
X39722772Y5245646D01*
X39778645Y5110758D01*
X39867526Y4994926D01*
X39874076Y4989900D01*
X39874079Y4989897D01*
X39972694Y4914227D01*
X39983357Y4906045D01*
X40118246Y4850172D01*
X40263000Y4831115D01*
X40271188Y4832193D01*
X40399566Y4849094D01*
X40407754Y4850172D01*
X40542643Y4906045D01*
X40553306Y4914227D01*
X40651921Y4989897D01*
X40651924Y4989900D01*
X40658474Y4994926D01*
X40747355Y5110758D01*
X40803228Y5245646D01*
X40805486Y5262792D01*
X40821207Y5382212D01*
X40822285Y5390400D01*
X40815492Y5442000D01*
X40804306Y5526968D01*
X40804305Y5526970D01*
X40803228Y5535154D01*
X40747355Y5670042D01*
X40658474Y5785874D01*
X40651924Y5790900D01*
X40651921Y5790903D01*
X40549196Y5869727D01*
X40549194Y5869728D01*
X40542643Y5874755D01*
X40407754Y5930628D01*
X40263000Y5949685D01*
X40254812Y5948607D01*
X40126432Y5931706D01*
X40126430Y5931705D01*
X40118246Y5930628D01*
X40070430Y5910822D01*
X39990986Y5877915D01*
X39990984Y5877914D01*
X39983358Y5874755D01*
X39867526Y5785874D01*
X39778645Y5670042D01*
X39722772Y5535154D01*
X39721695Y5526970D01*
X39721694Y5526968D01*
X39710508Y5442000D01*
X39703715Y5390400D01*
X31510000Y5390400D01*
X31510000Y7424508D01*
X31510479Y7435490D01*
X31512716Y7461061D01*
X31513677Y7472043D01*
X31509139Y7488980D01*
X31504183Y7507478D01*
X31501805Y7518206D01*
X31497348Y7543483D01*
X31497345Y7543491D01*
X31495432Y7554340D01*
X31489923Y7563883D01*
X31488843Y7566849D01*
X31487504Y7569721D01*
X31484651Y7580366D01*
X31478329Y7589395D01*
X31478327Y7589399D01*
X31463609Y7610419D01*
X31457704Y7619687D01*
X31444871Y7641914D01*
X31439360Y7651460D01*
X31411255Y7675043D01*
X31403150Y7682469D01*
X31025186Y8060434D01*
X30209097Y8876523D01*
X30175072Y8938835D01*
X30180137Y9009651D01*
X30222684Y9066486D01*
X30289204Y9091297D01*
X30314639Y9090540D01*
X30399312Y9079393D01*
X30407500Y9078315D01*
X30415688Y9079393D01*
X30544066Y9096294D01*
X30552254Y9097372D01*
X30687143Y9153245D01*
X30693696Y9158273D01*
X30796421Y9237097D01*
X30796424Y9237100D01*
X30802974Y9242126D01*
X30891855Y9357958D01*
X30902665Y9384054D01*
X30933937Y9459552D01*
X30947728Y9492846D01*
X30950160Y9511314D01*
X30964935Y9623545D01*
X30966785Y9637600D01*
X30947728Y9782354D01*
X30920260Y9848666D01*
X39821828Y9848666D01*
X39822072Y9844231D01*
X39822072Y9844227D01*
X39827257Y9750007D01*
X39837426Y9565228D01*
X39838293Y9560868D01*
X39838294Y9560862D01*
X39855455Y9474590D01*
X39892806Y9286815D01*
X39894284Y9282605D01*
X39894285Y9282603D01*
X39912575Y9230520D01*
X39986862Y9018984D01*
X39988915Y9015033D01*
X39988917Y9015027D01*
X40100861Y8799525D01*
X40117717Y8767076D01*
X40120300Y8763461D01*
X40120304Y8763455D01*
X40179932Y8680015D01*
X40282761Y8536120D01*
X40478701Y8330723D01*
X40482197Y8327967D01*
X40482198Y8327966D01*
X40652040Y8194073D01*
X40701626Y8154982D01*
X40793403Y8101674D01*
X40943242Y8014640D01*
X40943248Y8014637D01*
X40947089Y8012406D01*
X40951212Y8010736D01*
X41206061Y7907511D01*
X41206069Y7907508D01*
X41210193Y7905838D01*
X41485688Y7837405D01*
X41727786Y7812600D01*
X45403511Y7812600D01*
X45614358Y7827529D01*
X45618713Y7828467D01*
X45618716Y7828467D01*
X45887519Y7886339D01*
X45887521Y7886339D01*
X45891866Y7887275D01*
X46158187Y7985526D01*
X46212145Y8014640D01*
X46404092Y8118209D01*
X46408008Y8120322D01*
X46636344Y8288973D01*
X46654263Y8306612D01*
X46835457Y8484983D01*
X46838638Y8488114D01*
X46949169Y8632945D01*
X47008150Y8710228D01*
X47008153Y8710232D01*
X47010855Y8713773D01*
X47149559Y8961445D01*
X47168209Y9009651D01*
X47250378Y9222048D01*
X47251981Y9226191D01*
X47252983Y9230512D01*
X47252985Y9230520D01*
X47306923Y9463229D01*
X47316078Y9502726D01*
X47340572Y9785534D01*
X47340328Y9789980D01*
X47327310Y10026523D01*
X47324974Y10068972D01*
X47318860Y10099712D01*
X47291015Y10239693D01*
X47269594Y10347385D01*
X47243381Y10422030D01*
X47177016Y10611007D01*
X47175538Y10615216D01*
X47172904Y10620288D01*
X47046735Y10863174D01*
X47046734Y10863176D01*
X47044683Y10867124D01*
X47042100Y10870739D01*
X47042096Y10870745D01*
X46906139Y11060997D01*
X46879639Y11098080D01*
X46683699Y11303477D01*
X46640056Y11337883D01*
X46464270Y11476462D01*
X46460774Y11479218D01*
X46298352Y11573560D01*
X46219158Y11619560D01*
X46219152Y11619563D01*
X46215311Y11621794D01*
X46189973Y11632057D01*
X45956339Y11726689D01*
X45956331Y11726692D01*
X45952207Y11728362D01*
X45676712Y11796795D01*
X45434614Y11821600D01*
X41758889Y11821600D01*
X41548042Y11806671D01*
X41543687Y11805733D01*
X41543684Y11805733D01*
X41274881Y11747861D01*
X41274879Y11747861D01*
X41270534Y11746925D01*
X41004213Y11648674D01*
X41000295Y11646560D01*
X40816768Y11547534D01*
X40754392Y11513878D01*
X40526056Y11345227D01*
X40522877Y11342098D01*
X40522874Y11342095D01*
X40426760Y11247478D01*
X40323762Y11146086D01*
X40282048Y11091427D01*
X40162261Y10934468D01*
X40151545Y10920427D01*
X40012841Y10672755D01*
X40011236Y10668606D01*
X40011234Y10668602D01*
X39974152Y10572750D01*
X39910419Y10408009D01*
X39909417Y10403688D01*
X39909415Y10403680D01*
X39877265Y10264973D01*
X39846322Y10131474D01*
X39821828Y9848666D01*
X30920260Y9848666D01*
X30902540Y9891446D01*
X30895015Y9909614D01*
X30895014Y9909616D01*
X30891855Y9917242D01*
X30817563Y10014061D01*
X30808001Y10026523D01*
X30808000Y10026524D01*
X30802974Y10033074D01*
X30796424Y10038100D01*
X30796421Y10038103D01*
X30693696Y10116927D01*
X30693694Y10116928D01*
X30687143Y10121955D01*
X30552254Y10177828D01*
X30528510Y10180954D01*
X30415688Y10195807D01*
X30407500Y10196885D01*
X30399312Y10195807D01*
X30270932Y10178906D01*
X30270930Y10178905D01*
X30262746Y10177828D01*
X30214930Y10158022D01*
X30135486Y10125115D01*
X30135484Y10125114D01*
X30127858Y10121955D01*
X30012026Y10033074D01*
X29923145Y9917242D01*
X29919986Y9909616D01*
X29919985Y9909614D01*
X29912460Y9891446D01*
X29867272Y9782354D01*
X29848215Y9637600D01*
X29850065Y9623545D01*
X29860440Y9544739D01*
X29849500Y9474590D01*
X29802372Y9421492D01*
X29734018Y9402302D01*
X29666140Y9423113D01*
X29646423Y9439198D01*
X29190117Y9895504D01*
X29156091Y9957816D01*
X29161156Y10028631D01*
X29203703Y10085467D01*
X29230994Y10101008D01*
X29231494Y10101215D01*
X29295543Y10127745D01*
X29302096Y10132773D01*
X29404821Y10211597D01*
X29404824Y10211600D01*
X29411374Y10216626D01*
X29427767Y10237989D01*
X29455814Y10274542D01*
X29500255Y10332458D01*
X29504626Y10343009D01*
X29552969Y10459720D01*
X29556128Y10467346D01*
X29560010Y10496828D01*
X29574107Y10603912D01*
X29575185Y10612100D01*
X29567933Y10667185D01*
X29557206Y10748668D01*
X29557205Y10748670D01*
X29556128Y10756854D01*
X29526993Y10827192D01*
X29503415Y10884114D01*
X29503414Y10884116D01*
X29500255Y10891742D01*
X29411374Y11007574D01*
X29404824Y11012600D01*
X29404821Y11012603D01*
X29302096Y11091427D01*
X29302094Y11091428D01*
X29295543Y11096455D01*
X29178679Y11144862D01*
X29168283Y11149168D01*
X29160654Y11152328D01*
X29105015Y11159653D01*
X29024088Y11170307D01*
X29015900Y11171385D01*
X29007712Y11170307D01*
X28879332Y11153406D01*
X28879330Y11153405D01*
X28871146Y11152328D01*
X28860734Y11148015D01*
X28743886Y11099615D01*
X28743884Y11099614D01*
X28736258Y11096455D01*
X28620426Y11007574D01*
X28531545Y10891742D01*
X28528385Y10884114D01*
X28528383Y10884110D01*
X28504806Y10827192D01*
X28460257Y10771912D01*
X28392894Y10749492D01*
X28324103Y10767051D01*
X28299303Y10786317D01*
X26491820Y12593800D01*
X28504015Y12593800D01*
X28505093Y12585612D01*
X28517841Y12488783D01*
X28523072Y12449046D01*
X28526231Y12441420D01*
X28557918Y12364922D01*
X28578945Y12314158D01*
X28667826Y12198326D01*
X28674376Y12193300D01*
X28674379Y12193297D01*
X28777104Y12114473D01*
X28783657Y12109445D01*
X28918546Y12053572D01*
X29063300Y12034515D01*
X29071488Y12035593D01*
X29199866Y12052494D01*
X29208054Y12053572D01*
X29342943Y12109445D01*
X29349496Y12114473D01*
X29452221Y12193297D01*
X29452224Y12193300D01*
X29458774Y12198326D01*
X29547655Y12314158D01*
X29568683Y12364922D01*
X29600369Y12441420D01*
X29603528Y12449046D01*
X29608760Y12488783D01*
X29621507Y12585612D01*
X29622585Y12593800D01*
X29615592Y12646915D01*
X29604606Y12730368D01*
X29604605Y12730370D01*
X29603528Y12738554D01*
X29567875Y12824628D01*
X29550815Y12865814D01*
X29550814Y12865816D01*
X29547655Y12873442D01*
X29503214Y12931358D01*
X29463801Y12982723D01*
X29463800Y12982724D01*
X29458774Y12989274D01*
X29452224Y12994300D01*
X29452221Y12994303D01*
X29349496Y13073127D01*
X29349494Y13073128D01*
X29342943Y13078155D01*
X29208054Y13134028D01*
X29063300Y13153085D01*
X29039555Y13149959D01*
X28926732Y13135106D01*
X28926730Y13135105D01*
X28918546Y13134028D01*
X28909824Y13130415D01*
X28791286Y13081315D01*
X28791284Y13081314D01*
X28783658Y13078155D01*
X28667826Y12989274D01*
X28662803Y12982728D01*
X28644715Y12959155D01*
X28578945Y12873442D01*
X28575786Y12865816D01*
X28575785Y12865814D01*
X28558725Y12824628D01*
X28523072Y12738554D01*
X28521995Y12730370D01*
X28521994Y12730368D01*
X28511008Y12646915D01*
X28504015Y12593800D01*
X26491820Y12593800D01*
X26188777Y12896843D01*
X26154751Y12959155D01*
X26159816Y13029970D01*
X26202363Y13086806D01*
X26248995Y13105799D01*
X26248390Y13108057D01*
X26256366Y13110194D01*
X26264554Y13111272D01*
X26399443Y13167145D01*
X26405996Y13172173D01*
X26508721Y13250997D01*
X26508724Y13251000D01*
X26515274Y13256026D01*
X26551299Y13302974D01*
X26599128Y13365307D01*
X26604155Y13371858D01*
X26610356Y13386827D01*
X26643475Y13466785D01*
X26660028Y13506746D01*
X26679085Y13651500D01*
X26660028Y13796254D01*
X26610565Y13915668D01*
X26607315Y13923514D01*
X26607314Y13923516D01*
X26604155Y13931142D01*
X26537178Y14018428D01*
X26520301Y14040423D01*
X26520300Y14040424D01*
X26515274Y14046974D01*
X26508724Y14052000D01*
X26508721Y14052003D01*
X26405996Y14130827D01*
X26405994Y14130828D01*
X26399443Y14135855D01*
X26264554Y14191728D01*
X26119800Y14210785D01*
X26111612Y14209707D01*
X25983232Y14192806D01*
X25983230Y14192805D01*
X25975046Y14191728D01*
X25888152Y14155735D01*
X25882619Y14153443D01*
X25812029Y14145854D01*
X25748542Y14177633D01*
X25712314Y14238691D01*
X25708400Y14269852D01*
X25708400Y14904497D01*
X36991624Y14904497D01*
X36993528Y14883574D01*
X37005391Y14753223D01*
X37010366Y14698550D01*
X37068754Y14500166D01*
X37071611Y14494701D01*
X37161708Y14322361D01*
X37161711Y14322357D01*
X37164563Y14316901D01*
X37168423Y14312101D01*
X37168423Y14312100D01*
X37171899Y14307777D01*
X37294143Y14155735D01*
X37452560Y14022808D01*
X37633778Y13923182D01*
X37830896Y13860653D01*
X37837013Y13859967D01*
X37837017Y13859966D01*
X37913037Y13851439D01*
X37991840Y13842600D01*
X39003234Y13842600D01*
X39157011Y13857678D01*
X39354983Y13917449D01*
X39460676Y13973647D01*
X39532133Y14011641D01*
X39532136Y14011643D01*
X39537575Y14014535D01*
X39542345Y14018426D01*
X39542349Y14018428D01*
X39693057Y14141342D01*
X39693060Y14141345D01*
X39697832Y14145237D01*
X39706517Y14155735D01*
X39825722Y14299829D01*
X39825725Y14299834D01*
X39829650Y14304578D01*
X39833717Y14312100D01*
X39925078Y14481068D01*
X39925080Y14481073D01*
X39928008Y14486488D01*
X39989160Y14684037D01*
X39991331Y14704691D01*
X40010132Y14883574D01*
X40010132Y14883576D01*
X40010776Y14889703D01*
X39995489Y15057688D01*
X39992593Y15089509D01*
X39992593Y15089510D01*
X39992034Y15095650D01*
X39933646Y15294034D01*
X39895212Y15367552D01*
X39840692Y15471839D01*
X39840689Y15471843D01*
X39837837Y15477299D01*
X39832289Y15484200D01*
X39747277Y15589934D01*
X39708257Y15638465D01*
X39549840Y15771392D01*
X39368622Y15871018D01*
X39171504Y15933547D01*
X39165387Y15934233D01*
X39165383Y15934234D01*
X39089363Y15942761D01*
X39010560Y15951600D01*
X37999166Y15951600D01*
X37845389Y15936522D01*
X37647417Y15876751D01*
X37586100Y15844148D01*
X37470267Y15782559D01*
X37470264Y15782557D01*
X37464825Y15779665D01*
X37460055Y15775774D01*
X37460051Y15775772D01*
X37309343Y15652858D01*
X37309340Y15652855D01*
X37304568Y15648963D01*
X37300641Y15644216D01*
X37300639Y15644214D01*
X37176678Y15494371D01*
X37176675Y15494366D01*
X37172750Y15489622D01*
X37169820Y15484203D01*
X37169818Y15484200D01*
X37077322Y15313132D01*
X37077320Y15313127D01*
X37074392Y15307712D01*
X37013240Y15110163D01*
X37012596Y15104038D01*
X37012596Y15104037D01*
X36992511Y14912932D01*
X36991624Y14904497D01*
X25708400Y14904497D01*
X25708400Y15679600D01*
X29412715Y15679600D01*
X29413793Y15671412D01*
X29424963Y15586569D01*
X29431772Y15534846D01*
X29434931Y15527220D01*
X29468999Y15444974D01*
X29487645Y15399958D01*
X29509690Y15371229D01*
X29557832Y15308489D01*
X29576526Y15284126D01*
X29583076Y15279100D01*
X29583079Y15279097D01*
X29642153Y15233768D01*
X29692357Y15195245D01*
X29827246Y15139372D01*
X29972000Y15120315D01*
X29980188Y15121393D01*
X30108566Y15138294D01*
X30116754Y15139372D01*
X30251643Y15195245D01*
X30301847Y15233768D01*
X30360921Y15279097D01*
X30360924Y15279100D01*
X30367474Y15284126D01*
X30386169Y15308489D01*
X30434310Y15371229D01*
X30456355Y15399958D01*
X30475002Y15444974D01*
X30509069Y15527220D01*
X30512228Y15534846D01*
X30519038Y15586569D01*
X30530207Y15671412D01*
X30531285Y15679600D01*
X30524947Y15727741D01*
X30535886Y15797888D01*
X30583014Y15850987D01*
X30651368Y15870177D01*
X30719246Y15849366D01*
X30726573Y15844148D01*
X30772079Y15809230D01*
X30779357Y15803645D01*
X30914246Y15747772D01*
X31059000Y15728715D01*
X31067188Y15729793D01*
X31195566Y15746694D01*
X31203754Y15747772D01*
X31338643Y15803645D01*
X31345656Y15809026D01*
X31447921Y15887497D01*
X31447924Y15887500D01*
X31454474Y15892526D01*
X31474257Y15918307D01*
X31538328Y16001807D01*
X31543355Y16008358D01*
X31568279Y16068528D01*
X31588196Y16116613D01*
X31599228Y16143246D01*
X31601293Y16158927D01*
X31617207Y16279812D01*
X31617207Y16279813D01*
X31618285Y16288000D01*
X31608053Y16365718D01*
X31600306Y16424568D01*
X31600305Y16424570D01*
X31599228Y16432754D01*
X31553538Y16543058D01*
X31546515Y16560014D01*
X31546514Y16560016D01*
X31543355Y16567642D01*
X31478572Y16652069D01*
X31459501Y16676923D01*
X31459500Y16676924D01*
X31454474Y16683474D01*
X31447924Y16688500D01*
X31447921Y16688503D01*
X31345196Y16767327D01*
X31345194Y16767328D01*
X31338643Y16772355D01*
X31203754Y16828228D01*
X31059000Y16847285D01*
X31050812Y16846207D01*
X30922432Y16829306D01*
X30922430Y16829305D01*
X30914246Y16828228D01*
X30881133Y16814512D01*
X30786986Y16775515D01*
X30786984Y16775514D01*
X30779358Y16772355D01*
X30663526Y16683474D01*
X30574645Y16567642D01*
X30571486Y16560016D01*
X30571485Y16560014D01*
X30564462Y16543058D01*
X30518772Y16432754D01*
X30517695Y16424570D01*
X30517694Y16424568D01*
X30509947Y16365718D01*
X30499715Y16288000D01*
X30502817Y16264442D01*
X30506053Y16239861D01*
X30495114Y16169712D01*
X30447986Y16116613D01*
X30379632Y16097423D01*
X30311754Y16118234D01*
X30304427Y16123452D01*
X30258196Y16158927D01*
X30258194Y16158928D01*
X30251643Y16163955D01*
X30133991Y16212688D01*
X30124383Y16216668D01*
X30116754Y16219828D01*
X29972000Y16238885D01*
X29963812Y16237807D01*
X29835432Y16220906D01*
X29835430Y16220905D01*
X29827246Y16219828D01*
X29818029Y16216010D01*
X29699986Y16167115D01*
X29699984Y16167114D01*
X29692358Y16163955D01*
X29576526Y16075074D01*
X29487645Y15959242D01*
X29484486Y15951616D01*
X29484485Y15951614D01*
X29457927Y15887497D01*
X29431772Y15824354D01*
X29430695Y15816170D01*
X29430694Y15816168D01*
X29418715Y15725173D01*
X29412715Y15679600D01*
X25708400Y15679600D01*
X25708400Y19551600D01*
X29068315Y19551600D01*
X29069393Y19543412D01*
X29082665Y19442603D01*
X29087372Y19406846D01*
X29143245Y19271958D01*
X29148272Y19265407D01*
X29208327Y19187142D01*
X29232126Y19156126D01*
X29238676Y19151100D01*
X29238679Y19151097D01*
X29341404Y19072273D01*
X29347957Y19067245D01*
X29482846Y19011372D01*
X29627600Y18992315D01*
X29635788Y18993393D01*
X29764166Y19010294D01*
X29772354Y19011372D01*
X29907243Y19067245D01*
X29913796Y19072273D01*
X30016521Y19151097D01*
X30016524Y19151100D01*
X30023074Y19156126D01*
X30046874Y19187142D01*
X30106928Y19265407D01*
X30111955Y19271958D01*
X30167828Y19406846D01*
X30172536Y19442603D01*
X30185807Y19543412D01*
X30186885Y19551600D01*
X30178170Y19617800D01*
X32323515Y19617800D01*
X32342572Y19473046D01*
X32398445Y19338158D01*
X32487326Y19222326D01*
X32493876Y19217300D01*
X32493879Y19217297D01*
X32596604Y19138473D01*
X32603157Y19133445D01*
X32738046Y19077572D01*
X32882800Y19058515D01*
X32890988Y19059593D01*
X33019366Y19076494D01*
X33027554Y19077572D01*
X33162443Y19133445D01*
X33168996Y19138473D01*
X33271721Y19217297D01*
X33271724Y19217300D01*
X33278274Y19222326D01*
X33367155Y19338158D01*
X33423028Y19473046D01*
X33442085Y19617800D01*
X33436742Y19658387D01*
X33424106Y19754368D01*
X33424105Y19754370D01*
X33423028Y19762554D01*
X33367155Y19897442D01*
X33281810Y20008666D01*
X39821828Y20008666D01*
X39822072Y20004231D01*
X39822072Y20004227D01*
X39824799Y19954679D01*
X39837426Y19725228D01*
X39838293Y19720868D01*
X39838294Y19720862D01*
X39865439Y19584396D01*
X39892806Y19446815D01*
X39986862Y19178984D01*
X39988915Y19175033D01*
X39988917Y19175027D01*
X40044905Y19067245D01*
X40117717Y18927076D01*
X40120300Y18923461D01*
X40120304Y18923455D01*
X40153027Y18877664D01*
X40282761Y18696120D01*
X40478701Y18490723D01*
X40482197Y18487967D01*
X40482198Y18487966D01*
X40570274Y18418532D01*
X40701626Y18314982D01*
X40812078Y18250827D01*
X40943242Y18174640D01*
X40943248Y18174637D01*
X40947089Y18172406D01*
X40951212Y18170736D01*
X41206061Y18067511D01*
X41206069Y18067508D01*
X41210193Y18065838D01*
X41485688Y17997405D01*
X41727786Y17972600D01*
X45403511Y17972600D01*
X45614358Y17987529D01*
X45618713Y17988467D01*
X45618716Y17988467D01*
X45887519Y18046339D01*
X45887521Y18046339D01*
X45891866Y18047275D01*
X46158187Y18145526D01*
X46226571Y18182424D01*
X46404092Y18278209D01*
X46408008Y18280322D01*
X46636344Y18448973D01*
X46675955Y18487966D01*
X46804825Y18614828D01*
X46838638Y18648114D01*
X46943247Y18785185D01*
X47008150Y18870228D01*
X47008153Y18870232D01*
X47010855Y18873773D01*
X47149559Y19121445D01*
X47154202Y19133445D01*
X47230864Y19331607D01*
X47251981Y19386191D01*
X47252983Y19390512D01*
X47252985Y19390520D01*
X47305665Y19617800D01*
X47316078Y19662726D01*
X47340572Y19945534D01*
X47340211Y19952103D01*
X47332230Y20097127D01*
X47324974Y20228972D01*
X47311679Y20295813D01*
X47274445Y20482997D01*
X47269594Y20507385D01*
X47238016Y20597307D01*
X47177016Y20771007D01*
X47175538Y20775216D01*
X47147807Y20828602D01*
X47046735Y21023174D01*
X47046734Y21023176D01*
X47044683Y21027124D01*
X47042100Y21030739D01*
X47042096Y21030745D01*
X46883667Y21252443D01*
X46879639Y21258080D01*
X46683699Y21463477D01*
X46627375Y21507880D01*
X46464270Y21636462D01*
X46460774Y21639218D01*
X46300673Y21732212D01*
X46219158Y21779560D01*
X46219152Y21779563D01*
X46215311Y21781794D01*
X46154167Y21806560D01*
X45956339Y21886689D01*
X45956331Y21886692D01*
X45952207Y21888362D01*
X45676712Y21956795D01*
X45434614Y21981600D01*
X41758889Y21981600D01*
X41548042Y21966671D01*
X41543687Y21965733D01*
X41543684Y21965733D01*
X41274881Y21907861D01*
X41274879Y21907861D01*
X41270534Y21906925D01*
X41004213Y21808674D01*
X40754392Y21673878D01*
X40526056Y21505227D01*
X40522877Y21502098D01*
X40522874Y21502095D01*
X40451527Y21431860D01*
X40323762Y21306086D01*
X40306909Y21284003D01*
X40160820Y21092580D01*
X40151545Y21080427D01*
X40012841Y20832755D01*
X40011236Y20828606D01*
X40011234Y20828602D01*
X39949462Y20668930D01*
X39910419Y20568009D01*
X39909417Y20563688D01*
X39909415Y20563680D01*
X39893398Y20494577D01*
X39846322Y20291474D01*
X39821828Y20008666D01*
X33281810Y20008666D01*
X33278274Y20013274D01*
X33271724Y20018300D01*
X33271721Y20018303D01*
X33168996Y20097127D01*
X33168994Y20097128D01*
X33162443Y20102155D01*
X33027554Y20158028D01*
X32882800Y20177085D01*
X32874612Y20176007D01*
X32746232Y20159106D01*
X32746230Y20159105D01*
X32738046Y20158028D01*
X32690230Y20138222D01*
X32610786Y20105315D01*
X32610784Y20105314D01*
X32603158Y20102155D01*
X32521003Y20039115D01*
X32499741Y20022800D01*
X32487326Y20013274D01*
X32398445Y19897442D01*
X32342572Y19762554D01*
X32341495Y19754370D01*
X32341494Y19754368D01*
X32328858Y19658387D01*
X32323515Y19617800D01*
X30178170Y19617800D01*
X30177092Y19625988D01*
X30168906Y19688168D01*
X30168905Y19688170D01*
X30167828Y19696354D01*
X30111955Y19831242D01*
X30023074Y19947074D01*
X30016524Y19952100D01*
X30016521Y19952103D01*
X29913796Y20030927D01*
X29913794Y20030928D01*
X29907243Y20035955D01*
X29772354Y20091828D01*
X29627600Y20110885D01*
X29619412Y20109807D01*
X29491032Y20092906D01*
X29491030Y20092905D01*
X29482846Y20091828D01*
X29435030Y20072022D01*
X29355586Y20039115D01*
X29355584Y20039114D01*
X29347958Y20035955D01*
X29232126Y19947074D01*
X29143245Y19831242D01*
X29087372Y19696354D01*
X29086295Y19688170D01*
X29086294Y19688168D01*
X29078108Y19625988D01*
X29068315Y19551600D01*
X25708400Y19551600D01*
X25708400Y20883500D01*
X26586015Y20883500D01*
X26587093Y20875312D01*
X26600271Y20775216D01*
X26605072Y20738746D01*
X26660945Y20603858D01*
X26749826Y20488026D01*
X26756376Y20483000D01*
X26756379Y20482997D01*
X26859104Y20404173D01*
X26865657Y20399145D01*
X27000546Y20343272D01*
X27145300Y20324215D01*
X27153488Y20325293D01*
X27281866Y20342194D01*
X27290054Y20343272D01*
X27424943Y20399145D01*
X27431496Y20404173D01*
X27534221Y20482997D01*
X27534224Y20483000D01*
X27540774Y20488026D01*
X27629655Y20603858D01*
X27685528Y20738746D01*
X27690330Y20775216D01*
X27703507Y20875312D01*
X27704585Y20883500D01*
X27691370Y20983878D01*
X27686606Y21020068D01*
X27686605Y21020070D01*
X27685528Y21028254D01*
X27644738Y21126729D01*
X27632815Y21155514D01*
X27632814Y21155516D01*
X27629655Y21163142D01*
X27540774Y21278974D01*
X27534224Y21284000D01*
X27534221Y21284003D01*
X27431496Y21362827D01*
X27431494Y21362828D01*
X27424943Y21367855D01*
X27290054Y21423728D01*
X27145300Y21442785D01*
X27137112Y21441707D01*
X27008732Y21424806D01*
X27008730Y21424805D01*
X27000546Y21423728D01*
X26965195Y21409085D01*
X26873286Y21371015D01*
X26873284Y21371014D01*
X26865658Y21367855D01*
X26749826Y21278974D01*
X26660945Y21163142D01*
X26657786Y21155516D01*
X26657785Y21155514D01*
X26645862Y21126729D01*
X26605072Y21028254D01*
X26603995Y21020070D01*
X26603994Y21020068D01*
X26599230Y20983878D01*
X26586015Y20883500D01*
X25708400Y20883500D01*
X25708400Y21204908D01*
X25708879Y21215890D01*
X25711116Y21241461D01*
X25712077Y21252443D01*
X25708703Y21265034D01*
X25702582Y21287881D01*
X25700204Y21298610D01*
X25695748Y21323879D01*
X25695746Y21323884D01*
X25693832Y21334740D01*
X25688319Y21344287D01*
X25687240Y21347253D01*
X25685906Y21350114D01*
X25683052Y21360766D01*
X25662008Y21390820D01*
X25656103Y21400090D01*
X25643274Y21422311D01*
X25643271Y21422315D01*
X25637760Y21431860D01*
X25609655Y21455443D01*
X25601551Y21462869D01*
X24372620Y22691800D01*
X26132715Y22691800D01*
X26133793Y22683612D01*
X26140810Y22630315D01*
X26151772Y22547046D01*
X26154931Y22539420D01*
X26197907Y22435668D01*
X26207645Y22412158D01*
X26212672Y22405607D01*
X26288115Y22307288D01*
X26296526Y22296326D01*
X26303076Y22291300D01*
X26303079Y22291297D01*
X26405804Y22212473D01*
X26412357Y22207445D01*
X26547246Y22151572D01*
X26692000Y22132515D01*
X26700188Y22133593D01*
X26828566Y22150494D01*
X26836754Y22151572D01*
X26971643Y22207445D01*
X26978196Y22212473D01*
X27080921Y22291297D01*
X27080924Y22291300D01*
X27087474Y22296326D01*
X27095886Y22307288D01*
X27171328Y22405607D01*
X27176355Y22412158D01*
X27186094Y22435668D01*
X27229069Y22539420D01*
X27232228Y22547046D01*
X27243191Y22630315D01*
X27250207Y22683612D01*
X27251285Y22691800D01*
X27235126Y22814540D01*
X27246065Y22884687D01*
X27293193Y22937786D01*
X27311824Y22947391D01*
X27445943Y23002945D01*
X27454512Y23009520D01*
X27555221Y23086797D01*
X27555224Y23086800D01*
X27561774Y23091826D01*
X27578609Y23113765D01*
X27606214Y23149742D01*
X27636798Y23189600D01*
X29412715Y23189600D01*
X29413793Y23181412D01*
X29430087Y23057648D01*
X29431772Y23044846D01*
X29434931Y23037220D01*
X29458854Y22979466D01*
X29487645Y22909958D01*
X29492672Y22903407D01*
X29560863Y22814539D01*
X29576526Y22794126D01*
X29583076Y22789100D01*
X29583079Y22789097D01*
X29684492Y22711280D01*
X29692357Y22705245D01*
X29827246Y22649372D01*
X29972000Y22630315D01*
X29980188Y22631393D01*
X30108566Y22648294D01*
X30116754Y22649372D01*
X30251643Y22705245D01*
X30259508Y22711280D01*
X30360921Y22789097D01*
X30360924Y22789100D01*
X30367474Y22794126D01*
X30383138Y22814539D01*
X30451328Y22903407D01*
X30456355Y22909958D01*
X30485147Y22979466D01*
X30509069Y23037220D01*
X30512228Y23044846D01*
X30513914Y23057648D01*
X30530207Y23181412D01*
X30531285Y23189600D01*
X30523651Y23247584D01*
X30513306Y23326168D01*
X30513305Y23326170D01*
X30512228Y23334354D01*
X30471742Y23432096D01*
X30459515Y23461614D01*
X30459514Y23461616D01*
X30456355Y23469242D01*
X30367474Y23585074D01*
X30360924Y23590100D01*
X30360921Y23590103D01*
X30258196Y23668927D01*
X30258194Y23668928D01*
X30251643Y23673955D01*
X30116754Y23729828D01*
X30058183Y23737539D01*
X30043652Y23739452D01*
X29972000Y23748885D01*
X29963812Y23747807D01*
X29835432Y23730906D01*
X29835430Y23730905D01*
X29827246Y23729828D01*
X29793636Y23715906D01*
X29699986Y23677115D01*
X29699984Y23677114D01*
X29692358Y23673955D01*
X29576526Y23585074D01*
X29487645Y23469242D01*
X29484486Y23461616D01*
X29484485Y23461614D01*
X29472258Y23432096D01*
X29431772Y23334354D01*
X29430695Y23326170D01*
X29430694Y23326168D01*
X29420349Y23247584D01*
X29412715Y23189600D01*
X27636798Y23189600D01*
X27650655Y23207658D01*
X27660750Y23232028D01*
X27703369Y23334920D01*
X27706528Y23342546D01*
X27708519Y23357665D01*
X27724507Y23479112D01*
X27724507Y23479113D01*
X27725585Y23487300D01*
X27719288Y23535132D01*
X27707606Y23623868D01*
X27707605Y23623870D01*
X27706528Y23632054D01*
X27650655Y23766942D01*
X27576496Y23863588D01*
X27566801Y23876223D01*
X27566800Y23876224D01*
X27561774Y23882774D01*
X27555223Y23887801D01*
X27555221Y23887803D01*
X27452496Y23966627D01*
X27452494Y23966628D01*
X27445943Y23971655D01*
X27311054Y24027528D01*
X27276356Y24032096D01*
X27244645Y24036271D01*
X27179717Y24064994D01*
X27174964Y24072200D01*
X39572715Y24072200D01*
X39573793Y24064012D01*
X39587794Y23957665D01*
X39591772Y23927446D01*
X39596620Y23915743D01*
X39641379Y23807686D01*
X39647645Y23792558D01*
X39736526Y23676726D01*
X39743076Y23671700D01*
X39743079Y23671697D01*
X39842872Y23595123D01*
X39852357Y23587845D01*
X39987246Y23531972D01*
X40132000Y23512915D01*
X40140188Y23513993D01*
X40268566Y23530894D01*
X40276754Y23531972D01*
X40411643Y23587845D01*
X40421128Y23595123D01*
X40520921Y23671697D01*
X40520924Y23671700D01*
X40527474Y23676726D01*
X40616355Y23792558D01*
X40622622Y23807686D01*
X40667380Y23915743D01*
X40672228Y23927446D01*
X40676207Y23957665D01*
X40690207Y24064012D01*
X40691285Y24072200D01*
X40690298Y24079700D01*
X42620715Y24079700D01*
X42621793Y24071512D01*
X42637635Y23951181D01*
X42639772Y23934946D01*
X42695645Y23800058D01*
X42716029Y23773493D01*
X42743618Y23737539D01*
X42784526Y23684226D01*
X42791076Y23679200D01*
X42791079Y23679197D01*
X42893804Y23600373D01*
X42900357Y23595345D01*
X43035246Y23539472D01*
X43180000Y23520415D01*
X43188188Y23521493D01*
X43316566Y23538394D01*
X43324754Y23539472D01*
X43459643Y23595345D01*
X43466196Y23600373D01*
X43568921Y23679197D01*
X43568924Y23679200D01*
X43575474Y23684226D01*
X43616383Y23737539D01*
X43643971Y23773493D01*
X43664355Y23800058D01*
X43720228Y23934946D01*
X43722366Y23951181D01*
X43738207Y24071512D01*
X43739285Y24079700D01*
X43724511Y24191923D01*
X43721306Y24216268D01*
X43721305Y24216270D01*
X43720228Y24224454D01*
X43683412Y24313336D01*
X43667515Y24351714D01*
X43667514Y24351716D01*
X43664355Y24359342D01*
X43608226Y24432491D01*
X43580501Y24468623D01*
X43580500Y24468624D01*
X43575474Y24475174D01*
X43568924Y24480200D01*
X43568921Y24480203D01*
X43466196Y24559027D01*
X43466194Y24559028D01*
X43459643Y24564055D01*
X43324754Y24619928D01*
X43307816Y24622158D01*
X43232153Y24632119D01*
X43180000Y24638985D01*
X43171812Y24637907D01*
X43043432Y24621006D01*
X43043430Y24621005D01*
X43035246Y24619928D01*
X43019742Y24613506D01*
X42907986Y24567215D01*
X42907984Y24567214D01*
X42900358Y24564055D01*
X42868905Y24539920D01*
X42792093Y24480980D01*
X42784526Y24475174D01*
X42695645Y24359342D01*
X42692486Y24351716D01*
X42692485Y24351714D01*
X42676588Y24313336D01*
X42639772Y24224454D01*
X42638695Y24216270D01*
X42638694Y24216268D01*
X42635489Y24191923D01*
X42620715Y24079700D01*
X40690298Y24079700D01*
X40686411Y24109225D01*
X40673306Y24208768D01*
X40673305Y24208770D01*
X40672228Y24216954D01*
X40636430Y24303377D01*
X40619515Y24344214D01*
X40619514Y24344216D01*
X40616355Y24351842D01*
X40527474Y24467674D01*
X40520924Y24472700D01*
X40520921Y24472703D01*
X40418196Y24551527D01*
X40418194Y24551528D01*
X40411643Y24556555D01*
X40291512Y24606315D01*
X40284383Y24609268D01*
X40276754Y24612428D01*
X40243781Y24616769D01*
X40156914Y24628205D01*
X40132000Y24631485D01*
X40123812Y24630407D01*
X39995432Y24613506D01*
X39995430Y24613505D01*
X39987246Y24612428D01*
X39939653Y24592714D01*
X39859986Y24559715D01*
X39859984Y24559714D01*
X39852358Y24556555D01*
X39736526Y24467674D01*
X39647645Y24351842D01*
X39644486Y24344216D01*
X39644485Y24344214D01*
X39627570Y24303377D01*
X39591772Y24216954D01*
X39590695Y24208770D01*
X39590694Y24208768D01*
X39577589Y24109225D01*
X39572715Y24072200D01*
X27174964Y24072200D01*
X27140626Y24124259D01*
X27139781Y24195250D01*
X27177451Y24255429D01*
X27184387Y24261155D01*
X27224321Y24291797D01*
X27224324Y24291800D01*
X27230874Y24296826D01*
X27257586Y24331637D01*
X27299821Y24386680D01*
X27319755Y24412658D01*
X27323562Y24421847D01*
X27372469Y24539920D01*
X27375628Y24547546D01*
X27377140Y24559027D01*
X27393607Y24684112D01*
X27394685Y24692300D01*
X27385101Y24765097D01*
X27376706Y24828868D01*
X27376705Y24828870D01*
X27375628Y24837054D01*
X27347518Y24904918D01*
X27322915Y24964314D01*
X27322914Y24964316D01*
X27319755Y24971942D01*
X27230874Y25087774D01*
X27224324Y25092800D01*
X27224321Y25092803D01*
X27121596Y25171627D01*
X27121594Y25171628D01*
X27115043Y25176655D01*
X26980154Y25232528D01*
X26835400Y25251585D01*
X26811655Y25248459D01*
X26698832Y25233606D01*
X26698830Y25233605D01*
X26690646Y25232528D01*
X26653830Y25217278D01*
X26563386Y25179815D01*
X26563384Y25179814D01*
X26555758Y25176655D01*
X26439926Y25087774D01*
X26351045Y24971942D01*
X26347886Y24964316D01*
X26347885Y24964314D01*
X26323282Y24904918D01*
X26295172Y24837054D01*
X26294095Y24828870D01*
X26294094Y24828868D01*
X26285699Y24765097D01*
X26276115Y24692300D01*
X26277193Y24684112D01*
X26293661Y24559027D01*
X26295172Y24547546D01*
X26298331Y24539920D01*
X26347239Y24421847D01*
X26351045Y24412658D01*
X26370979Y24386680D01*
X26413215Y24331637D01*
X26439926Y24296826D01*
X26446476Y24291800D01*
X26446479Y24291797D01*
X26527705Y24229470D01*
X26555757Y24207945D01*
X26690646Y24152072D01*
X26698834Y24150994D01*
X26757055Y24143329D01*
X26821982Y24114606D01*
X26861073Y24055341D01*
X26861918Y23984349D01*
X26824247Y23924171D01*
X26817312Y23918445D01*
X26777376Y23887801D01*
X26777372Y23887797D01*
X26770826Y23882774D01*
X26765803Y23876228D01*
X26756104Y23863588D01*
X26681945Y23766942D01*
X26626072Y23632054D01*
X26624995Y23623870D01*
X26624994Y23623868D01*
X26613312Y23535132D01*
X26607015Y23487300D01*
X26623174Y23364561D01*
X26612235Y23294414D01*
X26565107Y23241315D01*
X26546471Y23231707D01*
X26419986Y23179315D01*
X26419984Y23179314D01*
X26412358Y23176155D01*
X26296526Y23087274D01*
X26207645Y22971442D01*
X26204486Y22963816D01*
X26204485Y22963814D01*
X26182979Y22911893D01*
X26151772Y22836554D01*
X26150695Y22828370D01*
X26150694Y22828368D01*
X26140138Y22748185D01*
X26132715Y22691800D01*
X24372620Y22691800D01*
X23214905Y23849515D01*
X23180879Y23911827D01*
X23178000Y23938610D01*
X23178000Y24904918D01*
X23198002Y24973039D01*
X23251658Y25019532D01*
X23271390Y25026625D01*
X23288820Y25031295D01*
X23288826Y25031297D01*
X23294136Y25032720D01*
X23412200Y25087774D01*
X23489678Y25123902D01*
X23489683Y25123905D01*
X23494665Y25126228D01*
X23503758Y25132595D01*
X23671399Y25249978D01*
X23671402Y25249980D01*
X23675910Y25253137D01*
X23832363Y25409590D01*
X23836882Y25416043D01*
X23956115Y25586326D01*
X23956116Y25586328D01*
X23959272Y25590835D01*
X23961595Y25595817D01*
X23961598Y25595822D01*
X24050457Y25786382D01*
X24050457Y25786383D01*
X24052780Y25791364D01*
X24064780Y25836146D01*
X24108622Y25999768D01*
X24108622Y25999770D01*
X24110046Y26005083D01*
X24129330Y26225500D01*
X29728708Y26225500D01*
X29747839Y26006826D01*
X29804653Y25794797D01*
X29834525Y25730736D01*
X29895095Y25600841D01*
X29895098Y25600836D01*
X29897421Y25595854D01*
X29900577Y25591347D01*
X29900578Y25591345D01*
X30017290Y25424664D01*
X30023326Y25416043D01*
X30178543Y25260826D01*
X30183051Y25257669D01*
X30183054Y25257667D01*
X30329304Y25155262D01*
X30358354Y25134921D01*
X30363336Y25132598D01*
X30363341Y25132595D01*
X30447386Y25093405D01*
X30557297Y25042153D01*
X30769326Y24985339D01*
X30988000Y24966208D01*
X31206674Y24985339D01*
X31418703Y25042153D01*
X31528614Y25093405D01*
X31612659Y25132595D01*
X31612664Y25132598D01*
X31617646Y25134921D01*
X31646696Y25155262D01*
X31792946Y25257667D01*
X31792949Y25257669D01*
X31797457Y25260826D01*
X31952674Y25416043D01*
X31958711Y25424664D01*
X32030743Y25527536D01*
X34049712Y25527536D01*
X34049912Y25522208D01*
X34049912Y25522206D01*
X34052064Y25464901D01*
X34051305Y25464872D01*
X34051634Y25463484D01*
X34051940Y25463511D01*
X34051974Y25463123D01*
X34052065Y25461662D01*
X34052123Y25461415D01*
X34052248Y25459993D01*
X34058336Y25297831D01*
X34059431Y25292612D01*
X34072228Y25231621D01*
X34071461Y25231460D01*
X34072441Y25229184D01*
X34072537Y25228092D01*
X34073961Y25222778D01*
X34074064Y25222193D01*
X34075235Y25217290D01*
X34105539Y25072863D01*
X34126081Y25020846D01*
X34131575Y25006934D01*
X34132324Y25004959D01*
X34133697Y24999837D01*
X34136022Y24994851D01*
X34136023Y24994849D01*
X34136547Y24993725D01*
X34139534Y24986783D01*
X34189972Y24859064D01*
X34226873Y24798254D01*
X34228411Y24795374D01*
X34228490Y24795420D01*
X34231239Y24790659D01*
X34233565Y24785671D01*
X34236722Y24781163D01*
X34236724Y24781159D01*
X34238274Y24778945D01*
X34242781Y24772038D01*
X34296136Y24684112D01*
X34309221Y24662548D01*
X34312716Y24658521D01*
X34312717Y24658519D01*
X34359593Y24604500D01*
X34363155Y24599937D01*
X34365947Y24596610D01*
X34369105Y24592099D01*
X34375391Y24585813D01*
X34381461Y24579299D01*
X34453677Y24496078D01*
X34459876Y24488934D01*
X34488861Y24465168D01*
X34523909Y24436430D01*
X34531174Y24429848D01*
X34532306Y24428898D01*
X34536199Y24425005D01*
X34540703Y24421851D01*
X34540708Y24421847D01*
X34543536Y24419867D01*
X34551154Y24414090D01*
X34633501Y24346569D01*
X34633507Y24346565D01*
X34637629Y24343185D01*
X34664170Y24328077D01*
X34714955Y24299169D01*
X34724896Y24292878D01*
X34725260Y24292623D01*
X34725267Y24292619D01*
X34729771Y24289465D01*
X34734755Y24287141D01*
X34734760Y24287138D01*
X34737475Y24285872D01*
X34746552Y24281182D01*
X34781735Y24261155D01*
X34837398Y24229470D01*
X34905403Y24204785D01*
X34927098Y24196910D01*
X34937353Y24192667D01*
X34938948Y24191923D01*
X34938950Y24191922D01*
X34943937Y24189597D01*
X34949253Y24188173D01*
X34949255Y24188172D01*
X34950319Y24187887D01*
X34951302Y24187624D01*
X34961681Y24184357D01*
X35053471Y24151039D01*
X35154043Y24132852D01*
X35164216Y24130574D01*
X35172192Y24128437D01*
X35178590Y24127877D01*
X35190012Y24126348D01*
X35279669Y24110136D01*
X35283808Y24109941D01*
X35283815Y24109940D01*
X35302270Y24109070D01*
X35302277Y24109070D01*
X35303758Y24109000D01*
X35465312Y24109000D01*
X35545044Y24115765D01*
X35631333Y24123087D01*
X35631337Y24123088D01*
X35636644Y24123538D01*
X35641799Y24124876D01*
X35641805Y24124877D01*
X35853968Y24179944D01*
X35853967Y24179944D01*
X35859139Y24181286D01*
X36036441Y24261155D01*
X36063862Y24273507D01*
X36063865Y24273508D01*
X36068723Y24275697D01*
X36259403Y24404070D01*
X36278695Y24422473D01*
X36349835Y24490338D01*
X36425728Y24562736D01*
X36428965Y24567086D01*
X36559756Y24742876D01*
X36562942Y24747158D01*
X36567970Y24757046D01*
X36664702Y24947306D01*
X36664702Y24947307D01*
X36667120Y24952062D01*
X36676992Y24983854D01*
X36733703Y25166494D01*
X36735285Y25171589D01*
X36755414Y25323455D01*
X36764788Y25394181D01*
X36764788Y25394184D01*
X36765488Y25399464D01*
X36764866Y25416043D01*
X36763136Y25462099D01*
X36763895Y25462128D01*
X36763566Y25463516D01*
X36763260Y25463489D01*
X36763226Y25463877D01*
X36763135Y25465338D01*
X36763077Y25465585D01*
X36762952Y25467007D01*
X36756864Y25629169D01*
X36753558Y25644928D01*
X36742972Y25695379D01*
X36743739Y25695540D01*
X36742759Y25697816D01*
X36742663Y25698908D01*
X36741239Y25704222D01*
X36741136Y25704807D01*
X36739962Y25709722D01*
X36736781Y25724885D01*
X36709661Y25854137D01*
X36683625Y25920066D01*
X36682876Y25922041D01*
X36681503Y25927163D01*
X36678653Y25933275D01*
X36675666Y25940217D01*
X36625228Y26067936D01*
X36588327Y26128746D01*
X36586789Y26131626D01*
X36586710Y26131580D01*
X36583961Y26136341D01*
X36581635Y26141329D01*
X36578476Y26145841D01*
X36576926Y26148055D01*
X36572419Y26154962D01*
X36508747Y26259891D01*
X36508745Y26259894D01*
X36505979Y26264452D01*
X36455607Y26322500D01*
X36452045Y26327063D01*
X36449253Y26330390D01*
X36446095Y26334901D01*
X36439809Y26341187D01*
X36433739Y26347701D01*
X36358824Y26434033D01*
X36358822Y26434035D01*
X36355324Y26438066D01*
X36291292Y26490570D01*
X36284026Y26497152D01*
X36282894Y26498102D01*
X36279001Y26501995D01*
X36274497Y26505149D01*
X36274492Y26505153D01*
X36271664Y26507133D01*
X36264046Y26512910D01*
X36181699Y26580431D01*
X36181693Y26580435D01*
X36177571Y26583815D01*
X36100245Y26627831D01*
X36090304Y26634122D01*
X36089940Y26634377D01*
X36089933Y26634381D01*
X36085429Y26637535D01*
X36080445Y26639859D01*
X36080440Y26639862D01*
X36077725Y26641128D01*
X36068648Y26645818D01*
X36019720Y26673669D01*
X35977802Y26697530D01*
X35888102Y26730090D01*
X35877847Y26734333D01*
X35876252Y26735077D01*
X35876250Y26735078D01*
X35871263Y26737403D01*
X35865947Y26738827D01*
X35865945Y26738828D01*
X35864881Y26739113D01*
X35863898Y26739376D01*
X35853519Y26742643D01*
X35761729Y26775961D01*
X35661157Y26794148D01*
X35650984Y26796426D01*
X35643008Y26798563D01*
X35636610Y26799123D01*
X35625188Y26800652D01*
X35535531Y26816864D01*
X35531392Y26817059D01*
X35531385Y26817060D01*
X35512930Y26817930D01*
X35512923Y26817930D01*
X35511442Y26818000D01*
X35349888Y26818000D01*
X35270156Y26811235D01*
X35183867Y26803913D01*
X35183863Y26803912D01*
X35178556Y26803462D01*
X35173401Y26802124D01*
X35173395Y26802123D01*
X35000658Y26757289D01*
X34956061Y26745714D01*
X34849097Y26697530D01*
X34751338Y26653493D01*
X34751335Y26653492D01*
X34746477Y26651303D01*
X34555797Y26522930D01*
X34551940Y26519251D01*
X34551938Y26519249D01*
X34526004Y26494509D01*
X34389472Y26364264D01*
X34386289Y26359987D01*
X34386289Y26359986D01*
X34374789Y26344529D01*
X34252258Y26179842D01*
X34249842Y26175091D01*
X34249840Y26175087D01*
X34163406Y26005083D01*
X34148080Y25974938D01*
X34146498Y25969843D01*
X34092728Y25796674D01*
X34079915Y25755411D01*
X34079214Y25750122D01*
X34053290Y25554528D01*
X34049712Y25527536D01*
X32030743Y25527536D01*
X32075422Y25591345D01*
X32075423Y25591347D01*
X32078579Y25595854D01*
X32080902Y25600836D01*
X32080905Y25600841D01*
X32141475Y25730736D01*
X32171347Y25794797D01*
X32228161Y26006826D01*
X32247292Y26225500D01*
X32228161Y26444174D01*
X32171347Y26656203D01*
X32106590Y26795076D01*
X32080905Y26850159D01*
X32080902Y26850164D01*
X32078579Y26855146D01*
X32074135Y26861493D01*
X31955833Y27030446D01*
X31955831Y27030449D01*
X31952674Y27034957D01*
X31797457Y27190174D01*
X31792949Y27193331D01*
X31792946Y27193333D01*
X31622155Y27312922D01*
X31622153Y27312923D01*
X31617646Y27316079D01*
X31612664Y27318402D01*
X31612659Y27318405D01*
X31497533Y27372088D01*
X31418703Y27408847D01*
X31206674Y27465661D01*
X30988000Y27484792D01*
X30769326Y27465661D01*
X30557297Y27408847D01*
X30478467Y27372088D01*
X30363341Y27318405D01*
X30363336Y27318402D01*
X30358354Y27316079D01*
X30353847Y27312923D01*
X30353845Y27312922D01*
X30183054Y27193333D01*
X30183051Y27193331D01*
X30178543Y27190174D01*
X30023326Y27034957D01*
X30020169Y27030449D01*
X30020167Y27030446D01*
X29901865Y26861493D01*
X29897421Y26855146D01*
X29895098Y26850164D01*
X29895095Y26850159D01*
X29869410Y26795076D01*
X29804653Y26656203D01*
X29747839Y26444174D01*
X29728708Y26225500D01*
X24129330Y26225500D01*
X24110046Y26445917D01*
X24106486Y26459203D01*
X24054203Y26654326D01*
X24054202Y26654328D01*
X24052780Y26659636D01*
X24036863Y26693770D01*
X23961598Y26855178D01*
X23961595Y26855183D01*
X23959272Y26860165D01*
X23945702Y26879545D01*
X23835522Y27036899D01*
X23835520Y27036902D01*
X23832363Y27041410D01*
X23675910Y27197863D01*
X23671402Y27201020D01*
X23671399Y27201022D01*
X23499174Y27321615D01*
X23499172Y27321616D01*
X23494665Y27324772D01*
X23489683Y27327095D01*
X23489678Y27327098D01*
X23299118Y27415957D01*
X23299117Y27415957D01*
X23294136Y27418280D01*
X23288828Y27419702D01*
X23288826Y27419703D01*
X23085732Y27474122D01*
X23085730Y27474122D01*
X23080417Y27475546D01*
X22860000Y27494830D01*
X22639583Y27475546D01*
X22634270Y27474122D01*
X22634268Y27474122D01*
X22431174Y27419703D01*
X22431172Y27419702D01*
X22425864Y27418280D01*
X22420883Y27415957D01*
X22420882Y27415957D01*
X22230322Y27327098D01*
X22230317Y27327095D01*
X22225335Y27324772D01*
X22220828Y27321616D01*
X22220826Y27321615D01*
X22048601Y27201022D01*
X22048598Y27201020D01*
X22044090Y27197863D01*
X21887637Y27041410D01*
X21884480Y27036902D01*
X21884478Y27036899D01*
X21774298Y26879545D01*
X21760728Y26860165D01*
X21758405Y26855183D01*
X21758402Y26855178D01*
X21683137Y26693770D01*
X21667220Y26659636D01*
X21665798Y26654328D01*
X21665797Y26654326D01*
X21613514Y26459203D01*
X21609954Y26445917D01*
X21590670Y26225500D01*
X21609954Y26005083D01*
X21611378Y25999770D01*
X21611378Y25999768D01*
X21655221Y25836146D01*
X21667220Y25791364D01*
X21669543Y25786383D01*
X21669543Y25786382D01*
X21758402Y25595822D01*
X21758405Y25595817D01*
X21760728Y25590835D01*
X21763884Y25586328D01*
X21763885Y25586326D01*
X21883119Y25416043D01*
X21887637Y25409590D01*
X22044090Y25253137D01*
X22048598Y25249980D01*
X22048601Y25249978D01*
X22216242Y25132595D01*
X22225335Y25126228D01*
X22230317Y25123905D01*
X22230322Y25123902D01*
X22307800Y25087774D01*
X22425864Y25032720D01*
X22431174Y25031297D01*
X22431180Y25031295D01*
X22448610Y25026625D01*
X22509233Y24989674D01*
X22540255Y24925814D01*
X22542000Y24904918D01*
X22542000Y23774092D01*
X22541521Y23763110D01*
X22538323Y23726557D01*
X22541177Y23715906D01*
X22547818Y23691119D01*
X22550196Y23680390D01*
X22554652Y23655121D01*
X22554654Y23655116D01*
X22556568Y23644260D01*
X22562081Y23634713D01*
X22563160Y23631747D01*
X22564494Y23628886D01*
X22567348Y23618234D01*
X22573671Y23609204D01*
X22588392Y23588180D01*
X22594297Y23578910D01*
X22607126Y23556689D01*
X22607129Y23556685D01*
X22612640Y23547140D01*
X22621087Y23540052D01*
X22640745Y23523557D01*
X22648849Y23516131D01*
X25035495Y21129485D01*
X25069521Y21067173D01*
X25072400Y21040390D01*
X25072400Y18847690D01*
X25052398Y18779569D01*
X24998742Y18733076D01*
X24928468Y18722972D01*
X24898182Y18731281D01*
X24821683Y18762968D01*
X24814054Y18766128D01*
X24669300Y18785185D01*
X24661112Y18784107D01*
X24532732Y18767206D01*
X24532730Y18767205D01*
X24524546Y18766128D01*
X24476730Y18746322D01*
X24397286Y18713415D01*
X24397284Y18713414D01*
X24389658Y18710255D01*
X24273826Y18621374D01*
X24184945Y18505542D01*
X24181786Y18497916D01*
X24181785Y18497914D01*
X24171692Y18473547D01*
X24129072Y18370654D01*
X24127995Y18362470D01*
X24127994Y18362468D01*
X24113141Y18249645D01*
X24110015Y18225900D01*
X24111093Y18217712D01*
X24117058Y18172406D01*
X24129072Y18081146D01*
X24132231Y18073520D01*
X24180247Y17957601D01*
X24184945Y17946258D01*
X24189972Y17939707D01*
X24258262Y17850710D01*
X24273826Y17830426D01*
X24280376Y17825400D01*
X24280379Y17825397D01*
X24377051Y17751218D01*
X24389657Y17741545D01*
X24524546Y17685672D01*
X24669300Y17666615D01*
X24677488Y17667693D01*
X24718362Y17673074D01*
X24814054Y17685672D01*
X24898182Y17720519D01*
X24968772Y17728108D01*
X25032259Y17696329D01*
X25068486Y17635271D01*
X25072400Y17604110D01*
X25072400Y16720190D01*
X25052398Y16652069D01*
X24998742Y16605576D01*
X24928468Y16595472D01*
X24893153Y16605994D01*
X24834375Y16633404D01*
X24823396Y16634364D01*
X24823394Y16634365D01*
X24733633Y16642217D01*
X24733632Y16642217D01*
X24722657Y16643177D01*
X24614334Y16614152D01*
X24605303Y16607828D01*
X24605302Y16607828D01*
X24587656Y16595472D01*
X24545614Y16566034D01*
X22905995Y14926415D01*
X22843683Y14892389D01*
X22772868Y14897454D01*
X22727805Y14926415D01*
X21835150Y15819070D01*
X21801124Y15881382D01*
X21798762Y15918551D01*
X21798717Y15919068D01*
X21799677Y15930043D01*
X21798615Y15934007D01*
X21811763Y15999432D01*
X21861162Y16050425D01*
X21875078Y16057219D01*
X21939211Y16083783D01*
X21939215Y16083786D01*
X21946843Y16086945D01*
X21953396Y16091973D01*
X22056121Y16170797D01*
X22056124Y16170800D01*
X22062674Y16175826D01*
X22078394Y16196312D01*
X22130671Y16264442D01*
X22151555Y16291658D01*
X22158416Y16308220D01*
X22204269Y16418920D01*
X22207428Y16426546D01*
X22209250Y16440380D01*
X22225407Y16563112D01*
X22226485Y16571300D01*
X22221676Y16607828D01*
X22208506Y16707868D01*
X22208505Y16707870D01*
X22207428Y16716054D01*
X22175454Y16793245D01*
X22154715Y16843314D01*
X22154714Y16843316D01*
X22151555Y16850942D01*
X22085918Y16936482D01*
X22067701Y16960223D01*
X22067700Y16960224D01*
X22062674Y16966774D01*
X22056124Y16971800D01*
X22056121Y16971803D01*
X21953396Y17050627D01*
X21953394Y17050628D01*
X21946843Y17055655D01*
X21811954Y17111528D01*
X21667200Y17130585D01*
X21659012Y17129507D01*
X21530632Y17112606D01*
X21530630Y17112605D01*
X21522446Y17111528D01*
X21481854Y17094714D01*
X21395186Y17058815D01*
X21395184Y17058814D01*
X21387558Y17055655D01*
X21271726Y16966774D01*
X21269913Y16969136D01*
X21220153Y16941964D01*
X21149338Y16947029D01*
X21092502Y16989576D01*
X21076962Y17016866D01*
X21044718Y17094707D01*
X21044716Y17094710D01*
X21041555Y17102342D01*
X20952674Y17218174D01*
X20946124Y17223200D01*
X20946121Y17223203D01*
X20843396Y17302027D01*
X20843394Y17302028D01*
X20836843Y17307055D01*
X20701954Y17362928D01*
X20557200Y17381985D01*
X20549012Y17380907D01*
X20420632Y17364006D01*
X20420630Y17364005D01*
X20412446Y17362928D01*
X20364630Y17343122D01*
X20285186Y17310215D01*
X20285184Y17310214D01*
X20277558Y17307055D01*
X20161726Y17218174D01*
X20072845Y17102342D01*
X20069686Y17094716D01*
X20069685Y17094714D01*
X20044827Y17034701D01*
X20016972Y16967454D01*
X20015895Y16959270D01*
X20015894Y16959268D01*
X20005076Y16877097D01*
X19997915Y16822700D01*
X10837630Y16822700D01*
X10908521Y16877097D01*
X10908524Y16877100D01*
X10915074Y16882126D01*
X10925650Y16895908D01*
X10982097Y16969472D01*
X11003955Y16997958D01*
X11009104Y17010387D01*
X11056669Y17125220D01*
X11059828Y17132846D01*
X11074553Y17244691D01*
X11077807Y17269412D01*
X11078885Y17277600D01*
X11068068Y17359768D01*
X11060906Y17414168D01*
X11060905Y17414170D01*
X11059828Y17422354D01*
X11040022Y17470170D01*
X11007115Y17549614D01*
X11007114Y17549616D01*
X11003955Y17557242D01*
X10944081Y17635271D01*
X10920101Y17666523D01*
X10920100Y17666524D01*
X10915074Y17673074D01*
X10908524Y17678100D01*
X10908521Y17678103D01*
X10805796Y17756927D01*
X10805794Y17756928D01*
X10799243Y17761955D01*
X10664354Y17817828D01*
X10519600Y17836885D01*
X10511412Y17835807D01*
X10383032Y17818906D01*
X10383030Y17818905D01*
X10374846Y17817828D01*
X10328233Y17798520D01*
X10247586Y17765115D01*
X10247584Y17765114D01*
X10239958Y17761955D01*
X10233405Y17756927D01*
X10233402Y17756925D01*
X10174010Y17711352D01*
X10107790Y17685751D01*
X10038241Y17700016D01*
X9988188Y17748312D01*
X9985412Y17753120D01*
X9982255Y17760742D01*
X9965492Y17782589D01*
X9898401Y17870023D01*
X9898400Y17870024D01*
X9893374Y17876574D01*
X9886824Y17881600D01*
X9886821Y17881603D01*
X9784096Y17960427D01*
X9784094Y17960428D01*
X9777543Y17965455D01*
X9642654Y18021328D01*
X9497900Y18040385D01*
X9489712Y18039307D01*
X9361332Y18022406D01*
X9361330Y18022405D01*
X9353146Y18021328D01*
X9330238Y18011839D01*
X9225886Y17968615D01*
X9225884Y17968614D01*
X9218258Y17965455D01*
X9211708Y17960429D01*
X9204555Y17956299D01*
X9203803Y17957601D01*
X9146088Y17935286D01*
X9076539Y17949549D01*
X9025741Y17999148D01*
X9009600Y18060849D01*
X9009600Y22299100D01*
X9791715Y22299100D01*
X9792793Y22290912D01*
X9807883Y22176293D01*
X9810772Y22154346D01*
X9866645Y22019458D01*
X9955526Y21903626D01*
X9962076Y21898600D01*
X9962079Y21898597D01*
X10064804Y21819773D01*
X10071357Y21814745D01*
X10206246Y21758872D01*
X10351000Y21739815D01*
X10359188Y21740893D01*
X10487566Y21757794D01*
X10495754Y21758872D01*
X10630643Y21814745D01*
X10637196Y21819773D01*
X10739921Y21898597D01*
X10739924Y21898600D01*
X10746474Y21903626D01*
X10835355Y22019458D01*
X10891228Y22154346D01*
X10894118Y22176293D01*
X10909207Y22290912D01*
X10910285Y22299100D01*
X10891228Y22443854D01*
X10848484Y22547046D01*
X10838515Y22571114D01*
X10838514Y22571116D01*
X10835355Y22578742D01*
X10773702Y22659090D01*
X10751501Y22688023D01*
X10751500Y22688024D01*
X10746474Y22694574D01*
X10739924Y22699600D01*
X10739921Y22699603D01*
X10637196Y22778427D01*
X10637194Y22778428D01*
X10630643Y22783455D01*
X10495754Y22839328D01*
X10351000Y22858385D01*
X10342812Y22857307D01*
X10214432Y22840406D01*
X10214430Y22840405D01*
X10206246Y22839328D01*
X10168295Y22823608D01*
X10078986Y22786615D01*
X10078984Y22786614D01*
X10071358Y22783455D01*
X10025393Y22748185D01*
X9965315Y22702085D01*
X9955526Y22694574D01*
X9950503Y22688028D01*
X9931168Y22662830D01*
X9866645Y22578742D01*
X9863486Y22571116D01*
X9863485Y22571114D01*
X9853516Y22547046D01*
X9810772Y22443854D01*
X9791715Y22299100D01*
X9009600Y22299100D01*
X9009600Y22659090D01*
X9029602Y22727211D01*
X9046505Y22748185D01*
X10891034Y24592714D01*
X10939152Y24661434D01*
X10957284Y24729103D01*
X10965324Y24759108D01*
X10965324Y24759110D01*
X10968177Y24769757D01*
X10958403Y24881474D01*
X10926282Y24950358D01*
X10915669Y24973118D01*
X10915668Y24973119D01*
X10911009Y24983111D01*
X10831711Y25062409D01*
X10821386Y25067224D01*
X10740061Y25105146D01*
X10730074Y25109803D01*
X10618357Y25119577D01*
X10607710Y25116724D01*
X10607708Y25116724D01*
X10566601Y25105709D01*
X10510034Y25090552D01*
X10501003Y25084228D01*
X10501002Y25084228D01*
X10492219Y25078078D01*
X10441314Y25042434D01*
X8480449Y23081569D01*
X8472345Y23074143D01*
X8444240Y23050560D01*
X8438729Y23041015D01*
X8438726Y23041011D01*
X8425897Y23018790D01*
X8419992Y23009520D01*
X8398948Y22979466D01*
X8396094Y22968814D01*
X8394760Y22965953D01*
X8393681Y22962987D01*
X8388168Y22953440D01*
X8386254Y22942584D01*
X8386252Y22942579D01*
X8381796Y22917310D01*
X8379418Y22906581D01*
X8378568Y22903407D01*
X8369923Y22871143D01*
X8372949Y22836554D01*
X8373121Y22834590D01*
X8373600Y22823608D01*
X8373600Y20022800D01*
X8353598Y19954679D01*
X8299942Y19908186D01*
X8247600Y19896800D01*
X7861900Y19896800D01*
X7793779Y19916802D01*
X7747286Y19970458D01*
X7735900Y20022800D01*
X7735900Y21282035D01*
X7755902Y21350156D01*
X7772805Y21371130D01*
X7806249Y21404574D01*
X7847494Y21463477D01*
X7926488Y21576293D01*
X7926489Y21576295D01*
X7929645Y21580802D01*
X7931968Y21585784D01*
X7931971Y21585789D01*
X8018242Y21770798D01*
X8018243Y21770799D01*
X8020565Y21775780D01*
X8022177Y21781794D01*
X8054821Y21903626D01*
X8076246Y21983584D01*
X8094996Y22197900D01*
X8076246Y22412216D01*
X8031752Y22578271D01*
X8021988Y22614710D01*
X8021987Y22614712D01*
X8020565Y22620020D01*
X8018242Y22625002D01*
X7931971Y22810011D01*
X7931968Y22810016D01*
X7929645Y22814998D01*
X7914821Y22836169D01*
X7809408Y22986715D01*
X7809406Y22986718D01*
X7806249Y22991226D01*
X7772805Y23024670D01*
X7738779Y23086982D01*
X7735900Y23113765D01*
X7735900Y23868208D01*
X7736379Y23879190D01*
X7736693Y23882774D01*
X7739577Y23915743D01*
X7733450Y23938610D01*
X7730082Y23951181D01*
X7727704Y23961910D01*
X7723248Y23987179D01*
X7723246Y23987184D01*
X7721332Y23998040D01*
X7715819Y24007587D01*
X7714740Y24010553D01*
X7713406Y24013414D01*
X7710552Y24024066D01*
X7689508Y24054120D01*
X7683603Y24063390D01*
X7670774Y24085611D01*
X7670771Y24085615D01*
X7665260Y24095160D01*
X7637155Y24118743D01*
X7629051Y24126169D01*
X7549900Y24205320D01*
X7515874Y24267632D01*
X7520939Y24338447D01*
X7562288Y24394374D01*
X7626474Y24443626D01*
X7715355Y24559458D01*
X7723574Y24579299D01*
X7768069Y24686720D01*
X7771228Y24694346D01*
X7774280Y24717523D01*
X7789207Y24830912D01*
X7790285Y24839100D01*
X7783112Y24893586D01*
X7772306Y24975668D01*
X7772305Y24975670D01*
X7771228Y24983854D01*
X7746963Y25042434D01*
X7718515Y25111114D01*
X7718514Y25111116D01*
X7715355Y25118742D01*
X7647669Y25206952D01*
X7631501Y25228023D01*
X7631500Y25228024D01*
X7626474Y25234574D01*
X7619924Y25239600D01*
X7619921Y25239603D01*
X7517196Y25318427D01*
X7517194Y25318428D01*
X7510643Y25323455D01*
X7444654Y25350788D01*
X7389374Y25395336D01*
X7366953Y25462700D01*
X7384511Y25531491D01*
X7416167Y25567158D01*
X7425533Y25574345D01*
X7439974Y25585426D01*
X7449148Y25597381D01*
X7499672Y25663226D01*
X7528855Y25701258D01*
X7541066Y25730736D01*
X7565536Y25789812D01*
X7584728Y25836146D01*
X7592948Y25898579D01*
X7602707Y25972712D01*
X7603785Y25980900D01*
X7593543Y26058700D01*
X9670815Y26058700D01*
X9671893Y26050512D01*
X9686876Y25936705D01*
X9689872Y25913946D01*
X9694776Y25902108D01*
X9741291Y25789812D01*
X9745745Y25779058D01*
X9778770Y25736019D01*
X9809831Y25695540D01*
X9834626Y25663226D01*
X9841176Y25658200D01*
X9841179Y25658197D01*
X9934843Y25586326D01*
X9950457Y25574345D01*
X10085346Y25518472D01*
X10230100Y25499415D01*
X10238288Y25500493D01*
X10366666Y25517394D01*
X10374854Y25518472D01*
X10509743Y25574345D01*
X10525357Y25586326D01*
X10619021Y25658197D01*
X10619024Y25658200D01*
X10625574Y25663226D01*
X10650370Y25695540D01*
X10677376Y25730736D01*
X13882112Y25730736D01*
X13882312Y25725408D01*
X13882312Y25725406D01*
X13884464Y25668101D01*
X13883705Y25668072D01*
X13884034Y25666684D01*
X13884340Y25666711D01*
X13884374Y25666323D01*
X13884465Y25664862D01*
X13884523Y25664615D01*
X13884648Y25663193D01*
X13890736Y25501031D01*
X13891831Y25495812D01*
X13904628Y25434821D01*
X13903861Y25434660D01*
X13904841Y25432384D01*
X13904937Y25431292D01*
X13906361Y25425978D01*
X13906464Y25425393D01*
X13907635Y25420490D01*
X13937939Y25276063D01*
X13957058Y25227650D01*
X13963975Y25210134D01*
X13964724Y25208159D01*
X13966097Y25203037D01*
X13968422Y25198051D01*
X13968423Y25198049D01*
X13968947Y25196925D01*
X13971934Y25189983D01*
X14022372Y25062264D01*
X14059273Y25001454D01*
X14060811Y24998574D01*
X14060890Y24998620D01*
X14063639Y24993859D01*
X14065965Y24988871D01*
X14069122Y24984363D01*
X14069124Y24984359D01*
X14070674Y24982145D01*
X14075181Y24975238D01*
X14133333Y24879407D01*
X14141621Y24865748D01*
X14145116Y24861721D01*
X14145117Y24861719D01*
X14191993Y24807700D01*
X14195555Y24803137D01*
X14198347Y24799810D01*
X14201505Y24795299D01*
X14207791Y24789013D01*
X14213861Y24782499D01*
X14285027Y24700488D01*
X14292276Y24692134D01*
X14296407Y24688747D01*
X14356309Y24639630D01*
X14363574Y24633048D01*
X14364706Y24632098D01*
X14368599Y24628205D01*
X14373103Y24625051D01*
X14373108Y24625047D01*
X14375936Y24623067D01*
X14383554Y24617290D01*
X14465901Y24549769D01*
X14465907Y24549765D01*
X14470029Y24546385D01*
X14474668Y24543745D01*
X14474667Y24543745D01*
X14547355Y24502369D01*
X14557296Y24496078D01*
X14557660Y24495823D01*
X14557667Y24495819D01*
X14562171Y24492665D01*
X14567155Y24490341D01*
X14567160Y24490338D01*
X14569875Y24489072D01*
X14578952Y24484382D01*
X14606637Y24468623D01*
X14669798Y24432670D01*
X14756798Y24401090D01*
X14759498Y24400110D01*
X14769753Y24395867D01*
X14771348Y24395123D01*
X14771350Y24395122D01*
X14776337Y24392797D01*
X14781653Y24391373D01*
X14781655Y24391372D01*
X14782719Y24391087D01*
X14783702Y24390824D01*
X14794081Y24387557D01*
X14885871Y24354239D01*
X14986443Y24336052D01*
X14996616Y24333774D01*
X15004592Y24331637D01*
X15010990Y24331077D01*
X15022412Y24329548D01*
X15112069Y24313336D01*
X15116208Y24313141D01*
X15116215Y24313140D01*
X15134670Y24312270D01*
X15134677Y24312270D01*
X15136158Y24312200D01*
X15297712Y24312200D01*
X15377444Y24318965D01*
X15463733Y24326287D01*
X15463737Y24326288D01*
X15469044Y24326738D01*
X15474199Y24328076D01*
X15474205Y24328077D01*
X15686368Y24383144D01*
X15686367Y24383144D01*
X15691539Y24384486D01*
X15838412Y24450648D01*
X15896262Y24476707D01*
X15896265Y24476708D01*
X15901123Y24478897D01*
X16091803Y24607270D01*
X16100543Y24615607D01*
X16180763Y24692134D01*
X16258128Y24765936D01*
X16359214Y24901800D01*
X19622515Y24901800D01*
X19623593Y24893612D01*
X19640402Y24765936D01*
X19641572Y24757046D01*
X19655230Y24724074D01*
X19693582Y24631485D01*
X19697445Y24622158D01*
X19786326Y24506326D01*
X19792876Y24501300D01*
X19792879Y24501297D01*
X19895604Y24422473D01*
X19902157Y24417445D01*
X20037046Y24361572D01*
X20045234Y24360494D01*
X20061193Y24358393D01*
X20181800Y24342515D01*
X20189988Y24343593D01*
X20212594Y24346569D01*
X20302407Y24358393D01*
X20318366Y24360494D01*
X20326554Y24361572D01*
X20461443Y24417445D01*
X20467996Y24422473D01*
X20570721Y24501297D01*
X20570724Y24501300D01*
X20577274Y24506326D01*
X20666155Y24622158D01*
X20670019Y24631485D01*
X20708370Y24724074D01*
X20722028Y24757046D01*
X20723199Y24765936D01*
X20740007Y24893612D01*
X20741085Y24901800D01*
X20732543Y24966687D01*
X20723106Y25038368D01*
X20723105Y25038370D01*
X20722028Y25046554D01*
X20695595Y25110369D01*
X20669315Y25173814D01*
X20669314Y25173816D01*
X20666155Y25181442D01*
X20621527Y25239603D01*
X20582301Y25290723D01*
X20582300Y25290724D01*
X20577274Y25297274D01*
X20570724Y25302300D01*
X20570721Y25302303D01*
X20467996Y25381127D01*
X20467994Y25381128D01*
X20461443Y25386155D01*
X20326554Y25442028D01*
X20181800Y25461085D01*
X20158055Y25457959D01*
X20045232Y25443106D01*
X20045230Y25443105D01*
X20037046Y25442028D01*
X20011127Y25431292D01*
X19909786Y25389315D01*
X19909784Y25389314D01*
X19902158Y25386155D01*
X19786326Y25297274D01*
X19697445Y25181442D01*
X19694286Y25173816D01*
X19694285Y25173814D01*
X19668005Y25110369D01*
X19641572Y25046554D01*
X19640495Y25038370D01*
X19640494Y25038368D01*
X19631057Y24966687D01*
X19622515Y24901800D01*
X16359214Y24901800D01*
X16395342Y24950358D01*
X16398801Y24957160D01*
X16497102Y25150506D01*
X16497102Y25150507D01*
X16499520Y25155262D01*
X16552727Y25326615D01*
X16566103Y25369694D01*
X16567685Y25374789D01*
X16572636Y25412146D01*
X16597188Y25597381D01*
X16597188Y25597384D01*
X16597888Y25602664D01*
X16595536Y25665299D01*
X16596295Y25665328D01*
X16595966Y25666716D01*
X16595660Y25666689D01*
X16595626Y25667077D01*
X16595535Y25668538D01*
X16595477Y25668785D01*
X16595352Y25670207D01*
X16589264Y25832369D01*
X16575372Y25898579D01*
X16576139Y25898740D01*
X16575159Y25901016D01*
X16575063Y25902108D01*
X16573639Y25907422D01*
X16573536Y25908007D01*
X16572362Y25912922D01*
X16570196Y25923248D01*
X16542061Y26057337D01*
X16516025Y26123266D01*
X16515276Y26125241D01*
X16513903Y26130363D01*
X16511053Y26136475D01*
X16508066Y26143417D01*
X16457628Y26271136D01*
X16420727Y26331946D01*
X16419189Y26334826D01*
X16419110Y26334780D01*
X16416361Y26339541D01*
X16414035Y26344529D01*
X16410876Y26349041D01*
X16409326Y26351255D01*
X16404819Y26358162D01*
X16341147Y26463091D01*
X16341145Y26463094D01*
X16338379Y26467652D01*
X16334883Y26471681D01*
X16288007Y26525700D01*
X16284445Y26530263D01*
X16281653Y26533590D01*
X16278495Y26538101D01*
X16272209Y26544387D01*
X16266139Y26550901D01*
X16191224Y26637233D01*
X16191222Y26637235D01*
X16187724Y26641266D01*
X16123692Y26693770D01*
X16116426Y26700352D01*
X16115294Y26701302D01*
X16111401Y26705195D01*
X16106897Y26708349D01*
X16106892Y26708353D01*
X16104064Y26710333D01*
X16096446Y26716110D01*
X16014099Y26783631D01*
X16014093Y26783635D01*
X16009971Y26787015D01*
X15932645Y26831031D01*
X15922704Y26837322D01*
X15922340Y26837577D01*
X15922333Y26837581D01*
X15917829Y26840735D01*
X15912845Y26843059D01*
X15912840Y26843062D01*
X15910125Y26844328D01*
X15901048Y26849018D01*
X15834018Y26887173D01*
X15810202Y26900730D01*
X15720502Y26933290D01*
X15710247Y26937533D01*
X15708652Y26938277D01*
X15708650Y26938278D01*
X15703663Y26940603D01*
X15698347Y26942027D01*
X15698345Y26942028D01*
X15697281Y26942313D01*
X15696298Y26942576D01*
X15685919Y26945843D01*
X15594129Y26979161D01*
X15493557Y26997348D01*
X15483384Y26999626D01*
X15475408Y27001763D01*
X15469010Y27002323D01*
X15457588Y27003852D01*
X15367931Y27020064D01*
X15363792Y27020259D01*
X15363785Y27020260D01*
X15345330Y27021130D01*
X15345323Y27021130D01*
X15343842Y27021200D01*
X15182288Y27021200D01*
X15102556Y27014435D01*
X15016267Y27007113D01*
X15016263Y27007112D01*
X15010956Y27006662D01*
X15005801Y27005324D01*
X15005795Y27005323D01*
X14873655Y26971026D01*
X14788461Y26948914D01*
X14645630Y26884573D01*
X14583738Y26856693D01*
X14583735Y26856692D01*
X14578877Y26854503D01*
X14574453Y26851524D01*
X14574452Y26851524D01*
X14570730Y26849018D01*
X14388197Y26726130D01*
X14384340Y26722451D01*
X14384338Y26722449D01*
X14360121Y26699347D01*
X14221872Y26567464D01*
X14084658Y26383042D01*
X14082242Y26378291D01*
X14082240Y26378287D01*
X14004560Y26225500D01*
X13980480Y26178138D01*
X13912315Y25958611D01*
X13911614Y25953322D01*
X13890852Y25796674D01*
X13882112Y25730736D01*
X10677376Y25730736D01*
X10681430Y25736019D01*
X10714455Y25779058D01*
X10718910Y25789812D01*
X10765424Y25902108D01*
X10770328Y25913946D01*
X10773325Y25936705D01*
X10788307Y26050512D01*
X10789385Y26058700D01*
X10780657Y26124998D01*
X10771406Y26195268D01*
X10771405Y26195270D01*
X10770328Y26203454D01*
X10747645Y26258215D01*
X10717615Y26330714D01*
X10717614Y26330716D01*
X10714455Y26338342D01*
X10625574Y26454174D01*
X10619024Y26459200D01*
X10619021Y26459203D01*
X10516296Y26538027D01*
X10516294Y26538028D01*
X10509743Y26543055D01*
X10374854Y26598928D01*
X10230100Y26617985D01*
X10221912Y26616907D01*
X10093532Y26600006D01*
X10093530Y26600005D01*
X10085346Y26598928D01*
X10055234Y26586455D01*
X9958086Y26546215D01*
X9958084Y26546214D01*
X9950458Y26543055D01*
X9834626Y26454174D01*
X9745745Y26338342D01*
X9742586Y26330716D01*
X9742585Y26330714D01*
X9712555Y26258215D01*
X9689872Y26203454D01*
X9688795Y26195270D01*
X9688794Y26195268D01*
X9679543Y26124998D01*
X9670815Y26058700D01*
X7593543Y26058700D01*
X7592327Y26067936D01*
X7584850Y26124731D01*
X7595790Y26194880D01*
X7642918Y26247978D01*
X7711272Y26267168D01*
X7726209Y26266100D01*
X7786100Y26258215D01*
X7794288Y26259293D01*
X7798831Y26259891D01*
X7930854Y26277272D01*
X8065743Y26333145D01*
X8072516Y26338342D01*
X8175021Y26416997D01*
X8175024Y26417000D01*
X8181574Y26422026D01*
X8190788Y26434033D01*
X8242936Y26501995D01*
X8270455Y26537858D01*
X8275660Y26550422D01*
X8318698Y26654326D01*
X8326328Y26672746D01*
X8329615Y26697709D01*
X8344307Y26809312D01*
X8345385Y26817500D01*
X8339593Y26861493D01*
X8327406Y26954068D01*
X8327405Y26954070D01*
X8326328Y26962254D01*
X8291926Y27045307D01*
X8273615Y27089514D01*
X8273614Y27089516D01*
X8270455Y27097142D01*
X8196645Y27193333D01*
X8186601Y27206423D01*
X8186600Y27206424D01*
X8181574Y27212974D01*
X8175024Y27218000D01*
X8175021Y27218003D01*
X8072296Y27296827D01*
X8072294Y27296828D01*
X8065743Y27301855D01*
X7930854Y27357728D01*
X7883973Y27363900D01*
X7858477Y27367257D01*
X7786100Y27376785D01*
X7777912Y27375707D01*
X7649532Y27358806D01*
X7649530Y27358805D01*
X7641346Y27357728D01*
X7604308Y27342386D01*
X7514086Y27305015D01*
X7514084Y27305014D01*
X7506458Y27301855D01*
X7482058Y27283132D01*
X7398670Y27219146D01*
X7390626Y27212974D01*
X7301745Y27097142D01*
X7298586Y27089516D01*
X7298585Y27089514D01*
X7280274Y27045307D01*
X7245872Y26962254D01*
X7244795Y26954070D01*
X7244794Y26954068D01*
X7232607Y26861493D01*
X7226815Y26817500D01*
X7227893Y26809312D01*
X7227893Y26809311D01*
X7245750Y26673669D01*
X7234810Y26603520D01*
X7187682Y26550422D01*
X7119328Y26531232D01*
X7104391Y26532300D01*
X7044500Y26540185D01*
X7020755Y26537059D01*
X6907932Y26522206D01*
X6907930Y26522205D01*
X6899746Y26521128D01*
X6861179Y26505153D01*
X6772486Y26468415D01*
X6772484Y26468414D01*
X6764858Y26465255D01*
X6649026Y26376374D01*
X6644003Y26369828D01*
X6628053Y26349041D01*
X6560145Y26260542D01*
X6556986Y26252916D01*
X6556985Y26252914D01*
X6547898Y26230975D01*
X6504272Y26125654D01*
X6485215Y25980900D01*
X6486293Y25972712D01*
X6496053Y25898579D01*
X6504272Y25836146D01*
X6523464Y25789812D01*
X6547935Y25730736D01*
X6560145Y25701258D01*
X6589328Y25663226D01*
X6639853Y25597381D01*
X6649026Y25585426D01*
X6655576Y25580400D01*
X6655579Y25580397D01*
X6724469Y25527536D01*
X6764857Y25496545D01*
X6830845Y25469212D01*
X6886126Y25424664D01*
X6908547Y25357300D01*
X6890989Y25288509D01*
X6859330Y25252840D01*
X6842075Y25239600D01*
X6842072Y25239597D01*
X6835526Y25234574D01*
X6782601Y25165600D01*
X6776630Y25157819D01*
X6719292Y25115952D01*
X6648421Y25111730D01*
X6620400Y25124191D01*
X6619784Y25122871D01*
X6609799Y25127527D01*
X6600766Y25133852D01*
X6546300Y25148446D01*
X6503092Y25160024D01*
X6503090Y25160024D01*
X6492443Y25162877D01*
X6380726Y25153103D01*
X6370739Y25148446D01*
X6302711Y25116724D01*
X6279089Y25105709D01*
X6199791Y25026411D01*
X6195132Y25016419D01*
X6195131Y25016418D01*
X6176129Y24975668D01*
X6152397Y24924774D01*
X6142623Y24813057D01*
X6145476Y24802410D01*
X6145476Y24802408D01*
X6151763Y24778945D01*
X6171648Y24704734D01*
X6177972Y24695703D01*
X6177972Y24695702D01*
X6188095Y24681245D01*
X6219766Y24636014D01*
X7062995Y23792785D01*
X7097021Y23730473D01*
X7099900Y23703690D01*
X7099900Y23548683D01*
X7079898Y23480562D01*
X7026242Y23434069D01*
X6962919Y23423162D01*
X6866275Y23431617D01*
X6860800Y23432096D01*
X6646484Y23413346D01*
X6508732Y23376435D01*
X6443990Y23359088D01*
X6443988Y23359087D01*
X6438680Y23357665D01*
X6433699Y23355343D01*
X6433698Y23355342D01*
X6248689Y23269071D01*
X6248684Y23269068D01*
X6243702Y23266745D01*
X6239195Y23263589D01*
X6239193Y23263588D01*
X6071985Y23146508D01*
X6071982Y23146506D01*
X6067474Y23143349D01*
X5915351Y22991226D01*
X5912194Y22986718D01*
X5912192Y22986715D01*
X5806779Y22836169D01*
X5791955Y22814998D01*
X5789632Y22810016D01*
X5789629Y22810011D01*
X5703358Y22625002D01*
X5701035Y22620020D01*
X5699613Y22614712D01*
X5699612Y22614710D01*
X5689848Y22578271D01*
X5645354Y22412216D01*
X5626604Y22197900D01*
X5645354Y21983584D01*
X5666779Y21903626D01*
X5699424Y21781794D01*
X5701035Y21775780D01*
X5703357Y21770799D01*
X5703358Y21770798D01*
X5789629Y21585789D01*
X5789632Y21585784D01*
X5791955Y21580802D01*
X5795111Y21576295D01*
X5795112Y21576293D01*
X5874107Y21463477D01*
X5915351Y21404574D01*
X6067474Y21252451D01*
X6071982Y21249294D01*
X6071985Y21249292D01*
X6239193Y21132212D01*
X6243702Y21129055D01*
X6248684Y21126732D01*
X6248689Y21126729D01*
X6433698Y21040458D01*
X6438680Y21038135D01*
X6443988Y21036713D01*
X6443990Y21036712D01*
X6494515Y21023174D01*
X6646484Y20982454D01*
X6860800Y20963704D01*
X6866275Y20964183D01*
X6962919Y20972638D01*
X7032523Y20958649D01*
X7083516Y20909249D01*
X7099900Y20847117D01*
X7099900Y17850710D01*
X7079898Y17782589D01*
X7062995Y17761615D01*
X5681649Y16380269D01*
X5673545Y16372843D01*
X5645440Y16349260D01*
X5639929Y16339715D01*
X5639926Y16339711D01*
X5627097Y16317490D01*
X5621192Y16308220D01*
X5600148Y16278166D01*
X5597294Y16267514D01*
X5595960Y16264653D01*
X5594881Y16261687D01*
X5589368Y16252140D01*
X5587454Y16241284D01*
X5587452Y16241279D01*
X5582996Y16216010D01*
X5580618Y16205281D01*
X5580409Y16204500D01*
X5571123Y16169843D01*
X5572084Y16158861D01*
X5574321Y16133290D01*
X5574800Y16122308D01*
X5574800Y11703392D01*
X5574321Y11692410D01*
X5571123Y11655857D01*
X1054100Y11655857D01*
X1054100Y21689793D01*
X1074102Y21757914D01*
X1127758Y21804407D01*
X1198032Y21814511D01*
X1252370Y21793007D01*
X1343702Y21729055D01*
X1348684Y21726732D01*
X1348689Y21726729D01*
X1467703Y21671232D01*
X1538680Y21638135D01*
X1543988Y21636713D01*
X1543990Y21636712D01*
X1608732Y21619365D01*
X1746484Y21582454D01*
X1960800Y21563704D01*
X2175116Y21582454D01*
X2312868Y21619365D01*
X2377610Y21636712D01*
X2377612Y21636713D01*
X2382920Y21638135D01*
X2453897Y21671232D01*
X2572911Y21726729D01*
X2572916Y21726732D01*
X2577898Y21729055D01*
X2593265Y21739815D01*
X2749615Y21849292D01*
X2749618Y21849294D01*
X2754126Y21852451D01*
X2906249Y22004574D01*
X3011121Y22154346D01*
X3026488Y22176293D01*
X3026489Y22176295D01*
X3029645Y22180802D01*
X3031968Y22185784D01*
X3031971Y22185789D01*
X3118242Y22370798D01*
X3118243Y22370799D01*
X3120565Y22375780D01*
X3130313Y22412158D01*
X3164412Y22539420D01*
X3176246Y22583584D01*
X3194996Y22797900D01*
X3176246Y23012216D01*
X3125633Y23201107D01*
X3121988Y23214710D01*
X3121987Y23214712D01*
X3120565Y23220020D01*
X3097692Y23269071D01*
X3031971Y23410011D01*
X3031968Y23410016D01*
X3029645Y23414998D01*
X3023929Y23423162D01*
X2909408Y23586715D01*
X2909406Y23586718D01*
X2906249Y23591226D01*
X2754126Y23743349D01*
X2749618Y23746506D01*
X2749615Y23746508D01*
X2582407Y23863588D01*
X2582405Y23863589D01*
X2577898Y23866745D01*
X2572916Y23869068D01*
X2572911Y23869071D01*
X2387902Y23955342D01*
X2387901Y23955343D01*
X2382920Y23957665D01*
X2377612Y23959087D01*
X2377610Y23959088D01*
X2272772Y23987179D01*
X2175116Y24013346D01*
X1960800Y24032096D01*
X1746484Y24013346D01*
X1735273Y24010342D01*
X1683635Y23996506D01*
X1612658Y23998196D01*
X1553863Y24037991D01*
X1525915Y24103255D01*
X1534615Y24166430D01*
X1538667Y24176214D01*
X1538668Y24176216D01*
X1541828Y24183846D01*
X1542990Y24192667D01*
X1559807Y24320412D01*
X1560885Y24328600D01*
X1552621Y24391372D01*
X1542906Y24465168D01*
X1542905Y24465170D01*
X1541828Y24473354D01*
X1506056Y24559715D01*
X1489115Y24600614D01*
X1489114Y24600616D01*
X1485955Y24608242D01*
X1424181Y24688747D01*
X1402101Y24717523D01*
X1402100Y24717524D01*
X1397074Y24724074D01*
X1390524Y24729100D01*
X1390521Y24729103D01*
X1287796Y24807927D01*
X1287794Y24807928D01*
X1281243Y24812955D01*
X1180938Y24854503D01*
X1153981Y24865669D01*
X1153980Y24865669D01*
X1146354Y24868828D01*
X1144830Y24869029D01*
X1086865Y24904361D01*
X1055844Y24968222D01*
X1054100Y24989115D01*
X1054100Y25165600D01*
X3100815Y25165600D01*
X3101893Y25157412D01*
X3118309Y25032720D01*
X3119872Y25020846D01*
X3132527Y24990295D01*
X3172575Y24893612D01*
X3175745Y24885958D01*
X3199881Y24854503D01*
X3247548Y24792383D01*
X3264626Y24770126D01*
X3271176Y24765100D01*
X3271179Y24765097D01*
X3373904Y24686273D01*
X3380457Y24681245D01*
X3515346Y24625372D01*
X3660100Y24606315D01*
X3668288Y24607393D01*
X3682531Y24609268D01*
X3804854Y24625372D01*
X3939743Y24681245D01*
X3946296Y24686273D01*
X4049021Y24765097D01*
X4049024Y24765100D01*
X4055574Y24770126D01*
X4072653Y24792383D01*
X4120319Y24854503D01*
X4144455Y24885958D01*
X4147626Y24893612D01*
X4187673Y24990295D01*
X4200328Y25020846D01*
X4201892Y25032720D01*
X4218307Y25157412D01*
X4219385Y25165600D01*
X4212136Y25220665D01*
X4201406Y25302168D01*
X4201405Y25302170D01*
X4200328Y25310354D01*
X4167621Y25389315D01*
X4147615Y25437614D01*
X4147614Y25437616D01*
X4144455Y25445242D01*
X4085839Y25521632D01*
X4060601Y25554523D01*
X4060600Y25554524D01*
X4055574Y25561074D01*
X4049024Y25566100D01*
X4049021Y25566103D01*
X3946296Y25644927D01*
X3946294Y25644928D01*
X3939743Y25649955D01*
X3804854Y25705828D01*
X3660100Y25724885D01*
X3651912Y25723807D01*
X3523532Y25706906D01*
X3523530Y25706905D01*
X3515346Y25705828D01*
X3499707Y25699350D01*
X3388086Y25653115D01*
X3388084Y25653114D01*
X3380458Y25649955D01*
X3264626Y25561074D01*
X3175745Y25445242D01*
X3172586Y25437616D01*
X3172585Y25437614D01*
X3152579Y25389315D01*
X3119872Y25310354D01*
X3118795Y25302170D01*
X3118794Y25302168D01*
X3108064Y25220665D01*
X3100815Y25165600D01*
X1054100Y25165600D01*
X1054100Y26938152D01*
X1074102Y27006273D01*
X1127758Y27052766D01*
X1196545Y27063074D01*
X1257000Y27055115D01*
X1265188Y27056193D01*
X1393566Y27073094D01*
X1401754Y27074172D01*
X1536643Y27130045D01*
X1543196Y27135073D01*
X1645921Y27213897D01*
X1645924Y27213900D01*
X1652474Y27218926D01*
X1741355Y27334758D01*
X1751112Y27358312D01*
X1794069Y27462020D01*
X1797228Y27469646D01*
X1800481Y27494351D01*
X1815207Y27606212D01*
X1816285Y27614400D01*
X1797228Y27759154D01*
X1743534Y27888782D01*
X1735945Y27959371D01*
X1767724Y28022858D01*
X1828782Y28059086D01*
X1859943Y28063000D01*
X5761838Y28063000D01*
X5829959Y28042998D01*
G37*
%TD.AperFunction*%
%TD*%
M02*
