M48
; DRILL file {KiCad (6.0.4-0)} date Wednesday, May 17, 2023 at 02:52:11 PM
; FORMAT={-:-/ absolute / inch / decimal}
; #@! TF.CreationDate,2023-05-17T14:52:11-05:00
; #@! TF.GenerationSoftware,Kicad,Pcbnew,(6.0.4-0)
; #@! TF.FileFunction,Plated,1,6,PTH
FMAT,2
INCH
; #@! TA.AperFunction,Plated,PTH,ViaDrill
T1C0.0118
; #@! TA.AperFunction,Plated,PTH,ComponentDrill
T2C0.0350
; #@! TA.AperFunction,Plated,PTH,ComponentDrill
T3C0.0394
; #@! TA.AperFunction,Plated,PTH,ComponentDrill
T4C0.0402
; #@! TA.AperFunction,Plated,PTH,ComponentDrill
T5C0.0500
; #@! TA.AperFunction,Plated,PTH,ComponentDrill
T6C0.0512
; #@! TA.AperFunction,Plated,PTH,ComponentDrill
T7C0.0700
; #@! TA.AperFunction,Plated,PTH,ComponentDrill
T8C0.0791
; #@! TA.AperFunction,Plated,PTH,ComponentDrill
T9C0.0866
%
G90
G05
T1
X0.0354Y0.4332
X0.0495Y1.0822
X0.0741Y0.963
X0.133Y0.0993
X0.1445Y0.9883
X0.1643Y0.4358
X0.1895Y1.0876
X0.2505Y1.0872
X0.2606Y0.4896
X0.2708Y0.4317
X0.272Y0.7165
X0.3034Y0.9841
X0.3099Y1.0309
X0.3789Y0.5871
X0.3791Y0.7291
X0.3802Y0.6196
X0.3914Y0.9386
X0.4Y0.3916
X0.4Y0.2631
X0.4028Y1.0168
X0.4448Y1.0826
X0.4728Y0.9521
X0.4933Y0.4334
X0.5162Y0.5374
X0.5178Y0.7821
X0.5252Y0.3646
X0.6678Y0.4624
X0.6759Y0.8755
X0.6974Y0.7871
X0.7146Y0.1343
X0.725Y0.3082
X0.7674Y0.6599
X0.7948Y0.9775
X0.8015Y0.3072
X0.8071Y0.3849
X0.8454Y0.1328
X0.8533Y0.6483
X0.855Y0.8975
X0.8554Y0.7653
X0.8799Y0.5008
X0.9171Y0.4246
X0.92Y0.9141
X0.9225Y0.316
X0.9372Y0.6525
X0.9648Y0.4996
X0.9688Y0.9477
X0.9848Y0.7175
X1.0202Y0.2861
X1.0308Y0.9171
X1.0889Y0.515
X1.1008Y0.8575
X1.1375Y1.0795
X1.1637Y0.4784
X1.1955Y0.822
X1.1982Y0.5927
X1.2Y0.762
X1.2Y0.6335
X1.28Y0.4015
X1.3442Y0.794
X1.58Y1.0774
X1.58Y0.9477
X1.6457Y0.178
X1.7Y1.0773
X1.7Y0.948
T2
X1.5158Y0.6865
X1.5158Y0.5865
T3
X0.33Y0.1225
X0.43Y0.1225
X0.53Y0.1225
X0.63Y0.1225
X1.22Y1.0325
T4
X0.9Y1.0325
X0.915Y0.1325
T5
X1.205Y0.1975
T6
X0.0952Y0.8976
X0.0952Y0.2794
X0.2881Y0.8739
X0.2881Y0.3031
T7
X1.1046Y0.2979
X1.1046Y0.0971
X1.3054Y0.2979
X1.3054Y0.0971
T8
X1.7158Y0.7865
X1.7158Y0.3865
T9
X1.78Y0.1325
T0
M30
