%TF.GenerationSoftware,KiCad,Pcbnew,(6.0.4-0)*%
%TF.CreationDate,2023-05-29T14:49:53-05:00*%
%TF.ProjectId,voltage_sense,766f6c74-6167-4655-9f73-656e73652e6b,rev?*%
%TF.SameCoordinates,Original*%
%TF.FileFunction,Copper,L5,Inr*%
%TF.FilePolarity,Positive*%
%FSLAX46Y46*%
G04 Gerber Fmt 4.6, Leading zero omitted, Abs format (unit mm)*
G04 Created by KiCad (PCBNEW (6.0.4-0)) date 2023-05-29 14:49:53*
%MOMM*%
%LPD*%
G01*
G04 APERTURE LIST*
%TA.AperFunction,ComponentPad*%
%ADD10R,1.700000X1.700000*%
%TD*%
%TA.AperFunction,ComponentPad*%
%ADD11O,1.700000X1.700000*%
%TD*%
%TA.AperFunction,ComponentPad*%
%ADD12C,2.020000*%
%TD*%
%TA.AperFunction,ComponentPad*%
%ADD13C,2.000000*%
%TD*%
%TA.AperFunction,ComponentPad*%
%ADD14O,2.500000X1.600000*%
%TD*%
%TA.AperFunction,ComponentPad*%
%ADD15O,7.000000X3.500000*%
%TD*%
%TA.AperFunction,ComponentPad*%
%ADD16C,1.950000*%
%TD*%
%TA.AperFunction,ComponentPad*%
%ADD17C,4.400000*%
%TD*%
%TA.AperFunction,ComponentPad*%
%ADD18C,1.905000*%
%TD*%
%TA.AperFunction,ComponentPad*%
%ADD19C,2.667000*%
%TD*%
%TA.AperFunction,ViaPad*%
%ADD20C,0.600000*%
%TD*%
%TA.AperFunction,Conductor*%
%ADD21C,0.127000*%
%TD*%
G04 APERTURE END LIST*
D10*
%TO.N,+5V*%
%TO.C,J2*%
X35550000Y3168500D03*
D11*
%TO.N,-15V*%
X33010000Y3168500D03*
%TO.N,+15V*%
X30470000Y3168500D03*
%TO.N,GND*%
X27930000Y3168500D03*
%TD*%
D12*
%TO.N,Net-(C13-Pad2)*%
%TO.C,TP1*%
X23876000Y3111500D03*
%TD*%
D13*
%TO.N,GND*%
%TO.C,TP9*%
X30988000Y32225500D03*
%TD*%
D14*
%TO.N,Net-(J5-Pad1)*%
%TO.C,J5*%
X38608000Y17317500D03*
D15*
%TO.N,GND*%
X43688000Y22397500D03*
D14*
X38608000Y19857500D03*
D15*
X43688000Y12237500D03*
%TD*%
D16*
%TO.N,Net-(FB1-Pad1)*%
%TO.C,J4*%
X7318000Y16085500D03*
X2418000Y15485500D03*
X7318000Y30585500D03*
X2418000Y31185500D03*
%TD*%
D17*
%TO.N,Net-(H3-Pad1)*%
%TO.C,H3*%
X45200000Y3317500D03*
%TD*%
D12*
%TO.N,Net-(C1-Pad2)*%
%TO.C,TP2*%
X22860000Y32225500D03*
%TD*%
D18*
%TO.N,/vsense/SMA_OUT*%
%TO.C,J1*%
X4826000Y5905500D03*
D19*
%TO.N,GND*%
X7375900Y3355600D03*
%TO.N,N/C*%
X2276100Y3355600D03*
X2276100Y8455400D03*
X7375900Y8455400D03*
%TD*%
D20*
%TO.N,GND*%
X9271000Y31305500D03*
%TO.N,Net-(R12-Pad1)*%
X33080900Y11070800D03*
%TO.N,Net-(C12-Pad2)*%
X35653700Y8212500D03*
%TO.N,3V3_BUF*%
X20320000Y22785900D03*
X24370800Y7420400D03*
%TO.N,Net-(R6-Pad1)*%
X23114000Y16764700D03*
X20790600Y18301900D03*
%TO.N,Net-(C12-Pad1)*%
X38055500Y7192200D03*
X26835400Y27019000D03*
%TO.N,+3V3*%
X13761600Y21793600D03*
X23444900Y10967900D03*
%TO.N,/vsense/SCL*%
X17340700Y22058300D03*
X35762400Y24655100D03*
%TO.N,/vsense/SDA*%
X14554200Y18544300D03*
X11684700Y24060600D03*
X40375100Y26990500D03*
%TO.N,Net-(C7-Pad2)*%
X22003700Y19610700D03*
X13301900Y23338900D03*
%TO.N,Net-(C1-Pad2)*%
X12370900Y21457200D03*
%TO.N,-15V*%
X9646200Y24289900D03*
X20079000Y16553100D03*
X38592500Y29950500D03*
X7747000Y10461500D03*
X34589300Y5668200D03*
X18083500Y23939500D03*
X35603000Y20364500D03*
%TO.N,+15V*%
X30179200Y9472600D03*
X36576000Y32451700D03*
X21457500Y24158400D03*
X26289000Y19244100D03*
X27321200Y21383600D03*
X6658200Y23085500D03*
X23144200Y18579500D03*
X30425400Y16214600D03*
%TO.N,+5V*%
X10668000Y33723400D03*
X9873800Y15954800D03*
X13001900Y16700500D03*
X30831700Y8633500D03*
X30897900Y6689100D03*
X9666900Y27057600D03*
%TO.N,GND*%
X31487900Y7700400D03*
X6802800Y12128500D03*
X17272700Y9092800D03*
X20422100Y8178100D03*
X9649800Y20585500D03*
X6887200Y18819400D03*
X11576700Y27695000D03*
X35039000Y27100100D03*
X37479600Y29950500D03*
X6875700Y23837200D03*
X38328200Y27876200D03*
X39624000Y26896600D03*
X39497000Y32453600D03*
X44069000Y25330500D03*
X6650800Y22240300D03*
X6864900Y26489700D03*
X16171200Y13042500D03*
X10541000Y13642900D03*
X14102500Y15010200D03*
X16015000Y26973500D03*
X23993600Y21417700D03*
X26289000Y15928100D03*
X17641400Y20962900D03*
X17631600Y17561800D03*
X39258900Y4587400D03*
X23432000Y13825900D03*
%TD*%
D21*
%TO.N,3V3_BUF*%
X24370800Y18735100D02*
X24370800Y7420400D01*
X20320000Y22785900D02*
X24370800Y18735100D01*
%TO.N,Net-(R6-Pad1)*%
X21576800Y18301900D02*
X20790600Y18301900D01*
X23114000Y16764700D02*
X21576800Y18301900D01*
%TO.N,Net-(C12-Pad1)*%
X28543600Y25310800D02*
X26835400Y27019000D01*
X28543600Y14512700D02*
X28543600Y25310800D01*
X35864100Y7192200D02*
X28543600Y14512700D01*
X38055500Y7192200D02*
X35864100Y7192200D01*
%TD*%
%TA.AperFunction,Conductor*%
%TO.N,-15V*%
G36*
X47687621Y34042998D02*
G01*
X47734114Y33989342D01*
X47745500Y33937000D01*
X47745500Y19904342D01*
X47725498Y19836221D01*
X47671842Y19789728D01*
X47620034Y19778343D01*
X45109887Y19767698D01*
X40242541Y19747057D01*
X40174336Y19766770D01*
X40127616Y19820228D01*
X40116526Y19861637D01*
X40116230Y19864897D01*
X40098834Y20056050D01*
X40040446Y20254434D01*
X39992291Y20346546D01*
X39947492Y20432239D01*
X39947489Y20432243D01*
X39944637Y20437699D01*
X39939089Y20444600D01*
X39832386Y20577312D01*
X39815057Y20598865D01*
X39656640Y20731792D01*
X39475422Y20831418D01*
X39278304Y20893947D01*
X39272187Y20894633D01*
X39272183Y20894634D01*
X39196163Y20903161D01*
X39117360Y20912000D01*
X38105966Y20912000D01*
X37952189Y20896922D01*
X37754217Y20837151D01*
X37662921Y20788608D01*
X37577067Y20742959D01*
X37577064Y20742957D01*
X37571625Y20740065D01*
X37566855Y20736174D01*
X37566851Y20736172D01*
X37416143Y20613258D01*
X37416140Y20613255D01*
X37411368Y20609363D01*
X37407441Y20604616D01*
X37407439Y20604614D01*
X37283478Y20454771D01*
X37283475Y20454766D01*
X37279550Y20450022D01*
X37276620Y20444603D01*
X37276618Y20444600D01*
X37184122Y20273532D01*
X37184120Y20273527D01*
X37181192Y20268112D01*
X37120040Y20070563D01*
X37119396Y20064438D01*
X37119396Y20064437D01*
X37100297Y19882714D01*
X37098424Y19864897D01*
X37098983Y19858754D01*
X37098980Y19858318D01*
X37078506Y19790338D01*
X37024529Y19744219D01*
X36973517Y19733194D01*
X31641114Y19710581D01*
X31641113Y19710581D01*
X31623000Y19710504D01*
X31622921Y19697284D01*
X31622921Y19697282D01*
X31600399Y15907620D01*
X31578800Y12273254D01*
X31578548Y12230911D01*
X31558141Y12162911D01*
X31504210Y12116737D01*
X31433877Y12107051D01*
X31369473Y12136928D01*
X31363455Y12142565D01*
X28898505Y14607515D01*
X28864479Y14669827D01*
X28861600Y14696610D01*
X28861600Y16214600D01*
X29866115Y16214600D01*
X29867193Y16206412D01*
X29882339Y16091368D01*
X29885172Y16069846D01*
X29888331Y16062220D01*
X29936218Y15946612D01*
X29941045Y15934958D01*
X29962022Y15907620D01*
X29989981Y15871184D01*
X30029926Y15819126D01*
X30036476Y15814100D01*
X30036479Y15814097D01*
X30086493Y15775720D01*
X30145757Y15730245D01*
X30280646Y15674372D01*
X30288834Y15673294D01*
X30324436Y15668607D01*
X30425400Y15655315D01*
X30433588Y15656393D01*
X30561966Y15673294D01*
X30570154Y15674372D01*
X30705043Y15730245D01*
X30764307Y15775720D01*
X30814321Y15814097D01*
X30814324Y15814100D01*
X30820874Y15819126D01*
X30860820Y15871184D01*
X30888778Y15907620D01*
X30909755Y15934958D01*
X30914583Y15946612D01*
X30962469Y16062220D01*
X30965628Y16069846D01*
X30968462Y16091368D01*
X30983607Y16206412D01*
X30984685Y16214600D01*
X30981210Y16240993D01*
X30966706Y16351168D01*
X30966705Y16351170D01*
X30965628Y16359354D01*
X30943633Y16412455D01*
X30912915Y16486614D01*
X30912914Y16486616D01*
X30909755Y16494242D01*
X30820874Y16610074D01*
X30814324Y16615100D01*
X30814321Y16615103D01*
X30711596Y16693927D01*
X30711594Y16693928D01*
X30705043Y16698955D01*
X30570154Y16754828D01*
X30425400Y16773885D01*
X30417212Y16772807D01*
X30288832Y16755906D01*
X30288830Y16755905D01*
X30280646Y16754828D01*
X30232830Y16735022D01*
X30153386Y16702115D01*
X30153384Y16702114D01*
X30145758Y16698955D01*
X30029926Y16610074D01*
X29941045Y16494242D01*
X29937886Y16486616D01*
X29937885Y16486614D01*
X29907167Y16412455D01*
X29885172Y16359354D01*
X29884095Y16351170D01*
X29884094Y16351168D01*
X29869590Y16240993D01*
X29866115Y16214600D01*
X28861600Y16214600D01*
X28861600Y22429066D01*
X39928628Y22429066D01*
X39928872Y22424631D01*
X39928872Y22424627D01*
X39931858Y22370373D01*
X39944226Y22145628D01*
X39945093Y22141268D01*
X39945094Y22141262D01*
X39959968Y22066488D01*
X39999606Y21867215D01*
X40001084Y21863005D01*
X40001085Y21863003D01*
X40016818Y21818203D01*
X40093662Y21599384D01*
X40095715Y21595433D01*
X40095717Y21595427D01*
X40218856Y21358374D01*
X40224517Y21347476D01*
X40227100Y21343861D01*
X40227104Y21343855D01*
X40299504Y21242542D01*
X40389561Y21116520D01*
X40585501Y20911123D01*
X40588997Y20908367D01*
X40588998Y20908366D01*
X40677074Y20838932D01*
X40808426Y20735382D01*
X40885032Y20690886D01*
X41050042Y20595040D01*
X41050048Y20595037D01*
X41053889Y20592806D01*
X41058012Y20591136D01*
X41312861Y20487911D01*
X41312869Y20487908D01*
X41316993Y20486238D01*
X41592488Y20417805D01*
X41834586Y20393000D01*
X45510311Y20393000D01*
X45721158Y20407929D01*
X45725513Y20408867D01*
X45725516Y20408867D01*
X45994319Y20466739D01*
X45994321Y20466739D01*
X45998666Y20467675D01*
X46264987Y20565926D01*
X46333371Y20602824D01*
X46510892Y20698609D01*
X46514808Y20700722D01*
X46743144Y20869373D01*
X46750277Y20876394D01*
X46858669Y20983097D01*
X46945438Y21068514D01*
X47078252Y21242542D01*
X47114950Y21290628D01*
X47114953Y21290632D01*
X47117655Y21294173D01*
X47256359Y21541845D01*
X47267283Y21570080D01*
X47345603Y21772528D01*
X47358781Y21806591D01*
X47359783Y21810912D01*
X47359785Y21810920D01*
X47407182Y22015407D01*
X47422878Y22083126D01*
X47447372Y22365934D01*
X47446771Y22376868D01*
X47434572Y22598528D01*
X47431774Y22649372D01*
X47428519Y22665739D01*
X47400647Y22805858D01*
X47376394Y22927785D01*
X47374521Y22933120D01*
X47283816Y23191407D01*
X47282338Y23195616D01*
X47278850Y23202332D01*
X47153535Y23443574D01*
X47153534Y23443576D01*
X47151483Y23447524D01*
X47148900Y23451139D01*
X47148896Y23451145D01*
X47024590Y23625093D01*
X46986439Y23678480D01*
X46790499Y23883877D01*
X46734175Y23928280D01*
X46571070Y24056862D01*
X46567574Y24059618D01*
X46397508Y24158400D01*
X46325958Y24199960D01*
X46325952Y24199963D01*
X46322111Y24202194D01*
X46260967Y24226960D01*
X46063139Y24307089D01*
X46063131Y24307092D01*
X46059007Y24308762D01*
X45783512Y24377195D01*
X45541414Y24402000D01*
X41865689Y24402000D01*
X41654842Y24387071D01*
X41650487Y24386133D01*
X41650484Y24386133D01*
X41381681Y24328261D01*
X41381679Y24328261D01*
X41377334Y24327325D01*
X41111013Y24229074D01*
X41107095Y24226960D01*
X40897362Y24113794D01*
X40861192Y24094278D01*
X40632856Y23925627D01*
X40629677Y23922498D01*
X40629674Y23922495D01*
X40543029Y23837200D01*
X40430562Y23726486D01*
X40427856Y23722940D01*
X40272439Y23519294D01*
X40258345Y23500827D01*
X40119641Y23253155D01*
X40118036Y23249006D01*
X40118034Y23249002D01*
X40093862Y23186520D01*
X40017219Y22988409D01*
X40016217Y22984088D01*
X40016215Y22984080D01*
X39986191Y22854545D01*
X39953122Y22711874D01*
X39928628Y22429066D01*
X28861600Y22429066D01*
X28861600Y24655100D01*
X35203115Y24655100D01*
X35204193Y24646912D01*
X35218278Y24539927D01*
X35222172Y24510346D01*
X35225331Y24502720D01*
X35273235Y24387071D01*
X35278045Y24375458D01*
X35305067Y24340242D01*
X35328399Y24309836D01*
X35366926Y24259626D01*
X35373476Y24254600D01*
X35373479Y24254597D01*
X35448322Y24197168D01*
X35482757Y24170745D01*
X35617646Y24114872D01*
X35762400Y24095815D01*
X35770588Y24096893D01*
X35898966Y24113794D01*
X35907154Y24114872D01*
X36042043Y24170745D01*
X36076478Y24197168D01*
X36151321Y24254597D01*
X36151324Y24254600D01*
X36157874Y24259626D01*
X36196402Y24309836D01*
X36219733Y24340242D01*
X36246755Y24375458D01*
X36251566Y24387071D01*
X36299469Y24502720D01*
X36302628Y24510346D01*
X36306523Y24539927D01*
X36320607Y24646912D01*
X36321685Y24655100D01*
X36316370Y24695469D01*
X36303706Y24791668D01*
X36303705Y24791670D01*
X36302628Y24799854D01*
X36246755Y24934742D01*
X36157874Y25050574D01*
X36151324Y25055600D01*
X36151321Y25055603D01*
X36048596Y25134427D01*
X36048594Y25134428D01*
X36042043Y25139455D01*
X35907154Y25195328D01*
X35762400Y25214385D01*
X35754212Y25213307D01*
X35625832Y25196406D01*
X35625830Y25196405D01*
X35617646Y25195328D01*
X35594513Y25185746D01*
X35490386Y25142615D01*
X35490384Y25142614D01*
X35482758Y25139455D01*
X35366926Y25050574D01*
X35278045Y24934742D01*
X35222172Y24799854D01*
X35221095Y24791670D01*
X35221094Y24791668D01*
X35208430Y24695469D01*
X35203115Y24655100D01*
X28861600Y24655100D01*
X28861600Y25291406D01*
X28862079Y25302387D01*
X28864317Y25327967D01*
X28864317Y25327968D01*
X28864538Y25330500D01*
X43509715Y25330500D01*
X43510793Y25322312D01*
X43527511Y25195328D01*
X43528772Y25185746D01*
X43584645Y25050858D01*
X43673526Y24935026D01*
X43680076Y24930000D01*
X43680079Y24929997D01*
X43782804Y24851173D01*
X43789357Y24846145D01*
X43924246Y24790272D01*
X44069000Y24771215D01*
X44077188Y24772293D01*
X44205566Y24789194D01*
X44213754Y24790272D01*
X44348643Y24846145D01*
X44355196Y24851173D01*
X44457921Y24929997D01*
X44457924Y24930000D01*
X44464474Y24935026D01*
X44553355Y25050858D01*
X44609228Y25185746D01*
X44610490Y25195328D01*
X44627207Y25322312D01*
X44628285Y25330500D01*
X44616339Y25421240D01*
X44610306Y25467068D01*
X44610305Y25467070D01*
X44609228Y25475254D01*
X44553355Y25610142D01*
X44464474Y25725974D01*
X44457924Y25731000D01*
X44457921Y25731003D01*
X44355196Y25809827D01*
X44355194Y25809828D01*
X44348643Y25814855D01*
X44213754Y25870728D01*
X44069000Y25889785D01*
X44060812Y25888707D01*
X43932432Y25871806D01*
X43932430Y25871805D01*
X43924246Y25870728D01*
X43876430Y25850922D01*
X43796986Y25818015D01*
X43796984Y25818014D01*
X43789358Y25814855D01*
X43673526Y25725974D01*
X43584645Y25610142D01*
X43528772Y25475254D01*
X43527695Y25467070D01*
X43527694Y25467068D01*
X43521661Y25421240D01*
X43509715Y25330500D01*
X28864538Y25330500D01*
X28865277Y25338943D01*
X28862425Y25349588D01*
X28855782Y25374381D01*
X28853404Y25385110D01*
X28848948Y25410379D01*
X28848946Y25410384D01*
X28847032Y25421240D01*
X28841519Y25430787D01*
X28840440Y25433753D01*
X28839106Y25436614D01*
X28836252Y25447266D01*
X28822386Y25467068D01*
X28815208Y25477320D01*
X28809303Y25486590D01*
X28796474Y25508811D01*
X28796471Y25508815D01*
X28790960Y25518360D01*
X28762855Y25541943D01*
X28754751Y25549369D01*
X27425876Y26878244D01*
X27391850Y26940556D01*
X27390049Y26983785D01*
X27393607Y27010812D01*
X27394685Y27019000D01*
X27384008Y27100100D01*
X34479715Y27100100D01*
X34480793Y27091912D01*
X34496971Y26969028D01*
X34498772Y26955346D01*
X34554645Y26820458D01*
X34643526Y26704626D01*
X34650076Y26699600D01*
X34650079Y26699597D01*
X34752804Y26620773D01*
X34759357Y26615745D01*
X34894246Y26559872D01*
X35039000Y26540815D01*
X35047188Y26541893D01*
X35175566Y26558794D01*
X35183754Y26559872D01*
X35318643Y26615745D01*
X35325196Y26620773D01*
X35427921Y26699597D01*
X35427924Y26699600D01*
X35434474Y26704626D01*
X35523355Y26820458D01*
X35554894Y26896600D01*
X39064715Y26896600D01*
X39065793Y26888412D01*
X39081469Y26769342D01*
X39083772Y26751846D01*
X39086931Y26744220D01*
X39135789Y26626268D01*
X39139645Y26616958D01*
X39175612Y26570085D01*
X39220817Y26511173D01*
X39228526Y26501126D01*
X39235076Y26496100D01*
X39235079Y26496097D01*
X39337804Y26417273D01*
X39344357Y26412245D01*
X39479246Y26356372D01*
X39487434Y26355294D01*
X39551623Y26346843D01*
X39624000Y26337315D01*
X39632188Y26338393D01*
X39760566Y26355294D01*
X39768754Y26356372D01*
X39903643Y26412245D01*
X39992648Y26480542D01*
X40058864Y26506141D01*
X40117566Y26496987D01*
X40230346Y26450272D01*
X40375100Y26431215D01*
X40383288Y26432293D01*
X40390725Y26433272D01*
X40519854Y26450272D01*
X40654743Y26506145D01*
X40661296Y26511173D01*
X40764021Y26589997D01*
X40764024Y26590000D01*
X40770574Y26595026D01*
X40784048Y26612585D01*
X40850814Y26699597D01*
X40859455Y26710858D01*
X40880521Y26761714D01*
X40912169Y26838120D01*
X40915328Y26845746D01*
X40919607Y26878244D01*
X40933307Y26982312D01*
X40934385Y26990500D01*
X40915328Y27135254D01*
X40869930Y27244854D01*
X40862615Y27262514D01*
X40862614Y27262516D01*
X40859455Y27270142D01*
X40788645Y27362423D01*
X40775601Y27379423D01*
X40775600Y27379424D01*
X40770574Y27385974D01*
X40764024Y27391000D01*
X40764021Y27391003D01*
X40661296Y27469827D01*
X40661294Y27469828D01*
X40654743Y27474855D01*
X40519854Y27530728D01*
X40504230Y27532785D01*
X40429524Y27542620D01*
X40375100Y27549785D01*
X40366912Y27548707D01*
X40238532Y27531806D01*
X40238530Y27531805D01*
X40230346Y27530728D01*
X40191907Y27514806D01*
X40103086Y27478015D01*
X40103084Y27478014D01*
X40095458Y27474855D01*
X40066752Y27452828D01*
X40006454Y27406560D01*
X39940233Y27380960D01*
X39881532Y27390114D01*
X39776384Y27433668D01*
X39776381Y27433669D01*
X39768754Y27436828D01*
X39624000Y27455885D01*
X39615812Y27454807D01*
X39487432Y27437906D01*
X39487430Y27437905D01*
X39479246Y27436828D01*
X39445829Y27422986D01*
X39351986Y27384115D01*
X39351984Y27384114D01*
X39344358Y27380955D01*
X39337807Y27375928D01*
X39237086Y27298642D01*
X39228526Y27292074D01*
X39139645Y27176242D01*
X39136486Y27168616D01*
X39136485Y27168614D01*
X39111497Y27108288D01*
X39083772Y27041354D01*
X39082695Y27033170D01*
X39082694Y27033168D01*
X39080829Y27019000D01*
X39064715Y26896600D01*
X35554894Y26896600D01*
X35579228Y26955346D01*
X35581030Y26969028D01*
X35597207Y27091912D01*
X35598285Y27100100D01*
X35588261Y27176242D01*
X35580306Y27236668D01*
X35580305Y27236670D01*
X35579228Y27244854D01*
X35540959Y27337242D01*
X35526515Y27372114D01*
X35526514Y27372116D01*
X35523355Y27379742D01*
X35465756Y27454807D01*
X35439501Y27489023D01*
X35439500Y27489024D01*
X35434474Y27495574D01*
X35427924Y27500600D01*
X35427921Y27500603D01*
X35325196Y27579427D01*
X35325194Y27579428D01*
X35318643Y27584455D01*
X35183754Y27640328D01*
X35039000Y27659385D01*
X35030812Y27658307D01*
X34902432Y27641406D01*
X34902430Y27641405D01*
X34894246Y27640328D01*
X34846430Y27620522D01*
X34766986Y27587615D01*
X34766984Y27587614D01*
X34759358Y27584455D01*
X34643526Y27495574D01*
X34638503Y27489028D01*
X34628274Y27475697D01*
X34554645Y27379742D01*
X34551486Y27372116D01*
X34551485Y27372114D01*
X34537041Y27337242D01*
X34498772Y27244854D01*
X34497695Y27236670D01*
X34497694Y27236668D01*
X34489739Y27176242D01*
X34479715Y27100100D01*
X27384008Y27100100D01*
X27379380Y27135254D01*
X27376706Y27155568D01*
X27376705Y27155570D01*
X27375628Y27163754D01*
X27338602Y27253142D01*
X27322915Y27291014D01*
X27322914Y27291016D01*
X27319755Y27298642D01*
X27261933Y27373997D01*
X27235901Y27407923D01*
X27235900Y27407924D01*
X27230874Y27414474D01*
X27224324Y27419500D01*
X27224321Y27419503D01*
X27121596Y27498327D01*
X27121594Y27498328D01*
X27115043Y27503355D01*
X26980154Y27559228D01*
X26835400Y27578285D01*
X26827212Y27577207D01*
X26698832Y27560306D01*
X26698830Y27560305D01*
X26690646Y27559228D01*
X26656575Y27545115D01*
X26563386Y27506515D01*
X26563384Y27506514D01*
X26555758Y27503355D01*
X26439926Y27414474D01*
X26351045Y27298642D01*
X26347886Y27291016D01*
X26347885Y27291014D01*
X26332198Y27253142D01*
X26295172Y27163754D01*
X26294095Y27155570D01*
X26294094Y27155568D01*
X26291420Y27135254D01*
X26276115Y27019000D01*
X26277193Y27010812D01*
X26289013Y26921032D01*
X26295172Y26874246D01*
X26306977Y26845746D01*
X26341785Y26761714D01*
X26351045Y26739358D01*
X26356072Y26732807D01*
X26431541Y26634454D01*
X26439926Y26623526D01*
X26446476Y26618500D01*
X26446479Y26618497D01*
X26547716Y26540815D01*
X26555757Y26534645D01*
X26690646Y26478772D01*
X26835400Y26459715D01*
X26870615Y26464351D01*
X26940764Y26453411D01*
X26976156Y26428524D01*
X28188695Y25215985D01*
X28222721Y25153673D01*
X28225600Y25126890D01*
X28225600Y14532092D01*
X28225121Y14521110D01*
X28221923Y14484557D01*
X28224777Y14473906D01*
X28231418Y14449119D01*
X28233796Y14438390D01*
X28238252Y14413121D01*
X28238254Y14413116D01*
X28240168Y14402260D01*
X28245681Y14392713D01*
X28246760Y14389747D01*
X28248094Y14386886D01*
X28250948Y14376234D01*
X28257270Y14367206D01*
X28257271Y14367204D01*
X28271992Y14346180D01*
X28277897Y14336910D01*
X28290726Y14314689D01*
X28290729Y14314685D01*
X28296240Y14305140D01*
X28304687Y14298052D01*
X28324345Y14281557D01*
X28332449Y14274131D01*
X35625531Y6981049D01*
X35632957Y6972945D01*
X35646243Y6957112D01*
X35656540Y6944840D01*
X35666085Y6939329D01*
X35666089Y6939326D01*
X35688318Y6926493D01*
X35697579Y6920593D01*
X35727634Y6899549D01*
X35738279Y6896696D01*
X35741151Y6895357D01*
X35744117Y6894277D01*
X35753660Y6888768D01*
X35764509Y6886855D01*
X35764517Y6886852D01*
X35789794Y6882395D01*
X35800522Y6880017D01*
X35825305Y6873377D01*
X35825306Y6873377D01*
X35835957Y6870523D01*
X35872510Y6873721D01*
X35883492Y6874200D01*
X37538442Y6874200D01*
X37606563Y6854198D01*
X37638402Y6824907D01*
X37660026Y6796726D01*
X37775857Y6707845D01*
X37910746Y6651972D01*
X38055500Y6632915D01*
X38063688Y6633993D01*
X38192066Y6650894D01*
X38200254Y6651972D01*
X38335143Y6707845D01*
X38341696Y6712873D01*
X38444421Y6791697D01*
X38444424Y6791700D01*
X38450974Y6796726D01*
X38539855Y6912558D01*
X38543181Y6920586D01*
X38592569Y7039820D01*
X38595728Y7047446D01*
X38604837Y7116632D01*
X38613707Y7184012D01*
X38614785Y7192200D01*
X38602722Y7283832D01*
X38596806Y7328768D01*
X38596805Y7328770D01*
X38595728Y7336954D01*
X38564555Y7412212D01*
X38543015Y7464214D01*
X38543014Y7464216D01*
X38539855Y7471842D01*
X38450974Y7587674D01*
X38444423Y7592701D01*
X38444421Y7592703D01*
X38341696Y7671527D01*
X38341694Y7671528D01*
X38335143Y7676555D01*
X38200254Y7732428D01*
X38055500Y7751485D01*
X38047312Y7750407D01*
X37918932Y7733506D01*
X37918930Y7733505D01*
X37910746Y7732428D01*
X37900406Y7728145D01*
X37783486Y7679715D01*
X37783484Y7679714D01*
X37775858Y7676555D01*
X37660026Y7587674D01*
X37638403Y7559494D01*
X37581066Y7517628D01*
X37538442Y7510200D01*
X36048010Y7510200D01*
X35979889Y7530202D01*
X35958915Y7547105D01*
X35946969Y7559051D01*
X35912943Y7621363D01*
X35918008Y7692178D01*
X35959359Y7748108D01*
X36042624Y7812000D01*
X36049174Y7817026D01*
X36070758Y7845154D01*
X36133028Y7926307D01*
X36138055Y7932858D01*
X36144601Y7948660D01*
X36190769Y8060120D01*
X36193928Y8067746D01*
X36212985Y8212500D01*
X36206687Y8260338D01*
X36195006Y8349068D01*
X36195005Y8349070D01*
X36193928Y8357254D01*
X36138055Y8492142D01*
X36049174Y8607974D01*
X36042624Y8613000D01*
X36042621Y8613003D01*
X35939896Y8691827D01*
X35939894Y8691828D01*
X35933343Y8696855D01*
X35798454Y8752728D01*
X35653700Y8771785D01*
X35645512Y8770707D01*
X35517132Y8753806D01*
X35517130Y8753805D01*
X35508946Y8752728D01*
X35471905Y8737385D01*
X35381686Y8700015D01*
X35381684Y8700014D01*
X35374058Y8696855D01*
X35258226Y8607974D01*
X35253203Y8601428D01*
X35253199Y8601424D01*
X35189308Y8518160D01*
X35131970Y8476293D01*
X35061099Y8472071D01*
X35000251Y8505769D01*
X33181760Y10324260D01*
X33147734Y10386572D01*
X33152799Y10457387D01*
X33195346Y10514223D01*
X33226215Y10529216D01*
X33225654Y10530572D01*
X33256546Y10543368D01*
X33360543Y10586445D01*
X33367096Y10591473D01*
X33469821Y10670297D01*
X33469824Y10670300D01*
X33476374Y10675326D01*
X33500464Y10706720D01*
X33520814Y10733242D01*
X33565255Y10791158D01*
X33621128Y10926046D01*
X33640185Y11070800D01*
X33625301Y11183855D01*
X33622206Y11207368D01*
X33622205Y11207370D01*
X33621128Y11215554D01*
X33574180Y11328896D01*
X33568415Y11342814D01*
X33568414Y11342816D01*
X33565255Y11350442D01*
X33500044Y11435427D01*
X33481401Y11459723D01*
X33481400Y11459724D01*
X33476374Y11466274D01*
X33469823Y11471301D01*
X33469821Y11471303D01*
X33370123Y11547804D01*
X33328256Y11605142D01*
X33324034Y11676013D01*
X33358798Y11737916D01*
X33421511Y11771197D01*
X33447387Y11773765D01*
X36547019Y11759963D01*
X39897587Y11745044D01*
X39965618Y11724739D01*
X40011872Y11670876D01*
X40015908Y11660795D01*
X40093662Y11439384D01*
X40095715Y11435433D01*
X40095717Y11435427D01*
X40189912Y11254093D01*
X40224517Y11187476D01*
X40227100Y11183861D01*
X40227104Y11183855D01*
X40302044Y11078988D01*
X40389561Y10956520D01*
X40585501Y10751123D01*
X40588997Y10748367D01*
X40588998Y10748366D01*
X40776891Y10600242D01*
X40808426Y10575382D01*
X40913719Y10514223D01*
X41050042Y10435040D01*
X41050048Y10435037D01*
X41053889Y10432806D01*
X41058012Y10431136D01*
X41312861Y10327911D01*
X41312869Y10327908D01*
X41316993Y10326238D01*
X41592488Y10257805D01*
X41834586Y10233000D01*
X45510311Y10233000D01*
X45721158Y10247929D01*
X45725513Y10248867D01*
X45725516Y10248867D01*
X45994319Y10306739D01*
X45994321Y10306739D01*
X45998666Y10307675D01*
X46264987Y10405926D01*
X46269971Y10408615D01*
X46510892Y10538609D01*
X46514808Y10540722D01*
X46743144Y10709373D01*
X46782755Y10748366D01*
X46942257Y10905383D01*
X46945438Y10908514D01*
X47063042Y11062612D01*
X47114950Y11130628D01*
X47114953Y11130632D01*
X47117655Y11134173D01*
X47256359Y11381845D01*
X47280248Y11443593D01*
X47312169Y11526107D01*
X47352667Y11630787D01*
X47395900Y11687101D01*
X47462716Y11711103D01*
X47470729Y11711323D01*
X47620062Y11710658D01*
X47688092Y11690353D01*
X47734346Y11636490D01*
X47745500Y11584659D01*
X47745500Y4221719D01*
X47725498Y4153598D01*
X47671842Y4107105D01*
X47601568Y4097001D01*
X47536988Y4126495D01*
X47499667Y4182783D01*
X47487875Y4219074D01*
X47486649Y4222848D01*
X47355147Y4502302D01*
X47325580Y4548893D01*
X47220977Y4713720D01*
X47189658Y4763071D01*
X46992791Y5001043D01*
X46767651Y5212464D01*
X46653788Y5295190D01*
X46520996Y5391669D01*
X46520991Y5391672D01*
X46517787Y5394000D01*
X46350217Y5486123D01*
X46250604Y5540886D01*
X46250601Y5540888D01*
X46247142Y5542789D01*
X45959982Y5656484D01*
X45660837Y5733291D01*
X45354424Y5772000D01*
X45045576Y5772000D01*
X44739163Y5733291D01*
X44440018Y5656484D01*
X44152858Y5542789D01*
X44149399Y5540888D01*
X44149396Y5540886D01*
X44049783Y5486123D01*
X43882213Y5394000D01*
X43879009Y5391672D01*
X43879004Y5391669D01*
X43746212Y5295190D01*
X43632349Y5212464D01*
X43407209Y5001043D01*
X43210342Y4763071D01*
X43179023Y4713720D01*
X43074421Y4548893D01*
X43044853Y4502302D01*
X42913351Y4222848D01*
X42817912Y3929116D01*
X42760040Y3625739D01*
X42740647Y3317500D01*
X42760040Y3009261D01*
X42817912Y2705884D01*
X42913351Y2412152D01*
X43044853Y2132698D01*
X43046971Y2129360D01*
X43046973Y2129357D01*
X43140515Y1981959D01*
X43210342Y1871929D01*
X43407209Y1633957D01*
X43632349Y1422536D01*
X43635549Y1420211D01*
X43635553Y1420208D01*
X43713618Y1363491D01*
X43756972Y1307269D01*
X43763047Y1236533D01*
X43729916Y1173741D01*
X43668096Y1138830D01*
X43640796Y1135561D01*
X381739Y710042D01*
X313425Y729373D01*
X266407Y782569D01*
X254500Y836036D01*
X254500Y3355600D01*
X683190Y3355600D01*
X702801Y3106414D01*
X711237Y3071278D01*
X753183Y2896563D01*
X761153Y2863364D01*
X763043Y2858801D01*
X763045Y2858795D01*
X824767Y2709785D01*
X856807Y2632434D01*
X987409Y2419311D01*
X1149743Y2229243D01*
X1339811Y2066909D01*
X1552934Y1936307D01*
X1557504Y1934414D01*
X1557508Y1934412D01*
X1779295Y1842545D01*
X1779301Y1842543D01*
X1783864Y1840653D01*
X1788664Y1839501D01*
X1788669Y1839499D01*
X1899932Y1812787D01*
X2026914Y1782301D01*
X2276100Y1762690D01*
X2525286Y1782301D01*
X2652268Y1812787D01*
X2763531Y1839499D01*
X2763536Y1839501D01*
X2768336Y1840653D01*
X2772899Y1842543D01*
X2772905Y1842545D01*
X2994692Y1934412D01*
X2994696Y1934414D01*
X2999266Y1936307D01*
X3212389Y2066909D01*
X3402457Y2229243D01*
X3564791Y2419311D01*
X3695393Y2632434D01*
X3727433Y2709785D01*
X3789155Y2858795D01*
X3789157Y2858801D01*
X3791047Y2863364D01*
X3799018Y2896563D01*
X3840963Y3071278D01*
X3849399Y3106414D01*
X3869010Y3355600D01*
X5782990Y3355600D01*
X5802601Y3106414D01*
X5811037Y3071278D01*
X5852983Y2896563D01*
X5860953Y2863364D01*
X5862843Y2858801D01*
X5862845Y2858795D01*
X5924567Y2709785D01*
X5956607Y2632434D01*
X6087209Y2419311D01*
X6249543Y2229243D01*
X6439611Y2066909D01*
X6652734Y1936307D01*
X6657304Y1934414D01*
X6657308Y1934412D01*
X6879095Y1842545D01*
X6879101Y1842543D01*
X6883664Y1840653D01*
X6888464Y1839501D01*
X6888469Y1839499D01*
X6999732Y1812787D01*
X7126714Y1782301D01*
X7375900Y1762690D01*
X7625086Y1782301D01*
X7752068Y1812787D01*
X7863331Y1839499D01*
X7863336Y1839501D01*
X7868136Y1840653D01*
X7872699Y1842543D01*
X7872705Y1842545D01*
X8094492Y1934412D01*
X8094496Y1934414D01*
X8099066Y1936307D01*
X8312189Y2066909D01*
X8502257Y2229243D01*
X8664591Y2419311D01*
X8795193Y2632434D01*
X8827233Y2709785D01*
X8888955Y2858795D01*
X8888957Y2858801D01*
X8890847Y2863364D01*
X8898818Y2896563D01*
X8940763Y3071278D01*
X8949199Y3106414D01*
X8968810Y3355600D01*
X8966769Y3381536D01*
X12742112Y3381536D01*
X12742312Y3376208D01*
X12742312Y3376206D01*
X12744464Y3318901D01*
X12743705Y3318872D01*
X12744034Y3317484D01*
X12744340Y3317511D01*
X12744374Y3317123D01*
X12744465Y3315662D01*
X12744523Y3315415D01*
X12744648Y3313993D01*
X12750736Y3151831D01*
X12751831Y3146612D01*
X12764628Y3085621D01*
X12763861Y3085460D01*
X12764841Y3083184D01*
X12764937Y3082092D01*
X12766361Y3076778D01*
X12766464Y3076193D01*
X12767635Y3071290D01*
X12797939Y2926863D01*
X12806934Y2904086D01*
X12823975Y2860934D01*
X12824724Y2858959D01*
X12826097Y2853837D01*
X12828422Y2848851D01*
X12828423Y2848849D01*
X12828947Y2847725D01*
X12831934Y2840783D01*
X12882372Y2713064D01*
X12919273Y2652254D01*
X12920811Y2649374D01*
X12920890Y2649420D01*
X12923639Y2644659D01*
X12925965Y2639671D01*
X12929122Y2635163D01*
X12929124Y2635159D01*
X12930674Y2632945D01*
X12935181Y2626038D01*
X12996862Y2524391D01*
X13001621Y2516548D01*
X13005116Y2512521D01*
X13005117Y2512519D01*
X13051993Y2458500D01*
X13055555Y2453937D01*
X13058347Y2450610D01*
X13061505Y2446099D01*
X13067791Y2439813D01*
X13073861Y2433299D01*
X13137640Y2359801D01*
X13152276Y2342934D01*
X13196753Y2306465D01*
X13216309Y2290430D01*
X13223574Y2283848D01*
X13224706Y2282898D01*
X13228599Y2279005D01*
X13233103Y2275851D01*
X13233108Y2275847D01*
X13235936Y2273867D01*
X13243554Y2268090D01*
X13325901Y2200569D01*
X13325907Y2200565D01*
X13330029Y2197185D01*
X13339811Y2191617D01*
X13407355Y2153169D01*
X13417296Y2146878D01*
X13417660Y2146623D01*
X13417667Y2146619D01*
X13422171Y2143465D01*
X13427155Y2141141D01*
X13427160Y2141138D01*
X13429875Y2139872D01*
X13438952Y2135182D01*
X13457353Y2124708D01*
X13529798Y2083470D01*
X13619498Y2050910D01*
X13629753Y2046667D01*
X13631348Y2045923D01*
X13631350Y2045922D01*
X13636337Y2043597D01*
X13641653Y2042173D01*
X13641655Y2042172D01*
X13642719Y2041887D01*
X13643702Y2041624D01*
X13654081Y2038357D01*
X13745871Y2005039D01*
X13846443Y1986852D01*
X13856616Y1984574D01*
X13864592Y1982437D01*
X13870990Y1981877D01*
X13882412Y1980348D01*
X13972069Y1964136D01*
X13976208Y1963941D01*
X13976215Y1963940D01*
X13994670Y1963070D01*
X13994677Y1963070D01*
X13996158Y1963000D01*
X14157712Y1963000D01*
X14237444Y1969765D01*
X14323733Y1977087D01*
X14323737Y1977088D01*
X14329044Y1977538D01*
X14334199Y1978876D01*
X14334205Y1978877D01*
X14546368Y2033944D01*
X14546367Y2033944D01*
X14551539Y2035286D01*
X14698412Y2101448D01*
X14756262Y2127507D01*
X14756265Y2127508D01*
X14761123Y2129697D01*
X14951803Y2258070D01*
X14978826Y2283848D01*
X15109560Y2408563D01*
X15118128Y2416736D01*
X15144984Y2452831D01*
X15252156Y2596876D01*
X15255342Y2601158D01*
X15259415Y2609168D01*
X15357102Y2801306D01*
X15357102Y2801307D01*
X15359520Y2806062D01*
X15427685Y3025589D01*
X15439072Y3111500D01*
X22606670Y3111500D01*
X22625954Y2891083D01*
X22627378Y2885770D01*
X22627378Y2885768D01*
X22671044Y2722807D01*
X22683220Y2677364D01*
X22685543Y2672383D01*
X22685543Y2672382D01*
X22774402Y2481822D01*
X22774405Y2481817D01*
X22776728Y2476835D01*
X22779884Y2472328D01*
X22779885Y2472326D01*
X22852857Y2368112D01*
X22903637Y2295590D01*
X23060090Y2139137D01*
X23064598Y2135980D01*
X23064601Y2135978D01*
X23210321Y2033944D01*
X23241335Y2012228D01*
X23246317Y2009905D01*
X23246322Y2009902D01*
X23404148Y1936307D01*
X23441864Y1918720D01*
X23447172Y1917298D01*
X23447174Y1917297D01*
X23650268Y1862878D01*
X23650270Y1862878D01*
X23655583Y1861454D01*
X23876000Y1842170D01*
X24096417Y1861454D01*
X24101730Y1862878D01*
X24101732Y1862878D01*
X24304826Y1917297D01*
X24304828Y1917298D01*
X24310136Y1918720D01*
X24347852Y1936307D01*
X24505678Y2009902D01*
X24505683Y2009905D01*
X24510665Y2012228D01*
X24541679Y2033944D01*
X24687399Y2135978D01*
X24687402Y2135980D01*
X24691910Y2139137D01*
X24848363Y2295590D01*
X24899144Y2368112D01*
X24972115Y2472326D01*
X24972116Y2472328D01*
X24975272Y2476835D01*
X24977595Y2481817D01*
X24977598Y2481822D01*
X25066457Y2672382D01*
X25066457Y2672383D01*
X25068780Y2677364D01*
X25080957Y2722807D01*
X25124622Y2885768D01*
X25124622Y2885770D01*
X25126046Y2891083D01*
X25145330Y3111500D01*
X25137803Y3197536D01*
X26821148Y3197536D01*
X26834424Y2994978D01*
X26835845Y2989382D01*
X26835846Y2989377D01*
X26871822Y2847725D01*
X26884392Y2798231D01*
X26886809Y2792988D01*
X26923654Y2713064D01*
X26969377Y2613884D01*
X26972710Y2609168D01*
X27082688Y2453552D01*
X27086533Y2448111D01*
X27090675Y2444076D01*
X27147637Y2388587D01*
X27231938Y2306465D01*
X27236742Y2303255D01*
X27251440Y2293434D01*
X27400720Y2193688D01*
X27406023Y2191410D01*
X27406026Y2191408D01*
X27581921Y2115838D01*
X27587228Y2113558D01*
X27660244Y2097036D01*
X27779579Y2070033D01*
X27779584Y2070032D01*
X27785216Y2068758D01*
X27790987Y2068531D01*
X27790989Y2068531D01*
X27850756Y2066183D01*
X27988053Y2060788D01*
X28095348Y2076345D01*
X28183231Y2089087D01*
X28183236Y2089088D01*
X28188945Y2089916D01*
X28194409Y2091771D01*
X28194414Y2091772D01*
X28375693Y2153308D01*
X28375698Y2153310D01*
X28381165Y2155166D01*
X28558276Y2254353D01*
X28562746Y2258070D01*
X28685696Y2360328D01*
X28714345Y2384155D01*
X28740769Y2415926D01*
X28840453Y2535782D01*
X28840455Y2535785D01*
X28844147Y2540224D01*
X28923923Y2682674D01*
X28940510Y2712292D01*
X28940511Y2712294D01*
X28943334Y2717335D01*
X28945190Y2722802D01*
X28945192Y2722807D01*
X29006728Y2904086D01*
X29006729Y2904091D01*
X29008584Y2909555D01*
X29009412Y2915264D01*
X29009413Y2915269D01*
X29032745Y3076193D01*
X29037712Y3110447D01*
X29039232Y3168500D01*
X29036564Y3197536D01*
X29361148Y3197536D01*
X29374424Y2994978D01*
X29375845Y2989382D01*
X29375846Y2989377D01*
X29411822Y2847725D01*
X29424392Y2798231D01*
X29426809Y2792988D01*
X29463654Y2713064D01*
X29509377Y2613884D01*
X29512710Y2609168D01*
X29622688Y2453552D01*
X29626533Y2448111D01*
X29630675Y2444076D01*
X29687637Y2388587D01*
X29771938Y2306465D01*
X29776742Y2303255D01*
X29791440Y2293434D01*
X29940720Y2193688D01*
X29946023Y2191410D01*
X29946026Y2191408D01*
X30121921Y2115838D01*
X30127228Y2113558D01*
X30200244Y2097036D01*
X30319579Y2070033D01*
X30319584Y2070032D01*
X30325216Y2068758D01*
X30330987Y2068531D01*
X30330989Y2068531D01*
X30390756Y2066183D01*
X30528053Y2060788D01*
X30635348Y2076345D01*
X30723231Y2089087D01*
X30723236Y2089088D01*
X30728945Y2089916D01*
X30734409Y2091771D01*
X30734414Y2091772D01*
X30915693Y2153308D01*
X30915698Y2153310D01*
X30921165Y2155166D01*
X31098276Y2254353D01*
X31102746Y2258070D01*
X31225696Y2360328D01*
X31254345Y2384155D01*
X31280769Y2415926D01*
X31380453Y2535782D01*
X31380455Y2535785D01*
X31384147Y2540224D01*
X31463923Y2682674D01*
X31480510Y2712292D01*
X31480511Y2712294D01*
X31483334Y2717335D01*
X31485720Y2724365D01*
X31486170Y2725004D01*
X31487541Y2728084D01*
X31488146Y2727815D01*
X31526553Y2782441D01*
X31592305Y2809222D01*
X31662098Y2796205D01*
X31713773Y2747520D01*
X31721777Y2731271D01*
X31791770Y2558897D01*
X31796413Y2549706D01*
X31907694Y2368112D01*
X31913777Y2359801D01*
X32053213Y2198833D01*
X32060580Y2191617D01*
X32224434Y2055584D01*
X32232881Y2049669D01*
X32416756Y1942221D01*
X32426042Y1937771D01*
X32625001Y1861797D01*
X32634899Y1858921D01*
X32738250Y1837894D01*
X32752299Y1839090D01*
X32756000Y1849435D01*
X32756000Y1849983D01*
X33264000Y1849983D01*
X33268064Y1836141D01*
X33281478Y1834107D01*
X33288184Y1834966D01*
X33298262Y1837108D01*
X33502255Y1898309D01*
X33511842Y1902067D01*
X33703095Y1995761D01*
X33711945Y2001036D01*
X33885328Y2124708D01*
X33893200Y2131361D01*
X34044052Y2281688D01*
X34050730Y2289535D01*
X34175003Y2462480D01*
X34180310Y2471312D01*
X34206544Y2524391D01*
X34254658Y2576597D01*
X34323360Y2594504D01*
X34390836Y2572425D01*
X34435664Y2517371D01*
X34445501Y2468563D01*
X34445501Y2293434D01*
X34460266Y2219199D01*
X34467161Y2208880D01*
X34467162Y2208878D01*
X34504386Y2153169D01*
X34516516Y2135016D01*
X34600699Y2078766D01*
X34674933Y2064000D01*
X35549858Y2064000D01*
X36425066Y2064001D01*
X36460818Y2071112D01*
X36487126Y2076344D01*
X36487128Y2076345D01*
X36499301Y2078766D01*
X36509621Y2085661D01*
X36509622Y2085662D01*
X36573168Y2128123D01*
X36583484Y2135016D01*
X36639734Y2219199D01*
X36654500Y2293433D01*
X36654499Y4043566D01*
X36643871Y4097001D01*
X36642156Y4105626D01*
X36642155Y4105628D01*
X36639734Y4117801D01*
X36613654Y4156833D01*
X36590377Y4191668D01*
X36583484Y4201984D01*
X36499301Y4258234D01*
X36425067Y4273000D01*
X35550142Y4273000D01*
X34674934Y4272999D01*
X34639182Y4265888D01*
X34612874Y4260656D01*
X34612872Y4260655D01*
X34600699Y4258234D01*
X34590379Y4251339D01*
X34590378Y4251338D01*
X34553112Y4226437D01*
X34516516Y4201984D01*
X34460266Y4117801D01*
X34445500Y4043567D01*
X34445500Y3875648D01*
X34425498Y3807527D01*
X34371842Y3761034D01*
X34301568Y3750930D01*
X34236988Y3780424D01*
X34211235Y3812632D01*
X34210912Y3812423D01*
X34208836Y3815632D01*
X34208453Y3816111D01*
X34208099Y3816771D01*
X34092426Y3995574D01*
X34086136Y4003743D01*
X33942806Y4161260D01*
X33935273Y4168285D01*
X33768139Y4300278D01*
X33759552Y4305983D01*
X33573117Y4408901D01*
X33563705Y4413131D01*
X33362959Y4484220D01*
X33352988Y4486854D01*
X33281837Y4499528D01*
X33268540Y4498068D01*
X33264000Y4483511D01*
X33264000Y1849983D01*
X32756000Y1849983D01*
X32756000Y4485398D01*
X32752082Y4498742D01*
X32737806Y4500729D01*
X32699324Y4494840D01*
X32689288Y4492449D01*
X32486868Y4426288D01*
X32477359Y4422291D01*
X32288463Y4323958D01*
X32279738Y4318464D01*
X32109433Y4190595D01*
X32101726Y4183752D01*
X31954590Y4029783D01*
X31948104Y4021773D01*
X31828098Y3845851D01*
X31823000Y3836877D01*
X31733338Y3643717D01*
X31729777Y3634036D01*
X31725291Y3617860D01*
X31687813Y3557561D01*
X31623684Y3527097D01*
X31553266Y3536140D01*
X31498915Y3581818D01*
X31490867Y3595802D01*
X31418331Y3742891D01*
X31415776Y3748072D01*
X31294320Y3910721D01*
X31145258Y4048513D01*
X31140375Y4051594D01*
X31140371Y4051597D01*
X30978464Y4153752D01*
X30973581Y4156833D01*
X30785039Y4232054D01*
X30779379Y4233180D01*
X30779375Y4233181D01*
X30591613Y4270529D01*
X30591610Y4270529D01*
X30585946Y4271656D01*
X30580171Y4271732D01*
X30580167Y4271732D01*
X30478793Y4273059D01*
X30382971Y4274313D01*
X30377274Y4273334D01*
X30377273Y4273334D01*
X30289397Y4258234D01*
X30182910Y4239936D01*
X29992463Y4169676D01*
X29818010Y4065888D01*
X29813670Y4062082D01*
X29813666Y4062079D01*
X29723191Y3982734D01*
X29665392Y3932045D01*
X29661817Y3927510D01*
X29661816Y3927509D01*
X29651675Y3914645D01*
X29539720Y3772631D01*
X29537031Y3767520D01*
X29537029Y3767517D01*
X29508394Y3713091D01*
X29445203Y3592985D01*
X29385007Y3399122D01*
X29361148Y3197536D01*
X29036564Y3197536D01*
X29025576Y3317123D01*
X29021187Y3364887D01*
X29021186Y3364890D01*
X29020658Y3370641D01*
X29019090Y3376201D01*
X28967125Y3560454D01*
X28967124Y3560456D01*
X28965557Y3566013D01*
X28954978Y3587467D01*
X28878331Y3742891D01*
X28875776Y3748072D01*
X28754320Y3910721D01*
X28605258Y4048513D01*
X28600375Y4051594D01*
X28600371Y4051597D01*
X28438464Y4153752D01*
X28433581Y4156833D01*
X28245039Y4232054D01*
X28239379Y4233180D01*
X28239375Y4233181D01*
X28051613Y4270529D01*
X28051610Y4270529D01*
X28045946Y4271656D01*
X28040171Y4271732D01*
X28040167Y4271732D01*
X27938793Y4273059D01*
X27842971Y4274313D01*
X27837274Y4273334D01*
X27837273Y4273334D01*
X27749397Y4258234D01*
X27642910Y4239936D01*
X27452463Y4169676D01*
X27278010Y4065888D01*
X27273670Y4062082D01*
X27273666Y4062079D01*
X27183191Y3982734D01*
X27125392Y3932045D01*
X27121817Y3927510D01*
X27121816Y3927509D01*
X27111675Y3914645D01*
X26999720Y3772631D01*
X26997031Y3767520D01*
X26997029Y3767517D01*
X26968394Y3713091D01*
X26905203Y3592985D01*
X26845007Y3399122D01*
X26821148Y3197536D01*
X25137803Y3197536D01*
X25126046Y3331917D01*
X25109576Y3393385D01*
X25070203Y3540326D01*
X25070202Y3540328D01*
X25068780Y3545636D01*
X25061870Y3560454D01*
X24977598Y3741178D01*
X24977595Y3741183D01*
X24975272Y3746165D01*
X24960321Y3767517D01*
X24851522Y3922899D01*
X24851520Y3922902D01*
X24848363Y3927410D01*
X24691910Y4083863D01*
X24687402Y4087020D01*
X24687399Y4087022D01*
X24515174Y4207615D01*
X24515172Y4207616D01*
X24510665Y4210772D01*
X24505683Y4213095D01*
X24505678Y4213098D01*
X24315118Y4301957D01*
X24315117Y4301957D01*
X24310136Y4304280D01*
X24304828Y4305702D01*
X24304826Y4305703D01*
X24101732Y4360122D01*
X24101730Y4360122D01*
X24096417Y4361546D01*
X23876000Y4380830D01*
X23655583Y4361546D01*
X23650270Y4360122D01*
X23650268Y4360122D01*
X23447174Y4305703D01*
X23447172Y4305702D01*
X23441864Y4304280D01*
X23436883Y4301957D01*
X23436882Y4301957D01*
X23246322Y4213098D01*
X23246317Y4213095D01*
X23241335Y4210772D01*
X23236828Y4207616D01*
X23236826Y4207615D01*
X23064601Y4087022D01*
X23064598Y4087020D01*
X23060090Y4083863D01*
X22903637Y3927410D01*
X22900480Y3922902D01*
X22900478Y3922899D01*
X22791679Y3767517D01*
X22776728Y3746165D01*
X22774405Y3741183D01*
X22774402Y3741178D01*
X22690130Y3560454D01*
X22683220Y3545636D01*
X22681798Y3540328D01*
X22681797Y3540326D01*
X22642424Y3393385D01*
X22625954Y3331917D01*
X22606670Y3111500D01*
X15439072Y3111500D01*
X15439424Y3114156D01*
X15457188Y3248181D01*
X15457188Y3248184D01*
X15457888Y3253464D01*
X15455536Y3316099D01*
X15456295Y3316128D01*
X15455966Y3317516D01*
X15455660Y3317489D01*
X15455626Y3317877D01*
X15455535Y3319338D01*
X15455477Y3319585D01*
X15455352Y3321007D01*
X15449264Y3483169D01*
X15435372Y3549379D01*
X15436139Y3549540D01*
X15435159Y3551816D01*
X15435063Y3552908D01*
X15433639Y3558222D01*
X15433536Y3558807D01*
X15432362Y3563722D01*
X15431882Y3566013D01*
X15402061Y3708137D01*
X15376025Y3774066D01*
X15375276Y3776041D01*
X15373903Y3781163D01*
X15371053Y3787275D01*
X15368066Y3794217D01*
X15317628Y3921936D01*
X15280727Y3982746D01*
X15279189Y3985626D01*
X15279110Y3985580D01*
X15276361Y3990341D01*
X15274035Y3995329D01*
X15270876Y3999841D01*
X15269326Y4002055D01*
X15264819Y4008962D01*
X15201147Y4113891D01*
X15201145Y4113894D01*
X15198379Y4118452D01*
X15191400Y4126495D01*
X15148007Y4176500D01*
X15144445Y4181063D01*
X15141653Y4184390D01*
X15138495Y4188901D01*
X15132209Y4195187D01*
X15126139Y4201701D01*
X15051224Y4288033D01*
X15051222Y4288035D01*
X15047724Y4292066D01*
X14983692Y4344570D01*
X14976426Y4351152D01*
X14975294Y4352102D01*
X14971401Y4355995D01*
X14966897Y4359149D01*
X14966892Y4359153D01*
X14964064Y4361133D01*
X14956446Y4366910D01*
X14874099Y4434431D01*
X14874093Y4434435D01*
X14869971Y4437815D01*
X14792645Y4481831D01*
X14782704Y4488122D01*
X14782340Y4488377D01*
X14782333Y4488381D01*
X14777829Y4491535D01*
X14772845Y4493859D01*
X14772840Y4493862D01*
X14770125Y4495128D01*
X14761048Y4499818D01*
X14716939Y4524926D01*
X14670202Y4551530D01*
X14580502Y4584090D01*
X14572502Y4587400D01*
X38699615Y4587400D01*
X38700693Y4579212D01*
X38713497Y4481957D01*
X38718672Y4442646D01*
X38730898Y4413131D01*
X38767835Y4323958D01*
X38774545Y4307758D01*
X38802189Y4271732D01*
X38842595Y4219074D01*
X38863426Y4191926D01*
X38869976Y4186900D01*
X38869979Y4186897D01*
X38965122Y4113891D01*
X38979257Y4103045D01*
X39114146Y4047172D01*
X39122334Y4046094D01*
X39182873Y4038124D01*
X39258900Y4028115D01*
X39267088Y4029193D01*
X39395466Y4046094D01*
X39403654Y4047172D01*
X39538543Y4103045D01*
X39552678Y4113891D01*
X39647821Y4186897D01*
X39647824Y4186900D01*
X39654374Y4191926D01*
X39675206Y4219074D01*
X39715611Y4271732D01*
X39743255Y4307758D01*
X39749966Y4323958D01*
X39786902Y4413131D01*
X39799128Y4442646D01*
X39804304Y4481957D01*
X39817107Y4579212D01*
X39818185Y4587400D01*
X39809887Y4650428D01*
X39800206Y4723968D01*
X39800205Y4723970D01*
X39799128Y4732154D01*
X39747740Y4856214D01*
X39746415Y4859414D01*
X39746414Y4859416D01*
X39743255Y4867042D01*
X39681040Y4948122D01*
X39659401Y4976323D01*
X39659400Y4976324D01*
X39654374Y4982874D01*
X39647824Y4987900D01*
X39647821Y4987903D01*
X39545096Y5066727D01*
X39545094Y5066728D01*
X39538543Y5071755D01*
X39421679Y5120162D01*
X39411283Y5124468D01*
X39403654Y5127628D01*
X39258900Y5146685D01*
X39250712Y5145607D01*
X39122332Y5128706D01*
X39122330Y5128705D01*
X39114146Y5127628D01*
X39102481Y5122796D01*
X38986886Y5074915D01*
X38986884Y5074914D01*
X38979258Y5071755D01*
X38863426Y4982874D01*
X38774545Y4867042D01*
X38771386Y4859416D01*
X38771385Y4859414D01*
X38770060Y4856214D01*
X38718672Y4732154D01*
X38717595Y4723970D01*
X38717594Y4723968D01*
X38707913Y4650428D01*
X38699615Y4587400D01*
X14572502Y4587400D01*
X14570247Y4588333D01*
X14568652Y4589077D01*
X14568650Y4589078D01*
X14563663Y4591403D01*
X14558347Y4592827D01*
X14558345Y4592828D01*
X14557281Y4593113D01*
X14556298Y4593376D01*
X14545919Y4596643D01*
X14454129Y4629961D01*
X14353557Y4648148D01*
X14343384Y4650426D01*
X14335408Y4652563D01*
X14329010Y4653123D01*
X14317588Y4654652D01*
X14227931Y4670864D01*
X14223792Y4671059D01*
X14223785Y4671060D01*
X14205330Y4671930D01*
X14205323Y4671930D01*
X14203842Y4672000D01*
X14042288Y4672000D01*
X13962556Y4665235D01*
X13876267Y4657913D01*
X13876263Y4657912D01*
X13870956Y4657462D01*
X13865801Y4656124D01*
X13865795Y4656123D01*
X13693058Y4611289D01*
X13648461Y4599714D01*
X13541497Y4551530D01*
X13443738Y4507493D01*
X13443735Y4507492D01*
X13438877Y4505303D01*
X13434453Y4502324D01*
X13434452Y4502324D01*
X13429106Y4498725D01*
X13248197Y4376930D01*
X13244340Y4373251D01*
X13244338Y4373249D01*
X13218404Y4348509D01*
X13081872Y4218264D01*
X12944658Y4033842D01*
X12942242Y4029091D01*
X12942240Y4029087D01*
X12884055Y3914645D01*
X12840480Y3828938D01*
X12772315Y3609411D01*
X12771614Y3604122D01*
X12762604Y3536140D01*
X12742112Y3381536D01*
X8966769Y3381536D01*
X8949199Y3604786D01*
X8910130Y3767517D01*
X8892001Y3843031D01*
X8891999Y3843036D01*
X8890847Y3847836D01*
X8888957Y3852399D01*
X8888955Y3852405D01*
X8797088Y4074192D01*
X8797086Y4074196D01*
X8795193Y4078766D01*
X8664591Y4291889D01*
X8502257Y4481957D01*
X8489973Y4492449D01*
X8382675Y4584090D01*
X8312189Y4644291D01*
X8099066Y4774893D01*
X8094496Y4776786D01*
X8094492Y4776788D01*
X7872705Y4868655D01*
X7872699Y4868657D01*
X7868136Y4870547D01*
X7863336Y4871699D01*
X7863331Y4871701D01*
X7752068Y4898413D01*
X7625086Y4928899D01*
X7375900Y4948510D01*
X7126714Y4928899D01*
X6999732Y4898413D01*
X6888469Y4871701D01*
X6888464Y4871699D01*
X6883664Y4870547D01*
X6879101Y4868657D01*
X6879095Y4868655D01*
X6657308Y4776788D01*
X6657304Y4776786D01*
X6652734Y4774893D01*
X6439611Y4644291D01*
X6369125Y4584090D01*
X6261828Y4492449D01*
X6249543Y4481957D01*
X6087209Y4291889D01*
X5956607Y4078766D01*
X5954714Y4074196D01*
X5954712Y4074192D01*
X5862845Y3852405D01*
X5862843Y3852399D01*
X5860953Y3847836D01*
X5859801Y3843036D01*
X5859799Y3843031D01*
X5841670Y3767517D01*
X5802601Y3604786D01*
X5782990Y3355600D01*
X3869010Y3355600D01*
X3849399Y3604786D01*
X3810330Y3767517D01*
X3792201Y3843031D01*
X3792199Y3843036D01*
X3791047Y3847836D01*
X3789157Y3852399D01*
X3789155Y3852405D01*
X3697288Y4074192D01*
X3697286Y4074196D01*
X3695393Y4078766D01*
X3564791Y4291889D01*
X3402457Y4481957D01*
X3390173Y4492449D01*
X3282875Y4584090D01*
X3212389Y4644291D01*
X2999266Y4774893D01*
X2994696Y4776786D01*
X2994692Y4776788D01*
X2772905Y4868655D01*
X2772899Y4868657D01*
X2768336Y4870547D01*
X2763536Y4871699D01*
X2763531Y4871701D01*
X2652268Y4898413D01*
X2525286Y4928899D01*
X2276100Y4948510D01*
X2026914Y4928899D01*
X1899932Y4898413D01*
X1788669Y4871701D01*
X1788664Y4871699D01*
X1783864Y4870547D01*
X1779301Y4868657D01*
X1779295Y4868655D01*
X1557508Y4776788D01*
X1557504Y4776786D01*
X1552934Y4774893D01*
X1339811Y4644291D01*
X1269325Y4584090D01*
X1162028Y4492449D01*
X1149743Y4481957D01*
X987409Y4291889D01*
X856807Y4078766D01*
X854914Y4074196D01*
X854912Y4074192D01*
X763045Y3852405D01*
X763043Y3852399D01*
X761153Y3847836D01*
X760001Y3843036D01*
X759999Y3843031D01*
X741870Y3767517D01*
X702801Y3604786D01*
X683190Y3355600D01*
X254500Y3355600D01*
X254500Y5905500D01*
X3614389Y5905500D01*
X3632796Y5695106D01*
X3687458Y5491105D01*
X3689780Y5486124D01*
X3689781Y5486123D01*
X3731849Y5395909D01*
X3776714Y5299695D01*
X3897852Y5126691D01*
X4047191Y4977352D01*
X4051699Y4974195D01*
X4051702Y4974193D01*
X4195374Y4873593D01*
X4220194Y4856214D01*
X4225176Y4853891D01*
X4225181Y4853888D01*
X4390524Y4776788D01*
X4411605Y4766958D01*
X4416913Y4765536D01*
X4416915Y4765535D01*
X4610291Y4713720D01*
X4610293Y4713720D01*
X4615606Y4712296D01*
X4826000Y4693889D01*
X5036394Y4712296D01*
X5041707Y4713720D01*
X5041709Y4713720D01*
X5235085Y4765535D01*
X5235087Y4765536D01*
X5240395Y4766958D01*
X5261476Y4776788D01*
X5426819Y4853888D01*
X5426824Y4853891D01*
X5431806Y4856214D01*
X5456626Y4873593D01*
X5600298Y4974193D01*
X5600301Y4974195D01*
X5604809Y4977352D01*
X5754148Y5126691D01*
X5875286Y5299695D01*
X5920152Y5395909D01*
X5962219Y5486123D01*
X5962220Y5486124D01*
X5964542Y5491105D01*
X6019204Y5695106D01*
X6037611Y5905500D01*
X6019204Y6115894D01*
X6015185Y6130893D01*
X5965965Y6314585D01*
X5965964Y6314587D01*
X5964542Y6319895D01*
X5875286Y6511305D01*
X5754148Y6684309D01*
X5604809Y6833648D01*
X5600301Y6836805D01*
X5600298Y6836807D01*
X5436315Y6951629D01*
X5436312Y6951631D01*
X5431806Y6954786D01*
X5426824Y6957109D01*
X5426819Y6957112D01*
X5245377Y7041719D01*
X5245376Y7041719D01*
X5240395Y7044042D01*
X5235087Y7045464D01*
X5235085Y7045465D01*
X5041709Y7097280D01*
X5041707Y7097280D01*
X5036394Y7098704D01*
X4826000Y7117111D01*
X4615606Y7098704D01*
X4610293Y7097280D01*
X4610291Y7097280D01*
X4416915Y7045465D01*
X4416913Y7045464D01*
X4411605Y7044042D01*
X4406624Y7041720D01*
X4406623Y7041719D01*
X4225176Y6957109D01*
X4225173Y6957107D01*
X4220195Y6954786D01*
X4047191Y6833648D01*
X3897852Y6684309D01*
X3776714Y6511305D01*
X3687458Y6319895D01*
X3686036Y6314587D01*
X3686035Y6314585D01*
X3636815Y6130893D01*
X3632796Y6115894D01*
X3614389Y5905500D01*
X254500Y5905500D01*
X254500Y8455400D01*
X683190Y8455400D01*
X702801Y8206214D01*
X717261Y8145985D01*
X744304Y8033346D01*
X761153Y7963164D01*
X763043Y7958601D01*
X763045Y7958595D01*
X854912Y7736808D01*
X856807Y7732234D01*
X987409Y7519111D01*
X1149743Y7329043D01*
X1339811Y7166709D01*
X1552934Y7036107D01*
X1557504Y7034214D01*
X1557508Y7034212D01*
X1779295Y6942345D01*
X1779301Y6942343D01*
X1783864Y6940453D01*
X1788664Y6939301D01*
X1788669Y6939299D01*
X1899932Y6912587D01*
X2026914Y6882101D01*
X2276100Y6862490D01*
X2525286Y6882101D01*
X2652268Y6912587D01*
X2763531Y6939299D01*
X2763536Y6939301D01*
X2768336Y6940453D01*
X2772899Y6942343D01*
X2772905Y6942345D01*
X2994692Y7034212D01*
X2994696Y7034214D01*
X2999266Y7036107D01*
X3212389Y7166709D01*
X3402457Y7329043D01*
X3564791Y7519111D01*
X3695393Y7732234D01*
X3697288Y7736808D01*
X3789155Y7958595D01*
X3789157Y7958601D01*
X3791047Y7963164D01*
X3807897Y8033346D01*
X3834939Y8145985D01*
X3849399Y8206214D01*
X3869010Y8455400D01*
X5782990Y8455400D01*
X5802601Y8206214D01*
X5817061Y8145985D01*
X5844104Y8033346D01*
X5860953Y7963164D01*
X5862843Y7958601D01*
X5862845Y7958595D01*
X5954712Y7736808D01*
X5956607Y7732234D01*
X6087209Y7519111D01*
X6249543Y7329043D01*
X6439611Y7166709D01*
X6652734Y7036107D01*
X6657304Y7034214D01*
X6657308Y7034212D01*
X6879095Y6942345D01*
X6879101Y6942343D01*
X6883664Y6940453D01*
X6888464Y6939301D01*
X6888469Y6939299D01*
X6999732Y6912587D01*
X7126714Y6882101D01*
X7375900Y6862490D01*
X7625086Y6882101D01*
X7752068Y6912587D01*
X7863331Y6939299D01*
X7863336Y6939301D01*
X7868136Y6940453D01*
X7872699Y6942343D01*
X7872705Y6942345D01*
X8094492Y7034212D01*
X8094496Y7034214D01*
X8099066Y7036107D01*
X8312189Y7166709D01*
X8502257Y7329043D01*
X8664591Y7519111D01*
X8795193Y7732234D01*
X8797088Y7736808D01*
X8888955Y7958595D01*
X8888957Y7958601D01*
X8890847Y7963164D01*
X8907697Y8033346D01*
X8934739Y8145985D01*
X8942449Y8178100D01*
X19862815Y8178100D01*
X19863893Y8169912D01*
X19876578Y8073562D01*
X19881872Y8033346D01*
X19885031Y8025720D01*
X19921591Y7937458D01*
X19937745Y7898458D01*
X19942772Y7891907D01*
X20004087Y7812000D01*
X20026626Y7782626D01*
X20033176Y7777600D01*
X20033179Y7777597D01*
X20135904Y7698773D01*
X20142457Y7693745D01*
X20277346Y7637872D01*
X20422100Y7618815D01*
X20430288Y7619893D01*
X20558666Y7636794D01*
X20566854Y7637872D01*
X20701743Y7693745D01*
X20708296Y7698773D01*
X20811021Y7777597D01*
X20811024Y7777600D01*
X20817574Y7782626D01*
X20840114Y7812000D01*
X20901428Y7891907D01*
X20906455Y7898458D01*
X20922610Y7937458D01*
X20959169Y8025720D01*
X20962328Y8033346D01*
X20967623Y8073562D01*
X20980307Y8169912D01*
X20981385Y8178100D01*
X20962328Y8322854D01*
X20906455Y8457742D01*
X20834517Y8551494D01*
X20822601Y8567023D01*
X20822600Y8567024D01*
X20817574Y8573574D01*
X20811024Y8578600D01*
X20811021Y8578603D01*
X20708296Y8657427D01*
X20708294Y8657428D01*
X20701743Y8662455D01*
X20566854Y8718328D01*
X20422100Y8737385D01*
X20413912Y8736307D01*
X20285532Y8719406D01*
X20285530Y8719405D01*
X20277346Y8718328D01*
X20255780Y8709395D01*
X20150086Y8665615D01*
X20150084Y8665614D01*
X20142458Y8662455D01*
X20026626Y8573574D01*
X19937745Y8457742D01*
X19881872Y8322854D01*
X19862815Y8178100D01*
X8942449Y8178100D01*
X8949199Y8206214D01*
X8968810Y8455400D01*
X8949199Y8704586D01*
X8899753Y8910542D01*
X8892001Y8942831D01*
X8891999Y8942836D01*
X8890847Y8947636D01*
X8888957Y8952199D01*
X8888955Y8952205D01*
X8830719Y9092800D01*
X16713415Y9092800D01*
X16732472Y8948046D01*
X16788345Y8813158D01*
X16793372Y8806607D01*
X16863535Y8715169D01*
X16877226Y8697326D01*
X16883776Y8692300D01*
X16883779Y8692297D01*
X16986504Y8613473D01*
X16993057Y8608445D01*
X17127946Y8552572D01*
X17272700Y8533515D01*
X17280888Y8534593D01*
X17409266Y8551494D01*
X17417454Y8552572D01*
X17552343Y8608445D01*
X17558896Y8613473D01*
X17661621Y8692297D01*
X17661624Y8692300D01*
X17668174Y8697326D01*
X17681866Y8715169D01*
X17752028Y8806607D01*
X17757055Y8813158D01*
X17812928Y8948046D01*
X17831985Y9092800D01*
X17812928Y9237554D01*
X17778686Y9320220D01*
X17760215Y9364814D01*
X17760214Y9364816D01*
X17757055Y9372442D01*
X17668174Y9488274D01*
X17661624Y9493300D01*
X17661621Y9493303D01*
X17558896Y9572127D01*
X17558894Y9572128D01*
X17552343Y9577155D01*
X17417454Y9633028D01*
X17272700Y9652085D01*
X17264512Y9651007D01*
X17136132Y9634106D01*
X17136130Y9634105D01*
X17127946Y9633028D01*
X17108517Y9624980D01*
X17000686Y9580315D01*
X17000684Y9580314D01*
X16993058Y9577155D01*
X16877226Y9488274D01*
X16788345Y9372442D01*
X16785186Y9364816D01*
X16785185Y9364814D01*
X16766714Y9320220D01*
X16732472Y9237554D01*
X16713415Y9092800D01*
X8830719Y9092800D01*
X8797088Y9173992D01*
X8797086Y9173996D01*
X8795193Y9178566D01*
X8664591Y9391689D01*
X8510481Y9572128D01*
X8505465Y9578001D01*
X8502257Y9581757D01*
X8312189Y9744091D01*
X8099066Y9874693D01*
X8094496Y9876586D01*
X8094492Y9876588D01*
X7872705Y9968455D01*
X7872699Y9968457D01*
X7868136Y9970347D01*
X7863336Y9971499D01*
X7863331Y9971501D01*
X7752068Y9998213D01*
X7625086Y10028699D01*
X7375900Y10048310D01*
X7126714Y10028699D01*
X6999732Y9998213D01*
X6888469Y9971501D01*
X6888464Y9971499D01*
X6883664Y9970347D01*
X6879101Y9968457D01*
X6879095Y9968455D01*
X6657308Y9876588D01*
X6657304Y9876586D01*
X6652734Y9874693D01*
X6439611Y9744091D01*
X6249543Y9581757D01*
X6246335Y9578001D01*
X6241319Y9572128D01*
X6087209Y9391689D01*
X5956607Y9178566D01*
X5954714Y9173996D01*
X5954712Y9173992D01*
X5862845Y8952205D01*
X5862843Y8952199D01*
X5860953Y8947636D01*
X5859801Y8942836D01*
X5859799Y8942831D01*
X5852047Y8910542D01*
X5802601Y8704586D01*
X5782990Y8455400D01*
X3869010Y8455400D01*
X3849399Y8704586D01*
X3799953Y8910542D01*
X3792201Y8942831D01*
X3792199Y8942836D01*
X3791047Y8947636D01*
X3789157Y8952199D01*
X3789155Y8952205D01*
X3697288Y9173992D01*
X3697286Y9173996D01*
X3695393Y9178566D01*
X3564791Y9391689D01*
X3410681Y9572128D01*
X3405665Y9578001D01*
X3402457Y9581757D01*
X3212389Y9744091D01*
X2999266Y9874693D01*
X2994696Y9876586D01*
X2994692Y9876588D01*
X2772905Y9968455D01*
X2772899Y9968457D01*
X2768336Y9970347D01*
X2763536Y9971499D01*
X2763531Y9971501D01*
X2652268Y9998213D01*
X2525286Y10028699D01*
X2276100Y10048310D01*
X2026914Y10028699D01*
X1899932Y9998213D01*
X1788669Y9971501D01*
X1788664Y9971499D01*
X1783864Y9970347D01*
X1779301Y9968457D01*
X1779295Y9968455D01*
X1557508Y9876588D01*
X1557504Y9876586D01*
X1552934Y9874693D01*
X1339811Y9744091D01*
X1149743Y9581757D01*
X1146535Y9578001D01*
X1141519Y9572128D01*
X987409Y9391689D01*
X856807Y9178566D01*
X854914Y9173996D01*
X854912Y9173992D01*
X763045Y8952205D01*
X763043Y8952199D01*
X761153Y8947636D01*
X760001Y8942836D01*
X759999Y8942831D01*
X752247Y8910542D01*
X702801Y8704586D01*
X683190Y8455400D01*
X254500Y8455400D01*
X254500Y12128500D01*
X6243515Y12128500D01*
X6262572Y11983746D01*
X6318445Y11848858D01*
X6407326Y11733026D01*
X6413876Y11728000D01*
X6413879Y11727997D01*
X6516604Y11649173D01*
X6523157Y11644145D01*
X6658046Y11588272D01*
X6802800Y11569215D01*
X6810988Y11570293D01*
X6939366Y11587194D01*
X6947554Y11588272D01*
X7082443Y11644145D01*
X7088996Y11649173D01*
X7191721Y11727997D01*
X7191724Y11728000D01*
X7198274Y11733026D01*
X7287155Y11848858D01*
X7343028Y11983746D01*
X7362085Y12128500D01*
X7357555Y12162911D01*
X7344106Y12265068D01*
X7344105Y12265070D01*
X7343028Y12273254D01*
X7287155Y12408142D01*
X7242714Y12466058D01*
X7203301Y12517423D01*
X7203300Y12517424D01*
X7198274Y12523974D01*
X7191724Y12529000D01*
X7191721Y12529003D01*
X7088996Y12607827D01*
X7088994Y12607828D01*
X7082443Y12612855D01*
X6947554Y12668728D01*
X6802800Y12687785D01*
X6794612Y12686707D01*
X6666232Y12669806D01*
X6666230Y12669805D01*
X6658046Y12668728D01*
X6621469Y12653577D01*
X6530786Y12616015D01*
X6530784Y12616014D01*
X6523158Y12612855D01*
X6407326Y12523974D01*
X6318445Y12408142D01*
X6262572Y12273254D01*
X6261495Y12265070D01*
X6261494Y12265068D01*
X6248045Y12162911D01*
X6243515Y12128500D01*
X254500Y12128500D01*
X254500Y13042500D01*
X15611915Y13042500D01*
X15630972Y12897746D01*
X15686845Y12762858D01*
X15691872Y12756307D01*
X15744451Y12687785D01*
X15775726Y12647026D01*
X15782276Y12642000D01*
X15782279Y12641997D01*
X15885004Y12563173D01*
X15891557Y12558145D01*
X16026446Y12502272D01*
X16171200Y12483215D01*
X16179388Y12484293D01*
X16307766Y12501194D01*
X16315954Y12502272D01*
X16450843Y12558145D01*
X16457396Y12563173D01*
X16560121Y12641997D01*
X16560124Y12642000D01*
X16566674Y12647026D01*
X16597950Y12687785D01*
X16650528Y12756307D01*
X16655555Y12762858D01*
X16711428Y12897746D01*
X16730485Y13042500D01*
X16711428Y13187254D01*
X16655555Y13322142D01*
X16566674Y13437974D01*
X16560124Y13443000D01*
X16560121Y13443003D01*
X16457396Y13521827D01*
X16457394Y13521828D01*
X16450843Y13526855D01*
X16315954Y13582728D01*
X16171200Y13601785D01*
X16163012Y13600707D01*
X16034632Y13583806D01*
X16034630Y13583805D01*
X16026446Y13582728D01*
X15978630Y13562922D01*
X15899186Y13530015D01*
X15899184Y13530014D01*
X15891558Y13526855D01*
X15775726Y13437974D01*
X15686845Y13322142D01*
X15630972Y13187254D01*
X15611915Y13042500D01*
X254500Y13042500D01*
X254500Y13642900D01*
X9981715Y13642900D01*
X9982793Y13634712D01*
X9990053Y13579569D01*
X10000772Y13498146D01*
X10056645Y13363258D01*
X10061672Y13356707D01*
X10129975Y13267693D01*
X10145526Y13247426D01*
X10152076Y13242400D01*
X10152079Y13242397D01*
X10234611Y13179068D01*
X10261357Y13158545D01*
X10396246Y13102672D01*
X10541000Y13083615D01*
X10549188Y13084693D01*
X10677566Y13101594D01*
X10685754Y13102672D01*
X10820643Y13158545D01*
X10847389Y13179068D01*
X10929921Y13242397D01*
X10929924Y13242400D01*
X10936474Y13247426D01*
X10952026Y13267693D01*
X11020328Y13356707D01*
X11025355Y13363258D01*
X11081228Y13498146D01*
X11091948Y13579569D01*
X11099207Y13634712D01*
X11100285Y13642900D01*
X11081228Y13787654D01*
X11025355Y13922542D01*
X10936474Y14038374D01*
X10929924Y14043400D01*
X10929921Y14043403D01*
X10827196Y14122227D01*
X10827194Y14122228D01*
X10820643Y14127255D01*
X10685754Y14183128D01*
X10541000Y14202185D01*
X10532812Y14201107D01*
X10404432Y14184206D01*
X10404430Y14184205D01*
X10396246Y14183128D01*
X10374202Y14173997D01*
X10268986Y14130415D01*
X10268984Y14130414D01*
X10261358Y14127255D01*
X10145526Y14038374D01*
X10056645Y13922542D01*
X10000772Y13787654D01*
X9981715Y13642900D01*
X254500Y13642900D01*
X254500Y15485500D01*
X1183804Y15485500D01*
X1202554Y15271184D01*
X1258235Y15063380D01*
X1260557Y15058399D01*
X1260558Y15058398D01*
X1346829Y14873389D01*
X1346832Y14873384D01*
X1349155Y14868402D01*
X1352311Y14863895D01*
X1352312Y14863893D01*
X1360792Y14851783D01*
X1472551Y14692174D01*
X1624674Y14540051D01*
X1629182Y14536894D01*
X1629185Y14536892D01*
X1762125Y14443807D01*
X1800902Y14416655D01*
X1805884Y14414332D01*
X1805889Y14414329D01*
X1971915Y14336910D01*
X1995880Y14325735D01*
X2001188Y14324313D01*
X2001190Y14324312D01*
X2037104Y14314689D01*
X2203684Y14270054D01*
X2418000Y14251304D01*
X2632316Y14270054D01*
X2798896Y14314689D01*
X2834810Y14324312D01*
X2834812Y14324313D01*
X2840120Y14325735D01*
X2864085Y14336910D01*
X3030111Y14414329D01*
X3030116Y14414332D01*
X3035098Y14416655D01*
X3073875Y14443807D01*
X3206815Y14536892D01*
X3206818Y14536894D01*
X3211326Y14540051D01*
X3363449Y14692174D01*
X3475209Y14851783D01*
X3483688Y14863893D01*
X3483689Y14863895D01*
X3486845Y14868402D01*
X3489168Y14873384D01*
X3489171Y14873389D01*
X3575442Y15058398D01*
X3575443Y15058399D01*
X3577765Y15063380D01*
X3633446Y15271184D01*
X3652196Y15485500D01*
X3633446Y15699816D01*
X3577765Y15907620D01*
X3555765Y15954800D01*
X3494818Y16085500D01*
X6083804Y16085500D01*
X6102554Y15871184D01*
X6118936Y15810046D01*
X6155579Y15673294D01*
X6158235Y15663380D01*
X6160557Y15658399D01*
X6160558Y15658398D01*
X6246829Y15473389D01*
X6246832Y15473384D01*
X6249155Y15468402D01*
X6252311Y15463895D01*
X6252312Y15463893D01*
X6318132Y15369893D01*
X6372551Y15292174D01*
X6524674Y15140051D01*
X6529182Y15136894D01*
X6529185Y15136892D01*
X6696393Y15019812D01*
X6700902Y15016655D01*
X6705884Y15014332D01*
X6705889Y15014329D01*
X6890898Y14928058D01*
X6895880Y14925735D01*
X6901188Y14924313D01*
X6901190Y14924312D01*
X6965932Y14906965D01*
X7103684Y14870054D01*
X7318000Y14851304D01*
X7532316Y14870054D01*
X7670068Y14906965D01*
X7734810Y14924312D01*
X7734812Y14924313D01*
X7740120Y14925735D01*
X7745102Y14928058D01*
X7921256Y15010200D01*
X13543215Y15010200D01*
X13562272Y14865446D01*
X13618145Y14730558D01*
X13707026Y14614726D01*
X13713576Y14609700D01*
X13713579Y14609697D01*
X13816304Y14530873D01*
X13822857Y14525845D01*
X13896022Y14495539D01*
X13948249Y14473906D01*
X13957746Y14469972D01*
X14102500Y14450915D01*
X14110688Y14451993D01*
X14239066Y14468894D01*
X14247254Y14469972D01*
X14256752Y14473906D01*
X14308978Y14495539D01*
X14382143Y14525845D01*
X14388696Y14530873D01*
X14491421Y14609697D01*
X14491424Y14609700D01*
X14497974Y14614726D01*
X14586855Y14730558D01*
X14642728Y14865446D01*
X14661785Y15010200D01*
X14642728Y15154954D01*
X14596784Y15265871D01*
X14590015Y15282214D01*
X14590014Y15282216D01*
X14586855Y15289842D01*
X14497974Y15405674D01*
X14491424Y15410700D01*
X14491421Y15410703D01*
X14388696Y15489527D01*
X14388694Y15489528D01*
X14382143Y15494555D01*
X14247254Y15550428D01*
X14102500Y15569485D01*
X14094312Y15568407D01*
X13965932Y15551506D01*
X13965930Y15551505D01*
X13957746Y15550428D01*
X13930584Y15539177D01*
X13830486Y15497715D01*
X13830484Y15497714D01*
X13822858Y15494555D01*
X13707026Y15405674D01*
X13618145Y15289842D01*
X13614986Y15282216D01*
X13614985Y15282214D01*
X13608216Y15265871D01*
X13562272Y15154954D01*
X13543215Y15010200D01*
X7921256Y15010200D01*
X7930111Y15014329D01*
X7930116Y15014332D01*
X7935098Y15016655D01*
X7939607Y15019812D01*
X8106815Y15136892D01*
X8106818Y15136894D01*
X8111326Y15140051D01*
X8263449Y15292174D01*
X8317869Y15369893D01*
X8383688Y15463893D01*
X8383689Y15463895D01*
X8386845Y15468402D01*
X8389168Y15473384D01*
X8389171Y15473389D01*
X8475442Y15658398D01*
X8475443Y15658399D01*
X8477765Y15663380D01*
X8480422Y15673294D01*
X8517064Y15810046D01*
X8533446Y15871184D01*
X8540761Y15954800D01*
X9314515Y15954800D01*
X9315593Y15946612D01*
X9332377Y15819126D01*
X9333572Y15810046D01*
X9389445Y15675158D01*
X9478326Y15559326D01*
X9484876Y15554300D01*
X9484879Y15554297D01*
X9569289Y15489527D01*
X9594157Y15470445D01*
X9729046Y15414572D01*
X9873800Y15395515D01*
X9881988Y15396593D01*
X10010366Y15413494D01*
X10018554Y15414572D01*
X10153443Y15470445D01*
X10178311Y15489527D01*
X10262721Y15554297D01*
X10262724Y15554300D01*
X10269274Y15559326D01*
X10358155Y15675158D01*
X10414028Y15810046D01*
X10415224Y15819126D01*
X10432007Y15946612D01*
X10433085Y15954800D01*
X10417543Y16072854D01*
X10415106Y16091368D01*
X10415105Y16091370D01*
X10414028Y16099554D01*
X10372374Y16200114D01*
X10361315Y16226814D01*
X10361314Y16226816D01*
X10358155Y16234442D01*
X10298967Y16311577D01*
X10274301Y16343723D01*
X10274300Y16343724D01*
X10269274Y16350274D01*
X10262724Y16355300D01*
X10262721Y16355303D01*
X10159996Y16434127D01*
X10159994Y16434128D01*
X10153443Y16439155D01*
X10018554Y16495028D01*
X9873800Y16514085D01*
X9850055Y16510959D01*
X9737232Y16496106D01*
X9737230Y16496105D01*
X9729046Y16495028D01*
X9708733Y16486614D01*
X9601786Y16442315D01*
X9601784Y16442314D01*
X9594158Y16439155D01*
X9478326Y16350274D01*
X9389445Y16234442D01*
X9386286Y16226816D01*
X9386285Y16226814D01*
X9375226Y16200114D01*
X9333572Y16099554D01*
X9332495Y16091370D01*
X9332494Y16091368D01*
X9330057Y16072854D01*
X9314515Y15954800D01*
X8540761Y15954800D01*
X8552196Y16085500D01*
X8533446Y16299816D01*
X8488293Y16468328D01*
X8479188Y16502310D01*
X8479187Y16502312D01*
X8477765Y16507620D01*
X8474750Y16514085D01*
X8389171Y16697611D01*
X8389168Y16697616D01*
X8387823Y16700500D01*
X12442615Y16700500D01*
X12443693Y16692312D01*
X12454520Y16610074D01*
X12461672Y16555746D01*
X12464831Y16548120D01*
X12512057Y16434108D01*
X12517545Y16420858D01*
X12522572Y16414307D01*
X12597217Y16317028D01*
X12606426Y16305026D01*
X12612976Y16300000D01*
X12612979Y16299997D01*
X12715704Y16221173D01*
X12722257Y16216145D01*
X12857146Y16160272D01*
X13001900Y16141215D01*
X13010088Y16142293D01*
X13138466Y16159194D01*
X13146654Y16160272D01*
X13281543Y16216145D01*
X13288096Y16221173D01*
X13390821Y16299997D01*
X13390824Y16300000D01*
X13397374Y16305026D01*
X13406584Y16317028D01*
X13481228Y16414307D01*
X13486255Y16420858D01*
X13491744Y16434108D01*
X13538969Y16548120D01*
X13542128Y16555746D01*
X13549281Y16610074D01*
X13560107Y16692312D01*
X13561185Y16700500D01*
X13542128Y16845254D01*
X13515535Y16909454D01*
X13489415Y16972514D01*
X13489414Y16972516D01*
X13486255Y16980142D01*
X13397374Y17095974D01*
X13390824Y17101000D01*
X13390821Y17101003D01*
X13288096Y17179827D01*
X13288094Y17179828D01*
X13281543Y17184855D01*
X13146654Y17240728D01*
X13121596Y17244027D01*
X13074277Y17250256D01*
X13001900Y17259785D01*
X12993712Y17258707D01*
X12865332Y17241806D01*
X12865330Y17241805D01*
X12857146Y17240728D01*
X12809330Y17220922D01*
X12729886Y17188015D01*
X12729884Y17188014D01*
X12722258Y17184855D01*
X12606426Y17095974D01*
X12517545Y16980142D01*
X12514386Y16972516D01*
X12514385Y16972514D01*
X12488265Y16909454D01*
X12461672Y16845254D01*
X12442615Y16700500D01*
X8387823Y16700500D01*
X8386845Y16702598D01*
X8382581Y16708688D01*
X8266608Y16874315D01*
X8266606Y16874318D01*
X8263449Y16878826D01*
X8111326Y17030949D01*
X8106818Y17034106D01*
X8106815Y17034108D01*
X7939607Y17151188D01*
X7939605Y17151189D01*
X7935098Y17154345D01*
X7930116Y17156668D01*
X7930111Y17156671D01*
X7745102Y17242942D01*
X7745101Y17242943D01*
X7740120Y17245265D01*
X7734812Y17246687D01*
X7734810Y17246688D01*
X7626882Y17275607D01*
X7532316Y17300946D01*
X7318000Y17319696D01*
X7103684Y17300946D01*
X7009118Y17275607D01*
X6901190Y17246688D01*
X6901188Y17246687D01*
X6895880Y17245265D01*
X6890899Y17242943D01*
X6890898Y17242942D01*
X6705889Y17156671D01*
X6705884Y17156668D01*
X6700902Y17154345D01*
X6696395Y17151189D01*
X6696393Y17151188D01*
X6529185Y17034108D01*
X6529182Y17034106D01*
X6524674Y17030949D01*
X6372551Y16878826D01*
X6369394Y16874318D01*
X6369392Y16874315D01*
X6253419Y16708688D01*
X6249155Y16702598D01*
X6246832Y16697616D01*
X6246829Y16697611D01*
X6161250Y16514085D01*
X6158235Y16507620D01*
X6156813Y16502312D01*
X6156812Y16502310D01*
X6147707Y16468328D01*
X6102554Y16299816D01*
X6083804Y16085500D01*
X3494818Y16085500D01*
X3489171Y16097611D01*
X3489168Y16097616D01*
X3486845Y16102598D01*
X3459805Y16141215D01*
X3366608Y16274315D01*
X3366606Y16274318D01*
X3363449Y16278826D01*
X3211326Y16430949D01*
X3206818Y16434106D01*
X3206815Y16434108D01*
X3039607Y16551188D01*
X3039605Y16551189D01*
X3035098Y16554345D01*
X3030116Y16556668D01*
X3030111Y16556671D01*
X2845102Y16642942D01*
X2845101Y16642943D01*
X2840120Y16645265D01*
X2834812Y16646687D01*
X2834810Y16646688D01*
X2770068Y16664035D01*
X2632316Y16700946D01*
X2418000Y16719696D01*
X2203684Y16700946D01*
X2065932Y16664035D01*
X2001190Y16646688D01*
X2001188Y16646687D01*
X1995880Y16645265D01*
X1990899Y16642943D01*
X1990898Y16642942D01*
X1805889Y16556671D01*
X1805884Y16556668D01*
X1800902Y16554345D01*
X1796395Y16551189D01*
X1796393Y16551188D01*
X1629185Y16434108D01*
X1629182Y16434106D01*
X1624674Y16430949D01*
X1472551Y16278826D01*
X1469394Y16274318D01*
X1469392Y16274315D01*
X1376195Y16141215D01*
X1349155Y16102598D01*
X1346832Y16097616D01*
X1346829Y16097611D01*
X1280235Y15954800D01*
X1258235Y15907620D01*
X1202554Y15699816D01*
X1183804Y15485500D01*
X254500Y15485500D01*
X254500Y17561800D01*
X17072315Y17561800D01*
X17091372Y17417046D01*
X17094531Y17409420D01*
X17140053Y17299522D01*
X17147245Y17282158D01*
X17178208Y17241806D01*
X17225766Y17179828D01*
X17236126Y17166326D01*
X17242676Y17161300D01*
X17242679Y17161297D01*
X17336347Y17089423D01*
X17351957Y17077445D01*
X17486846Y17021572D01*
X17631600Y17002515D01*
X17639788Y17003593D01*
X17768166Y17020494D01*
X17776354Y17021572D01*
X17911243Y17077445D01*
X17926853Y17089423D01*
X18020521Y17161297D01*
X18020524Y17161300D01*
X18027074Y17166326D01*
X18037435Y17179828D01*
X18084992Y17241806D01*
X18115955Y17282158D01*
X18123148Y17299522D01*
X18168669Y17409420D01*
X18171828Y17417046D01*
X18190885Y17561800D01*
X18171828Y17706554D01*
X18147688Y17764832D01*
X18119115Y17833814D01*
X18119114Y17833816D01*
X18115955Y17841442D01*
X18044469Y17934605D01*
X18032101Y17950723D01*
X18032100Y17950724D01*
X18027074Y17957274D01*
X18020524Y17962300D01*
X18020521Y17962303D01*
X17917796Y18041127D01*
X17917794Y18041128D01*
X17911243Y18046155D01*
X17776354Y18102028D01*
X17631600Y18121085D01*
X17623412Y18120007D01*
X17495032Y18103106D01*
X17495030Y18103105D01*
X17486846Y18102028D01*
X17439030Y18082222D01*
X17359586Y18049315D01*
X17359584Y18049314D01*
X17351958Y18046155D01*
X17273684Y17986093D01*
X17244759Y17963898D01*
X17236126Y17957274D01*
X17147245Y17841442D01*
X17144086Y17833816D01*
X17144085Y17833814D01*
X17115512Y17764832D01*
X17091372Y17706554D01*
X17072315Y17561800D01*
X254500Y17561800D01*
X254500Y18819400D01*
X6327915Y18819400D01*
X6328993Y18811212D01*
X6344842Y18690827D01*
X6346972Y18674646D01*
X6350131Y18667020D01*
X6398110Y18551190D01*
X6402845Y18539758D01*
X6407872Y18533207D01*
X6483424Y18434746D01*
X6491726Y18423926D01*
X6498276Y18418900D01*
X6498279Y18418897D01*
X6601004Y18340073D01*
X6607557Y18335045D01*
X6742446Y18279172D01*
X6887200Y18260115D01*
X6895388Y18261193D01*
X7023766Y18278094D01*
X7031954Y18279172D01*
X7166843Y18335045D01*
X7173396Y18340073D01*
X7276121Y18418897D01*
X7276124Y18418900D01*
X7282674Y18423926D01*
X7290977Y18434746D01*
X7366528Y18533207D01*
X7371555Y18539758D01*
X7373437Y18544300D01*
X13994915Y18544300D01*
X14013972Y18399546D01*
X14017131Y18391920D01*
X14064280Y18278094D01*
X14069845Y18264658D01*
X14074872Y18258107D01*
X14146061Y18165332D01*
X14158726Y18148826D01*
X14165276Y18143800D01*
X14165279Y18143797D01*
X14268004Y18064973D01*
X14274557Y18059945D01*
X14409446Y18004072D01*
X14554200Y17985015D01*
X14562388Y17986093D01*
X14690766Y18002994D01*
X14698954Y18004072D01*
X14833843Y18059945D01*
X14840396Y18064973D01*
X14943121Y18143797D01*
X14943124Y18143800D01*
X14949674Y18148826D01*
X14962340Y18165332D01*
X15033528Y18258107D01*
X15038555Y18264658D01*
X15044121Y18278094D01*
X15053982Y18301900D01*
X20231315Y18301900D01*
X20250372Y18157146D01*
X20265309Y18121085D01*
X20298429Y18041128D01*
X20306245Y18022258D01*
X20395126Y17906426D01*
X20401676Y17901400D01*
X20401679Y17901397D01*
X20479814Y17841442D01*
X20510957Y17817545D01*
X20645846Y17761672D01*
X20790600Y17742615D01*
X20798788Y17743693D01*
X20927166Y17760594D01*
X20935354Y17761672D01*
X21070243Y17817545D01*
X21109924Y17847993D01*
X21179524Y17901400D01*
X21186074Y17906426D01*
X21207697Y17934606D01*
X21265034Y17976472D01*
X21307658Y17983900D01*
X21392890Y17983900D01*
X21461011Y17963898D01*
X21481985Y17946995D01*
X22523524Y16905456D01*
X22557550Y16843144D01*
X22559351Y16799915D01*
X22554715Y16764700D01*
X22555793Y16756512D01*
X22570745Y16642942D01*
X22573772Y16619946D01*
X22576931Y16612320D01*
X22625841Y16494242D01*
X22629645Y16485058D01*
X22644907Y16465168D01*
X22689213Y16407428D01*
X22718526Y16369226D01*
X22725076Y16364200D01*
X22725079Y16364197D01*
X22827804Y16285373D01*
X22834357Y16280345D01*
X22969246Y16224472D01*
X22977434Y16223394D01*
X23032497Y16216145D01*
X23114000Y16205415D01*
X23122188Y16206493D01*
X23131676Y16207742D01*
X23195503Y16216145D01*
X23250566Y16223394D01*
X23258754Y16224472D01*
X23393643Y16280345D01*
X23400196Y16285373D01*
X23502921Y16364197D01*
X23502924Y16364200D01*
X23509474Y16369226D01*
X23538788Y16407428D01*
X23583093Y16465168D01*
X23598355Y16485058D01*
X23602160Y16494242D01*
X23651069Y16612320D01*
X23654228Y16619946D01*
X23657256Y16642942D01*
X23672207Y16756512D01*
X23673285Y16764700D01*
X23654228Y16909454D01*
X23622234Y16986693D01*
X23601515Y17036714D01*
X23601514Y17036716D01*
X23598355Y17044342D01*
X23509474Y17160174D01*
X23502924Y17165200D01*
X23502921Y17165203D01*
X23400196Y17244027D01*
X23400194Y17244028D01*
X23393643Y17249055D01*
X23258754Y17304928D01*
X23114000Y17323985D01*
X23078785Y17319349D01*
X23008636Y17330289D01*
X22973244Y17355176D01*
X21815369Y18513051D01*
X21807943Y18521155D01*
X21791448Y18540813D01*
X21784360Y18549260D01*
X21774815Y18554771D01*
X21774811Y18554774D01*
X21752590Y18567603D01*
X21743320Y18573508D01*
X21722296Y18588229D01*
X21713266Y18594552D01*
X21702614Y18597406D01*
X21699753Y18598740D01*
X21696787Y18599819D01*
X21687240Y18605332D01*
X21676384Y18607246D01*
X21676379Y18607248D01*
X21651110Y18611704D01*
X21640381Y18614082D01*
X21615594Y18620723D01*
X21604943Y18623577D01*
X21572322Y18620723D01*
X21568390Y18620379D01*
X21557408Y18619900D01*
X21307658Y18619900D01*
X21239537Y18639902D01*
X21207698Y18669193D01*
X21186074Y18697374D01*
X21141105Y18731880D01*
X21076796Y18781227D01*
X21076794Y18781228D01*
X21070243Y18786255D01*
X20935354Y18842128D01*
X20790600Y18861185D01*
X20782412Y18860107D01*
X20654032Y18843206D01*
X20654030Y18843205D01*
X20645846Y18842128D01*
X20617757Y18830493D01*
X20518586Y18789415D01*
X20518584Y18789414D01*
X20510958Y18786255D01*
X20472291Y18756585D01*
X20407713Y18707032D01*
X20395126Y18697374D01*
X20390103Y18690828D01*
X20377686Y18674646D01*
X20306245Y18581542D01*
X20303086Y18573916D01*
X20303085Y18573914D01*
X20289374Y18540813D01*
X20250372Y18446654D01*
X20249295Y18438470D01*
X20249294Y18438468D01*
X20235679Y18335045D01*
X20231315Y18301900D01*
X15053982Y18301900D01*
X15091269Y18391920D01*
X15094428Y18399546D01*
X15113485Y18544300D01*
X15100899Y18639902D01*
X15095506Y18680868D01*
X15095505Y18680870D01*
X15094428Y18689054D01*
X15068247Y18752261D01*
X15041715Y18816314D01*
X15041714Y18816316D01*
X15038555Y18823942D01*
X14949674Y18939774D01*
X14943124Y18944800D01*
X14943121Y18944803D01*
X14840396Y19023627D01*
X14840394Y19023628D01*
X14833843Y19028655D01*
X14698954Y19084528D01*
X14554200Y19103585D01*
X14546012Y19102507D01*
X14417632Y19085606D01*
X14417630Y19085605D01*
X14409446Y19084528D01*
X14383141Y19073632D01*
X14282186Y19031815D01*
X14282184Y19031814D01*
X14274558Y19028655D01*
X14158726Y18939774D01*
X14069845Y18823942D01*
X14066686Y18816316D01*
X14066685Y18816314D01*
X14040153Y18752261D01*
X14013972Y18689054D01*
X14012895Y18680870D01*
X14012894Y18680868D01*
X14007501Y18639902D01*
X13994915Y18544300D01*
X7373437Y18544300D01*
X7376291Y18551190D01*
X7424269Y18667020D01*
X7427428Y18674646D01*
X7429559Y18690827D01*
X7445407Y18811212D01*
X7446485Y18819400D01*
X7440984Y18861185D01*
X7428506Y18955968D01*
X7428505Y18955970D01*
X7427428Y18964154D01*
X7391283Y19051415D01*
X7374715Y19091414D01*
X7374714Y19091416D01*
X7371555Y19099042D01*
X7282674Y19214874D01*
X7276124Y19219900D01*
X7276121Y19219903D01*
X7173396Y19298727D01*
X7173394Y19298728D01*
X7166843Y19303755D01*
X7031954Y19359628D01*
X6887200Y19378685D01*
X6879012Y19377607D01*
X6750632Y19360706D01*
X6750630Y19360705D01*
X6742446Y19359628D01*
X6706335Y19344670D01*
X6615186Y19306915D01*
X6615184Y19306914D01*
X6607558Y19303755D01*
X6491726Y19214874D01*
X6402845Y19099042D01*
X6399686Y19091416D01*
X6399685Y19091414D01*
X6383117Y19051415D01*
X6346972Y18964154D01*
X6345895Y18955970D01*
X6345894Y18955968D01*
X6333416Y18861185D01*
X6327915Y18819400D01*
X254500Y18819400D01*
X254500Y20585500D01*
X9090515Y20585500D01*
X9091593Y20577312D01*
X9107726Y20454771D01*
X9109572Y20440746D01*
X9165445Y20305858D01*
X9254326Y20190026D01*
X9260876Y20185000D01*
X9260879Y20184997D01*
X9330243Y20131772D01*
X9370157Y20101145D01*
X9505046Y20045272D01*
X9649800Y20026215D01*
X9657988Y20027293D01*
X9786366Y20044194D01*
X9794554Y20045272D01*
X9929443Y20101145D01*
X9969357Y20131772D01*
X10038721Y20184997D01*
X10038724Y20185000D01*
X10045274Y20190026D01*
X10134155Y20305858D01*
X10190028Y20440746D01*
X10191875Y20454771D01*
X10208007Y20577312D01*
X10209085Y20585500D01*
X10190028Y20730254D01*
X10170222Y20778070D01*
X10137315Y20857514D01*
X10137314Y20857516D01*
X10134155Y20865142D01*
X10059143Y20962900D01*
X10050301Y20974423D01*
X10050300Y20974424D01*
X10045274Y20980974D01*
X10038724Y20986000D01*
X10038721Y20986003D01*
X9935996Y21064827D01*
X9935994Y21064828D01*
X9929443Y21069855D01*
X9794554Y21125728D01*
X9649800Y21144785D01*
X9641612Y21143707D01*
X9513232Y21126806D01*
X9513230Y21126805D01*
X9505046Y21125728D01*
X9470905Y21111586D01*
X9377786Y21073015D01*
X9377784Y21073014D01*
X9370158Y21069855D01*
X9254326Y20980974D01*
X9165445Y20865142D01*
X9162286Y20857516D01*
X9162285Y20857514D01*
X9129378Y20778070D01*
X9109572Y20730254D01*
X9090515Y20585500D01*
X254500Y20585500D01*
X254500Y21457200D01*
X11811615Y21457200D01*
X11812693Y21449012D01*
X11827891Y21333573D01*
X11830672Y21312446D01*
X11886545Y21177558D01*
X11891572Y21171007D01*
X11966764Y21073015D01*
X11975426Y21061726D01*
X11981976Y21056700D01*
X11981979Y21056697D01*
X12074109Y20986003D01*
X12091257Y20972845D01*
X12226146Y20916972D01*
X12234334Y20915894D01*
X12266199Y20911699D01*
X12370900Y20897915D01*
X12379088Y20898993D01*
X12507466Y20915894D01*
X12515654Y20916972D01*
X12650543Y20972845D01*
X12667691Y20986003D01*
X12759821Y21056697D01*
X12759824Y21056700D01*
X12766374Y21061726D01*
X12775037Y21073015D01*
X12850228Y21171007D01*
X12855255Y21177558D01*
X12911128Y21312446D01*
X12913910Y21333573D01*
X12929107Y21449012D01*
X12930185Y21457200D01*
X12919408Y21539062D01*
X12912206Y21593768D01*
X12912205Y21593770D01*
X12911128Y21601954D01*
X12871617Y21697342D01*
X12858415Y21729214D01*
X12858414Y21729216D01*
X12855255Y21736842D01*
X12811703Y21793600D01*
X13202315Y21793600D01*
X13203393Y21785412D01*
X13220194Y21657797D01*
X13221372Y21648846D01*
X13241178Y21601030D01*
X13265694Y21541845D01*
X13277245Y21513958D01*
X13282272Y21507407D01*
X13353352Y21414774D01*
X13366126Y21398126D01*
X13372676Y21393100D01*
X13372679Y21393097D01*
X13450252Y21333573D01*
X13481957Y21309245D01*
X13616846Y21253372D01*
X13625034Y21252294D01*
X13665004Y21247032D01*
X13761600Y21234315D01*
X13769788Y21235393D01*
X13898166Y21252294D01*
X13906354Y21253372D01*
X14041243Y21309245D01*
X14072948Y21333573D01*
X14150521Y21393097D01*
X14150524Y21393100D01*
X14157074Y21398126D01*
X14169849Y21414774D01*
X14240928Y21507407D01*
X14245955Y21513958D01*
X14257507Y21541845D01*
X14282022Y21601030D01*
X14301828Y21648846D01*
X14303007Y21657797D01*
X14319807Y21785412D01*
X14320885Y21793600D01*
X14310680Y21871115D01*
X14302906Y21930168D01*
X14302905Y21930170D01*
X14301828Y21938354D01*
X14255536Y22050112D01*
X14252144Y22058300D01*
X16781415Y22058300D01*
X16782493Y22050112D01*
X16798284Y21930168D01*
X16800472Y21913546D01*
X16817851Y21871591D01*
X16850156Y21793600D01*
X16856345Y21778658D01*
X16861372Y21772107D01*
X16926196Y21687627D01*
X16945226Y21662826D01*
X16951776Y21657800D01*
X16951779Y21657797D01*
X17033061Y21595427D01*
X17061057Y21573945D01*
X17171123Y21528354D01*
X17175150Y21526686D01*
X17230431Y21482138D01*
X17252852Y21414774D01*
X17235294Y21345983D01*
X17226895Y21333573D01*
X17196663Y21294173D01*
X17157045Y21242542D01*
X17101172Y21107654D01*
X17100095Y21099470D01*
X17100094Y21099468D01*
X17094463Y21056697D01*
X17082115Y20962900D01*
X17083193Y20954712D01*
X17099816Y20828449D01*
X17101172Y20818146D01*
X17104331Y20810520D01*
X17138582Y20727832D01*
X17157045Y20683258D01*
X17245926Y20567426D01*
X17252476Y20562400D01*
X17252479Y20562397D01*
X17349551Y20487911D01*
X17361757Y20478545D01*
X17496646Y20422672D01*
X17641400Y20403615D01*
X17649588Y20404693D01*
X17777966Y20421594D01*
X17786154Y20422672D01*
X17921043Y20478545D01*
X17933249Y20487911D01*
X18030321Y20562397D01*
X18030324Y20562400D01*
X18036874Y20567426D01*
X18125755Y20683258D01*
X18144219Y20727832D01*
X18178469Y20810520D01*
X18181628Y20818146D01*
X18182985Y20828449D01*
X18199607Y20954712D01*
X18200685Y20962900D01*
X18188337Y21056697D01*
X18182706Y21099468D01*
X18182705Y21099470D01*
X18181628Y21107654D01*
X18125755Y21242542D01*
X18070714Y21314273D01*
X18041901Y21351823D01*
X18041900Y21351824D01*
X18036874Y21358374D01*
X18030324Y21363400D01*
X18030321Y21363403D01*
X17927596Y21442227D01*
X17927594Y21442228D01*
X17921043Y21447255D01*
X17806950Y21494514D01*
X17751669Y21539062D01*
X17729248Y21606426D01*
X17746806Y21675217D01*
X17755205Y21687627D01*
X17820028Y21772107D01*
X17825055Y21778658D01*
X17831245Y21793600D01*
X17863549Y21871591D01*
X17880928Y21913546D01*
X17883117Y21930168D01*
X17898907Y22050112D01*
X17899985Y22058300D01*
X17896132Y22087565D01*
X17882006Y22194868D01*
X17882005Y22194870D01*
X17880928Y22203054D01*
X17841440Y22298385D01*
X17828215Y22330314D01*
X17828214Y22330316D01*
X17825055Y22337942D01*
X17736174Y22453774D01*
X17729624Y22458800D01*
X17729621Y22458803D01*
X17626896Y22537627D01*
X17626894Y22537628D01*
X17620343Y22542655D01*
X17485454Y22598528D01*
X17340700Y22617585D01*
X17332512Y22616507D01*
X17204132Y22599606D01*
X17204130Y22599605D01*
X17195946Y22598528D01*
X17177818Y22591019D01*
X17068686Y22545815D01*
X17068684Y22545814D01*
X17061058Y22542655D01*
X16945226Y22453774D01*
X16856345Y22337942D01*
X16853186Y22330316D01*
X16853185Y22330314D01*
X16839960Y22298385D01*
X16800472Y22203054D01*
X16799395Y22194870D01*
X16799394Y22194868D01*
X16785268Y22087565D01*
X16781415Y22058300D01*
X14252144Y22058300D01*
X14249115Y22065614D01*
X14249114Y22065616D01*
X14245955Y22073242D01*
X14157074Y22189074D01*
X14150524Y22194100D01*
X14150521Y22194103D01*
X14047796Y22272927D01*
X14047794Y22272928D01*
X14041243Y22277955D01*
X13906354Y22333828D01*
X13761600Y22352885D01*
X13753412Y22351807D01*
X13625032Y22334906D01*
X13625030Y22334905D01*
X13616846Y22333828D01*
X13608363Y22330314D01*
X13489586Y22281115D01*
X13489584Y22281114D01*
X13481958Y22277955D01*
X13366126Y22189074D01*
X13277245Y22073242D01*
X13274086Y22065616D01*
X13274085Y22065614D01*
X13267664Y22050112D01*
X13221372Y21938354D01*
X13220295Y21930170D01*
X13220294Y21930168D01*
X13212520Y21871115D01*
X13202315Y21793600D01*
X12811703Y21793600D01*
X12766374Y21852674D01*
X12759824Y21857700D01*
X12759821Y21857703D01*
X12657096Y21936527D01*
X12657094Y21936528D01*
X12650543Y21941555D01*
X12515654Y21997428D01*
X12370900Y22016485D01*
X12362712Y22015407D01*
X12234332Y21998506D01*
X12234330Y21998505D01*
X12226146Y21997428D01*
X12178330Y21977622D01*
X12098886Y21944715D01*
X12098884Y21944714D01*
X12091258Y21941555D01*
X11975426Y21852674D01*
X11886545Y21736842D01*
X11883386Y21729216D01*
X11883385Y21729214D01*
X11870183Y21697342D01*
X11830672Y21601954D01*
X11829595Y21593770D01*
X11829594Y21593768D01*
X11822392Y21539062D01*
X11811615Y21457200D01*
X254500Y21457200D01*
X254500Y22240300D01*
X6091515Y22240300D01*
X6092593Y22232112D01*
X6103979Y22145628D01*
X6110572Y22095546D01*
X6113731Y22087920D01*
X6160129Y21975907D01*
X6166445Y21960658D01*
X6194706Y21923828D01*
X6241437Y21862927D01*
X6255326Y21844826D01*
X6261876Y21839800D01*
X6261879Y21839797D01*
X6349552Y21772523D01*
X6371157Y21755945D01*
X6506046Y21700072D01*
X6514234Y21698994D01*
X6578423Y21690544D01*
X6650800Y21681015D01*
X6658988Y21682093D01*
X6787366Y21698994D01*
X6795554Y21700072D01*
X6930443Y21755945D01*
X6952048Y21772523D01*
X7039721Y21839797D01*
X7039724Y21839800D01*
X7046274Y21844826D01*
X7060164Y21862927D01*
X7106894Y21923828D01*
X7135155Y21960658D01*
X7141472Y21975907D01*
X7187869Y22087920D01*
X7191028Y22095546D01*
X7197622Y22145628D01*
X7209007Y22232112D01*
X7210085Y22240300D01*
X7205790Y22272927D01*
X7192106Y22376868D01*
X7192105Y22376870D01*
X7191028Y22385054D01*
X7170962Y22433498D01*
X7138315Y22512314D01*
X7138314Y22512316D01*
X7135155Y22519942D01*
X7130129Y22526493D01*
X7130126Y22526497D01*
X7088017Y22581375D01*
X7062417Y22647595D01*
X7076682Y22717144D01*
X7088017Y22734781D01*
X7137526Y22799303D01*
X7137529Y22799307D01*
X7142555Y22805858D01*
X7198428Y22940746D01*
X7199644Y22949977D01*
X7216407Y23077312D01*
X7217485Y23085500D01*
X7198428Y23230254D01*
X7195268Y23237882D01*
X7195267Y23237887D01*
X7186504Y23259044D01*
X7178915Y23329634D01*
X7183553Y23338900D01*
X12742615Y23338900D01*
X12743693Y23330712D01*
X12753392Y23257043D01*
X12761672Y23194146D01*
X12769674Y23174828D01*
X12812229Y23072093D01*
X12817545Y23059258D01*
X12906426Y22943426D01*
X12912976Y22938400D01*
X12912979Y22938397D01*
X13015704Y22859573D01*
X13022257Y22854545D01*
X13157146Y22798672D01*
X13301900Y22779615D01*
X13310088Y22780693D01*
X13349640Y22785900D01*
X19760715Y22785900D01*
X19761793Y22777712D01*
X19770461Y22711874D01*
X19779772Y22641146D01*
X19782931Y22633520D01*
X19827262Y22526497D01*
X19835645Y22506258D01*
X19924526Y22390426D01*
X19931076Y22385400D01*
X19931079Y22385397D01*
X20033804Y22306573D01*
X20040357Y22301545D01*
X20175246Y22245672D01*
X20320000Y22226615D01*
X20355215Y22231251D01*
X20425364Y22220311D01*
X20460756Y22195424D01*
X22309634Y20346546D01*
X22343660Y20284234D01*
X22338595Y20213419D01*
X22296048Y20156583D01*
X22229528Y20131772D01*
X22172321Y20141042D01*
X22156084Y20147768D01*
X22156081Y20147769D01*
X22148454Y20150928D01*
X22003700Y20169985D01*
X21995512Y20168907D01*
X21867132Y20152006D01*
X21867130Y20152005D01*
X21858946Y20150928D01*
X21812700Y20131772D01*
X21731686Y20098215D01*
X21731684Y20098214D01*
X21724058Y20095055D01*
X21608226Y20006174D01*
X21519345Y19890342D01*
X21516186Y19882716D01*
X21516185Y19882714D01*
X21483326Y19803385D01*
X21463472Y19755454D01*
X21462395Y19747270D01*
X21462394Y19747268D01*
X21448878Y19644603D01*
X21444415Y19610700D01*
X21463472Y19465946D01*
X21466631Y19458320D01*
X21513707Y19344670D01*
X21519345Y19331058D01*
X21608226Y19215226D01*
X21614776Y19210200D01*
X21614779Y19210197D01*
X21717504Y19131373D01*
X21724057Y19126345D01*
X21858946Y19070472D01*
X22003700Y19051415D01*
X22011888Y19052493D01*
X22140266Y19069394D01*
X22148454Y19070472D01*
X22283343Y19126345D01*
X22289896Y19131373D01*
X22392621Y19210197D01*
X22392624Y19210200D01*
X22399174Y19215226D01*
X22488055Y19331058D01*
X22493694Y19344670D01*
X22540769Y19458320D01*
X22543928Y19465946D01*
X22562985Y19610700D01*
X22558522Y19644603D01*
X22545006Y19747268D01*
X22545005Y19747270D01*
X22543928Y19755454D01*
X22534043Y19779319D01*
X22526453Y19849909D01*
X22558231Y19913396D01*
X22619289Y19949625D01*
X22690240Y19947092D01*
X22739546Y19916634D01*
X23311510Y19344670D01*
X23345536Y19282358D01*
X23340471Y19211543D01*
X23297924Y19154707D01*
X23231404Y19129896D01*
X23205969Y19130653D01*
X23152388Y19137707D01*
X23144200Y19138785D01*
X23136012Y19137707D01*
X23007632Y19120806D01*
X23007630Y19120805D01*
X22999446Y19119728D01*
X22960474Y19103585D01*
X22872186Y19067015D01*
X22872184Y19067014D01*
X22864558Y19063855D01*
X22748726Y18974974D01*
X22743703Y18968428D01*
X22735630Y18957907D01*
X22659845Y18859142D01*
X22656686Y18851516D01*
X22656685Y18851514D01*
X22639243Y18809406D01*
X22603972Y18724254D01*
X22602895Y18716070D01*
X22602894Y18716068D01*
X22600433Y18697374D01*
X22584915Y18579500D01*
X22585993Y18571312D01*
X22591010Y18533207D01*
X22603972Y18434746D01*
X22621711Y18391920D01*
X22655608Y18310088D01*
X22659845Y18299858D01*
X22748726Y18184026D01*
X22755276Y18179000D01*
X22755279Y18178997D01*
X22832156Y18120007D01*
X22864557Y18095145D01*
X22999446Y18039272D01*
X23144200Y18020215D01*
X23152388Y18021293D01*
X23280766Y18038194D01*
X23288954Y18039272D01*
X23423843Y18095145D01*
X23456244Y18120007D01*
X23533121Y18178997D01*
X23533124Y18179000D01*
X23539674Y18184026D01*
X23628555Y18299858D01*
X23632793Y18310088D01*
X23666689Y18391920D01*
X23684428Y18434746D01*
X23697391Y18533207D01*
X23702407Y18571312D01*
X23703485Y18579500D01*
X23695353Y18641269D01*
X23706292Y18711418D01*
X23753420Y18764516D01*
X23821774Y18783706D01*
X23889652Y18762895D01*
X23909370Y18746810D01*
X24015895Y18640285D01*
X24049921Y18577973D01*
X24052800Y18551190D01*
X24052800Y14298715D01*
X24032798Y14230594D01*
X23979142Y14184101D01*
X23908868Y14173997D01*
X23844288Y14203491D01*
X23837707Y14209618D01*
X23832497Y14214828D01*
X23827474Y14221374D01*
X23711643Y14310255D01*
X23576754Y14366128D01*
X23432000Y14385185D01*
X23423812Y14384107D01*
X23295432Y14367206D01*
X23295430Y14367205D01*
X23287246Y14366128D01*
X23239430Y14346322D01*
X23159986Y14313415D01*
X23159984Y14313414D01*
X23152358Y14310255D01*
X23036526Y14221374D01*
X22947645Y14105542D01*
X22891772Y13970654D01*
X22872715Y13825900D01*
X22891772Y13681146D01*
X22947645Y13546258D01*
X23036526Y13430426D01*
X23043075Y13425401D01*
X23043079Y13425397D01*
X23145804Y13346573D01*
X23152357Y13341545D01*
X23287246Y13285672D01*
X23432000Y13266615D01*
X23440188Y13267693D01*
X23568566Y13284594D01*
X23576754Y13285672D01*
X23711643Y13341545D01*
X23731403Y13356707D01*
X23820925Y13425401D01*
X23827474Y13430426D01*
X23832498Y13436973D01*
X23837707Y13442182D01*
X23900019Y13476206D01*
X23970835Y13471140D01*
X24027670Y13428592D01*
X24052479Y13362071D01*
X24052800Y13353085D01*
X24052800Y11453614D01*
X24032798Y11385493D01*
X23979142Y11339000D01*
X23908868Y11328896D01*
X23844288Y11358390D01*
X23843974Y11358682D01*
X23840374Y11363374D01*
X23810890Y11385998D01*
X23731096Y11447227D01*
X23731094Y11447228D01*
X23724543Y11452255D01*
X23589654Y11508128D01*
X23444900Y11527185D01*
X23436712Y11526107D01*
X23308332Y11509206D01*
X23308330Y11509205D01*
X23300146Y11508128D01*
X23252330Y11488322D01*
X23172886Y11455415D01*
X23172884Y11455414D01*
X23165258Y11452255D01*
X23049426Y11363374D01*
X22960545Y11247542D01*
X22957386Y11239916D01*
X22957385Y11239914D01*
X22934165Y11183855D01*
X22904672Y11112654D01*
X22885615Y10967900D01*
X22904672Y10823146D01*
X22907831Y10815520D01*
X22952898Y10706720D01*
X22960545Y10688258D01*
X22965572Y10681707D01*
X23041094Y10583285D01*
X23049426Y10572426D01*
X23055976Y10567400D01*
X23055979Y10567397D01*
X23128806Y10511515D01*
X23165257Y10483545D01*
X23300146Y10427672D01*
X23444900Y10408615D01*
X23453088Y10409693D01*
X23581466Y10426594D01*
X23589654Y10427672D01*
X23724543Y10483545D01*
X23778064Y10524613D01*
X23833824Y10567400D01*
X23840374Y10572426D01*
X23840787Y10572964D01*
X23900017Y10605307D01*
X23970832Y10600242D01*
X24027668Y10557695D01*
X24052479Y10491175D01*
X24052800Y10482186D01*
X24052800Y7937458D01*
X24032798Y7869337D01*
X24003507Y7837498D01*
X23975326Y7815874D01*
X23886445Y7700042D01*
X23883286Y7692416D01*
X23883285Y7692414D01*
X23853855Y7621363D01*
X23830572Y7565154D01*
X23829495Y7556970D01*
X23829494Y7556968D01*
X23823337Y7510200D01*
X23811515Y7420400D01*
X23812593Y7412212D01*
X23823965Y7325835D01*
X23830572Y7275646D01*
X23833731Y7268020D01*
X23875696Y7166709D01*
X23886445Y7140758D01*
X23891472Y7134207D01*
X23968201Y7034212D01*
X23975326Y7024926D01*
X23981876Y7019900D01*
X23981879Y7019897D01*
X24084604Y6941073D01*
X24091157Y6936045D01*
X24226046Y6880172D01*
X24370800Y6861115D01*
X24378988Y6862193D01*
X24507366Y6879094D01*
X24515554Y6880172D01*
X24650443Y6936045D01*
X24656996Y6941073D01*
X24759721Y7019897D01*
X24759724Y7019900D01*
X24766274Y7024926D01*
X24773400Y7034212D01*
X24850128Y7134207D01*
X24855155Y7140758D01*
X24865905Y7166709D01*
X24907869Y7268020D01*
X24911028Y7275646D01*
X24917636Y7325835D01*
X24929007Y7412212D01*
X24930085Y7420400D01*
X24918263Y7510200D01*
X24912106Y7556968D01*
X24912105Y7556970D01*
X24911028Y7565154D01*
X24887745Y7621363D01*
X24858315Y7692414D01*
X24858314Y7692416D01*
X24855155Y7700042D01*
X24766274Y7815874D01*
X24738094Y7837497D01*
X24696228Y7894834D01*
X24688800Y7937458D01*
X24688800Y9472600D01*
X29619915Y9472600D01*
X29638972Y9327846D01*
X29642131Y9320220D01*
X29676373Y9237554D01*
X29694845Y9192958D01*
X29727374Y9150565D01*
X29752474Y9117855D01*
X29783726Y9077126D01*
X29790276Y9072100D01*
X29790279Y9072097D01*
X29893004Y8993273D01*
X29899557Y8988245D01*
X30034446Y8932372D01*
X30042634Y8931294D01*
X30179200Y8913315D01*
X30178835Y8910542D01*
X30233841Y8894391D01*
X30280334Y8840735D01*
X30290642Y8771948D01*
X30272415Y8633500D01*
X30273493Y8625312D01*
X30287600Y8518160D01*
X30291472Y8488746D01*
X30294631Y8481120D01*
X30335601Y8382211D01*
X30347345Y8353858D01*
X30352372Y8347307D01*
X30420434Y8258607D01*
X30436226Y8238026D01*
X30442776Y8233000D01*
X30442779Y8232997D01*
X30512202Y8179727D01*
X30552057Y8149145D01*
X30686946Y8093272D01*
X30831700Y8074215D01*
X30839888Y8075293D01*
X30848146Y8075293D01*
X30848146Y8073562D01*
X30908498Y8064146D01*
X30961593Y8017015D01*
X30980779Y7948660D01*
X30971197Y7901949D01*
X30947672Y7845154D01*
X30946595Y7836970D01*
X30946594Y7836968D01*
X30932806Y7732234D01*
X30928615Y7700400D01*
X30929693Y7692212D01*
X30942794Y7592701D01*
X30947672Y7555646D01*
X30966497Y7510200D01*
X31003227Y7421526D01*
X31010816Y7350936D01*
X30979037Y7287449D01*
X30917979Y7251221D01*
X30897859Y7248694D01*
X30897900Y7248385D01*
X30761332Y7230406D01*
X30761330Y7230405D01*
X30753146Y7229328D01*
X30705330Y7209522D01*
X30625886Y7176615D01*
X30625884Y7176614D01*
X30618258Y7173455D01*
X30502426Y7084574D01*
X30413545Y6968742D01*
X30410386Y6961116D01*
X30410385Y6961114D01*
X30387559Y6906007D01*
X30357672Y6833854D01*
X30356595Y6825670D01*
X30356594Y6825668D01*
X30353646Y6803273D01*
X30338615Y6689100D01*
X30357672Y6544346D01*
X30413545Y6409458D01*
X30418572Y6402907D01*
X30486344Y6314585D01*
X30502426Y6293626D01*
X30508976Y6288600D01*
X30508979Y6288597D01*
X30611704Y6209773D01*
X30618257Y6204745D01*
X30753146Y6148872D01*
X30897900Y6129815D01*
X30906088Y6130893D01*
X31034466Y6147794D01*
X31042654Y6148872D01*
X31177543Y6204745D01*
X31184096Y6209773D01*
X31286821Y6288597D01*
X31286824Y6288600D01*
X31293374Y6293626D01*
X31309457Y6314585D01*
X31377228Y6402907D01*
X31382255Y6409458D01*
X31438128Y6544346D01*
X31457185Y6689100D01*
X31442154Y6803273D01*
X31439206Y6825668D01*
X31439205Y6825670D01*
X31438128Y6833854D01*
X31382573Y6967974D01*
X31374984Y7038564D01*
X31406763Y7102051D01*
X31467821Y7138279D01*
X31487941Y7140806D01*
X31487900Y7141115D01*
X31624466Y7159094D01*
X31632654Y7160172D01*
X31767543Y7216045D01*
X31784854Y7229328D01*
X31876821Y7299897D01*
X31876824Y7299900D01*
X31883374Y7304926D01*
X31972255Y7420758D01*
X31975499Y7428588D01*
X32009303Y7510200D01*
X32028128Y7555646D01*
X32033007Y7592701D01*
X32046107Y7692212D01*
X32047185Y7700400D01*
X32042994Y7732234D01*
X32029206Y7836968D01*
X32029205Y7836970D01*
X32028128Y7845154D01*
X31994513Y7926307D01*
X31975415Y7972414D01*
X31975414Y7972416D01*
X31972255Y7980042D01*
X31907720Y8064146D01*
X31888401Y8089323D01*
X31888400Y8089324D01*
X31883374Y8095874D01*
X31876824Y8100900D01*
X31876821Y8100903D01*
X31774096Y8179727D01*
X31774094Y8179728D01*
X31767543Y8184755D01*
X31632654Y8240628D01*
X31487900Y8259685D01*
X31479712Y8258607D01*
X31471454Y8258607D01*
X31471454Y8260338D01*
X31411102Y8269754D01*
X31358007Y8316885D01*
X31338821Y8385240D01*
X31348403Y8431951D01*
X31368768Y8481117D01*
X31368769Y8481120D01*
X31371928Y8488746D01*
X31375801Y8518160D01*
X31389907Y8625312D01*
X31390985Y8633500D01*
X31381720Y8703877D01*
X31373006Y8770068D01*
X31373005Y8770070D01*
X31371928Y8778254D01*
X31316055Y8913142D01*
X31260851Y8985085D01*
X31232201Y9022423D01*
X31232200Y9022424D01*
X31227174Y9028974D01*
X31220624Y9034000D01*
X31220621Y9034003D01*
X31117896Y9112827D01*
X31117894Y9112828D01*
X31111343Y9117855D01*
X30976454Y9173728D01*
X30939706Y9178566D01*
X30831700Y9192785D01*
X30832065Y9195558D01*
X30777059Y9211709D01*
X30730566Y9265365D01*
X30720258Y9334153D01*
X30720506Y9336032D01*
X30738485Y9472600D01*
X30724304Y9580315D01*
X30720506Y9609168D01*
X30720505Y9609170D01*
X30719428Y9617354D01*
X30699622Y9665170D01*
X30666715Y9744614D01*
X30666714Y9744616D01*
X30663555Y9752242D01*
X30574674Y9868074D01*
X30568124Y9873100D01*
X30568121Y9873103D01*
X30465396Y9951927D01*
X30465394Y9951928D01*
X30458843Y9956955D01*
X30323954Y10012828D01*
X30179200Y10031885D01*
X30171012Y10030807D01*
X30042632Y10013906D01*
X30042630Y10013905D01*
X30034446Y10012828D01*
X29986630Y9993022D01*
X29907186Y9960115D01*
X29907184Y9960114D01*
X29899558Y9956955D01*
X29783726Y9868074D01*
X29694845Y9752242D01*
X29691686Y9744616D01*
X29691685Y9744614D01*
X29658778Y9665170D01*
X29638972Y9617354D01*
X29637895Y9609170D01*
X29637894Y9609168D01*
X29634096Y9580315D01*
X29619915Y9472600D01*
X24688800Y9472600D01*
X24688800Y15928100D01*
X25729715Y15928100D01*
X25730793Y15919912D01*
X25744724Y15814097D01*
X25748772Y15783346D01*
X25751931Y15775720D01*
X25800528Y15658398D01*
X25804645Y15648458D01*
X25809672Y15641907D01*
X25868012Y15565877D01*
X25893526Y15532626D01*
X25900076Y15527600D01*
X25900079Y15527597D01*
X26002804Y15448773D01*
X26009357Y15443745D01*
X26144246Y15387872D01*
X26289000Y15368815D01*
X26297188Y15369893D01*
X26425566Y15386794D01*
X26433754Y15387872D01*
X26568643Y15443745D01*
X26575196Y15448773D01*
X26677921Y15527597D01*
X26677924Y15527600D01*
X26684474Y15532626D01*
X26709989Y15565877D01*
X26768328Y15641907D01*
X26773355Y15648458D01*
X26777473Y15658398D01*
X26826069Y15775720D01*
X26829228Y15783346D01*
X26833277Y15814097D01*
X26847207Y15919912D01*
X26848285Y15928100D01*
X26829228Y16072854D01*
X26800465Y16142293D01*
X26776515Y16200114D01*
X26776514Y16200116D01*
X26773355Y16207742D01*
X26702565Y16299997D01*
X26689501Y16317023D01*
X26689500Y16317024D01*
X26684474Y16323574D01*
X26677924Y16328600D01*
X26677921Y16328603D01*
X26575196Y16407427D01*
X26575194Y16407428D01*
X26568643Y16412455D01*
X26433754Y16468328D01*
X26289000Y16487385D01*
X26265255Y16484259D01*
X26152432Y16469406D01*
X26152430Y16469405D01*
X26144246Y16468328D01*
X26096430Y16448522D01*
X26016986Y16415615D01*
X26016984Y16415614D01*
X26009358Y16412455D01*
X25893526Y16323574D01*
X25804645Y16207742D01*
X25801486Y16200116D01*
X25801485Y16200114D01*
X25777535Y16142293D01*
X25748772Y16072854D01*
X25729715Y15928100D01*
X24688800Y15928100D01*
X24688800Y18715708D01*
X24689279Y18726690D01*
X24691516Y18752261D01*
X24692477Y18763243D01*
X24689623Y18773895D01*
X24682983Y18798678D01*
X24680605Y18809406D01*
X24676148Y18834683D01*
X24676145Y18834691D01*
X24674232Y18845540D01*
X24668723Y18855083D01*
X24667643Y18858049D01*
X24666304Y18860921D01*
X24663451Y18871566D01*
X24642407Y18901621D01*
X24636507Y18910882D01*
X24623674Y18933111D01*
X24623671Y18933115D01*
X24618160Y18942660D01*
X24590055Y18966243D01*
X24581951Y18973669D01*
X24311520Y19244100D01*
X25729715Y19244100D01*
X25730793Y19235912D01*
X25746505Y19116569D01*
X25748772Y19099346D01*
X25756219Y19081368D01*
X25800830Y18973669D01*
X25804645Y18964458D01*
X25845755Y18910882D01*
X25875924Y18871566D01*
X25893526Y18848626D01*
X25900076Y18843600D01*
X25900079Y18843597D01*
X26002804Y18764773D01*
X26009357Y18759745D01*
X26144246Y18703872D01*
X26289000Y18684815D01*
X26297188Y18685893D01*
X26425566Y18702794D01*
X26433754Y18703872D01*
X26568643Y18759745D01*
X26575196Y18764773D01*
X26677921Y18843597D01*
X26677924Y18843600D01*
X26684474Y18848626D01*
X26702077Y18871566D01*
X26732245Y18910882D01*
X26773355Y18964458D01*
X26777171Y18973669D01*
X26821781Y19081368D01*
X26829228Y19099346D01*
X26831496Y19116569D01*
X26847207Y19235912D01*
X26848285Y19244100D01*
X26829228Y19388854D01*
X26797295Y19465946D01*
X26776515Y19516114D01*
X26776514Y19516116D01*
X26773355Y19523742D01*
X26684474Y19639574D01*
X26677924Y19644600D01*
X26677921Y19644603D01*
X26575196Y19723427D01*
X26575194Y19723428D01*
X26568643Y19728455D01*
X26433754Y19784328D01*
X26392737Y19789728D01*
X26297188Y19802307D01*
X26289000Y19803385D01*
X26280812Y19802307D01*
X26152432Y19785406D01*
X26152430Y19785405D01*
X26144246Y19784328D01*
X26129797Y19778343D01*
X26016986Y19731615D01*
X26016984Y19731614D01*
X26009358Y19728455D01*
X25893526Y19639574D01*
X25804645Y19523742D01*
X25801486Y19516116D01*
X25801485Y19516114D01*
X25780705Y19465946D01*
X25748772Y19388854D01*
X25729715Y19244100D01*
X24311520Y19244100D01*
X22137920Y21417700D01*
X23434315Y21417700D01*
X23436892Y21398126D01*
X23443757Y21345983D01*
X23453372Y21272946D01*
X23509245Y21138058D01*
X23598126Y21022226D01*
X23604676Y21017200D01*
X23604679Y21017197D01*
X23666598Y20969685D01*
X23713957Y20933345D01*
X23848846Y20877472D01*
X23857034Y20876394D01*
X23892742Y20871693D01*
X23993600Y20858415D01*
X24001788Y20859493D01*
X24130166Y20876394D01*
X24138354Y20877472D01*
X24273243Y20933345D01*
X24320602Y20969685D01*
X24382521Y21017197D01*
X24382524Y21017200D01*
X24389074Y21022226D01*
X24477955Y21138058D01*
X24533828Y21272946D01*
X24543444Y21345983D01*
X24548396Y21383600D01*
X26761915Y21383600D01*
X26762993Y21375412D01*
X26779202Y21252294D01*
X26780972Y21238846D01*
X26784131Y21231220D01*
X26831642Y21116520D01*
X26836845Y21103958D01*
X26925726Y20988126D01*
X26932276Y20983100D01*
X26932279Y20983097D01*
X27026077Y20911123D01*
X27041557Y20899245D01*
X27176446Y20843372D01*
X27184634Y20842294D01*
X27223700Y20837151D01*
X27321200Y20824315D01*
X27329388Y20825393D01*
X27457766Y20842294D01*
X27465954Y20843372D01*
X27600843Y20899245D01*
X27616323Y20911123D01*
X27710121Y20983097D01*
X27710124Y20983100D01*
X27716674Y20988126D01*
X27805555Y21103958D01*
X27810759Y21116520D01*
X27858269Y21231220D01*
X27861428Y21238846D01*
X27863199Y21252294D01*
X27879407Y21375412D01*
X27880485Y21383600D01*
X27872105Y21447255D01*
X27862506Y21520168D01*
X27862505Y21520170D01*
X27861428Y21528354D01*
X27805555Y21663242D01*
X27734422Y21755945D01*
X27721701Y21772523D01*
X27721700Y21772524D01*
X27716674Y21779074D01*
X27710124Y21784100D01*
X27710121Y21784103D01*
X27607396Y21862927D01*
X27607394Y21862928D01*
X27600843Y21867955D01*
X27465954Y21923828D01*
X27321200Y21942885D01*
X27313012Y21941807D01*
X27184632Y21924906D01*
X27184630Y21924905D01*
X27176446Y21923828D01*
X27133213Y21905920D01*
X27049186Y21871115D01*
X27049184Y21871114D01*
X27041558Y21867955D01*
X26925726Y21779074D01*
X26836845Y21663242D01*
X26780972Y21528354D01*
X26779895Y21520170D01*
X26779894Y21520168D01*
X26770295Y21447255D01*
X26761915Y21383600D01*
X24548396Y21383600D01*
X24550308Y21398126D01*
X24552885Y21417700D01*
X24544402Y21482138D01*
X24534906Y21554268D01*
X24534905Y21554270D01*
X24533828Y21562454D01*
X24498043Y21648846D01*
X24481115Y21689714D01*
X24481114Y21689716D01*
X24477955Y21697342D01*
X24397811Y21801788D01*
X24394101Y21806623D01*
X24394100Y21806624D01*
X24389074Y21813174D01*
X24382524Y21818200D01*
X24382521Y21818203D01*
X24279796Y21897027D01*
X24279794Y21897028D01*
X24273243Y21902055D01*
X24138354Y21957928D01*
X24117618Y21960658D01*
X24001788Y21975907D01*
X23993600Y21976985D01*
X23985412Y21975907D01*
X23857032Y21959006D01*
X23857030Y21959005D01*
X23848846Y21957928D01*
X23801591Y21938354D01*
X23721586Y21905215D01*
X23721584Y21905214D01*
X23713958Y21902055D01*
X23598126Y21813174D01*
X23509245Y21697342D01*
X23506086Y21689716D01*
X23506085Y21689714D01*
X23489157Y21648846D01*
X23453372Y21562454D01*
X23452295Y21554270D01*
X23452294Y21554268D01*
X23442798Y21482138D01*
X23434315Y21417700D01*
X22137920Y21417700D01*
X20910476Y22645144D01*
X20876450Y22707456D01*
X20874649Y22750685D01*
X20878207Y22777712D01*
X20879285Y22785900D01*
X20860228Y22930654D01*
X20834589Y22992552D01*
X20807515Y23057914D01*
X20807514Y23057916D01*
X20804355Y23065542D01*
X20715474Y23181374D01*
X20708924Y23186400D01*
X20708921Y23186403D01*
X20606196Y23265227D01*
X20606194Y23265228D01*
X20599643Y23270255D01*
X20464754Y23326128D01*
X20320000Y23345185D01*
X20311812Y23344107D01*
X20183432Y23327206D01*
X20183430Y23327205D01*
X20175246Y23326128D01*
X20127430Y23306322D01*
X20047986Y23273415D01*
X20047984Y23273414D01*
X20040358Y23270255D01*
X19956270Y23205732D01*
X19943087Y23195616D01*
X19924526Y23181374D01*
X19835645Y23065542D01*
X19832486Y23057916D01*
X19832485Y23057914D01*
X19805411Y22992552D01*
X19779772Y22930654D01*
X19760715Y22785900D01*
X13349640Y22785900D01*
X13438466Y22797594D01*
X13446654Y22798672D01*
X13581543Y22854545D01*
X13588096Y22859573D01*
X13690821Y22938397D01*
X13690824Y22938400D01*
X13697374Y22943426D01*
X13786255Y23059258D01*
X13791572Y23072093D01*
X13834126Y23174828D01*
X13842128Y23194146D01*
X13850409Y23257043D01*
X13860107Y23330712D01*
X13861185Y23338900D01*
X13846885Y23447524D01*
X13843206Y23475468D01*
X13843205Y23475470D01*
X13842128Y23483654D01*
X13806422Y23569855D01*
X13789415Y23610914D01*
X13789414Y23610916D01*
X13786255Y23618542D01*
X13735398Y23684820D01*
X13702401Y23727823D01*
X13702400Y23727824D01*
X13697374Y23734374D01*
X13690824Y23739400D01*
X13690821Y23739403D01*
X13588096Y23818227D01*
X13588094Y23818228D01*
X13581543Y23823255D01*
X13446654Y23879128D01*
X13410582Y23883877D01*
X13310088Y23897107D01*
X13301900Y23898185D01*
X13293712Y23897107D01*
X13165332Y23880206D01*
X13165330Y23880205D01*
X13157146Y23879128D01*
X13109330Y23859322D01*
X13029886Y23826415D01*
X13029884Y23826414D01*
X13022258Y23823255D01*
X12906426Y23734374D01*
X12817545Y23618542D01*
X12814386Y23610916D01*
X12814385Y23610914D01*
X12797378Y23569855D01*
X12761672Y23483654D01*
X12760595Y23475470D01*
X12760594Y23475468D01*
X12756915Y23447524D01*
X12742615Y23338900D01*
X7183553Y23338900D01*
X7210695Y23393121D01*
X7226209Y23407223D01*
X7264621Y23436697D01*
X7264624Y23436700D01*
X7271174Y23441726D01*
X7278402Y23451145D01*
X7355028Y23551007D01*
X7360055Y23557558D01*
X7366276Y23572575D01*
X7402528Y23660097D01*
X7415928Y23692446D01*
X7420410Y23726486D01*
X7433907Y23829012D01*
X7434985Y23837200D01*
X7423756Y23922495D01*
X7417006Y23973768D01*
X7417005Y23973770D01*
X7415928Y23981954D01*
X7383758Y24059618D01*
X7383351Y24060600D01*
X11125415Y24060600D01*
X11126493Y24052412D01*
X11136847Y23973768D01*
X11144472Y23915846D01*
X11152234Y23897107D01*
X11184908Y23818227D01*
X11200345Y23780958D01*
X11218040Y23757897D01*
X11274117Y23684817D01*
X11289226Y23665126D01*
X11295776Y23660100D01*
X11295779Y23660097D01*
X11375252Y23599115D01*
X11405057Y23576245D01*
X11539946Y23520372D01*
X11684700Y23501315D01*
X11692888Y23502393D01*
X11821266Y23519294D01*
X11829454Y23520372D01*
X11964343Y23576245D01*
X11994148Y23599115D01*
X12073621Y23660097D01*
X12073624Y23660100D01*
X12080174Y23665126D01*
X12095284Y23684817D01*
X12151360Y23757897D01*
X12169055Y23780958D01*
X12184493Y23818227D01*
X12217166Y23897107D01*
X12224928Y23915846D01*
X12232554Y23973768D01*
X12242907Y24052412D01*
X12243985Y24060600D01*
X12235718Y24123393D01*
X12231110Y24158400D01*
X20898215Y24158400D01*
X20899293Y24150212D01*
X20911583Y24056862D01*
X20917272Y24013646D01*
X20920431Y24006020D01*
X20969883Y23886634D01*
X20973145Y23878758D01*
X20978172Y23872207D01*
X21048190Y23780958D01*
X21062026Y23762926D01*
X21068576Y23757900D01*
X21068579Y23757897D01*
X21171304Y23679073D01*
X21177857Y23674045D01*
X21312746Y23618172D01*
X21457500Y23599115D01*
X21465688Y23600193D01*
X21594066Y23617094D01*
X21602254Y23618172D01*
X21737143Y23674045D01*
X21743696Y23679073D01*
X21846421Y23757897D01*
X21846424Y23757900D01*
X21852974Y23762926D01*
X21866811Y23780958D01*
X21936828Y23872207D01*
X21941855Y23878758D01*
X21945118Y23886634D01*
X21994569Y24006020D01*
X21997728Y24013646D01*
X22003418Y24056862D01*
X22015707Y24150212D01*
X22016785Y24158400D01*
X22011314Y24199960D01*
X21998806Y24294968D01*
X21998805Y24294970D01*
X21997728Y24303154D01*
X21968271Y24374269D01*
X21945015Y24430414D01*
X21945014Y24430416D01*
X21941855Y24438042D01*
X21852974Y24553874D01*
X21846424Y24558900D01*
X21846421Y24558903D01*
X21743696Y24637727D01*
X21743694Y24637728D01*
X21737143Y24642755D01*
X21602254Y24698628D01*
X21457500Y24717685D01*
X21449312Y24716607D01*
X21320932Y24699706D01*
X21320930Y24699705D01*
X21312746Y24698628D01*
X21264930Y24678822D01*
X21185486Y24645915D01*
X21185484Y24645914D01*
X21177858Y24642755D01*
X21062026Y24553874D01*
X20973145Y24438042D01*
X20969986Y24430416D01*
X20969985Y24430414D01*
X20946729Y24374269D01*
X20917272Y24303154D01*
X20916195Y24294970D01*
X20916194Y24294968D01*
X20903686Y24199960D01*
X20898215Y24158400D01*
X12231110Y24158400D01*
X12226006Y24197168D01*
X12226005Y24197170D01*
X12224928Y24205354D01*
X12178878Y24316528D01*
X12172215Y24332614D01*
X12172214Y24332616D01*
X12169055Y24340242D01*
X12099864Y24430414D01*
X12085201Y24449523D01*
X12085200Y24449524D01*
X12080174Y24456074D01*
X12073624Y24461100D01*
X12073621Y24461103D01*
X11970896Y24539927D01*
X11970894Y24539928D01*
X11964343Y24544955D01*
X11829454Y24600828D01*
X11684700Y24619885D01*
X11676512Y24618807D01*
X11548132Y24601906D01*
X11548130Y24601905D01*
X11539946Y24600828D01*
X11492130Y24581022D01*
X11412686Y24548115D01*
X11412684Y24548114D01*
X11405058Y24544955D01*
X11289226Y24456074D01*
X11200345Y24340242D01*
X11197186Y24332616D01*
X11197185Y24332614D01*
X11190522Y24316528D01*
X11144472Y24205354D01*
X11143395Y24197170D01*
X11143394Y24197168D01*
X11133682Y24123393D01*
X11125415Y24060600D01*
X7383351Y24060600D01*
X7363215Y24109214D01*
X7363214Y24109216D01*
X7360055Y24116842D01*
X7293281Y24203864D01*
X7276201Y24226123D01*
X7276200Y24226124D01*
X7271174Y24232674D01*
X7264624Y24237700D01*
X7264621Y24237703D01*
X7161896Y24316527D01*
X7161894Y24316528D01*
X7155343Y24321555D01*
X7020454Y24377428D01*
X6875700Y24396485D01*
X6867512Y24395407D01*
X6739132Y24378506D01*
X6739130Y24378505D01*
X6730946Y24377428D01*
X6710375Y24368907D01*
X6603686Y24324715D01*
X6603684Y24324714D01*
X6596058Y24321555D01*
X6480226Y24232674D01*
X6391345Y24116842D01*
X6388186Y24109216D01*
X6388185Y24109214D01*
X6367642Y24059618D01*
X6335472Y23981954D01*
X6334395Y23973770D01*
X6334394Y23973768D01*
X6327644Y23922495D01*
X6316415Y23837200D01*
X6317493Y23829012D01*
X6330991Y23726486D01*
X6335472Y23692446D01*
X6338631Y23684820D01*
X6338632Y23684817D01*
X6347396Y23663658D01*
X6354985Y23593068D01*
X6323206Y23529581D01*
X6307691Y23515478D01*
X6269276Y23486001D01*
X6269272Y23485997D01*
X6262726Y23480974D01*
X6173845Y23365142D01*
X6170686Y23357516D01*
X6170685Y23357514D01*
X6156376Y23322969D01*
X6117972Y23230254D01*
X6098915Y23085500D01*
X6099993Y23077312D01*
X6116757Y22949977D01*
X6117972Y22940746D01*
X6173845Y22805858D01*
X6178871Y22799307D01*
X6178874Y22799303D01*
X6220983Y22744425D01*
X6246583Y22678205D01*
X6232318Y22608656D01*
X6220983Y22591019D01*
X6171474Y22526497D01*
X6171471Y22526493D01*
X6166445Y22519942D01*
X6163286Y22512316D01*
X6163285Y22512314D01*
X6130638Y22433498D01*
X6110572Y22385054D01*
X6109495Y22376870D01*
X6109494Y22376868D01*
X6095810Y22272927D01*
X6091515Y22240300D01*
X254500Y22240300D01*
X254500Y26489700D01*
X6305615Y26489700D01*
X6306693Y26481512D01*
X6323310Y26355294D01*
X6324672Y26344946D01*
X6380545Y26210058D01*
X6469426Y26094226D01*
X6475976Y26089200D01*
X6475979Y26089197D01*
X6578704Y26010373D01*
X6585257Y26005345D01*
X6720146Y25949472D01*
X6864900Y25930415D01*
X6873088Y25931493D01*
X7001466Y25948394D01*
X7009654Y25949472D01*
X7144543Y26005345D01*
X7151096Y26010373D01*
X7253821Y26089197D01*
X7253824Y26089200D01*
X7260374Y26094226D01*
X7349255Y26210058D01*
X7405128Y26344946D01*
X7406491Y26355294D01*
X7423107Y26481512D01*
X7424185Y26489700D01*
X7412524Y26578273D01*
X7406206Y26626268D01*
X7406205Y26626270D01*
X7405128Y26634454D01*
X7373348Y26711177D01*
X7352415Y26761714D01*
X7352414Y26761716D01*
X7349255Y26769342D01*
X7274611Y26866620D01*
X7265401Y26878623D01*
X7265400Y26878624D01*
X7260374Y26885174D01*
X7253824Y26890200D01*
X7253821Y26890203D01*
X7151096Y26969027D01*
X7151094Y26969028D01*
X7144543Y26974055D01*
X7009654Y27029928D01*
X6985044Y27033168D01*
X6873088Y27047907D01*
X6864900Y27048985D01*
X6856712Y27047907D01*
X6728332Y27031006D01*
X6728330Y27031005D01*
X6720146Y27029928D01*
X6693764Y27019000D01*
X6592886Y26977215D01*
X6592884Y26977214D01*
X6585258Y26974055D01*
X6469426Y26885174D01*
X6380545Y26769342D01*
X6377386Y26761716D01*
X6377385Y26761714D01*
X6356452Y26711177D01*
X6324672Y26634454D01*
X6323595Y26626270D01*
X6323594Y26626268D01*
X6317276Y26578273D01*
X6305615Y26489700D01*
X254500Y26489700D01*
X254500Y27057600D01*
X9107615Y27057600D01*
X9108693Y27049412D01*
X9119276Y26969028D01*
X9126672Y26912846D01*
X9136051Y26890203D01*
X9164667Y26821120D01*
X9182545Y26777958D01*
X9271426Y26662126D01*
X9277976Y26657100D01*
X9277979Y26657097D01*
X9372489Y26584577D01*
X9387257Y26573245D01*
X9522146Y26517372D01*
X9666900Y26498315D01*
X9675088Y26499393D01*
X9702373Y26502985D01*
X9811654Y26517372D01*
X9946543Y26573245D01*
X9961311Y26584577D01*
X10055821Y26657097D01*
X10055824Y26657100D01*
X10062374Y26662126D01*
X10151255Y26777958D01*
X10169134Y26821120D01*
X10197749Y26890203D01*
X10207128Y26912846D01*
X10214525Y26969028D01*
X10215114Y26973500D01*
X15455715Y26973500D01*
X15456793Y26965312D01*
X15468256Y26878244D01*
X15474772Y26828746D01*
X15477931Y26821120D01*
X15526185Y26704626D01*
X15530645Y26693858D01*
X15535672Y26687307D01*
X15588472Y26618497D01*
X15619526Y26578026D01*
X15626076Y26573000D01*
X15626079Y26572997D01*
X15723963Y26497888D01*
X15735357Y26489145D01*
X15870246Y26433272D01*
X15878434Y26432194D01*
X15906311Y26428524D01*
X16015000Y26414215D01*
X16023188Y26415293D01*
X16151566Y26432194D01*
X16159754Y26433272D01*
X16294643Y26489145D01*
X16306037Y26497888D01*
X16403921Y26572997D01*
X16403924Y26573000D01*
X16410474Y26578026D01*
X16441529Y26618497D01*
X16494328Y26687307D01*
X16499355Y26693858D01*
X16503816Y26704626D01*
X16552069Y26821120D01*
X16555228Y26828746D01*
X16561745Y26878244D01*
X16573207Y26965312D01*
X16574285Y26973500D01*
X16555228Y27118254D01*
X16518267Y27207485D01*
X16502515Y27245514D01*
X16502514Y27245516D01*
X16499355Y27253142D01*
X16440676Y27329614D01*
X16415501Y27362423D01*
X16415500Y27362424D01*
X16410474Y27368974D01*
X16403924Y27374000D01*
X16403921Y27374003D01*
X16301196Y27452827D01*
X16301194Y27452828D01*
X16294643Y27457855D01*
X16159754Y27513728D01*
X16015000Y27532785D01*
X15991255Y27529659D01*
X15878432Y27514806D01*
X15878430Y27514805D01*
X15870246Y27513728D01*
X15833065Y27498327D01*
X15742986Y27461015D01*
X15742984Y27461014D01*
X15735358Y27457855D01*
X15619526Y27368974D01*
X15530645Y27253142D01*
X15527486Y27245516D01*
X15527485Y27245514D01*
X15511733Y27207485D01*
X15474772Y27118254D01*
X15455715Y26973500D01*
X10215114Y26973500D01*
X10225107Y27049412D01*
X10226185Y27057600D01*
X10217196Y27125880D01*
X10208206Y27194168D01*
X10208205Y27194170D01*
X10207128Y27202354D01*
X10179049Y27270142D01*
X10154415Y27329614D01*
X10154414Y27329616D01*
X10151255Y27337242D01*
X10091993Y27414474D01*
X10067401Y27446523D01*
X10067400Y27446524D01*
X10062374Y27453074D01*
X10055824Y27458100D01*
X10055821Y27458103D01*
X9953096Y27536927D01*
X9953094Y27536928D01*
X9946543Y27541955D01*
X9811654Y27597828D01*
X9666900Y27616885D01*
X9658712Y27615807D01*
X9530332Y27598906D01*
X9530330Y27598905D01*
X9522146Y27597828D01*
X9474330Y27578022D01*
X9394886Y27545115D01*
X9394884Y27545114D01*
X9387258Y27541955D01*
X9271426Y27453074D01*
X9182545Y27337242D01*
X9179386Y27329616D01*
X9179385Y27329614D01*
X9154751Y27270142D01*
X9126672Y27202354D01*
X9125595Y27194170D01*
X9125594Y27194168D01*
X9116604Y27125880D01*
X9107615Y27057600D01*
X254500Y27057600D01*
X254500Y27695000D01*
X11017415Y27695000D01*
X11018493Y27686812D01*
X11035290Y27559228D01*
X11036472Y27550246D01*
X11039631Y27542620D01*
X11084761Y27433668D01*
X11092345Y27415358D01*
X11112812Y27388685D01*
X11152286Y27337242D01*
X11181226Y27299526D01*
X11187776Y27294500D01*
X11187779Y27294497D01*
X11251615Y27245514D01*
X11297057Y27210645D01*
X11431946Y27154772D01*
X11576700Y27135715D01*
X11584888Y27136793D01*
X11713266Y27153694D01*
X11721454Y27154772D01*
X11856343Y27210645D01*
X11901785Y27245514D01*
X11965621Y27294497D01*
X11965624Y27294500D01*
X11972174Y27299526D01*
X12001115Y27337242D01*
X12040588Y27388685D01*
X12061055Y27415358D01*
X12068640Y27433668D01*
X12113769Y27542620D01*
X12116928Y27550246D01*
X12118111Y27559228D01*
X12134907Y27686812D01*
X12135985Y27695000D01*
X12116928Y27839754D01*
X12101831Y27876200D01*
X37768915Y27876200D01*
X37787972Y27731446D01*
X37791131Y27723820D01*
X37835872Y27615807D01*
X37843845Y27596558D01*
X37858694Y27577207D01*
X37926356Y27489028D01*
X37932726Y27480726D01*
X37939276Y27475700D01*
X37939279Y27475697D01*
X38029380Y27406560D01*
X38048557Y27391845D01*
X38183446Y27335972D01*
X38328200Y27316915D01*
X38336388Y27317993D01*
X38464766Y27334894D01*
X38472954Y27335972D01*
X38607843Y27391845D01*
X38627020Y27406560D01*
X38717121Y27475697D01*
X38717124Y27475700D01*
X38723674Y27480726D01*
X38730045Y27489028D01*
X38797706Y27577207D01*
X38812555Y27596558D01*
X38820529Y27615807D01*
X38865269Y27723820D01*
X38868428Y27731446D01*
X38887485Y27876200D01*
X38868428Y28020954D01*
X38837551Y28095497D01*
X38815715Y28148214D01*
X38815714Y28148216D01*
X38812555Y28155842D01*
X38723674Y28271674D01*
X38717124Y28276700D01*
X38717121Y28276703D01*
X38614396Y28355527D01*
X38614394Y28355528D01*
X38607843Y28360555D01*
X38472954Y28416428D01*
X38328200Y28435485D01*
X38320012Y28434407D01*
X38191632Y28417506D01*
X38191630Y28417505D01*
X38183446Y28416428D01*
X38135630Y28396622D01*
X38056186Y28363715D01*
X38056184Y28363714D01*
X38048558Y28360555D01*
X37932726Y28271674D01*
X37843845Y28155842D01*
X37840686Y28148216D01*
X37840685Y28148214D01*
X37818849Y28095497D01*
X37787972Y28020954D01*
X37768915Y27876200D01*
X12101831Y27876200D01*
X12061055Y27974642D01*
X11972174Y28090474D01*
X11965624Y28095500D01*
X11965621Y28095503D01*
X11862896Y28174327D01*
X11862894Y28174328D01*
X11856343Y28179355D01*
X11721454Y28235228D01*
X11576700Y28254285D01*
X11568512Y28253207D01*
X11440132Y28236306D01*
X11440130Y28236305D01*
X11431946Y28235228D01*
X11384130Y28215422D01*
X11304686Y28182515D01*
X11304684Y28182514D01*
X11297058Y28179355D01*
X11181226Y28090474D01*
X11092345Y27974642D01*
X11036472Y27839754D01*
X11017415Y27695000D01*
X254500Y27695000D01*
X254500Y31185500D01*
X1183804Y31185500D01*
X1202554Y30971184D01*
X1258235Y30763380D01*
X1260557Y30758399D01*
X1260558Y30758398D01*
X1346829Y30573389D01*
X1346832Y30573384D01*
X1349155Y30568402D01*
X1352311Y30563895D01*
X1352312Y30563893D01*
X1447811Y30427507D01*
X1472551Y30392174D01*
X1624674Y30240051D01*
X1629182Y30236894D01*
X1629185Y30236892D01*
X1796393Y30119812D01*
X1800902Y30116655D01*
X1805884Y30114332D01*
X1805889Y30114329D01*
X1990898Y30028058D01*
X1995880Y30025735D01*
X2001188Y30024313D01*
X2001190Y30024312D01*
X2065932Y30006965D01*
X2203684Y29970054D01*
X2418000Y29951304D01*
X2632316Y29970054D01*
X2770068Y30006965D01*
X2834810Y30024312D01*
X2834812Y30024313D01*
X2840120Y30025735D01*
X2845102Y30028058D01*
X3030111Y30114329D01*
X3030116Y30114332D01*
X3035098Y30116655D01*
X3039607Y30119812D01*
X3206815Y30236892D01*
X3206818Y30236894D01*
X3211326Y30240051D01*
X3363449Y30392174D01*
X3388190Y30427507D01*
X3483688Y30563893D01*
X3483689Y30563895D01*
X3486845Y30568402D01*
X3489168Y30573384D01*
X3489171Y30573389D01*
X3494818Y30585500D01*
X6083804Y30585500D01*
X6102554Y30371184D01*
X6158235Y30163380D01*
X6160557Y30158399D01*
X6160558Y30158398D01*
X6246829Y29973389D01*
X6246832Y29973384D01*
X6249155Y29968402D01*
X6252311Y29963895D01*
X6252312Y29963893D01*
X6368388Y29798120D01*
X6372551Y29792174D01*
X6524674Y29640051D01*
X6529182Y29636894D01*
X6529185Y29636892D01*
X6696393Y29519812D01*
X6700902Y29516655D01*
X6705884Y29514332D01*
X6705889Y29514329D01*
X6815997Y29462985D01*
X6895880Y29425735D01*
X6901188Y29424313D01*
X6901190Y29424312D01*
X6957612Y29409194D01*
X7103684Y29370054D01*
X7318000Y29351304D01*
X7532316Y29370054D01*
X7678388Y29409194D01*
X7734810Y29424312D01*
X7734812Y29424313D01*
X7740120Y29425735D01*
X7820003Y29462985D01*
X7930111Y29514329D01*
X7930116Y29514332D01*
X7935098Y29516655D01*
X7939607Y29519812D01*
X8106815Y29636892D01*
X8106818Y29636894D01*
X8111326Y29640051D01*
X8263449Y29792174D01*
X8267613Y29798120D01*
X8374310Y29950500D01*
X36920315Y29950500D01*
X36939372Y29805746D01*
X36995245Y29670858D01*
X37084126Y29555026D01*
X37090676Y29550000D01*
X37090679Y29549997D01*
X37193404Y29471173D01*
X37199957Y29466145D01*
X37334846Y29410272D01*
X37479600Y29391215D01*
X37487788Y29392293D01*
X37616166Y29409194D01*
X37624354Y29410272D01*
X37759243Y29466145D01*
X37765796Y29471173D01*
X37868521Y29549997D01*
X37868524Y29550000D01*
X37875074Y29555026D01*
X37963955Y29670858D01*
X38019828Y29805746D01*
X38038885Y29950500D01*
X38028980Y30025735D01*
X38020906Y30087068D01*
X38020905Y30087070D01*
X38019828Y30095254D01*
X37963955Y30230142D01*
X37881592Y30337480D01*
X37880101Y30339423D01*
X37880100Y30339424D01*
X37875074Y30345974D01*
X37868524Y30351000D01*
X37868521Y30351003D01*
X37765796Y30429827D01*
X37765794Y30429828D01*
X37759243Y30434855D01*
X37624354Y30490728D01*
X37479600Y30509785D01*
X37471412Y30508707D01*
X37343032Y30491806D01*
X37343030Y30491805D01*
X37334846Y30490728D01*
X37287030Y30470922D01*
X37207586Y30438015D01*
X37207584Y30438014D01*
X37199958Y30434855D01*
X37084126Y30345974D01*
X37079103Y30339428D01*
X37077608Y30337480D01*
X36995245Y30230142D01*
X36939372Y30095254D01*
X36938295Y30087070D01*
X36938294Y30087068D01*
X36930220Y30025735D01*
X36920315Y29950500D01*
X8374310Y29950500D01*
X8383688Y29963893D01*
X8383689Y29963895D01*
X8386845Y29968402D01*
X8389168Y29973384D01*
X8389171Y29973389D01*
X8475442Y30158398D01*
X8475443Y30158399D01*
X8477765Y30163380D01*
X8533446Y30371184D01*
X8552196Y30585500D01*
X8533446Y30799816D01*
X8477765Y31007620D01*
X8475442Y31012602D01*
X8389171Y31197611D01*
X8389168Y31197616D01*
X8386845Y31202598D01*
X8383688Y31207107D01*
X8314793Y31305500D01*
X8711715Y31305500D01*
X8712793Y31297312D01*
X8725919Y31197611D01*
X8730772Y31160746D01*
X8741469Y31134921D01*
X8780485Y31040730D01*
X8786645Y31025858D01*
X8791672Y31019307D01*
X8863240Y30926038D01*
X8875526Y30910026D01*
X8882076Y30905000D01*
X8882079Y30904997D01*
X8984804Y30826173D01*
X8991357Y30821145D01*
X9126246Y30765272D01*
X9271000Y30746215D01*
X9279188Y30747293D01*
X9407566Y30764194D01*
X9415754Y30765272D01*
X9550643Y30821145D01*
X9557196Y30826173D01*
X9659921Y30904997D01*
X9659924Y30905000D01*
X9666474Y30910026D01*
X9678761Y30926038D01*
X9750328Y31019307D01*
X9755355Y31025858D01*
X9761516Y31040730D01*
X9800531Y31134921D01*
X9811228Y31160746D01*
X9816082Y31197611D01*
X9829207Y31297312D01*
X9830285Y31305500D01*
X9821625Y31371278D01*
X9812306Y31442068D01*
X9812305Y31442070D01*
X9811228Y31450254D01*
X9755355Y31585142D01*
X9681389Y31681536D01*
X12742112Y31681536D01*
X12742312Y31676208D01*
X12742312Y31676206D01*
X12744464Y31618901D01*
X12743705Y31618872D01*
X12744034Y31617484D01*
X12744340Y31617511D01*
X12744374Y31617123D01*
X12744465Y31615662D01*
X12744523Y31615415D01*
X12744648Y31613993D01*
X12750736Y31451831D01*
X12751831Y31446612D01*
X12764628Y31385621D01*
X12763861Y31385460D01*
X12764841Y31383184D01*
X12764937Y31382092D01*
X12766361Y31376778D01*
X12766464Y31376193D01*
X12767635Y31371290D01*
X12797939Y31226863D01*
X12809491Y31197611D01*
X12823975Y31160934D01*
X12824724Y31158959D01*
X12826097Y31153837D01*
X12828422Y31148851D01*
X12828423Y31148849D01*
X12828947Y31147725D01*
X12831934Y31140783D01*
X12882372Y31013064D01*
X12919273Y30952254D01*
X12920811Y30949374D01*
X12920890Y30949420D01*
X12923639Y30944659D01*
X12925965Y30939671D01*
X12929122Y30935163D01*
X12929124Y30935159D01*
X12930674Y30932945D01*
X12935181Y30926038D01*
X12950279Y30901158D01*
X13001621Y30816548D01*
X13005116Y30812521D01*
X13005117Y30812519D01*
X13051993Y30758500D01*
X13055555Y30753937D01*
X13058347Y30750610D01*
X13061505Y30746099D01*
X13067791Y30739813D01*
X13073861Y30733299D01*
X13152276Y30642934D01*
X13156407Y30639547D01*
X13216309Y30590430D01*
X13223574Y30583848D01*
X13224706Y30582898D01*
X13228599Y30579005D01*
X13233103Y30575851D01*
X13233108Y30575847D01*
X13235936Y30573867D01*
X13243554Y30568090D01*
X13325901Y30500569D01*
X13325907Y30500565D01*
X13330029Y30497185D01*
X13346922Y30487569D01*
X13407355Y30453169D01*
X13417296Y30446878D01*
X13417660Y30446623D01*
X13417667Y30446619D01*
X13422171Y30443465D01*
X13427155Y30441141D01*
X13427160Y30441138D01*
X13429875Y30439872D01*
X13438952Y30435182D01*
X13483061Y30410074D01*
X13529798Y30383470D01*
X13578282Y30365871D01*
X13619498Y30350910D01*
X13629753Y30346667D01*
X13631348Y30345923D01*
X13631350Y30345922D01*
X13636337Y30343597D01*
X13641653Y30342173D01*
X13641655Y30342172D01*
X13642719Y30341887D01*
X13643702Y30341624D01*
X13654081Y30338357D01*
X13745871Y30305039D01*
X13846443Y30286852D01*
X13856616Y30284574D01*
X13864592Y30282437D01*
X13870990Y30281877D01*
X13882412Y30280348D01*
X13972069Y30264136D01*
X13976208Y30263941D01*
X13976215Y30263940D01*
X13994670Y30263070D01*
X13994677Y30263070D01*
X13996158Y30263000D01*
X14157712Y30263000D01*
X14237444Y30269765D01*
X14323733Y30277087D01*
X14323737Y30277088D01*
X14329044Y30277538D01*
X14334199Y30278876D01*
X14334205Y30278877D01*
X14546368Y30333944D01*
X14546367Y30333944D01*
X14551539Y30335286D01*
X14698412Y30401448D01*
X14756262Y30427507D01*
X14756265Y30427508D01*
X14761123Y30429697D01*
X14768785Y30434855D01*
X14847082Y30487568D01*
X14951803Y30558070D01*
X14967862Y30573389D01*
X15114271Y30713057D01*
X15118128Y30716736D01*
X15255342Y30901158D01*
X15263182Y30916577D01*
X15357102Y31101306D01*
X15357102Y31101307D01*
X15359520Y31106062D01*
X15427685Y31325589D01*
X15438819Y31409590D01*
X15457188Y31548181D01*
X15457188Y31548184D01*
X15457888Y31553464D01*
X15456699Y31585142D01*
X15455536Y31616099D01*
X15456295Y31616128D01*
X15455966Y31617516D01*
X15455660Y31617489D01*
X15455626Y31617877D01*
X15455535Y31619338D01*
X15455477Y31619585D01*
X15455352Y31621007D01*
X15449264Y31783169D01*
X15435372Y31849379D01*
X15436139Y31849540D01*
X15435159Y31851816D01*
X15435063Y31852908D01*
X15433639Y31858222D01*
X15433536Y31858807D01*
X15432362Y31863722D01*
X15426116Y31893493D01*
X15402061Y32008137D01*
X15376025Y32074066D01*
X15375276Y32076041D01*
X15373903Y32081163D01*
X15371053Y32087275D01*
X15368066Y32094217D01*
X15317628Y32221936D01*
X15315465Y32225500D01*
X21590670Y32225500D01*
X21609954Y32005083D01*
X21611378Y31999770D01*
X21611378Y31999768D01*
X21664653Y31800946D01*
X21667220Y31791364D01*
X21669543Y31786383D01*
X21669543Y31786382D01*
X21758402Y31595822D01*
X21758405Y31595817D01*
X21760728Y31590835D01*
X21763884Y31586328D01*
X21763885Y31586326D01*
X21883119Y31416043D01*
X21887637Y31409590D01*
X22044090Y31253137D01*
X22048598Y31249980D01*
X22048601Y31249978D01*
X22204598Y31140748D01*
X22225335Y31126228D01*
X22230317Y31123905D01*
X22230322Y31123902D01*
X22408686Y31040730D01*
X22425864Y31032720D01*
X22431172Y31031298D01*
X22431174Y31031297D01*
X22634268Y30976878D01*
X22634270Y30976878D01*
X22639583Y30975454D01*
X22860000Y30956170D01*
X23080417Y30975454D01*
X23085730Y30976878D01*
X23085732Y30976878D01*
X23288826Y31031297D01*
X23288828Y31031298D01*
X23294136Y31032720D01*
X23311314Y31040730D01*
X23489678Y31123902D01*
X23489683Y31123905D01*
X23494665Y31126228D01*
X23515402Y31140748D01*
X23671399Y31249978D01*
X23671402Y31249980D01*
X23675910Y31253137D01*
X23832363Y31409590D01*
X23836882Y31416043D01*
X23956115Y31586326D01*
X23956116Y31586328D01*
X23959272Y31590835D01*
X23961595Y31595817D01*
X23961598Y31595822D01*
X24050457Y31786382D01*
X24050457Y31786383D01*
X24052780Y31791364D01*
X24055348Y31800946D01*
X24108622Y31999768D01*
X24108622Y31999770D01*
X24110046Y32005083D01*
X24129330Y32225500D01*
X29728708Y32225500D01*
X29747839Y32006826D01*
X29804653Y31794797D01*
X29827750Y31745265D01*
X29895095Y31600841D01*
X29895098Y31600836D01*
X29897421Y31595854D01*
X29900577Y31591347D01*
X29900578Y31591345D01*
X29945597Y31527052D01*
X30023326Y31416043D01*
X30178543Y31260826D01*
X30183051Y31257669D01*
X30183054Y31257667D01*
X30350032Y31140748D01*
X30358354Y31134921D01*
X30363336Y31132598D01*
X30363341Y31132595D01*
X30430442Y31101306D01*
X30557297Y31042153D01*
X30769326Y30985339D01*
X30988000Y30966208D01*
X31206674Y30985339D01*
X31418703Y31042153D01*
X31545558Y31101306D01*
X31612659Y31132595D01*
X31612664Y31132598D01*
X31617646Y31134921D01*
X31625968Y31140748D01*
X31792946Y31257667D01*
X31792949Y31257669D01*
X31797457Y31260826D01*
X31952674Y31416043D01*
X32030404Y31527052D01*
X32075422Y31591345D01*
X32075423Y31591347D01*
X32078579Y31595854D01*
X32080902Y31600836D01*
X32080905Y31600841D01*
X32118533Y31681536D01*
X43842112Y31681536D01*
X43842312Y31676208D01*
X43842312Y31676206D01*
X43844464Y31618901D01*
X43843705Y31618872D01*
X43844034Y31617484D01*
X43844340Y31617511D01*
X43844374Y31617123D01*
X43844465Y31615662D01*
X43844523Y31615415D01*
X43844648Y31613993D01*
X43850736Y31451831D01*
X43851831Y31446612D01*
X43864628Y31385621D01*
X43863861Y31385460D01*
X43864841Y31383184D01*
X43864937Y31382092D01*
X43866361Y31376778D01*
X43866464Y31376193D01*
X43867635Y31371290D01*
X43897939Y31226863D01*
X43909491Y31197611D01*
X43923975Y31160934D01*
X43924724Y31158959D01*
X43926097Y31153837D01*
X43928422Y31148851D01*
X43928423Y31148849D01*
X43928947Y31147725D01*
X43931934Y31140783D01*
X43982372Y31013064D01*
X44019273Y30952254D01*
X44020811Y30949374D01*
X44020890Y30949420D01*
X44023639Y30944659D01*
X44025965Y30939671D01*
X44029122Y30935163D01*
X44029124Y30935159D01*
X44030674Y30932945D01*
X44035181Y30926038D01*
X44050279Y30901158D01*
X44101621Y30816548D01*
X44105116Y30812521D01*
X44105117Y30812519D01*
X44151993Y30758500D01*
X44155555Y30753937D01*
X44158347Y30750610D01*
X44161505Y30746099D01*
X44167791Y30739813D01*
X44173861Y30733299D01*
X44252276Y30642934D01*
X44256407Y30639547D01*
X44316309Y30590430D01*
X44323574Y30583848D01*
X44324706Y30582898D01*
X44328599Y30579005D01*
X44333103Y30575851D01*
X44333108Y30575847D01*
X44335936Y30573867D01*
X44343554Y30568090D01*
X44425901Y30500569D01*
X44425907Y30500565D01*
X44430029Y30497185D01*
X44446922Y30487569D01*
X44507355Y30453169D01*
X44517296Y30446878D01*
X44517660Y30446623D01*
X44517667Y30446619D01*
X44522171Y30443465D01*
X44527155Y30441141D01*
X44527160Y30441138D01*
X44529875Y30439872D01*
X44538952Y30435182D01*
X44583061Y30410074D01*
X44629798Y30383470D01*
X44678282Y30365871D01*
X44719498Y30350910D01*
X44729753Y30346667D01*
X44731348Y30345923D01*
X44731350Y30345922D01*
X44736337Y30343597D01*
X44741653Y30342173D01*
X44741655Y30342172D01*
X44742719Y30341887D01*
X44743702Y30341624D01*
X44754081Y30338357D01*
X44845871Y30305039D01*
X44946443Y30286852D01*
X44956616Y30284574D01*
X44964592Y30282437D01*
X44970990Y30281877D01*
X44982412Y30280348D01*
X45072069Y30264136D01*
X45076208Y30263941D01*
X45076215Y30263940D01*
X45094670Y30263070D01*
X45094677Y30263070D01*
X45096158Y30263000D01*
X45257712Y30263000D01*
X45337444Y30269765D01*
X45423733Y30277087D01*
X45423737Y30277088D01*
X45429044Y30277538D01*
X45434199Y30278876D01*
X45434205Y30278877D01*
X45646368Y30333944D01*
X45646367Y30333944D01*
X45651539Y30335286D01*
X45798412Y30401448D01*
X45856262Y30427507D01*
X45856265Y30427508D01*
X45861123Y30429697D01*
X45868785Y30434855D01*
X45947082Y30487568D01*
X46051803Y30558070D01*
X46067862Y30573389D01*
X46214271Y30713057D01*
X46218128Y30716736D01*
X46355342Y30901158D01*
X46363182Y30916577D01*
X46457102Y31101306D01*
X46457102Y31101307D01*
X46459520Y31106062D01*
X46527685Y31325589D01*
X46538819Y31409590D01*
X46557188Y31548181D01*
X46557188Y31548184D01*
X46557888Y31553464D01*
X46556699Y31585142D01*
X46555536Y31616099D01*
X46556295Y31616128D01*
X46555966Y31617516D01*
X46555660Y31617489D01*
X46555626Y31617877D01*
X46555535Y31619338D01*
X46555477Y31619585D01*
X46555352Y31621007D01*
X46549264Y31783169D01*
X46535372Y31849379D01*
X46536139Y31849540D01*
X46535159Y31851816D01*
X46535063Y31852908D01*
X46533639Y31858222D01*
X46533536Y31858807D01*
X46532362Y31863722D01*
X46526116Y31893493D01*
X46502061Y32008137D01*
X46476025Y32074066D01*
X46475276Y32076041D01*
X46473903Y32081163D01*
X46471053Y32087275D01*
X46468066Y32094217D01*
X46417628Y32221936D01*
X46380727Y32282746D01*
X46379189Y32285626D01*
X46379110Y32285580D01*
X46376361Y32290341D01*
X46374035Y32295329D01*
X46370876Y32299841D01*
X46369326Y32302055D01*
X46364819Y32308962D01*
X46301147Y32413891D01*
X46301145Y32413894D01*
X46298379Y32418452D01*
X46274546Y32445917D01*
X46248007Y32476500D01*
X46244445Y32481063D01*
X46241653Y32484390D01*
X46238495Y32488901D01*
X46232209Y32495187D01*
X46226139Y32501701D01*
X46151224Y32588033D01*
X46151222Y32588035D01*
X46147724Y32592066D01*
X46083692Y32644570D01*
X46076426Y32651152D01*
X46075294Y32652102D01*
X46071401Y32655995D01*
X46066897Y32659149D01*
X46066892Y32659153D01*
X46064064Y32661133D01*
X46056446Y32666910D01*
X45974099Y32734431D01*
X45974093Y32734435D01*
X45969971Y32737815D01*
X45892645Y32781831D01*
X45882704Y32788122D01*
X45882340Y32788377D01*
X45882333Y32788381D01*
X45877829Y32791535D01*
X45872845Y32793859D01*
X45872840Y32793862D01*
X45870125Y32795128D01*
X45861048Y32799818D01*
X45777854Y32847174D01*
X45770202Y32851530D01*
X45680502Y32884090D01*
X45670247Y32888333D01*
X45668652Y32889077D01*
X45668650Y32889078D01*
X45663663Y32891403D01*
X45658347Y32892827D01*
X45658345Y32892828D01*
X45657281Y32893113D01*
X45656298Y32893376D01*
X45645919Y32896643D01*
X45554129Y32929961D01*
X45453557Y32948148D01*
X45443384Y32950426D01*
X45435408Y32952563D01*
X45429010Y32953123D01*
X45417588Y32954652D01*
X45327931Y32970864D01*
X45323792Y32971059D01*
X45323785Y32971060D01*
X45305330Y32971930D01*
X45305323Y32971930D01*
X45303842Y32972000D01*
X45142288Y32972000D01*
X45062556Y32965235D01*
X44976267Y32957913D01*
X44976263Y32957912D01*
X44970956Y32957462D01*
X44965801Y32956124D01*
X44965795Y32956123D01*
X44793058Y32911289D01*
X44748461Y32899714D01*
X44617284Y32840623D01*
X44543738Y32807493D01*
X44543735Y32807492D01*
X44538877Y32805303D01*
X44348197Y32676930D01*
X44344340Y32673251D01*
X44344338Y32673249D01*
X44320902Y32650892D01*
X44181872Y32518264D01*
X44044658Y32333842D01*
X44042242Y32329091D01*
X44042240Y32329087D01*
X43942898Y32133694D01*
X43940480Y32128938D01*
X43872315Y31909411D01*
X43871614Y31904122D01*
X43855803Y31784828D01*
X43842112Y31681536D01*
X32118533Y31681536D01*
X32148250Y31745265D01*
X32171347Y31794797D01*
X32228161Y32006826D01*
X32247292Y32225500D01*
X32228161Y32444174D01*
X32226144Y32451700D01*
X36016715Y32451700D01*
X36035772Y32306946D01*
X36038931Y32299320D01*
X36070985Y32221936D01*
X36091645Y32172058D01*
X36180526Y32056226D01*
X36187076Y32051200D01*
X36187079Y32051197D01*
X36287328Y31974273D01*
X36296357Y31967345D01*
X36431246Y31911472D01*
X36576000Y31892415D01*
X36584188Y31893493D01*
X36712566Y31910394D01*
X36720754Y31911472D01*
X36855643Y31967345D01*
X36864672Y31974273D01*
X36964921Y32051197D01*
X36964924Y32051200D01*
X36971474Y32056226D01*
X37060355Y32172058D01*
X37081016Y32221936D01*
X37113069Y32299320D01*
X37116228Y32306946D01*
X37135285Y32451700D01*
X37135035Y32453600D01*
X38937715Y32453600D01*
X38938793Y32445412D01*
X38952918Y32338124D01*
X38956772Y32308846D01*
X38959931Y32301220D01*
X38992772Y32221936D01*
X39012645Y32173958D01*
X39017672Y32167407D01*
X39073806Y32094252D01*
X39101526Y32058126D01*
X39108076Y32053100D01*
X39108079Y32053097D01*
X39210804Y31974273D01*
X39217357Y31969245D01*
X39352246Y31913372D01*
X39497000Y31894315D01*
X39505188Y31895393D01*
X39633566Y31912294D01*
X39641754Y31913372D01*
X39776643Y31969245D01*
X39783196Y31974273D01*
X39885921Y32053097D01*
X39885924Y32053100D01*
X39892474Y32058126D01*
X39920195Y32094252D01*
X39976328Y32167407D01*
X39981355Y32173958D01*
X40001229Y32221936D01*
X40034069Y32301220D01*
X40037228Y32308846D01*
X40041083Y32338124D01*
X40055207Y32445412D01*
X40056285Y32453600D01*
X40050394Y32498344D01*
X40038306Y32590168D01*
X40038305Y32590170D01*
X40037228Y32598354D01*
X40006205Y32673249D01*
X39984515Y32725614D01*
X39984514Y32725616D01*
X39981355Y32733242D01*
X39892474Y32849074D01*
X39885924Y32854100D01*
X39885921Y32854103D01*
X39783196Y32932927D01*
X39783194Y32932928D01*
X39776643Y32937955D01*
X39653970Y32988768D01*
X39649383Y32990668D01*
X39641754Y32993828D01*
X39497000Y33012885D01*
X39488812Y33011807D01*
X39360432Y32994906D01*
X39360430Y32994905D01*
X39352246Y32993828D01*
X39304430Y32974022D01*
X39224986Y32941115D01*
X39224984Y32941114D01*
X39217358Y32937955D01*
X39101526Y32849074D01*
X39012645Y32733242D01*
X39009486Y32725616D01*
X39009485Y32725614D01*
X38987795Y32673249D01*
X38956772Y32598354D01*
X38955695Y32590170D01*
X38955694Y32590168D01*
X38943606Y32498344D01*
X38937715Y32453600D01*
X37135035Y32453600D01*
X37126522Y32518264D01*
X37117306Y32588268D01*
X37117305Y32588270D01*
X37116228Y32596454D01*
X37084418Y32673249D01*
X37063515Y32723714D01*
X37063514Y32723716D01*
X37060355Y32731342D01*
X36971474Y32847174D01*
X36964924Y32852200D01*
X36964921Y32852203D01*
X36862196Y32931027D01*
X36862194Y32931028D01*
X36855643Y32936055D01*
X36720754Y32991928D01*
X36576000Y33010985D01*
X36567812Y33009907D01*
X36439432Y32993006D01*
X36439430Y32993005D01*
X36431246Y32991928D01*
X36383430Y32972122D01*
X36303986Y32939215D01*
X36303984Y32939214D01*
X36296358Y32936055D01*
X36231103Y32885983D01*
X36196792Y32859655D01*
X36180526Y32847174D01*
X36091645Y32731342D01*
X36088486Y32723716D01*
X36088485Y32723714D01*
X36067582Y32673249D01*
X36035772Y32596454D01*
X36034695Y32588270D01*
X36034694Y32588268D01*
X36025478Y32518264D01*
X36016715Y32451700D01*
X32226144Y32451700D01*
X32171347Y32656203D01*
X32106566Y32795128D01*
X32080905Y32850159D01*
X32080902Y32850164D01*
X32078579Y32855146D01*
X32075065Y32860165D01*
X31955833Y33030446D01*
X31955831Y33030449D01*
X31952674Y33034957D01*
X31797457Y33190174D01*
X31792949Y33193331D01*
X31792946Y33193333D01*
X31622155Y33312922D01*
X31622153Y33312923D01*
X31617646Y33316079D01*
X31612664Y33318402D01*
X31612659Y33318405D01*
X31511884Y33365396D01*
X31418703Y33408847D01*
X31206674Y33465661D01*
X30988000Y33484792D01*
X30769326Y33465661D01*
X30557297Y33408847D01*
X30464116Y33365396D01*
X30363341Y33318405D01*
X30363336Y33318402D01*
X30358354Y33316079D01*
X30353847Y33312923D01*
X30353845Y33312922D01*
X30183054Y33193333D01*
X30183051Y33193331D01*
X30178543Y33190174D01*
X30023326Y33034957D01*
X30020169Y33030449D01*
X30020167Y33030446D01*
X29900935Y32860165D01*
X29897421Y32855146D01*
X29895098Y32850164D01*
X29895095Y32850159D01*
X29869434Y32795128D01*
X29804653Y32656203D01*
X29747839Y32444174D01*
X29728708Y32225500D01*
X24129330Y32225500D01*
X24110046Y32445917D01*
X24108622Y32451232D01*
X24054203Y32654326D01*
X24054202Y32654328D01*
X24052780Y32659636D01*
X24016325Y32737815D01*
X23961598Y32855178D01*
X23961595Y32855183D01*
X23959272Y32860165D01*
X23911674Y32928142D01*
X23835522Y33036899D01*
X23835520Y33036902D01*
X23832363Y33041410D01*
X23675910Y33197863D01*
X23671402Y33201020D01*
X23671399Y33201022D01*
X23499174Y33321615D01*
X23499172Y33321616D01*
X23494665Y33324772D01*
X23489683Y33327095D01*
X23489678Y33327098D01*
X23299118Y33415957D01*
X23299117Y33415957D01*
X23294136Y33418280D01*
X23288828Y33419702D01*
X23288826Y33419703D01*
X23085732Y33474122D01*
X23085730Y33474122D01*
X23080417Y33475546D01*
X22860000Y33494830D01*
X22639583Y33475546D01*
X22634270Y33474122D01*
X22634268Y33474122D01*
X22431174Y33419703D01*
X22431172Y33419702D01*
X22425864Y33418280D01*
X22420883Y33415957D01*
X22420882Y33415957D01*
X22230322Y33327098D01*
X22230317Y33327095D01*
X22225335Y33324772D01*
X22220828Y33321616D01*
X22220826Y33321615D01*
X22048601Y33201022D01*
X22048598Y33201020D01*
X22044090Y33197863D01*
X21887637Y33041410D01*
X21884480Y33036902D01*
X21884478Y33036899D01*
X21808326Y32928142D01*
X21760728Y32860165D01*
X21758405Y32855183D01*
X21758402Y32855178D01*
X21703675Y32737815D01*
X21667220Y32659636D01*
X21665798Y32654328D01*
X21665797Y32654326D01*
X21611378Y32451232D01*
X21609954Y32445917D01*
X21590670Y32225500D01*
X15315465Y32225500D01*
X15280727Y32282746D01*
X15279189Y32285626D01*
X15279110Y32285580D01*
X15276361Y32290341D01*
X15274035Y32295329D01*
X15270876Y32299841D01*
X15269326Y32302055D01*
X15264819Y32308962D01*
X15201147Y32413891D01*
X15201145Y32413894D01*
X15198379Y32418452D01*
X15174546Y32445917D01*
X15148007Y32476500D01*
X15144445Y32481063D01*
X15141653Y32484390D01*
X15138495Y32488901D01*
X15132209Y32495187D01*
X15126139Y32501701D01*
X15051224Y32588033D01*
X15051222Y32588035D01*
X15047724Y32592066D01*
X14983692Y32644570D01*
X14976426Y32651152D01*
X14975294Y32652102D01*
X14971401Y32655995D01*
X14966897Y32659149D01*
X14966892Y32659153D01*
X14964064Y32661133D01*
X14956446Y32666910D01*
X14874099Y32734431D01*
X14874093Y32734435D01*
X14869971Y32737815D01*
X14792645Y32781831D01*
X14782704Y32788122D01*
X14782340Y32788377D01*
X14782333Y32788381D01*
X14777829Y32791535D01*
X14772845Y32793859D01*
X14772840Y32793862D01*
X14770125Y32795128D01*
X14761048Y32799818D01*
X14677854Y32847174D01*
X14670202Y32851530D01*
X14580502Y32884090D01*
X14570247Y32888333D01*
X14568652Y32889077D01*
X14568650Y32889078D01*
X14563663Y32891403D01*
X14558347Y32892827D01*
X14558345Y32892828D01*
X14557281Y32893113D01*
X14556298Y32893376D01*
X14545919Y32896643D01*
X14454129Y32929961D01*
X14353557Y32948148D01*
X14343384Y32950426D01*
X14335408Y32952563D01*
X14329010Y32953123D01*
X14317588Y32954652D01*
X14227931Y32970864D01*
X14223792Y32971059D01*
X14223785Y32971060D01*
X14205330Y32971930D01*
X14205323Y32971930D01*
X14203842Y32972000D01*
X14042288Y32972000D01*
X13962556Y32965235D01*
X13876267Y32957913D01*
X13876263Y32957912D01*
X13870956Y32957462D01*
X13865801Y32956124D01*
X13865795Y32956123D01*
X13693058Y32911289D01*
X13648461Y32899714D01*
X13517284Y32840623D01*
X13443738Y32807493D01*
X13443735Y32807492D01*
X13438877Y32805303D01*
X13248197Y32676930D01*
X13244340Y32673251D01*
X13244338Y32673249D01*
X13220902Y32650892D01*
X13081872Y32518264D01*
X12944658Y32333842D01*
X12942242Y32329091D01*
X12942240Y32329087D01*
X12842898Y32133694D01*
X12840480Y32128938D01*
X12772315Y31909411D01*
X12771614Y31904122D01*
X12755803Y31784828D01*
X12742112Y31681536D01*
X9681389Y31681536D01*
X9666474Y31700974D01*
X9659924Y31706000D01*
X9659921Y31706003D01*
X9557196Y31784827D01*
X9557194Y31784828D01*
X9550643Y31789855D01*
X9415754Y31845728D01*
X9357859Y31853350D01*
X9316408Y31858807D01*
X9271000Y31864785D01*
X9262812Y31863707D01*
X9134432Y31846806D01*
X9134430Y31846805D01*
X9126246Y31845728D01*
X9078430Y31825922D01*
X8998986Y31793015D01*
X8998984Y31793014D01*
X8991358Y31789855D01*
X8875526Y31700974D01*
X8786645Y31585142D01*
X8730772Y31450254D01*
X8729695Y31442070D01*
X8729694Y31442068D01*
X8720375Y31371278D01*
X8711715Y31305500D01*
X8314793Y31305500D01*
X8266608Y31374315D01*
X8266606Y31374318D01*
X8263449Y31378826D01*
X8111326Y31530949D01*
X8106818Y31534106D01*
X8106815Y31534108D01*
X7939607Y31651188D01*
X7939605Y31651189D01*
X7935098Y31654345D01*
X7930116Y31656668D01*
X7930111Y31656671D01*
X7745102Y31742942D01*
X7745101Y31742943D01*
X7740120Y31745265D01*
X7734812Y31746687D01*
X7734810Y31746688D01*
X7618556Y31777838D01*
X7532316Y31800946D01*
X7318000Y31819696D01*
X7103684Y31800946D01*
X7017444Y31777838D01*
X6901190Y31746688D01*
X6901188Y31746687D01*
X6895880Y31745265D01*
X6890899Y31742943D01*
X6890898Y31742942D01*
X6705889Y31656671D01*
X6705884Y31656668D01*
X6700902Y31654345D01*
X6696395Y31651189D01*
X6696393Y31651188D01*
X6529185Y31534108D01*
X6529182Y31534106D01*
X6524674Y31530949D01*
X6372551Y31378826D01*
X6369394Y31374318D01*
X6369392Y31374315D01*
X6252312Y31207107D01*
X6249155Y31202598D01*
X6246832Y31197616D01*
X6246829Y31197611D01*
X6160558Y31012602D01*
X6158235Y31007620D01*
X6102554Y30799816D01*
X6083804Y30585500D01*
X3494818Y30585500D01*
X3575442Y30758398D01*
X3575443Y30758399D01*
X3577765Y30763380D01*
X3633446Y30971184D01*
X3652196Y31185500D01*
X3633446Y31399816D01*
X3580918Y31595854D01*
X3579188Y31602310D01*
X3579187Y31602312D01*
X3577765Y31607620D01*
X3573153Y31617511D01*
X3489171Y31797611D01*
X3489168Y31797616D01*
X3486845Y31802598D01*
X3483688Y31807107D01*
X3366608Y31974315D01*
X3366606Y31974318D01*
X3363449Y31978826D01*
X3211326Y32130949D01*
X3206818Y32134106D01*
X3206815Y32134108D01*
X3039607Y32251188D01*
X3039605Y32251189D01*
X3035098Y32254345D01*
X3030116Y32256668D01*
X3030111Y32256671D01*
X2845102Y32342942D01*
X2845101Y32342943D01*
X2840120Y32345265D01*
X2834812Y32346687D01*
X2834810Y32346688D01*
X2770068Y32364035D01*
X2632316Y32400946D01*
X2418000Y32419696D01*
X2203684Y32400946D01*
X2065932Y32364035D01*
X2001190Y32346688D01*
X2001188Y32346687D01*
X1995880Y32345265D01*
X1990899Y32342943D01*
X1990898Y32342942D01*
X1805889Y32256671D01*
X1805884Y32256668D01*
X1800902Y32254345D01*
X1796395Y32251189D01*
X1796393Y32251188D01*
X1629185Y32134108D01*
X1629182Y32134106D01*
X1624674Y32130949D01*
X1472551Y31978826D01*
X1469394Y31974318D01*
X1469392Y31974315D01*
X1352312Y31807107D01*
X1349155Y31802598D01*
X1346832Y31797616D01*
X1346829Y31797611D01*
X1262847Y31617511D01*
X1258235Y31607620D01*
X1256813Y31602312D01*
X1256812Y31602310D01*
X1255082Y31595854D01*
X1202554Y31399816D01*
X1183804Y31185500D01*
X254500Y31185500D01*
X254500Y33674695D01*
X274502Y33742816D01*
X328158Y33789309D01*
X379596Y33800692D01*
X9983375Y33869530D01*
X10051637Y33850016D01*
X10098514Y33796695D01*
X10107245Y33739846D01*
X10109793Y33739846D01*
X10109793Y33731588D01*
X10108715Y33723400D01*
X10127772Y33578646D01*
X10130931Y33571020D01*
X10171068Y33474122D01*
X10183645Y33443758D01*
X10272526Y33327926D01*
X10279076Y33322900D01*
X10279079Y33322897D01*
X10292079Y33312922D01*
X10388357Y33239045D01*
X10523246Y33183172D01*
X10668000Y33164115D01*
X10676188Y33165193D01*
X10804566Y33182094D01*
X10812754Y33183172D01*
X10947643Y33239045D01*
X11043921Y33312922D01*
X11056921Y33322897D01*
X11056924Y33322900D01*
X11063474Y33327926D01*
X11152355Y33443758D01*
X11164933Y33474122D01*
X11205069Y33571020D01*
X11208228Y33578646D01*
X11227285Y33723400D01*
X11225511Y33736878D01*
X11236448Y33807024D01*
X11283574Y33860124D01*
X11349529Y33879322D01*
X36974493Y34062997D01*
X36975396Y34063000D01*
X47619500Y34063000D01*
X47687621Y34042998D01*
G37*
%TD.AperFunction*%
%TD*%
M02*
