%TF.GenerationSoftware,KiCad,Pcbnew,(6.0.4-0)*%
%TF.CreationDate,2023-05-29T12:52:23-05:00*%
%TF.ProjectId,voltage_sense,766f6c74-6167-4655-9f73-656e73652e6b,rev?*%
%TF.SameCoordinates,Original*%
%TF.FileFunction,Soldermask,Bot*%
%TF.FilePolarity,Negative*%
%FSLAX46Y46*%
G04 Gerber Fmt 4.6, Leading zero omitted, Abs format (unit mm)*
G04 Created by KiCad (PCBNEW (6.0.4-0)) date 2023-05-29 12:52:23*
%MOMM*%
%LPD*%
G01*
G04 APERTURE LIST*
G04 Aperture macros list*
%AMRoundRect*
0 Rectangle with rounded corners*
0 $1 Rounding radius*
0 $2 $3 $4 $5 $6 $7 $8 $9 X,Y pos of 4 corners*
0 Add a 4 corners polygon primitive as box body*
4,1,4,$2,$3,$4,$5,$6,$7,$8,$9,$2,$3,0*
0 Add four circle primitives for the rounded corners*
1,1,$1+$1,$2,$3*
1,1,$1+$1,$4,$5*
1,1,$1+$1,$6,$7*
1,1,$1+$1,$8,$9*
0 Add four rect primitives between the rounded corners*
20,1,$1+$1,$2,$3,$4,$5,0*
20,1,$1+$1,$4,$5,$6,$7,0*
20,1,$1+$1,$6,$7,$8,$9,0*
20,1,$1+$1,$8,$9,$2,$3,0*%
G04 Aperture macros list end*
%ADD10R,1.700000X1.700000*%
%ADD11O,1.700000X1.700000*%
%ADD12C,2.020000*%
%ADD13C,2.000000*%
%ADD14C,2.200000*%
%ADD15O,2.500000X1.600000*%
%ADD16O,7.000000X3.500000*%
%ADD17C,2.153200*%
%ADD18C,4.400000*%
%ADD19C,2.108200*%
%ADD20C,2.870200*%
%ADD21RoundRect,0.150000X0.512500X0.150000X-0.512500X0.150000X-0.512500X-0.150000X0.512500X-0.150000X0*%
%ADD22RoundRect,0.225000X0.225000X0.250000X-0.225000X0.250000X-0.225000X-0.250000X0.225000X-0.250000X0*%
%ADD23RoundRect,0.150000X0.825000X0.150000X-0.825000X0.150000X-0.825000X-0.150000X0.825000X-0.150000X0*%
%ADD24RoundRect,0.200000X-0.200000X-0.275000X0.200000X-0.275000X0.200000X0.275000X-0.200000X0.275000X0*%
%ADD25RoundRect,0.200000X0.275000X-0.200000X0.275000X0.200000X-0.275000X0.200000X-0.275000X-0.200000X0*%
%ADD26RoundRect,0.200000X-0.275000X0.200000X-0.275000X-0.200000X0.275000X-0.200000X0.275000X0.200000X0*%
%ADD27RoundRect,0.225000X0.250000X-0.225000X0.250000X0.225000X-0.250000X0.225000X-0.250000X-0.225000X0*%
%ADD28RoundRect,0.200000X0.200000X0.275000X-0.200000X0.275000X-0.200000X-0.275000X0.200000X-0.275000X0*%
%ADD29RoundRect,0.250000X-0.325000X-0.650000X0.325000X-0.650000X0.325000X0.650000X-0.325000X0.650000X0*%
%ADD30RoundRect,0.225000X-0.225000X-0.250000X0.225000X-0.250000X0.225000X0.250000X-0.225000X0.250000X0*%
G04 APERTURE END LIST*
D10*
%TO.C,J2*%
X35550000Y3168500D03*
D11*
X33010000Y3168500D03*
X30470000Y3168500D03*
X27930000Y3168500D03*
%TD*%
D12*
%TO.C,TP1*%
X23876000Y3111500D03*
%TD*%
D13*
%TO.C,TP9*%
X30988000Y32225500D03*
%TD*%
D14*
%TO.C,H7*%
X45200000Y31617500D03*
%TD*%
D15*
%TO.C,J5*%
X38608000Y17317500D03*
D16*
X43688000Y22397500D03*
D15*
X38608000Y19857500D03*
D16*
X43688000Y12237500D03*
%TD*%
D17*
%TO.C,J4*%
X7318000Y16085500D03*
X2418000Y15485500D03*
X7318000Y30585500D03*
X2418000Y31185500D03*
%TD*%
D14*
%TO.C,H2*%
X14100000Y3317500D03*
%TD*%
D18*
%TO.C,H3*%
X45200000Y3317500D03*
%TD*%
D12*
%TO.C,TP2*%
X22860000Y32225500D03*
%TD*%
D14*
%TO.C,H1*%
X14100000Y31617500D03*
%TD*%
D19*
%TO.C,J1*%
X4826000Y5905500D03*
D20*
X7375900Y3355600D03*
X2276100Y3355600D03*
X2276100Y8455400D03*
X7375900Y8455400D03*
%TD*%
D21*
%TO.C,U9*%
X29458500Y10030500D03*
X29458500Y9080500D03*
X29458500Y8130500D03*
X27183500Y8130500D03*
X27183500Y10030500D03*
%TD*%
D22*
%TO.C,C2*%
X20968000Y8445500D03*
X19418000Y8445500D03*
%TD*%
D23*
%TO.C,U6*%
X8063000Y25717500D03*
X8063000Y24447500D03*
X8063000Y23177500D03*
X8063000Y21907500D03*
X3113000Y21907500D03*
X3113000Y23177500D03*
X3113000Y24447500D03*
X3113000Y25717500D03*
%TD*%
D22*
%TO.C,C39*%
X8268000Y27749500D03*
X6718000Y27749500D03*
%TD*%
D24*
%TO.C,R3*%
X16764000Y12921500D03*
X18414000Y12921500D03*
%TD*%
D25*
%TO.C,R14*%
X30734000Y17430500D03*
X30734000Y19080500D03*
%TD*%
D26*
%TO.C,R9*%
X22352000Y17861300D03*
X22352000Y16211300D03*
%TD*%
D27*
%TO.C,C9*%
X30480000Y22941500D03*
X30480000Y24491500D03*
%TD*%
D22*
%TO.C,C13*%
X16523000Y9842500D03*
X14973000Y9842500D03*
%TD*%
D28*
%TO.C,R7*%
X25082000Y12921500D03*
X23432000Y12921500D03*
%TD*%
D26*
%TO.C,R8*%
X33528000Y24541500D03*
X33528000Y22891500D03*
%TD*%
D29*
%TO.C,FB1*%
X3859000Y19621500D03*
X6809000Y19621500D03*
%TD*%
D23*
%TO.C,U5*%
X19493000Y27272500D03*
X19493000Y26002500D03*
X19493000Y24732500D03*
X19493000Y23462500D03*
X14543000Y23462500D03*
X14543000Y24732500D03*
X14543000Y26002500D03*
X14543000Y27272500D03*
%TD*%
D25*
%TO.C,R5*%
X28575000Y17430500D03*
X28575000Y19080500D03*
%TD*%
D30*
%TO.C,C4*%
X22974000Y9969500D03*
X24524000Y9969500D03*
%TD*%
D27*
%TO.C,C3*%
X14224000Y15194500D03*
X14224000Y16744500D03*
%TD*%
D22*
%TO.C,C47*%
X28334000Y31940500D03*
X26784000Y31940500D03*
%TD*%
M02*
