%TF.GenerationSoftware,KiCad,Pcbnew,(6.0.4-0)*%
%TF.CreationDate,2023-05-15T15:29:42-05:00*%
%TF.ProjectId,voltage_sense,766f6c74-6167-4655-9f73-656e73652e6b,rev?*%
%TF.SameCoordinates,Original*%
%TF.FileFunction,Legend,Bot*%
%TF.FilePolarity,Positive*%
%FSLAX46Y46*%
G04 Gerber Fmt 4.6, Leading zero omitted, Abs format (unit mm)*
G04 Created by KiCad (PCBNEW (6.0.4-0)) date 2023-05-15 15:29:42*
%MOMM*%
%LPD*%
G01*
G04 APERTURE LIST*
G04 Aperture macros list*
%AMRoundRect*
0 Rectangle with rounded corners*
0 $1 Rounding radius*
0 $2 $3 $4 $5 $6 $7 $8 $9 X,Y pos of 4 corners*
0 Add a 4 corners polygon primitive as box body*
4,1,4,$2,$3,$4,$5,$6,$7,$8,$9,$2,$3,0*
0 Add four circle primitives for the rounded corners*
1,1,$1+$1,$2,$3*
1,1,$1+$1,$4,$5*
1,1,$1+$1,$6,$7*
1,1,$1+$1,$8,$9*
0 Add four rect primitives between the rounded corners*
20,1,$1+$1,$2,$3,$4,$5,0*
20,1,$1+$1,$4,$5,$6,$7,0*
20,1,$1+$1,$6,$7,$8,$9,0*
20,1,$1+$1,$8,$9,$2,$3,0*%
G04 Aperture macros list end*
%ADD10C,0.150000*%
%ADD11C,0.120000*%
%ADD12R,1.700000X1.700000*%
%ADD13O,1.700000X1.700000*%
%ADD14C,2.000000*%
%ADD15C,2.200000*%
%ADD16O,2.500000X1.600000*%
%ADD17O,7.000000X3.500000*%
%ADD18C,2.153200*%
%ADD19C,4.400000*%
%ADD20C,2.020000*%
%ADD21RoundRect,0.150000X0.512500X0.150000X-0.512500X0.150000X-0.512500X-0.150000X0.512500X-0.150000X0*%
%ADD22RoundRect,0.225000X0.225000X0.250000X-0.225000X0.250000X-0.225000X-0.250000X0.225000X-0.250000X0*%
%ADD23RoundRect,0.150000X0.825000X0.150000X-0.825000X0.150000X-0.825000X-0.150000X0.825000X-0.150000X0*%
%ADD24RoundRect,0.225000X-0.225000X-0.250000X0.225000X-0.250000X0.225000X0.250000X-0.225000X0.250000X0*%
%ADD25RoundRect,0.200000X-0.200000X-0.275000X0.200000X-0.275000X0.200000X0.275000X-0.200000X0.275000X0*%
%ADD26RoundRect,0.200000X-0.275000X0.200000X-0.275000X-0.200000X0.275000X-0.200000X0.275000X0.200000X0*%
%ADD27RoundRect,0.225000X0.250000X-0.225000X0.250000X0.225000X-0.250000X0.225000X-0.250000X-0.225000X0*%
%ADD28RoundRect,0.200000X0.200000X0.275000X-0.200000X0.275000X-0.200000X-0.275000X0.200000X-0.275000X0*%
%ADD29RoundRect,0.200000X0.275000X-0.200000X0.275000X0.200000X-0.275000X0.200000X-0.275000X-0.200000X0*%
G04 APERTURE END LIST*
D10*
%TO.C,U9*%
X10921904Y29173119D02*
X10921904Y28363595D01*
X10874285Y28268357D01*
X10826666Y28220738D01*
X10731428Y28173119D01*
X10540952Y28173119D01*
X10445714Y28220738D01*
X10398095Y28268357D01*
X10350476Y28363595D01*
X10350476Y29173119D01*
X9826666Y28173119D02*
X9636190Y28173119D01*
X9540952Y28220738D01*
X9493333Y28268357D01*
X9398095Y28411214D01*
X9350476Y28601690D01*
X9350476Y28982642D01*
X9398095Y29077880D01*
X9445714Y29125500D01*
X9540952Y29173119D01*
X9731428Y29173119D01*
X9826666Y29125500D01*
X9874285Y29077880D01*
X9921904Y28982642D01*
X9921904Y28744547D01*
X9874285Y28649309D01*
X9826666Y28601690D01*
X9731428Y28554071D01*
X9540952Y28554071D01*
X9445714Y28601690D01*
X9398095Y28649309D01*
X9350476Y28744547D01*
%TO.C,C2*%
X2198666Y26282357D02*
X2246285Y26234738D01*
X2389142Y26187119D01*
X2484380Y26187119D01*
X2627238Y26234738D01*
X2722476Y26329976D01*
X2770095Y26425214D01*
X2817714Y26615690D01*
X2817714Y26758547D01*
X2770095Y26949023D01*
X2722476Y27044261D01*
X2627238Y27139500D01*
X2484380Y27187119D01*
X2389142Y27187119D01*
X2246285Y27139500D01*
X2198666Y27091880D01*
X1817714Y27091880D02*
X1770095Y27139500D01*
X1674857Y27187119D01*
X1436761Y27187119D01*
X1341523Y27139500D01*
X1293904Y27091880D01*
X1246285Y26996642D01*
X1246285Y26901404D01*
X1293904Y26758547D01*
X1865333Y26187119D01*
X1246285Y26187119D01*
%TO.C,U6*%
X5333904Y18997119D02*
X5333904Y18187595D01*
X5286285Y18092357D01*
X5238666Y18044738D01*
X5143428Y17997119D01*
X4952952Y17997119D01*
X4857714Y18044738D01*
X4810095Y18092357D01*
X4762476Y18187595D01*
X4762476Y18997119D01*
X3857714Y18997119D02*
X4048190Y18997119D01*
X4143428Y18949500D01*
X4191047Y18901880D01*
X4286285Y18759023D01*
X4333904Y18568547D01*
X4333904Y18187595D01*
X4286285Y18092357D01*
X4238666Y18044738D01*
X4143428Y17997119D01*
X3952952Y17997119D01*
X3857714Y18044738D01*
X3810095Y18092357D01*
X3762476Y18187595D01*
X3762476Y18425690D01*
X3810095Y18520928D01*
X3857714Y18568547D01*
X3952952Y18616166D01*
X4143428Y18616166D01*
X4238666Y18568547D01*
X4286285Y18520928D01*
X4333904Y18425690D01*
%TO.C,C39*%
X3182857Y9198357D02*
X3230476Y9150738D01*
X3373333Y9103119D01*
X3468571Y9103119D01*
X3611428Y9150738D01*
X3706666Y9245976D01*
X3754285Y9341214D01*
X3801904Y9531690D01*
X3801904Y9674547D01*
X3754285Y9865023D01*
X3706666Y9960261D01*
X3611428Y10055500D01*
X3468571Y10103119D01*
X3373333Y10103119D01*
X3230476Y10055500D01*
X3182857Y10007880D01*
X2849523Y10103119D02*
X2230476Y10103119D01*
X2563809Y9722166D01*
X2420952Y9722166D01*
X2325714Y9674547D01*
X2278095Y9626928D01*
X2230476Y9531690D01*
X2230476Y9293595D01*
X2278095Y9198357D01*
X2325714Y9150738D01*
X2420952Y9103119D01*
X2706666Y9103119D01*
X2801904Y9150738D01*
X2849523Y9198357D01*
X1754285Y9103119D02*
X1563809Y9103119D01*
X1468571Y9150738D01*
X1420952Y9198357D01*
X1325714Y9341214D01*
X1278095Y9531690D01*
X1278095Y9912642D01*
X1325714Y10007880D01*
X1373333Y10055500D01*
X1468571Y10103119D01*
X1659047Y10103119D01*
X1754285Y10055500D01*
X1801904Y10007880D01*
X1849523Y9912642D01*
X1849523Y9674547D01*
X1801904Y9579309D01*
X1754285Y9531690D01*
X1659047Y9484071D01*
X1468571Y9484071D01*
X1373333Y9531690D01*
X1325714Y9579309D01*
X1278095Y9674547D01*
%TO.C,R3*%
X17755666Y5039119D02*
X18089000Y5515309D01*
X18327095Y5039119D02*
X18327095Y6039119D01*
X17946142Y6039119D01*
X17850904Y5991500D01*
X17803285Y5943880D01*
X17755666Y5848642D01*
X17755666Y5705785D01*
X17803285Y5610547D01*
X17850904Y5562928D01*
X17946142Y5515309D01*
X18327095Y5515309D01*
X17422333Y6039119D02*
X16803285Y6039119D01*
X17136619Y5658166D01*
X16993761Y5658166D01*
X16898523Y5610547D01*
X16850904Y5562928D01*
X16803285Y5467690D01*
X16803285Y5229595D01*
X16850904Y5134357D01*
X16898523Y5086738D01*
X16993761Y5039119D01*
X17279476Y5039119D01*
X17374714Y5086738D01*
X17422333Y5134357D01*
%TO.C,R9*%
X21374380Y11202966D02*
X20898190Y11536300D01*
X21374380Y11774395D02*
X20374380Y11774395D01*
X20374380Y11393442D01*
X20422000Y11298204D01*
X20469619Y11250585D01*
X20564857Y11202966D01*
X20707714Y11202966D01*
X20802952Y11250585D01*
X20850571Y11298204D01*
X20898190Y11393442D01*
X20898190Y11774395D01*
X21374380Y10726776D02*
X21374380Y10536300D01*
X21326761Y10441061D01*
X21279142Y10393442D01*
X21136285Y10298204D01*
X20945809Y10250585D01*
X20564857Y10250585D01*
X20469619Y10298204D01*
X20422000Y10345823D01*
X20374380Y10441061D01*
X20374380Y10631538D01*
X20422000Y10726776D01*
X20469619Y10774395D01*
X20564857Y10822014D01*
X20802952Y10822014D01*
X20898190Y10774395D01*
X20945809Y10726776D01*
X20993428Y10631538D01*
X20993428Y10441061D01*
X20945809Y10345823D01*
X20898190Y10298204D01*
X20802952Y10250585D01*
%TO.C,C9*%
X31759142Y14200166D02*
X31806761Y14247785D01*
X31854380Y14390642D01*
X31854380Y14485880D01*
X31806761Y14628738D01*
X31711523Y14723976D01*
X31616285Y14771595D01*
X31425809Y14819214D01*
X31282952Y14819214D01*
X31092476Y14771595D01*
X30997238Y14723976D01*
X30902000Y14628738D01*
X30854380Y14485880D01*
X30854380Y14390642D01*
X30902000Y14247785D01*
X30949619Y14200166D01*
X31854380Y13723976D02*
X31854380Y13533500D01*
X31806761Y13438261D01*
X31759142Y13390642D01*
X31616285Y13295404D01*
X31425809Y13247785D01*
X31044857Y13247785D01*
X30949619Y13295404D01*
X30902000Y13343023D01*
X30854380Y13438261D01*
X30854380Y13628738D01*
X30902000Y13723976D01*
X30949619Y13771595D01*
X31044857Y13819214D01*
X31282952Y13819214D01*
X31378190Y13771595D01*
X31425809Y13723976D01*
X31473428Y13628738D01*
X31473428Y13438261D01*
X31425809Y13343023D01*
X31378190Y13295404D01*
X31282952Y13247785D01*
%TO.C,R7*%
X25375666Y8407119D02*
X25709000Y8883309D01*
X25947095Y8407119D02*
X25947095Y9407119D01*
X25566142Y9407119D01*
X25470904Y9359500D01*
X25423285Y9311880D01*
X25375666Y9216642D01*
X25375666Y9073785D01*
X25423285Y8978547D01*
X25470904Y8930928D01*
X25566142Y8883309D01*
X25947095Y8883309D01*
X25042333Y9407119D02*
X24375666Y9407119D01*
X24804238Y8407119D01*
%TO.C,R8*%
X32550380Y13184166D02*
X32074190Y13517500D01*
X32550380Y13755595D02*
X31550380Y13755595D01*
X31550380Y13374642D01*
X31598000Y13279404D01*
X31645619Y13231785D01*
X31740857Y13184166D01*
X31883714Y13184166D01*
X31978952Y13231785D01*
X32026571Y13279404D01*
X32074190Y13374642D01*
X32074190Y13755595D01*
X31978952Y12612738D02*
X31931333Y12707976D01*
X31883714Y12755595D01*
X31788476Y12803214D01*
X31740857Y12803214D01*
X31645619Y12755595D01*
X31598000Y12707976D01*
X31550380Y12612738D01*
X31550380Y12422261D01*
X31598000Y12327023D01*
X31645619Y12279404D01*
X31740857Y12231785D01*
X31788476Y12231785D01*
X31883714Y12279404D01*
X31931333Y12327023D01*
X31978952Y12422261D01*
X31978952Y12612738D01*
X32026571Y12707976D01*
X32074190Y12755595D01*
X32169428Y12803214D01*
X32359904Y12803214D01*
X32455142Y12755595D01*
X32502761Y12707976D01*
X32550380Y12612738D01*
X32550380Y12422261D01*
X32502761Y12327023D01*
X32455142Y12279404D01*
X32359904Y12231785D01*
X32169428Y12231785D01*
X32074190Y12279404D01*
X32026571Y12327023D01*
X31978952Y12422261D01*
%TO.C,R5*%
X30838380Y9120166D02*
X30362190Y9453500D01*
X30838380Y9691595D02*
X29838380Y9691595D01*
X29838380Y9310642D01*
X29886000Y9215404D01*
X29933619Y9167785D01*
X30028857Y9120166D01*
X30171714Y9120166D01*
X30266952Y9167785D01*
X30314571Y9215404D01*
X30362190Y9310642D01*
X30362190Y9691595D01*
X29838380Y8215404D02*
X29838380Y8691595D01*
X30314571Y8739214D01*
X30266952Y8691595D01*
X30219333Y8596357D01*
X30219333Y8358261D01*
X30266952Y8263023D01*
X30314571Y8215404D01*
X30409809Y8167785D01*
X30647904Y8167785D01*
X30743142Y8215404D01*
X30790761Y8263023D01*
X30838380Y8358261D01*
X30838380Y8596357D01*
X30790761Y8691595D01*
X30743142Y8739214D01*
%TO.C,C4*%
X3672142Y26900166D02*
X3719761Y26947785D01*
X3767380Y27090642D01*
X3767380Y27185880D01*
X3719761Y27328738D01*
X3624523Y27423976D01*
X3529285Y27471595D01*
X3338809Y27519214D01*
X3195952Y27519214D01*
X3005476Y27471595D01*
X2910238Y27423976D01*
X2815000Y27328738D01*
X2767380Y27185880D01*
X2767380Y27090642D01*
X2815000Y26947785D01*
X2862619Y26900166D01*
X3100714Y26043023D02*
X3767380Y26043023D01*
X2719761Y26281119D02*
X3434047Y26519214D01*
X3434047Y25900166D01*
%TO.C,C3*%
X16011142Y10136166D02*
X16058761Y10183785D01*
X16106380Y10326642D01*
X16106380Y10421880D01*
X16058761Y10564738D01*
X15963523Y10659976D01*
X15868285Y10707595D01*
X15677809Y10755214D01*
X15534952Y10755214D01*
X15344476Y10707595D01*
X15249238Y10659976D01*
X15154000Y10564738D01*
X15106380Y10421880D01*
X15106380Y10326642D01*
X15154000Y10183785D01*
X15201619Y10136166D01*
X15106380Y9802833D02*
X15106380Y9183785D01*
X15487333Y9517119D01*
X15487333Y9374261D01*
X15534952Y9279023D01*
X15582571Y9231404D01*
X15677809Y9183785D01*
X15915904Y9183785D01*
X16011142Y9231404D01*
X16058761Y9279023D01*
X16106380Y9374261D01*
X16106380Y9659976D01*
X16058761Y9755214D01*
X16011142Y9802833D01*
%TO.C,C47*%
X28074857Y27806357D02*
X28122476Y27758738D01*
X28265333Y27711119D01*
X28360571Y27711119D01*
X28503428Y27758738D01*
X28598666Y27853976D01*
X28646285Y27949214D01*
X28693904Y28139690D01*
X28693904Y28282547D01*
X28646285Y28473023D01*
X28598666Y28568261D01*
X28503428Y28663500D01*
X28360571Y28711119D01*
X28265333Y28711119D01*
X28122476Y28663500D01*
X28074857Y28615880D01*
X27217714Y28377785D02*
X27217714Y27711119D01*
X27455809Y28758738D02*
X27693904Y28044452D01*
X27074857Y28044452D01*
X26789142Y28711119D02*
X26122476Y28711119D01*
X26551047Y27711119D01*
D11*
%TO.C,U9*%
X10160000Y27785500D02*
X11960000Y27785500D01*
X10160000Y24665500D02*
X9360000Y24665500D01*
X10160000Y27785500D02*
X9360000Y27785500D01*
X10160000Y24665500D02*
X10960000Y24665500D01*
%TO.C,C2*%
X2172580Y24699500D02*
X1891420Y24699500D01*
X2172580Y25719500D02*
X1891420Y25719500D01*
%TO.C,U6*%
X4572000Y17609500D02*
X2622000Y17609500D01*
X4572000Y12489500D02*
X6522000Y12489500D01*
X4572000Y12489500D02*
X2622000Y12489500D01*
X4572000Y17609500D02*
X8022000Y17609500D01*
%TO.C,C39*%
X2399420Y11495500D02*
X2680580Y11495500D01*
X2399420Y10475500D02*
X2680580Y10475500D01*
%TO.C,R3*%
X17351742Y6399000D02*
X17826258Y6399000D01*
X17351742Y7444000D02*
X17826258Y7444000D01*
%TO.C,R9*%
X21829500Y11273558D02*
X21829500Y10799042D01*
X22874500Y11273558D02*
X22874500Y10799042D01*
%TO.C,C9*%
X29462000Y13892920D02*
X29462000Y14174080D01*
X30482000Y13892920D02*
X30482000Y14174080D01*
%TO.C,R7*%
X25446258Y6907000D02*
X24971742Y6907000D01*
X25446258Y7952000D02*
X24971742Y7952000D01*
%TO.C,R8*%
X34050500Y13254758D02*
X34050500Y12780242D01*
X33005500Y13254758D02*
X33005500Y12780242D01*
%TO.C,R5*%
X29478500Y8716242D02*
X29478500Y9190758D01*
X28433500Y8716242D02*
X28433500Y9190758D01*
%TO.C,C4*%
X5447420Y27243500D02*
X5728580Y27243500D01*
X5447420Y26223500D02*
X5728580Y26223500D01*
%TO.C,C3*%
X13714000Y9828920D02*
X13714000Y10110080D01*
X14734000Y9828920D02*
X14734000Y10110080D01*
%TO.C,C47*%
X27572580Y26223500D02*
X27291420Y26223500D01*
X27572580Y27243500D02*
X27291420Y27243500D01*
%TD*%
%LPC*%
D12*
%TO.C,J2*%
X25999600Y3270100D03*
D13*
X23459600Y3270100D03*
X20919600Y3270100D03*
X18379600Y3270100D03*
%TD*%
D12*
%TO.C,J1*%
X13193000Y3270100D03*
D13*
X10653000Y3270100D03*
X8113000Y3270100D03*
%TD*%
D14*
%TO.C,TP9*%
X30988000Y26225500D03*
%TD*%
D15*
%TO.C,H7*%
X35407600Y25463500D03*
%TD*%
D16*
%TO.C,J5*%
X38501200Y14897100D03*
D17*
X43581200Y19977100D03*
D16*
X38501200Y17437100D03*
D17*
X43581200Y9817100D03*
%TD*%
D18*
%TO.C,J4*%
X6860800Y7697900D03*
X1960800Y7097900D03*
X6860800Y22197900D03*
X1960800Y22797900D03*
%TD*%
D19*
%TO.C,H3*%
X45212000Y3365500D03*
%TD*%
D20*
%TO.C,TP2*%
X22860000Y26225500D03*
%TD*%
D15*
%TO.C,H1*%
X15240000Y25666700D03*
%TD*%
D21*
%TO.C,U9*%
X11297500Y27175500D03*
X11297500Y26225500D03*
X11297500Y25275500D03*
X9022500Y25275500D03*
X9022500Y27175500D03*
%TD*%
D22*
%TO.C,C2*%
X2807000Y25209500D03*
X1257000Y25209500D03*
%TD*%
D23*
%TO.C,U6*%
X7047000Y16954500D03*
X7047000Y15684500D03*
X7047000Y14414500D03*
X7047000Y13144500D03*
X2097000Y13144500D03*
X2097000Y14414500D03*
X2097000Y15684500D03*
X2097000Y16954500D03*
%TD*%
D24*
%TO.C,C39*%
X1765000Y10985500D03*
X3315000Y10985500D03*
%TD*%
D25*
%TO.C,R3*%
X16764000Y6921500D03*
X18414000Y6921500D03*
%TD*%
D26*
%TO.C,R9*%
X22352000Y11861300D03*
X22352000Y10211300D03*
%TD*%
D27*
%TO.C,C9*%
X29972000Y13258500D03*
X29972000Y14808500D03*
%TD*%
D28*
%TO.C,R7*%
X26034000Y7429500D03*
X24384000Y7429500D03*
%TD*%
D26*
%TO.C,R8*%
X33528000Y13842500D03*
X33528000Y12192500D03*
%TD*%
D29*
%TO.C,R5*%
X28956000Y8128500D03*
X28956000Y9778500D03*
%TD*%
D24*
%TO.C,C4*%
X4813000Y26733500D03*
X6363000Y26733500D03*
%TD*%
D27*
%TO.C,C3*%
X14224000Y9194500D03*
X14224000Y10744500D03*
%TD*%
D22*
%TO.C,C47*%
X28207000Y26733500D03*
X26657000Y26733500D03*
%TD*%
M02*
