%TF.GenerationSoftware,KiCad,Pcbnew,(6.0.4-0)*%
%TF.CreationDate,2023-05-15T15:29:42-05:00*%
%TF.ProjectId,voltage_sense,766f6c74-6167-4655-9f73-656e73652e6b,rev?*%
%TF.SameCoordinates,Original*%
%TF.FileFunction,Soldermask,Bot*%
%TF.FilePolarity,Negative*%
%FSLAX46Y46*%
G04 Gerber Fmt 4.6, Leading zero omitted, Abs format (unit mm)*
G04 Created by KiCad (PCBNEW (6.0.4-0)) date 2023-05-15 15:29:42*
%MOMM*%
%LPD*%
G01*
G04 APERTURE LIST*
G04 Aperture macros list*
%AMRoundRect*
0 Rectangle with rounded corners*
0 $1 Rounding radius*
0 $2 $3 $4 $5 $6 $7 $8 $9 X,Y pos of 4 corners*
0 Add a 4 corners polygon primitive as box body*
4,1,4,$2,$3,$4,$5,$6,$7,$8,$9,$2,$3,0*
0 Add four circle primitives for the rounded corners*
1,1,$1+$1,$2,$3*
1,1,$1+$1,$4,$5*
1,1,$1+$1,$6,$7*
1,1,$1+$1,$8,$9*
0 Add four rect primitives between the rounded corners*
20,1,$1+$1,$2,$3,$4,$5,0*
20,1,$1+$1,$4,$5,$6,$7,0*
20,1,$1+$1,$6,$7,$8,$9,0*
20,1,$1+$1,$8,$9,$2,$3,0*%
G04 Aperture macros list end*
%ADD10R,1.700000X1.700000*%
%ADD11O,1.700000X1.700000*%
%ADD12C,2.000000*%
%ADD13C,2.200000*%
%ADD14O,2.500000X1.600000*%
%ADD15O,7.000000X3.500000*%
%ADD16C,2.153200*%
%ADD17C,4.400000*%
%ADD18C,2.020000*%
%ADD19RoundRect,0.150000X0.512500X0.150000X-0.512500X0.150000X-0.512500X-0.150000X0.512500X-0.150000X0*%
%ADD20RoundRect,0.225000X0.225000X0.250000X-0.225000X0.250000X-0.225000X-0.250000X0.225000X-0.250000X0*%
%ADD21RoundRect,0.150000X0.825000X0.150000X-0.825000X0.150000X-0.825000X-0.150000X0.825000X-0.150000X0*%
%ADD22RoundRect,0.225000X-0.225000X-0.250000X0.225000X-0.250000X0.225000X0.250000X-0.225000X0.250000X0*%
%ADD23RoundRect,0.200000X-0.200000X-0.275000X0.200000X-0.275000X0.200000X0.275000X-0.200000X0.275000X0*%
%ADD24RoundRect,0.200000X-0.275000X0.200000X-0.275000X-0.200000X0.275000X-0.200000X0.275000X0.200000X0*%
%ADD25RoundRect,0.225000X0.250000X-0.225000X0.250000X0.225000X-0.250000X0.225000X-0.250000X-0.225000X0*%
%ADD26RoundRect,0.200000X0.200000X0.275000X-0.200000X0.275000X-0.200000X-0.275000X0.200000X-0.275000X0*%
%ADD27RoundRect,0.200000X0.275000X-0.200000X0.275000X0.200000X-0.275000X0.200000X-0.275000X-0.200000X0*%
G04 APERTURE END LIST*
D10*
%TO.C,J2*%
X25999600Y3270100D03*
D11*
X23459600Y3270100D03*
X20919600Y3270100D03*
X18379600Y3270100D03*
%TD*%
D10*
%TO.C,J1*%
X13193000Y3270100D03*
D11*
X10653000Y3270100D03*
X8113000Y3270100D03*
%TD*%
D12*
%TO.C,TP9*%
X30988000Y26225500D03*
%TD*%
D13*
%TO.C,H7*%
X35407600Y25463500D03*
%TD*%
D14*
%TO.C,J5*%
X38501200Y14897100D03*
D15*
X43581200Y19977100D03*
D14*
X38501200Y17437100D03*
D15*
X43581200Y9817100D03*
%TD*%
D16*
%TO.C,J4*%
X6860800Y7697900D03*
X1960800Y7097900D03*
X6860800Y22197900D03*
X1960800Y22797900D03*
%TD*%
D17*
%TO.C,H3*%
X45212000Y3365500D03*
%TD*%
D18*
%TO.C,TP2*%
X22860000Y26225500D03*
%TD*%
D13*
%TO.C,H1*%
X15240000Y25666700D03*
%TD*%
D19*
%TO.C,U9*%
X11297500Y27175500D03*
X11297500Y26225500D03*
X11297500Y25275500D03*
X9022500Y25275500D03*
X9022500Y27175500D03*
%TD*%
D20*
%TO.C,C2*%
X2807000Y25209500D03*
X1257000Y25209500D03*
%TD*%
D21*
%TO.C,U6*%
X7047000Y16954500D03*
X7047000Y15684500D03*
X7047000Y14414500D03*
X7047000Y13144500D03*
X2097000Y13144500D03*
X2097000Y14414500D03*
X2097000Y15684500D03*
X2097000Y16954500D03*
%TD*%
D22*
%TO.C,C39*%
X1765000Y10985500D03*
X3315000Y10985500D03*
%TD*%
D23*
%TO.C,R3*%
X16764000Y6921500D03*
X18414000Y6921500D03*
%TD*%
D24*
%TO.C,R9*%
X22352000Y11861300D03*
X22352000Y10211300D03*
%TD*%
D25*
%TO.C,C9*%
X29972000Y13258500D03*
X29972000Y14808500D03*
%TD*%
D26*
%TO.C,R7*%
X26034000Y7429500D03*
X24384000Y7429500D03*
%TD*%
D24*
%TO.C,R8*%
X33528000Y13842500D03*
X33528000Y12192500D03*
%TD*%
D27*
%TO.C,R5*%
X28956000Y8128500D03*
X28956000Y9778500D03*
%TD*%
D22*
%TO.C,C4*%
X4813000Y26733500D03*
X6363000Y26733500D03*
%TD*%
D25*
%TO.C,C3*%
X14224000Y9194500D03*
X14224000Y10744500D03*
%TD*%
D20*
%TO.C,C47*%
X28207000Y26733500D03*
X26657000Y26733500D03*
%TD*%
M02*
