%TF.GenerationSoftware,KiCad,Pcbnew,(6.0.4-0)*%
%TF.CreationDate,2023-05-15T15:29:42-05:00*%
%TF.ProjectId,voltage_sense,766f6c74-6167-4655-9f73-656e73652e6b,rev?*%
%TF.SameCoordinates,Original*%
%TF.FileFunction,Soldermask,Top*%
%TF.FilePolarity,Negative*%
%FSLAX46Y46*%
G04 Gerber Fmt 4.6, Leading zero omitted, Abs format (unit mm)*
G04 Created by KiCad (PCBNEW (6.0.4-0)) date 2023-05-15 15:29:42*
%MOMM*%
%LPD*%
G01*
G04 APERTURE LIST*
G04 Aperture macros list*
%AMRoundRect*
0 Rectangle with rounded corners*
0 $1 Rounding radius*
0 $2 $3 $4 $5 $6 $7 $8 $9 X,Y pos of 4 corners*
0 Add a 4 corners polygon primitive as box body*
4,1,4,$2,$3,$4,$5,$6,$7,$8,$9,$2,$3,0*
0 Add four circle primitives for the rounded corners*
1,1,$1+$1,$2,$3*
1,1,$1+$1,$4,$5*
1,1,$1+$1,$6,$7*
1,1,$1+$1,$8,$9*
0 Add four rect primitives between the rounded corners*
20,1,$1+$1,$2,$3,$4,$5,0*
20,1,$1+$1,$4,$5,$6,$7,0*
20,1,$1+$1,$6,$7,$8,$9,0*
20,1,$1+$1,$8,$9,$2,$3,0*%
G04 Aperture macros list end*
%ADD10RoundRect,0.150000X-0.512500X-0.150000X0.512500X-0.150000X0.512500X0.150000X-0.512500X0.150000X0*%
%ADD11RoundRect,0.200000X-0.200000X-0.275000X0.200000X-0.275000X0.200000X0.275000X-0.200000X0.275000X0*%
%ADD12RoundRect,0.150000X0.825000X0.150000X-0.825000X0.150000X-0.825000X-0.150000X0.825000X-0.150000X0*%
%ADD13R,1.700000X1.700000*%
%ADD14O,1.700000X1.700000*%
%ADD15RoundRect,0.225000X0.250000X-0.225000X0.250000X0.225000X-0.250000X0.225000X-0.250000X-0.225000X0*%
%ADD16RoundRect,0.225000X-0.250000X0.225000X-0.250000X-0.225000X0.250000X-0.225000X0.250000X0.225000X0*%
%ADD17RoundRect,0.200000X0.200000X0.275000X-0.200000X0.275000X-0.200000X-0.275000X0.200000X-0.275000X0*%
%ADD18RoundRect,0.200000X0.275000X-0.200000X0.275000X0.200000X-0.275000X0.200000X-0.275000X-0.200000X0*%
%ADD19R,0.600000X0.420000*%
%ADD20RoundRect,0.225000X-0.225000X-0.250000X0.225000X-0.250000X0.225000X0.250000X-0.225000X0.250000X0*%
%ADD21C,2.000000*%
%ADD22C,2.200000*%
%ADD23RoundRect,0.200000X-0.275000X0.200000X-0.275000X-0.200000X0.275000X-0.200000X0.275000X0.200000X0*%
%ADD24O,2.500000X1.600000*%
%ADD25O,7.000000X3.500000*%
%ADD26RoundRect,0.101600X-0.950000X0.150000X-0.950000X-0.150000X0.950000X-0.150000X0.950000X0.150000X0*%
%ADD27RoundRect,0.100000X-0.950000X0.150000X-0.950000X-0.150000X0.950000X-0.150000X0.950000X0.150000X0*%
%ADD28C,2.153200*%
%ADD29C,4.400000*%
%ADD30C,2.020000*%
%ADD31RoundRect,0.250000X-0.325000X-0.650000X0.325000X-0.650000X0.325000X0.650000X-0.325000X0.650000X0*%
%ADD32RoundRect,0.150000X-0.825000X-0.150000X0.825000X-0.150000X0.825000X0.150000X-0.825000X0.150000X0*%
%ADD33R,2.790000X1.190000*%
%ADD34RoundRect,0.225000X0.225000X0.250000X-0.225000X0.250000X-0.225000X-0.250000X0.225000X-0.250000X0*%
G04 APERTURE END LIST*
D10*
%TO.C,IC1*%
X15869500Y11935500D03*
X15869500Y10985500D03*
X15869500Y10035500D03*
X13594500Y10035500D03*
X13594500Y10985500D03*
X13594500Y11935500D03*
%TD*%
%TO.C,U3*%
X22230500Y11986300D03*
X22230500Y11036300D03*
X22230500Y10086300D03*
X24505500Y10086300D03*
X24505500Y11986300D03*
%TD*%
D11*
%TO.C,R10*%
X16955000Y6921500D03*
X18605000Y6921500D03*
%TD*%
D12*
%TO.C,U2*%
X32447000Y12636500D03*
X32447000Y13906500D03*
X32447000Y15176500D03*
X32447000Y16446500D03*
X27497000Y16446500D03*
X27497000Y15176500D03*
X27497000Y13906500D03*
X27497000Y12636500D03*
%TD*%
D13*
%TO.C,J2*%
X25999600Y3270100D03*
D14*
X23459600Y3270100D03*
X20919600Y3270100D03*
X18379600Y3270100D03*
%TD*%
D11*
%TO.C,R13*%
X27115000Y18605500D03*
X28765000Y18605500D03*
%TD*%
D15*
%TO.C,C6*%
X43180000Y24942500D03*
X43180000Y26492500D03*
%TD*%
%TO.C,C7*%
X28956000Y8178500D03*
X28956000Y9728500D03*
%TD*%
D11*
%TO.C,R4*%
X10351000Y14033500D03*
X12001000Y14033500D03*
%TD*%
D16*
%TO.C,C31*%
X10160000Y7696500D03*
X10160000Y6146500D03*
%TD*%
D11*
%TO.C,R6*%
X24384000Y7429500D03*
X26034000Y7429500D03*
%TD*%
D15*
%TO.C,C8*%
X19812000Y10718500D03*
X19812000Y12268500D03*
%TD*%
D17*
%TO.C,R66*%
X6413000Y26733500D03*
X4763000Y26733500D03*
%TD*%
D18*
%TO.C,R71*%
X41148000Y3556500D03*
X41148000Y5206500D03*
%TD*%
D15*
%TO.C,C32*%
X40132000Y24942500D03*
X40132000Y26492500D03*
%TD*%
D13*
%TO.C,J1*%
X13193000Y3270100D03*
D14*
X10653000Y3270100D03*
X8113000Y3270100D03*
%TD*%
D19*
%TO.C,U4*%
X25974000Y23319500D03*
X25974000Y22669500D03*
X25974000Y22019500D03*
X27874000Y22019500D03*
X27874000Y22669500D03*
X27874000Y23319500D03*
%TD*%
D20*
%TO.C,C11*%
X20357800Y6921500D03*
X21907800Y6921500D03*
%TD*%
D21*
%TO.C,TP9*%
X30988000Y26225500D03*
%TD*%
D22*
%TO.C,H7*%
X35407600Y25463500D03*
%TD*%
D23*
%TO.C,R11*%
X29972000Y24002500D03*
X29972000Y22352500D03*
%TD*%
D24*
%TO.C,J5*%
X38501200Y14897100D03*
D25*
X43581200Y19977100D03*
D24*
X38501200Y17437100D03*
D25*
X43581200Y9817100D03*
%TD*%
D26*
%TO.C,J4*%
X7810800Y10197900D03*
X7810800Y10697900D03*
X7810800Y11197900D03*
X7810800Y11697900D03*
X7810800Y12197900D03*
X7810800Y12697900D03*
X7810800Y13197900D03*
X7810800Y13697900D03*
X7810800Y14197900D03*
X7810800Y14697900D03*
X7810800Y15197900D03*
X7810800Y15697900D03*
X7810800Y16197900D03*
X7810800Y16697900D03*
X7810800Y17197900D03*
X7810800Y17697900D03*
X7810800Y18197900D03*
D27*
X7810800Y18697900D03*
X7810800Y19197900D03*
D28*
X6860800Y7697900D03*
X1960800Y7097900D03*
X6860800Y22197900D03*
X1960800Y22797900D03*
%TD*%
D10*
%TO.C,U1*%
X22738500Y17523500D03*
X22738500Y16573500D03*
X22738500Y15623500D03*
X25013500Y15623500D03*
X25013500Y17523500D03*
%TD*%
D17*
%TO.C,R1*%
X12001000Y23177500D03*
X10351000Y23177500D03*
%TD*%
D29*
%TO.C,H3*%
X45212000Y3365500D03*
%TD*%
D18*
%TO.C,R12*%
X33528000Y8636500D03*
X33528000Y10286500D03*
%TD*%
D30*
%TO.C,TP2*%
X22860000Y26225500D03*
%TD*%
D31*
%TO.C,FB1*%
X1420600Y2908300D03*
X4370600Y2908300D03*
%TD*%
D32*
%TO.C,U5*%
X30037000Y5778500D03*
X30037000Y4508500D03*
X30037000Y3238500D03*
X30037000Y1968500D03*
X34987000Y1968500D03*
X34987000Y3238500D03*
X34987000Y4508500D03*
X34987000Y5778500D03*
%TD*%
D11*
%TO.C,R18*%
X10351000Y16065500D03*
X12001000Y16065500D03*
%TD*%
D20*
%TO.C,C19*%
X4813000Y25209500D03*
X6363000Y25209500D03*
%TD*%
%TO.C,C12*%
X13449000Y6921500D03*
X14999000Y6921500D03*
%TD*%
D33*
%TO.C,RV1*%
X14857000Y21653500D03*
X19687000Y19113500D03*
X14857000Y16573500D03*
%TD*%
D34*
%TO.C,C10*%
X32030000Y19621500D03*
X30480000Y19621500D03*
%TD*%
D22*
%TO.C,H1*%
X15240000Y25666700D03*
%TD*%
D17*
%TO.C,R2*%
X12001000Y20129500D03*
X10351000Y20129500D03*
%TD*%
D34*
%TO.C,C5*%
X2807000Y26733500D03*
X1257000Y26733500D03*
%TD*%
D16*
%TO.C,C1*%
X19304000Y24968500D03*
X19304000Y23418500D03*
%TD*%
M02*
