%TF.GenerationSoftware,KiCad,Pcbnew,(6.0.4-0)*%
%TF.CreationDate,2023-05-29T14:49:53-05:00*%
%TF.ProjectId,voltage_sense,766f6c74-6167-4655-9f73-656e73652e6b,rev?*%
%TF.SameCoordinates,Original*%
%TF.FileFunction,Legend,Bot*%
%TF.FilePolarity,Positive*%
%FSLAX46Y46*%
G04 Gerber Fmt 4.6, Leading zero omitted, Abs format (unit mm)*
G04 Created by KiCad (PCBNEW (6.0.4-0)) date 2023-05-29 14:49:53*
%MOMM*%
%LPD*%
G01*
G04 APERTURE LIST*
G04 Aperture macros list*
%AMRoundRect*
0 Rectangle with rounded corners*
0 $1 Rounding radius*
0 $2 $3 $4 $5 $6 $7 $8 $9 X,Y pos of 4 corners*
0 Add a 4 corners polygon primitive as box body*
4,1,4,$2,$3,$4,$5,$6,$7,$8,$9,$2,$3,0*
0 Add four circle primitives for the rounded corners*
1,1,$1+$1,$2,$3*
1,1,$1+$1,$4,$5*
1,1,$1+$1,$6,$7*
1,1,$1+$1,$8,$9*
0 Add four rect primitives between the rounded corners*
20,1,$1+$1,$2,$3,$4,$5,0*
20,1,$1+$1,$4,$5,$6,$7,0*
20,1,$1+$1,$6,$7,$8,$9,0*
20,1,$1+$1,$8,$9,$2,$3,0*%
G04 Aperture macros list end*
%ADD10C,0.150000*%
%ADD11C,0.120000*%
%ADD12R,1.700000X1.700000*%
%ADD13O,1.700000X1.700000*%
%ADD14C,2.020000*%
%ADD15C,2.000000*%
%ADD16C,2.200000*%
%ADD17O,2.500000X1.600000*%
%ADD18O,7.000000X3.500000*%
%ADD19C,2.153200*%
%ADD20C,4.400000*%
%ADD21C,2.108200*%
%ADD22C,2.870200*%
%ADD23RoundRect,0.150000X0.825000X0.150000X-0.825000X0.150000X-0.825000X-0.150000X0.825000X-0.150000X0*%
G04 APERTURE END LIST*
D10*
%TO.C,U6*%
X6349904Y27760119D02*
X6349904Y26950595D01*
X6302285Y26855357D01*
X6254666Y26807738D01*
X6159428Y26760119D01*
X5968952Y26760119D01*
X5873714Y26807738D01*
X5826095Y26855357D01*
X5778476Y26950595D01*
X5778476Y27760119D01*
X4873714Y27760119D02*
X5064190Y27760119D01*
X5159428Y27712500D01*
X5207047Y27664880D01*
X5302285Y27522023D01*
X5349904Y27331547D01*
X5349904Y26950595D01*
X5302285Y26855357D01*
X5254666Y26807738D01*
X5159428Y26760119D01*
X4968952Y26760119D01*
X4873714Y26807738D01*
X4826095Y26855357D01*
X4778476Y26950595D01*
X4778476Y27188690D01*
X4826095Y27283928D01*
X4873714Y27331547D01*
X4968952Y27379166D01*
X5159428Y27379166D01*
X5254666Y27331547D01*
X5302285Y27283928D01*
X5349904Y27188690D01*
%TO.C,U5*%
X32130904Y12266119D02*
X32130904Y11456595D01*
X32083285Y11361357D01*
X32035666Y11313738D01*
X31940428Y11266119D01*
X31749952Y11266119D01*
X31654714Y11313738D01*
X31607095Y11361357D01*
X31559476Y11456595D01*
X31559476Y12266119D01*
X30607095Y12266119D02*
X31083285Y12266119D01*
X31130904Y11789928D01*
X31083285Y11837547D01*
X30988047Y11885166D01*
X30749952Y11885166D01*
X30654714Y11837547D01*
X30607095Y11789928D01*
X30559476Y11694690D01*
X30559476Y11456595D01*
X30607095Y11361357D01*
X30654714Y11313738D01*
X30749952Y11266119D01*
X30988047Y11266119D01*
X31083285Y11313738D01*
X31130904Y11361357D01*
D11*
%TO.C,U6*%
X5588000Y26372500D02*
X3638000Y26372500D01*
X5588000Y21252500D02*
X7538000Y21252500D01*
X5588000Y21252500D02*
X3638000Y21252500D01*
X5588000Y26372500D02*
X9038000Y26372500D01*
%TO.C,U5*%
X31369000Y5758500D02*
X33319000Y5758500D01*
X31369000Y10878500D02*
X34819000Y10878500D01*
X31369000Y5758500D02*
X29419000Y5758500D01*
X31369000Y10878500D02*
X29419000Y10878500D01*
%TD*%
%LPC*%
D12*
%TO.C,J2*%
X35550000Y3168500D03*
D13*
X33010000Y3168500D03*
X30470000Y3168500D03*
X27930000Y3168500D03*
%TD*%
D14*
%TO.C,TP1*%
X23876000Y3111500D03*
%TD*%
D15*
%TO.C,TP9*%
X30988000Y32225500D03*
%TD*%
D16*
%TO.C,H7*%
X45200000Y31617500D03*
%TD*%
D17*
%TO.C,J5*%
X38608000Y17317500D03*
D18*
X43688000Y22397500D03*
D17*
X38608000Y19857500D03*
D18*
X43688000Y12237500D03*
%TD*%
D19*
%TO.C,J4*%
X7318000Y16085500D03*
X2418000Y15485500D03*
X7318000Y30585500D03*
X2418000Y31185500D03*
%TD*%
D16*
%TO.C,H2*%
X14100000Y3317500D03*
%TD*%
D20*
%TO.C,H3*%
X45200000Y3317500D03*
%TD*%
D14*
%TO.C,TP2*%
X22860000Y32225500D03*
%TD*%
D16*
%TO.C,H1*%
X14100000Y31617500D03*
%TD*%
D21*
%TO.C,J1*%
X4826000Y5905500D03*
D22*
X7375900Y3355600D03*
X2276100Y3355600D03*
X2276100Y8455400D03*
X7375900Y8455400D03*
%TD*%
D23*
%TO.C,U6*%
X8063000Y25717500D03*
X8063000Y24447500D03*
X8063000Y23177500D03*
X8063000Y21907500D03*
X3113000Y21907500D03*
X3113000Y23177500D03*
X3113000Y24447500D03*
X3113000Y25717500D03*
%TD*%
%TO.C,U5*%
X33844000Y10223500D03*
X33844000Y8953500D03*
X33844000Y7683500D03*
X33844000Y6413500D03*
X28894000Y6413500D03*
X28894000Y7683500D03*
X28894000Y8953500D03*
X28894000Y10223500D03*
%TD*%
M02*
