%TF.GenerationSoftware,KiCad,Pcbnew,(6.0.4-0)*%
%TF.CreationDate,2023-05-29T12:52:23-05:00*%
%TF.ProjectId,voltage_sense,766f6c74-6167-4655-9f73-656e73652e6b,rev?*%
%TF.SameCoordinates,Original*%
%TF.FileFunction,Legend,Top*%
%TF.FilePolarity,Positive*%
%FSLAX46Y46*%
G04 Gerber Fmt 4.6, Leading zero omitted, Abs format (unit mm)*
G04 Created by KiCad (PCBNEW (6.0.4-0)) date 2023-05-29 12:52:23*
%MOMM*%
%LPD*%
G01*
G04 APERTURE LIST*
G04 Aperture macros list*
%AMRoundRect*
0 Rectangle with rounded corners*
0 $1 Rounding radius*
0 $2 $3 $4 $5 $6 $7 $8 $9 X,Y pos of 4 corners*
0 Add a 4 corners polygon primitive as box body*
4,1,4,$2,$3,$4,$5,$6,$7,$8,$9,$2,$3,0*
0 Add four circle primitives for the rounded corners*
1,1,$1+$1,$2,$3*
1,1,$1+$1,$4,$5*
1,1,$1+$1,$6,$7*
1,1,$1+$1,$8,$9*
0 Add four rect primitives between the rounded corners*
20,1,$1+$1,$2,$3,$4,$5,0*
20,1,$1+$1,$4,$5,$6,$7,0*
20,1,$1+$1,$6,$7,$8,$9,0*
20,1,$1+$1,$8,$9,$2,$3,0*%
G04 Aperture macros list end*
%ADD10C,0.150000*%
%ADD11C,0.096520*%
%ADD12C,0.100000*%
%ADD13C,0.146710*%
%ADD14C,0.120000*%
%ADD15C,0.127000*%
%ADD16C,0.203200*%
%ADD17RoundRect,0.150000X-0.512500X-0.150000X0.512500X-0.150000X0.512500X0.150000X-0.512500X0.150000X0*%
%ADD18RoundRect,0.200000X-0.200000X-0.275000X0.200000X-0.275000X0.200000X0.275000X-0.200000X0.275000X0*%
%ADD19RoundRect,0.150000X0.825000X0.150000X-0.825000X0.150000X-0.825000X-0.150000X0.825000X-0.150000X0*%
%ADD20R,1.700000X1.700000*%
%ADD21O,1.700000X1.700000*%
%ADD22RoundRect,0.225000X0.250000X-0.225000X0.250000X0.225000X-0.250000X0.225000X-0.250000X-0.225000X0*%
%ADD23C,2.020000*%
%ADD24RoundRect,0.225000X-0.250000X0.225000X-0.250000X-0.225000X0.250000X-0.225000X0.250000X0.225000X0*%
%ADD25RoundRect,0.200000X0.200000X0.275000X-0.200000X0.275000X-0.200000X-0.275000X0.200000X-0.275000X0*%
%ADD26RoundRect,0.200000X0.275000X-0.200000X0.275000X0.200000X-0.275000X0.200000X-0.275000X-0.200000X0*%
%ADD27R,0.600000X0.420000*%
%ADD28RoundRect,0.225000X-0.225000X-0.250000X0.225000X-0.250000X0.225000X0.250000X-0.225000X0.250000X0*%
%ADD29C,2.000000*%
%ADD30C,2.200000*%
%ADD31O,2.500000X1.600000*%
%ADD32O,7.000000X3.500000*%
%ADD33RoundRect,0.101600X-0.950000X0.150000X-0.950000X-0.150000X0.950000X-0.150000X0.950000X0.150000X0*%
%ADD34RoundRect,0.100000X-0.950000X0.150000X-0.950000X-0.150000X0.950000X-0.150000X0.950000X0.150000X0*%
%ADD35C,2.153200*%
%ADD36RoundRect,0.200000X-0.275000X0.200000X-0.275000X-0.200000X0.275000X-0.200000X0.275000X0.200000X0*%
%ADD37C,4.400000*%
%ADD38RoundRect,0.225000X0.225000X0.250000X-0.225000X0.250000X-0.225000X-0.250000X0.225000X-0.250000X0*%
%ADD39R,2.790000X1.190000*%
%ADD40C,2.108200*%
%ADD41C,2.870200*%
G04 APERTURE END LIST*
D10*
%TO.C,U3*%
X23114095Y20283119D02*
X23114095Y19473595D01*
X23161714Y19378357D01*
X23209333Y19330738D01*
X23304571Y19283119D01*
X23495047Y19283119D01*
X23590285Y19330738D01*
X23637904Y19378357D01*
X23685523Y19473595D01*
X23685523Y20283119D01*
X24066476Y20283119D02*
X24685523Y20283119D01*
X24352190Y19902166D01*
X24495047Y19902166D01*
X24590285Y19854547D01*
X24637904Y19806928D01*
X24685523Y19711690D01*
X24685523Y19473595D01*
X24637904Y19378357D01*
X24590285Y19330738D01*
X24495047Y19283119D01*
X24209333Y19283119D01*
X24114095Y19330738D01*
X24066476Y19378357D01*
%TO.C,R10*%
X17137142Y13899119D02*
X16803809Y14375309D01*
X16565714Y13899119D02*
X16565714Y14899119D01*
X16946666Y14899119D01*
X17041904Y14851500D01*
X17089523Y14803880D01*
X17137142Y14708642D01*
X17137142Y14565785D01*
X17089523Y14470547D01*
X17041904Y14422928D01*
X16946666Y14375309D01*
X16565714Y14375309D01*
X18089523Y13899119D02*
X17518095Y13899119D01*
X17803809Y13899119D02*
X17803809Y14899119D01*
X17708571Y14756261D01*
X17613333Y14661023D01*
X17518095Y14613404D01*
X18708571Y14899119D02*
X18803809Y14899119D01*
X18899047Y14851500D01*
X18946666Y14803880D01*
X18994285Y14708642D01*
X19041904Y14518166D01*
X19041904Y14280071D01*
X18994285Y14089595D01*
X18946666Y13994357D01*
X18899047Y13946738D01*
X18803809Y13899119D01*
X18708571Y13899119D01*
X18613333Y13946738D01*
X18565714Y13994357D01*
X18518095Y14089595D01*
X18470476Y14280071D01*
X18470476Y14518166D01*
X18518095Y14708642D01*
X18565714Y14803880D01*
X18613333Y14851500D01*
X18708571Y14899119D01*
%TO.C,U2*%
X30734095Y13975119D02*
X30734095Y13165595D01*
X30781714Y13070357D01*
X30829333Y13022738D01*
X30924571Y12975119D01*
X31115047Y12975119D01*
X31210285Y13022738D01*
X31257904Y13070357D01*
X31305523Y13165595D01*
X31305523Y13975119D01*
X31734095Y13879880D02*
X31781714Y13927500D01*
X31876952Y13975119D01*
X32115047Y13975119D01*
X32210285Y13927500D01*
X32257904Y13879880D01*
X32305523Y13784642D01*
X32305523Y13689404D01*
X32257904Y13546547D01*
X31686476Y12975119D01*
X32305523Y12975119D01*
%TO.C,J2*%
X37272380Y-1549833D02*
X37986666Y-1549833D01*
X38129523Y-1597452D01*
X38224761Y-1692690D01*
X38272380Y-1835547D01*
X38272380Y-1930785D01*
X37367619Y-1121261D02*
X37320000Y-1073642D01*
X37272380Y-978404D01*
X37272380Y-740309D01*
X37320000Y-645071D01*
X37367619Y-597452D01*
X37462857Y-549833D01*
X37558095Y-549833D01*
X37700952Y-597452D01*
X38272380Y-1168880D01*
X38272380Y-549833D01*
%TO.C,R13*%
X25773142Y27361119D02*
X25439809Y27837309D01*
X25201714Y27361119D02*
X25201714Y28361119D01*
X25582666Y28361119D01*
X25677904Y28313500D01*
X25725523Y28265880D01*
X25773142Y28170642D01*
X25773142Y28027785D01*
X25725523Y27932547D01*
X25677904Y27884928D01*
X25582666Y27837309D01*
X25201714Y27837309D01*
X26725523Y27361119D02*
X26154095Y27361119D01*
X26439809Y27361119D02*
X26439809Y28361119D01*
X26344571Y28218261D01*
X26249333Y28123023D01*
X26154095Y28075404D01*
X27058857Y28361119D02*
X27677904Y28361119D01*
X27344571Y27980166D01*
X27487428Y27980166D01*
X27582666Y27932547D01*
X27630285Y27884928D01*
X27677904Y27789690D01*
X27677904Y27551595D01*
X27630285Y27456357D01*
X27582666Y27408738D01*
X27487428Y27361119D01*
X27201714Y27361119D01*
X27106476Y27408738D01*
X27058857Y27456357D01*
%TO.C,C6*%
X38424142Y30630833D02*
X38471761Y30583214D01*
X38519380Y30440357D01*
X38519380Y30345119D01*
X38471761Y30202261D01*
X38376523Y30107023D01*
X38281285Y30059404D01*
X38090809Y30011785D01*
X37947952Y30011785D01*
X37757476Y30059404D01*
X37662238Y30107023D01*
X37567000Y30202261D01*
X37519380Y30345119D01*
X37519380Y30440357D01*
X37567000Y30583214D01*
X37614619Y30630833D01*
X37519380Y31487976D02*
X37519380Y31297500D01*
X37567000Y31202261D01*
X37614619Y31154642D01*
X37757476Y31059404D01*
X37947952Y31011785D01*
X38328904Y31011785D01*
X38424142Y31059404D01*
X38471761Y31107023D01*
X38519380Y31202261D01*
X38519380Y31392738D01*
X38471761Y31487976D01*
X38424142Y31535595D01*
X38328904Y31583214D01*
X38090809Y31583214D01*
X37995571Y31535595D01*
X37947952Y31487976D01*
X37900333Y31392738D01*
X37900333Y31202261D01*
X37947952Y31107023D01*
X37995571Y31059404D01*
X38090809Y31011785D01*
%TO.C,C7*%
X27375142Y11834833D02*
X27422761Y11787214D01*
X27470380Y11644357D01*
X27470380Y11549119D01*
X27422761Y11406261D01*
X27327523Y11311023D01*
X27232285Y11263404D01*
X27041809Y11215785D01*
X26898952Y11215785D01*
X26708476Y11263404D01*
X26613238Y11311023D01*
X26518000Y11406261D01*
X26470380Y11549119D01*
X26470380Y11644357D01*
X26518000Y11787214D01*
X26565619Y11834833D01*
X26470380Y12168166D02*
X26470380Y12834833D01*
X27470380Y12406261D01*
%TO.C,TP1*%
X22487095Y5945119D02*
X23058523Y5945119D01*
X22772809Y4945119D02*
X22772809Y5945119D01*
X23391857Y4945119D02*
X23391857Y5945119D01*
X23772809Y5945119D01*
X23868047Y5897500D01*
X23915666Y5849880D01*
X23963285Y5754642D01*
X23963285Y5611785D01*
X23915666Y5516547D01*
X23868047Y5468928D01*
X23772809Y5421309D01*
X23391857Y5421309D01*
X24915666Y4945119D02*
X24344238Y4945119D01*
X24629952Y4945119D02*
X24629952Y5945119D01*
X24534714Y5802261D01*
X24439476Y5707023D01*
X24344238Y5659404D01*
%TO.C,R4*%
X10755333Y18057119D02*
X10422000Y18533309D01*
X10183904Y18057119D02*
X10183904Y19057119D01*
X10564857Y19057119D01*
X10660095Y19009500D01*
X10707714Y18961880D01*
X10755333Y18866642D01*
X10755333Y18723785D01*
X10707714Y18628547D01*
X10660095Y18580928D01*
X10564857Y18533309D01*
X10183904Y18533309D01*
X11612476Y18723785D02*
X11612476Y18057119D01*
X11374380Y19104738D02*
X11136285Y18390452D01*
X11755333Y18390452D01*
%TO.C,C31*%
X10533142Y16216357D02*
X10485523Y16168738D01*
X10342666Y16121119D01*
X10247428Y16121119D01*
X10104571Y16168738D01*
X10009333Y16263976D01*
X9961714Y16359214D01*
X9914095Y16549690D01*
X9914095Y16692547D01*
X9961714Y16883023D01*
X10009333Y16978261D01*
X10104571Y17073500D01*
X10247428Y17121119D01*
X10342666Y17121119D01*
X10485523Y17073500D01*
X10533142Y17025880D01*
X10866476Y17121119D02*
X11485523Y17121119D01*
X11152190Y16740166D01*
X11295047Y16740166D01*
X11390285Y16692547D01*
X11437904Y16644928D01*
X11485523Y16549690D01*
X11485523Y16311595D01*
X11437904Y16216357D01*
X11390285Y16168738D01*
X11295047Y16121119D01*
X11009333Y16121119D01*
X10914095Y16168738D01*
X10866476Y16216357D01*
X12437904Y16121119D02*
X11866476Y16121119D01*
X12152190Y16121119D02*
X12152190Y17121119D01*
X12056952Y16978261D01*
X11961714Y16883023D01*
X11866476Y16835404D01*
%TO.C,R6*%
X24090333Y13899119D02*
X23757000Y14375309D01*
X23518904Y13899119D02*
X23518904Y14899119D01*
X23899857Y14899119D01*
X23995095Y14851500D01*
X24042714Y14803880D01*
X24090333Y14708642D01*
X24090333Y14565785D01*
X24042714Y14470547D01*
X23995095Y14422928D01*
X23899857Y14375309D01*
X23518904Y14375309D01*
X24947476Y14899119D02*
X24757000Y14899119D01*
X24661761Y14851500D01*
X24614142Y14803880D01*
X24518904Y14661023D01*
X24471285Y14470547D01*
X24471285Y14089595D01*
X24518904Y13994357D01*
X24566523Y13946738D01*
X24661761Y13899119D01*
X24852238Y13899119D01*
X24947476Y13946738D01*
X24995095Y13994357D01*
X25042714Y14089595D01*
X25042714Y14327690D01*
X24995095Y14422928D01*
X24947476Y14470547D01*
X24852238Y14518166D01*
X24661761Y14518166D01*
X24566523Y14470547D01*
X24518904Y14422928D01*
X24471285Y14327690D01*
%TO.C,C8*%
X19374142Y16914833D02*
X19421761Y16867214D01*
X19469380Y16724357D01*
X19469380Y16629119D01*
X19421761Y16486261D01*
X19326523Y16391023D01*
X19231285Y16343404D01*
X19040809Y16295785D01*
X18897952Y16295785D01*
X18707476Y16343404D01*
X18612238Y16391023D01*
X18517000Y16486261D01*
X18469380Y16629119D01*
X18469380Y16724357D01*
X18517000Y16867214D01*
X18564619Y16914833D01*
X18897952Y17486261D02*
X18850333Y17391023D01*
X18802714Y17343404D01*
X18707476Y17295785D01*
X18659857Y17295785D01*
X18564619Y17343404D01*
X18517000Y17391023D01*
X18469380Y17486261D01*
X18469380Y17676738D01*
X18517000Y17771976D01*
X18564619Y17819595D01*
X18659857Y17867214D01*
X18707476Y17867214D01*
X18802714Y17819595D01*
X18850333Y17771976D01*
X18897952Y17676738D01*
X18897952Y17486261D01*
X18945571Y17391023D01*
X18993190Y17343404D01*
X19088428Y17295785D01*
X19278904Y17295785D01*
X19374142Y17343404D01*
X19421761Y17391023D01*
X19469380Y17486261D01*
X19469380Y17676738D01*
X19421761Y17771976D01*
X19374142Y17819595D01*
X19278904Y17867214D01*
X19088428Y17867214D01*
X18993190Y17819595D01*
X18945571Y17771976D01*
X18897952Y17676738D01*
%TO.C,R66*%
X21455142Y10787119D02*
X21121809Y11263309D01*
X20883714Y10787119D02*
X20883714Y11787119D01*
X21264666Y11787119D01*
X21359904Y11739500D01*
X21407523Y11691880D01*
X21455142Y11596642D01*
X21455142Y11453785D01*
X21407523Y11358547D01*
X21359904Y11310928D01*
X21264666Y11263309D01*
X20883714Y11263309D01*
X22312285Y11787119D02*
X22121809Y11787119D01*
X22026571Y11739500D01*
X21978952Y11691880D01*
X21883714Y11549023D01*
X21836095Y11358547D01*
X21836095Y10977595D01*
X21883714Y10882357D01*
X21931333Y10834738D01*
X22026571Y10787119D01*
X22217047Y10787119D01*
X22312285Y10834738D01*
X22359904Y10882357D01*
X22407523Y10977595D01*
X22407523Y11215690D01*
X22359904Y11310928D01*
X22312285Y11358547D01*
X22217047Y11406166D01*
X22026571Y11406166D01*
X21931333Y11358547D01*
X21883714Y11310928D01*
X21836095Y11215690D01*
X23264666Y11787119D02*
X23074190Y11787119D01*
X22978952Y11739500D01*
X22931333Y11691880D01*
X22836095Y11549023D01*
X22788476Y11358547D01*
X22788476Y10977595D01*
X22836095Y10882357D01*
X22883714Y10834738D01*
X22978952Y10787119D01*
X23169428Y10787119D01*
X23264666Y10834738D01*
X23312285Y10882357D01*
X23359904Y10977595D01*
X23359904Y11215690D01*
X23312285Y11310928D01*
X23264666Y11358547D01*
X23169428Y11406166D01*
X22978952Y11406166D01*
X22883714Y11358547D01*
X22836095Y11310928D01*
X22788476Y11215690D01*
%TO.C,R71*%
X40170380Y3484642D02*
X39694190Y3151309D01*
X40170380Y2913214D02*
X39170380Y2913214D01*
X39170380Y3294166D01*
X39218000Y3389404D01*
X39265619Y3437023D01*
X39360857Y3484642D01*
X39503714Y3484642D01*
X39598952Y3437023D01*
X39646571Y3389404D01*
X39694190Y3294166D01*
X39694190Y2913214D01*
X39170380Y3817976D02*
X39170380Y4484642D01*
X40170380Y4056071D01*
X40170380Y5389404D02*
X40170380Y4817976D01*
X40170380Y5103690D02*
X39170380Y5103690D01*
X39313238Y5008452D01*
X39408476Y4913214D01*
X39456095Y4817976D01*
%TO.C,C32*%
X35503142Y30154642D02*
X35550761Y30107023D01*
X35598380Y29964166D01*
X35598380Y29868928D01*
X35550761Y29726071D01*
X35455523Y29630833D01*
X35360285Y29583214D01*
X35169809Y29535595D01*
X35026952Y29535595D01*
X34836476Y29583214D01*
X34741238Y29630833D01*
X34646000Y29726071D01*
X34598380Y29868928D01*
X34598380Y29964166D01*
X34646000Y30107023D01*
X34693619Y30154642D01*
X34598380Y30487976D02*
X34598380Y31107023D01*
X34979333Y30773690D01*
X34979333Y30916547D01*
X35026952Y31011785D01*
X35074571Y31059404D01*
X35169809Y31107023D01*
X35407904Y31107023D01*
X35503142Y31059404D01*
X35550761Y31011785D01*
X35598380Y30916547D01*
X35598380Y30630833D01*
X35550761Y30535595D01*
X35503142Y30487976D01*
X34693619Y31487976D02*
X34646000Y31535595D01*
X34598380Y31630833D01*
X34598380Y31868928D01*
X34646000Y31964166D01*
X34693619Y32011785D01*
X34788857Y32059404D01*
X34884095Y32059404D01*
X35026952Y32011785D01*
X35598380Y31440357D01*
X35598380Y32059404D01*
%TO.C,R16*%
X15105142Y10787119D02*
X14771809Y11263309D01*
X14533714Y10787119D02*
X14533714Y11787119D01*
X14914666Y11787119D01*
X15009904Y11739500D01*
X15057523Y11691880D01*
X15105142Y11596642D01*
X15105142Y11453785D01*
X15057523Y11358547D01*
X15009904Y11310928D01*
X14914666Y11263309D01*
X14533714Y11263309D01*
X16057523Y10787119D02*
X15486095Y10787119D01*
X15771809Y10787119D02*
X15771809Y11787119D01*
X15676571Y11644261D01*
X15581333Y11549023D01*
X15486095Y11501404D01*
X16914666Y11787119D02*
X16724190Y11787119D01*
X16628952Y11739500D01*
X16581333Y11691880D01*
X16486095Y11549023D01*
X16438476Y11358547D01*
X16438476Y10977595D01*
X16486095Y10882357D01*
X16533714Y10834738D01*
X16628952Y10787119D01*
X16819428Y10787119D01*
X16914666Y10834738D01*
X16962285Y10882357D01*
X17009904Y10977595D01*
X17009904Y11215690D01*
X16962285Y11310928D01*
X16914666Y11358547D01*
X16819428Y11406166D01*
X16628952Y11406166D01*
X16533714Y11358547D01*
X16486095Y11310928D01*
X16438476Y11215690D01*
%TO.C,U4*%
X25106380Y28796595D02*
X25915904Y28796595D01*
X26011142Y28844214D01*
X26058761Y28891833D01*
X26106380Y28987071D01*
X26106380Y29177547D01*
X26058761Y29272785D01*
X26011142Y29320404D01*
X25915904Y29368023D01*
X25106380Y29368023D01*
X25439714Y30272785D02*
X26106380Y30272785D01*
X25058761Y30034690D02*
X25773047Y29796595D01*
X25773047Y30415642D01*
%TO.C,IC1*%
X13755809Y18933119D02*
X13755809Y19933119D01*
X14803428Y19028357D02*
X14755809Y18980738D01*
X14612952Y18933119D01*
X14517714Y18933119D01*
X14374857Y18980738D01*
X14279619Y19075976D01*
X14232000Y19171214D01*
X14184380Y19361690D01*
X14184380Y19504547D01*
X14232000Y19695023D01*
X14279619Y19790261D01*
X14374857Y19885500D01*
X14517714Y19933119D01*
X14612952Y19933119D01*
X14755809Y19885500D01*
X14803428Y19837880D01*
X15755809Y18933119D02*
X15184380Y18933119D01*
X15470095Y18933119D02*
X15470095Y19933119D01*
X15374857Y19790261D01*
X15279619Y19695023D01*
X15184380Y19647404D01*
%TO.C,C11*%
X20489942Y13994357D02*
X20442323Y13946738D01*
X20299466Y13899119D01*
X20204228Y13899119D01*
X20061371Y13946738D01*
X19966133Y14041976D01*
X19918514Y14137214D01*
X19870895Y14327690D01*
X19870895Y14470547D01*
X19918514Y14661023D01*
X19966133Y14756261D01*
X20061371Y14851500D01*
X20204228Y14899119D01*
X20299466Y14899119D01*
X20442323Y14851500D01*
X20489942Y14803880D01*
X21442323Y13899119D02*
X20870895Y13899119D01*
X21156609Y13899119D02*
X21156609Y14899119D01*
X21061371Y14756261D01*
X20966133Y14661023D01*
X20870895Y14613404D01*
X22394704Y13899119D02*
X21823276Y13899119D01*
X22108990Y13899119D02*
X22108990Y14899119D01*
X22013752Y14756261D01*
X21918514Y14661023D01*
X21823276Y14613404D01*
%TO.C,TP9*%
X32599380Y30963595D02*
X32599380Y31535023D01*
X33599380Y31249309D02*
X32599380Y31249309D01*
X33599380Y31868357D02*
X32599380Y31868357D01*
X32599380Y32249309D01*
X32647000Y32344547D01*
X32694619Y32392166D01*
X32789857Y32439785D01*
X32932714Y32439785D01*
X33027952Y32392166D01*
X33075571Y32344547D01*
X33123190Y32249309D01*
X33123190Y31868357D01*
X33599380Y32915976D02*
X33599380Y33106452D01*
X33551761Y33201690D01*
X33504142Y33249309D01*
X33361285Y33344547D01*
X33170809Y33392166D01*
X32789857Y33392166D01*
X32694619Y33344547D01*
X32647000Y33296928D01*
X32599380Y33201690D01*
X32599380Y33011214D01*
X32647000Y32915976D01*
X32694619Y32868357D01*
X32789857Y32820738D01*
X33027952Y32820738D01*
X33123190Y32868357D01*
X33170809Y32915976D01*
X33218428Y33011214D01*
X33218428Y33201690D01*
X33170809Y33296928D01*
X33123190Y33344547D01*
X33027952Y33392166D01*
%TO.C,H7*%
X43955495Y29025119D02*
X43955495Y30025119D01*
X43955495Y29548928D02*
X44526923Y29548928D01*
X44526923Y29025119D02*
X44526923Y30025119D01*
X44907876Y30025119D02*
X45574542Y30025119D01*
X45145971Y29025119D01*
%TO.C,R11*%
X27170142Y30409119D02*
X26836809Y30885309D01*
X26598714Y30409119D02*
X26598714Y31409119D01*
X26979666Y31409119D01*
X27074904Y31361500D01*
X27122523Y31313880D01*
X27170142Y31218642D01*
X27170142Y31075785D01*
X27122523Y30980547D01*
X27074904Y30932928D01*
X26979666Y30885309D01*
X26598714Y30885309D01*
X28122523Y30409119D02*
X27551095Y30409119D01*
X27836809Y30409119D02*
X27836809Y31409119D01*
X27741571Y31266261D01*
X27646333Y31171023D01*
X27551095Y31123404D01*
X29074904Y30409119D02*
X28503476Y30409119D01*
X28789190Y30409119D02*
X28789190Y31409119D01*
X28693952Y31266261D01*
X28598714Y31171023D01*
X28503476Y31123404D01*
%TO.C,J5*%
X36496666Y26646119D02*
X36496666Y25931833D01*
X36449047Y25788976D01*
X36353809Y25693738D01*
X36210952Y25646119D01*
X36115714Y25646119D01*
X37449047Y26646119D02*
X36972857Y26646119D01*
X36925238Y26169928D01*
X36972857Y26217547D01*
X37068095Y26265166D01*
X37306190Y26265166D01*
X37401428Y26217547D01*
X37449047Y26169928D01*
X37496666Y26074690D01*
X37496666Y25836595D01*
X37449047Y25741357D01*
X37401428Y25693738D01*
X37306190Y25646119D01*
X37068095Y25646119D01*
X36972857Y25693738D01*
X36925238Y25741357D01*
D11*
%TO.C,J4*%
X1577297Y22933333D02*
X2439083Y22933333D01*
X2611440Y22875880D01*
X2726345Y22760976D01*
X2783797Y22588619D01*
X2783797Y22473714D01*
X1979464Y24024928D02*
X2783797Y24024928D01*
X1519845Y23737666D02*
X2381630Y23450404D01*
X2381630Y24197285D01*
D12*
X60857Y20325976D02*
X98952Y20440261D01*
X137047Y20478357D01*
X213238Y20516452D01*
X327523Y20516452D01*
X403714Y20478357D01*
X441809Y20440261D01*
X479904Y20364071D01*
X479904Y20059309D01*
X-320095Y20059309D01*
X-320095Y20325976D01*
X-282000Y20402166D01*
X-243904Y20440261D01*
X-167714Y20478357D01*
X-91523Y20478357D01*
X-15333Y20440261D01*
X22761Y20402166D01*
X60857Y20325976D01*
X60857Y20059309D01*
X479904Y20973595D02*
X441809Y20897404D01*
X403714Y20859309D01*
X327523Y20821214D01*
X98952Y20821214D01*
X22761Y20859309D01*
X-15333Y20897404D01*
X-53428Y20973595D01*
X-53428Y21087880D01*
X-15333Y21164071D01*
X22761Y21202166D01*
X98952Y21240261D01*
X327523Y21240261D01*
X403714Y21202166D01*
X441809Y21164071D01*
X479904Y21087880D01*
X479904Y20973595D01*
X479904Y21925976D02*
X60857Y21925976D01*
X-15333Y21887880D01*
X-53428Y21811690D01*
X-53428Y21659309D01*
X-15333Y21583119D01*
X441809Y21925976D02*
X479904Y21849785D01*
X479904Y21659309D01*
X441809Y21583119D01*
X365619Y21545023D01*
X289428Y21545023D01*
X213238Y21583119D01*
X175142Y21659309D01*
X175142Y21849785D01*
X137047Y21925976D01*
X479904Y22306928D02*
X-53428Y22306928D01*
X98952Y22306928D02*
X22761Y22345023D01*
X-15333Y22383119D01*
X-53428Y22459309D01*
X-53428Y22535500D01*
X479904Y23145023D02*
X-320095Y23145023D01*
X441809Y23145023D02*
X479904Y23068833D01*
X479904Y22916452D01*
X441809Y22840261D01*
X403714Y22802166D01*
X327523Y22764071D01*
X98952Y22764071D01*
X22761Y22802166D01*
X-15333Y22840261D01*
X-53428Y22916452D01*
X-53428Y23068833D01*
X-15333Y23145023D01*
X60857Y24135500D02*
X60857Y24402166D01*
X479904Y24516452D02*
X479904Y24135500D01*
X-320095Y24135500D01*
X-320095Y24516452D01*
X479904Y25202166D02*
X-320095Y25202166D01*
X441809Y25202166D02*
X479904Y25125976D01*
X479904Y24973595D01*
X441809Y24897404D01*
X403714Y24859309D01*
X327523Y24821214D01*
X98952Y24821214D01*
X22761Y24859309D01*
X-15333Y24897404D01*
X-53428Y24973595D01*
X-53428Y25125976D01*
X-15333Y25202166D01*
X-53428Y25925976D02*
X594190Y25925976D01*
X670380Y25887880D01*
X708476Y25849785D01*
X746571Y25773595D01*
X746571Y25659309D01*
X708476Y25583119D01*
X441809Y25925976D02*
X479904Y25849785D01*
X479904Y25697404D01*
X441809Y25621214D01*
X403714Y25583119D01*
X327523Y25545023D01*
X98952Y25545023D01*
X22761Y25583119D01*
X-15333Y25621214D01*
X-53428Y25697404D01*
X-53428Y25849785D01*
X-15333Y25925976D01*
X441809Y26611690D02*
X479904Y26535500D01*
X479904Y26383119D01*
X441809Y26306928D01*
X365619Y26268833D01*
X60857Y26268833D01*
X-15333Y26306928D01*
X-53428Y26383119D01*
X-53428Y26535500D01*
X-15333Y26611690D01*
X60857Y26649785D01*
X137047Y26649785D01*
X213238Y26268833D01*
D10*
%TO.C,U1*%
X23114095Y25521119D02*
X23114095Y24711595D01*
X23161714Y24616357D01*
X23209333Y24568738D01*
X23304571Y24521119D01*
X23495047Y24521119D01*
X23590285Y24568738D01*
X23637904Y24616357D01*
X23685523Y24711595D01*
X23685523Y25521119D01*
X24685523Y24521119D02*
X24114095Y24521119D01*
X24399809Y24521119D02*
X24399809Y25521119D01*
X24304571Y25378261D01*
X24209333Y25283023D01*
X24114095Y25235404D01*
%TO.C,H2*%
X13338095Y6065119D02*
X13338095Y7065119D01*
X13338095Y6588928D02*
X13909523Y6588928D01*
X13909523Y6065119D02*
X13909523Y7065119D01*
X14338095Y6969880D02*
X14385714Y7017500D01*
X14480952Y7065119D01*
X14719047Y7065119D01*
X14814285Y7017500D01*
X14861904Y6969880D01*
X14909523Y6874642D01*
X14909523Y6779404D01*
X14861904Y6636547D01*
X14290476Y6065119D01*
X14909523Y6065119D01*
%TO.C,R1*%
X12550380Y28471833D02*
X12074190Y28138500D01*
X12550380Y27900404D02*
X11550380Y27900404D01*
X11550380Y28281357D01*
X11598000Y28376595D01*
X11645619Y28424214D01*
X11740857Y28471833D01*
X11883714Y28471833D01*
X11978952Y28424214D01*
X12026571Y28376595D01*
X12074190Y28281357D01*
X12074190Y27900404D01*
X12550380Y29424214D02*
X12550380Y28852785D01*
X12550380Y29138500D02*
X11550380Y29138500D01*
X11693238Y29043261D01*
X11788476Y28948023D01*
X11836095Y28852785D01*
%TO.C,H3*%
X44438095Y6065119D02*
X44438095Y7065119D01*
X44438095Y6588928D02*
X45009523Y6588928D01*
X45009523Y6065119D02*
X45009523Y7065119D01*
X45390476Y7065119D02*
X46009523Y7065119D01*
X45676190Y6684166D01*
X45819047Y6684166D01*
X45914285Y6636547D01*
X45961904Y6588928D01*
X46009523Y6493690D01*
X46009523Y6255595D01*
X45961904Y6160357D01*
X45914285Y6112738D01*
X45819047Y6065119D01*
X45533333Y6065119D01*
X45438095Y6112738D01*
X45390476Y6160357D01*
%TO.C,R12*%
X34028142Y9295119D02*
X33694809Y9771309D01*
X33456714Y9295119D02*
X33456714Y10295119D01*
X33837666Y10295119D01*
X33932904Y10247500D01*
X33980523Y10199880D01*
X34028142Y10104642D01*
X34028142Y9961785D01*
X33980523Y9866547D01*
X33932904Y9818928D01*
X33837666Y9771309D01*
X33456714Y9771309D01*
X34980523Y9295119D02*
X34409095Y9295119D01*
X34694809Y9295119D02*
X34694809Y10295119D01*
X34599571Y10152261D01*
X34504333Y10057023D01*
X34409095Y10009404D01*
X35361476Y10199880D02*
X35409095Y10247500D01*
X35504333Y10295119D01*
X35742428Y10295119D01*
X35837666Y10247500D01*
X35885285Y10199880D01*
X35932904Y10104642D01*
X35932904Y10009404D01*
X35885285Y9866547D01*
X35313857Y9295119D01*
X35932904Y9295119D01*
%TO.C,TP2*%
X24852380Y30963595D02*
X24852380Y31535023D01*
X25852380Y31249309D02*
X24852380Y31249309D01*
X25852380Y31868357D02*
X24852380Y31868357D01*
X24852380Y32249309D01*
X24900000Y32344547D01*
X24947619Y32392166D01*
X25042857Y32439785D01*
X25185714Y32439785D01*
X25280952Y32392166D01*
X25328571Y32344547D01*
X25376190Y32249309D01*
X25376190Y31868357D01*
X24947619Y32820738D02*
X24900000Y32868357D01*
X24852380Y32963595D01*
X24852380Y33201690D01*
X24900000Y33296928D01*
X24947619Y33344547D01*
X25042857Y33392166D01*
X25138095Y33392166D01*
X25280952Y33344547D01*
X25852380Y32773119D01*
X25852380Y33392166D01*
%TO.C,R18*%
X10787142Y21199119D02*
X10453809Y21675309D01*
X10215714Y21199119D02*
X10215714Y22199119D01*
X10596666Y22199119D01*
X10691904Y22151500D01*
X10739523Y22103880D01*
X10787142Y22008642D01*
X10787142Y21865785D01*
X10739523Y21770547D01*
X10691904Y21722928D01*
X10596666Y21675309D01*
X10215714Y21675309D01*
X11739523Y21199119D02*
X11168095Y21199119D01*
X11453809Y21199119D02*
X11453809Y22199119D01*
X11358571Y22056261D01*
X11263333Y21961023D01*
X11168095Y21913404D01*
X12310952Y21770547D02*
X12215714Y21818166D01*
X12168095Y21865785D01*
X12120476Y21961023D01*
X12120476Y22008642D01*
X12168095Y22103880D01*
X12215714Y22151500D01*
X12310952Y22199119D01*
X12501428Y22199119D01*
X12596666Y22151500D01*
X12644285Y22103880D01*
X12691904Y22008642D01*
X12691904Y21961023D01*
X12644285Y21865785D01*
X12596666Y21818166D01*
X12501428Y21770547D01*
X12310952Y21770547D01*
X12215714Y21722928D01*
X12168095Y21675309D01*
X12120476Y21580071D01*
X12120476Y21389595D01*
X12168095Y21294357D01*
X12215714Y21246738D01*
X12310952Y21199119D01*
X12501428Y21199119D01*
X12596666Y21246738D01*
X12644285Y21294357D01*
X12691904Y21389595D01*
X12691904Y21580071D01*
X12644285Y21675309D01*
X12596666Y21722928D01*
X12501428Y21770547D01*
%TO.C,C19*%
X24741142Y7294642D02*
X24788761Y7247023D01*
X24836380Y7104166D01*
X24836380Y7008928D01*
X24788761Y6866071D01*
X24693523Y6770833D01*
X24598285Y6723214D01*
X24407809Y6675595D01*
X24264952Y6675595D01*
X24074476Y6723214D01*
X23979238Y6770833D01*
X23884000Y6866071D01*
X23836380Y7008928D01*
X23836380Y7104166D01*
X23884000Y7247023D01*
X23931619Y7294642D01*
X24836380Y8247023D02*
X24836380Y7675595D01*
X24836380Y7961309D02*
X23836380Y7961309D01*
X23979238Y7866071D01*
X24074476Y7770833D01*
X24122095Y7675595D01*
X24836380Y8723214D02*
X24836380Y8913690D01*
X24788761Y9008928D01*
X24741142Y9056547D01*
X24598285Y9151785D01*
X24407809Y9199404D01*
X24026857Y9199404D01*
X23931619Y9151785D01*
X23884000Y9104166D01*
X23836380Y9008928D01*
X23836380Y8818452D01*
X23884000Y8723214D01*
X23931619Y8675595D01*
X24026857Y8627976D01*
X24264952Y8627976D01*
X24360190Y8675595D01*
X24407809Y8723214D01*
X24455428Y8818452D01*
X24455428Y9008928D01*
X24407809Y9104166D01*
X24360190Y9151785D01*
X24264952Y9199404D01*
%TO.C,C12*%
X13581142Y13994357D02*
X13533523Y13946738D01*
X13390666Y13899119D01*
X13295428Y13899119D01*
X13152571Y13946738D01*
X13057333Y14041976D01*
X13009714Y14137214D01*
X12962095Y14327690D01*
X12962095Y14470547D01*
X13009714Y14661023D01*
X13057333Y14756261D01*
X13152571Y14851500D01*
X13295428Y14899119D01*
X13390666Y14899119D01*
X13533523Y14851500D01*
X13581142Y14803880D01*
X14533523Y13899119D02*
X13962095Y13899119D01*
X14247809Y13899119D02*
X14247809Y14899119D01*
X14152571Y14756261D01*
X14057333Y14661023D01*
X13962095Y14613404D01*
X14914476Y14803880D02*
X14962095Y14851500D01*
X15057333Y14899119D01*
X15295428Y14899119D01*
X15390666Y14851500D01*
X15438285Y14803880D01*
X15485904Y14708642D01*
X15485904Y14613404D01*
X15438285Y14470547D01*
X14866857Y13899119D01*
X15485904Y13899119D01*
%TO.C,RV1*%
X16676761Y28725119D02*
X16343428Y29201309D01*
X16105333Y28725119D02*
X16105333Y29725119D01*
X16486285Y29725119D01*
X16581523Y29677500D01*
X16629142Y29629880D01*
X16676761Y29534642D01*
X16676761Y29391785D01*
X16629142Y29296547D01*
X16581523Y29248928D01*
X16486285Y29201309D01*
X16105333Y29201309D01*
X16962476Y29725119D02*
X17295809Y28725119D01*
X17629142Y29725119D01*
X18486285Y28725119D02*
X17914857Y28725119D01*
X18200571Y28725119D02*
X18200571Y29725119D01*
X18105333Y29582261D01*
X18010095Y29487023D01*
X17914857Y29439404D01*
%TO.C,C10*%
X28948142Y25993357D02*
X28900523Y25945738D01*
X28757666Y25898119D01*
X28662428Y25898119D01*
X28519571Y25945738D01*
X28424333Y26040976D01*
X28376714Y26136214D01*
X28329095Y26326690D01*
X28329095Y26469547D01*
X28376714Y26660023D01*
X28424333Y26755261D01*
X28519571Y26850500D01*
X28662428Y26898119D01*
X28757666Y26898119D01*
X28900523Y26850500D01*
X28948142Y26802880D01*
X29900523Y25898119D02*
X29329095Y25898119D01*
X29614809Y25898119D02*
X29614809Y26898119D01*
X29519571Y26755261D01*
X29424333Y26660023D01*
X29329095Y26612404D01*
X30519571Y26898119D02*
X30614809Y26898119D01*
X30710047Y26850500D01*
X30757666Y26802880D01*
X30805285Y26707642D01*
X30852904Y26517166D01*
X30852904Y26279071D01*
X30805285Y26088595D01*
X30757666Y25993357D01*
X30710047Y25945738D01*
X30614809Y25898119D01*
X30519571Y25898119D01*
X30424333Y25945738D01*
X30376714Y25993357D01*
X30329095Y26088595D01*
X30281476Y26279071D01*
X30281476Y26517166D01*
X30329095Y26707642D01*
X30376714Y26802880D01*
X30424333Y26850500D01*
X30519571Y26898119D01*
%TO.C,R15*%
X11676142Y10914119D02*
X11342809Y11390309D01*
X11104714Y10914119D02*
X11104714Y11914119D01*
X11485666Y11914119D01*
X11580904Y11866500D01*
X11628523Y11818880D01*
X11676142Y11723642D01*
X11676142Y11580785D01*
X11628523Y11485547D01*
X11580904Y11437928D01*
X11485666Y11390309D01*
X11104714Y11390309D01*
X12628523Y10914119D02*
X12057095Y10914119D01*
X12342809Y10914119D02*
X12342809Y11914119D01*
X12247571Y11771261D01*
X12152333Y11676023D01*
X12057095Y11628404D01*
X13533285Y11914119D02*
X13057095Y11914119D01*
X13009476Y11437928D01*
X13057095Y11485547D01*
X13152333Y11533166D01*
X13390428Y11533166D01*
X13485666Y11485547D01*
X13533285Y11437928D01*
X13580904Y11342690D01*
X13580904Y11104595D01*
X13533285Y11009357D01*
X13485666Y10961738D01*
X13390428Y10914119D01*
X13152333Y10914119D01*
X13057095Y10961738D01*
X13009476Y11009357D01*
%TO.C,H1*%
X15621095Y32073119D02*
X15621095Y33073119D01*
X15621095Y32596928D02*
X16192523Y32596928D01*
X16192523Y32073119D02*
X16192523Y33073119D01*
X17192523Y32073119D02*
X16621095Y32073119D01*
X16906809Y32073119D02*
X16906809Y33073119D01*
X16811571Y32930261D01*
X16716333Y32835023D01*
X16621095Y32787404D01*
%TO.C,R2*%
X11263333Y24247119D02*
X10930000Y24723309D01*
X10691904Y24247119D02*
X10691904Y25247119D01*
X11072857Y25247119D01*
X11168095Y25199500D01*
X11215714Y25151880D01*
X11263333Y25056642D01*
X11263333Y24913785D01*
X11215714Y24818547D01*
X11168095Y24770928D01*
X11072857Y24723309D01*
X10691904Y24723309D01*
X11644285Y25151880D02*
X11691904Y25199500D01*
X11787142Y25247119D01*
X12025238Y25247119D01*
X12120476Y25199500D01*
X12168095Y25151880D01*
X12215714Y25056642D01*
X12215714Y24961404D01*
X12168095Y24818547D01*
X11596666Y24247119D01*
X12215714Y24247119D01*
%TO.C,C5*%
X18756333Y10882357D02*
X18708714Y10834738D01*
X18565857Y10787119D01*
X18470619Y10787119D01*
X18327761Y10834738D01*
X18232523Y10929976D01*
X18184904Y11025214D01*
X18137285Y11215690D01*
X18137285Y11358547D01*
X18184904Y11549023D01*
X18232523Y11644261D01*
X18327761Y11739500D01*
X18470619Y11787119D01*
X18565857Y11787119D01*
X18708714Y11739500D01*
X18756333Y11691880D01*
X19661095Y11787119D02*
X19184904Y11787119D01*
X19137285Y11310928D01*
X19184904Y11358547D01*
X19280142Y11406166D01*
X19518238Y11406166D01*
X19613476Y11358547D01*
X19661095Y11310928D01*
X19708714Y11215690D01*
X19708714Y10977595D01*
X19661095Y10882357D01*
X19613476Y10834738D01*
X19518238Y10787119D01*
X19280142Y10787119D01*
X19184904Y10834738D01*
X19137285Y10882357D01*
%TO.C,C1*%
X21091142Y30026833D02*
X21138761Y29979214D01*
X21186380Y29836357D01*
X21186380Y29741119D01*
X21138761Y29598261D01*
X21043523Y29503023D01*
X20948285Y29455404D01*
X20757809Y29407785D01*
X20614952Y29407785D01*
X20424476Y29455404D01*
X20329238Y29503023D01*
X20234000Y29598261D01*
X20186380Y29741119D01*
X20186380Y29836357D01*
X20234000Y29979214D01*
X20281619Y30026833D01*
X21186380Y30979214D02*
X21186380Y30407785D01*
X21186380Y30693500D02*
X20186380Y30693500D01*
X20329238Y30598261D01*
X20424476Y30503023D01*
X20472095Y30407785D01*
D13*
%TO.C,J1*%
X7865826Y2269429D02*
X7865826Y1717886D01*
X7829056Y1607578D01*
X7755517Y1534039D01*
X7645209Y1497269D01*
X7571670Y1497269D01*
X8637986Y1497269D02*
X8196751Y1497269D01*
X8417369Y1497269D02*
X8417369Y2269429D01*
X8343830Y2159120D01*
X8270291Y2085581D01*
X8196751Y2048812D01*
D14*
%TO.C,U3*%
X23876000Y18895500D02*
X22076000Y18895500D01*
X23876000Y18895500D02*
X24676000Y18895500D01*
X23876000Y15775500D02*
X23076000Y15775500D01*
X23876000Y15775500D02*
X24676000Y15775500D01*
%TO.C,R10*%
X17542742Y13444000D02*
X18017258Y13444000D01*
X17542742Y12399000D02*
X18017258Y12399000D01*
%TO.C,U2*%
X31496000Y14267500D02*
X34946000Y14267500D01*
X31496000Y19387500D02*
X29546000Y19387500D01*
X31496000Y14267500D02*
X29546000Y14267500D01*
X31496000Y19387500D02*
X33446000Y19387500D01*
%TO.C,J2*%
X33390000Y2125571D02*
X33390000Y1728500D01*
X32630000Y2125571D02*
X32630000Y1728500D01*
X28310000Y-931500D02*
X28310000Y-6931500D01*
X26600000Y1728500D02*
X26600000Y-931500D01*
X35930000Y-931500D02*
X35930000Y-6931500D01*
X30850000Y-6931500D02*
X30090000Y-6931500D01*
X31740000Y1728500D02*
X31740000Y-931500D01*
X35630000Y-931500D02*
X35630000Y-6931500D01*
X35930000Y-6931500D02*
X35170000Y-6931500D01*
X33390000Y-6931500D02*
X32630000Y-6931500D01*
X29200000Y1728500D02*
X29200000Y-931500D01*
X27550000Y-6931500D02*
X27550000Y-931500D01*
X30090000Y2125571D02*
X30090000Y1728500D01*
X28310000Y-6931500D02*
X27550000Y-6931500D01*
X35550000Y4438500D02*
X36820000Y4438500D01*
X35270000Y-931500D02*
X35270000Y-6931500D01*
X35510000Y-931500D02*
X35510000Y-6931500D01*
X27550000Y2125571D02*
X27550000Y1728500D01*
X36880000Y-931500D02*
X36880000Y1728500D01*
X36820000Y4438500D02*
X36820000Y3168500D01*
X35750000Y-931500D02*
X35750000Y-6931500D01*
X30850000Y-931500D02*
X30850000Y-6931500D01*
X33390000Y-931500D02*
X33390000Y-6931500D01*
X32630000Y-6931500D02*
X32630000Y-931500D01*
X36880000Y1728500D02*
X26600000Y1728500D01*
X30090000Y-6931500D02*
X30090000Y-931500D01*
X35870000Y-931500D02*
X35870000Y-6931500D01*
X34280000Y1728500D02*
X34280000Y-931500D01*
X28310000Y2125571D02*
X28310000Y1728500D01*
X35170000Y2058500D02*
X35170000Y1728500D01*
X35170000Y-6931500D02*
X35170000Y-931500D01*
X35930000Y2058500D02*
X35930000Y1728500D01*
X35390000Y-931500D02*
X35390000Y-6931500D01*
X26600000Y-931500D02*
X36880000Y-931500D01*
X30850000Y2125571D02*
X30850000Y1728500D01*
%TO.C,R13*%
X26178742Y26906000D02*
X26653258Y26906000D01*
X26178742Y25861000D02*
X26653258Y25861000D01*
%TO.C,C6*%
X40007000Y30656920D02*
X40007000Y30938080D01*
X38987000Y30656920D02*
X38987000Y30938080D01*
%TO.C,C7*%
X27938000Y11860920D02*
X27938000Y12142080D01*
X28958000Y11860920D02*
X28958000Y12142080D01*
D12*
%TO.C,TP1*%
X25246000Y3111500D02*
G75*
G03*
X25246000Y3111500I-1370000J0D01*
G01*
D14*
%TO.C,R4*%
X11192742Y19511000D02*
X11667258Y19511000D01*
X11192742Y20556000D02*
X11667258Y20556000D01*
%TO.C,C31*%
X10158000Y14459080D02*
X10158000Y14177920D01*
X11178000Y14459080D02*
X11178000Y14177920D01*
%TO.C,R6*%
X24019742Y13444000D02*
X24494258Y13444000D01*
X24019742Y12399000D02*
X24494258Y12399000D01*
%TO.C,C8*%
X19937000Y16940920D02*
X19937000Y17222080D01*
X20957000Y16940920D02*
X20957000Y17222080D01*
%TO.C,R66*%
X22335258Y10365000D02*
X21860742Y10365000D01*
X22335258Y9320000D02*
X21860742Y9320000D01*
%TO.C,R71*%
X41670500Y3890242D02*
X41670500Y4364758D01*
X40625500Y3890242D02*
X40625500Y4364758D01*
%TO.C,C32*%
X37086000Y30656920D02*
X37086000Y30938080D01*
X36066000Y30656920D02*
X36066000Y30938080D01*
%TO.C,R16*%
X15985258Y10365000D02*
X15510742Y10365000D01*
X15985258Y9320000D02*
X15510742Y9320000D01*
D12*
%TO.C,U4*%
X24168000Y30021500D02*
X23868000Y30021500D01*
X22568000Y27571500D02*
X22818000Y27571500D01*
X24168000Y27871500D02*
X24168000Y27571500D01*
X22568000Y29721500D02*
X22168000Y29721500D01*
X22568000Y27846500D02*
X22568000Y27571500D01*
X22893000Y30021500D02*
X22568000Y29721500D01*
X24168000Y29721500D02*
X24168000Y30021500D01*
X24168000Y27571500D02*
X23943000Y27571500D01*
D14*
%TO.C,IC1*%
X14732000Y15425500D02*
X15532000Y15425500D01*
X14732000Y18545500D02*
X15532000Y18545500D01*
X14732000Y15425500D02*
X13932000Y15425500D01*
X14732000Y18545500D02*
X12932000Y18545500D01*
%TO.C,C11*%
X20992220Y13431500D02*
X21273380Y13431500D01*
X20992220Y12411500D02*
X21273380Y12411500D01*
%TO.C,TP9*%
X32188000Y32225500D02*
G75*
G03*
X32188000Y32225500I-1200000J0D01*
G01*
%TO.C,R11*%
X27575742Y28909000D02*
X28050258Y28909000D01*
X27575742Y29954000D02*
X28050258Y29954000D01*
%TO.C,J5*%
X51308000Y24817500D02*
X51308000Y9817500D01*
X51108000Y17317500D02*
X50108000Y16317500D01*
X51308000Y9817500D02*
X36308000Y9817500D01*
X36308000Y24817500D02*
X51308000Y24817500D01*
X51108000Y17317500D02*
X50108000Y18317500D01*
X36308000Y9817500D02*
X36308000Y24817500D01*
D15*
%TO.C,J4*%
X3318000Y28585500D02*
X568000Y28585500D01*
X2318000Y28085500D02*
X1568000Y28085500D01*
X1818000Y15835500D02*
X1818000Y15335500D01*
X8018000Y20835500D02*
X8318000Y20835500D01*
X68000Y28085500D02*
X68000Y27085500D01*
X768000Y19485500D02*
X768000Y18485500D01*
X5093200Y26363600D02*
X3318000Y26585500D01*
X3518000Y19485500D02*
X2268000Y19485500D01*
X8318000Y19835500D02*
X7818000Y19335500D01*
X18000Y19485500D02*
X18000Y18485500D01*
X5146281Y28310968D02*
X3568000Y28085500D01*
X4818000Y28235500D02*
X4818000Y26935500D01*
X5096281Y19710969D02*
X3518000Y19485500D01*
X1568000Y28085500D02*
X1318000Y28085500D01*
X768000Y18485500D02*
X1268000Y18485500D01*
X768000Y19485500D02*
X518000Y19485500D01*
X2818000Y31335500D02*
X1818000Y31335500D01*
X1318000Y28085500D02*
X1318000Y27085500D01*
X518000Y18485500D02*
X768000Y18485500D01*
X-682000Y30835500D02*
X-682000Y29835500D01*
X8318000Y29835500D02*
X-682000Y29835500D01*
X2268000Y19485500D02*
X2268000Y18485500D01*
X2318000Y27085500D02*
X3568000Y27085500D01*
X1318000Y28085500D02*
X818000Y28085500D01*
X8318000Y29335500D02*
X7818000Y28835500D01*
X9318000Y27835500D02*
X9318000Y18335500D01*
X1518000Y18485500D02*
X2268000Y18485500D01*
X818000Y28085500D02*
X568000Y28085500D01*
X568000Y26585500D02*
X3318000Y26585500D01*
X2268000Y19485500D02*
X1518000Y19485500D01*
X7818000Y17835500D02*
X8318000Y17335500D01*
X1568000Y28085500D02*
X1568000Y27085500D01*
X1268000Y19485500D02*
X768000Y19485500D01*
X518000Y17985500D02*
X3268000Y17985500D01*
X518000Y19485500D02*
X518000Y18485500D01*
X5043200Y17763600D02*
X3268000Y17985500D01*
X8318000Y21335500D02*
X8018000Y21335500D01*
X1818000Y31335500D02*
X1818000Y30835500D01*
X3568000Y28085500D02*
X2318000Y28085500D01*
X5268000Y18062041D02*
X5268000Y17962057D01*
X2268000Y18485500D02*
X3518000Y18485500D01*
X8318000Y25335500D02*
X8318000Y21335500D01*
X2818000Y30835500D02*
X2818000Y31335500D01*
X4768000Y19635500D02*
X4768000Y18335500D01*
X7818000Y28835500D02*
X7318000Y28835500D01*
X8318000Y29335500D02*
X8318000Y29835500D01*
X3268000Y19985500D02*
X518000Y19985500D01*
X1818000Y30835500D02*
X-682000Y30835500D01*
X1568000Y27085500D02*
X2318000Y27085500D01*
X1268000Y18485500D02*
X1518000Y18485500D01*
X8318000Y15835500D02*
X8318000Y16835500D01*
X-682000Y15835500D02*
X1818000Y15835500D01*
X5318000Y28608943D02*
X5318000Y28508959D01*
X8318000Y30835500D02*
X2818000Y30835500D01*
X2318000Y28085500D02*
X2318000Y27085500D01*
X818000Y28085500D02*
X818000Y27085500D01*
X1518000Y19485500D02*
X1518000Y18485500D01*
X8318000Y16835500D02*
X-682000Y16835500D01*
X6818000Y18835500D02*
X6818000Y18335500D01*
X3518000Y18485500D02*
X5096281Y18260032D01*
X-682000Y16835500D02*
X-682000Y15835500D01*
X1268000Y19485500D02*
X1268000Y18485500D01*
X568000Y27085500D02*
X818000Y27085500D01*
X8318000Y29835500D02*
X8318000Y30835500D01*
X8318000Y25835500D02*
X8018000Y25835500D01*
X2818000Y30835500D02*
X1818000Y30835500D01*
X7818000Y27335500D02*
X8318000Y26835500D01*
X568000Y28085500D02*
X568000Y27085500D01*
X6818000Y28335500D02*
X6818000Y27835500D01*
X3268000Y19985500D02*
X5043200Y20207400D01*
X1818000Y15335500D02*
X2818000Y15335500D01*
X8318000Y20835500D02*
X8318000Y19835500D01*
X7318000Y17835500D02*
X7818000Y17835500D01*
X5268000Y20008944D02*
X5268000Y19908960D01*
X5318000Y26662040D02*
X5318000Y26562056D01*
X7318000Y27335500D02*
X7818000Y27335500D01*
X1818000Y15835500D02*
X2818000Y15835500D01*
X2818000Y15835500D02*
X8318000Y15835500D01*
X1318000Y27085500D02*
X1568000Y27085500D01*
X-682000Y29835500D02*
X-682000Y16835500D01*
X7818000Y25635500D02*
X7818000Y25535500D01*
X3318000Y28585500D02*
X5093200Y28807400D01*
X7818000Y19335500D02*
X7318000Y19335500D01*
X818000Y27085500D02*
X1318000Y27085500D01*
X3568000Y27085500D02*
X5146281Y26860031D01*
X8018000Y25335500D02*
X8318000Y25335500D01*
X2818000Y15335500D02*
X2818000Y15835500D01*
X1518000Y19485500D02*
X1268000Y19485500D01*
X7818000Y21135500D02*
X7818000Y21035500D01*
X8318000Y26835500D02*
X8318000Y25835500D01*
X8318000Y16835500D02*
X8318000Y17335500D01*
X7818000Y25535500D02*
G75*
G03*
X8018000Y25335500I200001J1D01*
G01*
X5146281Y28310967D02*
G75*
G03*
X5318000Y28508959I-28281J197990D01*
G01*
X568000Y28585500D02*
G75*
G03*
X68000Y28085500I1J-500001D01*
G01*
X8018000Y25835500D02*
G75*
G03*
X7818000Y25635500I1J-200001D01*
G01*
X7318000Y19335500D02*
G75*
G03*
X6818000Y18835500I0J-500000D01*
G01*
X68000Y27085500D02*
G75*
G03*
X568000Y26585500I500001J1D01*
G01*
X5318001Y28608941D02*
G75*
G03*
X5093200Y28807400I-199999J4D01*
G01*
X5093200Y26363600D02*
G75*
G03*
X5318000Y26562056I24800J198456D01*
G01*
X6818000Y27835500D02*
G75*
G03*
X7318000Y27335500I500001J1D01*
G01*
X5318000Y26662039D02*
G75*
G03*
X5146281Y26860031I-200002J0D01*
G01*
X5096273Y19711009D02*
G75*
G03*
X5268000Y19908960I-28273J197991D01*
G01*
X5267996Y20008943D02*
G75*
G03*
X5043200Y20207400I-199976J27D01*
G01*
X7318000Y28835500D02*
G75*
G03*
X6818000Y28335500I1J-500001D01*
G01*
X5043203Y17763643D02*
G75*
G03*
X5268000Y17962057I24797J198457D01*
G01*
X18000Y18485500D02*
G75*
G03*
X518000Y17985500I500000J0D01*
G01*
X5267955Y18062041D02*
G75*
G03*
X5096281Y18260032I-200055J-41D01*
G01*
X6818000Y18335500D02*
G75*
G03*
X7318000Y17835500I500000J0D01*
G01*
X518000Y19985500D02*
G75*
G03*
X18000Y19485500I0J-500000D01*
G01*
X8018000Y21335500D02*
G75*
G03*
X7818000Y21135500I0J-200000D01*
G01*
X7818000Y21035500D02*
G75*
G03*
X8018000Y20835500I200000J0D01*
G01*
D14*
%TO.C,U1*%
X23876000Y24133500D02*
X22076000Y24133500D01*
X23876000Y21013500D02*
X23076000Y21013500D01*
X23876000Y24133500D02*
X24676000Y24133500D01*
X23876000Y21013500D02*
X24676000Y21013500D01*
%TO.C,R1*%
X10145500Y28875758D02*
X10145500Y28401242D01*
X11190500Y28875758D02*
X11190500Y28401242D01*
%TO.C,R12*%
X35320500Y11764242D02*
X35320500Y12238758D01*
X34275500Y11764242D02*
X34275500Y12238758D01*
D12*
%TO.C,TP2*%
X24230000Y32225500D02*
G75*
G03*
X24230000Y32225500I-1370000J0D01*
G01*
D14*
%TO.C,R18*%
X11667258Y22559000D02*
X11192742Y22559000D01*
X11667258Y23604000D02*
X11192742Y23604000D01*
%TO.C,C19*%
X22238580Y8574500D02*
X21957420Y8574500D01*
X22238580Y7554500D02*
X21957420Y7554500D01*
%TO.C,C12*%
X14083420Y12411500D02*
X14364580Y12411500D01*
X14083420Y13431500D02*
X14364580Y13431500D01*
%TO.C,RV1*%
X19547000Y25948500D02*
X19547000Y28408500D01*
X19547000Y21818500D02*
X19547000Y24278500D01*
X14987000Y23408500D02*
X14987000Y26818500D01*
X16493000Y21818500D02*
X19547000Y21818500D01*
X16493000Y28408500D02*
X19547000Y28408500D01*
%TO.C,C10*%
X29731580Y27270500D02*
X29450420Y27270500D01*
X29731580Y28290500D02*
X29450420Y28290500D01*
%TO.C,R15*%
X12810258Y10365000D02*
X12335742Y10365000D01*
X12810258Y9320000D02*
X12335742Y9320000D01*
%TO.C,R2*%
X11667258Y25607000D02*
X11192742Y25607000D01*
X11667258Y26652000D02*
X11192742Y26652000D01*
%TO.C,C5*%
X19063580Y9332500D02*
X18782420Y9332500D01*
X19063580Y10352500D02*
X18782420Y10352500D01*
%TO.C,C1*%
X19814000Y30334080D02*
X19814000Y30052920D01*
X18794000Y30334080D02*
X18794000Y30052920D01*
D16*
%TO.C,J1*%
X-10474000Y8805500D02*
X-10474000Y3005500D01*
X-2274000Y8805500D02*
X-2274000Y9205500D01*
X-3174000Y8105500D02*
X-3174000Y3705500D01*
X8226000Y7005500D02*
X8226000Y4805500D01*
X-1474000Y9205500D02*
X-1474000Y8805500D01*
X-10474000Y3005500D02*
X-11074000Y3005500D01*
X-574000Y2605500D02*
X-1474000Y2605500D01*
X-574000Y9205500D02*
X-574000Y2605500D01*
X-574000Y9805500D02*
X-574000Y9205500D01*
X-3174000Y8105500D02*
X-3174000Y9205500D01*
X-4074000Y9305500D02*
X-4074000Y8105500D01*
X-10474000Y8805500D02*
X-11074000Y8805500D01*
X-3174000Y8105500D02*
X-4074000Y8105500D01*
X-2274000Y9205500D02*
X-3174000Y9205500D01*
X-4074000Y2505500D02*
X-4074000Y1505500D01*
X-1474000Y8805500D02*
X-2274000Y8805500D01*
X3726000Y9305500D02*
X5926000Y9305500D01*
X-4074000Y10305500D02*
X-4074000Y9305500D01*
X1426000Y2005500D02*
X-574000Y2005500D01*
X-1474000Y3005500D02*
X-1474000Y8805500D01*
X5926000Y2505500D02*
X3726000Y2505500D01*
X-3174000Y1505500D02*
X-4074000Y1505500D01*
X-4074000Y3705500D02*
X-4074000Y2505500D01*
X-3174000Y2605500D02*
X-3174000Y1505500D01*
X-1474000Y3005500D02*
X-2274000Y3005500D01*
X-11074000Y8805500D02*
X-11074000Y3005500D01*
X-2274000Y3005500D02*
X-2274000Y2605500D01*
X-1474000Y2605500D02*
X-1474000Y3005500D01*
X-3174000Y3705500D02*
X-3174000Y2605500D01*
X-3174000Y9205500D02*
X-3174000Y10305500D01*
X1426000Y4805500D02*
X1426000Y7005500D01*
X-10174000Y2505500D02*
X-10474000Y3005500D01*
X-4074000Y9305500D02*
X-10174000Y9305500D01*
X-2274000Y3005500D02*
X-2274000Y8805500D01*
X-4074000Y10305500D02*
X-3174000Y10305500D01*
X-4074000Y3705500D02*
X-4074000Y8105500D01*
X-574000Y9205500D02*
X-1474000Y9205500D01*
X-2274000Y2605500D02*
X-3174000Y2605500D01*
X1426000Y9805500D02*
X-574000Y9805500D01*
X-3174000Y3705500D02*
X-4074000Y3705500D01*
X-4074000Y2505500D02*
X-10174000Y2505500D01*
X-574000Y2605500D02*
X-574000Y2005500D01*
X-10174000Y9305500D02*
X-10474000Y8805500D01*
%TD*%
%LPC*%
D17*
%TO.C,U3*%
X22738500Y18285500D03*
X22738500Y17335500D03*
X22738500Y16385500D03*
X25013500Y16385500D03*
X25013500Y18285500D03*
%TD*%
D18*
%TO.C,R10*%
X16955000Y12921500D03*
X18605000Y12921500D03*
%TD*%
D19*
%TO.C,U2*%
X33971000Y14922500D03*
X33971000Y16192500D03*
X33971000Y17462500D03*
X33971000Y18732500D03*
X29021000Y18732500D03*
X29021000Y17462500D03*
X29021000Y16192500D03*
X29021000Y14922500D03*
%TD*%
D20*
%TO.C,J2*%
X35550000Y3168500D03*
D21*
X33010000Y3168500D03*
X30470000Y3168500D03*
X27930000Y3168500D03*
%TD*%
D18*
%TO.C,R13*%
X25591000Y26383500D03*
X27241000Y26383500D03*
%TD*%
D22*
%TO.C,C6*%
X39497000Y30022500D03*
X39497000Y31572500D03*
%TD*%
%TO.C,C7*%
X28448000Y11226500D03*
X28448000Y12776500D03*
%TD*%
D23*
%TO.C,TP1*%
X23876000Y3111500D03*
%TD*%
D18*
%TO.C,R4*%
X10605000Y20033500D03*
X12255000Y20033500D03*
%TD*%
D24*
%TO.C,C31*%
X10668000Y15093500D03*
X10668000Y13543500D03*
%TD*%
D18*
%TO.C,R6*%
X23432000Y12921500D03*
X25082000Y12921500D03*
%TD*%
D22*
%TO.C,C8*%
X20447000Y16306500D03*
X20447000Y17856500D03*
%TD*%
D25*
%TO.C,R66*%
X22923000Y9842500D03*
X21273000Y9842500D03*
%TD*%
D26*
%TO.C,R71*%
X41148000Y3302500D03*
X41148000Y4952500D03*
%TD*%
D22*
%TO.C,C32*%
X36576000Y30022500D03*
X36576000Y31572500D03*
%TD*%
D25*
%TO.C,R16*%
X16573000Y9842500D03*
X14923000Y9842500D03*
%TD*%
D27*
%TO.C,U4*%
X22418000Y29446500D03*
X22418000Y28796500D03*
X22418000Y28146500D03*
X24318000Y28146500D03*
X24318000Y28796500D03*
X24318000Y29446500D03*
%TD*%
D17*
%TO.C,IC1*%
X13594500Y17935500D03*
X13594500Y16985500D03*
X13594500Y16035500D03*
X15869500Y16035500D03*
X15869500Y16985500D03*
X15869500Y17935500D03*
%TD*%
D28*
%TO.C,C11*%
X20357800Y12921500D03*
X21907800Y12921500D03*
%TD*%
D29*
%TO.C,TP9*%
X30988000Y32225500D03*
%TD*%
D30*
%TO.C,H7*%
X45200000Y31617500D03*
%TD*%
D18*
%TO.C,R11*%
X26988000Y29431500D03*
X28638000Y29431500D03*
%TD*%
D31*
%TO.C,J5*%
X38608000Y17317500D03*
D32*
X43688000Y22397500D03*
D31*
X38608000Y19857500D03*
D32*
X43688000Y12237500D03*
%TD*%
D33*
%TO.C,J4*%
X8268000Y18585500D03*
X8268000Y19085500D03*
X8268000Y19585500D03*
X8268000Y20085500D03*
X8268000Y20585500D03*
X8268000Y21085500D03*
X8268000Y21585500D03*
X8268000Y22085500D03*
X8268000Y22585500D03*
X8268000Y23085500D03*
X8268000Y23585500D03*
X8268000Y24085500D03*
X8268000Y24585500D03*
X8268000Y25085500D03*
X8268000Y25585500D03*
X8268000Y26085500D03*
X8268000Y26585500D03*
D34*
X8268000Y27085500D03*
X8268000Y27585500D03*
D35*
X7318000Y16085500D03*
X2418000Y15485500D03*
X7318000Y30585500D03*
X2418000Y31185500D03*
%TD*%
D17*
%TO.C,U1*%
X22738500Y23523500D03*
X22738500Y22573500D03*
X22738500Y21623500D03*
X25013500Y21623500D03*
X25013500Y23523500D03*
%TD*%
D30*
%TO.C,H2*%
X14100000Y3317500D03*
%TD*%
D36*
%TO.C,R1*%
X10668000Y29463500D03*
X10668000Y27813500D03*
%TD*%
D37*
%TO.C,H3*%
X45200000Y3317500D03*
%TD*%
D26*
%TO.C,R12*%
X34798000Y11176500D03*
X34798000Y12826500D03*
%TD*%
D23*
%TO.C,TP2*%
X22860000Y32225500D03*
%TD*%
D25*
%TO.C,R18*%
X12255000Y23081500D03*
X10605000Y23081500D03*
%TD*%
D38*
%TO.C,C19*%
X22873000Y8064500D03*
X21323000Y8064500D03*
%TD*%
D28*
%TO.C,C12*%
X13449000Y12921500D03*
X14999000Y12921500D03*
%TD*%
D39*
%TO.C,RV1*%
X14857000Y27653500D03*
X19687000Y25113500D03*
X14857000Y22573500D03*
%TD*%
D38*
%TO.C,C10*%
X30366000Y27780500D03*
X28816000Y27780500D03*
%TD*%
D25*
%TO.C,R15*%
X13398000Y9842500D03*
X11748000Y9842500D03*
%TD*%
D30*
%TO.C,H1*%
X14100000Y31617500D03*
%TD*%
D25*
%TO.C,R2*%
X12255000Y26129500D03*
X10605000Y26129500D03*
%TD*%
D38*
%TO.C,C5*%
X19698000Y9842500D03*
X18148000Y9842500D03*
%TD*%
D24*
%TO.C,C1*%
X19304000Y30968500D03*
X19304000Y29418500D03*
%TD*%
D40*
%TO.C,J1*%
X4826000Y5905500D03*
D41*
X7375900Y3355600D03*
X2276100Y3355600D03*
X2276100Y8455400D03*
X7375900Y8455400D03*
%TD*%
M02*
