%TF.GenerationSoftware,KiCad,Pcbnew,(6.0.4-0)*%
%TF.CreationDate,2023-05-29T14:49:53-05:00*%
%TF.ProjectId,voltage_sense,766f6c74-6167-4655-9f73-656e73652e6b,rev?*%
%TF.SameCoordinates,Original*%
%TF.FileFunction,Copper,L6,Bot*%
%TF.FilePolarity,Positive*%
%FSLAX46Y46*%
G04 Gerber Fmt 4.6, Leading zero omitted, Abs format (unit mm)*
G04 Created by KiCad (PCBNEW (6.0.4-0)) date 2023-05-29 14:49:53*
%MOMM*%
%LPD*%
G01*
G04 APERTURE LIST*
G04 Aperture macros list*
%AMRoundRect*
0 Rectangle with rounded corners*
0 $1 Rounding radius*
0 $2 $3 $4 $5 $6 $7 $8 $9 X,Y pos of 4 corners*
0 Add a 4 corners polygon primitive as box body*
4,1,4,$2,$3,$4,$5,$6,$7,$8,$9,$2,$3,0*
0 Add four circle primitives for the rounded corners*
1,1,$1+$1,$2,$3*
1,1,$1+$1,$4,$5*
1,1,$1+$1,$6,$7*
1,1,$1+$1,$8,$9*
0 Add four rect primitives between the rounded corners*
20,1,$1+$1,$2,$3,$4,$5,0*
20,1,$1+$1,$4,$5,$6,$7,0*
20,1,$1+$1,$6,$7,$8,$9,0*
20,1,$1+$1,$8,$9,$2,$3,0*%
G04 Aperture macros list end*
%TA.AperFunction,ComponentPad*%
%ADD10R,1.700000X1.700000*%
%TD*%
%TA.AperFunction,ComponentPad*%
%ADD11O,1.700000X1.700000*%
%TD*%
%TA.AperFunction,ComponentPad*%
%ADD12C,2.020000*%
%TD*%
%TA.AperFunction,ComponentPad*%
%ADD13C,2.000000*%
%TD*%
%TA.AperFunction,ComponentPad*%
%ADD14O,2.500000X1.600000*%
%TD*%
%TA.AperFunction,ComponentPad*%
%ADD15O,7.000000X3.500000*%
%TD*%
%TA.AperFunction,ComponentPad*%
%ADD16C,1.950000*%
%TD*%
%TA.AperFunction,ComponentPad*%
%ADD17C,4.400000*%
%TD*%
%TA.AperFunction,ComponentPad*%
%ADD18C,1.905000*%
%TD*%
%TA.AperFunction,ComponentPad*%
%ADD19C,2.667000*%
%TD*%
%TA.AperFunction,SMDPad,CuDef*%
%ADD20RoundRect,0.150000X0.825000X0.150000X-0.825000X0.150000X-0.825000X-0.150000X0.825000X-0.150000X0*%
%TD*%
%TA.AperFunction,ViaPad*%
%ADD21C,0.600000*%
%TD*%
%TA.AperFunction,Conductor*%
%ADD22C,0.127000*%
%TD*%
G04 APERTURE END LIST*
D10*
%TO.P,J2,1,Pin_1*%
%TO.N,+5V*%
X35550000Y3168500D03*
D11*
%TO.P,J2,2,Pin_2*%
%TO.N,-15V*%
X33010000Y3168500D03*
%TO.P,J2,3,Pin_3*%
%TO.N,+15V*%
X30470000Y3168500D03*
%TO.P,J2,4,Pin_4*%
%TO.N,GND*%
X27930000Y3168500D03*
%TD*%
D12*
%TO.P,TP1,1*%
%TO.N,Net-(C13-Pad2)*%
X23876000Y3111500D03*
%TD*%
D13*
%TO.P,TP9,1,1*%
%TO.N,GND*%
X30988000Y32225500D03*
%TD*%
D14*
%TO.P,J5,1,In*%
%TO.N,Net-(J5-Pad1)*%
X38608000Y17317500D03*
D15*
%TO.P,J5,2,Ext*%
%TO.N,GND*%
X43688000Y22397500D03*
D14*
X38608000Y19857500D03*
D15*
X43688000Y12237500D03*
%TD*%
D16*
%TO.P,J4,SH,SH*%
%TO.N,Net-(FB1-Pad1)*%
X7318000Y16085500D03*
X2418000Y15485500D03*
X7318000Y30585500D03*
X2418000Y31185500D03*
%TD*%
D17*
%TO.P,H3,1,1*%
%TO.N,Net-(H3-Pad1)*%
X45200000Y3317500D03*
%TD*%
D12*
%TO.P,TP2,1*%
%TO.N,Net-(C1-Pad2)*%
X22860000Y32225500D03*
%TD*%
D18*
%TO.P,J1,1,In*%
%TO.N,/vsense/SMA_OUT*%
X4826000Y5905500D03*
D19*
%TO.P,J1,2,Ext*%
%TO.N,GND*%
X7375900Y3355600D03*
%TO.P,J1,3*%
%TO.N,N/C*%
X2276100Y3355600D03*
%TO.P,J1,4*%
X2276100Y8455400D03*
%TO.P,J1,5*%
X7375900Y8455400D03*
%TD*%
D20*
%TO.P,U6,1,A0*%
%TO.N,GND*%
X8063000Y25717500D03*
%TO.P,U6,2,A1*%
X8063000Y24447500D03*
%TO.P,U6,3,A2*%
X8063000Y23177500D03*
%TO.P,U6,4,GND*%
X8063000Y21907500D03*
%TO.P,U6,5,SDA*%
%TO.N,/SDA*%
X3113000Y21907500D03*
%TO.P,U6,6,SCL*%
%TO.N,/SCL*%
X3113000Y23177500D03*
%TO.P,U6,7,NC*%
%TO.N,unconnected-(U6-Pad7)*%
X3113000Y24447500D03*
%TO.P,U6,8,VCC*%
%TO.N,+3V3*%
X3113000Y25717500D03*
%TD*%
%TO.P,U5,1,NC*%
%TO.N,unconnected-(U5-Pad1)*%
X33844000Y10223500D03*
%TO.P,U5,2,-*%
%TO.N,Net-(C12-Pad2)*%
X33844000Y8953500D03*
%TO.P,U5,3,+*%
%TO.N,Net-(R12-Pad1)*%
X33844000Y7683500D03*
%TO.P,U5,4,V-*%
%TO.N,-15V*%
X33844000Y6413500D03*
%TO.P,U5,5,NC*%
%TO.N,unconnected-(U5-Pad5)*%
X28894000Y6413500D03*
%TO.P,U5,6*%
%TO.N,Net-(C12-Pad1)*%
X28894000Y7683500D03*
%TO.P,U5,7,V+*%
%TO.N,+15V*%
X28894000Y8953500D03*
%TO.P,U5,8,NC*%
%TO.N,unconnected-(U5-Pad8)*%
X28894000Y10223500D03*
%TD*%
D21*
%TO.N,GND*%
X9271000Y31305500D03*
%TO.N,Net-(R12-Pad1)*%
X33080900Y11070800D03*
%TO.N,Net-(C12-Pad2)*%
X35653700Y8212500D03*
%TO.N,3V3_BUF*%
X20320000Y22785900D03*
X24370800Y7420400D03*
%TO.N,Net-(R6-Pad1)*%
X23114000Y16764700D03*
X20790600Y18301900D03*
%TO.N,Net-(C12-Pad1)*%
X38055500Y7192200D03*
X26835400Y27019000D03*
%TO.N,+3V3*%
X13761600Y21793600D03*
X23444900Y10967900D03*
%TO.N,/vsense/SCL*%
X17340700Y22058300D03*
X35762400Y24655100D03*
%TO.N,/vsense/SDA*%
X14554200Y18544300D03*
X11684700Y24060600D03*
X40375100Y26990500D03*
%TO.N,Net-(C7-Pad2)*%
X22003700Y19610700D03*
X13301900Y23338900D03*
%TO.N,Net-(C1-Pad2)*%
X12370900Y21457200D03*
%TO.N,-15V*%
X9646200Y24289900D03*
X20079000Y16553100D03*
X38592500Y29950500D03*
X7747000Y10461500D03*
X34589300Y5668200D03*
X18083500Y23939500D03*
X35603000Y20364500D03*
%TO.N,+15V*%
X30179200Y9472600D03*
X36576000Y32451700D03*
X21457500Y24158400D03*
X26289000Y19244100D03*
X27321200Y21383600D03*
X6658200Y23085500D03*
X23144200Y18579500D03*
X30425400Y16214600D03*
%TO.N,+5V*%
X10668000Y33723400D03*
X9873800Y15954800D03*
X13001900Y16700500D03*
X30831700Y8633500D03*
X30897900Y6689100D03*
X9666900Y27057600D03*
%TO.N,GND*%
X31487900Y7700400D03*
X6802800Y12128500D03*
X17272700Y9092800D03*
X20422100Y8178100D03*
X9649800Y20585500D03*
X6887200Y18819400D03*
X11576700Y27695000D03*
X35039000Y27100100D03*
X37479600Y29950500D03*
X6875700Y23837200D03*
X38328200Y27876200D03*
X39624000Y26896600D03*
X39497000Y32453600D03*
X44069000Y25330500D03*
X6650800Y22240300D03*
X6864900Y26489700D03*
X16171200Y13042500D03*
X10541000Y13642900D03*
X14102500Y15010200D03*
X16015000Y26973500D03*
X23993600Y21417700D03*
X26289000Y15928100D03*
X17641400Y20962900D03*
X17631600Y17561800D03*
X39258900Y4587400D03*
X23432000Y13825900D03*
%TD*%
D22*
%TO.N,Net-(R12-Pad1)*%
X32677700Y10667600D02*
X33080900Y11070800D01*
X32677700Y8602700D02*
X32677700Y10667600D01*
X33596900Y7683500D02*
X32677700Y8602700D01*
X33844000Y7683500D02*
X33596900Y7683500D01*
%TO.N,Net-(C12-Pad2)*%
X34912700Y8953500D02*
X35653700Y8212500D01*
X33844000Y8953500D02*
X34912700Y8953500D01*
%TO.N,Net-(C12-Pad1)*%
X29385300Y7192200D02*
X38055500Y7192200D01*
X28894000Y7683500D02*
X29385300Y7192200D01*
%TO.N,+3V3*%
X3609600Y25220900D02*
X3113000Y25717500D01*
X9796400Y25220900D02*
X3609600Y25220900D01*
X13223700Y21793600D02*
X9796400Y25220900D01*
X13761600Y21793600D02*
X13223700Y21793600D01*
%TO.N,-15V*%
X34589300Y5668200D02*
X33844000Y6413500D01*
%TO.N,+15V*%
X29413100Y9472600D02*
X28894000Y8953500D01*
X30179200Y9472600D02*
X29413100Y9472600D01*
%TO.N,GND*%
X8063000Y23177500D02*
X8063000Y21907500D01*
X6875700Y23837200D02*
X8063000Y23837200D01*
X8063000Y24447500D02*
X8063000Y23837200D01*
X8063000Y23837200D02*
X8063000Y23177500D01*
X7290800Y26489700D02*
X8063000Y25717500D01*
X6864900Y26489700D02*
X7290800Y26489700D01*
%TD*%
M02*
