M48
; DRILL file {KiCad (6.0.4-0)} date Monday, May 29, 2023 at 02:49:53 PM
; FORMAT={-:-/ absolute / inch / decimal}
; #@! TF.CreationDate,2023-05-29T14:49:53-05:00
; #@! TF.GenerationSoftware,Kicad,Pcbnew,(6.0.4-0)
; #@! TF.FileFunction,Plated,1,6,PTH
FMAT,2
INCH
; #@! TA.AperFunction,Plated,PTH,ViaDrill
T1C0.0118
; #@! TA.AperFunction,Plated,PTH,ComponentDrill
T2C0.0350
; #@! TA.AperFunction,Plated,PTH,ComponentDrill
T3C0.0394
; #@! TA.AperFunction,Plated,PTH,ComponentDrill
T4C0.0402
; #@! TA.AperFunction,Plated,PTH,ComponentDrill
T5C0.0500
; #@! TA.AperFunction,Plated,PTH,ComponentDrill
T6C0.0512
; #@! TA.AperFunction,Plated,PTH,ComponentDrill
T7C0.0700
; #@! TA.AperFunction,Plated,PTH,ComponentDrill
T8C0.0791
; #@! TA.AperFunction,Plated,PTH,ComponentDrill
T9C0.0866
%
G90
G05
T1
X0.2618Y0.8756
X0.2621Y0.9089
X0.2678Y0.4775
X0.2703Y1.0429
X0.2707Y0.9385
X0.2711Y0.7409
X0.305Y0.4119
X0.365Y1.2325
X0.3798Y0.9563
X0.3799Y0.8105
X0.3806Y1.0653
X0.3887Y0.6281
X0.415Y0.5371
X0.42Y1.3277
X0.4558Y1.0904
X0.46Y0.9473
X0.487Y0.8448
X0.5119Y0.6575
X0.5237Y0.9189
X0.5418Y0.858
X0.5552Y0.591
X0.573Y0.7301
X0.6305Y1.0619
X0.6367Y0.5135
X0.68Y0.358
X0.6827Y0.8684
X0.6942Y0.6914
X0.6945Y0.8253
X0.7119Y0.9425
X0.7905Y0.6517
X0.8Y0.8971
X0.804Y0.322
X0.8185Y0.7205
X0.8448Y0.9511
X0.8663Y0.7721
X0.91Y0.66
X0.9112Y0.7315
X0.9225Y0.5443
X0.923Y0.4318
X0.9446Y0.8432
X0.9595Y0.2921
X1.035Y0.7576
X1.035Y0.6271
X1.0565Y1.0637
X1.0756Y0.8419
X1.1882Y0.3729
X1.1979Y0.6384
X1.2138Y0.3399
X1.2165Y0.2634
X1.2397Y0.3032
X1.3024Y0.4359
X1.3618Y0.2232
X1.3795Y1.0669
X1.4017Y0.8018
X1.4037Y0.3233
X1.408Y0.9707
X1.44Y1.2776
X1.4756Y1.1792
X1.4982Y0.2832
X1.509Y1.0975
X1.5194Y1.1792
X1.5456Y0.1806
X1.555Y1.2777
X1.56Y1.0589
X1.5896Y1.0626
X1.735Y0.9973
T2
X1.52Y0.7818
X1.52Y0.6818
T3
X1.0996Y0.1247
X1.1996Y0.1247
X1.22Y1.2687
X1.2996Y0.1247
X1.3996Y0.1247
T4
X0.9Y1.2687
X0.94Y0.1225
T5
X0.19Y0.2325
T6
X0.0952Y1.2278
X0.0952Y0.6097
X0.2881Y1.2042
X0.2881Y0.6333
T7
X0.0896Y0.3329
X0.0896Y0.1321
X0.2904Y0.3329
X0.2904Y0.1321
T8
X1.72Y0.8818
X1.72Y0.4818
T9
X1.7795Y0.1306
T0
M30
