%TF.GenerationSoftware,KiCad,Pcbnew,(6.0.4-0)*%
%TF.CreationDate,2023-05-29T12:52:23-05:00*%
%TF.ProjectId,voltage_sense,766f6c74-6167-4655-9f73-656e73652e6b,rev?*%
%TF.SameCoordinates,Original*%
%TF.FileFunction,Legend,Bot*%
%TF.FilePolarity,Positive*%
%FSLAX46Y46*%
G04 Gerber Fmt 4.6, Leading zero omitted, Abs format (unit mm)*
G04 Created by KiCad (PCBNEW (6.0.4-0)) date 2023-05-29 12:52:23*
%MOMM*%
%LPD*%
G01*
G04 APERTURE LIST*
G04 Aperture macros list*
%AMRoundRect*
0 Rectangle with rounded corners*
0 $1 Rounding radius*
0 $2 $3 $4 $5 $6 $7 $8 $9 X,Y pos of 4 corners*
0 Add a 4 corners polygon primitive as box body*
4,1,4,$2,$3,$4,$5,$6,$7,$8,$9,$2,$3,0*
0 Add four circle primitives for the rounded corners*
1,1,$1+$1,$2,$3*
1,1,$1+$1,$4,$5*
1,1,$1+$1,$6,$7*
1,1,$1+$1,$8,$9*
0 Add four rect primitives between the rounded corners*
20,1,$1+$1,$2,$3,$4,$5,0*
20,1,$1+$1,$4,$5,$6,$7,0*
20,1,$1+$1,$6,$7,$8,$9,0*
20,1,$1+$1,$8,$9,$2,$3,0*%
G04 Aperture macros list end*
%ADD10C,0.150000*%
%ADD11C,0.120000*%
%ADD12R,1.700000X1.700000*%
%ADD13O,1.700000X1.700000*%
%ADD14C,2.020000*%
%ADD15C,2.000000*%
%ADD16C,2.200000*%
%ADD17O,2.500000X1.600000*%
%ADD18O,7.000000X3.500000*%
%ADD19C,2.153200*%
%ADD20C,4.400000*%
%ADD21C,2.108200*%
%ADD22C,2.870200*%
%ADD23RoundRect,0.150000X0.512500X0.150000X-0.512500X0.150000X-0.512500X-0.150000X0.512500X-0.150000X0*%
%ADD24RoundRect,0.225000X0.225000X0.250000X-0.225000X0.250000X-0.225000X-0.250000X0.225000X-0.250000X0*%
%ADD25RoundRect,0.150000X0.825000X0.150000X-0.825000X0.150000X-0.825000X-0.150000X0.825000X-0.150000X0*%
%ADD26RoundRect,0.200000X-0.200000X-0.275000X0.200000X-0.275000X0.200000X0.275000X-0.200000X0.275000X0*%
%ADD27RoundRect,0.200000X0.275000X-0.200000X0.275000X0.200000X-0.275000X0.200000X-0.275000X-0.200000X0*%
%ADD28RoundRect,0.200000X-0.275000X0.200000X-0.275000X-0.200000X0.275000X-0.200000X0.275000X0.200000X0*%
%ADD29RoundRect,0.225000X0.250000X-0.225000X0.250000X0.225000X-0.250000X0.225000X-0.250000X-0.225000X0*%
%ADD30RoundRect,0.200000X0.200000X0.275000X-0.200000X0.275000X-0.200000X-0.275000X0.200000X-0.275000X0*%
%ADD31RoundRect,0.250000X-0.325000X-0.650000X0.325000X-0.650000X0.325000X0.650000X-0.325000X0.650000X0*%
%ADD32RoundRect,0.225000X-0.225000X-0.250000X0.225000X-0.250000X0.225000X0.250000X-0.225000X0.250000X0*%
G04 APERTURE END LIST*
D10*
%TO.C,U9*%
X29082904Y7088119D02*
X29082904Y6278595D01*
X29035285Y6183357D01*
X28987666Y6135738D01*
X28892428Y6088119D01*
X28701952Y6088119D01*
X28606714Y6135738D01*
X28559095Y6183357D01*
X28511476Y6278595D01*
X28511476Y7088119D01*
X27987666Y6088119D02*
X27797190Y6088119D01*
X27701952Y6135738D01*
X27654333Y6183357D01*
X27559095Y6326214D01*
X27511476Y6516690D01*
X27511476Y6897642D01*
X27559095Y6992880D01*
X27606714Y7040500D01*
X27701952Y7088119D01*
X27892428Y7088119D01*
X27987666Y7040500D01*
X28035285Y6992880D01*
X28082904Y6897642D01*
X28082904Y6659547D01*
X28035285Y6564309D01*
X27987666Y6516690D01*
X27892428Y6469071D01*
X27701952Y6469071D01*
X27606714Y6516690D01*
X27559095Y6564309D01*
X27511476Y6659547D01*
%TO.C,C2*%
X20359666Y9518357D02*
X20407285Y9470738D01*
X20550142Y9423119D01*
X20645380Y9423119D01*
X20788238Y9470738D01*
X20883476Y9565976D01*
X20931095Y9661214D01*
X20978714Y9851690D01*
X20978714Y9994547D01*
X20931095Y10185023D01*
X20883476Y10280261D01*
X20788238Y10375500D01*
X20645380Y10423119D01*
X20550142Y10423119D01*
X20407285Y10375500D01*
X20359666Y10327880D01*
X19978714Y10327880D02*
X19931095Y10375500D01*
X19835857Y10423119D01*
X19597761Y10423119D01*
X19502523Y10375500D01*
X19454904Y10327880D01*
X19407285Y10232642D01*
X19407285Y10137404D01*
X19454904Y9994547D01*
X20026333Y9423119D01*
X19407285Y9423119D01*
%TO.C,U6*%
X6349904Y27760119D02*
X6349904Y26950595D01*
X6302285Y26855357D01*
X6254666Y26807738D01*
X6159428Y26760119D01*
X5968952Y26760119D01*
X5873714Y26807738D01*
X5826095Y26855357D01*
X5778476Y26950595D01*
X5778476Y27760119D01*
X4873714Y27760119D02*
X5064190Y27760119D01*
X5159428Y27712500D01*
X5207047Y27664880D01*
X5302285Y27522023D01*
X5349904Y27331547D01*
X5349904Y26950595D01*
X5302285Y26855357D01*
X5254666Y26807738D01*
X5159428Y26760119D01*
X4968952Y26760119D01*
X4873714Y26807738D01*
X4826095Y26855357D01*
X4778476Y26950595D01*
X4778476Y27188690D01*
X4826095Y27283928D01*
X4873714Y27331547D01*
X4968952Y27379166D01*
X5159428Y27379166D01*
X5254666Y27331547D01*
X5302285Y27283928D01*
X5349904Y27188690D01*
%TO.C,C39*%
X10263142Y28392357D02*
X10310761Y28439976D01*
X10358380Y28582833D01*
X10358380Y28678071D01*
X10310761Y28820928D01*
X10215523Y28916166D01*
X10120285Y28963785D01*
X9929809Y29011404D01*
X9786952Y29011404D01*
X9596476Y28963785D01*
X9501238Y28916166D01*
X9406000Y28820928D01*
X9358380Y28678071D01*
X9358380Y28582833D01*
X9406000Y28439976D01*
X9453619Y28392357D01*
X9358380Y28059023D02*
X9358380Y27439976D01*
X9739333Y27773309D01*
X9739333Y27630452D01*
X9786952Y27535214D01*
X9834571Y27487595D01*
X9929809Y27439976D01*
X10167904Y27439976D01*
X10263142Y27487595D01*
X10310761Y27535214D01*
X10358380Y27630452D01*
X10358380Y27916166D01*
X10310761Y28011404D01*
X10263142Y28059023D01*
X10358380Y26963785D02*
X10358380Y26773309D01*
X10310761Y26678071D01*
X10263142Y26630452D01*
X10120285Y26535214D01*
X9929809Y26487595D01*
X9548857Y26487595D01*
X9453619Y26535214D01*
X9406000Y26582833D01*
X9358380Y26678071D01*
X9358380Y26868547D01*
X9406000Y26963785D01*
X9453619Y27011404D01*
X9548857Y27059023D01*
X9786952Y27059023D01*
X9882190Y27011404D01*
X9929809Y26963785D01*
X9977428Y26868547D01*
X9977428Y26678071D01*
X9929809Y26582833D01*
X9882190Y26535214D01*
X9786952Y26487595D01*
%TO.C,R3*%
X17819666Y13835119D02*
X18153000Y14311309D01*
X18391095Y13835119D02*
X18391095Y14835119D01*
X18010142Y14835119D01*
X17914904Y14787500D01*
X17867285Y14739880D01*
X17819666Y14644642D01*
X17819666Y14501785D01*
X17867285Y14406547D01*
X17914904Y14358928D01*
X18010142Y14311309D01*
X18391095Y14311309D01*
X17486333Y14835119D02*
X16867285Y14835119D01*
X17200619Y14454166D01*
X17057761Y14454166D01*
X16962523Y14406547D01*
X16914904Y14358928D01*
X16867285Y14263690D01*
X16867285Y14025595D01*
X16914904Y13930357D01*
X16962523Y13882738D01*
X17057761Y13835119D01*
X17343476Y13835119D01*
X17438714Y13882738D01*
X17486333Y13930357D01*
%TO.C,R14*%
X32616380Y18898357D02*
X32140190Y19231690D01*
X32616380Y19469785D02*
X31616380Y19469785D01*
X31616380Y19088833D01*
X31664000Y18993595D01*
X31711619Y18945976D01*
X31806857Y18898357D01*
X31949714Y18898357D01*
X32044952Y18945976D01*
X32092571Y18993595D01*
X32140190Y19088833D01*
X32140190Y19469785D01*
X32616380Y17945976D02*
X32616380Y18517404D01*
X32616380Y18231690D02*
X31616380Y18231690D01*
X31759238Y18326928D01*
X31854476Y18422166D01*
X31902095Y18517404D01*
X31949714Y17088833D02*
X32616380Y17088833D01*
X31568761Y17326928D02*
X32283047Y17565023D01*
X32283047Y16945976D01*
%TO.C,R9*%
X21374380Y17202966D02*
X20898190Y17536300D01*
X21374380Y17774395D02*
X20374380Y17774395D01*
X20374380Y17393442D01*
X20422000Y17298204D01*
X20469619Y17250585D01*
X20564857Y17202966D01*
X20707714Y17202966D01*
X20802952Y17250585D01*
X20850571Y17298204D01*
X20898190Y17393442D01*
X20898190Y17774395D01*
X21374380Y16726776D02*
X21374380Y16536300D01*
X21326761Y16441061D01*
X21279142Y16393442D01*
X21136285Y16298204D01*
X20945809Y16250585D01*
X20564857Y16250585D01*
X20469619Y16298204D01*
X20422000Y16345823D01*
X20374380Y16441061D01*
X20374380Y16631538D01*
X20422000Y16726776D01*
X20469619Y16774395D01*
X20564857Y16822014D01*
X20802952Y16822014D01*
X20898190Y16774395D01*
X20945809Y16726776D01*
X20993428Y16631538D01*
X20993428Y16441061D01*
X20945809Y16345823D01*
X20898190Y16298204D01*
X20802952Y16250585D01*
%TO.C,C9*%
X29440142Y23883166D02*
X29487761Y23930785D01*
X29535380Y24073642D01*
X29535380Y24168880D01*
X29487761Y24311738D01*
X29392523Y24406976D01*
X29297285Y24454595D01*
X29106809Y24502214D01*
X28963952Y24502214D01*
X28773476Y24454595D01*
X28678238Y24406976D01*
X28583000Y24311738D01*
X28535380Y24168880D01*
X28535380Y24073642D01*
X28583000Y23930785D01*
X28630619Y23883166D01*
X29535380Y23406976D02*
X29535380Y23216500D01*
X29487761Y23121261D01*
X29440142Y23073642D01*
X29297285Y22978404D01*
X29106809Y22930785D01*
X28725857Y22930785D01*
X28630619Y22978404D01*
X28583000Y23026023D01*
X28535380Y23121261D01*
X28535380Y23311738D01*
X28583000Y23406976D01*
X28630619Y23454595D01*
X28725857Y23502214D01*
X28963952Y23502214D01*
X29059190Y23454595D01*
X29106809Y23406976D01*
X29154428Y23311738D01*
X29154428Y23121261D01*
X29106809Y23026023D01*
X29059190Y22978404D01*
X28963952Y22930785D01*
%TO.C,C13*%
X16390857Y10915357D02*
X16438476Y10867738D01*
X16581333Y10820119D01*
X16676571Y10820119D01*
X16819428Y10867738D01*
X16914666Y10962976D01*
X16962285Y11058214D01*
X17009904Y11248690D01*
X17009904Y11391547D01*
X16962285Y11582023D01*
X16914666Y11677261D01*
X16819428Y11772500D01*
X16676571Y11820119D01*
X16581333Y11820119D01*
X16438476Y11772500D01*
X16390857Y11724880D01*
X15438476Y10820119D02*
X16009904Y10820119D01*
X15724190Y10820119D02*
X15724190Y11820119D01*
X15819428Y11677261D01*
X15914666Y11582023D01*
X16009904Y11534404D01*
X15105142Y11820119D02*
X14486095Y11820119D01*
X14819428Y11439166D01*
X14676571Y11439166D01*
X14581333Y11391547D01*
X14533714Y11343928D01*
X14486095Y11248690D01*
X14486095Y11010595D01*
X14533714Y10915357D01*
X14581333Y10867738D01*
X14676571Y10820119D01*
X14962285Y10820119D01*
X15057523Y10867738D01*
X15105142Y10915357D01*
%TO.C,R7*%
X24423666Y13899119D02*
X24757000Y14375309D01*
X24995095Y13899119D02*
X24995095Y14899119D01*
X24614142Y14899119D01*
X24518904Y14851500D01*
X24471285Y14803880D01*
X24423666Y14708642D01*
X24423666Y14565785D01*
X24471285Y14470547D01*
X24518904Y14422928D01*
X24614142Y14375309D01*
X24995095Y14375309D01*
X24090333Y14899119D02*
X23423666Y14899119D01*
X23852238Y13899119D01*
%TO.C,R8*%
X32550380Y23883166D02*
X32074190Y24216500D01*
X32550380Y24454595D02*
X31550380Y24454595D01*
X31550380Y24073642D01*
X31598000Y23978404D01*
X31645619Y23930785D01*
X31740857Y23883166D01*
X31883714Y23883166D01*
X31978952Y23930785D01*
X32026571Y23978404D01*
X32074190Y24073642D01*
X32074190Y24454595D01*
X31978952Y23311738D02*
X31931333Y23406976D01*
X31883714Y23454595D01*
X31788476Y23502214D01*
X31740857Y23502214D01*
X31645619Y23454595D01*
X31598000Y23406976D01*
X31550380Y23311738D01*
X31550380Y23121261D01*
X31598000Y23026023D01*
X31645619Y22978404D01*
X31740857Y22930785D01*
X31788476Y22930785D01*
X31883714Y22978404D01*
X31931333Y23026023D01*
X31978952Y23121261D01*
X31978952Y23311738D01*
X32026571Y23406976D01*
X32074190Y23454595D01*
X32169428Y23502214D01*
X32359904Y23502214D01*
X32455142Y23454595D01*
X32502761Y23406976D01*
X32550380Y23311738D01*
X32550380Y23121261D01*
X32502761Y23026023D01*
X32455142Y22978404D01*
X32359904Y22930785D01*
X32169428Y22930785D01*
X32074190Y22978404D01*
X32026571Y23026023D01*
X31978952Y23121261D01*
%TO.C,FB1*%
X6167333Y17842928D02*
X6500666Y17842928D01*
X6500666Y17319119D02*
X6500666Y18319119D01*
X6024476Y18319119D01*
X5310190Y17842928D02*
X5167333Y17795309D01*
X5119714Y17747690D01*
X5072095Y17652452D01*
X5072095Y17509595D01*
X5119714Y17414357D01*
X5167333Y17366738D01*
X5262571Y17319119D01*
X5643523Y17319119D01*
X5643523Y18319119D01*
X5310190Y18319119D01*
X5214952Y18271500D01*
X5167333Y18223880D01*
X5119714Y18128642D01*
X5119714Y18033404D01*
X5167333Y17938166D01*
X5214952Y17890547D01*
X5310190Y17842928D01*
X5643523Y17842928D01*
X4119714Y17319119D02*
X4691142Y17319119D01*
X4405428Y17319119D02*
X4405428Y18319119D01*
X4500666Y18176261D01*
X4595904Y18081023D01*
X4691142Y18033404D01*
%TO.C,U5*%
X17779904Y29315119D02*
X17779904Y28505595D01*
X17732285Y28410357D01*
X17684666Y28362738D01*
X17589428Y28315119D01*
X17398952Y28315119D01*
X17303714Y28362738D01*
X17256095Y28410357D01*
X17208476Y28505595D01*
X17208476Y29315119D01*
X16256095Y29315119D02*
X16732285Y29315119D01*
X16779904Y28838928D01*
X16732285Y28886547D01*
X16637047Y28934166D01*
X16398952Y28934166D01*
X16303714Y28886547D01*
X16256095Y28838928D01*
X16208476Y28743690D01*
X16208476Y28505595D01*
X16256095Y28410357D01*
X16303714Y28362738D01*
X16398952Y28315119D01*
X16637047Y28315119D01*
X16732285Y28362738D01*
X16779904Y28410357D01*
%TO.C,R5*%
X27630380Y18422166D02*
X27154190Y18755500D01*
X27630380Y18993595D02*
X26630380Y18993595D01*
X26630380Y18612642D01*
X26678000Y18517404D01*
X26725619Y18469785D01*
X26820857Y18422166D01*
X26963714Y18422166D01*
X27058952Y18469785D01*
X27106571Y18517404D01*
X27154190Y18612642D01*
X27154190Y18993595D01*
X26630380Y17517404D02*
X26630380Y17993595D01*
X27106571Y18041214D01*
X27058952Y17993595D01*
X27011333Y17898357D01*
X27011333Y17660261D01*
X27058952Y17565023D01*
X27106571Y17517404D01*
X27201809Y17469785D01*
X27439904Y17469785D01*
X27535142Y17517404D01*
X27582761Y17565023D01*
X27630380Y17660261D01*
X27630380Y17898357D01*
X27582761Y17993595D01*
X27535142Y18041214D01*
%TO.C,C4*%
X24042666Y8088357D02*
X24090285Y8040738D01*
X24233142Y7993119D01*
X24328380Y7993119D01*
X24471238Y8040738D01*
X24566476Y8135976D01*
X24614095Y8231214D01*
X24661714Y8421690D01*
X24661714Y8564547D01*
X24614095Y8755023D01*
X24566476Y8850261D01*
X24471238Y8945500D01*
X24328380Y8993119D01*
X24233142Y8993119D01*
X24090285Y8945500D01*
X24042666Y8897880D01*
X23185523Y8659785D02*
X23185523Y7993119D01*
X23423619Y9040738D02*
X23661714Y8326452D01*
X23042666Y8326452D01*
%TO.C,C3*%
X16011142Y16136166D02*
X16058761Y16183785D01*
X16106380Y16326642D01*
X16106380Y16421880D01*
X16058761Y16564738D01*
X15963523Y16659976D01*
X15868285Y16707595D01*
X15677809Y16755214D01*
X15534952Y16755214D01*
X15344476Y16707595D01*
X15249238Y16659976D01*
X15154000Y16564738D01*
X15106380Y16421880D01*
X15106380Y16326642D01*
X15154000Y16183785D01*
X15201619Y16136166D01*
X15106380Y15802833D02*
X15106380Y15183785D01*
X15487333Y15517119D01*
X15487333Y15374261D01*
X15534952Y15279023D01*
X15582571Y15231404D01*
X15677809Y15183785D01*
X15915904Y15183785D01*
X16011142Y15231404D01*
X16058761Y15279023D01*
X16106380Y15374261D01*
X16106380Y15659976D01*
X16058761Y15755214D01*
X16011142Y15802833D01*
%TO.C,C47*%
X28201857Y29932357D02*
X28249476Y29884738D01*
X28392333Y29837119D01*
X28487571Y29837119D01*
X28630428Y29884738D01*
X28725666Y29979976D01*
X28773285Y30075214D01*
X28820904Y30265690D01*
X28820904Y30408547D01*
X28773285Y30599023D01*
X28725666Y30694261D01*
X28630428Y30789500D01*
X28487571Y30837119D01*
X28392333Y30837119D01*
X28249476Y30789500D01*
X28201857Y30741880D01*
X27344714Y30503785D02*
X27344714Y29837119D01*
X27582809Y30884738D02*
X27820904Y30170452D01*
X27201857Y30170452D01*
X26916142Y30837119D02*
X26249476Y30837119D01*
X26678047Y29837119D01*
D11*
%TO.C,U9*%
X28321000Y10640500D02*
X30121000Y10640500D01*
X28321000Y7520500D02*
X27521000Y7520500D01*
X28321000Y10640500D02*
X27521000Y10640500D01*
X28321000Y7520500D02*
X29121000Y7520500D01*
%TO.C,C2*%
X20333580Y7935500D02*
X20052420Y7935500D01*
X20333580Y8955500D02*
X20052420Y8955500D01*
%TO.C,U6*%
X5588000Y26372500D02*
X3638000Y26372500D01*
X5588000Y21252500D02*
X7538000Y21252500D01*
X5588000Y21252500D02*
X3638000Y21252500D01*
X5588000Y26372500D02*
X9038000Y26372500D01*
%TO.C,C39*%
X7633580Y27239500D02*
X7352420Y27239500D01*
X7633580Y28259500D02*
X7352420Y28259500D01*
%TO.C,R3*%
X17351742Y12399000D02*
X17826258Y12399000D01*
X17351742Y13444000D02*
X17826258Y13444000D01*
%TO.C,R14*%
X31256500Y18018242D02*
X31256500Y18492758D01*
X30211500Y18018242D02*
X30211500Y18492758D01*
%TO.C,R9*%
X21829500Y17273558D02*
X21829500Y16799042D01*
X22874500Y17273558D02*
X22874500Y16799042D01*
%TO.C,C9*%
X29970000Y23575920D02*
X29970000Y23857080D01*
X30990000Y23575920D02*
X30990000Y23857080D01*
%TO.C,C13*%
X15888580Y10352500D02*
X15607420Y10352500D01*
X15888580Y9332500D02*
X15607420Y9332500D01*
%TO.C,R7*%
X24494258Y12399000D02*
X24019742Y12399000D01*
X24494258Y13444000D02*
X24019742Y13444000D01*
%TO.C,R8*%
X34050500Y23953758D02*
X34050500Y23479242D01*
X33005500Y23953758D02*
X33005500Y23479242D01*
%TO.C,FB1*%
X4622748Y20531500D02*
X6045252Y20531500D01*
X4622748Y18711500D02*
X6045252Y18711500D01*
%TO.C,U5*%
X17018000Y22807500D02*
X18968000Y22807500D01*
X17018000Y27927500D02*
X20468000Y27927500D01*
X17018000Y22807500D02*
X15068000Y22807500D01*
X17018000Y27927500D02*
X15068000Y27927500D01*
%TO.C,R5*%
X29097500Y18018242D02*
X29097500Y18492758D01*
X28052500Y18018242D02*
X28052500Y18492758D01*
%TO.C,C4*%
X23608420Y10479500D02*
X23889580Y10479500D01*
X23608420Y9459500D02*
X23889580Y9459500D01*
%TO.C,C3*%
X13714000Y15828920D02*
X13714000Y16110080D01*
X14734000Y15828920D02*
X14734000Y16110080D01*
%TO.C,C47*%
X27699580Y31430500D02*
X27418420Y31430500D01*
X27699580Y32450500D02*
X27418420Y32450500D01*
%TD*%
%LPC*%
D12*
%TO.C,J2*%
X35550000Y3168500D03*
D13*
X33010000Y3168500D03*
X30470000Y3168500D03*
X27930000Y3168500D03*
%TD*%
D14*
%TO.C,TP1*%
X23876000Y3111500D03*
%TD*%
D15*
%TO.C,TP9*%
X30988000Y32225500D03*
%TD*%
D16*
%TO.C,H7*%
X45200000Y31617500D03*
%TD*%
D17*
%TO.C,J5*%
X38608000Y17317500D03*
D18*
X43688000Y22397500D03*
D17*
X38608000Y19857500D03*
D18*
X43688000Y12237500D03*
%TD*%
D19*
%TO.C,J4*%
X7318000Y16085500D03*
X2418000Y15485500D03*
X7318000Y30585500D03*
X2418000Y31185500D03*
%TD*%
D16*
%TO.C,H2*%
X14100000Y3317500D03*
%TD*%
D20*
%TO.C,H3*%
X45200000Y3317500D03*
%TD*%
D14*
%TO.C,TP2*%
X22860000Y32225500D03*
%TD*%
D16*
%TO.C,H1*%
X14100000Y31617500D03*
%TD*%
D21*
%TO.C,J1*%
X4826000Y5905500D03*
D22*
X7375900Y3355600D03*
X2276100Y3355600D03*
X2276100Y8455400D03*
X7375900Y8455400D03*
%TD*%
D23*
%TO.C,U9*%
X29458500Y10030500D03*
X29458500Y9080500D03*
X29458500Y8130500D03*
X27183500Y8130500D03*
X27183500Y10030500D03*
%TD*%
D24*
%TO.C,C2*%
X20968000Y8445500D03*
X19418000Y8445500D03*
%TD*%
D25*
%TO.C,U6*%
X8063000Y25717500D03*
X8063000Y24447500D03*
X8063000Y23177500D03*
X8063000Y21907500D03*
X3113000Y21907500D03*
X3113000Y23177500D03*
X3113000Y24447500D03*
X3113000Y25717500D03*
%TD*%
D24*
%TO.C,C39*%
X8268000Y27749500D03*
X6718000Y27749500D03*
%TD*%
D26*
%TO.C,R3*%
X16764000Y12921500D03*
X18414000Y12921500D03*
%TD*%
D27*
%TO.C,R14*%
X30734000Y17430500D03*
X30734000Y19080500D03*
%TD*%
D28*
%TO.C,R9*%
X22352000Y17861300D03*
X22352000Y16211300D03*
%TD*%
D29*
%TO.C,C9*%
X30480000Y22941500D03*
X30480000Y24491500D03*
%TD*%
D24*
%TO.C,C13*%
X16523000Y9842500D03*
X14973000Y9842500D03*
%TD*%
D30*
%TO.C,R7*%
X25082000Y12921500D03*
X23432000Y12921500D03*
%TD*%
D28*
%TO.C,R8*%
X33528000Y24541500D03*
X33528000Y22891500D03*
%TD*%
D31*
%TO.C,FB1*%
X3859000Y19621500D03*
X6809000Y19621500D03*
%TD*%
D25*
%TO.C,U5*%
X19493000Y27272500D03*
X19493000Y26002500D03*
X19493000Y24732500D03*
X19493000Y23462500D03*
X14543000Y23462500D03*
X14543000Y24732500D03*
X14543000Y26002500D03*
X14543000Y27272500D03*
%TD*%
D27*
%TO.C,R5*%
X28575000Y17430500D03*
X28575000Y19080500D03*
%TD*%
D32*
%TO.C,C4*%
X22974000Y9969500D03*
X24524000Y9969500D03*
%TD*%
D29*
%TO.C,C3*%
X14224000Y15194500D03*
X14224000Y16744500D03*
%TD*%
D24*
%TO.C,C47*%
X28334000Y31940500D03*
X26784000Y31940500D03*
%TD*%
M02*
