%TF.GenerationSoftware,KiCad,Pcbnew,(6.0.4-0)*%
%TF.CreationDate,2023-05-29T14:49:53-05:00*%
%TF.ProjectId,voltage_sense,766f6c74-6167-4655-9f73-656e73652e6b,rev?*%
%TF.SameCoordinates,Original*%
%TF.FileFunction,Soldermask,Top*%
%TF.FilePolarity,Negative*%
%FSLAX46Y46*%
G04 Gerber Fmt 4.6, Leading zero omitted, Abs format (unit mm)*
G04 Created by KiCad (PCBNEW (6.0.4-0)) date 2023-05-29 14:49:53*
%MOMM*%
%LPD*%
G01*
G04 APERTURE LIST*
G04 Aperture macros list*
%AMRoundRect*
0 Rectangle with rounded corners*
0 $1 Rounding radius*
0 $2 $3 $4 $5 $6 $7 $8 $9 X,Y pos of 4 corners*
0 Add a 4 corners polygon primitive as box body*
4,1,4,$2,$3,$4,$5,$6,$7,$8,$9,$2,$3,0*
0 Add four circle primitives for the rounded corners*
1,1,$1+$1,$2,$3*
1,1,$1+$1,$4,$5*
1,1,$1+$1,$6,$7*
1,1,$1+$1,$8,$9*
0 Add four rect primitives between the rounded corners*
20,1,$1+$1,$2,$3,$4,$5,0*
20,1,$1+$1,$4,$5,$6,$7,0*
20,1,$1+$1,$6,$7,$8,$9,0*
20,1,$1+$1,$8,$9,$2,$3,0*%
G04 Aperture macros list end*
%ADD10RoundRect,0.150000X-0.512500X-0.150000X0.512500X-0.150000X0.512500X0.150000X-0.512500X0.150000X0*%
%ADD11RoundRect,0.200000X0.200000X0.275000X-0.200000X0.275000X-0.200000X-0.275000X0.200000X-0.275000X0*%
%ADD12RoundRect,0.150000X0.825000X0.150000X-0.825000X0.150000X-0.825000X-0.150000X0.825000X-0.150000X0*%
%ADD13R,1.700000X1.700000*%
%ADD14O,1.700000X1.700000*%
%ADD15RoundRect,0.200000X-0.200000X-0.275000X0.200000X-0.275000X0.200000X0.275000X-0.200000X0.275000X0*%
%ADD16RoundRect,0.225000X0.250000X-0.225000X0.250000X0.225000X-0.250000X0.225000X-0.250000X-0.225000X0*%
%ADD17C,2.020000*%
%ADD18RoundRect,0.225000X-0.225000X-0.250000X0.225000X-0.250000X0.225000X0.250000X-0.225000X0.250000X0*%
%ADD19RoundRect,0.200000X-0.275000X0.200000X-0.275000X-0.200000X0.275000X-0.200000X0.275000X0.200000X0*%
%ADD20R,0.420000X0.600000*%
%ADD21RoundRect,0.225000X0.225000X0.250000X-0.225000X0.250000X-0.225000X-0.250000X0.225000X-0.250000X0*%
%ADD22C,2.000000*%
%ADD23C,2.200000*%
%ADD24RoundRect,0.200000X0.275000X-0.200000X0.275000X0.200000X-0.275000X0.200000X-0.275000X-0.200000X0*%
%ADD25O,2.500000X1.600000*%
%ADD26O,7.000000X3.500000*%
%ADD27RoundRect,0.101600X-0.950000X0.150000X-0.950000X-0.150000X0.950000X-0.150000X0.950000X0.150000X0*%
%ADD28RoundRect,0.100000X-0.950000X0.150000X-0.950000X-0.150000X0.950000X-0.150000X0.950000X0.150000X0*%
%ADD29C,2.153200*%
%ADD30C,4.400000*%
%ADD31R,2.790000X1.190000*%
%ADD32C,2.108200*%
%ADD33C,2.870200*%
%ADD34RoundRect,0.150000X0.512500X0.150000X-0.512500X0.150000X-0.512500X-0.150000X0.512500X-0.150000X0*%
%ADD35RoundRect,0.250000X-0.325000X-0.650000X0.325000X-0.650000X0.325000X0.650000X-0.325000X0.650000X0*%
G04 APERTURE END LIST*
D10*
%TO.C,U3*%
X21976500Y18412500D03*
X21976500Y17462500D03*
X21976500Y16512500D03*
X24251500Y16512500D03*
X24251500Y18412500D03*
%TD*%
D11*
%TO.C,R10*%
X11621000Y9842500D03*
X13271000Y9842500D03*
%TD*%
D12*
%TO.C,U2*%
X33971000Y14922500D03*
X33971000Y16192500D03*
X33971000Y17462500D03*
X33971000Y18732500D03*
X29021000Y18732500D03*
X29021000Y17462500D03*
X29021000Y16192500D03*
X29021000Y14922500D03*
%TD*%
D13*
%TO.C,J2*%
X35550000Y3168500D03*
D14*
X33010000Y3168500D03*
X30470000Y3168500D03*
X27930000Y3168500D03*
%TD*%
D15*
%TO.C,R13*%
X39942000Y8318500D03*
X41592000Y8318500D03*
%TD*%
D16*
%TO.C,C6*%
X39497000Y30022500D03*
X39497000Y31572500D03*
%TD*%
%TO.C,C7*%
X28448000Y11226500D03*
X28448000Y12776500D03*
%TD*%
D17*
%TO.C,TP1*%
X23876000Y3111500D03*
%TD*%
D15*
%TO.C,R4*%
X10605000Y23177500D03*
X12255000Y23177500D03*
%TD*%
D18*
%TO.C,C31*%
X18529000Y17462500D03*
X20079000Y17462500D03*
%TD*%
D19*
%TO.C,R6*%
X24638000Y9905500D03*
X24638000Y8255500D03*
%TD*%
D18*
%TO.C,C8*%
X18529000Y21018500D03*
X20079000Y21018500D03*
%TD*%
D11*
%TO.C,R66*%
X22923000Y9842500D03*
X21273000Y9842500D03*
%TD*%
%TO.C,R71*%
X41592000Y5270500D03*
X39942000Y5270500D03*
%TD*%
D16*
%TO.C,C32*%
X36576000Y30022500D03*
X36576000Y31572500D03*
%TD*%
D15*
%TO.C,R16*%
X16573000Y8064500D03*
X14923000Y8064500D03*
%TD*%
D20*
%TO.C,U4*%
X38974000Y26164500D03*
X39624000Y26164500D03*
X40274000Y26164500D03*
X40274000Y28064500D03*
X39624000Y28064500D03*
X38974000Y28064500D03*
%TD*%
D10*
%TO.C,IC1*%
X14102500Y17650500D03*
X14102500Y16700500D03*
X14102500Y15750500D03*
X16377500Y15750500D03*
X16377500Y16700500D03*
X16377500Y17650500D03*
%TD*%
D21*
%TO.C,C11*%
X21907800Y12921500D03*
X20357800Y12921500D03*
%TD*%
D22*
%TO.C,TP9*%
X30988000Y32225500D03*
%TD*%
D23*
%TO.C,H7*%
X45200000Y31617500D03*
%TD*%
D24*
%TO.C,R11*%
X44069000Y26162500D03*
X44069000Y27812500D03*
%TD*%
D25*
%TO.C,J5*%
X38608000Y17317500D03*
D26*
X43688000Y22397500D03*
D25*
X38608000Y19857500D03*
D26*
X43688000Y12237500D03*
%TD*%
D27*
%TO.C,J4*%
X8268000Y18585500D03*
X8268000Y19085500D03*
X8268000Y19585500D03*
X8268000Y20085500D03*
X8268000Y20585500D03*
X8268000Y21085500D03*
X8268000Y21585500D03*
X8268000Y22085500D03*
X8268000Y22585500D03*
X8268000Y23085500D03*
X8268000Y23585500D03*
X8268000Y24085500D03*
X8268000Y24585500D03*
X8268000Y25085500D03*
X8268000Y25585500D03*
X8268000Y26085500D03*
X8268000Y26585500D03*
D28*
X8268000Y27085500D03*
X8268000Y27585500D03*
D29*
X7318000Y16085500D03*
X2418000Y15485500D03*
X7318000Y30585500D03*
X2418000Y31185500D03*
%TD*%
D10*
%TO.C,U1*%
X19182500Y24889500D03*
X19182500Y23939500D03*
X19182500Y22989500D03*
X21457500Y22989500D03*
X21457500Y24889500D03*
%TD*%
D23*
%TO.C,H2*%
X14100000Y3317500D03*
%TD*%
D19*
%TO.C,R1*%
X10668000Y29463500D03*
X10668000Y27813500D03*
%TD*%
D30*
%TO.C,H3*%
X45200000Y3317500D03*
%TD*%
D24*
%TO.C,R12*%
X34163000Y11176500D03*
X34163000Y12826500D03*
%TD*%
D17*
%TO.C,TP2*%
X22860000Y32225500D03*
%TD*%
D11*
%TO.C,R18*%
X12255000Y26098500D03*
X10605000Y26098500D03*
%TD*%
D21*
%TO.C,C19*%
X22873000Y8064500D03*
X21323000Y8064500D03*
%TD*%
%TO.C,C12*%
X38240000Y8318500D03*
X36690000Y8318500D03*
%TD*%
D31*
%TO.C,RV1*%
X25398000Y23685500D03*
X30228000Y26225500D03*
X25398000Y28765500D03*
%TD*%
D16*
%TO.C,C10*%
X7747000Y11353500D03*
X7747000Y12903500D03*
%TD*%
D15*
%TO.C,R15*%
X9716000Y12890500D03*
X11366000Y12890500D03*
%TD*%
D23*
%TO.C,H1*%
X14100000Y31617500D03*
%TD*%
D11*
%TO.C,R2*%
X12255000Y19748500D03*
X10605000Y19748500D03*
%TD*%
D21*
%TO.C,C5*%
X19698000Y9842500D03*
X18148000Y9842500D03*
%TD*%
%TO.C,C1*%
X16015000Y27876500D03*
X14465000Y27876500D03*
%TD*%
D32*
%TO.C,J1*%
X4826000Y5905500D03*
D33*
X7375900Y3355600D03*
X2276100Y3355600D03*
X2276100Y8455400D03*
X7375900Y8455400D03*
%TD*%
D34*
%TO.C,U9*%
X29712500Y6733500D03*
X29712500Y7683500D03*
X29712500Y8633500D03*
X27437500Y8633500D03*
X27437500Y6733500D03*
%TD*%
D16*
%TO.C,C2*%
X26289000Y16814500D03*
X26289000Y18364500D03*
%TD*%
%TO.C,C39*%
X10668000Y31038500D03*
X10668000Y32588500D03*
%TD*%
D11*
%TO.C,R3*%
X18669000Y12921500D03*
X17019000Y12921500D03*
%TD*%
D15*
%TO.C,R14*%
X10351000Y6921500D03*
X12001000Y6921500D03*
%TD*%
D11*
%TO.C,R9*%
X18479000Y19240500D03*
X20129000Y19240500D03*
%TD*%
D18*
%TO.C,C9*%
X24879000Y21399500D03*
X26429000Y21399500D03*
%TD*%
D21*
%TO.C,C13*%
X16523000Y9842500D03*
X14973000Y9842500D03*
%TD*%
D15*
%TO.C,R7*%
X23432000Y12921500D03*
X25082000Y12921500D03*
%TD*%
D24*
%TO.C,R8*%
X34290000Y23495500D03*
X34290000Y25145500D03*
%TD*%
D35*
%TO.C,FB1*%
X2843000Y11874500D03*
X5793000Y11874500D03*
%TD*%
D11*
%TO.C,R5*%
X34353000Y20637500D03*
X32703000Y20637500D03*
%TD*%
D16*
%TO.C,C4*%
X32131000Y6908500D03*
X32131000Y8458500D03*
%TD*%
%TO.C,C3*%
X10795000Y14528500D03*
X10795000Y16078500D03*
%TD*%
D18*
%TO.C,C47*%
X35039000Y28003500D03*
X36589000Y28003500D03*
%TD*%
M02*
