%TF.GenerationSoftware,KiCad,Pcbnew,(6.0.4-0)*%
%TF.CreationDate,2023-05-29T12:52:23-05:00*%
%TF.ProjectId,voltage_sense,766f6c74-6167-4655-9f73-656e73652e6b,rev?*%
%TF.SameCoordinates,Original*%
%TF.FileFunction,Paste,Bot*%
%TF.FilePolarity,Positive*%
%FSLAX46Y46*%
G04 Gerber Fmt 4.6, Leading zero omitted, Abs format (unit mm)*
G04 Created by KiCad (PCBNEW (6.0.4-0)) date 2023-05-29 12:52:23*
%MOMM*%
%LPD*%
G01*
G04 APERTURE LIST*
G04 Aperture macros list*
%AMRoundRect*
0 Rectangle with rounded corners*
0 $1 Rounding radius*
0 $2 $3 $4 $5 $6 $7 $8 $9 X,Y pos of 4 corners*
0 Add a 4 corners polygon primitive as box body*
4,1,4,$2,$3,$4,$5,$6,$7,$8,$9,$2,$3,0*
0 Add four circle primitives for the rounded corners*
1,1,$1+$1,$2,$3*
1,1,$1+$1,$4,$5*
1,1,$1+$1,$6,$7*
1,1,$1+$1,$8,$9*
0 Add four rect primitives between the rounded corners*
20,1,$1+$1,$2,$3,$4,$5,0*
20,1,$1+$1,$4,$5,$6,$7,0*
20,1,$1+$1,$6,$7,$8,$9,0*
20,1,$1+$1,$8,$9,$2,$3,0*%
G04 Aperture macros list end*
%ADD10RoundRect,0.150000X0.512500X0.150000X-0.512500X0.150000X-0.512500X-0.150000X0.512500X-0.150000X0*%
%ADD11RoundRect,0.225000X0.225000X0.250000X-0.225000X0.250000X-0.225000X-0.250000X0.225000X-0.250000X0*%
%ADD12RoundRect,0.150000X0.825000X0.150000X-0.825000X0.150000X-0.825000X-0.150000X0.825000X-0.150000X0*%
%ADD13RoundRect,0.200000X-0.200000X-0.275000X0.200000X-0.275000X0.200000X0.275000X-0.200000X0.275000X0*%
%ADD14RoundRect,0.200000X0.275000X-0.200000X0.275000X0.200000X-0.275000X0.200000X-0.275000X-0.200000X0*%
%ADD15RoundRect,0.200000X-0.275000X0.200000X-0.275000X-0.200000X0.275000X-0.200000X0.275000X0.200000X0*%
%ADD16RoundRect,0.225000X0.250000X-0.225000X0.250000X0.225000X-0.250000X0.225000X-0.250000X-0.225000X0*%
%ADD17RoundRect,0.200000X0.200000X0.275000X-0.200000X0.275000X-0.200000X-0.275000X0.200000X-0.275000X0*%
%ADD18RoundRect,0.250000X-0.325000X-0.650000X0.325000X-0.650000X0.325000X0.650000X-0.325000X0.650000X0*%
%ADD19RoundRect,0.225000X-0.225000X-0.250000X0.225000X-0.250000X0.225000X0.250000X-0.225000X0.250000X0*%
G04 APERTURE END LIST*
D10*
%TO.C,U9*%
X29458500Y10030500D03*
X29458500Y9080500D03*
X29458500Y8130500D03*
X27183500Y8130500D03*
X27183500Y10030500D03*
%TD*%
D11*
%TO.C,C2*%
X20968000Y8445500D03*
X19418000Y8445500D03*
%TD*%
D12*
%TO.C,U6*%
X8063000Y25717500D03*
X8063000Y24447500D03*
X8063000Y23177500D03*
X8063000Y21907500D03*
X3113000Y21907500D03*
X3113000Y23177500D03*
X3113000Y24447500D03*
X3113000Y25717500D03*
%TD*%
D11*
%TO.C,C39*%
X8268000Y27749500D03*
X6718000Y27749500D03*
%TD*%
D13*
%TO.C,R3*%
X16764000Y12921500D03*
X18414000Y12921500D03*
%TD*%
D14*
%TO.C,R14*%
X30734000Y17430500D03*
X30734000Y19080500D03*
%TD*%
D15*
%TO.C,R9*%
X22352000Y17861300D03*
X22352000Y16211300D03*
%TD*%
D16*
%TO.C,C9*%
X30480000Y22941500D03*
X30480000Y24491500D03*
%TD*%
D11*
%TO.C,C13*%
X16523000Y9842500D03*
X14973000Y9842500D03*
%TD*%
D17*
%TO.C,R7*%
X25082000Y12921500D03*
X23432000Y12921500D03*
%TD*%
D15*
%TO.C,R8*%
X33528000Y24541500D03*
X33528000Y22891500D03*
%TD*%
D18*
%TO.C,FB1*%
X3859000Y19621500D03*
X6809000Y19621500D03*
%TD*%
D12*
%TO.C,U5*%
X19493000Y27272500D03*
X19493000Y26002500D03*
X19493000Y24732500D03*
X19493000Y23462500D03*
X14543000Y23462500D03*
X14543000Y24732500D03*
X14543000Y26002500D03*
X14543000Y27272500D03*
%TD*%
D14*
%TO.C,R5*%
X28575000Y17430500D03*
X28575000Y19080500D03*
%TD*%
D19*
%TO.C,C4*%
X22974000Y9969500D03*
X24524000Y9969500D03*
%TD*%
D16*
%TO.C,C3*%
X14224000Y15194500D03*
X14224000Y16744500D03*
%TD*%
D11*
%TO.C,C47*%
X28334000Y31940500D03*
X26784000Y31940500D03*
%TD*%
M02*
