%TF.GenerationSoftware,KiCad,Pcbnew,(6.0.4-0)*%
%TF.CreationDate,2023-05-17T14:52:11-05:00*%
%TF.ProjectId,voltage_sense,766f6c74-6167-4655-9f73-656e73652e6b,rev?*%
%TF.SameCoordinates,Original*%
%TF.FileFunction,Legend,Bot*%
%TF.FilePolarity,Positive*%
%FSLAX46Y46*%
G04 Gerber Fmt 4.6, Leading zero omitted, Abs format (unit mm)*
G04 Created by KiCad (PCBNEW (6.0.4-0)) date 2023-05-17 14:52:11*
%MOMM*%
%LPD*%
G01*
G04 APERTURE LIST*
G04 Aperture macros list*
%AMRoundRect*
0 Rectangle with rounded corners*
0 $1 Rounding radius*
0 $2 $3 $4 $5 $6 $7 $8 $9 X,Y pos of 4 corners*
0 Add a 4 corners polygon primitive as box body*
4,1,4,$2,$3,$4,$5,$6,$7,$8,$9,$2,$3,0*
0 Add four circle primitives for the rounded corners*
1,1,$1+$1,$2,$3*
1,1,$1+$1,$4,$5*
1,1,$1+$1,$6,$7*
1,1,$1+$1,$8,$9*
0 Add four rect primitives between the rounded corners*
20,1,$1+$1,$2,$3,$4,$5,0*
20,1,$1+$1,$4,$5,$6,$7,0*
20,1,$1+$1,$6,$7,$8,$9,0*
20,1,$1+$1,$8,$9,$2,$3,0*%
G04 Aperture macros list end*
%ADD10C,0.150000*%
%ADD11C,0.120000*%
%ADD12R,1.700000X1.700000*%
%ADD13O,1.700000X1.700000*%
%ADD14C,2.020000*%
%ADD15C,2.000000*%
%ADD16C,2.200000*%
%ADD17O,2.500000X1.600000*%
%ADD18O,7.000000X3.500000*%
%ADD19C,2.153200*%
%ADD20C,4.400000*%
%ADD21C,2.108200*%
%ADD22C,2.870200*%
%ADD23RoundRect,0.150000X0.512500X0.150000X-0.512500X0.150000X-0.512500X-0.150000X0.512500X-0.150000X0*%
%ADD24RoundRect,0.225000X0.225000X0.250000X-0.225000X0.250000X-0.225000X-0.250000X0.225000X-0.250000X0*%
%ADD25RoundRect,0.150000X0.825000X0.150000X-0.825000X0.150000X-0.825000X-0.150000X0.825000X-0.150000X0*%
%ADD26RoundRect,0.225000X-0.225000X-0.250000X0.225000X-0.250000X0.225000X0.250000X-0.225000X0.250000X0*%
%ADD27RoundRect,0.200000X-0.200000X-0.275000X0.200000X-0.275000X0.200000X0.275000X-0.200000X0.275000X0*%
%ADD28RoundRect,0.200000X0.275000X-0.200000X0.275000X0.200000X-0.275000X0.200000X-0.275000X-0.200000X0*%
%ADD29RoundRect,0.200000X-0.275000X0.200000X-0.275000X-0.200000X0.275000X-0.200000X0.275000X0.200000X0*%
%ADD30RoundRect,0.225000X0.250000X-0.225000X0.250000X0.225000X-0.250000X0.225000X-0.250000X-0.225000X0*%
%ADD31RoundRect,0.200000X0.200000X0.275000X-0.200000X0.275000X-0.200000X-0.275000X0.200000X-0.275000X0*%
G04 APERTURE END LIST*
D10*
%TO.C,U9*%
X10921904Y23852119D02*
X10921904Y23042595D01*
X10874285Y22947357D01*
X10826666Y22899738D01*
X10731428Y22852119D01*
X10540952Y22852119D01*
X10445714Y22899738D01*
X10398095Y22947357D01*
X10350476Y23042595D01*
X10350476Y23852119D01*
X9826666Y22852119D02*
X9636190Y22852119D01*
X9540952Y22899738D01*
X9493333Y22947357D01*
X9398095Y23090214D01*
X9350476Y23280690D01*
X9350476Y23661642D01*
X9398095Y23756880D01*
X9445714Y23804500D01*
X9540952Y23852119D01*
X9731428Y23852119D01*
X9826666Y23804500D01*
X9874285Y23756880D01*
X9921904Y23661642D01*
X9921904Y23423547D01*
X9874285Y23328309D01*
X9826666Y23280690D01*
X9731428Y23233071D01*
X9540952Y23233071D01*
X9445714Y23280690D01*
X9398095Y23328309D01*
X9350476Y23423547D01*
%TO.C,C2*%
X2198666Y26282357D02*
X2246285Y26234738D01*
X2389142Y26187119D01*
X2484380Y26187119D01*
X2627238Y26234738D01*
X2722476Y26329976D01*
X2770095Y26425214D01*
X2817714Y26615690D01*
X2817714Y26758547D01*
X2770095Y26949023D01*
X2722476Y27044261D01*
X2627238Y27139500D01*
X2484380Y27187119D01*
X2389142Y27187119D01*
X2246285Y27139500D01*
X2198666Y27091880D01*
X1817714Y27091880D02*
X1770095Y27139500D01*
X1674857Y27187119D01*
X1436761Y27187119D01*
X1341523Y27139500D01*
X1293904Y27091880D01*
X1246285Y26996642D01*
X1246285Y26901404D01*
X1293904Y26758547D01*
X1865333Y26187119D01*
X1246285Y26187119D01*
%TO.C,U6*%
X5333904Y18997119D02*
X5333904Y18187595D01*
X5286285Y18092357D01*
X5238666Y18044738D01*
X5143428Y17997119D01*
X4952952Y17997119D01*
X4857714Y18044738D01*
X4810095Y18092357D01*
X4762476Y18187595D01*
X4762476Y18997119D01*
X3857714Y18997119D02*
X4048190Y18997119D01*
X4143428Y18949500D01*
X4191047Y18901880D01*
X4286285Y18759023D01*
X4333904Y18568547D01*
X4333904Y18187595D01*
X4286285Y18092357D01*
X4238666Y18044738D01*
X4143428Y17997119D01*
X3952952Y17997119D01*
X3857714Y18044738D01*
X3810095Y18092357D01*
X3762476Y18187595D01*
X3762476Y18425690D01*
X3810095Y18520928D01*
X3857714Y18568547D01*
X3952952Y18616166D01*
X4143428Y18616166D01*
X4238666Y18568547D01*
X4286285Y18520928D01*
X4333904Y18425690D01*
%TO.C,C39*%
X3182857Y9198357D02*
X3230476Y9150738D01*
X3373333Y9103119D01*
X3468571Y9103119D01*
X3611428Y9150738D01*
X3706666Y9245976D01*
X3754285Y9341214D01*
X3801904Y9531690D01*
X3801904Y9674547D01*
X3754285Y9865023D01*
X3706666Y9960261D01*
X3611428Y10055500D01*
X3468571Y10103119D01*
X3373333Y10103119D01*
X3230476Y10055500D01*
X3182857Y10007880D01*
X2849523Y10103119D02*
X2230476Y10103119D01*
X2563809Y9722166D01*
X2420952Y9722166D01*
X2325714Y9674547D01*
X2278095Y9626928D01*
X2230476Y9531690D01*
X2230476Y9293595D01*
X2278095Y9198357D01*
X2325714Y9150738D01*
X2420952Y9103119D01*
X2706666Y9103119D01*
X2801904Y9150738D01*
X2849523Y9198357D01*
X1754285Y9103119D02*
X1563809Y9103119D01*
X1468571Y9150738D01*
X1420952Y9198357D01*
X1325714Y9341214D01*
X1278095Y9531690D01*
X1278095Y9912642D01*
X1325714Y10007880D01*
X1373333Y10055500D01*
X1468571Y10103119D01*
X1659047Y10103119D01*
X1754285Y10055500D01*
X1801904Y10007880D01*
X1849523Y9912642D01*
X1849523Y9674547D01*
X1801904Y9579309D01*
X1754285Y9531690D01*
X1659047Y9484071D01*
X1468571Y9484071D01*
X1373333Y9531690D01*
X1325714Y9579309D01*
X1278095Y9674547D01*
%TO.C,R3*%
X17755666Y5039119D02*
X18089000Y5515309D01*
X18327095Y5039119D02*
X18327095Y6039119D01*
X17946142Y6039119D01*
X17850904Y5991500D01*
X17803285Y5943880D01*
X17755666Y5848642D01*
X17755666Y5705785D01*
X17803285Y5610547D01*
X17850904Y5562928D01*
X17946142Y5515309D01*
X18327095Y5515309D01*
X17422333Y6039119D02*
X16803285Y6039119D01*
X17136619Y5658166D01*
X16993761Y5658166D01*
X16898523Y5610547D01*
X16850904Y5562928D01*
X16803285Y5467690D01*
X16803285Y5229595D01*
X16850904Y5134357D01*
X16898523Y5086738D01*
X16993761Y5039119D01*
X17279476Y5039119D01*
X17374714Y5086738D01*
X17422333Y5134357D01*
%TO.C,R14*%
X32616380Y12898357D02*
X32140190Y13231690D01*
X32616380Y13469785D02*
X31616380Y13469785D01*
X31616380Y13088833D01*
X31664000Y12993595D01*
X31711619Y12945976D01*
X31806857Y12898357D01*
X31949714Y12898357D01*
X32044952Y12945976D01*
X32092571Y12993595D01*
X32140190Y13088833D01*
X32140190Y13469785D01*
X32616380Y11945976D02*
X32616380Y12517404D01*
X32616380Y12231690D02*
X31616380Y12231690D01*
X31759238Y12326928D01*
X31854476Y12422166D01*
X31902095Y12517404D01*
X31949714Y11088833D02*
X32616380Y11088833D01*
X31568761Y11326928D02*
X32283047Y11565023D01*
X32283047Y10945976D01*
%TO.C,R9*%
X21374380Y11202966D02*
X20898190Y11536300D01*
X21374380Y11774395D02*
X20374380Y11774395D01*
X20374380Y11393442D01*
X20422000Y11298204D01*
X20469619Y11250585D01*
X20564857Y11202966D01*
X20707714Y11202966D01*
X20802952Y11250585D01*
X20850571Y11298204D01*
X20898190Y11393442D01*
X20898190Y11774395D01*
X21374380Y10726776D02*
X21374380Y10536300D01*
X21326761Y10441061D01*
X21279142Y10393442D01*
X21136285Y10298204D01*
X20945809Y10250585D01*
X20564857Y10250585D01*
X20469619Y10298204D01*
X20422000Y10345823D01*
X20374380Y10441061D01*
X20374380Y10631538D01*
X20422000Y10726776D01*
X20469619Y10774395D01*
X20564857Y10822014D01*
X20802952Y10822014D01*
X20898190Y10774395D01*
X20945809Y10726776D01*
X20993428Y10631538D01*
X20993428Y10441061D01*
X20945809Y10345823D01*
X20898190Y10298204D01*
X20802952Y10250585D01*
%TO.C,C9*%
X29440142Y17883166D02*
X29487761Y17930785D01*
X29535380Y18073642D01*
X29535380Y18168880D01*
X29487761Y18311738D01*
X29392523Y18406976D01*
X29297285Y18454595D01*
X29106809Y18502214D01*
X28963952Y18502214D01*
X28773476Y18454595D01*
X28678238Y18406976D01*
X28583000Y18311738D01*
X28535380Y18168880D01*
X28535380Y18073642D01*
X28583000Y17930785D01*
X28630619Y17883166D01*
X29535380Y17406976D02*
X29535380Y17216500D01*
X29487761Y17121261D01*
X29440142Y17073642D01*
X29297285Y16978404D01*
X29106809Y16930785D01*
X28725857Y16930785D01*
X28630619Y16978404D01*
X28583000Y17026023D01*
X28535380Y17121261D01*
X28535380Y17311738D01*
X28583000Y17406976D01*
X28630619Y17454595D01*
X28725857Y17502214D01*
X28963952Y17502214D01*
X29059190Y17454595D01*
X29106809Y17406976D01*
X29154428Y17311738D01*
X29154428Y17121261D01*
X29106809Y17026023D01*
X29059190Y16978404D01*
X28963952Y16930785D01*
%TO.C,C13*%
X20454857Y4438357D02*
X20502476Y4390738D01*
X20645333Y4343119D01*
X20740571Y4343119D01*
X20883428Y4390738D01*
X20978666Y4485976D01*
X21026285Y4581214D01*
X21073904Y4771690D01*
X21073904Y4914547D01*
X21026285Y5105023D01*
X20978666Y5200261D01*
X20883428Y5295500D01*
X20740571Y5343119D01*
X20645333Y5343119D01*
X20502476Y5295500D01*
X20454857Y5247880D01*
X19502476Y4343119D02*
X20073904Y4343119D01*
X19788190Y4343119D02*
X19788190Y5343119D01*
X19883428Y5200261D01*
X19978666Y5105023D01*
X20073904Y5057404D01*
X19169142Y5343119D02*
X18550095Y5343119D01*
X18883428Y4962166D01*
X18740571Y4962166D01*
X18645333Y4914547D01*
X18597714Y4866928D01*
X18550095Y4771690D01*
X18550095Y4533595D01*
X18597714Y4438357D01*
X18645333Y4390738D01*
X18740571Y4343119D01*
X19026285Y4343119D01*
X19121523Y4390738D01*
X19169142Y4438357D01*
%TO.C,R7*%
X24423666Y7899119D02*
X24757000Y8375309D01*
X24995095Y7899119D02*
X24995095Y8899119D01*
X24614142Y8899119D01*
X24518904Y8851500D01*
X24471285Y8803880D01*
X24423666Y8708642D01*
X24423666Y8565785D01*
X24471285Y8470547D01*
X24518904Y8422928D01*
X24614142Y8375309D01*
X24995095Y8375309D01*
X24090333Y8899119D02*
X23423666Y8899119D01*
X23852238Y7899119D01*
%TO.C,R8*%
X32550380Y17883166D02*
X32074190Y18216500D01*
X32550380Y18454595D02*
X31550380Y18454595D01*
X31550380Y18073642D01*
X31598000Y17978404D01*
X31645619Y17930785D01*
X31740857Y17883166D01*
X31883714Y17883166D01*
X31978952Y17930785D01*
X32026571Y17978404D01*
X32074190Y18073642D01*
X32074190Y18454595D01*
X31978952Y17311738D02*
X31931333Y17406976D01*
X31883714Y17454595D01*
X31788476Y17502214D01*
X31740857Y17502214D01*
X31645619Y17454595D01*
X31598000Y17406976D01*
X31550380Y17311738D01*
X31550380Y17121261D01*
X31598000Y17026023D01*
X31645619Y16978404D01*
X31740857Y16930785D01*
X31788476Y16930785D01*
X31883714Y16978404D01*
X31931333Y17026023D01*
X31978952Y17121261D01*
X31978952Y17311738D01*
X32026571Y17406976D01*
X32074190Y17454595D01*
X32169428Y17502214D01*
X32359904Y17502214D01*
X32455142Y17454595D01*
X32502761Y17406976D01*
X32550380Y17311738D01*
X32550380Y17121261D01*
X32502761Y17026023D01*
X32455142Y16978404D01*
X32359904Y16930785D01*
X32169428Y16930785D01*
X32074190Y16978404D01*
X32026571Y17026023D01*
X31978952Y17121261D01*
%TO.C,U5*%
X17779904Y23315119D02*
X17779904Y22505595D01*
X17732285Y22410357D01*
X17684666Y22362738D01*
X17589428Y22315119D01*
X17398952Y22315119D01*
X17303714Y22362738D01*
X17256095Y22410357D01*
X17208476Y22505595D01*
X17208476Y23315119D01*
X16256095Y23315119D02*
X16732285Y23315119D01*
X16779904Y22838928D01*
X16732285Y22886547D01*
X16637047Y22934166D01*
X16398952Y22934166D01*
X16303714Y22886547D01*
X16256095Y22838928D01*
X16208476Y22743690D01*
X16208476Y22505595D01*
X16256095Y22410357D01*
X16303714Y22362738D01*
X16398952Y22315119D01*
X16637047Y22315119D01*
X16732285Y22362738D01*
X16779904Y22410357D01*
%TO.C,R5*%
X27630380Y12422166D02*
X27154190Y12755500D01*
X27630380Y12993595D02*
X26630380Y12993595D01*
X26630380Y12612642D01*
X26678000Y12517404D01*
X26725619Y12469785D01*
X26820857Y12422166D01*
X26963714Y12422166D01*
X27058952Y12469785D01*
X27106571Y12517404D01*
X27154190Y12612642D01*
X27154190Y12993595D01*
X26630380Y11517404D02*
X26630380Y11993595D01*
X27106571Y12041214D01*
X27058952Y11993595D01*
X27011333Y11898357D01*
X27011333Y11660261D01*
X27058952Y11565023D01*
X27106571Y11517404D01*
X27201809Y11469785D01*
X27439904Y11469785D01*
X27535142Y11517404D01*
X27582761Y11565023D01*
X27630380Y11660261D01*
X27630380Y11898357D01*
X27582761Y11993595D01*
X27535142Y12041214D01*
%TO.C,C4*%
X5881666Y24852357D02*
X5929285Y24804738D01*
X6072142Y24757119D01*
X6167380Y24757119D01*
X6310238Y24804738D01*
X6405476Y24899976D01*
X6453095Y24995214D01*
X6500714Y25185690D01*
X6500714Y25328547D01*
X6453095Y25519023D01*
X6405476Y25614261D01*
X6310238Y25709500D01*
X6167380Y25757119D01*
X6072142Y25757119D01*
X5929285Y25709500D01*
X5881666Y25661880D01*
X5024523Y25423785D02*
X5024523Y24757119D01*
X5262619Y25804738D02*
X5500714Y25090452D01*
X4881666Y25090452D01*
%TO.C,C3*%
X16011142Y10136166D02*
X16058761Y10183785D01*
X16106380Y10326642D01*
X16106380Y10421880D01*
X16058761Y10564738D01*
X15963523Y10659976D01*
X15868285Y10707595D01*
X15677809Y10755214D01*
X15534952Y10755214D01*
X15344476Y10707595D01*
X15249238Y10659976D01*
X15154000Y10564738D01*
X15106380Y10421880D01*
X15106380Y10326642D01*
X15154000Y10183785D01*
X15201619Y10136166D01*
X15106380Y9802833D02*
X15106380Y9183785D01*
X15487333Y9517119D01*
X15487333Y9374261D01*
X15534952Y9279023D01*
X15582571Y9231404D01*
X15677809Y9183785D01*
X15915904Y9183785D01*
X16011142Y9231404D01*
X16058761Y9279023D01*
X16106380Y9374261D01*
X16106380Y9659976D01*
X16058761Y9755214D01*
X16011142Y9802833D01*
%TO.C,C47*%
X28074857Y24725357D02*
X28122476Y24677738D01*
X28265333Y24630119D01*
X28360571Y24630119D01*
X28503428Y24677738D01*
X28598666Y24772976D01*
X28646285Y24868214D01*
X28693904Y25058690D01*
X28693904Y25201547D01*
X28646285Y25392023D01*
X28598666Y25487261D01*
X28503428Y25582500D01*
X28360571Y25630119D01*
X28265333Y25630119D01*
X28122476Y25582500D01*
X28074857Y25534880D01*
X27217714Y25296785D02*
X27217714Y24630119D01*
X27455809Y25677738D02*
X27693904Y24963452D01*
X27074857Y24963452D01*
X26789142Y25630119D02*
X26122476Y25630119D01*
X26551047Y24630119D01*
D11*
%TO.C,U9*%
X10160000Y27404500D02*
X11960000Y27404500D01*
X10160000Y24284500D02*
X9360000Y24284500D01*
X10160000Y27404500D02*
X9360000Y27404500D01*
X10160000Y24284500D02*
X10960000Y24284500D01*
%TO.C,C2*%
X2172580Y24699500D02*
X1891420Y24699500D01*
X2172580Y25719500D02*
X1891420Y25719500D01*
%TO.C,U6*%
X4572000Y17609500D02*
X2622000Y17609500D01*
X4572000Y12489500D02*
X6522000Y12489500D01*
X4572000Y12489500D02*
X2622000Y12489500D01*
X4572000Y17609500D02*
X8022000Y17609500D01*
%TO.C,C39*%
X2399420Y11495500D02*
X2680580Y11495500D01*
X2399420Y10475500D02*
X2680580Y10475500D01*
%TO.C,R3*%
X17351742Y6399000D02*
X17826258Y6399000D01*
X17351742Y7444000D02*
X17826258Y7444000D01*
%TO.C,R14*%
X31256500Y12018242D02*
X31256500Y12492758D01*
X30211500Y12018242D02*
X30211500Y12492758D01*
%TO.C,R9*%
X21829500Y11273558D02*
X21829500Y10799042D01*
X22874500Y11273558D02*
X22874500Y10799042D01*
%TO.C,C9*%
X29970000Y17575920D02*
X29970000Y17857080D01*
X30990000Y17575920D02*
X30990000Y17857080D01*
%TO.C,C13*%
X19952580Y3875500D02*
X19671420Y3875500D01*
X19952580Y2855500D02*
X19671420Y2855500D01*
%TO.C,R7*%
X24494258Y6399000D02*
X24019742Y6399000D01*
X24494258Y7444000D02*
X24019742Y7444000D01*
%TO.C,R8*%
X34050500Y17953758D02*
X34050500Y17479242D01*
X33005500Y17953758D02*
X33005500Y17479242D01*
%TO.C,U5*%
X17018000Y16807500D02*
X18968000Y16807500D01*
X17018000Y21927500D02*
X20468000Y21927500D01*
X17018000Y16807500D02*
X15068000Y16807500D01*
X17018000Y21927500D02*
X15068000Y21927500D01*
%TO.C,R5*%
X29097500Y12018242D02*
X29097500Y12492758D01*
X28052500Y12018242D02*
X28052500Y12492758D01*
%TO.C,C4*%
X5447420Y27243500D02*
X5728580Y27243500D01*
X5447420Y26223500D02*
X5728580Y26223500D01*
%TO.C,C3*%
X13714000Y9828920D02*
X13714000Y10110080D01*
X14734000Y9828920D02*
X14734000Y10110080D01*
%TO.C,C47*%
X27572580Y26223500D02*
X27291420Y26223500D01*
X27572580Y27243500D02*
X27291420Y27243500D01*
%TD*%
%LPC*%
D12*
%TO.C,J2*%
X16002000Y3111500D03*
D13*
X13462000Y3111500D03*
X10922000Y3111500D03*
X8382000Y3111500D03*
%TD*%
D14*
%TO.C,TP1*%
X23241000Y3365500D03*
%TD*%
D15*
%TO.C,TP9*%
X30988000Y26225500D03*
%TD*%
D16*
%TO.C,H7*%
X35407600Y25667500D03*
%TD*%
D17*
%TO.C,J5*%
X38501200Y14897100D03*
D18*
X43581200Y19977100D03*
D17*
X38501200Y17437100D03*
D18*
X43581200Y9817100D03*
%TD*%
D19*
%TO.C,J4*%
X7318000Y7697900D03*
X2418000Y7097900D03*
X7318000Y22197900D03*
X2418000Y22797900D03*
%TD*%
D20*
%TO.C,H3*%
X45212000Y3365500D03*
%TD*%
D14*
%TO.C,TP2*%
X22860000Y26225500D03*
%TD*%
D16*
%TO.C,H1*%
X15240000Y25667500D03*
%TD*%
D21*
%TO.C,J1*%
X30607000Y5016500D03*
D22*
X33156900Y7566400D03*
X33156900Y2466600D03*
X28057100Y2466600D03*
X28057100Y7566400D03*
%TD*%
D23*
%TO.C,U9*%
X11297500Y26794500D03*
X11297500Y25844500D03*
X11297500Y24894500D03*
X9022500Y24894500D03*
X9022500Y26794500D03*
%TD*%
D24*
%TO.C,C2*%
X2807000Y25209500D03*
X1257000Y25209500D03*
%TD*%
D25*
%TO.C,U6*%
X7047000Y16954500D03*
X7047000Y15684500D03*
X7047000Y14414500D03*
X7047000Y13144500D03*
X2097000Y13144500D03*
X2097000Y14414500D03*
X2097000Y15684500D03*
X2097000Y16954500D03*
%TD*%
D26*
%TO.C,C39*%
X1765000Y10985500D03*
X3315000Y10985500D03*
%TD*%
D27*
%TO.C,R3*%
X16764000Y6921500D03*
X18414000Y6921500D03*
%TD*%
D28*
%TO.C,R14*%
X30734000Y11430500D03*
X30734000Y13080500D03*
%TD*%
D29*
%TO.C,R9*%
X22352000Y11861300D03*
X22352000Y10211300D03*
%TD*%
D30*
%TO.C,C9*%
X30480000Y16941500D03*
X30480000Y18491500D03*
%TD*%
D24*
%TO.C,C13*%
X20587000Y3365500D03*
X19037000Y3365500D03*
%TD*%
D31*
%TO.C,R7*%
X25082000Y6921500D03*
X23432000Y6921500D03*
%TD*%
D29*
%TO.C,R8*%
X33528000Y18541500D03*
X33528000Y16891500D03*
%TD*%
D25*
%TO.C,U5*%
X19493000Y21272500D03*
X19493000Y20002500D03*
X19493000Y18732500D03*
X19493000Y17462500D03*
X14543000Y17462500D03*
X14543000Y18732500D03*
X14543000Y20002500D03*
X14543000Y21272500D03*
%TD*%
D28*
%TO.C,R5*%
X28575000Y11430500D03*
X28575000Y13080500D03*
%TD*%
D26*
%TO.C,C4*%
X4813000Y26733500D03*
X6363000Y26733500D03*
%TD*%
D30*
%TO.C,C3*%
X14224000Y9194500D03*
X14224000Y10744500D03*
%TD*%
D24*
%TO.C,C47*%
X28207000Y26733500D03*
X26657000Y26733500D03*
%TD*%
M02*
