%TF.GenerationSoftware,KiCad,Pcbnew,(6.0.4-0)*%
%TF.CreationDate,2023-05-29T12:52:23-05:00*%
%TF.ProjectId,voltage_sense,766f6c74-6167-4655-9f73-656e73652e6b,rev?*%
%TF.SameCoordinates,Original*%
%TF.FileFunction,Copper,L1,Top*%
%TF.FilePolarity,Positive*%
%FSLAX46Y46*%
G04 Gerber Fmt 4.6, Leading zero omitted, Abs format (unit mm)*
G04 Created by KiCad (PCBNEW (6.0.4-0)) date 2023-05-29 12:52:23*
%MOMM*%
%LPD*%
G01*
G04 APERTURE LIST*
G04 Aperture macros list*
%AMRoundRect*
0 Rectangle with rounded corners*
0 $1 Rounding radius*
0 $2 $3 $4 $5 $6 $7 $8 $9 X,Y pos of 4 corners*
0 Add a 4 corners polygon primitive as box body*
4,1,4,$2,$3,$4,$5,$6,$7,$8,$9,$2,$3,0*
0 Add four circle primitives for the rounded corners*
1,1,$1+$1,$2,$3*
1,1,$1+$1,$4,$5*
1,1,$1+$1,$6,$7*
1,1,$1+$1,$8,$9*
0 Add four rect primitives between the rounded corners*
20,1,$1+$1,$2,$3,$4,$5,0*
20,1,$1+$1,$4,$5,$6,$7,0*
20,1,$1+$1,$6,$7,$8,$9,0*
20,1,$1+$1,$8,$9,$2,$3,0*%
G04 Aperture macros list end*
%TA.AperFunction,SMDPad,CuDef*%
%ADD10RoundRect,0.150000X-0.512500X-0.150000X0.512500X-0.150000X0.512500X0.150000X-0.512500X0.150000X0*%
%TD*%
%TA.AperFunction,SMDPad,CuDef*%
%ADD11RoundRect,0.200000X-0.200000X-0.275000X0.200000X-0.275000X0.200000X0.275000X-0.200000X0.275000X0*%
%TD*%
%TA.AperFunction,SMDPad,CuDef*%
%ADD12RoundRect,0.150000X0.825000X0.150000X-0.825000X0.150000X-0.825000X-0.150000X0.825000X-0.150000X0*%
%TD*%
%TA.AperFunction,ComponentPad*%
%ADD13R,1.700000X1.700000*%
%TD*%
%TA.AperFunction,ComponentPad*%
%ADD14O,1.700000X1.700000*%
%TD*%
%TA.AperFunction,SMDPad,CuDef*%
%ADD15RoundRect,0.225000X0.250000X-0.225000X0.250000X0.225000X-0.250000X0.225000X-0.250000X-0.225000X0*%
%TD*%
%TA.AperFunction,ComponentPad*%
%ADD16C,2.020000*%
%TD*%
%TA.AperFunction,SMDPad,CuDef*%
%ADD17RoundRect,0.225000X-0.250000X0.225000X-0.250000X-0.225000X0.250000X-0.225000X0.250000X0.225000X0*%
%TD*%
%TA.AperFunction,SMDPad,CuDef*%
%ADD18RoundRect,0.200000X0.200000X0.275000X-0.200000X0.275000X-0.200000X-0.275000X0.200000X-0.275000X0*%
%TD*%
%TA.AperFunction,SMDPad,CuDef*%
%ADD19RoundRect,0.200000X0.275000X-0.200000X0.275000X0.200000X-0.275000X0.200000X-0.275000X-0.200000X0*%
%TD*%
%TA.AperFunction,SMDPad,CuDef*%
%ADD20R,0.600000X0.420000*%
%TD*%
%TA.AperFunction,SMDPad,CuDef*%
%ADD21RoundRect,0.225000X-0.225000X-0.250000X0.225000X-0.250000X0.225000X0.250000X-0.225000X0.250000X0*%
%TD*%
%TA.AperFunction,ComponentPad*%
%ADD22C,2.000000*%
%TD*%
%TA.AperFunction,ComponentPad*%
%ADD23O,2.500000X1.600000*%
%TD*%
%TA.AperFunction,ComponentPad*%
%ADD24O,7.000000X3.500000*%
%TD*%
%TA.AperFunction,SMDPad,CuDef*%
%ADD25R,1.900000X0.300000*%
%TD*%
%TA.AperFunction,ComponentPad*%
%ADD26C,1.950000*%
%TD*%
%TA.AperFunction,SMDPad,CuDef*%
%ADD27RoundRect,0.200000X-0.275000X0.200000X-0.275000X-0.200000X0.275000X-0.200000X0.275000X0.200000X0*%
%TD*%
%TA.AperFunction,ComponentPad*%
%ADD28C,4.400000*%
%TD*%
%TA.AperFunction,SMDPad,CuDef*%
%ADD29RoundRect,0.225000X0.225000X0.250000X-0.225000X0.250000X-0.225000X-0.250000X0.225000X-0.250000X0*%
%TD*%
%TA.AperFunction,SMDPad,CuDef*%
%ADD30R,2.790000X1.190000*%
%TD*%
%TA.AperFunction,ComponentPad*%
%ADD31C,1.905000*%
%TD*%
%TA.AperFunction,ComponentPad*%
%ADD32C,2.667000*%
%TD*%
%TA.AperFunction,ViaPad*%
%ADD33C,0.600000*%
%TD*%
%TA.AperFunction,Conductor*%
%ADD34C,0.127000*%
%TD*%
G04 APERTURE END LIST*
D10*
%TO.P,U3,1*%
%TO.N,Net-(C8-Pad2)*%
X22738500Y18285500D03*
%TO.P,U3,2,V-*%
%TO.N,-15V*%
X22738500Y17335500D03*
%TO.P,U3,3,+*%
%TO.N,Net-(C11-Pad2)*%
X22738500Y16385500D03*
%TO.P,U3,4,-*%
%TO.N,Net-(R6-Pad1)*%
X25013500Y16385500D03*
%TO.P,U3,5,V+*%
%TO.N,+15V*%
X25013500Y18285500D03*
%TD*%
D11*
%TO.P,R10,1*%
%TO.N,Net-(C11-Pad2)*%
X16955000Y12921500D03*
%TO.P,R10,2*%
%TO.N,Net-(IC1-Pad1)*%
X18605000Y12921500D03*
%TD*%
D12*
%TO.P,U2,1,NC*%
%TO.N,unconnected-(U2-Pad1)*%
X33971000Y14922500D03*
%TO.P,U2,2,-*%
%TO.N,Net-(C7-Pad1)*%
X33971000Y16192500D03*
%TO.P,U2,3,+*%
%TO.N,Net-(J5-Pad1)*%
X33971000Y17462500D03*
%TO.P,U2,4,V-*%
%TO.N,-15V*%
X33971000Y18732500D03*
%TO.P,U2,5,NC*%
%TO.N,unconnected-(U2-Pad5)*%
X29021000Y18732500D03*
%TO.P,U2,6*%
%TO.N,Net-(C7-Pad2)*%
X29021000Y17462500D03*
%TO.P,U2,7,V+*%
%TO.N,+15V*%
X29021000Y16192500D03*
%TO.P,U2,8,NC*%
%TO.N,unconnected-(U2-Pad8)*%
X29021000Y14922500D03*
%TD*%
D13*
%TO.P,J2,1,Pin_1*%
%TO.N,+5V*%
X35550000Y3168500D03*
D14*
%TO.P,J2,2,Pin_2*%
%TO.N,-15V*%
X33010000Y3168500D03*
%TO.P,J2,3,Pin_3*%
%TO.N,+15V*%
X30470000Y3168500D03*
%TO.P,J2,4,Pin_4*%
%TO.N,GND*%
X27930000Y3168500D03*
%TD*%
D11*
%TO.P,R13,1*%
%TO.N,Net-(C12-Pad1)*%
X25591000Y26383500D03*
%TO.P,R13,2*%
%TO.N,Net-(C12-Pad2)*%
X27241000Y26383500D03*
%TD*%
D15*
%TO.P,C6,1*%
%TO.N,-15V*%
X39497000Y30022500D03*
%TO.P,C6,2*%
%TO.N,GND*%
X39497000Y31572500D03*
%TD*%
%TO.P,C7,1*%
%TO.N,Net-(C7-Pad1)*%
X28448000Y11226500D03*
%TO.P,C7,2*%
%TO.N,Net-(C7-Pad2)*%
X28448000Y12776500D03*
%TD*%
D16*
%TO.P,TP1,1*%
%TO.N,Net-(C13-Pad2)*%
X23876000Y3111500D03*
%TD*%
D11*
%TO.P,R4,1*%
%TO.N,/vsense/CAL_ADC*%
X10605000Y20033500D03*
%TO.P,R4,2*%
%TO.N,Net-(C7-Pad2)*%
X12255000Y20033500D03*
%TD*%
D17*
%TO.P,C31,1*%
%TO.N,GND*%
X10668000Y15093500D03*
%TO.P,C31,2*%
%TO.N,-15V*%
X10668000Y13543500D03*
%TD*%
D11*
%TO.P,R6,1*%
%TO.N,Net-(R6-Pad1)*%
X23432000Y12921500D03*
%TO.P,R6,2*%
%TO.N,3V3_BUF*%
X25082000Y12921500D03*
%TD*%
D15*
%TO.P,C8,1*%
%TO.N,GND*%
X20447000Y16306500D03*
%TO.P,C8,2*%
%TO.N,Net-(C8-Pad2)*%
X20447000Y17856500D03*
%TD*%
D18*
%TO.P,R66,1*%
%TO.N,+3V3*%
X22923000Y9842500D03*
%TO.P,R66,2*%
%TO.N,Net-(C5-Pad1)*%
X21273000Y9842500D03*
%TD*%
D19*
%TO.P,R71,1*%
%TO.N,Net-(H3-Pad1)*%
X41148000Y3302500D03*
%TO.P,R71,2*%
%TO.N,GND*%
X41148000Y4952500D03*
%TD*%
D15*
%TO.P,C32,1*%
%TO.N,GND*%
X36576000Y30022500D03*
%TO.P,C32,2*%
%TO.N,+15V*%
X36576000Y31572500D03*
%TD*%
D18*
%TO.P,R16,1*%
%TO.N,Net-(C13-Pad2)*%
X16573000Y9842500D03*
%TO.P,R16,2*%
%TO.N,GND*%
X14923000Y9842500D03*
%TD*%
D20*
%TO.P,U4,1,VDD*%
%TO.N,+3V3*%
X22418000Y29446500D03*
%TO.P,U4,2,VSS*%
%TO.N,GND*%
X22418000Y28796500D03*
%TO.P,U4,3,SCL*%
%TO.N,/vsense/SCL*%
X22418000Y28146500D03*
%TO.P,U4,4,SDA*%
%TO.N,/vsense/SDA*%
X24318000Y28146500D03*
%TO.P,U4,5,B*%
%TO.N,Net-(C12-Pad2)*%
X24318000Y28796500D03*
%TO.P,U4,6,W*%
%TO.N,GND*%
X24318000Y29446500D03*
%TD*%
D10*
%TO.P,IC1,1,VOUT*%
%TO.N,Net-(IC1-Pad1)*%
X13594500Y17935500D03*
%TO.P,IC1,2,VA*%
%TO.N,+5V*%
X13594500Y16985500D03*
%TO.P,IC1,3,GND*%
%TO.N,GND*%
X13594500Y16035500D03*
%TO.P,IC1,4,SDA*%
%TO.N,/vsense/SDA*%
X15869500Y16035500D03*
%TO.P,IC1,5,SCL*%
%TO.N,/vsense/SCL*%
X15869500Y16985500D03*
%TO.P,IC1,6,ADR0*%
%TO.N,Net-(IC1-Pad6)*%
X15869500Y17935500D03*
%TD*%
D21*
%TO.P,C11,1*%
%TO.N,GND*%
X20357800Y12921500D03*
%TO.P,C11,2*%
%TO.N,Net-(C11-Pad2)*%
X21907800Y12921500D03*
%TD*%
D22*
%TO.P,TP9,1,1*%
%TO.N,GND*%
X30988000Y32225500D03*
%TD*%
D11*
%TO.P,R11,1*%
%TO.N,GND*%
X26988000Y29431500D03*
%TO.P,R11,2*%
%TO.N,Net-(C12-Pad2)*%
X28638000Y29431500D03*
%TD*%
D23*
%TO.P,J5,1,In*%
%TO.N,Net-(J5-Pad1)*%
X38608000Y17317500D03*
D24*
%TO.P,J5,2,Ext*%
%TO.N,GND*%
X43688000Y22397500D03*
D23*
X38608000Y19857500D03*
D24*
X43688000Y12237500D03*
%TD*%
D25*
%TO.P,J4,1,D2+*%
%TO.N,/vsense/CMD*%
X8268000Y18585500D03*
%TO.P,J4,2,D2S*%
%TO.N,GND*%
X8268000Y19085500D03*
%TO.P,J4,3,D2-*%
%TO.N,/vsense/CAL_DAC*%
X8268000Y19585500D03*
%TO.P,J4,4,D1+*%
%TO.N,/vsense/OUT_P*%
X8268000Y20085500D03*
%TO.P,J4,5,D1S*%
%TO.N,GND*%
X8268000Y20585500D03*
%TO.P,J4,6,D1-*%
%TO.N,/vsense/OUT_N*%
X8268000Y21085500D03*
%TO.P,J4,7,D0+*%
%TO.N,/vsense/CC*%
X8268000Y21585500D03*
%TO.P,J4,8,D0S*%
%TO.N,GND*%
X8268000Y22085500D03*
%TO.P,J4,9,D0-*%
%TO.N,/vsense/CAL_ADC*%
X8268000Y22585500D03*
%TO.P,J4,10,CK+*%
%TO.N,+15V*%
X8268000Y23085500D03*
%TO.P,J4,11,CKS*%
%TO.N,GND*%
X8268000Y23585500D03*
%TO.P,J4,12,CK-*%
%TO.N,/vsense/VCM*%
X8268000Y24085500D03*
%TO.P,J4,13,CEC*%
%TO.N,-15V*%
X8268000Y24585500D03*
%TO.P,J4,14,UTILITY*%
%TO.N,unconnected-(J4-Pad14)*%
X8268000Y25085500D03*
%TO.P,J4,15,SCL*%
%TO.N,/vsense/SCL*%
X8268000Y25585500D03*
%TO.P,J4,16,SDA*%
%TO.N,/vsense/SDA*%
X8268000Y26085500D03*
%TO.P,J4,17,GND*%
%TO.N,GND*%
X8268000Y26585500D03*
%TO.P,J4,18,+5V*%
%TO.N,+5V*%
X8268000Y27085500D03*
%TO.P,J4,19,HPD*%
%TO.N,/vsense/AMP_OUT*%
X8268000Y27585500D03*
D26*
%TO.P,J4,SH,SH*%
%TO.N,Net-(FB1-Pad1)*%
X7318000Y16085500D03*
X2418000Y15485500D03*
X7318000Y30585500D03*
X2418000Y31185500D03*
%TD*%
D10*
%TO.P,U1,1*%
%TO.N,3V3_BUF*%
X22738500Y23523500D03*
%TO.P,U1,2,V-*%
%TO.N,-15V*%
X22738500Y22573500D03*
%TO.P,U1,3,+*%
%TO.N,+3V3*%
X22738500Y21623500D03*
%TO.P,U1,4,-*%
%TO.N,3V3_BUF*%
X25013500Y21623500D03*
%TO.P,U1,5,V+*%
%TO.N,+15V*%
X25013500Y23523500D03*
%TD*%
D27*
%TO.P,R1,1*%
%TO.N,Net-(C1-Pad2)*%
X10668000Y29463500D03*
%TO.P,R1,2*%
%TO.N,GND*%
X10668000Y27813500D03*
%TD*%
D28*
%TO.P,H3,1,1*%
%TO.N,Net-(H3-Pad1)*%
X45200000Y3317500D03*
%TD*%
D19*
%TO.P,R12,1*%
%TO.N,Net-(R12-Pad1)*%
X34798000Y11176500D03*
%TO.P,R12,2*%
%TO.N,Net-(J5-Pad1)*%
X34798000Y12826500D03*
%TD*%
D16*
%TO.P,TP2,1*%
%TO.N,Net-(C1-Pad2)*%
X22860000Y32225500D03*
%TD*%
D18*
%TO.P,R18,1*%
%TO.N,/vsense/AMP_OUT*%
X12255000Y23081500D03*
%TO.P,R18,2*%
%TO.N,Net-(C7-Pad2)*%
X10605000Y23081500D03*
%TD*%
D29*
%TO.P,C19,1*%
%TO.N,Net-(C19-Pad1)*%
X22873000Y8064500D03*
%TO.P,C19,2*%
%TO.N,GND*%
X21323000Y8064500D03*
%TD*%
D21*
%TO.P,C12,1*%
%TO.N,Net-(C12-Pad1)*%
X13449000Y12921500D03*
%TO.P,C12,2*%
%TO.N,Net-(C12-Pad2)*%
X14999000Y12921500D03*
%TD*%
D30*
%TO.P,RV1,1,1*%
%TO.N,Net-(C12-Pad1)*%
X14857000Y27653500D03*
%TO.P,RV1,2,2*%
%TO.N,Net-(C12-Pad2)*%
X19687000Y25113500D03*
%TO.P,RV1,3,3*%
%TO.N,unconnected-(RV1-Pad3)*%
X14857000Y22573500D03*
%TD*%
D29*
%TO.P,C10,1*%
%TO.N,-15V*%
X30366000Y27780500D03*
%TO.P,C10,2*%
%TO.N,GND*%
X28816000Y27780500D03*
%TD*%
D18*
%TO.P,R15,1*%
%TO.N,Net-(C13-Pad2)*%
X13398000Y9842500D03*
%TO.P,R15,2*%
%TO.N,/vsense/CC*%
X11748000Y9842500D03*
%TD*%
%TO.P,R2,1*%
%TO.N,Net-(C1-Pad2)*%
X12255000Y26129500D03*
%TO.P,R2,2*%
%TO.N,/vsense/CMD*%
X10605000Y26129500D03*
%TD*%
D29*
%TO.P,C5,1*%
%TO.N,Net-(C5-Pad1)*%
X19698000Y9842500D03*
%TO.P,C5,2*%
%TO.N,GND*%
X18148000Y9842500D03*
%TD*%
D17*
%TO.P,C1,1*%
%TO.N,GND*%
X19304000Y30968500D03*
%TO.P,C1,2*%
%TO.N,Net-(C1-Pad2)*%
X19304000Y29418500D03*
%TD*%
D31*
%TO.P,J1,1,In*%
%TO.N,/vsense/SMA_OUT*%
X4826000Y5905500D03*
D32*
%TO.P,J1,2,Ext*%
%TO.N,GND*%
X7375900Y3355600D03*
%TO.P,J1,3*%
%TO.N,N/C*%
X2276100Y3355600D03*
%TO.P,J1,4*%
X2276100Y8455400D03*
%TO.P,J1,5*%
X7375900Y8455400D03*
%TD*%
D33*
%TO.N,Net-(R12-Pad1)*%
X21061300Y21220500D03*
X32506000Y10192500D03*
%TO.N,Net-(C12-Pad2)*%
X17855100Y25184400D03*
X15391000Y14455000D03*
%TO.N,Net-(C19-Pad1)*%
X25969100Y8298700D03*
%TO.N,Net-(IC1-Pad6)*%
X16975400Y17369200D03*
%TO.N,Net-(R6-Pad1)*%
X23388000Y13932400D03*
%TO.N,Net-(C12-Pad1)*%
X16215200Y25696500D03*
X23555700Y26030500D03*
X13471700Y13932500D03*
%TO.N,/vsense/CMD*%
X10611500Y24613200D03*
X10229600Y18376500D03*
%TO.N,+3V3*%
X22930400Y30496500D03*
X25969100Y9505200D03*
%TO.N,Net-(C8-Pad2)*%
X23326500Y19021300D03*
%TO.N,Net-(C7-Pad2)*%
X27674500Y18102100D03*
X13803800Y19160000D03*
%TO.N,Net-(C7-Pad1)*%
X30730200Y15387800D03*
%TO.N,-15V*%
X30366000Y26868800D03*
X9654600Y24163900D03*
X10668000Y12637700D03*
X34284500Y20362600D03*
X38588900Y29919600D03*
X23829100Y17335500D03*
X21643800Y22573500D03*
X19493000Y22734100D03*
%TO.N,+15V*%
X13131200Y26177600D03*
X36576000Y32451700D03*
X30423700Y16232600D03*
X18538500Y8517900D03*
X25013500Y19014700D03*
X25013500Y22795800D03*
X30480000Y25371900D03*
X9645500Y23062700D03*
%TO.N,+5V*%
X29458500Y7379700D03*
X12513900Y16585500D03*
X29458500Y10760600D03*
X22273200Y10670300D03*
X6831800Y26843400D03*
%TO.N,GND*%
X13301800Y15134300D03*
X6809000Y18292500D03*
X25918200Y12992600D03*
X18414000Y13834000D03*
X9651500Y27170400D03*
X21933900Y8855200D03*
X18148000Y10755500D03*
X6723200Y23641800D03*
X20357800Y13825700D03*
X14923000Y8928200D03*
X6643800Y21950400D03*
X27936500Y27752500D03*
X29219700Y32103600D03*
X10668000Y15972200D03*
X19304000Y31869800D03*
X20447000Y15423100D03*
X24524000Y10873100D03*
X26159100Y29281200D03*
X30569000Y9074300D03*
X30480000Y22056800D03*
X39497000Y32453600D03*
X40238500Y5293400D03*
X37484500Y29919600D03*
X23566000Y29477500D03*
%TD*%
D34*
%TO.N,GND*%
X9779000Y21651500D02*
X9779000Y20637500D01*
X8268000Y22085500D02*
X9345000Y22085500D01*
X9779000Y20637500D02*
X9727000Y20585500D01*
X9345000Y22085500D02*
X9779000Y21651500D01*
X9727000Y20585500D02*
X8268000Y20585500D01*
%TO.N,Net-(J5-Pad1)*%
X36068000Y13196700D02*
X36068000Y13271500D01*
X36068000Y13271500D02*
X36068000Y17317500D01*
X34798000Y12826500D02*
X35623000Y12826500D01*
X35623000Y12826500D02*
X36068000Y13271500D01*
%TO.N,Net-(C13-Pad2)*%
X14082600Y10527100D02*
X13398000Y9842500D01*
X15888400Y10527100D02*
X14082600Y10527100D01*
X16573000Y9842500D02*
X15888400Y10527100D01*
X16573000Y9759100D02*
X16573000Y9842500D01*
X23220600Y3111500D02*
X16573000Y9759100D01*
X23876000Y3111500D02*
X23220600Y3111500D01*
%TO.N,Net-(J5-Pad1)*%
X38608000Y17317500D02*
X37887700Y17317500D01*
X34798000Y12826500D02*
X35168200Y13196700D01*
X37887700Y17317500D02*
X35168200Y17317500D01*
X34116000Y17317500D02*
X33971000Y17462500D01*
X35168200Y17317500D02*
X34116000Y17317500D01*
%TO.N,Net-(R12-Pad1)*%
X33814000Y10192500D02*
X34798000Y11176500D01*
X32506000Y10192500D02*
X33814000Y10192500D01*
%TO.N,Net-(C12-Pad2)*%
X24318000Y28796500D02*
X24808600Y28796500D01*
X27241000Y28709200D02*
X27241000Y26383500D01*
X24895900Y28709200D02*
X27241000Y28709200D01*
X24808600Y28796500D02*
X24895900Y28709200D01*
X27915700Y28709200D02*
X28638000Y29431500D01*
X27241000Y28709200D02*
X27915700Y28709200D01*
X19687000Y25113500D02*
X21272600Y25113500D01*
X24318000Y28796500D02*
X23827400Y28796500D01*
X19687000Y25113500D02*
X18101400Y25113500D01*
X17926000Y25113500D02*
X18101400Y25113500D01*
X17855100Y25184400D02*
X17926000Y25113500D01*
X23827400Y27668300D02*
X21272600Y25113500D01*
X23827400Y28796500D02*
X23827400Y27668300D01*
X14999000Y14063000D02*
X14999000Y12921500D01*
X15391000Y14455000D02*
X14999000Y14063000D01*
%TO.N,Net-(H3-Pad1)*%
X41163000Y3317500D02*
X41148000Y3302500D01*
X45200000Y3317500D02*
X41163000Y3317500D01*
%TO.N,Net-(C19-Pad1)*%
X23107200Y8298700D02*
X22873000Y8064500D01*
X25969100Y8298700D02*
X23107200Y8298700D01*
%TO.N,Net-(C5-Pad1)*%
X19698000Y9842500D02*
X21273000Y9842500D01*
%TO.N,3V3_BUF*%
X23113500Y23523500D02*
X25013500Y21623500D01*
X22738500Y23523500D02*
X23113500Y23523500D01*
X25873800Y13713300D02*
X25082000Y12921500D01*
X25873800Y20763200D02*
X25873800Y13713300D01*
X25013500Y21623500D02*
X25873800Y20763200D01*
%TO.N,Net-(IC1-Pad6)*%
X16409100Y17935500D02*
X16975400Y17369200D01*
X15869500Y17935500D02*
X16409100Y17935500D01*
%TO.N,Net-(IC1-Pad1)*%
X16870400Y14656100D02*
X18605000Y12921500D01*
X16103900Y14656100D02*
X16870400Y14656100D01*
X14467400Y16292600D02*
X16103900Y14656100D01*
X14467400Y17259200D02*
X14467400Y16292600D01*
X13791100Y17935500D02*
X14467400Y17259200D01*
X13594500Y17935500D02*
X13791100Y17935500D01*
%TO.N,Net-(R6-Pad1)*%
X23432000Y13888400D02*
X23432000Y12921500D01*
X23388000Y13932400D02*
X23432000Y13888400D01*
X25013500Y15557900D02*
X25013500Y16385500D01*
X23388000Y13932400D02*
X25013500Y15557900D01*
%TO.N,Net-(C12-Pad1)*%
X25238000Y26030500D02*
X23555700Y26030500D01*
X25591000Y26383500D02*
X25238000Y26030500D01*
X15043800Y26867900D02*
X14857000Y26867900D01*
X16215200Y25696500D02*
X15043800Y26867900D01*
X14857000Y27653500D02*
X14857000Y26867900D01*
X13449000Y13909800D02*
X13449000Y12921500D01*
X13471700Y13932500D02*
X13449000Y13909800D01*
%TO.N,Net-(C11-Pad2)*%
X21907800Y15554800D02*
X21907800Y12921500D01*
X22738500Y16385500D02*
X21907800Y15554800D01*
X17651600Y12224900D02*
X16955000Y12921500D01*
X21211200Y12224900D02*
X17651600Y12224900D01*
X21907800Y12921500D02*
X21211200Y12224900D01*
%TO.N,/vsense/AMP_OUT*%
X11354300Y23982200D02*
X12255000Y23081500D01*
X11354300Y28208400D02*
X11354300Y23982200D01*
X11152800Y28409900D02*
X11354300Y28208400D01*
X9092400Y28409900D02*
X11152800Y28409900D01*
X8268000Y27585500D02*
X9092400Y28409900D01*
%TO.N,/vsense/CMD*%
X10611500Y26123000D02*
X10611500Y24613200D01*
X10605000Y26129500D02*
X10611500Y26123000D01*
X9617600Y18376500D02*
X9408600Y18585500D01*
X10229600Y18376500D02*
X9617600Y18376500D01*
X8268000Y18585500D02*
X9408600Y18585500D01*
%TO.N,+3V3*%
X22418000Y29446500D02*
X22418000Y29847100D01*
X24029000Y20333000D02*
X22738500Y21623500D01*
X24029000Y17874600D02*
X24029000Y20333000D01*
X24339600Y17564000D02*
X24029000Y17874600D01*
X24339600Y17016400D02*
X24339600Y17564000D01*
X23876000Y16552800D02*
X24339600Y17016400D01*
X23876000Y15226500D02*
X23876000Y16552800D01*
X22777600Y14128100D02*
X23876000Y15226500D01*
X22777600Y9987900D02*
X22777600Y14128100D01*
X22923000Y9842500D02*
X22777600Y9987900D01*
X22930400Y30359500D02*
X22418000Y29847100D01*
X22930400Y30496500D02*
X22930400Y30359500D01*
X23260300Y9505200D02*
X22923000Y9842500D01*
X25969100Y9505200D02*
X23260300Y9505200D01*
%TO.N,/vsense/CC*%
X6118900Y20577000D02*
X7127400Y21585500D01*
X6118900Y15471600D02*
X6118900Y20577000D01*
X11748000Y9842500D02*
X6118900Y15471600D01*
X8268000Y21585500D02*
X7127400Y21585500D01*
%TO.N,/vsense/CAL_ADC*%
X10605000Y21389100D02*
X10605000Y20033500D01*
X9408600Y22585500D02*
X10605000Y21389100D01*
X8268000Y22585500D02*
X9408600Y22585500D01*
%TO.N,/vsense/SCL*%
X8268000Y25585500D02*
X7127400Y25585500D01*
X19650900Y28146500D02*
X22418000Y28146500D01*
X15430800Y23926400D02*
X19650900Y28146500D01*
X13398500Y23926400D02*
X15430800Y23926400D01*
X11608500Y25716400D02*
X13398500Y23926400D01*
X11608500Y28332100D02*
X11608500Y25716400D01*
X11228400Y28712200D02*
X11608500Y28332100D01*
X7933700Y28712200D02*
X11228400Y28712200D01*
X6289700Y27068200D02*
X7933700Y28712200D01*
X6289700Y26423200D02*
X6289700Y27068200D01*
X7127400Y25585500D02*
X6289700Y26423200D01*
X15656700Y16985500D02*
X15869500Y16985500D01*
X14956500Y17685700D02*
X15656700Y16985500D01*
X14956500Y20075300D02*
X14956500Y17685700D01*
X13244000Y21787800D02*
X14956500Y20075300D01*
X13244000Y23771900D02*
X13244000Y21787800D01*
X13398500Y23926400D02*
X13244000Y23771900D01*
%TO.N,/vsense/SDA*%
X23039800Y26467700D02*
X24318000Y27745900D01*
X23039800Y26143000D02*
X23039800Y26467700D01*
X19983700Y23086900D02*
X23039800Y26143000D01*
X19983700Y19622800D02*
X19983700Y23086900D01*
X16396400Y16035500D02*
X19983700Y19622800D01*
X15869500Y16035500D02*
X16396400Y16035500D01*
X24318000Y28146500D02*
X24318000Y27745900D01*
X8268000Y26085500D02*
X9408600Y26085500D01*
X15630800Y16035500D02*
X15869500Y16035500D01*
X14933600Y16732700D02*
X15630800Y16035500D01*
X14933600Y17349100D02*
X14933600Y16732700D01*
X14575500Y17707200D02*
X14933600Y17349100D01*
X14575500Y19480200D02*
X14575500Y17707200D01*
X11631000Y22424700D02*
X14575500Y19480200D01*
X11631000Y23084000D02*
X11631000Y22424700D01*
X10592400Y24122600D02*
X11631000Y23084000D01*
X10408400Y24122600D02*
X10592400Y24122600D01*
X9408600Y25122400D02*
X10408400Y24122600D01*
X9408600Y26085500D02*
X9408600Y25122400D01*
%TO.N,Net-(C8-Pad2)*%
X20876000Y18285500D02*
X20447000Y17856500D01*
X22738500Y18285500D02*
X20876000Y18285500D01*
X22738500Y18433300D02*
X23326500Y19021300D01*
X22738500Y18285500D02*
X22738500Y18433300D01*
%TO.N,Net-(C7-Pad2)*%
X27674500Y17813500D02*
X27674500Y18102100D01*
X28025500Y17462500D02*
X27674500Y17813500D01*
X29021000Y17462500D02*
X28025500Y17462500D01*
X27854700Y13369800D02*
X28448000Y12776500D01*
X27854700Y17291700D02*
X27854700Y13369800D01*
X28025500Y17462500D02*
X27854700Y17291700D01*
X12930300Y20033500D02*
X13803800Y19160000D01*
X12255000Y20033500D02*
X12930300Y20033500D01*
X12255000Y21431500D02*
X12255000Y20033500D01*
X10605000Y23081500D02*
X12255000Y21431500D01*
%TO.N,Net-(C7-Pad1)*%
X31534900Y16192500D02*
X33971000Y16192500D01*
X30730200Y15387800D02*
X31534900Y16192500D01*
X30730200Y13508700D02*
X30730200Y15387800D01*
X28448000Y11226500D02*
X30730200Y13508700D01*
%TO.N,Net-(C1-Pad2)*%
X22111000Y32225500D02*
X22860000Y32225500D01*
X19304000Y29418500D02*
X22111000Y32225500D01*
X13499100Y29418500D02*
X19304000Y29418500D01*
X12255000Y28174400D02*
X13499100Y29418500D01*
X12255000Y26129500D02*
X12255000Y28174400D01*
X10965900Y29463500D02*
X10668000Y29463500D01*
X12255000Y28174400D02*
X10965900Y29463500D01*
%TO.N,-15V*%
X30366000Y26868800D02*
X30366000Y27780500D01*
X8268000Y24585500D02*
X9408600Y24585500D01*
X9408600Y24409900D02*
X9408600Y24585500D01*
X9654600Y24163900D02*
X9408600Y24409900D01*
X10668000Y12637700D02*
X10668000Y13543500D01*
X33971000Y20049100D02*
X33971000Y18732500D01*
X34284500Y20362600D02*
X33971000Y20049100D01*
X39394100Y29919600D02*
X39497000Y30022500D01*
X38588900Y29919600D02*
X39394100Y29919600D01*
X22738500Y17335500D02*
X23829100Y17335500D01*
X22738500Y22573500D02*
X21643800Y22573500D01*
%TO.N,+15V*%
X36576000Y31572500D02*
X36576000Y32451700D01*
X29061100Y16232600D02*
X29021000Y16192500D01*
X30423700Y16232600D02*
X29061100Y16232600D01*
X25013500Y22795800D02*
X25013500Y23523500D01*
X25013500Y18285500D02*
X25013500Y19014700D01*
X8268000Y23085500D02*
X9408600Y23085500D01*
X9431400Y23062700D02*
X9408600Y23085500D01*
X9645500Y23062700D02*
X9431400Y23062700D01*
%TO.N,+5V*%
X12913900Y16985500D02*
X13594500Y16985500D01*
X12513900Y16585500D02*
X12913900Y16985500D01*
X7073900Y27085500D02*
X8268000Y27085500D01*
X6831800Y26843400D02*
X7073900Y27085500D01*
%TO.N,GND*%
X18148000Y10755500D02*
X18148000Y9842500D01*
X21323000Y8244300D02*
X21323000Y8064500D01*
X21933900Y8855200D02*
X21323000Y8244300D01*
X8268000Y26585500D02*
X9408600Y26585500D01*
X8268000Y23585500D02*
X7127400Y23585500D01*
X7071100Y23641800D02*
X7127400Y23585500D01*
X6723200Y23641800D02*
X7071100Y23641800D01*
X6809000Y18767100D02*
X7127400Y19085500D01*
X6809000Y18292500D02*
X6809000Y18767100D01*
X8268000Y19085500D02*
X7127400Y19085500D01*
X20357800Y12921500D02*
X20357800Y13825700D01*
X13594500Y15427000D02*
X13594500Y16035500D01*
X13301800Y15134300D02*
X13594500Y15427000D01*
X14923000Y8928200D02*
X14923000Y9842500D01*
X10024900Y27170400D02*
X10668000Y27813500D01*
X9651500Y27170400D02*
X10024900Y27170400D01*
X9651500Y26828400D02*
X9408600Y26585500D01*
X9651500Y27170400D02*
X9651500Y26828400D01*
X8268000Y22085500D02*
X7127400Y22085500D01*
X6992300Y21950400D02*
X7127400Y22085500D01*
X6643800Y21950400D02*
X6992300Y21950400D01*
X28788000Y27752500D02*
X28816000Y27780500D01*
X27936500Y27752500D02*
X28788000Y27752500D01*
X10668000Y15972200D02*
X10668000Y15093500D01*
X19304000Y31869800D02*
X19304000Y30968500D01*
X20447000Y16306500D02*
X20447000Y15423100D01*
X26837700Y29281200D02*
X26988000Y29431500D01*
X26159100Y29281200D02*
X26837700Y29281200D01*
X39497000Y31572500D02*
X39497000Y32453600D01*
X40807100Y5293400D02*
X41148000Y4952500D01*
X40238500Y5293400D02*
X40807100Y5293400D01*
X36678900Y29919600D02*
X36576000Y30022500D01*
X37484500Y29919600D02*
X36678900Y29919600D01*
X24318000Y29446500D02*
X23827400Y29446500D01*
X23796400Y29477500D02*
X23827400Y29446500D01*
X23566000Y29477500D02*
X23796400Y29477500D01*
X22908600Y28820100D02*
X22908600Y28796500D01*
X23566000Y29477500D02*
X22908600Y28820100D01*
X22418000Y28796500D02*
X22908600Y28796500D01*
%TD*%
M02*
