%TF.GenerationSoftware,KiCad,Pcbnew,(6.0.4-0)*%
%TF.CreationDate,2023-05-17T14:52:11-05:00*%
%TF.ProjectId,voltage_sense,766f6c74-6167-4655-9f73-656e73652e6b,rev?*%
%TF.SameCoordinates,Original*%
%TF.FileFunction,Copper,L1,Top*%
%TF.FilePolarity,Positive*%
%FSLAX46Y46*%
G04 Gerber Fmt 4.6, Leading zero omitted, Abs format (unit mm)*
G04 Created by KiCad (PCBNEW (6.0.4-0)) date 2023-05-17 14:52:11*
%MOMM*%
%LPD*%
G01*
G04 APERTURE LIST*
G04 Aperture macros list*
%AMRoundRect*
0 Rectangle with rounded corners*
0 $1 Rounding radius*
0 $2 $3 $4 $5 $6 $7 $8 $9 X,Y pos of 4 corners*
0 Add a 4 corners polygon primitive as box body*
4,1,4,$2,$3,$4,$5,$6,$7,$8,$9,$2,$3,0*
0 Add four circle primitives for the rounded corners*
1,1,$1+$1,$2,$3*
1,1,$1+$1,$4,$5*
1,1,$1+$1,$6,$7*
1,1,$1+$1,$8,$9*
0 Add four rect primitives between the rounded corners*
20,1,$1+$1,$2,$3,$4,$5,0*
20,1,$1+$1,$4,$5,$6,$7,0*
20,1,$1+$1,$6,$7,$8,$9,0*
20,1,$1+$1,$8,$9,$2,$3,0*%
G04 Aperture macros list end*
%TA.AperFunction,SMDPad,CuDef*%
%ADD10RoundRect,0.150000X-0.512500X-0.150000X0.512500X-0.150000X0.512500X0.150000X-0.512500X0.150000X0*%
%TD*%
%TA.AperFunction,SMDPad,CuDef*%
%ADD11RoundRect,0.200000X-0.200000X-0.275000X0.200000X-0.275000X0.200000X0.275000X-0.200000X0.275000X0*%
%TD*%
%TA.AperFunction,SMDPad,CuDef*%
%ADD12RoundRect,0.150000X0.825000X0.150000X-0.825000X0.150000X-0.825000X-0.150000X0.825000X-0.150000X0*%
%TD*%
%TA.AperFunction,ComponentPad*%
%ADD13R,1.700000X1.700000*%
%TD*%
%TA.AperFunction,ComponentPad*%
%ADD14O,1.700000X1.700000*%
%TD*%
%TA.AperFunction,SMDPad,CuDef*%
%ADD15RoundRect,0.225000X0.250000X-0.225000X0.250000X0.225000X-0.250000X0.225000X-0.250000X-0.225000X0*%
%TD*%
%TA.AperFunction,ComponentPad*%
%ADD16C,2.020000*%
%TD*%
%TA.AperFunction,SMDPad,CuDef*%
%ADD17RoundRect,0.225000X-0.250000X0.225000X-0.250000X-0.225000X0.250000X-0.225000X0.250000X0.225000X0*%
%TD*%
%TA.AperFunction,SMDPad,CuDef*%
%ADD18RoundRect,0.200000X0.200000X0.275000X-0.200000X0.275000X-0.200000X-0.275000X0.200000X-0.275000X0*%
%TD*%
%TA.AperFunction,SMDPad,CuDef*%
%ADD19RoundRect,0.200000X0.275000X-0.200000X0.275000X0.200000X-0.275000X0.200000X-0.275000X-0.200000X0*%
%TD*%
%TA.AperFunction,SMDPad,CuDef*%
%ADD20R,0.600000X0.420000*%
%TD*%
%TA.AperFunction,SMDPad,CuDef*%
%ADD21RoundRect,0.225000X-0.225000X-0.250000X0.225000X-0.250000X0.225000X0.250000X-0.225000X0.250000X0*%
%TD*%
%TA.AperFunction,ComponentPad*%
%ADD22C,2.000000*%
%TD*%
%TA.AperFunction,ComponentPad*%
%ADD23O,2.500000X1.600000*%
%TD*%
%TA.AperFunction,ComponentPad*%
%ADD24O,7.000000X3.500000*%
%TD*%
%TA.AperFunction,SMDPad,CuDef*%
%ADD25R,1.900000X0.300000*%
%TD*%
%TA.AperFunction,ComponentPad*%
%ADD26C,1.950000*%
%TD*%
%TA.AperFunction,ComponentPad*%
%ADD27C,4.400000*%
%TD*%
%TA.AperFunction,SMDPad,CuDef*%
%ADD28RoundRect,0.250000X-0.325000X-0.650000X0.325000X-0.650000X0.325000X0.650000X-0.325000X0.650000X0*%
%TD*%
%TA.AperFunction,SMDPad,CuDef*%
%ADD29RoundRect,0.225000X0.225000X0.250000X-0.225000X0.250000X-0.225000X-0.250000X0.225000X-0.250000X0*%
%TD*%
%TA.AperFunction,SMDPad,CuDef*%
%ADD30R,2.790000X1.190000*%
%TD*%
%TA.AperFunction,ComponentPad*%
%ADD31C,1.905000*%
%TD*%
%TA.AperFunction,ComponentPad*%
%ADD32C,2.667000*%
%TD*%
%TA.AperFunction,ViaPad*%
%ADD33C,0.600000*%
%TD*%
%TA.AperFunction,Conductor*%
%ADD34C,0.127000*%
%TD*%
G04 APERTURE END LIST*
D10*
%TO.P,U3,1*%
%TO.N,Net-(C8-Pad2)*%
X22230500Y11986300D03*
%TO.P,U3,2,V-*%
%TO.N,-15V*%
X22230500Y11036300D03*
%TO.P,U3,3,+*%
%TO.N,Net-(C11-Pad2)*%
X22230500Y10086300D03*
%TO.P,U3,4,-*%
%TO.N,Net-(R6-Pad1)*%
X24505500Y10086300D03*
%TO.P,U3,5,V+*%
%TO.N,+15V*%
X24505500Y11986300D03*
%TD*%
D11*
%TO.P,R10,1*%
%TO.N,Net-(C11-Pad2)*%
X16955000Y6921500D03*
%TO.P,R10,2*%
%TO.N,Net-(IC1-Pad1)*%
X18605000Y6921500D03*
%TD*%
D12*
%TO.P,U2,1,NC*%
%TO.N,unconnected-(U2-Pad1)*%
X33971000Y14795500D03*
%TO.P,U2,2,-*%
%TO.N,Net-(C7-Pad1)*%
X33971000Y16065500D03*
%TO.P,U2,3,+*%
%TO.N,Net-(J5-Pad1)*%
X33971000Y17335500D03*
%TO.P,U2,4,V-*%
%TO.N,-15V*%
X33971000Y18605500D03*
%TO.P,U2,5,NC*%
%TO.N,unconnected-(U2-Pad5)*%
X29021000Y18605500D03*
%TO.P,U2,6*%
%TO.N,Net-(C7-Pad2)*%
X29021000Y17335500D03*
%TO.P,U2,7,V+*%
%TO.N,+15V*%
X29021000Y16065500D03*
%TO.P,U2,8,NC*%
%TO.N,unconnected-(U2-Pad8)*%
X29021000Y14795500D03*
%TD*%
D13*
%TO.P,J2,1,Pin_1*%
%TO.N,+5V*%
X16002000Y3111500D03*
D14*
%TO.P,J2,2,Pin_2*%
%TO.N,-15V*%
X13462000Y3111500D03*
%TO.P,J2,3,Pin_3*%
%TO.N,+15V*%
X10922000Y3111500D03*
%TO.P,J2,4,Pin_4*%
%TO.N,GND*%
X8382000Y3111500D03*
%TD*%
D11*
%TO.P,R13,1*%
%TO.N,Net-(C12-Pad1)*%
X25591000Y20383500D03*
%TO.P,R13,2*%
%TO.N,Net-(C12-Pad2)*%
X27241000Y20383500D03*
%TD*%
D15*
%TO.P,C6,1*%
%TO.N,-15V*%
X43180000Y24942500D03*
%TO.P,C6,2*%
%TO.N,GND*%
X43180000Y26492500D03*
%TD*%
%TO.P,C7,1*%
%TO.N,Net-(C7-Pad1)*%
X28575000Y11480500D03*
%TO.P,C7,2*%
%TO.N,Net-(C7-Pad2)*%
X28575000Y13030500D03*
%TD*%
D16*
%TO.P,TP1,1*%
%TO.N,Net-(C13-Pad2)*%
X23241000Y3365500D03*
%TD*%
D11*
%TO.P,R4,1*%
%TO.N,/vsense/CAL_ADC*%
X10605000Y14033500D03*
%TO.P,R4,2*%
%TO.N,Net-(C7-Pad2)*%
X12255000Y14033500D03*
%TD*%
D17*
%TO.P,C31,1*%
%TO.N,GND*%
X10160000Y9093500D03*
%TO.P,C31,2*%
%TO.N,-15V*%
X10160000Y7543500D03*
%TD*%
D11*
%TO.P,R6,1*%
%TO.N,Net-(R6-Pad1)*%
X23432000Y6921500D03*
%TO.P,R6,2*%
%TO.N,3V3_BUF*%
X25082000Y6921500D03*
%TD*%
D15*
%TO.P,C8,1*%
%TO.N,GND*%
X19812000Y10464500D03*
%TO.P,C8,2*%
%TO.N,Net-(C8-Pad2)*%
X19812000Y12014500D03*
%TD*%
D18*
%TO.P,R66,1*%
%TO.N,+3V3*%
X6413000Y26606500D03*
%TO.P,R66,2*%
%TO.N,Net-(C5-Pad1)*%
X4763000Y26606500D03*
%TD*%
D19*
%TO.P,R71,1*%
%TO.N,Net-(H3-Pad1)*%
X41148000Y3556500D03*
%TO.P,R71,2*%
%TO.N,GND*%
X41148000Y5206500D03*
%TD*%
D15*
%TO.P,C32,1*%
%TO.N,GND*%
X40132000Y24942500D03*
%TO.P,C32,2*%
%TO.N,+15V*%
X40132000Y26492500D03*
%TD*%
D18*
%TO.P,R16,1*%
%TO.N,Net-(C13-Pad2)*%
X20637000Y3365500D03*
%TO.P,R16,2*%
%TO.N,GND*%
X18987000Y3365500D03*
%TD*%
D20*
%TO.P,U4,1,VDD*%
%TO.N,+3V3*%
X22418000Y23446500D03*
%TO.P,U4,2,VSS*%
%TO.N,GND*%
X22418000Y22796500D03*
%TO.P,U4,3,SCL*%
%TO.N,/vsense/SCL*%
X22418000Y22146500D03*
%TO.P,U4,4,SDA*%
%TO.N,/vsense/SDA*%
X24318000Y22146500D03*
%TO.P,U4,5,B*%
%TO.N,Net-(C12-Pad2)*%
X24318000Y22796500D03*
%TO.P,U4,6,W*%
%TO.N,GND*%
X24318000Y23446500D03*
%TD*%
D10*
%TO.P,IC1,1,VOUT*%
%TO.N,Net-(IC1-Pad1)*%
X13594500Y11935500D03*
%TO.P,IC1,2,VA*%
%TO.N,+5V*%
X13594500Y10985500D03*
%TO.P,IC1,3,GND*%
%TO.N,GND*%
X13594500Y10035500D03*
%TO.P,IC1,4,SDA*%
%TO.N,/vsense/SDA*%
X15869500Y10035500D03*
%TO.P,IC1,5,SCL*%
%TO.N,/vsense/SCL*%
X15869500Y10985500D03*
%TO.P,IC1,6,ADR0*%
%TO.N,Net-(IC1-Pad6)*%
X15869500Y11935500D03*
%TD*%
D21*
%TO.P,C11,1*%
%TO.N,GND*%
X20357800Y6921500D03*
%TO.P,C11,2*%
%TO.N,Net-(C11-Pad2)*%
X21907800Y6921500D03*
%TD*%
D22*
%TO.P,TP9,1,1*%
%TO.N,GND*%
X30988000Y26225500D03*
%TD*%
D11*
%TO.P,R11,1*%
%TO.N,GND*%
X26988000Y23431500D03*
%TO.P,R11,2*%
%TO.N,Net-(C12-Pad2)*%
X28638000Y23431500D03*
%TD*%
D23*
%TO.P,J5,1,In*%
%TO.N,Net-(J5-Pad1)*%
X38501200Y14897100D03*
D24*
%TO.P,J5,2,Ext*%
%TO.N,GND*%
X43581200Y19977100D03*
D23*
X38501200Y17437100D03*
D24*
X43581200Y9817100D03*
%TD*%
D25*
%TO.P,J4,1,D2+*%
%TO.N,/vsense/CMD*%
X8268000Y10197900D03*
%TO.P,J4,2,D2S*%
%TO.N,GND*%
X8268000Y10697900D03*
%TO.P,J4,3,D2-*%
%TO.N,/vsense/CAL_DAC*%
X8268000Y11197900D03*
%TO.P,J4,4,D1+*%
%TO.N,/vsense/OUT_P*%
X8268000Y11697900D03*
%TO.P,J4,5,D1S*%
%TO.N,GND*%
X8268000Y12197900D03*
%TO.P,J4,6,D1-*%
%TO.N,/vsense/OUT_N*%
X8268000Y12697900D03*
%TO.P,J4,7,D0+*%
%TO.N,/vsense/CC*%
X8268000Y13197900D03*
%TO.P,J4,8,D0S*%
%TO.N,GND*%
X8268000Y13697900D03*
%TO.P,J4,9,D0-*%
%TO.N,/vsense/CAL_ADC*%
X8268000Y14197900D03*
%TO.P,J4,10,CK+*%
%TO.N,+15V*%
X8268000Y14697900D03*
%TO.P,J4,11,CKS*%
%TO.N,GND*%
X8268000Y15197900D03*
%TO.P,J4,12,CK-*%
%TO.N,/vsense/VCM*%
X8268000Y15697900D03*
%TO.P,J4,13,CEC*%
%TO.N,-15V*%
X8268000Y16197900D03*
%TO.P,J4,14,UTILITY*%
%TO.N,unconnected-(J4-Pad14)*%
X8268000Y16697900D03*
%TO.P,J4,15,SCL*%
%TO.N,/vsense/SCL*%
X8268000Y17197900D03*
%TO.P,J4,16,SDA*%
%TO.N,/vsense/SDA*%
X8268000Y17697900D03*
%TO.P,J4,17,GND*%
%TO.N,GND*%
X8268000Y18197900D03*
%TO.P,J4,18,+5V*%
%TO.N,+5V*%
X8268000Y18697900D03*
%TO.P,J4,19,HPD*%
%TO.N,/vsense/AMP_OUT*%
X8268000Y19197900D03*
D26*
%TO.P,J4,SH,SH*%
%TO.N,Net-(FB1-Pad1)*%
X7318000Y7697900D03*
X2418000Y7097900D03*
X7318000Y22197900D03*
X2418000Y22797900D03*
%TD*%
D10*
%TO.P,U1,1*%
%TO.N,3V3_BUF*%
X22738500Y17523500D03*
%TO.P,U1,2,V-*%
%TO.N,-15V*%
X22738500Y16573500D03*
%TO.P,U1,3,+*%
%TO.N,+3V3*%
X22738500Y15623500D03*
%TO.P,U1,4,-*%
%TO.N,3V3_BUF*%
X25013500Y15623500D03*
%TO.P,U1,5,V+*%
%TO.N,+15V*%
X25013500Y17523500D03*
%TD*%
D18*
%TO.P,R1,1*%
%TO.N,Net-(C1-Pad2)*%
X12255000Y23177500D03*
%TO.P,R1,2*%
%TO.N,GND*%
X10605000Y23177500D03*
%TD*%
D27*
%TO.P,H3,1,1*%
%TO.N,Net-(H3-Pad1)*%
X45212000Y3365500D03*
%TD*%
D19*
%TO.P,R12,1*%
%TO.N,Net-(R12-Pad1)*%
X34290000Y11367500D03*
%TO.P,R12,2*%
%TO.N,Net-(J5-Pad1)*%
X34290000Y13017500D03*
%TD*%
D16*
%TO.P,TP2,1*%
%TO.N,Net-(C1-Pad2)*%
X22860000Y26225500D03*
%TD*%
D28*
%TO.P,FB1,1*%
%TO.N,Net-(FB1-Pad1)*%
X1420600Y2908300D03*
%TO.P,FB1,2*%
%TO.N,GND*%
X4370600Y2908300D03*
%TD*%
D18*
%TO.P,R18,1*%
%TO.N,/vsense/AMP_OUT*%
X12255000Y17081500D03*
%TO.P,R18,2*%
%TO.N,Net-(C7-Pad2)*%
X10605000Y17081500D03*
%TD*%
D29*
%TO.P,C19,1*%
%TO.N,Net-(C19-Pad1)*%
X6363000Y25082500D03*
%TO.P,C19,2*%
%TO.N,GND*%
X4813000Y25082500D03*
%TD*%
D21*
%TO.P,C12,1*%
%TO.N,Net-(C12-Pad1)*%
X13449000Y6921500D03*
%TO.P,C12,2*%
%TO.N,Net-(C12-Pad2)*%
X14999000Y6921500D03*
%TD*%
D30*
%TO.P,RV1,1,1*%
%TO.N,Net-(C12-Pad1)*%
X14857000Y21653500D03*
%TO.P,RV1,2,2*%
%TO.N,Net-(C12-Pad2)*%
X19687000Y19113500D03*
%TO.P,RV1,3,3*%
%TO.N,unconnected-(RV1-Pad3)*%
X14857000Y16573500D03*
%TD*%
D29*
%TO.P,C10,1*%
%TO.N,-15V*%
X30366000Y21780500D03*
%TO.P,C10,2*%
%TO.N,GND*%
X28816000Y21780500D03*
%TD*%
D18*
%TO.P,R15,1*%
%TO.N,Net-(C13-Pad2)*%
X20637000Y1587500D03*
%TO.P,R15,2*%
%TO.N,/vsense/CC*%
X18987000Y1587500D03*
%TD*%
%TO.P,R2,1*%
%TO.N,Net-(C1-Pad2)*%
X12255000Y20129500D03*
%TO.P,R2,2*%
%TO.N,/vsense/CMD*%
X10605000Y20129500D03*
%TD*%
D29*
%TO.P,C5,1*%
%TO.N,Net-(C5-Pad1)*%
X2807000Y26606500D03*
%TO.P,C5,2*%
%TO.N,GND*%
X1257000Y26606500D03*
%TD*%
D17*
%TO.P,C1,1*%
%TO.N,GND*%
X19304000Y24968500D03*
%TO.P,C1,2*%
%TO.N,Net-(C1-Pad2)*%
X19304000Y23418500D03*
%TD*%
D31*
%TO.P,J1,1,In*%
%TO.N,/vsense/SMA_OUT*%
X30607000Y5016500D03*
D32*
%TO.P,J1,2,Ext*%
%TO.N,GND*%
X33156900Y7566400D03*
%TO.P,J1,3*%
%TO.N,N/C*%
X33156900Y2466600D03*
%TO.P,J1,4*%
X28057100Y2466600D03*
%TO.P,J1,5*%
X28057100Y7566400D03*
%TD*%
D33*
%TO.N,Net-(R12-Pad1)*%
X32512000Y10198700D03*
%TO.N,Net-(C12-Pad2)*%
X21727600Y19439600D03*
%TO.N,Net-(C19-Pad1)*%
X7705900Y24996300D03*
%TO.N,Net-(IC1-Pad6)*%
X16962200Y11745700D03*
%TO.N,Net-(R6-Pad1)*%
X23432000Y8026400D03*
%TO.N,Net-(C12-Pad1)*%
X17714600Y19993200D03*
X17168900Y22236700D03*
%TO.N,+3V3*%
X23368000Y23217000D03*
X21673500Y16466800D03*
X7871400Y26184500D03*
%TO.N,Net-(C8-Pad2)*%
X22348800Y12719300D03*
%TO.N,Net-(C7-Pad2)*%
X27658000Y13080500D03*
X13112000Y13649500D03*
%TO.N,Net-(C7-Pad1)*%
X29558900Y12150100D03*
%TO.N,-15V*%
X23805200Y16573500D03*
X9657100Y15738200D03*
X10160000Y6682600D03*
X30366000Y20879600D03*
X43180000Y24079700D03*
X23293800Y10784200D03*
X19493000Y16761000D03*
X34142300Y20168500D03*
%TO.N,+15V*%
X30480000Y19355900D03*
X1881200Y24461400D03*
X24505500Y12690700D03*
X13152000Y19864400D03*
X6620500Y12436100D03*
X25013500Y18225300D03*
X30435100Y15053700D03*
X40132000Y27366500D03*
%TO.N,+5V*%
X4172600Y11069800D03*
X12009700Y24182300D03*
X11297500Y27498400D03*
X4813000Y27624300D03*
X9628000Y18518200D03*
X12529700Y11007600D03*
%TO.N,GND*%
X21472000Y3373300D03*
X30480000Y16089900D03*
X899400Y11003600D03*
X3670100Y25102100D03*
X10230000Y25827200D03*
X20188800Y24827600D03*
X1257000Y27488100D03*
X27960000Y21780500D03*
X3377500Y2522400D03*
X9941600Y23840900D03*
X26182900Y23293700D03*
X24608400Y24071100D03*
X41800000Y4520000D03*
X10160000Y9947400D03*
X6909200Y18197900D03*
X18414000Y7828100D03*
X18151400Y3410400D03*
X6878700Y10965300D03*
X6363000Y27615700D03*
X9622800Y14912400D03*
X25913300Y7267500D03*
X40132000Y24072200D03*
X43180000Y27363900D03*
X20501000Y9775500D03*
X21717700Y22796500D03*
X28893200Y27419700D03*
X20357800Y7804000D03*
X13339900Y9261500D03*
%TD*%
D34*
%TO.N,Net-(C13-Pad2)*%
X21119900Y2070400D02*
X21119900Y2882600D01*
X20637000Y1587500D02*
X21119900Y2070400D01*
X22758100Y2882600D02*
X21119900Y2882600D01*
X23241000Y3365500D02*
X22758100Y2882600D01*
X21119900Y2882600D02*
X20637000Y3365500D01*
%TO.N,Net-(J5-Pad1)*%
X34233400Y17335500D02*
X33971000Y17335500D01*
X36169600Y15399300D02*
X34233400Y17335500D01*
X36169600Y14897100D02*
X36169600Y15399300D01*
X34290000Y13017500D02*
X36169600Y14897100D01*
X36169600Y14897100D02*
X38501200Y14897100D01*
%TO.N,Net-(R12-Pad1)*%
X33121200Y10198700D02*
X34290000Y11367500D01*
X32512000Y10198700D02*
X33121200Y10198700D01*
%TO.N,Net-(C12-Pad2)*%
X24318000Y22796500D02*
X24808600Y22796500D01*
X27043800Y20383500D02*
X27035300Y20392000D01*
X27241000Y20383500D02*
X27043800Y20383500D01*
X25776300Y21828800D02*
X24808600Y22796500D01*
X27035300Y21828800D02*
X25776300Y21828800D01*
X28638000Y23431500D02*
X27035300Y21828800D01*
X27035300Y21828800D02*
X27035300Y20392000D01*
X19687000Y19113500D02*
X19687000Y18327900D01*
X26082900Y19439600D02*
X21727600Y19439600D01*
X27035300Y20392000D02*
X26082900Y19439600D01*
X21598700Y19439600D02*
X21272600Y19113500D01*
X21727600Y19439600D02*
X21598700Y19439600D01*
X19687000Y19113500D02*
X21272600Y19113500D01*
X18875200Y10797700D02*
X14999000Y6921500D01*
X18875200Y17516100D02*
X18875200Y10797700D01*
X19687000Y18327900D02*
X18875200Y17516100D01*
%TO.N,Net-(H3-Pad1)*%
X41339000Y3365500D02*
X41148000Y3556500D01*
X45212000Y3365500D02*
X41339000Y3365500D01*
%TO.N,Net-(C19-Pad1)*%
X7619700Y25082500D02*
X6363000Y25082500D01*
X7705900Y24996300D02*
X7619700Y25082500D01*
%TO.N,Net-(C5-Pad1)*%
X2807000Y26606500D02*
X4763000Y26606500D01*
%TO.N,3V3_BUF*%
X25371500Y15265500D02*
X25013500Y15623500D01*
X25371500Y7211000D02*
X25371500Y15265500D01*
X25082000Y6921500D02*
X25371500Y7211000D01*
X23554100Y17523500D02*
X22738500Y17523500D01*
X25013500Y16064100D02*
X23554100Y17523500D01*
X25013500Y15623500D02*
X25013500Y16064100D01*
%TO.N,Net-(IC1-Pad6)*%
X16059300Y11745700D02*
X16962200Y11745700D01*
X15869500Y11935500D02*
X16059300Y11745700D01*
%TO.N,Net-(FB1-Pad1)*%
X1420600Y6100500D02*
X2418000Y7097900D01*
X1420600Y2908300D02*
X1420600Y6100500D01*
%TO.N,Net-(IC1-Pad1)*%
X17909100Y6225600D02*
X18605000Y6921500D01*
X13061100Y6225600D02*
X17909100Y6225600D01*
X12773700Y6513000D02*
X13061100Y6225600D01*
X12773700Y7925900D02*
X12773700Y6513000D01*
X14484100Y9636300D02*
X12773700Y7925900D01*
X14484100Y11298400D02*
X14484100Y9636300D01*
X13847000Y11935500D02*
X14484100Y11298400D01*
X13594500Y11935500D02*
X13847000Y11935500D01*
%TO.N,Net-(R6-Pad1)*%
X23432000Y6921500D02*
X23432000Y8026400D01*
X24505500Y9099900D02*
X24505500Y10086300D01*
X23432000Y8026400D02*
X24505500Y9099900D01*
%TO.N,Net-(C12-Pad1)*%
X17025800Y22236700D02*
X16442600Y21653500D01*
X17168900Y22236700D02*
X17025800Y22236700D01*
X14857000Y21653500D02*
X16442600Y21653500D01*
X25200700Y19993200D02*
X25591000Y20383500D01*
X17714600Y19993200D02*
X25200700Y19993200D01*
X13918400Y6921500D02*
X13449000Y6921500D01*
X17714600Y10717700D02*
X13918400Y6921500D01*
X17714600Y19993200D02*
X17714600Y10717700D01*
%TO.N,Net-(C11-Pad2)*%
X16955000Y7086600D02*
X16955000Y6921500D01*
X18234100Y8365700D02*
X16955000Y7086600D01*
X21907800Y8365700D02*
X18234100Y8365700D01*
X21907800Y9763600D02*
X21907800Y8365700D01*
X22230500Y10086300D02*
X21907800Y9763600D01*
X21907800Y8365700D02*
X21907800Y6921500D01*
%TO.N,/vsense/AMP_OUT*%
X10138600Y19197900D02*
X12255000Y17081500D01*
X8268000Y19197900D02*
X10138600Y19197900D01*
%TO.N,/vsense/CMD*%
X6887900Y10197900D02*
X8268000Y10197900D01*
X6118900Y10966900D02*
X6887900Y10197900D01*
X6118900Y18843300D02*
X6118900Y10966900D01*
X7405100Y20129500D02*
X6118900Y18843300D01*
X10605000Y20129500D02*
X7405100Y20129500D01*
%TO.N,+3V3*%
X22418000Y23446500D02*
X22881600Y23446500D01*
X23111100Y23217000D02*
X22881600Y23446500D01*
X23368000Y23217000D02*
X23111100Y23217000D01*
X22516800Y15623500D02*
X21673500Y16466800D01*
X22738500Y15623500D02*
X22516800Y15623500D01*
X6835000Y26184500D02*
X6413000Y26606500D01*
X7871400Y26184500D02*
X6835000Y26184500D01*
%TO.N,/vsense/CC*%
X8268000Y13197900D02*
X9408600Y13197900D01*
X17042700Y3531800D02*
X18987000Y1587500D01*
X17042700Y4044900D02*
X17042700Y3531800D01*
X15577900Y5509700D02*
X17042700Y4044900D01*
X13417700Y5509700D02*
X15577900Y5509700D01*
X12089500Y6837900D02*
X13417700Y5509700D01*
X12089500Y10517000D02*
X12089500Y6837900D01*
X9408600Y13197900D02*
X12089500Y10517000D01*
%TO.N,/vsense/CAL_ADC*%
X9573000Y14033500D02*
X10605000Y14033500D01*
X9408600Y14197900D02*
X9573000Y14033500D01*
X8268000Y14197900D02*
X9408600Y14197900D01*
%TO.N,/vsense/SCL*%
X17772500Y22146500D02*
X22418000Y22146500D01*
X14998000Y19372000D02*
X17772500Y22146500D01*
X10324000Y19372000D02*
X14998000Y19372000D01*
X10155000Y19541000D02*
X10324000Y19372000D01*
X7176500Y19541000D02*
X10155000Y19541000D01*
X6376800Y18741300D02*
X7176500Y19541000D01*
X6376800Y17948500D02*
X6376800Y18741300D01*
X7127400Y17197900D02*
X6376800Y17948500D01*
X7761300Y17197900D02*
X7127400Y17197900D01*
X7761300Y17197900D02*
X8268000Y17197900D01*
X15665800Y10985500D02*
X15869500Y10985500D01*
X14912100Y11739200D02*
X15665800Y10985500D01*
X14912100Y11837700D02*
X14912100Y11739200D01*
X13877000Y12872800D02*
X14912100Y11837700D01*
X12384700Y12872800D02*
X13877000Y12872800D01*
X11430000Y13827500D02*
X12384700Y12872800D01*
X11430000Y15176500D02*
X11430000Y13827500D01*
X9408600Y17197900D02*
X11430000Y15176500D01*
X8268000Y17197900D02*
X9408600Y17197900D01*
%TO.N,/vsense/SDA*%
X8268000Y17697900D02*
X9408600Y17697900D01*
X24318000Y22146500D02*
X24318000Y21745900D01*
X11958700Y16338500D02*
X13058900Y16338500D01*
X11631000Y16666200D02*
X11958700Y16338500D01*
X11631000Y17123800D02*
X11631000Y16666200D01*
X10978000Y17776800D02*
X11631000Y17123800D01*
X9487500Y17776800D02*
X10978000Y17776800D01*
X9408600Y17697900D02*
X9487500Y17776800D01*
X13058900Y17073400D02*
X13058900Y16338500D01*
X17731400Y21745900D02*
X13058900Y17073400D01*
X24318000Y21745900D02*
X17731400Y21745900D01*
X16104400Y10035500D02*
X15869500Y10035500D01*
X17460400Y11391500D02*
X16104400Y10035500D01*
X17460400Y11953700D02*
X17460400Y11391500D01*
X16449500Y12964600D02*
X17460400Y11953700D01*
X16157400Y12964600D02*
X16449500Y12964600D01*
X13058900Y16063100D02*
X16157400Y12964600D01*
X13058900Y16338500D02*
X13058900Y16063100D01*
%TO.N,Net-(C8-Pad2)*%
X22230500Y12014500D02*
X19812000Y12014500D01*
X22230500Y11986300D02*
X22230500Y12014500D01*
X22230500Y12601000D02*
X22348800Y12719300D01*
X22230500Y12014500D02*
X22230500Y12601000D01*
%TO.N,Net-(C7-Pad2)*%
X27862700Y13742800D02*
X28575000Y13030500D01*
X27822700Y13742800D02*
X27862700Y13742800D01*
X28766500Y17335500D02*
X29021000Y17335500D01*
X27822700Y16391700D02*
X28766500Y17335500D01*
X27822700Y13742800D02*
X27822700Y16391700D01*
X27658000Y13578100D02*
X27658000Y13080500D01*
X27822700Y13742800D02*
X27658000Y13578100D01*
X12255000Y15431500D02*
X10605000Y17081500D01*
X12255000Y14033500D02*
X12255000Y15431500D01*
X12728000Y14033500D02*
X13112000Y13649500D01*
X12255000Y14033500D02*
X12728000Y14033500D01*
%TO.N,Net-(C7-Pad1)*%
X29244600Y12150100D02*
X29558900Y12150100D01*
X28575000Y11480500D02*
X29244600Y12150100D01*
X33474300Y16065500D02*
X33971000Y16065500D01*
X29558900Y12150100D02*
X33474300Y16065500D01*
%TO.N,Net-(C1-Pad2)*%
X20053000Y23418500D02*
X22860000Y26225500D01*
X19304000Y23418500D02*
X20053000Y23418500D01*
X19063000Y23177500D02*
X19304000Y23418500D01*
X12255000Y23177500D02*
X19063000Y23177500D01*
X12255000Y23177500D02*
X12255000Y20129500D01*
%TO.N,-15V*%
X9381600Y16013700D02*
X9381600Y16197900D01*
X9657100Y15738200D02*
X9381600Y16013700D01*
X8268000Y16197900D02*
X9381600Y16197900D01*
X22738500Y16573500D02*
X23805200Y16573500D01*
X10160000Y7543500D02*
X10160000Y6682600D01*
X30366000Y20879600D02*
X30366000Y21780500D01*
X43180000Y24079700D02*
X43180000Y24942500D01*
X22482600Y10784200D02*
X22230500Y11036300D01*
X23293800Y10784200D02*
X22482600Y10784200D01*
X33971000Y19997200D02*
X33971000Y18605500D01*
X34142300Y20168500D02*
X33971000Y19997200D01*
%TO.N,+15V*%
X24505500Y12690700D02*
X24505500Y11986300D01*
X8268000Y14697900D02*
X7154400Y14697900D01*
X6620500Y14164000D02*
X7154400Y14697900D01*
X6620500Y12436100D02*
X6620500Y14164000D01*
X25013500Y17523500D02*
X25013500Y18225300D01*
X29423300Y16065500D02*
X29021000Y16065500D01*
X30435100Y15053700D02*
X29423300Y16065500D01*
X40132000Y27366500D02*
X40132000Y26492500D01*
%TO.N,+5V*%
X8268000Y18697900D02*
X9381600Y18697900D01*
X9561300Y18518200D02*
X9381600Y18697900D01*
X9628000Y18518200D02*
X9561300Y18518200D01*
X13572400Y11007600D02*
X13594500Y10985500D01*
X12529700Y11007600D02*
X13572400Y11007600D01*
%TO.N,GND*%
X19444900Y24827600D02*
X19304000Y24968500D01*
X20188800Y24827600D02*
X19444900Y24827600D01*
X1257000Y27488100D02*
X1257000Y26606500D01*
X4793400Y25102100D02*
X4813000Y25082500D01*
X3670100Y25102100D02*
X4793400Y25102100D01*
X3984700Y2522400D02*
X4370600Y2908300D01*
X3377500Y2522400D02*
X3984700Y2522400D01*
X10605000Y23177500D02*
X9941600Y23840900D01*
X8268000Y10697900D02*
X7154400Y10697900D01*
X26850200Y23293700D02*
X26988000Y23431500D01*
X26182900Y23293700D02*
X26850200Y23293700D01*
X24318000Y23446500D02*
X24318000Y23820100D01*
X24357400Y23820100D02*
X24318000Y23820100D01*
X24608400Y24071100D02*
X24357400Y23820100D01*
X41148000Y5172000D02*
X41148000Y5206500D01*
X41800000Y4520000D02*
X41148000Y5172000D01*
X10160000Y9093500D02*
X10160000Y9947400D01*
X8268000Y12197900D02*
X7154400Y12197900D01*
X6909200Y18197900D02*
X8268000Y18197900D01*
X18942100Y3410400D02*
X18987000Y3365500D01*
X18151400Y3410400D02*
X18942100Y3410400D01*
X7054400Y10797900D02*
X7054400Y10965300D01*
X7154400Y10697900D02*
X7054400Y10797900D01*
X6878700Y10965300D02*
X7054400Y10965300D01*
X8268000Y15197900D02*
X9381600Y15197900D01*
X9381600Y15153600D02*
X9622800Y14912400D01*
X9381600Y15197900D02*
X9381600Y15153600D01*
X8268000Y13697900D02*
X7154400Y13697900D01*
X7104400Y12197900D02*
X7154400Y12197900D01*
X7054400Y12147900D02*
X7104400Y12197900D01*
X7054400Y10965300D02*
X7054400Y12147900D01*
X7104400Y13647900D02*
X7154400Y13697900D01*
X7104400Y12197900D02*
X7104400Y13647900D01*
X40132000Y24072200D02*
X40132000Y24942500D01*
X43180000Y27363900D02*
X43180000Y26492500D01*
X19812000Y10464500D02*
X20501000Y9775500D01*
X22418000Y22796500D02*
X21717700Y22796500D01*
X28816000Y21780500D02*
X27960000Y21780500D01*
X20357800Y6921500D02*
X20357800Y7804000D01*
X13594500Y9516100D02*
X13594500Y10035500D01*
X13339900Y9261500D02*
X13594500Y9516100D01*
%TD*%
M02*
