%TF.GenerationSoftware,KiCad,Pcbnew,(6.0.4-0)*%
%TF.CreationDate,2023-05-17T14:52:11-05:00*%
%TF.ProjectId,voltage_sense,766f6c74-6167-4655-9f73-656e73652e6b,rev?*%
%TF.SameCoordinates,Original*%
%TF.FileFunction,Copper,L3,Inr*%
%TF.FilePolarity,Positive*%
%FSLAX46Y46*%
G04 Gerber Fmt 4.6, Leading zero omitted, Abs format (unit mm)*
G04 Created by KiCad (PCBNEW (6.0.4-0)) date 2023-05-17 14:52:11*
%MOMM*%
%LPD*%
G01*
G04 APERTURE LIST*
%TA.AperFunction,ComponentPad*%
%ADD10R,1.700000X1.700000*%
%TD*%
%TA.AperFunction,ComponentPad*%
%ADD11O,1.700000X1.700000*%
%TD*%
%TA.AperFunction,ComponentPad*%
%ADD12C,2.020000*%
%TD*%
%TA.AperFunction,ComponentPad*%
%ADD13C,2.000000*%
%TD*%
%TA.AperFunction,ComponentPad*%
%ADD14O,2.500000X1.600000*%
%TD*%
%TA.AperFunction,ComponentPad*%
%ADD15O,7.000000X3.500000*%
%TD*%
%TA.AperFunction,ComponentPad*%
%ADD16C,1.950000*%
%TD*%
%TA.AperFunction,ComponentPad*%
%ADD17C,4.400000*%
%TD*%
%TA.AperFunction,ComponentPad*%
%ADD18C,1.905000*%
%TD*%
%TA.AperFunction,ComponentPad*%
%ADD19C,2.667000*%
%TD*%
%TA.AperFunction,ViaPad*%
%ADD20C,0.600000*%
%TD*%
%TA.AperFunction,Conductor*%
%ADD21C,0.127000*%
%TD*%
G04 APERTURE END LIST*
D10*
%TO.N,+5V*%
%TO.C,J2*%
X16002000Y3111500D03*
D11*
%TO.N,-15V*%
X13462000Y3111500D03*
%TO.N,+15V*%
X10922000Y3111500D03*
%TO.N,GND*%
X8382000Y3111500D03*
%TD*%
D12*
%TO.N,Net-(C13-Pad2)*%
%TO.C,TP1*%
X23241000Y3365500D03*
%TD*%
D13*
%TO.N,GND*%
%TO.C,TP9*%
X30988000Y26225500D03*
%TD*%
D14*
%TO.N,Net-(J5-Pad1)*%
%TO.C,J5*%
X38501200Y14897100D03*
D15*
%TO.N,GND*%
X43581200Y19977100D03*
D14*
X38501200Y17437100D03*
D15*
X43581200Y9817100D03*
%TD*%
D16*
%TO.N,Net-(FB1-Pad1)*%
%TO.C,J4*%
X7318000Y7697900D03*
X2418000Y7097900D03*
X7318000Y22197900D03*
X2418000Y22797900D03*
%TD*%
D17*
%TO.N,Net-(H3-Pad1)*%
%TO.C,H3*%
X45212000Y3365500D03*
%TD*%
D12*
%TO.N,Net-(C1-Pad2)*%
%TO.C,TP2*%
X22860000Y26225500D03*
%TD*%
D18*
%TO.N,/vsense/SMA_OUT*%
%TO.C,J1*%
X30607000Y5016500D03*
D19*
%TO.N,GND*%
X33156900Y7566400D03*
%TO.N,N/C*%
X33156900Y2466600D03*
X28057100Y2466600D03*
X28057100Y7566400D03*
%TD*%
D20*
%TO.N,Net-(R12-Pad1)*%
X32512000Y10198700D03*
%TO.N,Net-(C12-Pad2)*%
X21727600Y19439600D03*
%TO.N,Net-(C19-Pad1)*%
X7705900Y24996300D03*
%TO.N,Net-(IC1-Pad6)*%
X16962200Y11745700D03*
%TO.N,Net-(R6-Pad1)*%
X23432000Y8026400D03*
%TO.N,Net-(C12-Pad1)*%
X17714600Y19993200D03*
X17168900Y22236700D03*
%TO.N,+3V3*%
X23368000Y23217000D03*
X21673500Y16466800D03*
X7871400Y26184500D03*
%TO.N,Net-(C8-Pad2)*%
X22348800Y12719300D03*
%TO.N,Net-(C7-Pad2)*%
X27658000Y13080500D03*
X13112000Y13649500D03*
%TO.N,Net-(C7-Pad1)*%
X29558900Y12150100D03*
%TO.N,-15V*%
X23805200Y16573500D03*
X9657100Y15738200D03*
X10160000Y6682600D03*
X30366000Y20879600D03*
X43180000Y24079700D03*
X23293800Y10784200D03*
X19493000Y16761000D03*
X34142300Y20168500D03*
%TO.N,+15V*%
X30480000Y19355900D03*
X1881200Y24461400D03*
X24505500Y12690700D03*
X13152000Y19864400D03*
X6620500Y12436100D03*
X25013500Y18225300D03*
X30435100Y15053700D03*
X40132000Y27366500D03*
%TO.N,+5V*%
X4172600Y11069800D03*
X12009700Y24182300D03*
X11297500Y27498400D03*
X4813000Y27624300D03*
X9628000Y18518200D03*
X12529700Y11007600D03*
%TO.N,GND*%
X21472000Y3373300D03*
X30480000Y16089900D03*
X899400Y11003600D03*
X3670100Y25102100D03*
X10230000Y25827200D03*
X20188800Y24827600D03*
X1257000Y27488100D03*
X27960000Y21780500D03*
X3377500Y2522400D03*
X9941600Y23840900D03*
X26182900Y23293700D03*
X24608400Y24071100D03*
X41800000Y4520000D03*
X10160000Y9947400D03*
X6909200Y18197900D03*
X18414000Y7828100D03*
X18151400Y3410400D03*
X6878700Y10965300D03*
X6363000Y27615700D03*
X9622800Y14912400D03*
X25913300Y7267500D03*
X40132000Y24072200D03*
X43180000Y27363900D03*
X20501000Y9775500D03*
X21717700Y22796500D03*
X28893200Y27419700D03*
X20357800Y7804000D03*
X13339900Y9261500D03*
%TD*%
D21*
%TO.N,Net-(FB1-Pad1)*%
X7434100Y22081800D02*
X7318000Y22197900D01*
X7434100Y7814000D02*
X7434100Y22081800D01*
X7318000Y7697900D02*
X7434100Y7814000D01*
%TO.N,Net-(C12-Pad1)*%
X17168900Y20538900D02*
X17168900Y22236700D01*
X17714600Y19993200D02*
X17168900Y20538900D01*
%TO.N,+3V3*%
X23368000Y18161300D02*
X21673500Y16466800D01*
X23368000Y23217000D02*
X23368000Y18161300D01*
%TD*%
%TA.AperFunction,Conductor*%
%TO.N,+5V*%
G36*
X5827639Y28042998D02*
G01*
X5874132Y27989342D01*
X5884236Y27919068D01*
X5875927Y27888782D01*
X5842724Y27808623D01*
X5822772Y27760454D01*
X5821695Y27752270D01*
X5821694Y27752268D01*
X5813722Y27691714D01*
X5803715Y27615700D01*
X5804793Y27607512D01*
X5821592Y27479912D01*
X5822772Y27470946D01*
X5825931Y27463320D01*
X5849458Y27406522D01*
X5878645Y27336058D01*
X5896398Y27312922D01*
X5931390Y27267320D01*
X5967526Y27220226D01*
X5974076Y27215200D01*
X5974079Y27215197D01*
X6062061Y27147686D01*
X6083357Y27131345D01*
X6218246Y27075472D01*
X6363000Y27056415D01*
X6371188Y27057493D01*
X6499566Y27074394D01*
X6507754Y27075472D01*
X6642643Y27131345D01*
X6663939Y27147686D01*
X6751921Y27215197D01*
X6751924Y27215200D01*
X6758474Y27220226D01*
X6794611Y27267320D01*
X6829602Y27312922D01*
X6847355Y27336058D01*
X6876543Y27406522D01*
X6900069Y27463320D01*
X6903228Y27470946D01*
X6904409Y27479912D01*
X6921207Y27607512D01*
X6922285Y27615700D01*
X6912278Y27691714D01*
X6904306Y27752268D01*
X6904305Y27752270D01*
X6903228Y27760454D01*
X6883276Y27808623D01*
X6850073Y27888782D01*
X6842484Y27959372D01*
X6874263Y28022859D01*
X6935321Y28059086D01*
X6966482Y28063000D01*
X28449514Y28063000D01*
X28517635Y28042998D01*
X28564128Y27989342D01*
X28574232Y27919068D01*
X28544738Y27854488D01*
X28526219Y27837038D01*
X28526218Y27837037D01*
X28497726Y27815174D01*
X28408845Y27699342D01*
X28405686Y27691716D01*
X28405685Y27691714D01*
X28385732Y27643542D01*
X28352972Y27564454D01*
X28333915Y27419700D01*
X28335344Y27408847D01*
X28347251Y27318405D01*
X28352972Y27274946D01*
X28356131Y27267320D01*
X28386778Y27193333D01*
X28408845Y27140058D01*
X28440214Y27099177D01*
X28488002Y27036899D01*
X28497726Y27024226D01*
X28504276Y27019200D01*
X28504279Y27019197D01*
X28597690Y26947520D01*
X28613557Y26935345D01*
X28748446Y26879472D01*
X28893200Y26860415D01*
X28901388Y26861493D01*
X29029766Y26878394D01*
X29037954Y26879472D01*
X29172843Y26935345D01*
X29188710Y26947520D01*
X29282121Y27019197D01*
X29282124Y27019200D01*
X29288674Y27024226D01*
X29298399Y27036899D01*
X29346186Y27099177D01*
X29377555Y27140058D01*
X29399623Y27193333D01*
X29430269Y27267320D01*
X29433428Y27274946D01*
X29439150Y27318405D01*
X29451056Y27408847D01*
X29452485Y27419700D01*
X29433428Y27564454D01*
X29400668Y27643542D01*
X29380715Y27691714D01*
X29380714Y27691716D01*
X29377555Y27699342D01*
X29329496Y27761974D01*
X29293701Y27808623D01*
X29293700Y27808624D01*
X29288674Y27815174D01*
X29260179Y27837039D01*
X29218313Y27894377D01*
X29214092Y27965248D01*
X29248857Y28027150D01*
X29311570Y28060431D01*
X29336885Y28063000D01*
X39757646Y28063000D01*
X39825767Y28042998D01*
X39872260Y27989342D01*
X39882364Y27919068D01*
X39852870Y27854488D01*
X39834351Y27837038D01*
X39736526Y27761974D01*
X39647645Y27646142D01*
X39591772Y27511254D01*
X39590695Y27503070D01*
X39590694Y27503068D01*
X39585582Y27464238D01*
X39572715Y27366500D01*
X39573793Y27358312D01*
X39578209Y27324772D01*
X39591772Y27221746D01*
X39594931Y27214120D01*
X39630527Y27128185D01*
X39647645Y27086858D01*
X39684480Y27038854D01*
X39731066Y26978142D01*
X39736526Y26971026D01*
X39743076Y26966000D01*
X39743079Y26965997D01*
X39845804Y26887173D01*
X39852357Y26882145D01*
X39987246Y26826272D01*
X39995434Y26825194D01*
X40059623Y26816744D01*
X40132000Y26807215D01*
X40140188Y26808293D01*
X40268566Y26825194D01*
X40276754Y26826272D01*
X40411643Y26882145D01*
X40418196Y26887173D01*
X40520921Y26965997D01*
X40520924Y26966000D01*
X40527474Y26971026D01*
X40532935Y26978142D01*
X40579520Y27038854D01*
X40616355Y27086858D01*
X40633474Y27128185D01*
X40669069Y27214120D01*
X40672228Y27221746D01*
X40685792Y27324772D01*
X40690207Y27358312D01*
X40691285Y27366500D01*
X40678418Y27464238D01*
X40673306Y27503068D01*
X40673305Y27503070D01*
X40672228Y27511254D01*
X40616355Y27646142D01*
X40527474Y27761974D01*
X40429648Y27837039D01*
X40387782Y27894376D01*
X40383561Y27965247D01*
X40418326Y28027150D01*
X40481039Y28060431D01*
X40506354Y28063000D01*
X42809034Y28063000D01*
X42877155Y28042998D01*
X42923648Y27989342D01*
X42933752Y27919068D01*
X42904258Y27854488D01*
X42885738Y27837038D01*
X42791076Y27764401D01*
X42791072Y27764397D01*
X42784526Y27759374D01*
X42695645Y27643542D01*
X42639772Y27508654D01*
X42638695Y27500470D01*
X42638694Y27500468D01*
X42628061Y27419700D01*
X42620715Y27363900D01*
X42639772Y27219146D01*
X42642931Y27211520D01*
X42692179Y27092626D01*
X42695645Y27084258D01*
X42700672Y27077707D01*
X42777071Y26978142D01*
X42784526Y26968426D01*
X42791076Y26963400D01*
X42791079Y26963397D01*
X42875142Y26898893D01*
X42900357Y26879545D01*
X43035246Y26823672D01*
X43180000Y26804615D01*
X43188188Y26805693D01*
X43207938Y26808293D01*
X43324754Y26823672D01*
X43459643Y26879545D01*
X43484858Y26898893D01*
X43568921Y26963397D01*
X43568924Y26963400D01*
X43575474Y26968426D01*
X43582930Y26978142D01*
X43659328Y27077707D01*
X43664355Y27084258D01*
X43667822Y27092626D01*
X43717069Y27211520D01*
X43720228Y27219146D01*
X43739285Y27363900D01*
X43731939Y27419700D01*
X43721306Y27500468D01*
X43721305Y27500470D01*
X43720228Y27508654D01*
X43664355Y27643542D01*
X43575474Y27759374D01*
X43568923Y27764401D01*
X43568921Y27764403D01*
X43474261Y27837038D01*
X43432394Y27894376D01*
X43428172Y27965247D01*
X43462936Y28027150D01*
X43525649Y28060431D01*
X43550965Y28063000D01*
X47619500Y28063000D01*
X47687621Y28042998D01*
X47734114Y27989342D01*
X47745500Y27937000D01*
X47745500Y19904332D01*
X47725498Y19836211D01*
X47671842Y19789718D01*
X47620038Y19778333D01*
X47463955Y19777666D01*
X47395750Y19797377D01*
X47349028Y19850833D01*
X47337887Y19914537D01*
X47340572Y19945534D01*
X47338626Y19980906D01*
X47330203Y20133956D01*
X47324974Y20228972D01*
X47320131Y20253323D01*
X47283133Y20439321D01*
X47269594Y20507385D01*
X47175538Y20775216D01*
X47147807Y20828602D01*
X47046735Y21023174D01*
X47046734Y21023176D01*
X47044683Y21027124D01*
X47042100Y21030739D01*
X47042096Y21030745D01*
X46892365Y21240272D01*
X46879639Y21258080D01*
X46683699Y21463477D01*
X46627375Y21507880D01*
X46464270Y21636462D01*
X46460774Y21639218D01*
X46300673Y21732212D01*
X46219158Y21779560D01*
X46219152Y21779563D01*
X46215311Y21781794D01*
X46154167Y21806560D01*
X45956339Y21886689D01*
X45956331Y21886692D01*
X45952207Y21888362D01*
X45676712Y21956795D01*
X45434614Y21981600D01*
X41758889Y21981600D01*
X41548042Y21966671D01*
X41543687Y21965733D01*
X41543684Y21965733D01*
X41274881Y21907861D01*
X41274879Y21907861D01*
X41270534Y21906925D01*
X41004213Y21808674D01*
X40754392Y21673878D01*
X40526056Y21505227D01*
X40522877Y21502098D01*
X40522874Y21502095D01*
X40440400Y21420906D01*
X40323762Y21306086D01*
X40272712Y21239194D01*
X40188657Y21129055D01*
X40151545Y21080427D01*
X40012841Y20832755D01*
X40011236Y20828606D01*
X40011234Y20828602D01*
X39978130Y20743032D01*
X39910419Y20568009D01*
X39909417Y20563688D01*
X39909415Y20563680D01*
X39872041Y20402434D01*
X39846322Y20291474D01*
X39821828Y20008666D01*
X39822072Y20004231D01*
X39822072Y20004227D01*
X39829050Y19877420D01*
X39812821Y19808303D01*
X39761800Y19758932D01*
X39703781Y19744498D01*
X37217213Y19733871D01*
X34747196Y19723314D01*
X34678990Y19743025D01*
X34632268Y19796481D01*
X34621864Y19866711D01*
X34630248Y19897531D01*
X34679368Y20016117D01*
X34682528Y20023746D01*
X34701585Y20168500D01*
X34688894Y20264897D01*
X34683606Y20305068D01*
X34683605Y20305070D01*
X34682528Y20313254D01*
X34649875Y20392085D01*
X34629815Y20440514D01*
X34629814Y20440516D01*
X34626655Y20448142D01*
X34537774Y20563974D01*
X34531224Y20569000D01*
X34531221Y20569003D01*
X34428496Y20647827D01*
X34428494Y20647828D01*
X34421943Y20652855D01*
X34287054Y20708728D01*
X34142300Y20727785D01*
X34134112Y20726707D01*
X34005732Y20709806D01*
X34005730Y20709805D01*
X33997546Y20708728D01*
X33949730Y20688922D01*
X33870286Y20656015D01*
X33870284Y20656014D01*
X33862658Y20652855D01*
X33746826Y20563974D01*
X33657945Y20448142D01*
X33654786Y20440516D01*
X33654785Y20440514D01*
X33634725Y20392085D01*
X33602072Y20313254D01*
X33600995Y20305070D01*
X33600994Y20305068D01*
X33595706Y20264897D01*
X33583015Y20168500D01*
X33602072Y20023746D01*
X33605232Y20016117D01*
X33656488Y19892374D01*
X33664077Y19821785D01*
X33632298Y19758298D01*
X33571240Y19722070D01*
X33540618Y19718157D01*
X32671811Y19714443D01*
X31750162Y19710504D01*
X31744996Y19475477D01*
X31744236Y19440902D01*
X31722741Y19373237D01*
X31668077Y19327935D01*
X31617330Y19317674D01*
X31171192Y19320989D01*
X31171193Y19321082D01*
X31118632Y19321471D01*
X31059192Y19360295D01*
X31030102Y19425654D01*
X31024405Y19468926D01*
X31020228Y19500654D01*
X30964355Y19635542D01*
X30916584Y19697799D01*
X30880501Y19744823D01*
X30880500Y19744824D01*
X30875474Y19751374D01*
X30868924Y19756400D01*
X30868921Y19756403D01*
X30766196Y19835227D01*
X30766194Y19835228D01*
X30759643Y19840255D01*
X30624754Y19896128D01*
X30480000Y19915185D01*
X30471812Y19914107D01*
X30343432Y19897206D01*
X30343430Y19897205D01*
X30335246Y19896128D01*
X30317695Y19888858D01*
X30207986Y19843415D01*
X30207984Y19843414D01*
X30200358Y19840255D01*
X30144478Y19797377D01*
X30093550Y19758298D01*
X30084526Y19751374D01*
X29995645Y19635542D01*
X29939772Y19500654D01*
X29938695Y19492470D01*
X29938694Y19492468D01*
X29931734Y19439600D01*
X29920715Y19355900D01*
X29939772Y19211146D01*
X29942931Y19203520D01*
X29963689Y19153407D01*
X29995645Y19076258D01*
X30000672Y19069707D01*
X30074631Y18973322D01*
X30084526Y18960426D01*
X30091076Y18955400D01*
X30091079Y18955397D01*
X30193804Y18876573D01*
X30200357Y18871545D01*
X30335246Y18815672D01*
X30480000Y18796615D01*
X30488188Y18797693D01*
X30616566Y18814594D01*
X30624754Y18815672D01*
X30759643Y18871545D01*
X30766196Y18876573D01*
X30868921Y18955397D01*
X30868924Y18955400D01*
X30875474Y18960426D01*
X30885370Y18973322D01*
X30944444Y19050310D01*
X31001782Y19092177D01*
X31072653Y19096399D01*
X31134556Y19061635D01*
X31167837Y18998923D01*
X31170407Y18973322D01*
X31164777Y16479247D01*
X31144621Y16411171D01*
X31090860Y16364800D01*
X31020564Y16354854D01*
X30956050Y16384493D01*
X30938817Y16402824D01*
X30889726Y16466800D01*
X30880501Y16478823D01*
X30880500Y16478824D01*
X30875474Y16485374D01*
X30868924Y16490400D01*
X30868921Y16490403D01*
X30766196Y16569227D01*
X30766194Y16569228D01*
X30759643Y16574255D01*
X30624754Y16630128D01*
X30480000Y16649185D01*
X30471812Y16648107D01*
X30343432Y16631206D01*
X30343430Y16631205D01*
X30335246Y16630128D01*
X30301732Y16616246D01*
X30207986Y16577415D01*
X30207984Y16577414D01*
X30200358Y16574255D01*
X30084526Y16485374D01*
X30079503Y16478828D01*
X30076418Y16474807D01*
X29995645Y16369542D01*
X29939772Y16234654D01*
X29938695Y16226470D01*
X29938694Y16226468D01*
X29932317Y16178026D01*
X29920715Y16089900D01*
X29921793Y16081712D01*
X29935278Y15979285D01*
X29939772Y15945146D01*
X29995645Y15810258D01*
X30084526Y15694426D01*
X30091076Y15689400D01*
X30091079Y15689397D01*
X30091609Y15688991D01*
X30091943Y15688534D01*
X30096916Y15683561D01*
X30096140Y15682785D01*
X30133478Y15631654D01*
X30137702Y15560784D01*
X30102939Y15498880D01*
X30091615Y15489066D01*
X30039626Y15449174D01*
X29950745Y15333342D01*
X29947586Y15325716D01*
X29947585Y15325714D01*
X29933814Y15292468D01*
X29894872Y15198454D01*
X29893795Y15190270D01*
X29893794Y15190268D01*
X29878941Y15077445D01*
X29875815Y15053700D01*
X29894872Y14908946D01*
X29950745Y14774058D01*
X30039626Y14658226D01*
X30046176Y14653200D01*
X30046179Y14653197D01*
X30148904Y14574373D01*
X30155457Y14569345D01*
X30290346Y14513472D01*
X30435100Y14494415D01*
X30443288Y14495493D01*
X30571666Y14512394D01*
X30579854Y14513472D01*
X30714743Y14569345D01*
X30721296Y14574373D01*
X30824021Y14653197D01*
X30824024Y14653200D01*
X30830574Y14658226D01*
X30835601Y14664777D01*
X30914429Y14767507D01*
X30914431Y14767511D01*
X30919455Y14774058D01*
X30922615Y14781686D01*
X30925694Y14787020D01*
X30977077Y14836014D01*
X31046790Y14849451D01*
X31112701Y14823064D01*
X31153884Y14765232D01*
X31160814Y14723737D01*
X31156598Y12855868D01*
X31154994Y12145273D01*
X31305085Y12141383D01*
X31458155Y12137416D01*
X31525735Y12115655D01*
X31570822Y12060813D01*
X31580861Y12008690D01*
X31575880Y11782098D01*
X31589984Y11782035D01*
X31589985Y11782035D01*
X40680613Y11741557D01*
X40748644Y11721252D01*
X40794898Y11667389D01*
X40804688Y11597071D01*
X40774908Y11532622D01*
X40753868Y11514587D01*
X40754392Y11513878D01*
X40526056Y11345227D01*
X40522877Y11342098D01*
X40522874Y11342095D01*
X40443063Y11263528D01*
X40323762Y11146086D01*
X40321056Y11142540D01*
X40158053Y10928954D01*
X40151545Y10920427D01*
X40012841Y10672755D01*
X40011236Y10668606D01*
X40011234Y10668602D01*
X39987838Y10608126D01*
X39910419Y10408009D01*
X39909417Y10403688D01*
X39909415Y10403680D01*
X39873130Y10247132D01*
X39846322Y10131474D01*
X39821828Y9848666D01*
X39822072Y9844231D01*
X39822072Y9844227D01*
X39824411Y9801728D01*
X39837426Y9565228D01*
X39838293Y9560868D01*
X39838294Y9560862D01*
X39858380Y9459885D01*
X39892806Y9286815D01*
X39894284Y9282605D01*
X39894285Y9282603D01*
X39917599Y9216215D01*
X39986862Y9018984D01*
X39988915Y9015033D01*
X39988917Y9015027D01*
X40114128Y8773985D01*
X40117717Y8767076D01*
X40120300Y8763461D01*
X40120304Y8763455D01*
X40170826Y8692757D01*
X40282761Y8536120D01*
X40478701Y8330723D01*
X40482197Y8327967D01*
X40482198Y8327966D01*
X40681112Y8171154D01*
X40701626Y8154982D01*
X40782956Y8107742D01*
X40943242Y8014640D01*
X40943248Y8014637D01*
X40947089Y8012406D01*
X40951212Y8010736D01*
X41206061Y7907511D01*
X41206069Y7907508D01*
X41210193Y7905838D01*
X41485688Y7837405D01*
X41727786Y7812600D01*
X45403511Y7812600D01*
X45614358Y7827529D01*
X45618713Y7828467D01*
X45618716Y7828467D01*
X45887519Y7886339D01*
X45887521Y7886339D01*
X45891866Y7887275D01*
X46158187Y7985526D01*
X46249115Y8034588D01*
X46404092Y8118209D01*
X46408008Y8120322D01*
X46636344Y8288973D01*
X46641234Y8293786D01*
X46764694Y8415323D01*
X46838638Y8488114D01*
X46954135Y8639452D01*
X47008150Y8710228D01*
X47008153Y8710232D01*
X47010855Y8713773D01*
X47149559Y8961445D01*
X47157940Y8983107D01*
X47226107Y9159310D01*
X47251981Y9226191D01*
X47252983Y9230512D01*
X47252985Y9230520D01*
X47308046Y9468073D01*
X47316078Y9502726D01*
X47340572Y9785534D01*
X47339631Y9802646D01*
X47331214Y9955588D01*
X47324974Y10068972D01*
X47321992Y10083968D01*
X47286376Y10263015D01*
X47269594Y10347385D01*
X47252776Y10395277D01*
X47177016Y10611007D01*
X47175538Y10615216D01*
X47158700Y10647632D01*
X47046735Y10863174D01*
X47046734Y10863176D01*
X47044683Y10867124D01*
X47042100Y10870739D01*
X47042096Y10870745D01*
X46882227Y11094458D01*
X46879639Y11098080D01*
X46683699Y11303477D01*
X46661132Y11321268D01*
X46464270Y11476462D01*
X46460774Y11479218D01*
X46456923Y11481455D01*
X46453238Y11483959D01*
X46454062Y11485172D01*
X46409545Y11532109D01*
X46396295Y11601858D01*
X46422857Y11667698D01*
X46480798Y11708726D01*
X46522253Y11715546D01*
X47620062Y11710658D01*
X47688092Y11690353D01*
X47734346Y11636490D01*
X47745500Y11584659D01*
X47745500Y4306651D01*
X47725498Y4238530D01*
X47671842Y4192037D01*
X47601568Y4181933D01*
X47536988Y4211427D01*
X47502277Y4263777D01*
X47501329Y4263402D01*
X47499875Y4267074D01*
X47498649Y4270848D01*
X47367147Y4550302D01*
X47337434Y4597123D01*
X47203780Y4807727D01*
X47201658Y4811071D01*
X47004791Y5049043D01*
X46779651Y5260464D01*
X46776447Y5262792D01*
X46532996Y5439669D01*
X46532991Y5439672D01*
X46529787Y5442000D01*
X46259142Y5590789D01*
X45971982Y5704484D01*
X45672837Y5781291D01*
X45366424Y5820000D01*
X45057576Y5820000D01*
X44751163Y5781291D01*
X44452018Y5704484D01*
X44164858Y5590789D01*
X43894213Y5442000D01*
X43891009Y5439672D01*
X43891004Y5439669D01*
X43647553Y5262792D01*
X43644349Y5260464D01*
X43419209Y5049043D01*
X43222342Y4811071D01*
X43220220Y4807727D01*
X43086567Y4597123D01*
X43056853Y4550302D01*
X42925351Y4270848D01*
X42829912Y3977116D01*
X42772040Y3673739D01*
X42752647Y3365500D01*
X42772040Y3057261D01*
X42829912Y2753884D01*
X42925351Y2460152D01*
X43056853Y2180698D01*
X43058971Y2177360D01*
X43058973Y2177357D01*
X43110496Y2096170D01*
X43222342Y1919929D01*
X43419209Y1681957D01*
X43644349Y1470536D01*
X43647551Y1468209D01*
X43647553Y1468208D01*
X43891004Y1291331D01*
X43891009Y1291328D01*
X43894213Y1289000D01*
X44040582Y1208533D01*
X44100983Y1175327D01*
X44164858Y1140211D01*
X44345595Y1068652D01*
X44401569Y1024977D01*
X44425045Y957974D01*
X44408569Y888916D01*
X44357374Y839727D01*
X44299211Y825500D01*
X33964873Y825500D01*
X33896752Y845502D01*
X33850259Y899158D01*
X33840155Y969432D01*
X33869649Y1034012D01*
X33899038Y1058933D01*
X33927941Y1076645D01*
X34093189Y1177909D01*
X34283257Y1340243D01*
X34445591Y1530311D01*
X34576193Y1743434D01*
X34578088Y1748008D01*
X34669955Y1969795D01*
X34669957Y1969801D01*
X34671847Y1974364D01*
X34674481Y1985332D01*
X34712548Y2143894D01*
X34730199Y2217414D01*
X34749810Y2466600D01*
X34730199Y2715786D01*
X34695991Y2858269D01*
X34673001Y2954031D01*
X34672999Y2954036D01*
X34671847Y2958836D01*
X34669957Y2963399D01*
X34669955Y2963405D01*
X34578088Y3185192D01*
X34578086Y3185196D01*
X34576193Y3189766D01*
X34445591Y3402889D01*
X34303126Y3569693D01*
X34286465Y3589201D01*
X34283257Y3592957D01*
X34093189Y3755291D01*
X33880066Y3885893D01*
X33875496Y3887786D01*
X33875492Y3887788D01*
X33653705Y3979655D01*
X33653699Y3979657D01*
X33649136Y3981547D01*
X33644336Y3982699D01*
X33644331Y3982701D01*
X33518168Y4012990D01*
X33406086Y4039899D01*
X33156900Y4059510D01*
X32907714Y4039899D01*
X32795632Y4012990D01*
X32669469Y3982701D01*
X32669464Y3982699D01*
X32664664Y3981547D01*
X32660101Y3979657D01*
X32660095Y3979655D01*
X32438308Y3887788D01*
X32438304Y3887786D01*
X32433734Y3885893D01*
X32220611Y3755291D01*
X32030543Y3592957D01*
X32027335Y3589201D01*
X32010674Y3569693D01*
X31868209Y3402889D01*
X31737607Y3189766D01*
X31735714Y3185196D01*
X31735712Y3185192D01*
X31643845Y2963405D01*
X31643843Y2963399D01*
X31641953Y2958836D01*
X31640801Y2954036D01*
X31640799Y2954031D01*
X31617809Y2858269D01*
X31583601Y2715786D01*
X31563990Y2466600D01*
X31583601Y2217414D01*
X31601252Y2143894D01*
X31639320Y1985332D01*
X31641953Y1974364D01*
X31643843Y1969801D01*
X31643845Y1969795D01*
X31735712Y1748008D01*
X31737607Y1743434D01*
X31868209Y1530311D01*
X32030543Y1340243D01*
X32220611Y1177909D01*
X32385859Y1076645D01*
X32414762Y1058933D01*
X32462393Y1006285D01*
X32474000Y936244D01*
X32445897Y871046D01*
X32387006Y831392D01*
X32348927Y825500D01*
X28865073Y825500D01*
X28796952Y845502D01*
X28750459Y899158D01*
X28740355Y969432D01*
X28769849Y1034012D01*
X28799238Y1058933D01*
X28828141Y1076645D01*
X28993389Y1177909D01*
X29183457Y1340243D01*
X29345791Y1530311D01*
X29476393Y1743434D01*
X29478288Y1748008D01*
X29570155Y1969795D01*
X29570157Y1969801D01*
X29572047Y1974364D01*
X29574681Y1985332D01*
X29612748Y2143894D01*
X29630399Y2217414D01*
X29650010Y2466600D01*
X29630399Y2715786D01*
X29596191Y2858269D01*
X29573201Y2954031D01*
X29573199Y2954036D01*
X29572047Y2958836D01*
X29570157Y2963399D01*
X29570155Y2963405D01*
X29478288Y3185192D01*
X29478286Y3185196D01*
X29476393Y3189766D01*
X29345791Y3402889D01*
X29203326Y3569693D01*
X29186665Y3589201D01*
X29183457Y3592957D01*
X28993389Y3755291D01*
X28780266Y3885893D01*
X28775696Y3887786D01*
X28775692Y3887788D01*
X28553905Y3979655D01*
X28553899Y3979657D01*
X28549336Y3981547D01*
X28544536Y3982699D01*
X28544531Y3982701D01*
X28418368Y4012990D01*
X28306286Y4039899D01*
X28057100Y4059510D01*
X27807914Y4039899D01*
X27695832Y4012990D01*
X27569669Y3982701D01*
X27569664Y3982699D01*
X27564864Y3981547D01*
X27560301Y3979657D01*
X27560295Y3979655D01*
X27338508Y3887788D01*
X27338504Y3887786D01*
X27333934Y3885893D01*
X27120811Y3755291D01*
X26930743Y3592957D01*
X26927535Y3589201D01*
X26910874Y3569693D01*
X26768409Y3402889D01*
X26637807Y3189766D01*
X26635914Y3185196D01*
X26635912Y3185192D01*
X26544045Y2963405D01*
X26544043Y2963399D01*
X26542153Y2958836D01*
X26541001Y2954036D01*
X26540999Y2954031D01*
X26518009Y2858269D01*
X26483801Y2715786D01*
X26464190Y2466600D01*
X26483801Y2217414D01*
X26501452Y2143894D01*
X26539520Y1985332D01*
X26542153Y1974364D01*
X26544043Y1969801D01*
X26544045Y1969795D01*
X26635912Y1748008D01*
X26637807Y1743434D01*
X26768409Y1530311D01*
X26930743Y1340243D01*
X27120811Y1177909D01*
X27286059Y1076645D01*
X27314962Y1058933D01*
X27362593Y1006285D01*
X27374200Y936244D01*
X27346097Y871046D01*
X27287206Y831392D01*
X27249127Y825500D01*
X1180100Y825500D01*
X1111979Y845502D01*
X1065486Y899158D01*
X1054100Y951500D01*
X1054100Y2522400D01*
X2818215Y2522400D01*
X2819293Y2514212D01*
X2836031Y2387076D01*
X2837272Y2377646D01*
X2840431Y2370020D01*
X2884387Y2263902D01*
X2893145Y2242758D01*
X2930153Y2194528D01*
X2945105Y2175043D01*
X2982026Y2126926D01*
X2988576Y2121900D01*
X2988579Y2121897D01*
X3075392Y2055283D01*
X3097857Y2038045D01*
X3232746Y1982172D01*
X3377500Y1963115D01*
X3385688Y1964193D01*
X3514066Y1981094D01*
X3522254Y1982172D01*
X3657143Y2038045D01*
X3679608Y2055283D01*
X3766421Y2121897D01*
X3766424Y2121900D01*
X3772974Y2126926D01*
X3809896Y2175043D01*
X3824847Y2194528D01*
X3861855Y2242758D01*
X3870614Y2263902D01*
X3914569Y2370020D01*
X3917728Y2377646D01*
X3918970Y2387076D01*
X3935707Y2514212D01*
X3936785Y2522400D01*
X3917728Y2667154D01*
X3891350Y2730835D01*
X3865015Y2794414D01*
X3865014Y2794416D01*
X3861855Y2802042D01*
X3772974Y2917874D01*
X3766424Y2922900D01*
X3766421Y2922903D01*
X3663696Y3001727D01*
X3663694Y3001728D01*
X3657143Y3006755D01*
X3522254Y3062628D01*
X3377500Y3081685D01*
X3369312Y3080607D01*
X3240932Y3063706D01*
X3240930Y3063705D01*
X3232746Y3062628D01*
X3210374Y3053361D01*
X3105486Y3009915D01*
X3105484Y3009914D01*
X3097858Y3006755D01*
X3067540Y2983491D01*
X2999607Y2931364D01*
X2982026Y2917874D01*
X2893145Y2802042D01*
X2889986Y2794416D01*
X2889985Y2794414D01*
X2863650Y2730835D01*
X2837272Y2667154D01*
X2818215Y2522400D01*
X1054100Y2522400D01*
X1054100Y3140536D01*
X7273148Y3140536D01*
X7286424Y2937978D01*
X7287845Y2932382D01*
X7287846Y2932377D01*
X7334971Y2746826D01*
X7336392Y2741231D01*
X7338809Y2735988D01*
X7374316Y2658968D01*
X7421377Y2556884D01*
X7538533Y2391111D01*
X7683938Y2249465D01*
X7688742Y2246255D01*
X7739103Y2212605D01*
X7852720Y2136688D01*
X7858023Y2134410D01*
X7858026Y2134408D01*
X7945913Y2096649D01*
X8039228Y2056558D01*
X8112244Y2040036D01*
X8231579Y2013033D01*
X8231584Y2013032D01*
X8237216Y2011758D01*
X8242987Y2011531D01*
X8242989Y2011531D01*
X8302756Y2009183D01*
X8440053Y2003788D01*
X8540499Y2018352D01*
X8635231Y2032087D01*
X8635236Y2032088D01*
X8640945Y2032916D01*
X8646409Y2034771D01*
X8646414Y2034772D01*
X8827693Y2096308D01*
X8827698Y2096310D01*
X8833165Y2098166D01*
X9010276Y2197353D01*
X9025495Y2210010D01*
X9161913Y2323469D01*
X9166345Y2327155D01*
X9208338Y2377646D01*
X9292453Y2478782D01*
X9292455Y2478785D01*
X9296147Y2483224D01*
X9395334Y2660335D01*
X9397190Y2665802D01*
X9397192Y2665807D01*
X9458728Y2847086D01*
X9458729Y2847091D01*
X9460584Y2852555D01*
X9461412Y2858264D01*
X9461413Y2858269D01*
X9482942Y3006755D01*
X9489712Y3053447D01*
X9491232Y3111500D01*
X9488564Y3140536D01*
X9813148Y3140536D01*
X9826424Y2937978D01*
X9827845Y2932382D01*
X9827846Y2932377D01*
X9874971Y2746826D01*
X9876392Y2741231D01*
X9878809Y2735988D01*
X9914316Y2658968D01*
X9961377Y2556884D01*
X10078533Y2391111D01*
X10223938Y2249465D01*
X10228742Y2246255D01*
X10279103Y2212605D01*
X10392720Y2136688D01*
X10398023Y2134410D01*
X10398026Y2134408D01*
X10485913Y2096649D01*
X10579228Y2056558D01*
X10652244Y2040036D01*
X10771579Y2013033D01*
X10771584Y2013032D01*
X10777216Y2011758D01*
X10782987Y2011531D01*
X10782989Y2011531D01*
X10842756Y2009183D01*
X10980053Y2003788D01*
X11080499Y2018352D01*
X11175231Y2032087D01*
X11175236Y2032088D01*
X11180945Y2032916D01*
X11186409Y2034771D01*
X11186414Y2034772D01*
X11367693Y2096308D01*
X11367698Y2096310D01*
X11373165Y2098166D01*
X11550276Y2197353D01*
X11565495Y2210010D01*
X11701913Y2323469D01*
X11706345Y2327155D01*
X11748338Y2377646D01*
X11832453Y2478782D01*
X11832455Y2478785D01*
X11836147Y2483224D01*
X11935334Y2660335D01*
X11937190Y2665802D01*
X11937192Y2665807D01*
X11998728Y2847086D01*
X11998729Y2847091D01*
X12000584Y2852555D01*
X12001412Y2858264D01*
X12001413Y2858269D01*
X12022942Y3006755D01*
X12029712Y3053447D01*
X12031232Y3111500D01*
X12028564Y3140536D01*
X12353148Y3140536D01*
X12366424Y2937978D01*
X12367845Y2932382D01*
X12367846Y2932377D01*
X12414971Y2746826D01*
X12416392Y2741231D01*
X12418809Y2735988D01*
X12454316Y2658968D01*
X12501377Y2556884D01*
X12618533Y2391111D01*
X12763938Y2249465D01*
X12768742Y2246255D01*
X12819103Y2212605D01*
X12932720Y2136688D01*
X12938023Y2134410D01*
X12938026Y2134408D01*
X13025913Y2096649D01*
X13119228Y2056558D01*
X13192244Y2040036D01*
X13311579Y2013033D01*
X13311584Y2013032D01*
X13317216Y2011758D01*
X13322987Y2011531D01*
X13322989Y2011531D01*
X13382756Y2009183D01*
X13520053Y2003788D01*
X13620499Y2018352D01*
X13715231Y2032087D01*
X13715236Y2032088D01*
X13720945Y2032916D01*
X13726409Y2034771D01*
X13726414Y2034772D01*
X13907693Y2096308D01*
X13907698Y2096310D01*
X13913165Y2098166D01*
X14090276Y2197353D01*
X14105495Y2210010D01*
X14241913Y2323469D01*
X14246345Y2327155D01*
X14288338Y2377646D01*
X14372453Y2478782D01*
X14372455Y2478785D01*
X14376147Y2483224D01*
X14378969Y2488264D01*
X14378973Y2488269D01*
X14408067Y2540221D01*
X14458804Y2589883D01*
X14528335Y2604230D01*
X14594586Y2578709D01*
X14636522Y2521420D01*
X14644001Y2478655D01*
X14644001Y2216831D01*
X14644371Y2210010D01*
X14649895Y2159148D01*
X14653521Y2143896D01*
X14698676Y2023446D01*
X14707214Y2007851D01*
X14783715Y1905776D01*
X14796276Y1893215D01*
X14898351Y1816714D01*
X14913946Y1808176D01*
X15034394Y1763022D01*
X15049649Y1759395D01*
X15100514Y1753869D01*
X15107328Y1753500D01*
X15729885Y1753500D01*
X15745124Y1757975D01*
X15746329Y1759365D01*
X15748000Y1767048D01*
X15748000Y1771616D01*
X16256000Y1771616D01*
X16260475Y1756377D01*
X16261865Y1755172D01*
X16269548Y1753501D01*
X16896669Y1753501D01*
X16903490Y1753871D01*
X16954352Y1759395D01*
X16969604Y1763021D01*
X17090054Y1808176D01*
X17105649Y1816714D01*
X17207724Y1893215D01*
X17220285Y1905776D01*
X17296786Y2007851D01*
X17305324Y2023446D01*
X17350478Y2143894D01*
X17354105Y2159149D01*
X17359631Y2210014D01*
X17360000Y2216828D01*
X17360000Y2839385D01*
X17355525Y2854624D01*
X17354135Y2855829D01*
X17346452Y2857500D01*
X16274115Y2857500D01*
X16258876Y2853025D01*
X16257671Y2851635D01*
X16256000Y2843952D01*
X16256000Y1771616D01*
X15748000Y1771616D01*
X15748000Y3383615D01*
X16256000Y3383615D01*
X16260475Y3368376D01*
X16261865Y3367171D01*
X16269548Y3365500D01*
X17341884Y3365500D01*
X17357123Y3369975D01*
X17378057Y3394134D01*
X17387520Y3411465D01*
X17449832Y3445491D01*
X17520647Y3440427D01*
X17577484Y3397882D01*
X17601539Y3338817D01*
X17611172Y3265646D01*
X17629698Y3220920D01*
X17662995Y3140536D01*
X17667045Y3130758D01*
X17755926Y3014926D01*
X17762476Y3009900D01*
X17762479Y3009897D01*
X17857905Y2936674D01*
X17871757Y2926045D01*
X18006646Y2870172D01*
X18151400Y2851115D01*
X18159588Y2852193D01*
X18287966Y2869094D01*
X18296154Y2870172D01*
X18431043Y2926045D01*
X18444895Y2936674D01*
X18540321Y3009897D01*
X18540324Y3009900D01*
X18546874Y3014926D01*
X18635755Y3130758D01*
X18639806Y3140536D01*
X18673102Y3220920D01*
X18691628Y3265646D01*
X18702423Y3347639D01*
X18705801Y3373300D01*
X20912715Y3373300D01*
X20913793Y3365112D01*
X20927892Y3258020D01*
X20931772Y3228546D01*
X20934931Y3220920D01*
X20981789Y3107796D01*
X20987645Y3093658D01*
X21076526Y2977826D01*
X21083076Y2972800D01*
X21083079Y2972797D01*
X21185804Y2893973D01*
X21192357Y2888945D01*
X21327246Y2833072D01*
X21472000Y2814015D01*
X21480188Y2815093D01*
X21608566Y2831994D01*
X21616754Y2833072D01*
X21751643Y2888945D01*
X21780807Y2911323D01*
X21860082Y2972154D01*
X21926302Y2997755D01*
X21995851Y2983491D01*
X22046647Y2933890D01*
X22050981Y2925442D01*
X22139402Y2735822D01*
X22139405Y2735817D01*
X22141728Y2730835D01*
X22144884Y2726328D01*
X22144885Y2726326D01*
X22263530Y2556884D01*
X22268637Y2549590D01*
X22425090Y2393137D01*
X22429598Y2389980D01*
X22429601Y2389978D01*
X22519322Y2327155D01*
X22606335Y2266228D01*
X22611317Y2263905D01*
X22611322Y2263902D01*
X22726895Y2210010D01*
X22806864Y2172720D01*
X22812172Y2171298D01*
X22812174Y2171297D01*
X23015268Y2116878D01*
X23015270Y2116878D01*
X23020583Y2115454D01*
X23241000Y2096170D01*
X23461417Y2115454D01*
X23466730Y2116878D01*
X23466732Y2116878D01*
X23669826Y2171297D01*
X23669828Y2171298D01*
X23675136Y2172720D01*
X23755105Y2210010D01*
X23870678Y2263902D01*
X23870683Y2263905D01*
X23875665Y2266228D01*
X23962678Y2327155D01*
X24052399Y2389978D01*
X24052402Y2389980D01*
X24056910Y2393137D01*
X24213363Y2549590D01*
X24218471Y2556884D01*
X24337115Y2726326D01*
X24337116Y2726328D01*
X24340272Y2730835D01*
X24342595Y2735817D01*
X24342598Y2735822D01*
X24431457Y2926382D01*
X24431457Y2926383D01*
X24433780Y2931364D01*
X24437098Y2943745D01*
X24489622Y3139768D01*
X24489622Y3139770D01*
X24491046Y3145083D01*
X24510330Y3365500D01*
X24491046Y3585917D01*
X24461630Y3695699D01*
X24435203Y3794326D01*
X24435202Y3794328D01*
X24433780Y3799636D01*
X24431457Y3804618D01*
X24342598Y3995178D01*
X24342595Y3995183D01*
X24340272Y4000165D01*
X24331292Y4012990D01*
X24216522Y4176899D01*
X24216520Y4176902D01*
X24213363Y4181410D01*
X24056910Y4337863D01*
X24052402Y4341020D01*
X24052399Y4341022D01*
X23880174Y4461615D01*
X23880172Y4461616D01*
X23875665Y4464772D01*
X23870683Y4467095D01*
X23870678Y4467098D01*
X23680118Y4555957D01*
X23680117Y4555957D01*
X23675136Y4558280D01*
X23669828Y4559702D01*
X23669826Y4559703D01*
X23466732Y4614122D01*
X23466730Y4614122D01*
X23461417Y4615546D01*
X23241000Y4634830D01*
X23020583Y4615546D01*
X23015270Y4614122D01*
X23015268Y4614122D01*
X22812174Y4559703D01*
X22812172Y4559702D01*
X22806864Y4558280D01*
X22801883Y4555957D01*
X22801882Y4555957D01*
X22611322Y4467098D01*
X22611317Y4467095D01*
X22606335Y4464772D01*
X22601828Y4461616D01*
X22601826Y4461615D01*
X22429601Y4341022D01*
X22429598Y4341020D01*
X22425090Y4337863D01*
X22268637Y4181410D01*
X22265480Y4176902D01*
X22265478Y4176899D01*
X22150708Y4012990D01*
X22141728Y4000165D01*
X22139405Y3995183D01*
X22139402Y3995178D01*
X22076748Y3860815D01*
X22059030Y3822817D01*
X22056339Y3817047D01*
X22009422Y3763762D01*
X21941145Y3744301D01*
X21873185Y3764843D01*
X21865440Y3770335D01*
X21827662Y3799323D01*
X21751643Y3857655D01*
X21616754Y3913528D01*
X21472000Y3932585D01*
X21463812Y3931507D01*
X21335432Y3914606D01*
X21335430Y3914605D01*
X21327246Y3913528D01*
X21289553Y3897915D01*
X21199986Y3860815D01*
X21199984Y3860814D01*
X21192358Y3857655D01*
X21076526Y3768774D01*
X20987645Y3652942D01*
X20931772Y3518054D01*
X20930695Y3509870D01*
X20930694Y3509868D01*
X20922219Y3445491D01*
X20912715Y3373300D01*
X18705801Y3373300D01*
X18709607Y3402212D01*
X18710685Y3410400D01*
X18700726Y3486050D01*
X18692706Y3546968D01*
X18692705Y3546970D01*
X18691628Y3555154D01*
X18662025Y3626622D01*
X18638915Y3682414D01*
X18638914Y3682416D01*
X18635755Y3690042D01*
X18585688Y3755291D01*
X18551901Y3799323D01*
X18551900Y3799324D01*
X18546874Y3805874D01*
X18540324Y3810900D01*
X18540321Y3810903D01*
X18437596Y3889727D01*
X18437594Y3889728D01*
X18431043Y3894755D01*
X18296154Y3950628D01*
X18151400Y3969685D01*
X18143212Y3968607D01*
X18014832Y3951706D01*
X18014830Y3951705D01*
X18006646Y3950628D01*
X17963087Y3932585D01*
X17879386Y3897915D01*
X17879384Y3897914D01*
X17871758Y3894755D01*
X17755926Y3805874D01*
X17667045Y3690042D01*
X17663886Y3682416D01*
X17663885Y3682414D01*
X17640775Y3626622D01*
X17611172Y3555154D01*
X17610094Y3546968D01*
X17607957Y3538991D01*
X17604968Y3539792D01*
X17582201Y3488323D01*
X17522937Y3449229D01*
X17451946Y3448382D01*
X17391766Y3486050D01*
X17361504Y3550275D01*
X17359999Y3569693D01*
X17359999Y4006169D01*
X17359629Y4012990D01*
X17354105Y4063852D01*
X17350479Y4079104D01*
X17305324Y4199554D01*
X17296786Y4215149D01*
X17220285Y4317224D01*
X17207724Y4329785D01*
X17105649Y4406286D01*
X17090054Y4414824D01*
X16969606Y4459978D01*
X16954351Y4463605D01*
X16903486Y4469131D01*
X16896672Y4469500D01*
X16274115Y4469500D01*
X16258876Y4465025D01*
X16257671Y4463635D01*
X16256000Y4455952D01*
X16256000Y3383615D01*
X15748000Y3383615D01*
X15748000Y4451384D01*
X15743525Y4466623D01*
X15742135Y4467828D01*
X15734452Y4469499D01*
X15107331Y4469499D01*
X15100510Y4469129D01*
X15049648Y4463605D01*
X15034396Y4459979D01*
X14913946Y4414824D01*
X14898351Y4406286D01*
X14796276Y4329785D01*
X14783715Y4317224D01*
X14707214Y4215149D01*
X14698676Y4199554D01*
X14653522Y4079106D01*
X14649895Y4063851D01*
X14644369Y4012986D01*
X14644000Y4006172D01*
X14644000Y3751340D01*
X14623998Y3683219D01*
X14570342Y3636726D01*
X14500068Y3626622D01*
X14435488Y3656116D01*
X14410567Y3685506D01*
X14410331Y3685892D01*
X14407776Y3691072D01*
X14286320Y3853721D01*
X14163544Y3967214D01*
X14141503Y3987589D01*
X14137258Y3991513D01*
X14132375Y3994594D01*
X14132371Y3994597D01*
X13970464Y4096752D01*
X13965581Y4099833D01*
X13777039Y4175054D01*
X13771379Y4176180D01*
X13771375Y4176181D01*
X13583613Y4213529D01*
X13583610Y4213529D01*
X13577946Y4214656D01*
X13572171Y4214732D01*
X13572167Y4214732D01*
X13470793Y4216059D01*
X13374971Y4217313D01*
X13369274Y4216334D01*
X13369273Y4216334D01*
X13271620Y4199554D01*
X13174910Y4182936D01*
X12984463Y4112676D01*
X12810010Y4008888D01*
X12805670Y4005082D01*
X12805666Y4005079D01*
X12669762Y3885893D01*
X12657392Y3875045D01*
X12531720Y3715631D01*
X12529031Y3710520D01*
X12529029Y3710517D01*
X12511731Y3677639D01*
X12437203Y3535985D01*
X12377007Y3342122D01*
X12353148Y3140536D01*
X12028564Y3140536D01*
X12012658Y3313641D01*
X12011090Y3319201D01*
X11959125Y3503454D01*
X11959124Y3503456D01*
X11957557Y3509013D01*
X11946978Y3530467D01*
X11870331Y3685891D01*
X11867776Y3691072D01*
X11746320Y3853721D01*
X11623544Y3967214D01*
X11601503Y3987589D01*
X11597258Y3991513D01*
X11592375Y3994594D01*
X11592371Y3994597D01*
X11430464Y4096752D01*
X11425581Y4099833D01*
X11237039Y4175054D01*
X11231379Y4176180D01*
X11231375Y4176181D01*
X11043613Y4213529D01*
X11043610Y4213529D01*
X11037946Y4214656D01*
X11032171Y4214732D01*
X11032167Y4214732D01*
X10930793Y4216059D01*
X10834971Y4217313D01*
X10829274Y4216334D01*
X10829273Y4216334D01*
X10731620Y4199554D01*
X10634910Y4182936D01*
X10444463Y4112676D01*
X10270010Y4008888D01*
X10265670Y4005082D01*
X10265666Y4005079D01*
X10129762Y3885893D01*
X10117392Y3875045D01*
X9991720Y3715631D01*
X9989031Y3710520D01*
X9989029Y3710517D01*
X9971731Y3677639D01*
X9897203Y3535985D01*
X9837007Y3342122D01*
X9813148Y3140536D01*
X9488564Y3140536D01*
X9472658Y3313641D01*
X9471090Y3319201D01*
X9419125Y3503454D01*
X9419124Y3503456D01*
X9417557Y3509013D01*
X9406978Y3530467D01*
X9330331Y3685891D01*
X9327776Y3691072D01*
X9206320Y3853721D01*
X9083544Y3967214D01*
X9061503Y3987589D01*
X9057258Y3991513D01*
X9052375Y3994594D01*
X9052371Y3994597D01*
X8890464Y4096752D01*
X8885581Y4099833D01*
X8697039Y4175054D01*
X8691379Y4176180D01*
X8691375Y4176181D01*
X8503613Y4213529D01*
X8503610Y4213529D01*
X8497946Y4214656D01*
X8492171Y4214732D01*
X8492167Y4214732D01*
X8390793Y4216059D01*
X8294971Y4217313D01*
X8289274Y4216334D01*
X8289273Y4216334D01*
X8191620Y4199554D01*
X8094910Y4182936D01*
X7904463Y4112676D01*
X7730010Y4008888D01*
X7725670Y4005082D01*
X7725666Y4005079D01*
X7589762Y3885893D01*
X7577392Y3875045D01*
X7451720Y3715631D01*
X7449031Y3710520D01*
X7449029Y3710517D01*
X7431731Y3677639D01*
X7357203Y3535985D01*
X7297007Y3342122D01*
X7273148Y3140536D01*
X1054100Y3140536D01*
X1054100Y5016500D01*
X29395389Y5016500D01*
X29413796Y4806106D01*
X29415220Y4800793D01*
X29415220Y4800791D01*
X29453865Y4656568D01*
X29468458Y4602105D01*
X29470780Y4597124D01*
X29470781Y4597123D01*
X29533970Y4461615D01*
X29557714Y4410695D01*
X29678852Y4237691D01*
X29828191Y4088352D01*
X29832699Y4085195D01*
X29832702Y4085193D01*
X29996685Y3970371D01*
X30001194Y3967214D01*
X30006176Y3964891D01*
X30006181Y3964888D01*
X30167364Y3889728D01*
X30192605Y3877958D01*
X30197913Y3876536D01*
X30197915Y3876535D01*
X30391291Y3824720D01*
X30391293Y3824720D01*
X30396606Y3823296D01*
X30607000Y3804889D01*
X30817394Y3823296D01*
X30822707Y3824720D01*
X30822709Y3824720D01*
X31016085Y3876535D01*
X31016087Y3876536D01*
X31021395Y3877958D01*
X31046636Y3889728D01*
X31207819Y3964888D01*
X31207824Y3964891D01*
X31212806Y3967214D01*
X31217315Y3970371D01*
X31381298Y4085193D01*
X31381301Y4085195D01*
X31385809Y4088352D01*
X31535148Y4237691D01*
X31656286Y4410695D01*
X31680031Y4461615D01*
X31707256Y4520000D01*
X41240715Y4520000D01*
X41241793Y4511812D01*
X41255686Y4406286D01*
X41259772Y4375246D01*
X41262931Y4367620D01*
X41306100Y4263402D01*
X41315645Y4240358D01*
X41334079Y4216334D01*
X41365755Y4175054D01*
X41404526Y4124526D01*
X41411076Y4119500D01*
X41411079Y4119497D01*
X41489761Y4059122D01*
X41520357Y4035645D01*
X41655246Y3979772D01*
X41663434Y3978694D01*
X41705052Y3973215D01*
X41800000Y3960715D01*
X41808188Y3961793D01*
X41936566Y3978694D01*
X41944754Y3979772D01*
X42079643Y4035645D01*
X42110239Y4059122D01*
X42188921Y4119497D01*
X42188924Y4119500D01*
X42195474Y4124526D01*
X42234246Y4175054D01*
X42265921Y4216334D01*
X42284355Y4240358D01*
X42293901Y4263402D01*
X42337069Y4367620D01*
X42340228Y4375246D01*
X42344315Y4406286D01*
X42358207Y4511812D01*
X42359285Y4520000D01*
X42340228Y4664754D01*
X42284355Y4799642D01*
X42195474Y4915474D01*
X42188924Y4920500D01*
X42188921Y4920503D01*
X42086196Y4999327D01*
X42086194Y4999328D01*
X42079643Y5004355D01*
X41944754Y5060228D01*
X41800000Y5079285D01*
X41791812Y5078207D01*
X41663432Y5061306D01*
X41663430Y5061305D01*
X41655246Y5060228D01*
X41620878Y5045992D01*
X41527986Y5007515D01*
X41527984Y5007514D01*
X41520358Y5004355D01*
X41404526Y4915474D01*
X41315645Y4799642D01*
X41259772Y4664754D01*
X41240715Y4520000D01*
X31707256Y4520000D01*
X31743219Y4597123D01*
X31743220Y4597124D01*
X31745542Y4602105D01*
X31760136Y4656568D01*
X31798780Y4800791D01*
X31798780Y4800793D01*
X31800204Y4806106D01*
X31818611Y5016500D01*
X31800204Y5226894D01*
X31745542Y5430895D01*
X31740364Y5442000D01*
X31658609Y5617324D01*
X31658607Y5617327D01*
X31656286Y5622305D01*
X31535148Y5795309D01*
X31385809Y5944648D01*
X31381301Y5947805D01*
X31381298Y5947807D01*
X31217315Y6062629D01*
X31217312Y6062631D01*
X31212806Y6065786D01*
X31207824Y6068109D01*
X31207819Y6068112D01*
X31026377Y6152719D01*
X31026376Y6152719D01*
X31021395Y6155042D01*
X31016087Y6156464D01*
X31016085Y6156465D01*
X30822709Y6208280D01*
X30822707Y6208280D01*
X30817394Y6209704D01*
X30607000Y6228111D01*
X30396606Y6209704D01*
X30391293Y6208280D01*
X30391291Y6208280D01*
X30197915Y6156465D01*
X30197913Y6156464D01*
X30192605Y6155042D01*
X30187624Y6152720D01*
X30187623Y6152719D01*
X30006176Y6068109D01*
X30006173Y6068107D01*
X30001195Y6065786D01*
X29828191Y5944648D01*
X29678852Y5795309D01*
X29557714Y5622305D01*
X29555393Y5617327D01*
X29555391Y5617324D01*
X29473636Y5442000D01*
X29468458Y5430895D01*
X29413796Y5226894D01*
X29395389Y5016500D01*
X1054100Y5016500D01*
X1054100Y6545199D01*
X1074102Y6613320D01*
X1127758Y6659813D01*
X1198032Y6669917D01*
X1262612Y6640423D01*
X1294295Y6598449D01*
X1346829Y6485789D01*
X1346832Y6485784D01*
X1349155Y6480802D01*
X1352311Y6476295D01*
X1352312Y6476293D01*
X1398321Y6410586D01*
X1472551Y6304574D01*
X1624674Y6152451D01*
X1629182Y6149294D01*
X1629185Y6149292D01*
X1752950Y6062631D01*
X1800902Y6029055D01*
X1805884Y6026732D01*
X1805889Y6026729D01*
X1990270Y5940751D01*
X1995880Y5938135D01*
X2001188Y5936713D01*
X2001190Y5936712D01*
X2065932Y5919365D01*
X2203684Y5882454D01*
X2418000Y5863704D01*
X2632316Y5882454D01*
X2770068Y5919365D01*
X2834810Y5936712D01*
X2834812Y5936713D01*
X2840120Y5938135D01*
X2845730Y5940751D01*
X3030111Y6026729D01*
X3030116Y6026732D01*
X3035098Y6029055D01*
X3083050Y6062631D01*
X3206815Y6149292D01*
X3206818Y6149294D01*
X3211326Y6152451D01*
X3363449Y6304574D01*
X3437680Y6410586D01*
X3483688Y6476293D01*
X3483689Y6476295D01*
X3486845Y6480802D01*
X3489168Y6485784D01*
X3489171Y6485789D01*
X3575442Y6670798D01*
X3575443Y6670799D01*
X3577765Y6675780D01*
X3579593Y6682600D01*
X3618379Y6827354D01*
X3633446Y6883584D01*
X3652196Y7097900D01*
X3633446Y7312216D01*
X3587528Y7483584D01*
X3579188Y7514710D01*
X3579187Y7514712D01*
X3577765Y7520020D01*
X3560947Y7556086D01*
X3489171Y7710011D01*
X3489167Y7710018D01*
X3486845Y7714998D01*
X3483688Y7719507D01*
X3366608Y7886715D01*
X3366606Y7886718D01*
X3363449Y7891226D01*
X3211326Y8043349D01*
X3206818Y8046506D01*
X3206815Y8046508D01*
X3039607Y8163588D01*
X3039605Y8163589D01*
X3035098Y8166745D01*
X3030116Y8169068D01*
X3030111Y8169071D01*
X2845102Y8255342D01*
X2845101Y8255343D01*
X2840120Y8257665D01*
X2834812Y8259087D01*
X2834810Y8259088D01*
X2744348Y8283327D01*
X2632316Y8313346D01*
X2418000Y8332096D01*
X2203684Y8313346D01*
X2091652Y8283327D01*
X2001190Y8259088D01*
X2001188Y8259087D01*
X1995880Y8257665D01*
X1990899Y8255343D01*
X1990898Y8255342D01*
X1805889Y8169071D01*
X1805884Y8169068D01*
X1800902Y8166745D01*
X1796395Y8163589D01*
X1796393Y8163588D01*
X1629185Y8046508D01*
X1629182Y8046506D01*
X1624674Y8043349D01*
X1472551Y7891226D01*
X1469394Y7886718D01*
X1469392Y7886715D01*
X1352312Y7719507D01*
X1349155Y7714998D01*
X1346833Y7710018D01*
X1346829Y7710011D01*
X1294295Y7597351D01*
X1247377Y7544066D01*
X1179100Y7524605D01*
X1111140Y7545147D01*
X1065075Y7599170D01*
X1054100Y7650601D01*
X1054100Y10383301D01*
X1074102Y10451422D01*
X1131881Y10499710D01*
X1179043Y10519245D01*
X1185596Y10524273D01*
X1288321Y10603097D01*
X1288324Y10603100D01*
X1294874Y10608126D01*
X1300315Y10615216D01*
X1354794Y10686215D01*
X1383755Y10723958D01*
X1388648Y10735769D01*
X1436469Y10851220D01*
X1439628Y10858846D01*
X1458685Y11003600D01*
X1449892Y11070393D01*
X1440706Y11140168D01*
X1440705Y11140170D01*
X1439628Y11148354D01*
X1392825Y11261345D01*
X1386915Y11275614D01*
X1386914Y11275616D01*
X1383755Y11283242D01*
X1294874Y11399074D01*
X1288324Y11404100D01*
X1288321Y11404103D01*
X1185596Y11482927D01*
X1185594Y11482928D01*
X1179043Y11487955D01*
X1131881Y11507490D01*
X1076601Y11552039D01*
X1054100Y11623899D01*
X1054100Y12436100D01*
X6061215Y12436100D01*
X6062293Y12427912D01*
X6078899Y12301777D01*
X6080272Y12291346D01*
X6083431Y12283720D01*
X6107743Y12225027D01*
X6136145Y12156458D01*
X6225026Y12040626D01*
X6231576Y12035600D01*
X6231579Y12035597D01*
X6327602Y11961916D01*
X6340857Y11951745D01*
X6475746Y11895872D01*
X6620500Y11876815D01*
X6628688Y11877893D01*
X6757066Y11894794D01*
X6765254Y11895872D01*
X6900143Y11951745D01*
X6913398Y11961916D01*
X6979619Y11987515D01*
X7049167Y11973249D01*
X7099962Y11923647D01*
X7116100Y11861952D01*
X7116100Y11637006D01*
X7096098Y11568885D01*
X7042442Y11522392D01*
X6973655Y11512084D01*
X6878700Y11524585D01*
X6870512Y11523507D01*
X6742132Y11506606D01*
X6742130Y11506605D01*
X6733946Y11505528D01*
X6686130Y11485722D01*
X6606686Y11452815D01*
X6606684Y11452814D01*
X6599058Y11449655D01*
X6483226Y11360774D01*
X6478203Y11354228D01*
X6468893Y11342095D01*
X6394345Y11244942D01*
X6391186Y11237316D01*
X6391185Y11237314D01*
X6370102Y11186415D01*
X6338472Y11110054D01*
X6337395Y11101870D01*
X6337394Y11101868D01*
X6332388Y11063842D01*
X6319415Y10965300D01*
X6320493Y10957112D01*
X6334434Y10851220D01*
X6338472Y10820546D01*
X6341631Y10812920D01*
X6373589Y10735768D01*
X6394345Y10685658D01*
X6483226Y10569826D01*
X6489776Y10564800D01*
X6489779Y10564797D01*
X6592504Y10485973D01*
X6599057Y10480945D01*
X6733946Y10425072D01*
X6878700Y10406015D01*
X6973655Y10418516D01*
X7043802Y10407577D01*
X7096901Y10360449D01*
X7116100Y10293594D01*
X7116100Y9013356D01*
X7096098Y8945235D01*
X7042442Y8898742D01*
X7022714Y8891650D01*
X6951532Y8872577D01*
X6901190Y8859088D01*
X6901188Y8859087D01*
X6895880Y8857665D01*
X6890899Y8855343D01*
X6890898Y8855342D01*
X6705889Y8769071D01*
X6705884Y8769068D01*
X6700902Y8766745D01*
X6696395Y8763589D01*
X6696393Y8763588D01*
X6529185Y8646508D01*
X6529182Y8646506D01*
X6524674Y8643349D01*
X6372551Y8491226D01*
X6369394Y8486718D01*
X6369392Y8486715D01*
X6260166Y8330723D01*
X6249155Y8314998D01*
X6246832Y8310016D01*
X6246829Y8310011D01*
X6192230Y8192923D01*
X6158235Y8120020D01*
X6156813Y8114712D01*
X6156812Y8114710D01*
X6146444Y8076014D01*
X6102554Y7912216D01*
X6083804Y7697900D01*
X6102554Y7483584D01*
X6121667Y7412254D01*
X6145812Y7322145D01*
X6158235Y7275780D01*
X6160557Y7270799D01*
X6160558Y7270798D01*
X6246829Y7085789D01*
X6246832Y7085784D01*
X6249155Y7080802D01*
X6252311Y7076295D01*
X6252312Y7076293D01*
X6337513Y6954614D01*
X6372551Y6904574D01*
X6524674Y6752451D01*
X6529182Y6749294D01*
X6529185Y6749292D01*
X6696393Y6632212D01*
X6700902Y6629055D01*
X6705884Y6626732D01*
X6705889Y6626729D01*
X6878945Y6546032D01*
X6895880Y6538135D01*
X6901188Y6536713D01*
X6901190Y6536712D01*
X6925419Y6530220D01*
X7103684Y6482454D01*
X7318000Y6463704D01*
X7532316Y6482454D01*
X7710581Y6530220D01*
X7734810Y6536712D01*
X7734812Y6536713D01*
X7740120Y6538135D01*
X7757055Y6546032D01*
X7930111Y6626729D01*
X7930116Y6626732D01*
X7935098Y6629055D01*
X7939607Y6632212D01*
X8011569Y6682600D01*
X9600715Y6682600D01*
X9601793Y6674412D01*
X9611794Y6598449D01*
X9619772Y6537846D01*
X9622931Y6530220D01*
X9661613Y6436835D01*
X9675645Y6402958D01*
X9680672Y6396407D01*
X9751138Y6304574D01*
X9764526Y6287126D01*
X9771076Y6282100D01*
X9771079Y6282097D01*
X9841435Y6228111D01*
X9880357Y6198245D01*
X10015246Y6142372D01*
X10160000Y6123315D01*
X10168188Y6124393D01*
X10296566Y6141294D01*
X10304754Y6142372D01*
X10439643Y6198245D01*
X10478565Y6228111D01*
X10548921Y6282097D01*
X10548924Y6282100D01*
X10555474Y6287126D01*
X10568863Y6304574D01*
X10639328Y6396407D01*
X10644355Y6402958D01*
X10658388Y6436835D01*
X10697069Y6530220D01*
X10700228Y6537846D01*
X10708207Y6598449D01*
X10718207Y6674412D01*
X10719285Y6682600D01*
X10700228Y6827354D01*
X10644355Y6962242D01*
X10555474Y7078074D01*
X10548924Y7083100D01*
X10548921Y7083103D01*
X10446196Y7161927D01*
X10446194Y7161928D01*
X10439643Y7166955D01*
X10304754Y7222828D01*
X10160000Y7241885D01*
X10151812Y7240807D01*
X10023432Y7223906D01*
X10023430Y7223905D01*
X10015246Y7222828D01*
X9967430Y7203022D01*
X9887986Y7170115D01*
X9887984Y7170114D01*
X9880358Y7166955D01*
X9764526Y7078074D01*
X9675645Y6962242D01*
X9619772Y6827354D01*
X9600715Y6682600D01*
X8011569Y6682600D01*
X8106815Y6749292D01*
X8106818Y6749294D01*
X8111326Y6752451D01*
X8263449Y6904574D01*
X8298488Y6954614D01*
X8383688Y7076293D01*
X8383689Y7076295D01*
X8386845Y7080802D01*
X8389168Y7085784D01*
X8389171Y7085789D01*
X8475442Y7270798D01*
X8475443Y7270799D01*
X8477765Y7275780D01*
X8490189Y7322145D01*
X8514333Y7412254D01*
X8533446Y7483584D01*
X8552196Y7697900D01*
X8540805Y7828100D01*
X17854715Y7828100D01*
X17856712Y7812928D01*
X17872577Y7692425D01*
X17873772Y7683346D01*
X17887336Y7650601D01*
X17909393Y7597351D01*
X17929645Y7548458D01*
X18018526Y7432626D01*
X18025076Y7427600D01*
X18025079Y7427597D01*
X18056487Y7403497D01*
X18134357Y7343745D01*
X18269246Y7287872D01*
X18414000Y7268815D01*
X18422188Y7269893D01*
X18429063Y7270798D01*
X18558754Y7287872D01*
X18693643Y7343745D01*
X18771513Y7403497D01*
X18802921Y7427597D01*
X18802924Y7427600D01*
X18809474Y7432626D01*
X18898355Y7548458D01*
X18918608Y7597351D01*
X18940664Y7650601D01*
X18954228Y7683346D01*
X18955424Y7692425D01*
X18970113Y7804000D01*
X19798515Y7804000D01*
X19799593Y7795812D01*
X19816436Y7667878D01*
X19817572Y7659246D01*
X19820731Y7651620D01*
X19867428Y7538885D01*
X19873445Y7524358D01*
X19962326Y7408526D01*
X19968876Y7403500D01*
X19968879Y7403497D01*
X20071604Y7324673D01*
X20078157Y7319645D01*
X20213046Y7263772D01*
X20357800Y7244715D01*
X20365988Y7245793D01*
X20494366Y7262694D01*
X20502554Y7263772D01*
X20511554Y7267500D01*
X25354015Y7267500D01*
X25355093Y7259312D01*
X25367914Y7161928D01*
X25373072Y7122746D01*
X25428945Y6987858D01*
X25517826Y6872026D01*
X25524376Y6867000D01*
X25524379Y6866997D01*
X25576043Y6827354D01*
X25633657Y6783145D01*
X25768546Y6727272D01*
X25913300Y6708215D01*
X25921488Y6709293D01*
X26049866Y6726194D01*
X26058054Y6727272D01*
X26192943Y6783145D01*
X26250557Y6827354D01*
X26302221Y6866997D01*
X26302224Y6867000D01*
X26308774Y6872026D01*
X26381858Y6967270D01*
X26439195Y7009137D01*
X26510066Y7013359D01*
X26571969Y6978595D01*
X26598229Y6938784D01*
X26623168Y6878577D01*
X26637807Y6843234D01*
X26768409Y6630111D01*
X26930743Y6440043D01*
X27120811Y6277709D01*
X27333934Y6147107D01*
X27338504Y6145214D01*
X27338508Y6145212D01*
X27560295Y6053345D01*
X27560301Y6053343D01*
X27564864Y6051453D01*
X27569664Y6050301D01*
X27569669Y6050299D01*
X27645007Y6032212D01*
X27807914Y5993101D01*
X28057100Y5973490D01*
X28306286Y5993101D01*
X28469193Y6032212D01*
X28544531Y6050299D01*
X28544536Y6050301D01*
X28549336Y6051453D01*
X28553899Y6053343D01*
X28553905Y6053345D01*
X28775692Y6145212D01*
X28775696Y6145214D01*
X28780266Y6147107D01*
X28993389Y6277709D01*
X29183457Y6440043D01*
X29345791Y6630111D01*
X29476393Y6843234D01*
X29490906Y6878271D01*
X29570155Y7069595D01*
X29570157Y7069601D01*
X29572047Y7074164D01*
X29594325Y7166955D01*
X29606980Y7219669D01*
X29630399Y7317214D01*
X29650010Y7566400D01*
X31563990Y7566400D01*
X31583601Y7317214D01*
X31607020Y7219669D01*
X31619676Y7166955D01*
X31641953Y7074164D01*
X31643843Y7069601D01*
X31643845Y7069595D01*
X31723094Y6878271D01*
X31737607Y6843234D01*
X31868209Y6630111D01*
X32030543Y6440043D01*
X32220611Y6277709D01*
X32433734Y6147107D01*
X32438304Y6145214D01*
X32438308Y6145212D01*
X32660095Y6053345D01*
X32660101Y6053343D01*
X32664664Y6051453D01*
X32669464Y6050301D01*
X32669469Y6050299D01*
X32744807Y6032212D01*
X32907714Y5993101D01*
X33156900Y5973490D01*
X33406086Y5993101D01*
X33568993Y6032212D01*
X33644331Y6050299D01*
X33644336Y6050301D01*
X33649136Y6051453D01*
X33653699Y6053343D01*
X33653705Y6053345D01*
X33875492Y6145212D01*
X33875496Y6145214D01*
X33880066Y6147107D01*
X34093189Y6277709D01*
X34283257Y6440043D01*
X34445591Y6630111D01*
X34576193Y6843234D01*
X34590706Y6878271D01*
X34669955Y7069595D01*
X34669957Y7069601D01*
X34671847Y7074164D01*
X34694125Y7166955D01*
X34706780Y7219669D01*
X34730199Y7317214D01*
X34749810Y7566400D01*
X34730199Y7815586D01*
X34690611Y7980480D01*
X34673001Y8053831D01*
X34672999Y8053836D01*
X34671847Y8058636D01*
X34669957Y8063199D01*
X34669955Y8063205D01*
X34578088Y8284992D01*
X34578086Y8284996D01*
X34576193Y8289566D01*
X34445591Y8502689D01*
X34283257Y8692757D01*
X34093189Y8855091D01*
X33880066Y8985693D01*
X33875496Y8987586D01*
X33875492Y8987588D01*
X33653705Y9079455D01*
X33653699Y9079457D01*
X33649136Y9081347D01*
X33644336Y9082499D01*
X33644331Y9082501D01*
X33533068Y9109213D01*
X33406086Y9139699D01*
X33156900Y9159310D01*
X32907714Y9139699D01*
X32780732Y9109213D01*
X32669469Y9082501D01*
X32669464Y9082499D01*
X32664664Y9081347D01*
X32660101Y9079457D01*
X32660095Y9079455D01*
X32438308Y8987588D01*
X32438304Y8987586D01*
X32433734Y8985693D01*
X32220611Y8855091D01*
X32030543Y8692757D01*
X31868209Y8502689D01*
X31737607Y8289566D01*
X31735714Y8284996D01*
X31735712Y8284992D01*
X31643845Y8063205D01*
X31643843Y8063199D01*
X31641953Y8058636D01*
X31640801Y8053836D01*
X31640799Y8053831D01*
X31623189Y7980480D01*
X31583601Y7815586D01*
X31563990Y7566400D01*
X29650010Y7566400D01*
X29630399Y7815586D01*
X29590811Y7980480D01*
X29573201Y8053831D01*
X29573199Y8053836D01*
X29572047Y8058636D01*
X29570157Y8063199D01*
X29570155Y8063205D01*
X29478288Y8284992D01*
X29478286Y8284996D01*
X29476393Y8289566D01*
X29345791Y8502689D01*
X29183457Y8692757D01*
X28993389Y8855091D01*
X28780266Y8985693D01*
X28775696Y8987586D01*
X28775692Y8987588D01*
X28553905Y9079455D01*
X28553899Y9079457D01*
X28549336Y9081347D01*
X28544536Y9082499D01*
X28544531Y9082501D01*
X28433268Y9109213D01*
X28306286Y9139699D01*
X28057100Y9159310D01*
X27807914Y9139699D01*
X27680932Y9109213D01*
X27569669Y9082501D01*
X27569664Y9082499D01*
X27564864Y9081347D01*
X27560301Y9079457D01*
X27560295Y9079455D01*
X27338508Y8987588D01*
X27338504Y8987586D01*
X27333934Y8985693D01*
X27120811Y8855091D01*
X26930743Y8692757D01*
X26768409Y8502689D01*
X26637807Y8289566D01*
X26635914Y8284996D01*
X26635912Y8284992D01*
X26544045Y8063205D01*
X26544043Y8063199D01*
X26542153Y8058636D01*
X26541001Y8053836D01*
X26540999Y8053831D01*
X26523389Y7980480D01*
X26483801Y7815586D01*
X26483183Y7807728D01*
X26480714Y7776360D01*
X26455429Y7710018D01*
X26398291Y7667878D01*
X26327441Y7663319D01*
X26278398Y7686283D01*
X26245317Y7711667D01*
X26192943Y7751855D01*
X26058054Y7807728D01*
X25913300Y7826785D01*
X25905112Y7825707D01*
X25776732Y7808806D01*
X25776730Y7808805D01*
X25768546Y7807728D01*
X25759546Y7804000D01*
X25641286Y7755015D01*
X25641284Y7755014D01*
X25633658Y7751855D01*
X25517826Y7662974D01*
X25428945Y7547142D01*
X25425786Y7539516D01*
X25425785Y7539514D01*
X25416794Y7517807D01*
X25373072Y7412254D01*
X25354015Y7267500D01*
X20511554Y7267500D01*
X20637443Y7319645D01*
X20643996Y7324673D01*
X20746721Y7403497D01*
X20746724Y7403500D01*
X20753274Y7408526D01*
X20842155Y7524358D01*
X20848173Y7538885D01*
X20894869Y7651620D01*
X20898028Y7659246D01*
X20899165Y7667878D01*
X20916007Y7795812D01*
X20917085Y7804000D01*
X20906245Y7886339D01*
X20899106Y7940568D01*
X20899105Y7940570D01*
X20898028Y7948754D01*
X20865866Y8026400D01*
X22872715Y8026400D01*
X22873793Y8018212D01*
X22890511Y7891226D01*
X22891772Y7881646D01*
X22894931Y7874020D01*
X22944225Y7755015D01*
X22947645Y7746758D01*
X22972015Y7714998D01*
X23016958Y7656428D01*
X23036526Y7630926D01*
X23043076Y7625900D01*
X23043079Y7625897D01*
X23145804Y7547073D01*
X23152357Y7542045D01*
X23287246Y7486172D01*
X23432000Y7467115D01*
X23440188Y7468193D01*
X23568566Y7485094D01*
X23576754Y7486172D01*
X23711643Y7542045D01*
X23718196Y7547073D01*
X23820921Y7625897D01*
X23820924Y7625900D01*
X23827474Y7630926D01*
X23847043Y7656428D01*
X23891985Y7714998D01*
X23916355Y7746758D01*
X23919776Y7755015D01*
X23969069Y7874020D01*
X23972228Y7881646D01*
X23973490Y7891226D01*
X23990207Y8018212D01*
X23991285Y8026400D01*
X23982887Y8090193D01*
X23973306Y8162968D01*
X23973305Y8162970D01*
X23972228Y8171154D01*
X23925764Y8283328D01*
X23919515Y8298414D01*
X23919514Y8298416D01*
X23916355Y8306042D01*
X23827474Y8421874D01*
X23820924Y8426900D01*
X23820921Y8426903D01*
X23718196Y8505727D01*
X23718194Y8505728D01*
X23711643Y8510755D01*
X23576754Y8566628D01*
X23432000Y8585685D01*
X23423812Y8584607D01*
X23295432Y8567706D01*
X23295430Y8567705D01*
X23287246Y8566628D01*
X23239430Y8546822D01*
X23159986Y8513915D01*
X23159984Y8513914D01*
X23152358Y8510755D01*
X23036526Y8421874D01*
X22947645Y8306042D01*
X22944486Y8298416D01*
X22944485Y8298414D01*
X22938236Y8283328D01*
X22891772Y8171154D01*
X22890695Y8162970D01*
X22890694Y8162968D01*
X22881113Y8090193D01*
X22872715Y8026400D01*
X20865866Y8026400D01*
X20852513Y8058636D01*
X20845315Y8076014D01*
X20845314Y8076016D01*
X20842155Y8083642D01*
X20753274Y8199474D01*
X20746724Y8204500D01*
X20746721Y8204503D01*
X20643996Y8283327D01*
X20643994Y8283328D01*
X20637443Y8288355D01*
X20502554Y8344228D01*
X20357800Y8363285D01*
X20349612Y8362207D01*
X20221232Y8345306D01*
X20221230Y8345305D01*
X20213046Y8344228D01*
X20165230Y8324422D01*
X20085786Y8291515D01*
X20085784Y8291514D01*
X20078158Y8288355D01*
X19962326Y8199474D01*
X19873445Y8083642D01*
X19870286Y8076016D01*
X19870285Y8076014D01*
X19863087Y8058636D01*
X19817572Y7948754D01*
X19816495Y7940570D01*
X19816494Y7940568D01*
X19809355Y7886339D01*
X19798515Y7804000D01*
X18970113Y7804000D01*
X18971288Y7812928D01*
X18973285Y7828100D01*
X18965158Y7889832D01*
X18955306Y7964668D01*
X18955305Y7964670D01*
X18954228Y7972854D01*
X18916803Y8063205D01*
X18901515Y8100114D01*
X18901514Y8100116D01*
X18898355Y8107742D01*
X18832993Y8192923D01*
X18814501Y8217023D01*
X18814500Y8217024D01*
X18809474Y8223574D01*
X18802924Y8228600D01*
X18802921Y8228603D01*
X18700196Y8307427D01*
X18700194Y8307428D01*
X18693643Y8312455D01*
X18558754Y8368328D01*
X18414000Y8387385D01*
X18405812Y8386307D01*
X18277432Y8369406D01*
X18277430Y8369405D01*
X18269246Y8368328D01*
X18254469Y8362207D01*
X18141986Y8315615D01*
X18141984Y8315614D01*
X18134358Y8312455D01*
X18018526Y8223574D01*
X18013503Y8217028D01*
X17995007Y8192923D01*
X17929645Y8107742D01*
X17926486Y8100116D01*
X17926485Y8100114D01*
X17911197Y8063205D01*
X17873772Y7972854D01*
X17872695Y7964670D01*
X17872694Y7964668D01*
X17862842Y7889832D01*
X17854715Y7828100D01*
X8540805Y7828100D01*
X8533446Y7912216D01*
X8489556Y8076014D01*
X8479188Y8114710D01*
X8479187Y8114712D01*
X8477765Y8120020D01*
X8443770Y8192923D01*
X8389171Y8310011D01*
X8389168Y8310016D01*
X8386845Y8314998D01*
X8375834Y8330723D01*
X8266608Y8486715D01*
X8266606Y8486718D01*
X8263449Y8491226D01*
X8111326Y8643349D01*
X8106818Y8646506D01*
X8106815Y8646508D01*
X7939607Y8763588D01*
X7939605Y8763589D01*
X7935098Y8766745D01*
X7930116Y8769068D01*
X7930111Y8769071D01*
X7824850Y8818155D01*
X7771565Y8865073D01*
X7752100Y8932350D01*
X7752100Y9261500D01*
X12780615Y9261500D01*
X12799672Y9116746D01*
X12855545Y8981858D01*
X12944426Y8866026D01*
X12950976Y8861000D01*
X12950979Y8860997D01*
X13006812Y8818155D01*
X13060257Y8777145D01*
X13195146Y8721272D01*
X13339900Y8702215D01*
X13348088Y8703293D01*
X13476466Y8720194D01*
X13484654Y8721272D01*
X13619543Y8777145D01*
X13672988Y8818155D01*
X13728821Y8860997D01*
X13728824Y8861000D01*
X13735374Y8866026D01*
X13824255Y8981858D01*
X13880128Y9116746D01*
X13899185Y9261500D01*
X13883581Y9380026D01*
X13881206Y9398068D01*
X13881205Y9398070D01*
X13880128Y9406254D01*
X13856604Y9463045D01*
X13827415Y9533514D01*
X13827414Y9533516D01*
X13824255Y9541142D01*
X13761351Y9623120D01*
X13740401Y9650423D01*
X13740400Y9650424D01*
X13735374Y9656974D01*
X13728824Y9662000D01*
X13728821Y9662003D01*
X13626096Y9740827D01*
X13626094Y9740828D01*
X13619543Y9745855D01*
X13547974Y9775500D01*
X19941715Y9775500D01*
X19942793Y9767312D01*
X19959631Y9639415D01*
X19960772Y9630746D01*
X19963931Y9623120D01*
X19997888Y9541142D01*
X20016645Y9495858D01*
X20021672Y9489307D01*
X20085401Y9406254D01*
X20105526Y9380026D01*
X20112076Y9375000D01*
X20112079Y9374997D01*
X20214804Y9296173D01*
X20221357Y9291145D01*
X20356246Y9235272D01*
X20501000Y9216215D01*
X20509188Y9217293D01*
X20545307Y9222048D01*
X20645754Y9235272D01*
X20780643Y9291145D01*
X20787196Y9296173D01*
X20889921Y9374997D01*
X20889924Y9375000D01*
X20896474Y9380026D01*
X20916600Y9406254D01*
X20980328Y9489307D01*
X20985355Y9495858D01*
X21004113Y9541142D01*
X21038069Y9623120D01*
X21041228Y9630746D01*
X21042370Y9639415D01*
X21059207Y9767312D01*
X21060285Y9775500D01*
X21041228Y9920254D01*
X21021422Y9968070D01*
X20988515Y10047514D01*
X20988514Y10047516D01*
X20985355Y10055142D01*
X20896474Y10170974D01*
X20889924Y10176000D01*
X20889921Y10176003D01*
X20860342Y10198700D01*
X31952715Y10198700D01*
X31953793Y10190512D01*
X31970379Y10064530D01*
X31971772Y10053946D01*
X31974931Y10046320D01*
X32023991Y9927880D01*
X32027645Y9919058D01*
X32032672Y9912507D01*
X32110690Y9810832D01*
X32116526Y9803226D01*
X32123076Y9798200D01*
X32123079Y9798197D01*
X32197845Y9740827D01*
X32232357Y9714345D01*
X32367246Y9658472D01*
X32375434Y9657394D01*
X32428347Y9650428D01*
X32512000Y9639415D01*
X32520188Y9640493D01*
X32648566Y9657394D01*
X32656754Y9658472D01*
X32791643Y9714345D01*
X32826155Y9740827D01*
X32900921Y9798197D01*
X32900924Y9798200D01*
X32907474Y9803226D01*
X32913311Y9810832D01*
X32991328Y9912507D01*
X32996355Y9919058D01*
X33000010Y9927880D01*
X33049069Y10046320D01*
X33052228Y10053946D01*
X33053622Y10064530D01*
X33070207Y10190512D01*
X33071285Y10198700D01*
X33055736Y10316806D01*
X33053306Y10335268D01*
X33053305Y10335270D01*
X33052228Y10343454D01*
X33018867Y10423994D01*
X32999515Y10470714D01*
X32999514Y10470716D01*
X32996355Y10478342D01*
X32907474Y10594174D01*
X32900924Y10599200D01*
X32900921Y10599203D01*
X32798196Y10678027D01*
X32798194Y10678028D01*
X32791643Y10683055D01*
X32656754Y10738928D01*
X32512000Y10757985D01*
X32503812Y10756907D01*
X32375432Y10740006D01*
X32375430Y10740005D01*
X32367246Y10738928D01*
X32349521Y10731586D01*
X32239986Y10686215D01*
X32239984Y10686214D01*
X32232358Y10683055D01*
X32116526Y10594174D01*
X32027645Y10478342D01*
X32024486Y10470716D01*
X32024485Y10470714D01*
X32005133Y10423994D01*
X31971772Y10343454D01*
X31970695Y10335270D01*
X31970694Y10335268D01*
X31968264Y10316806D01*
X31952715Y10198700D01*
X20860342Y10198700D01*
X20787196Y10254827D01*
X20787194Y10254828D01*
X20780643Y10259855D01*
X20645754Y10315728D01*
X20501000Y10334785D01*
X20492812Y10333707D01*
X20364432Y10316806D01*
X20364430Y10316805D01*
X20356246Y10315728D01*
X20310273Y10296685D01*
X20228986Y10263015D01*
X20228984Y10263014D01*
X20221358Y10259855D01*
X20105526Y10170974D01*
X20016645Y10055142D01*
X20013486Y10047516D01*
X20013485Y10047514D01*
X19980578Y9968070D01*
X19960772Y9920254D01*
X19941715Y9775500D01*
X13547974Y9775500D01*
X13484654Y9801728D01*
X13473276Y9803226D01*
X13348088Y9819707D01*
X13339900Y9820785D01*
X13331712Y9819707D01*
X13203332Y9802806D01*
X13203330Y9802805D01*
X13195146Y9801728D01*
X13178952Y9795020D01*
X13067886Y9749015D01*
X13067884Y9749014D01*
X13060258Y9745855D01*
X12944426Y9656974D01*
X12939403Y9650428D01*
X12930582Y9638932D01*
X12855545Y9541142D01*
X12852386Y9533516D01*
X12852385Y9533514D01*
X12823196Y9463045D01*
X12799672Y9406254D01*
X12798595Y9398070D01*
X12798594Y9398068D01*
X12796219Y9380026D01*
X12780615Y9261500D01*
X7752100Y9261500D01*
X7752100Y9947400D01*
X9600715Y9947400D01*
X9619772Y9802646D01*
X9626860Y9785534D01*
X9645379Y9740827D01*
X9675645Y9667758D01*
X9683598Y9657394D01*
X9750911Y9569670D01*
X9764526Y9551926D01*
X9771076Y9546900D01*
X9771079Y9546897D01*
X9873804Y9468073D01*
X9880357Y9463045D01*
X10015246Y9407172D01*
X10160000Y9388115D01*
X10168188Y9389193D01*
X10296566Y9406094D01*
X10304754Y9407172D01*
X10439643Y9463045D01*
X10446196Y9468073D01*
X10548921Y9546897D01*
X10548924Y9546900D01*
X10555474Y9551926D01*
X10569090Y9569670D01*
X10636402Y9657394D01*
X10644355Y9667758D01*
X10674622Y9740827D01*
X10693140Y9785534D01*
X10700228Y9802646D01*
X10719285Y9947400D01*
X10704238Y10061693D01*
X10701306Y10083968D01*
X10701305Y10083970D01*
X10700228Y10092154D01*
X10665496Y10176003D01*
X10647515Y10219414D01*
X10647514Y10219416D01*
X10644355Y10227042D01*
X10561681Y10334785D01*
X10560501Y10336323D01*
X10560500Y10336324D01*
X10555474Y10342874D01*
X10548924Y10347900D01*
X10548921Y10347903D01*
X10446196Y10426727D01*
X10446194Y10426728D01*
X10439643Y10431755D01*
X10304754Y10487628D01*
X10160000Y10506685D01*
X10151812Y10505607D01*
X10023432Y10488706D01*
X10023430Y10488705D01*
X10015246Y10487628D01*
X9999112Y10480945D01*
X9887986Y10434915D01*
X9887984Y10434914D01*
X9880358Y10431755D01*
X9764526Y10342874D01*
X9675645Y10227042D01*
X9672486Y10219416D01*
X9672485Y10219414D01*
X9654504Y10176003D01*
X9619772Y10092154D01*
X9618695Y10083970D01*
X9618694Y10083968D01*
X9615762Y10061693D01*
X9600715Y9947400D01*
X7752100Y9947400D01*
X7752100Y10784200D01*
X22734515Y10784200D01*
X22735593Y10776012D01*
X22749734Y10668602D01*
X22753572Y10639446D01*
X22763832Y10614677D01*
X22801279Y10524273D01*
X22809445Y10504558D01*
X22840991Y10463447D01*
X22885060Y10406015D01*
X22898326Y10388726D01*
X22904876Y10383700D01*
X22904879Y10383697D01*
X22997576Y10312568D01*
X23014157Y10299845D01*
X23149046Y10243972D01*
X23293800Y10224915D01*
X23301988Y10225993D01*
X23430366Y10242894D01*
X23438554Y10243972D01*
X23573443Y10299845D01*
X23590024Y10312568D01*
X23682721Y10383697D01*
X23682724Y10383700D01*
X23689274Y10388726D01*
X23702541Y10406015D01*
X23746609Y10463447D01*
X23778155Y10504558D01*
X23786322Y10524273D01*
X23823768Y10614677D01*
X23834028Y10639446D01*
X23837867Y10668602D01*
X23852007Y10776012D01*
X23853085Y10784200D01*
X23834028Y10928954D01*
X23778155Y11063842D01*
X23713307Y11148354D01*
X23694301Y11173123D01*
X23694300Y11173124D01*
X23689274Y11179674D01*
X23682724Y11184700D01*
X23682721Y11184703D01*
X23579996Y11263527D01*
X23579994Y11263528D01*
X23573443Y11268555D01*
X23438554Y11324428D01*
X23293800Y11343485D01*
X23285612Y11342407D01*
X23157232Y11325506D01*
X23157230Y11325505D01*
X23149046Y11324428D01*
X23105122Y11306234D01*
X23021786Y11271715D01*
X23021784Y11271714D01*
X23014158Y11268555D01*
X22898326Y11179674D01*
X22809445Y11063842D01*
X22753572Y10928954D01*
X22734515Y10784200D01*
X7752100Y10784200D01*
X7752100Y11745700D01*
X16402915Y11745700D01*
X16403993Y11737512D01*
X16417293Y11636490D01*
X16421972Y11600946D01*
X16435252Y11568885D01*
X16470858Y11482927D01*
X16477845Y11466058D01*
X16566726Y11350226D01*
X16573276Y11345200D01*
X16573279Y11345197D01*
X16676004Y11266373D01*
X16682557Y11261345D01*
X16817446Y11205472D01*
X16962200Y11186415D01*
X16970388Y11187493D01*
X17098766Y11204394D01*
X17106954Y11205472D01*
X17241843Y11261345D01*
X17248396Y11266373D01*
X17351121Y11345197D01*
X17351124Y11345200D01*
X17357674Y11350226D01*
X17446555Y11466058D01*
X17453543Y11482927D01*
X17489148Y11568885D01*
X17502428Y11600946D01*
X17507108Y11636490D01*
X17520407Y11737512D01*
X17521485Y11745700D01*
X17514309Y11800210D01*
X17503506Y11882268D01*
X17503505Y11882270D01*
X17502428Y11890454D01*
X17477040Y11951745D01*
X17449715Y12017714D01*
X17449714Y12017716D01*
X17446555Y12025342D01*
X17402115Y12083258D01*
X17362701Y12134623D01*
X17362700Y12134624D01*
X17357674Y12141174D01*
X17351124Y12146200D01*
X17351121Y12146203D01*
X17248396Y12225027D01*
X17248394Y12225028D01*
X17241843Y12230055D01*
X17106954Y12285928D01*
X17074528Y12290197D01*
X16986567Y12301777D01*
X16962200Y12304985D01*
X16938455Y12301859D01*
X16825632Y12287006D01*
X16825630Y12287005D01*
X16817446Y12285928D01*
X16769630Y12266122D01*
X16690186Y12233215D01*
X16690184Y12233214D01*
X16682558Y12230055D01*
X16620234Y12182232D01*
X16577439Y12149394D01*
X16566726Y12141174D01*
X16477845Y12025342D01*
X16474686Y12017716D01*
X16474685Y12017714D01*
X16447360Y11951745D01*
X16421972Y11890454D01*
X16420895Y11882270D01*
X16420894Y11882268D01*
X16410091Y11800210D01*
X16402915Y11745700D01*
X7752100Y11745700D01*
X7752100Y12719300D01*
X21789515Y12719300D01*
X21790593Y12711112D01*
X21806738Y12588480D01*
X21808572Y12574546D01*
X21864445Y12439658D01*
X21953326Y12323826D01*
X21959876Y12318800D01*
X21959879Y12318797D01*
X22006833Y12282768D01*
X22069157Y12234945D01*
X22204046Y12179072D01*
X22348800Y12160015D01*
X22356988Y12161093D01*
X22379723Y12164086D01*
X22493554Y12179072D01*
X22628443Y12234945D01*
X22690767Y12282768D01*
X22737721Y12318797D01*
X22737724Y12318800D01*
X22744274Y12323826D01*
X22833155Y12439658D01*
X22889028Y12574546D01*
X22890863Y12588480D01*
X22904320Y12690700D01*
X23946215Y12690700D01*
X23947293Y12682512D01*
X23962511Y12566920D01*
X23965272Y12545946D01*
X23975516Y12521215D01*
X24014164Y12427912D01*
X24021145Y12411058D01*
X24026172Y12404507D01*
X24102538Y12304985D01*
X24110026Y12295226D01*
X24116576Y12290200D01*
X24116579Y12290197D01*
X24201509Y12225028D01*
X24225857Y12206345D01*
X24360746Y12150472D01*
X24368934Y12149394D01*
X24393218Y12146197D01*
X24505500Y12131415D01*
X24513688Y12132493D01*
X24526389Y12134165D01*
X24617782Y12146197D01*
X24642066Y12149394D01*
X24647428Y12150100D01*
X28999615Y12150100D01*
X29000693Y12141912D01*
X29017044Y12017714D01*
X29018672Y12005346D01*
X29021831Y11997720D01*
X29064465Y11894794D01*
X29074545Y11870458D01*
X29163426Y11754626D01*
X29169976Y11749600D01*
X29169979Y11749597D01*
X29247187Y11690353D01*
X29279257Y11665745D01*
X29414146Y11609872D01*
X29422334Y11608794D01*
X29486523Y11600344D01*
X29558900Y11590815D01*
X29567088Y11591893D01*
X29577928Y11593320D01*
X29631277Y11600344D01*
X29695466Y11608794D01*
X29703654Y11609872D01*
X29838543Y11665745D01*
X29870613Y11690353D01*
X29947821Y11749597D01*
X29947824Y11749600D01*
X29954374Y11754626D01*
X30043255Y11870458D01*
X30053336Y11894794D01*
X30095969Y11997720D01*
X30099128Y12005346D01*
X30100757Y12017714D01*
X30117107Y12141912D01*
X30118185Y12150100D01*
X30099128Y12294854D01*
X30053708Y12404507D01*
X30046415Y12422114D01*
X30046414Y12422116D01*
X30043255Y12429742D01*
X29954374Y12545574D01*
X29947824Y12550600D01*
X29947821Y12550603D01*
X29845096Y12629427D01*
X29845094Y12629428D01*
X29838543Y12634455D01*
X29703654Y12690328D01*
X29558900Y12709385D01*
X29550712Y12708307D01*
X29422332Y12691406D01*
X29422330Y12691405D01*
X29414146Y12690328D01*
X29401346Y12685026D01*
X29286886Y12637615D01*
X29286884Y12637614D01*
X29279258Y12634455D01*
X29163426Y12545574D01*
X29074545Y12429742D01*
X29071386Y12422116D01*
X29071385Y12422114D01*
X29064092Y12404507D01*
X29018672Y12294854D01*
X28999615Y12150100D01*
X24647428Y12150100D01*
X24650254Y12150472D01*
X24785143Y12206345D01*
X24809491Y12225028D01*
X24894421Y12290197D01*
X24894424Y12290200D01*
X24900974Y12295226D01*
X24908463Y12304985D01*
X24984828Y12404507D01*
X24989855Y12411058D01*
X24996837Y12427912D01*
X25035484Y12521215D01*
X25045728Y12545946D01*
X25048490Y12566920D01*
X25063707Y12682512D01*
X25064785Y12690700D01*
X25050283Y12800858D01*
X25046806Y12827268D01*
X25046805Y12827270D01*
X25045728Y12835454D01*
X25007344Y12928120D01*
X24993015Y12962714D01*
X24993014Y12962716D01*
X24989855Y12970342D01*
X24905328Y13080500D01*
X27098715Y13080500D01*
X27099793Y13072312D01*
X27114222Y12962714D01*
X27117772Y12935746D01*
X27128319Y12910284D01*
X27162706Y12827268D01*
X27173645Y12800858D01*
X27178672Y12794307D01*
X27242510Y12711112D01*
X27262526Y12685026D01*
X27269076Y12680000D01*
X27269079Y12679997D01*
X27334982Y12629428D01*
X27378357Y12596145D01*
X27513246Y12540272D01*
X27658000Y12521215D01*
X27666188Y12522293D01*
X27794566Y12539194D01*
X27802754Y12540272D01*
X27937643Y12596145D01*
X27981018Y12629428D01*
X28046921Y12679997D01*
X28046924Y12680000D01*
X28053474Y12685026D01*
X28073491Y12711112D01*
X28137328Y12794307D01*
X28142355Y12800858D01*
X28153295Y12827268D01*
X28187681Y12910284D01*
X28198228Y12935746D01*
X28201779Y12962714D01*
X28216207Y13072312D01*
X28217285Y13080500D01*
X28212111Y13119803D01*
X28199306Y13217068D01*
X28199305Y13217070D01*
X28198228Y13225254D01*
X28142355Y13360142D01*
X28053474Y13475974D01*
X28046924Y13481000D01*
X28046921Y13481003D01*
X27944196Y13559827D01*
X27944194Y13559828D01*
X27937643Y13564855D01*
X27802754Y13620728D01*
X27658000Y13639785D01*
X27649812Y13638707D01*
X27521432Y13621806D01*
X27521430Y13621805D01*
X27513246Y13620728D01*
X27465430Y13600922D01*
X27385986Y13568015D01*
X27385984Y13568014D01*
X27378358Y13564855D01*
X27262526Y13475974D01*
X27173645Y13360142D01*
X27117772Y13225254D01*
X27116695Y13217070D01*
X27116694Y13217068D01*
X27103889Y13119803D01*
X27098715Y13080500D01*
X24905328Y13080500D01*
X24900974Y13086174D01*
X24894424Y13091200D01*
X24894421Y13091203D01*
X24791696Y13170027D01*
X24791694Y13170028D01*
X24785143Y13175055D01*
X24650254Y13230928D01*
X24505500Y13249985D01*
X24497312Y13248907D01*
X24368932Y13232006D01*
X24368930Y13232005D01*
X24360746Y13230928D01*
X24347048Y13225254D01*
X24233486Y13178215D01*
X24233484Y13178214D01*
X24225858Y13175055D01*
X24110026Y13086174D01*
X24021145Y12970342D01*
X24017986Y12962716D01*
X24017985Y12962714D01*
X24003656Y12928120D01*
X23965272Y12835454D01*
X23964195Y12827270D01*
X23964194Y12827268D01*
X23960717Y12800858D01*
X23946215Y12690700D01*
X22904320Y12690700D01*
X22907007Y12711112D01*
X22908085Y12719300D01*
X22892643Y12836597D01*
X22890106Y12855868D01*
X22890105Y12855870D01*
X22889028Y12864054D01*
X22855941Y12943932D01*
X22836315Y12991314D01*
X22836314Y12991316D01*
X22833155Y12998942D01*
X22771246Y13079623D01*
X22749301Y13108223D01*
X22749300Y13108224D01*
X22744274Y13114774D01*
X22737724Y13119800D01*
X22737721Y13119803D01*
X22634996Y13198627D01*
X22634994Y13198628D01*
X22628443Y13203655D01*
X22493554Y13259528D01*
X22348800Y13278585D01*
X22340612Y13277507D01*
X22212232Y13260606D01*
X22212230Y13260605D01*
X22204046Y13259528D01*
X22178622Y13248997D01*
X22076786Y13206815D01*
X22076784Y13206814D01*
X22069158Y13203655D01*
X21953326Y13114774D01*
X21948303Y13108228D01*
X21931380Y13086174D01*
X21864445Y12998942D01*
X21861286Y12991316D01*
X21861285Y12991314D01*
X21841659Y12943932D01*
X21808572Y12864054D01*
X21807495Y12855870D01*
X21807494Y12855868D01*
X21804957Y12836597D01*
X21789515Y12719300D01*
X7752100Y12719300D01*
X7752100Y13649500D01*
X12552715Y13649500D01*
X12553793Y13641312D01*
X12564521Y13559827D01*
X12571772Y13504746D01*
X12627645Y13369858D01*
X12716526Y13254026D01*
X12723076Y13249000D01*
X12723079Y13248997D01*
X12815324Y13178215D01*
X12832357Y13165145D01*
X12967246Y13109272D01*
X13112000Y13090215D01*
X13120188Y13091293D01*
X13248566Y13108194D01*
X13256754Y13109272D01*
X13391643Y13165145D01*
X13408676Y13178215D01*
X13500921Y13248997D01*
X13500924Y13249000D01*
X13507474Y13254026D01*
X13596355Y13369858D01*
X13652228Y13504746D01*
X13659480Y13559827D01*
X13670207Y13641312D01*
X13671285Y13649500D01*
X13652228Y13794254D01*
X13596355Y13929142D01*
X13507474Y14044974D01*
X13500924Y14050000D01*
X13500921Y14050003D01*
X13398196Y14128827D01*
X13398194Y14128828D01*
X13391643Y14133855D01*
X13256754Y14189728D01*
X13112000Y14208785D01*
X13103812Y14207707D01*
X12975432Y14190806D01*
X12975430Y14190805D01*
X12967246Y14189728D01*
X12919430Y14169922D01*
X12839986Y14137015D01*
X12839984Y14137014D01*
X12832358Y14133855D01*
X12716526Y14044974D01*
X12627645Y13929142D01*
X12571772Y13794254D01*
X12552715Y13649500D01*
X7752100Y13649500D01*
X7752100Y14912400D01*
X9063515Y14912400D01*
X9064593Y14904212D01*
X9080724Y14781686D01*
X9082572Y14767646D01*
X9085731Y14760020D01*
X9127896Y14658226D01*
X9138445Y14632758D01*
X9227326Y14516926D01*
X9233876Y14511900D01*
X9233879Y14511897D01*
X9336604Y14433073D01*
X9343157Y14428045D01*
X9478046Y14372172D01*
X9622800Y14353115D01*
X9630988Y14354193D01*
X9759366Y14371094D01*
X9767554Y14372172D01*
X9902443Y14428045D01*
X9908996Y14433073D01*
X10011721Y14511897D01*
X10011724Y14511900D01*
X10018274Y14516926D01*
X10107155Y14632758D01*
X10117705Y14658226D01*
X10159869Y14760020D01*
X10163028Y14767646D01*
X10164877Y14781686D01*
X10181007Y14904212D01*
X10182085Y14912400D01*
X10163028Y15057154D01*
X10107155Y15192042D01*
X10102131Y15198590D01*
X10102126Y15198598D01*
X10080910Y15226247D01*
X10055310Y15292468D01*
X10069575Y15362016D01*
X10080910Y15379654D01*
X10102607Y15407930D01*
X10141455Y15458558D01*
X10197328Y15593446D01*
X10205371Y15654535D01*
X10215307Y15730012D01*
X10216385Y15738200D01*
X10207761Y15803707D01*
X10198406Y15874768D01*
X10198405Y15874770D01*
X10197328Y15882954D01*
X10156117Y15982445D01*
X10144615Y16010214D01*
X10144614Y16010216D01*
X10141455Y16017842D01*
X10052574Y16133674D01*
X10046024Y16138700D01*
X10046021Y16138703D01*
X9943296Y16217527D01*
X9943294Y16217528D01*
X9936743Y16222555D01*
X9801854Y16278428D01*
X9777206Y16281673D01*
X9665288Y16296407D01*
X9657100Y16297485D01*
X9648912Y16296407D01*
X9520532Y16279506D01*
X9520530Y16279505D01*
X9512346Y16278428D01*
X9500413Y16273485D01*
X9385086Y16225715D01*
X9385084Y16225714D01*
X9377458Y16222555D01*
X9261626Y16133674D01*
X9172745Y16017842D01*
X9169586Y16010216D01*
X9169585Y16010214D01*
X9158083Y15982445D01*
X9116872Y15882954D01*
X9115795Y15874770D01*
X9115794Y15874768D01*
X9106439Y15803707D01*
X9097815Y15738200D01*
X9098893Y15730012D01*
X9108830Y15654535D01*
X9116872Y15593446D01*
X9172745Y15458558D01*
X9177769Y15452010D01*
X9177774Y15452002D01*
X9198990Y15424353D01*
X9224590Y15358132D01*
X9210325Y15288584D01*
X9198990Y15270946D01*
X9138445Y15192042D01*
X9082572Y15057154D01*
X9063515Y14912400D01*
X7752100Y14912400D01*
X7752100Y16761000D01*
X18933715Y16761000D01*
X18934793Y16752812D01*
X18950803Y16631206D01*
X18952772Y16616246D01*
X18970165Y16574255D01*
X19000089Y16502015D01*
X19008645Y16481358D01*
X19013672Y16474807D01*
X19089418Y16376093D01*
X19097526Y16365526D01*
X19104076Y16360500D01*
X19104079Y16360497D01*
X19199462Y16287307D01*
X19213357Y16276645D01*
X19348246Y16220772D01*
X19356434Y16219694D01*
X19420623Y16211244D01*
X19493000Y16201715D01*
X19501188Y16202793D01*
X19629566Y16219694D01*
X19637754Y16220772D01*
X19772643Y16276645D01*
X19786538Y16287307D01*
X19881921Y16360497D01*
X19881924Y16360500D01*
X19888474Y16365526D01*
X19896583Y16376093D01*
X19966184Y16466800D01*
X21114215Y16466800D01*
X21115293Y16458612D01*
X21126157Y16376093D01*
X21133272Y16322046D01*
X21136431Y16314420D01*
X21182669Y16202793D01*
X21189145Y16187158D01*
X21194172Y16180607D01*
X21270057Y16081712D01*
X21278026Y16071326D01*
X21284576Y16066300D01*
X21284579Y16066297D01*
X21387304Y15987473D01*
X21393857Y15982445D01*
X21528746Y15926572D01*
X21673500Y15907515D01*
X21681688Y15908593D01*
X21810066Y15925494D01*
X21818254Y15926572D01*
X21953143Y15982445D01*
X21959696Y15987473D01*
X22062421Y16066297D01*
X22062424Y16066300D01*
X22068974Y16071326D01*
X22076944Y16081712D01*
X22152828Y16180607D01*
X22157855Y16187158D01*
X22164332Y16202793D01*
X22210569Y16314420D01*
X22213728Y16322046D01*
X22220844Y16376093D01*
X22231707Y16458612D01*
X22232785Y16466800D01*
X22228149Y16502015D01*
X22239089Y16572164D01*
X22240028Y16573500D01*
X23245915Y16573500D01*
X23246993Y16565312D01*
X23258379Y16478828D01*
X23264972Y16428746D01*
X23268131Y16421120D01*
X23291460Y16364800D01*
X23320845Y16293858D01*
X23325872Y16287307D01*
X23396866Y16194786D01*
X23409726Y16178026D01*
X23416276Y16173000D01*
X23416279Y16172997D01*
X23513902Y16098088D01*
X23525557Y16089145D01*
X23660446Y16033272D01*
X23805200Y16014215D01*
X23813388Y16015293D01*
X23941766Y16032194D01*
X23949954Y16033272D01*
X24084843Y16089145D01*
X24096498Y16098088D01*
X24194121Y16172997D01*
X24194124Y16173000D01*
X24200674Y16178026D01*
X24213535Y16194786D01*
X24284528Y16287307D01*
X24289555Y16293858D01*
X24318941Y16364800D01*
X24342269Y16421120D01*
X24345428Y16428746D01*
X24352022Y16478828D01*
X24363407Y16565312D01*
X24364485Y16573500D01*
X24360553Y16603368D01*
X24346506Y16710068D01*
X24346505Y16710070D01*
X24345428Y16718254D01*
X24289555Y16853142D01*
X24243333Y16913380D01*
X24205701Y16962423D01*
X24205700Y16962424D01*
X24200674Y16968974D01*
X24194124Y16974000D01*
X24194121Y16974003D01*
X24091396Y17052827D01*
X24091394Y17052828D01*
X24084843Y17057855D01*
X23949954Y17113728D01*
X23805200Y17132785D01*
X23797012Y17131707D01*
X23668632Y17114806D01*
X23668630Y17114805D01*
X23660446Y17113728D01*
X23612630Y17093922D01*
X23533186Y17061015D01*
X23533184Y17061014D01*
X23525558Y17057855D01*
X23409726Y16968974D01*
X23320845Y16853142D01*
X23264972Y16718254D01*
X23263895Y16710070D01*
X23263894Y16710068D01*
X23249847Y16603368D01*
X23245915Y16573500D01*
X22240028Y16573500D01*
X22263976Y16607556D01*
X23579151Y17922731D01*
X23587255Y17930157D01*
X23606913Y17946652D01*
X23615360Y17953740D01*
X23620871Y17963285D01*
X23620874Y17963289D01*
X23633703Y17985510D01*
X23639608Y17994780D01*
X23654329Y18015804D01*
X23660652Y18024834D01*
X23663506Y18035486D01*
X23664840Y18038347D01*
X23665919Y18041313D01*
X23671432Y18050860D01*
X23673346Y18061716D01*
X23673348Y18061721D01*
X23677804Y18086990D01*
X23680182Y18097719D01*
X23686823Y18122506D01*
X23689677Y18133157D01*
X23686479Y18169710D01*
X23686000Y18180692D01*
X23686000Y18225300D01*
X24454215Y18225300D01*
X24473272Y18080546D01*
X24487780Y18045520D01*
X24512638Y17985510D01*
X24529145Y17945658D01*
X24618026Y17829826D01*
X24624576Y17824800D01*
X24624579Y17824797D01*
X24727304Y17745973D01*
X24733857Y17740945D01*
X24868746Y17685072D01*
X25013500Y17666015D01*
X25021688Y17667093D01*
X25150066Y17683994D01*
X25158254Y17685072D01*
X25293143Y17740945D01*
X25299696Y17745973D01*
X25402421Y17824797D01*
X25402424Y17824800D01*
X25408974Y17829826D01*
X25497855Y17945658D01*
X25514363Y17985510D01*
X25539220Y18045520D01*
X25553728Y18080546D01*
X25572785Y18225300D01*
X25556999Y18345210D01*
X25554806Y18361868D01*
X25554805Y18361870D01*
X25553728Y18370054D01*
X25497855Y18504942D01*
X25429999Y18593374D01*
X25414001Y18614223D01*
X25414000Y18614224D01*
X25408974Y18620774D01*
X25402424Y18625800D01*
X25402421Y18625803D01*
X25299696Y18704627D01*
X25299694Y18704628D01*
X25293143Y18709655D01*
X25158254Y18765528D01*
X25013500Y18784585D01*
X25005312Y18783507D01*
X24876932Y18766606D01*
X24876930Y18766605D01*
X24868746Y18765528D01*
X24846002Y18756107D01*
X24741486Y18712815D01*
X24741484Y18712814D01*
X24733858Y18709655D01*
X24618026Y18620774D01*
X24613003Y18614228D01*
X24597001Y18593374D01*
X24529145Y18504942D01*
X24473272Y18370054D01*
X24472195Y18361870D01*
X24472194Y18361868D01*
X24470001Y18345210D01*
X24454215Y18225300D01*
X23686000Y18225300D01*
X23686000Y20879600D01*
X29806715Y20879600D01*
X29825772Y20734846D01*
X29841852Y20696027D01*
X29852376Y20670620D01*
X29881645Y20599958D01*
X29921630Y20547849D01*
X29956037Y20503009D01*
X29970526Y20484126D01*
X29977076Y20479100D01*
X29977079Y20479097D01*
X30078247Y20401468D01*
X30086357Y20395245D01*
X30221246Y20339372D01*
X30366000Y20320315D01*
X30374188Y20321393D01*
X30502566Y20338294D01*
X30510754Y20339372D01*
X30645643Y20395245D01*
X30653753Y20401468D01*
X30754921Y20479097D01*
X30754924Y20479100D01*
X30761474Y20484126D01*
X30775964Y20503009D01*
X30810370Y20547849D01*
X30850355Y20599958D01*
X30879625Y20670620D01*
X30890148Y20696027D01*
X30906228Y20734846D01*
X30925285Y20879600D01*
X30906228Y21024354D01*
X30881533Y21083972D01*
X30853515Y21151614D01*
X30853514Y21151616D01*
X30850355Y21159242D01*
X30761474Y21275074D01*
X30754924Y21280100D01*
X30754921Y21280103D01*
X30652196Y21358927D01*
X30652194Y21358928D01*
X30645643Y21363955D01*
X30510754Y21419828D01*
X30366000Y21438885D01*
X30357812Y21437807D01*
X30229432Y21420906D01*
X30229430Y21420905D01*
X30221246Y21419828D01*
X30184420Y21404574D01*
X30093986Y21367115D01*
X30093984Y21367114D01*
X30086358Y21363955D01*
X29970526Y21275074D01*
X29881645Y21159242D01*
X29878486Y21151616D01*
X29878485Y21151614D01*
X29850467Y21083972D01*
X29825772Y21024354D01*
X29806715Y20879600D01*
X23686000Y20879600D01*
X23686000Y21780500D01*
X27400715Y21780500D01*
X27401793Y21772312D01*
X27414474Y21675991D01*
X27419772Y21635746D01*
X27475645Y21500858D01*
X27506800Y21460256D01*
X27552517Y21400677D01*
X27564526Y21385026D01*
X27571076Y21380000D01*
X27571079Y21379997D01*
X27673804Y21301173D01*
X27680357Y21296145D01*
X27815246Y21240272D01*
X27960000Y21221215D01*
X27968188Y21222293D01*
X28096566Y21239194D01*
X28104754Y21240272D01*
X28239643Y21296145D01*
X28246196Y21301173D01*
X28348921Y21379997D01*
X28348924Y21380000D01*
X28355474Y21385026D01*
X28367484Y21400677D01*
X28413200Y21460256D01*
X28444355Y21500858D01*
X28500228Y21635746D01*
X28505527Y21675991D01*
X28518207Y21772312D01*
X28519285Y21780500D01*
X28510428Y21847777D01*
X28501306Y21917068D01*
X28501305Y21917070D01*
X28500228Y21925254D01*
X28476954Y21981442D01*
X28447515Y22052514D01*
X28447514Y22052516D01*
X28444355Y22060142D01*
X28355474Y22175974D01*
X28348924Y22181000D01*
X28348921Y22181003D01*
X28246196Y22259827D01*
X28246194Y22259828D01*
X28239643Y22264855D01*
X28104754Y22320728D01*
X27960000Y22339785D01*
X27951812Y22338707D01*
X27823432Y22321806D01*
X27823430Y22321805D01*
X27815246Y22320728D01*
X27806664Y22317173D01*
X27687986Y22268015D01*
X27687984Y22268014D01*
X27680358Y22264855D01*
X27564526Y22175974D01*
X27475645Y22060142D01*
X27472486Y22052516D01*
X27472485Y22052514D01*
X27443046Y21981442D01*
X27419772Y21925254D01*
X27418695Y21917070D01*
X27418694Y21917068D01*
X27409572Y21847777D01*
X27400715Y21780500D01*
X23686000Y21780500D01*
X23686000Y22699942D01*
X23706002Y22768063D01*
X23735293Y22799902D01*
X23763474Y22821526D01*
X23852355Y22937358D01*
X23884126Y23014058D01*
X23905069Y23064620D01*
X23908228Y23072246D01*
X23909604Y23082693D01*
X23926207Y23208812D01*
X23927285Y23217000D01*
X23919540Y23275828D01*
X23917187Y23293700D01*
X25623615Y23293700D01*
X25624693Y23285512D01*
X25634791Y23208812D01*
X25642672Y23148946D01*
X25698545Y23014058D01*
X25787426Y22898226D01*
X25793976Y22893200D01*
X25793979Y22893197D01*
X25896704Y22814373D01*
X25903257Y22809345D01*
X26038146Y22753472D01*
X26182900Y22734415D01*
X26191088Y22735493D01*
X26319466Y22752394D01*
X26327654Y22753472D01*
X26462543Y22809345D01*
X26469096Y22814373D01*
X26571821Y22893197D01*
X26571824Y22893200D01*
X26578374Y22898226D01*
X26667255Y23014058D01*
X26723128Y23148946D01*
X26731010Y23208812D01*
X26741107Y23285512D01*
X26742185Y23293700D01*
X26734694Y23350601D01*
X26724206Y23430268D01*
X26724205Y23430270D01*
X26723128Y23438454D01*
X26702185Y23489014D01*
X26670415Y23565714D01*
X26670414Y23565716D01*
X26667255Y23573342D01*
X26578374Y23689174D01*
X26571824Y23694200D01*
X26571821Y23694203D01*
X26469096Y23773027D01*
X26469094Y23773028D01*
X26462543Y23778055D01*
X26327654Y23833928D01*
X26182900Y23852985D01*
X26174712Y23851907D01*
X26046332Y23835006D01*
X26046330Y23835005D01*
X26038146Y23833928D01*
X25990330Y23814122D01*
X25910886Y23781215D01*
X25910884Y23781214D01*
X25903258Y23778055D01*
X25787426Y23689174D01*
X25698545Y23573342D01*
X25695386Y23565716D01*
X25695385Y23565714D01*
X25663615Y23489014D01*
X25642672Y23438454D01*
X25641595Y23430270D01*
X25641594Y23430268D01*
X25631106Y23350601D01*
X25623615Y23293700D01*
X23917187Y23293700D01*
X23909306Y23353568D01*
X23909305Y23353570D01*
X23908228Y23361754D01*
X23852355Y23496642D01*
X23783217Y23586745D01*
X23768501Y23605923D01*
X23768500Y23605924D01*
X23763474Y23612474D01*
X23756924Y23617500D01*
X23756921Y23617503D01*
X23654196Y23696327D01*
X23654194Y23696328D01*
X23647643Y23701355D01*
X23512754Y23757228D01*
X23368000Y23776285D01*
X23359812Y23775207D01*
X23231432Y23758306D01*
X23231430Y23758305D01*
X23223246Y23757228D01*
X23180331Y23739452D01*
X23095986Y23704515D01*
X23095984Y23704514D01*
X23088358Y23701355D01*
X22972526Y23612474D01*
X22967503Y23605928D01*
X22952783Y23586745D01*
X22883645Y23496642D01*
X22827772Y23361754D01*
X22826695Y23353570D01*
X22826694Y23353568D01*
X22816460Y23275828D01*
X22808715Y23217000D01*
X22809793Y23208812D01*
X22826397Y23082693D01*
X22827772Y23072246D01*
X22830931Y23064620D01*
X22851875Y23014058D01*
X22883645Y22937358D01*
X22972526Y22821526D01*
X23000706Y22799903D01*
X23042572Y22742566D01*
X23050000Y22699942D01*
X23050000Y18345210D01*
X23029998Y18277089D01*
X23013095Y18256115D01*
X21814256Y17057276D01*
X21751944Y17023250D01*
X21708715Y17021449D01*
X21673500Y17026085D01*
X21665312Y17025007D01*
X21536932Y17008106D01*
X21536930Y17008105D01*
X21528746Y17007028D01*
X21521119Y17003869D01*
X21521120Y17003869D01*
X21401486Y16954315D01*
X21401484Y16954314D01*
X21393858Y16951155D01*
X21278026Y16862274D01*
X21189145Y16746442D01*
X21133272Y16611554D01*
X21132195Y16603370D01*
X21132194Y16603368D01*
X21127184Y16565312D01*
X21114215Y16466800D01*
X19966184Y16466800D01*
X19972328Y16474807D01*
X19977355Y16481358D01*
X19985912Y16502015D01*
X20015835Y16574255D01*
X20033228Y16616246D01*
X20035198Y16631206D01*
X20051207Y16752812D01*
X20052285Y16761000D01*
X20041159Y16845514D01*
X20034306Y16897568D01*
X20034305Y16897570D01*
X20033228Y16905754D01*
X19990832Y17008106D01*
X19980515Y17033014D01*
X19980514Y17033016D01*
X19977355Y17040642D01*
X19920447Y17114806D01*
X19893501Y17149923D01*
X19893500Y17149924D01*
X19888474Y17156474D01*
X19881924Y17161500D01*
X19881921Y17161503D01*
X19779196Y17240327D01*
X19779194Y17240328D01*
X19772643Y17245355D01*
X19637754Y17301228D01*
X19493000Y17320285D01*
X19484812Y17319207D01*
X19356432Y17302306D01*
X19356430Y17302305D01*
X19348246Y17301228D01*
X19300430Y17281422D01*
X19220986Y17248515D01*
X19220984Y17248514D01*
X19213358Y17245355D01*
X19097526Y17156474D01*
X19008645Y17040642D01*
X19005486Y17033016D01*
X19005485Y17033014D01*
X18995168Y17008106D01*
X18952772Y16905754D01*
X18951695Y16897570D01*
X18951694Y16897568D01*
X18944841Y16845514D01*
X18933715Y16761000D01*
X7752100Y16761000D01*
X7752100Y19864400D01*
X12592715Y19864400D01*
X12593793Y19856212D01*
X12608426Y19745065D01*
X12611772Y19719646D01*
X12631578Y19671830D01*
X12664357Y19592697D01*
X12667645Y19584758D01*
X12712086Y19526842D01*
X12738462Y19492468D01*
X12756526Y19468926D01*
X12763076Y19463900D01*
X12763079Y19463897D01*
X12865804Y19385073D01*
X12872357Y19380045D01*
X13007246Y19324172D01*
X13015434Y19323094D01*
X13056604Y19317674D01*
X13152000Y19305115D01*
X13160188Y19306193D01*
X13288566Y19323094D01*
X13296754Y19324172D01*
X13431643Y19380045D01*
X13438196Y19385073D01*
X13540921Y19463897D01*
X13540924Y19463900D01*
X13547474Y19468926D01*
X13565539Y19492468D01*
X13591915Y19526842D01*
X13636355Y19584758D01*
X13639644Y19592697D01*
X13672422Y19671830D01*
X13692228Y19719646D01*
X13695575Y19745065D01*
X13710207Y19856212D01*
X13711285Y19864400D01*
X13704599Y19915185D01*
X13693306Y20000968D01*
X13693305Y20000970D01*
X13692228Y20009154D01*
X13636355Y20144042D01*
X13591915Y20201958D01*
X13552501Y20253323D01*
X13552500Y20253324D01*
X13547474Y20259874D01*
X13540924Y20264900D01*
X13540921Y20264903D01*
X13438196Y20343727D01*
X13438194Y20343728D01*
X13431643Y20348755D01*
X13296754Y20404628D01*
X13152000Y20423685D01*
X13143812Y20422607D01*
X13015432Y20405706D01*
X13015430Y20405705D01*
X13007246Y20404628D01*
X12984594Y20395245D01*
X12879986Y20351915D01*
X12879984Y20351914D01*
X12872358Y20348755D01*
X12756526Y20259874D01*
X12667645Y20144042D01*
X12611772Y20009154D01*
X12610695Y20000970D01*
X12610694Y20000968D01*
X12599401Y19915185D01*
X12592715Y19864400D01*
X7752100Y19864400D01*
X7752100Y20963450D01*
X7772102Y21031571D01*
X7824850Y21077645D01*
X7930111Y21126729D01*
X7930116Y21126732D01*
X7935098Y21129055D01*
X7978210Y21159242D01*
X8106815Y21249292D01*
X8106818Y21249294D01*
X8111326Y21252451D01*
X8263449Y21404574D01*
X8271918Y21416668D01*
X8383688Y21576293D01*
X8383689Y21576295D01*
X8386845Y21580802D01*
X8389168Y21585784D01*
X8389171Y21585789D01*
X8475442Y21770798D01*
X8475443Y21770799D01*
X8477765Y21775780D01*
X8479377Y21781794D01*
X8508219Y21889436D01*
X8533446Y21983584D01*
X8552196Y22197900D01*
X8548801Y22236700D01*
X16609615Y22236700D01*
X16610693Y22228512D01*
X16616948Y22181003D01*
X16628672Y22091946D01*
X16631831Y22084320D01*
X16680952Y21965733D01*
X16684545Y21957058D01*
X16773426Y21841226D01*
X16801606Y21819603D01*
X16843472Y21762266D01*
X16850900Y21719642D01*
X16850900Y20558292D01*
X16850421Y20547310D01*
X16847223Y20510757D01*
X16850077Y20500106D01*
X16856718Y20475319D01*
X16859096Y20464590D01*
X16863552Y20439321D01*
X16863554Y20439316D01*
X16865468Y20428460D01*
X16870981Y20418913D01*
X16872060Y20415947D01*
X16873394Y20413086D01*
X16876248Y20402434D01*
X16885883Y20388674D01*
X16897292Y20372380D01*
X16903197Y20363110D01*
X16916026Y20340889D01*
X16916029Y20340885D01*
X16921540Y20331340D01*
X16929987Y20324252D01*
X16949645Y20307757D01*
X16957749Y20300331D01*
X17124124Y20133956D01*
X17158150Y20071644D01*
X17159951Y20028415D01*
X17155315Y19993200D01*
X17156393Y19985012D01*
X17172272Y19864400D01*
X17174372Y19848446D01*
X17230245Y19713558D01*
X17319126Y19597726D01*
X17325676Y19592700D01*
X17325679Y19592697D01*
X17428404Y19513873D01*
X17434957Y19508845D01*
X17569846Y19452972D01*
X17714600Y19433915D01*
X17722788Y19434993D01*
X17757782Y19439600D01*
X21168315Y19439600D01*
X21169393Y19431412D01*
X21184367Y19317674D01*
X21187372Y19294846D01*
X21243245Y19159958D01*
X21248272Y19153407D01*
X21292016Y19096399D01*
X21332126Y19044126D01*
X21338676Y19039100D01*
X21338679Y19039097D01*
X21441205Y18960426D01*
X21447957Y18955245D01*
X21582846Y18899372D01*
X21727600Y18880315D01*
X21735788Y18881393D01*
X21864166Y18898294D01*
X21872354Y18899372D01*
X22007243Y18955245D01*
X22013995Y18960426D01*
X22116521Y19039097D01*
X22116524Y19039100D01*
X22123074Y19044126D01*
X22163185Y19096399D01*
X22206928Y19153407D01*
X22211955Y19159958D01*
X22267828Y19294846D01*
X22270834Y19317674D01*
X22285807Y19431412D01*
X22286885Y19439600D01*
X22267828Y19584354D01*
X22246625Y19635542D01*
X22215115Y19711614D01*
X22215114Y19711616D01*
X22211955Y19719242D01*
X22157877Y19789718D01*
X22128101Y19828523D01*
X22128100Y19828524D01*
X22123074Y19835074D01*
X22116524Y19840100D01*
X22116521Y19840103D01*
X22013796Y19918927D01*
X22013794Y19918928D01*
X22007243Y19923955D01*
X21872354Y19979828D01*
X21727600Y19998885D01*
X21719412Y19997807D01*
X21591032Y19980906D01*
X21591030Y19980905D01*
X21582846Y19979828D01*
X21535030Y19960022D01*
X21455586Y19927115D01*
X21455584Y19927114D01*
X21447958Y19923955D01*
X21436529Y19915185D01*
X21352664Y19850833D01*
X21332126Y19835074D01*
X21243245Y19719242D01*
X21240086Y19711616D01*
X21240085Y19711614D01*
X21208575Y19635542D01*
X21187372Y19584354D01*
X21168315Y19439600D01*
X17757782Y19439600D01*
X17851166Y19451894D01*
X17859354Y19452972D01*
X17994243Y19508845D01*
X18000796Y19513873D01*
X18103521Y19592697D01*
X18103524Y19592700D01*
X18110074Y19597726D01*
X18198955Y19713558D01*
X18254828Y19848446D01*
X18256929Y19864400D01*
X18272807Y19985012D01*
X18273885Y19993200D01*
X18254828Y20137954D01*
X18202246Y20264897D01*
X18202115Y20265214D01*
X18202114Y20265216D01*
X18198955Y20272842D01*
X18110074Y20388674D01*
X18103524Y20393700D01*
X18103521Y20393703D01*
X18000796Y20472527D01*
X18000794Y20472528D01*
X17994243Y20477555D01*
X17859354Y20533428D01*
X17714600Y20552485D01*
X17679385Y20547849D01*
X17609236Y20558789D01*
X17573844Y20583676D01*
X17523805Y20633715D01*
X17489779Y20696027D01*
X17486900Y20722810D01*
X17486900Y21719642D01*
X17506902Y21787763D01*
X17536193Y21819602D01*
X17564374Y21841226D01*
X17653255Y21957058D01*
X17656849Y21965733D01*
X17705969Y22084320D01*
X17709128Y22091946D01*
X17720853Y22181003D01*
X17727107Y22228512D01*
X17728185Y22236700D01*
X17709128Y22381454D01*
X17653255Y22516342D01*
X17601658Y22583584D01*
X17569401Y22625623D01*
X17569400Y22625624D01*
X17564374Y22632174D01*
X17557824Y22637200D01*
X17557821Y22637203D01*
X17455096Y22716027D01*
X17455094Y22716028D01*
X17448543Y22721055D01*
X17313654Y22776928D01*
X17168900Y22795985D01*
X17160712Y22794907D01*
X17032332Y22778006D01*
X17032330Y22778005D01*
X17024146Y22776928D01*
X17002744Y22768063D01*
X16896886Y22724215D01*
X16896884Y22724214D01*
X16889258Y22721055D01*
X16773426Y22632174D01*
X16684545Y22516342D01*
X16628672Y22381454D01*
X16609615Y22236700D01*
X8548801Y22236700D01*
X8533446Y22412216D01*
X8477765Y22620020D01*
X8475150Y22625628D01*
X8395471Y22796500D01*
X21158415Y22796500D01*
X21159493Y22788312D01*
X21166589Y22734415D01*
X21177472Y22651746D01*
X21233345Y22516858D01*
X21238372Y22510307D01*
X21313640Y22412216D01*
X21322226Y22401026D01*
X21328776Y22396000D01*
X21328779Y22395997D01*
X21431504Y22317173D01*
X21438057Y22312145D01*
X21572946Y22256272D01*
X21717700Y22237215D01*
X21725888Y22238293D01*
X21854266Y22255194D01*
X21862454Y22256272D01*
X21997343Y22312145D01*
X22003896Y22317173D01*
X22106621Y22395997D01*
X22106624Y22396000D01*
X22113174Y22401026D01*
X22121761Y22412216D01*
X22197028Y22510307D01*
X22202055Y22516858D01*
X22257928Y22651746D01*
X22268812Y22734415D01*
X22275907Y22788312D01*
X22276985Y22796500D01*
X22262730Y22904777D01*
X22259006Y22933068D01*
X22259005Y22933070D01*
X22257928Y22941254D01*
X22202055Y23076142D01*
X22113174Y23191974D01*
X22106624Y23197000D01*
X22106621Y23197003D01*
X22003896Y23275827D01*
X22003894Y23275828D01*
X21997343Y23280855D01*
X21862454Y23336728D01*
X21717700Y23355785D01*
X21709512Y23354707D01*
X21581132Y23337806D01*
X21581130Y23337805D01*
X21572946Y23336728D01*
X21525130Y23316922D01*
X21445686Y23284015D01*
X21445684Y23284014D01*
X21438058Y23280855D01*
X21322226Y23191974D01*
X21233345Y23076142D01*
X21177472Y22941254D01*
X21176395Y22933070D01*
X21176394Y22933068D01*
X21172670Y22904777D01*
X21158415Y22796500D01*
X8395471Y22796500D01*
X8389171Y22810011D01*
X8389168Y22810016D01*
X8386845Y22814998D01*
X8332090Y22893197D01*
X8266608Y22986715D01*
X8266606Y22986718D01*
X8263449Y22991226D01*
X8111326Y23143349D01*
X8106818Y23146506D01*
X8106815Y23146508D01*
X7939607Y23263588D01*
X7939605Y23263589D01*
X7935098Y23266745D01*
X7930116Y23269068D01*
X7930111Y23269071D01*
X7745102Y23355342D01*
X7745101Y23355343D01*
X7740120Y23357665D01*
X7734812Y23359087D01*
X7734810Y23359088D01*
X7670068Y23376435D01*
X7532316Y23413346D01*
X7318000Y23432096D01*
X7103684Y23413346D01*
X6965932Y23376435D01*
X6901190Y23359088D01*
X6901188Y23359087D01*
X6895880Y23357665D01*
X6890899Y23355343D01*
X6890898Y23355342D01*
X6705889Y23269071D01*
X6705884Y23269068D01*
X6700902Y23266745D01*
X6696395Y23263589D01*
X6696393Y23263588D01*
X6529185Y23146508D01*
X6529182Y23146506D01*
X6524674Y23143349D01*
X6372551Y22991226D01*
X6369394Y22986718D01*
X6369392Y22986715D01*
X6303910Y22893197D01*
X6249155Y22814998D01*
X6246832Y22810016D01*
X6246829Y22810011D01*
X6160850Y22625628D01*
X6158235Y22620020D01*
X6102554Y22412216D01*
X6083804Y22197900D01*
X6102554Y21983584D01*
X6127781Y21889436D01*
X6156624Y21781794D01*
X6158235Y21775780D01*
X6160557Y21770799D01*
X6160558Y21770798D01*
X6246829Y21585789D01*
X6246832Y21585784D01*
X6249155Y21580802D01*
X6252311Y21576295D01*
X6252312Y21576293D01*
X6364083Y21416668D01*
X6372551Y21404574D01*
X6524674Y21252451D01*
X6529182Y21249294D01*
X6529185Y21249292D01*
X6657790Y21159242D01*
X6700902Y21129055D01*
X6705884Y21126732D01*
X6705889Y21126729D01*
X6890898Y21040458D01*
X6895880Y21038135D01*
X6901188Y21036713D01*
X6901190Y21036712D01*
X6946410Y21024595D01*
X7022712Y21004150D01*
X7083334Y20967199D01*
X7114355Y20903339D01*
X7116100Y20882444D01*
X7116100Y18873622D01*
X7096098Y18805501D01*
X7042442Y18759008D01*
X6973655Y18748700D01*
X6917390Y18756107D01*
X6917388Y18756107D01*
X6909200Y18757185D01*
X6901012Y18756107D01*
X6772632Y18739206D01*
X6772630Y18739205D01*
X6764446Y18738128D01*
X6756819Y18734969D01*
X6756820Y18734969D01*
X6637186Y18685415D01*
X6637184Y18685414D01*
X6629558Y18682255D01*
X6513726Y18593374D01*
X6424845Y18477542D01*
X6368972Y18342654D01*
X6367895Y18334470D01*
X6367894Y18334468D01*
X6360340Y18277089D01*
X6349915Y18197900D01*
X6350993Y18189712D01*
X6366369Y18072920D01*
X6368972Y18053146D01*
X6372131Y18045520D01*
X6413084Y17946652D01*
X6424845Y17918258D01*
X6513726Y17802426D01*
X6520276Y17797400D01*
X6520279Y17797397D01*
X6597967Y17737785D01*
X6629557Y17713545D01*
X6764446Y17657672D01*
X6909200Y17638615D01*
X6917388Y17639693D01*
X6917390Y17639693D01*
X6973655Y17647100D01*
X7043803Y17636160D01*
X7096902Y17589032D01*
X7116100Y17522178D01*
X7116100Y13010248D01*
X7096098Y12942127D01*
X7042442Y12895634D01*
X6972168Y12885530D01*
X6913398Y12910284D01*
X6913324Y12910340D01*
X6900143Y12920455D01*
X6765254Y12976328D01*
X6620500Y12995385D01*
X6612312Y12994307D01*
X6483932Y12977406D01*
X6483930Y12977405D01*
X6475746Y12976328D01*
X6461295Y12970342D01*
X6348486Y12923615D01*
X6348484Y12923614D01*
X6340858Y12920455D01*
X6225026Y12831574D01*
X6136145Y12715742D01*
X6132986Y12708116D01*
X6132985Y12708114D01*
X6121339Y12679997D01*
X6080272Y12580854D01*
X6079195Y12572670D01*
X6079194Y12572668D01*
X6074765Y12539023D01*
X6061215Y12436100D01*
X1054100Y12436100D01*
X1054100Y22245199D01*
X1074102Y22313320D01*
X1127758Y22359813D01*
X1198032Y22369917D01*
X1262612Y22340423D01*
X1294295Y22298449D01*
X1346829Y22185789D01*
X1346832Y22185784D01*
X1349155Y22180802D01*
X1352311Y22176295D01*
X1352312Y22176293D01*
X1411373Y22091946D01*
X1472551Y22004574D01*
X1624674Y21852451D01*
X1629182Y21849294D01*
X1629185Y21849292D01*
X1796393Y21732212D01*
X1800902Y21729055D01*
X1805884Y21726732D01*
X1805889Y21726729D01*
X1924903Y21671232D01*
X1995880Y21638135D01*
X2001188Y21636713D01*
X2001190Y21636712D01*
X2033256Y21628120D01*
X2203684Y21582454D01*
X2418000Y21563704D01*
X2632316Y21582454D01*
X2802744Y21628120D01*
X2834810Y21636712D01*
X2834812Y21636713D01*
X2840120Y21638135D01*
X2911097Y21671232D01*
X3030111Y21726729D01*
X3030116Y21726732D01*
X3035098Y21729055D01*
X3039607Y21732212D01*
X3206815Y21849292D01*
X3206818Y21849294D01*
X3211326Y21852451D01*
X3363449Y22004574D01*
X3424628Y22091946D01*
X3483688Y22176293D01*
X3483689Y22176295D01*
X3486845Y22180802D01*
X3489168Y22185784D01*
X3489171Y22185789D01*
X3575442Y22370798D01*
X3575443Y22370799D01*
X3577765Y22375780D01*
X3579286Y22381454D01*
X3596535Y22445832D01*
X3633446Y22583584D01*
X3652196Y22797900D01*
X3633446Y23012216D01*
X3583934Y23196997D01*
X3579188Y23214710D01*
X3579187Y23214712D01*
X3577765Y23220020D01*
X3547924Y23284015D01*
X3489171Y23410011D01*
X3489168Y23410016D01*
X3486845Y23414998D01*
X3476153Y23430268D01*
X3366608Y23586715D01*
X3366606Y23586718D01*
X3363449Y23591226D01*
X3211326Y23743349D01*
X3206818Y23746506D01*
X3206815Y23746508D01*
X3072009Y23840900D01*
X9382315Y23840900D01*
X9383393Y23832712D01*
X9395158Y23743349D01*
X9401372Y23696146D01*
X9407158Y23682177D01*
X9452240Y23573342D01*
X9457245Y23561258D01*
X9546126Y23445426D01*
X9552676Y23440400D01*
X9552679Y23440397D01*
X9655404Y23361573D01*
X9661957Y23356545D01*
X9796846Y23300672D01*
X9941600Y23281615D01*
X9949788Y23282693D01*
X10078166Y23299594D01*
X10086354Y23300672D01*
X10221243Y23356545D01*
X10227796Y23361573D01*
X10330521Y23440397D01*
X10330524Y23440400D01*
X10337074Y23445426D01*
X10425955Y23561258D01*
X10430961Y23573342D01*
X10476042Y23682177D01*
X10481828Y23696146D01*
X10488043Y23743349D01*
X10499807Y23832712D01*
X10500885Y23840900D01*
X10489491Y23927446D01*
X10482906Y23977468D01*
X10482905Y23977470D01*
X10481828Y23985654D01*
X10446435Y24071100D01*
X24049115Y24071100D01*
X24050193Y24062912D01*
X24067040Y23934946D01*
X24068172Y23926346D01*
X24071331Y23918720D01*
X24120483Y23800058D01*
X24124045Y23791458D01*
X24150311Y23757228D01*
X24197042Y23696327D01*
X24212926Y23675626D01*
X24219476Y23670600D01*
X24219479Y23670597D01*
X24322204Y23591773D01*
X24328757Y23586745D01*
X24463646Y23530872D01*
X24608400Y23511815D01*
X24616588Y23512893D01*
X24624944Y23513993D01*
X24753154Y23530872D01*
X24888043Y23586745D01*
X24894596Y23591773D01*
X24997321Y23670597D01*
X24997324Y23670600D01*
X25003874Y23675626D01*
X25019759Y23696327D01*
X25066489Y23757228D01*
X25092755Y23791458D01*
X25096318Y23800058D01*
X25145469Y23918720D01*
X25148628Y23926346D01*
X25149761Y23934946D01*
X25166607Y24062912D01*
X25167685Y24071100D01*
X25167540Y24072200D01*
X39572715Y24072200D01*
X39573793Y24064012D01*
X39587794Y23957665D01*
X39591772Y23927446D01*
X39602075Y23902572D01*
X39641379Y23807686D01*
X39647645Y23792558D01*
X39678434Y23752433D01*
X39721625Y23696146D01*
X39736526Y23676726D01*
X39743076Y23671700D01*
X39743079Y23671697D01*
X39842872Y23595123D01*
X39852357Y23587845D01*
X39987246Y23531972D01*
X39995434Y23530894D01*
X40059623Y23522443D01*
X40132000Y23512915D01*
X40140188Y23513993D01*
X40268566Y23530894D01*
X40276754Y23531972D01*
X40411643Y23587845D01*
X40421128Y23595123D01*
X40520921Y23671697D01*
X40520924Y23671700D01*
X40527474Y23676726D01*
X40542376Y23696146D01*
X40585566Y23752433D01*
X40616355Y23792558D01*
X40622622Y23807686D01*
X40661925Y23902572D01*
X40672228Y23927446D01*
X40676207Y23957665D01*
X40690207Y24064012D01*
X40691285Y24072200D01*
X40690298Y24079700D01*
X42620715Y24079700D01*
X42621793Y24071512D01*
X42636594Y23959088D01*
X42639772Y23934946D01*
X42646493Y23918720D01*
X42678728Y23840900D01*
X42695645Y23800058D01*
X42728510Y23757228D01*
X42775241Y23696327D01*
X42784526Y23684226D01*
X42791076Y23679200D01*
X42791079Y23679197D01*
X42893804Y23600373D01*
X42900357Y23595345D01*
X43035246Y23539472D01*
X43180000Y23520415D01*
X43188188Y23521493D01*
X43316566Y23538394D01*
X43324754Y23539472D01*
X43459643Y23595345D01*
X43466196Y23600373D01*
X43568921Y23679197D01*
X43568924Y23679200D01*
X43575474Y23684226D01*
X43584760Y23696327D01*
X43631490Y23757228D01*
X43664355Y23800058D01*
X43681273Y23840900D01*
X43713507Y23918720D01*
X43720228Y23934946D01*
X43723407Y23959088D01*
X43738207Y24071512D01*
X43739285Y24079700D01*
X43736159Y24103445D01*
X43721306Y24216268D01*
X43721305Y24216270D01*
X43720228Y24224454D01*
X43683522Y24313070D01*
X43667515Y24351714D01*
X43667514Y24351716D01*
X43664355Y24359342D01*
X43605451Y24436107D01*
X43580501Y24468623D01*
X43580500Y24468624D01*
X43575474Y24475174D01*
X43568924Y24480200D01*
X43568921Y24480203D01*
X43466196Y24559027D01*
X43466194Y24559028D01*
X43459643Y24564055D01*
X43324754Y24619928D01*
X43315670Y24621124D01*
X43188188Y24637907D01*
X43180000Y24638985D01*
X43171812Y24637907D01*
X43043432Y24621006D01*
X43043430Y24621005D01*
X43035246Y24619928D01*
X43015505Y24611751D01*
X42907986Y24567215D01*
X42907984Y24567214D01*
X42900358Y24564055D01*
X42784526Y24475174D01*
X42779503Y24468628D01*
X42769041Y24454994D01*
X42695645Y24359342D01*
X42692486Y24351716D01*
X42692485Y24351714D01*
X42676478Y24313070D01*
X42639772Y24224454D01*
X42638695Y24216270D01*
X42638694Y24216268D01*
X42623841Y24103445D01*
X42620715Y24079700D01*
X40690298Y24079700D01*
X40676862Y24181758D01*
X40673306Y24208768D01*
X40673305Y24208770D01*
X40672228Y24216954D01*
X40632055Y24313940D01*
X40619515Y24344214D01*
X40619514Y24344216D01*
X40616355Y24351842D01*
X40551696Y24436107D01*
X40532501Y24461123D01*
X40532500Y24461124D01*
X40527474Y24467674D01*
X40520924Y24472700D01*
X40520921Y24472703D01*
X40418196Y24551527D01*
X40418194Y24551528D01*
X40411643Y24556555D01*
X40276754Y24612428D01*
X40266485Y24613780D01*
X40174825Y24625847D01*
X40132000Y24631485D01*
X40123812Y24630407D01*
X39995432Y24613506D01*
X39995430Y24613505D01*
X39987246Y24612428D01*
X39969531Y24605090D01*
X39859986Y24559715D01*
X39859984Y24559714D01*
X39852358Y24556555D01*
X39736526Y24467674D01*
X39647645Y24351842D01*
X39644486Y24344216D01*
X39644485Y24344214D01*
X39631945Y24313940D01*
X39591772Y24216954D01*
X39590695Y24208770D01*
X39590694Y24208768D01*
X39587138Y24181758D01*
X39572715Y24072200D01*
X25167540Y24072200D01*
X25161176Y24120542D01*
X25149706Y24207668D01*
X25149705Y24207670D01*
X25148628Y24215854D01*
X25110037Y24309020D01*
X25095915Y24343114D01*
X25095914Y24343116D01*
X25092755Y24350742D01*
X25027252Y24436107D01*
X25008901Y24460023D01*
X25008900Y24460024D01*
X25003874Y24466574D01*
X24997324Y24471600D01*
X24997321Y24471603D01*
X24894596Y24550427D01*
X24894594Y24550428D01*
X24888043Y24555455D01*
X24762693Y24607377D01*
X24760783Y24608168D01*
X24753154Y24611328D01*
X24736611Y24613506D01*
X24678745Y24621124D01*
X24608400Y24630385D01*
X24600212Y24629307D01*
X24471832Y24612406D01*
X24471830Y24612405D01*
X24463646Y24611328D01*
X24426151Y24595797D01*
X24336386Y24558615D01*
X24336384Y24558614D01*
X24328758Y24555455D01*
X24260618Y24503169D01*
X24233911Y24482676D01*
X24212926Y24466574D01*
X24207903Y24460028D01*
X24204040Y24454994D01*
X24124045Y24350742D01*
X24120886Y24343116D01*
X24120885Y24343114D01*
X24106763Y24309020D01*
X24068172Y24215854D01*
X24067095Y24207670D01*
X24067094Y24207668D01*
X24055624Y24120542D01*
X24049115Y24071100D01*
X10446435Y24071100D01*
X10445979Y24072200D01*
X10429115Y24112914D01*
X10429114Y24112916D01*
X10425955Y24120542D01*
X10352502Y24216268D01*
X10342101Y24229823D01*
X10342100Y24229824D01*
X10337074Y24236374D01*
X10330524Y24241400D01*
X10330521Y24241403D01*
X10227796Y24320227D01*
X10227794Y24320228D01*
X10221243Y24325255D01*
X10086354Y24381128D01*
X10054771Y24385286D01*
X9949788Y24399107D01*
X9941600Y24400185D01*
X9933412Y24399107D01*
X9805032Y24382206D01*
X9805030Y24382205D01*
X9796846Y24381128D01*
X9760066Y24365893D01*
X9669586Y24328415D01*
X9669584Y24328414D01*
X9661958Y24325255D01*
X9546126Y24236374D01*
X9541103Y24229828D01*
X9530698Y24216268D01*
X9457245Y24120542D01*
X9454086Y24112916D01*
X9454085Y24112914D01*
X9437221Y24072200D01*
X9401372Y23985654D01*
X9400295Y23977470D01*
X9400294Y23977468D01*
X9393709Y23927446D01*
X9382315Y23840900D01*
X3072009Y23840900D01*
X3039607Y23863588D01*
X3039605Y23863589D01*
X3035098Y23866745D01*
X3030116Y23869068D01*
X3030111Y23869071D01*
X2845102Y23955342D01*
X2845101Y23955343D01*
X2840120Y23957665D01*
X2834812Y23959087D01*
X2834810Y23959088D01*
X2749028Y23982073D01*
X2632316Y24013346D01*
X2537041Y24021681D01*
X2478754Y24026781D01*
X2412636Y24052645D01*
X2370997Y24110148D01*
X2367056Y24181035D01*
X2373327Y24200520D01*
X2418268Y24309017D01*
X2418269Y24309020D01*
X2421428Y24316646D01*
X2422562Y24325255D01*
X2439407Y24453212D01*
X2440485Y24461400D01*
X2428765Y24550427D01*
X2422506Y24597968D01*
X2422505Y24597970D01*
X2421428Y24606154D01*
X2377097Y24713177D01*
X2368715Y24733414D01*
X2368714Y24733416D01*
X2365555Y24741042D01*
X2276674Y24856874D01*
X2270124Y24861900D01*
X2270121Y24861903D01*
X2167396Y24940727D01*
X2167394Y24940728D01*
X2160843Y24945755D01*
X2025954Y25001628D01*
X1881200Y25020685D01*
X1873012Y25019607D01*
X1744632Y25002706D01*
X1744630Y25002705D01*
X1736446Y25001628D01*
X1707580Y24989671D01*
X1609186Y24948915D01*
X1609184Y24948914D01*
X1601558Y24945755D01*
X1485726Y24856874D01*
X1396845Y24741042D01*
X1393686Y24733416D01*
X1393685Y24733414D01*
X1385303Y24713177D01*
X1340972Y24606154D01*
X1339895Y24597970D01*
X1339894Y24597968D01*
X1333635Y24550427D01*
X1321915Y24461400D01*
X1322993Y24453212D01*
X1339839Y24325255D01*
X1340972Y24316646D01*
X1344131Y24309020D01*
X1386113Y24207668D01*
X1396845Y24181758D01*
X1485726Y24065926D01*
X1492276Y24060900D01*
X1492279Y24060897D01*
X1595004Y23982073D01*
X1601557Y23977045D01*
X1609186Y23973885D01*
X1609191Y23973882D01*
X1613602Y23972055D01*
X1668881Y23927505D01*
X1691300Y23860141D01*
X1673740Y23791350D01*
X1637647Y23752433D01*
X1629189Y23746511D01*
X1629185Y23746508D01*
X1624674Y23743349D01*
X1472551Y23591226D01*
X1469394Y23586718D01*
X1469392Y23586715D01*
X1359847Y23430268D01*
X1349155Y23414998D01*
X1346832Y23410016D01*
X1346829Y23410011D01*
X1294295Y23297351D01*
X1247377Y23244066D01*
X1179100Y23224605D01*
X1111140Y23245147D01*
X1065075Y23299170D01*
X1054100Y23350601D01*
X1054100Y25102100D01*
X3110815Y25102100D01*
X3111893Y25093912D01*
X3127301Y24976878D01*
X3129872Y24957346D01*
X3136756Y24940727D01*
X3174201Y24850328D01*
X3185745Y24822458D01*
X3274626Y24706626D01*
X3281176Y24701600D01*
X3281179Y24701597D01*
X3383904Y24622773D01*
X3390457Y24617745D01*
X3525346Y24561872D01*
X3533534Y24560794D01*
X3597723Y24552343D01*
X3670100Y24542815D01*
X3678288Y24543893D01*
X3727920Y24550427D01*
X3742477Y24552343D01*
X3806666Y24560794D01*
X3814854Y24561872D01*
X3949743Y24617745D01*
X3956296Y24622773D01*
X4059021Y24701597D01*
X4059024Y24701600D01*
X4065574Y24706626D01*
X4154455Y24822458D01*
X4166000Y24850328D01*
X4203444Y24940727D01*
X4210328Y24957346D01*
X4212900Y24976878D01*
X4215457Y24996300D01*
X7146615Y24996300D01*
X7147693Y24988112D01*
X7163097Y24871109D01*
X7165672Y24851546D01*
X7180434Y24815907D01*
X7211445Y24741042D01*
X7221545Y24716658D01*
X7265985Y24658742D01*
X7304792Y24608169D01*
X7310426Y24600826D01*
X7316976Y24595800D01*
X7316979Y24595797D01*
X7419704Y24516973D01*
X7426257Y24511945D01*
X7561146Y24456072D01*
X7705900Y24437015D01*
X7714088Y24438093D01*
X7842466Y24454994D01*
X7850654Y24456072D01*
X7985543Y24511945D01*
X7992096Y24516973D01*
X8094821Y24595797D01*
X8094824Y24595800D01*
X8101374Y24600826D01*
X8107009Y24608169D01*
X8145815Y24658742D01*
X8190255Y24716658D01*
X8200356Y24741042D01*
X8231366Y24815907D01*
X8246128Y24851546D01*
X8248704Y24871109D01*
X8264107Y24988112D01*
X8265185Y24996300D01*
X8256996Y25058503D01*
X8247206Y25132868D01*
X8247205Y25132870D01*
X8246128Y25141054D01*
X8217900Y25209202D01*
X8193415Y25268314D01*
X8193414Y25268316D01*
X8190255Y25275942D01*
X8122173Y25364668D01*
X8106401Y25385223D01*
X8106400Y25385224D01*
X8101374Y25391774D01*
X8030934Y25445825D01*
X7989069Y25503160D01*
X7984847Y25574031D01*
X8019611Y25635934D01*
X8059422Y25662194D01*
X8108314Y25682446D01*
X8151043Y25700145D01*
X8157596Y25705173D01*
X8260321Y25783997D01*
X8260324Y25784000D01*
X8266874Y25789026D01*
X8296166Y25827200D01*
X9670715Y25827200D01*
X9689772Y25682446D01*
X9695970Y25667484D01*
X9729587Y25586326D01*
X9745645Y25547558D01*
X9834526Y25431726D01*
X9841076Y25426700D01*
X9841079Y25426697D01*
X9943804Y25347873D01*
X9950357Y25342845D01*
X10085246Y25286972D01*
X10230000Y25267915D01*
X10238188Y25268993D01*
X10366566Y25285894D01*
X10374754Y25286972D01*
X10509643Y25342845D01*
X10516196Y25347873D01*
X10618921Y25426697D01*
X10618924Y25426700D01*
X10625474Y25431726D01*
X10714355Y25547558D01*
X10730414Y25586326D01*
X10764030Y25667484D01*
X10770228Y25682446D01*
X10776691Y25731536D01*
X13882112Y25731536D01*
X13882312Y25726208D01*
X13882312Y25726206D01*
X13884464Y25668901D01*
X13883705Y25668872D01*
X13884034Y25667484D01*
X13884340Y25667511D01*
X13884374Y25667123D01*
X13884465Y25665662D01*
X13884523Y25665415D01*
X13884648Y25663993D01*
X13890736Y25501831D01*
X13891831Y25496612D01*
X13904628Y25435621D01*
X13903861Y25435460D01*
X13904841Y25433184D01*
X13904937Y25432092D01*
X13906361Y25426778D01*
X13906464Y25426193D01*
X13907635Y25421290D01*
X13937939Y25276863D01*
X13949790Y25246854D01*
X13963975Y25210934D01*
X13964724Y25208959D01*
X13966097Y25203837D01*
X13968422Y25198851D01*
X13968423Y25198849D01*
X13968947Y25197725D01*
X13971934Y25190783D01*
X14022372Y25063064D01*
X14059273Y25002254D01*
X14060811Y24999374D01*
X14060890Y24999420D01*
X14063639Y24994659D01*
X14065965Y24989671D01*
X14069122Y24985163D01*
X14069124Y24985159D01*
X14070674Y24982945D01*
X14075181Y24976038D01*
X14096608Y24940728D01*
X14141621Y24866548D01*
X14145116Y24862521D01*
X14145117Y24862519D01*
X14191993Y24808500D01*
X14195555Y24803937D01*
X14198347Y24800610D01*
X14201505Y24796099D01*
X14207791Y24789813D01*
X14213861Y24783299D01*
X14284759Y24701597D01*
X14292276Y24692934D01*
X14296407Y24689547D01*
X14356309Y24640430D01*
X14363574Y24633848D01*
X14364706Y24632898D01*
X14368599Y24629005D01*
X14373103Y24625851D01*
X14373108Y24625847D01*
X14375936Y24623867D01*
X14383554Y24618090D01*
X14465901Y24550569D01*
X14465907Y24550565D01*
X14470029Y24547185D01*
X14474668Y24544545D01*
X14474667Y24544545D01*
X14547355Y24503169D01*
X14557296Y24496878D01*
X14557660Y24496623D01*
X14557667Y24496619D01*
X14562171Y24493465D01*
X14567155Y24491141D01*
X14567160Y24491138D01*
X14569875Y24489872D01*
X14578952Y24485182D01*
X14602818Y24471597D01*
X14669798Y24433470D01*
X14759498Y24400910D01*
X14769753Y24396667D01*
X14771348Y24395923D01*
X14771350Y24395922D01*
X14776337Y24393597D01*
X14781653Y24392173D01*
X14781655Y24392172D01*
X14782719Y24391887D01*
X14783702Y24391624D01*
X14794081Y24388357D01*
X14885871Y24355039D01*
X14986443Y24336852D01*
X14996616Y24334574D01*
X15004592Y24332437D01*
X15010990Y24331877D01*
X15022412Y24330348D01*
X15112069Y24314136D01*
X15116208Y24313941D01*
X15116215Y24313940D01*
X15134670Y24313070D01*
X15134677Y24313070D01*
X15136158Y24313000D01*
X15297712Y24313000D01*
X15382895Y24320228D01*
X15463733Y24327087D01*
X15463737Y24327088D01*
X15469044Y24327538D01*
X15474199Y24328876D01*
X15474205Y24328877D01*
X15663344Y24377968D01*
X15691539Y24385286D01*
X15855693Y24459232D01*
X15896262Y24477507D01*
X15896265Y24477508D01*
X15901123Y24479697D01*
X16091803Y24608070D01*
X16096349Y24612406D01*
X16198765Y24710107D01*
X16258128Y24766736D01*
X16303412Y24827600D01*
X19629515Y24827600D01*
X19630593Y24819412D01*
X19644121Y24716658D01*
X19648572Y24682846D01*
X19651731Y24675220D01*
X19700031Y24558615D01*
X19704445Y24547958D01*
X19738813Y24503169D01*
X19774952Y24456072D01*
X19793326Y24432126D01*
X19799876Y24427100D01*
X19799879Y24427097D01*
X19902604Y24348273D01*
X19909157Y24343245D01*
X20044046Y24287372D01*
X20188800Y24268315D01*
X20196988Y24269393D01*
X20325366Y24286294D01*
X20333554Y24287372D01*
X20468443Y24343245D01*
X20474996Y24348273D01*
X20577721Y24427097D01*
X20577724Y24427100D01*
X20584274Y24432126D01*
X20602649Y24456072D01*
X20638787Y24503169D01*
X20673155Y24547958D01*
X20677570Y24558615D01*
X20725869Y24675220D01*
X20729028Y24682846D01*
X20733480Y24716658D01*
X20747007Y24819412D01*
X20748085Y24827600D01*
X20743488Y24862519D01*
X20730106Y24964168D01*
X20730105Y24964170D01*
X20729028Y24972354D01*
X20703061Y25035043D01*
X20676315Y25099614D01*
X20676314Y25099616D01*
X20673155Y25107242D01*
X20603725Y25197725D01*
X20589301Y25216523D01*
X20589300Y25216524D01*
X20584274Y25223074D01*
X20577724Y25228100D01*
X20577721Y25228103D01*
X20474996Y25306927D01*
X20474994Y25306928D01*
X20468443Y25311955D01*
X20333554Y25367828D01*
X20313304Y25370494D01*
X20196988Y25385807D01*
X20188800Y25386885D01*
X20180612Y25385807D01*
X20052232Y25368906D01*
X20052230Y25368905D01*
X20044046Y25367828D01*
X19996230Y25348022D01*
X19916786Y25315115D01*
X19916784Y25315114D01*
X19909158Y25311955D01*
X19837584Y25257034D01*
X19813649Y25238668D01*
X19793326Y25223074D01*
X19788303Y25216528D01*
X19773875Y25197725D01*
X19704445Y25107242D01*
X19701286Y25099616D01*
X19701285Y25099614D01*
X19674539Y25035043D01*
X19648572Y24972354D01*
X19647495Y24964170D01*
X19647494Y24964168D01*
X19634112Y24862519D01*
X19629515Y24827600D01*
X16303412Y24827600D01*
X16395342Y24951158D01*
X16397891Y24956170D01*
X16497102Y25151306D01*
X16497102Y25151307D01*
X16499520Y25156062D01*
X16567685Y25375589D01*
X16594967Y25581427D01*
X16597188Y25598181D01*
X16597188Y25598184D01*
X16597888Y25603464D01*
X16595754Y25660307D01*
X16595536Y25666099D01*
X16596295Y25666128D01*
X16595966Y25667516D01*
X16595660Y25667489D01*
X16595626Y25667877D01*
X16595535Y25669338D01*
X16595477Y25669585D01*
X16595352Y25671007D01*
X16589264Y25833169D01*
X16575372Y25899379D01*
X16576139Y25899540D01*
X16575159Y25901816D01*
X16575063Y25902908D01*
X16573639Y25908222D01*
X16573536Y25908807D01*
X16572362Y25913722D01*
X16563886Y25954122D01*
X16542061Y26058137D01*
X16516025Y26124066D01*
X16515276Y26126041D01*
X16513903Y26131163D01*
X16511053Y26137275D01*
X16508066Y26144217D01*
X16475966Y26225500D01*
X21590670Y26225500D01*
X21609954Y26005083D01*
X21611378Y25999770D01*
X21611378Y25999768D01*
X21638565Y25898307D01*
X21667220Y25791364D01*
X21669543Y25786383D01*
X21669543Y25786382D01*
X21758402Y25595822D01*
X21758405Y25595817D01*
X21760728Y25590835D01*
X21763884Y25586328D01*
X21763885Y25586326D01*
X21883119Y25416043D01*
X21887637Y25409590D01*
X22044090Y25253137D01*
X22048598Y25249980D01*
X22048601Y25249978D01*
X22189520Y25151306D01*
X22225335Y25126228D01*
X22230317Y25123905D01*
X22230322Y25123902D01*
X22408686Y25040730D01*
X22425864Y25032720D01*
X22431172Y25031298D01*
X22431174Y25031297D01*
X22634268Y24976878D01*
X22634270Y24976878D01*
X22639583Y24975454D01*
X22860000Y24956170D01*
X23080417Y24975454D01*
X23085730Y24976878D01*
X23085732Y24976878D01*
X23288826Y25031297D01*
X23288828Y25031298D01*
X23294136Y25032720D01*
X23311314Y25040730D01*
X23489678Y25123902D01*
X23489683Y25123905D01*
X23494665Y25126228D01*
X23530480Y25151306D01*
X23671399Y25249978D01*
X23671402Y25249980D01*
X23675910Y25253137D01*
X23832363Y25409590D01*
X23836882Y25416043D01*
X23956115Y25586326D01*
X23956116Y25586328D01*
X23959272Y25590835D01*
X23961595Y25595817D01*
X23961598Y25595822D01*
X24050457Y25786382D01*
X24050457Y25786383D01*
X24052780Y25791364D01*
X24081436Y25898307D01*
X24108622Y25999768D01*
X24108622Y25999770D01*
X24110046Y26005083D01*
X24129330Y26225500D01*
X29728708Y26225500D01*
X29747839Y26006826D01*
X29804653Y25794797D01*
X29832547Y25734978D01*
X29895095Y25600841D01*
X29895098Y25600836D01*
X29897421Y25595854D01*
X29900577Y25591347D01*
X29900578Y25591345D01*
X30017289Y25424665D01*
X30023326Y25416043D01*
X30178543Y25260826D01*
X30183051Y25257669D01*
X30183054Y25257667D01*
X30338704Y25148680D01*
X30358354Y25134921D01*
X30363336Y25132598D01*
X30363341Y25132595D01*
X30464116Y25085604D01*
X30557297Y25042153D01*
X30769326Y24985339D01*
X30988000Y24966208D01*
X31206674Y24985339D01*
X31418703Y25042153D01*
X31511884Y25085604D01*
X31612659Y25132595D01*
X31612664Y25132598D01*
X31617646Y25134921D01*
X31637296Y25148680D01*
X31792946Y25257667D01*
X31792949Y25257669D01*
X31797457Y25260826D01*
X31952674Y25416043D01*
X31958712Y25424665D01*
X32075422Y25591345D01*
X32075423Y25591347D01*
X32078579Y25595854D01*
X32080902Y25600836D01*
X32080905Y25600841D01*
X32141848Y25731536D01*
X34049712Y25731536D01*
X34049912Y25726208D01*
X34049912Y25726206D01*
X34052064Y25668901D01*
X34051305Y25668872D01*
X34051634Y25667484D01*
X34051940Y25667511D01*
X34051974Y25667123D01*
X34052065Y25665662D01*
X34052123Y25665415D01*
X34052248Y25663993D01*
X34058336Y25501831D01*
X34059431Y25496612D01*
X34072228Y25435621D01*
X34071461Y25435460D01*
X34072441Y25433184D01*
X34072537Y25432092D01*
X34073961Y25426778D01*
X34074064Y25426193D01*
X34075235Y25421290D01*
X34105539Y25276863D01*
X34117390Y25246854D01*
X34131575Y25210934D01*
X34132324Y25208959D01*
X34133697Y25203837D01*
X34136022Y25198851D01*
X34136023Y25198849D01*
X34136547Y25197725D01*
X34139534Y25190783D01*
X34189972Y25063064D01*
X34226873Y25002254D01*
X34228411Y24999374D01*
X34228490Y24999420D01*
X34231239Y24994659D01*
X34233565Y24989671D01*
X34236722Y24985163D01*
X34236724Y24985159D01*
X34238274Y24982945D01*
X34242781Y24976038D01*
X34264208Y24940728D01*
X34309221Y24866548D01*
X34312716Y24862521D01*
X34312717Y24862519D01*
X34359593Y24808500D01*
X34363155Y24803937D01*
X34365947Y24800610D01*
X34369105Y24796099D01*
X34375391Y24789813D01*
X34381461Y24783299D01*
X34452359Y24701597D01*
X34459876Y24692934D01*
X34464007Y24689547D01*
X34523909Y24640430D01*
X34531174Y24633848D01*
X34532306Y24632898D01*
X34536199Y24629005D01*
X34540703Y24625851D01*
X34540708Y24625847D01*
X34543536Y24623867D01*
X34551154Y24618090D01*
X34633501Y24550569D01*
X34633507Y24550565D01*
X34637629Y24547185D01*
X34642268Y24544545D01*
X34642267Y24544545D01*
X34714955Y24503169D01*
X34724896Y24496878D01*
X34725260Y24496623D01*
X34725267Y24496619D01*
X34729771Y24493465D01*
X34734755Y24491141D01*
X34734760Y24491138D01*
X34737475Y24489872D01*
X34746552Y24485182D01*
X34770418Y24471597D01*
X34837398Y24433470D01*
X34927098Y24400910D01*
X34937353Y24396667D01*
X34938948Y24395923D01*
X34938950Y24395922D01*
X34943937Y24393597D01*
X34949253Y24392173D01*
X34949255Y24392172D01*
X34950319Y24391887D01*
X34951302Y24391624D01*
X34961681Y24388357D01*
X35053471Y24355039D01*
X35154043Y24336852D01*
X35164216Y24334574D01*
X35172192Y24332437D01*
X35178590Y24331877D01*
X35190012Y24330348D01*
X35279669Y24314136D01*
X35283808Y24313941D01*
X35283815Y24313940D01*
X35302270Y24313070D01*
X35302277Y24313070D01*
X35303758Y24313000D01*
X35465312Y24313000D01*
X35550495Y24320228D01*
X35631333Y24327087D01*
X35631337Y24327088D01*
X35636644Y24327538D01*
X35641799Y24328876D01*
X35641805Y24328877D01*
X35830944Y24377968D01*
X35859139Y24385286D01*
X36023293Y24459232D01*
X36063862Y24477507D01*
X36063865Y24477508D01*
X36068723Y24479697D01*
X36259403Y24608070D01*
X36263949Y24612406D01*
X36366365Y24710107D01*
X36425728Y24766736D01*
X36562942Y24951158D01*
X36565491Y24956170D01*
X36664702Y25151306D01*
X36664702Y25151307D01*
X36667120Y25156062D01*
X36735285Y25375589D01*
X36762567Y25581427D01*
X36764788Y25598181D01*
X36764788Y25598184D01*
X36765488Y25603464D01*
X36763354Y25660307D01*
X36763136Y25666099D01*
X36763895Y25666128D01*
X36763566Y25667516D01*
X36763260Y25667489D01*
X36763226Y25667877D01*
X36763135Y25669338D01*
X36763077Y25669585D01*
X36762952Y25671007D01*
X36756864Y25833169D01*
X36742972Y25899379D01*
X36743739Y25899540D01*
X36742759Y25901816D01*
X36742663Y25902908D01*
X36741239Y25908222D01*
X36741136Y25908807D01*
X36739962Y25913722D01*
X36731486Y25954122D01*
X36709661Y26058137D01*
X36683625Y26124066D01*
X36682876Y26126041D01*
X36681503Y26131163D01*
X36678653Y26137275D01*
X36675666Y26144217D01*
X36625228Y26271936D01*
X36588327Y26332746D01*
X36586789Y26335626D01*
X36586710Y26335580D01*
X36583961Y26340341D01*
X36581635Y26345329D01*
X36578476Y26349841D01*
X36576926Y26352055D01*
X36572419Y26358962D01*
X36508747Y26463891D01*
X36508745Y26463894D01*
X36505979Y26468452D01*
X36455607Y26526500D01*
X36452045Y26531063D01*
X36449253Y26534390D01*
X36446095Y26538901D01*
X36439809Y26545187D01*
X36433739Y26551701D01*
X36358824Y26638033D01*
X36358822Y26638035D01*
X36355324Y26642066D01*
X36291292Y26694570D01*
X36284026Y26701152D01*
X36282894Y26702102D01*
X36279001Y26705995D01*
X36274497Y26709149D01*
X36274492Y26709153D01*
X36271664Y26711133D01*
X36264046Y26716910D01*
X36181699Y26784431D01*
X36181693Y26784435D01*
X36177571Y26787815D01*
X36100245Y26831831D01*
X36090304Y26838122D01*
X36089940Y26838377D01*
X36089933Y26838381D01*
X36085429Y26841535D01*
X36080445Y26843859D01*
X36080440Y26843862D01*
X36077725Y26845128D01*
X36068648Y26849818D01*
X36017408Y26878985D01*
X35977802Y26901530D01*
X35888102Y26934090D01*
X35877847Y26938333D01*
X35876252Y26939077D01*
X35876250Y26939078D01*
X35871263Y26941403D01*
X35865947Y26942827D01*
X35865945Y26942828D01*
X35864881Y26943113D01*
X35863898Y26943376D01*
X35853519Y26946643D01*
X35761729Y26979961D01*
X35661157Y26998148D01*
X35650984Y27000426D01*
X35643008Y27002563D01*
X35636610Y27003123D01*
X35625188Y27004652D01*
X35535531Y27020864D01*
X35531392Y27021059D01*
X35531385Y27021060D01*
X35512930Y27021930D01*
X35512923Y27021930D01*
X35511442Y27022000D01*
X35349888Y27022000D01*
X35270156Y27015235D01*
X35183867Y27007913D01*
X35183863Y27007912D01*
X35178556Y27007462D01*
X35173401Y27006124D01*
X35173395Y27006123D01*
X35018797Y26965997D01*
X34956061Y26949714D01*
X34849097Y26901530D01*
X34751338Y26857493D01*
X34751335Y26857492D01*
X34746477Y26855303D01*
X34555797Y26726930D01*
X34551940Y26723251D01*
X34551938Y26723249D01*
X34526004Y26698509D01*
X34389472Y26568264D01*
X34252258Y26383842D01*
X34249842Y26379091D01*
X34249840Y26379087D01*
X34166988Y26216128D01*
X34148080Y26178938D01*
X34079915Y25959411D01*
X34079214Y25954122D01*
X34058346Y25796674D01*
X34049712Y25731536D01*
X32141848Y25731536D01*
X32143453Y25734978D01*
X32171347Y25794797D01*
X32228161Y26006826D01*
X32247292Y26225500D01*
X32228161Y26444174D01*
X32171347Y26656203D01*
X32101639Y26805693D01*
X32080905Y26850159D01*
X32080902Y26850164D01*
X32078579Y26855146D01*
X32074135Y26861493D01*
X31955833Y27030446D01*
X31955831Y27030449D01*
X31952674Y27034957D01*
X31797457Y27190174D01*
X31792949Y27193331D01*
X31792946Y27193333D01*
X31622155Y27312922D01*
X31622153Y27312923D01*
X31617646Y27316079D01*
X31612664Y27318402D01*
X31612659Y27318405D01*
X31497533Y27372088D01*
X31418703Y27408847D01*
X31206674Y27465661D01*
X30988000Y27484792D01*
X30769326Y27465661D01*
X30557297Y27408847D01*
X30478467Y27372088D01*
X30363341Y27318405D01*
X30363336Y27318402D01*
X30358354Y27316079D01*
X30353847Y27312923D01*
X30353845Y27312922D01*
X30183054Y27193333D01*
X30183051Y27193331D01*
X30178543Y27190174D01*
X30023326Y27034957D01*
X30020169Y27030449D01*
X30020167Y27030446D01*
X29901865Y26861493D01*
X29897421Y26855146D01*
X29895098Y26850164D01*
X29895095Y26850159D01*
X29874361Y26805693D01*
X29804653Y26656203D01*
X29747839Y26444174D01*
X29728708Y26225500D01*
X24129330Y26225500D01*
X24110046Y26445917D01*
X24081701Y26551701D01*
X24054203Y26654326D01*
X24054202Y26654328D01*
X24052780Y26659636D01*
X24033421Y26701152D01*
X23961598Y26855178D01*
X23961595Y26855183D01*
X23959272Y26860165D01*
X23945702Y26879545D01*
X23835522Y27036899D01*
X23835520Y27036902D01*
X23832363Y27041410D01*
X23675910Y27197863D01*
X23671402Y27201020D01*
X23671399Y27201022D01*
X23499174Y27321615D01*
X23499172Y27321616D01*
X23494665Y27324772D01*
X23489683Y27327095D01*
X23489678Y27327098D01*
X23299118Y27415957D01*
X23299117Y27415957D01*
X23294136Y27418280D01*
X23288828Y27419702D01*
X23288826Y27419703D01*
X23085732Y27474122D01*
X23085730Y27474122D01*
X23080417Y27475546D01*
X22860000Y27494830D01*
X22639583Y27475546D01*
X22634270Y27474122D01*
X22634268Y27474122D01*
X22431174Y27419703D01*
X22431172Y27419702D01*
X22425864Y27418280D01*
X22420883Y27415957D01*
X22420882Y27415957D01*
X22230322Y27327098D01*
X22230317Y27327095D01*
X22225335Y27324772D01*
X22220828Y27321616D01*
X22220826Y27321615D01*
X22048601Y27201022D01*
X22048598Y27201020D01*
X22044090Y27197863D01*
X21887637Y27041410D01*
X21884480Y27036902D01*
X21884478Y27036899D01*
X21774298Y26879545D01*
X21760728Y26860165D01*
X21758405Y26855183D01*
X21758402Y26855178D01*
X21686579Y26701152D01*
X21667220Y26659636D01*
X21665798Y26654328D01*
X21665797Y26654326D01*
X21638299Y26551701D01*
X21609954Y26445917D01*
X21590670Y26225500D01*
X16475966Y26225500D01*
X16457628Y26271936D01*
X16420727Y26332746D01*
X16419189Y26335626D01*
X16419110Y26335580D01*
X16416361Y26340341D01*
X16414035Y26345329D01*
X16410876Y26349841D01*
X16409326Y26352055D01*
X16404819Y26358962D01*
X16341147Y26463891D01*
X16341145Y26463894D01*
X16338379Y26468452D01*
X16288007Y26526500D01*
X16284445Y26531063D01*
X16281653Y26534390D01*
X16278495Y26538901D01*
X16272209Y26545187D01*
X16266139Y26551701D01*
X16191224Y26638033D01*
X16191222Y26638035D01*
X16187724Y26642066D01*
X16123692Y26694570D01*
X16116426Y26701152D01*
X16115294Y26702102D01*
X16111401Y26705995D01*
X16106897Y26709149D01*
X16106892Y26709153D01*
X16104064Y26711133D01*
X16096446Y26716910D01*
X16014099Y26784431D01*
X16014093Y26784435D01*
X16009971Y26787815D01*
X15932645Y26831831D01*
X15922704Y26838122D01*
X15922340Y26838377D01*
X15922333Y26838381D01*
X15917829Y26841535D01*
X15912845Y26843859D01*
X15912840Y26843862D01*
X15910125Y26845128D01*
X15901048Y26849818D01*
X15849808Y26878985D01*
X15810202Y26901530D01*
X15720502Y26934090D01*
X15710247Y26938333D01*
X15708652Y26939077D01*
X15708650Y26939078D01*
X15703663Y26941403D01*
X15698347Y26942827D01*
X15698345Y26942828D01*
X15697281Y26943113D01*
X15696298Y26943376D01*
X15685919Y26946643D01*
X15594129Y26979961D01*
X15493557Y26998148D01*
X15483384Y27000426D01*
X15475408Y27002563D01*
X15469010Y27003123D01*
X15457588Y27004652D01*
X15367931Y27020864D01*
X15363792Y27021059D01*
X15363785Y27021060D01*
X15345330Y27021930D01*
X15345323Y27021930D01*
X15343842Y27022000D01*
X15182288Y27022000D01*
X15102556Y27015235D01*
X15016267Y27007913D01*
X15016263Y27007912D01*
X15010956Y27007462D01*
X15005801Y27006124D01*
X15005795Y27006123D01*
X14851197Y26965997D01*
X14788461Y26949714D01*
X14681497Y26901530D01*
X14583738Y26857493D01*
X14583735Y26857492D01*
X14578877Y26855303D01*
X14388197Y26726930D01*
X14384340Y26723251D01*
X14384338Y26723249D01*
X14358404Y26698509D01*
X14221872Y26568264D01*
X14084658Y26383842D01*
X14082242Y26379091D01*
X14082240Y26379087D01*
X13999388Y26216128D01*
X13980480Y26178938D01*
X13912315Y25959411D01*
X13911614Y25954122D01*
X13890746Y25796674D01*
X13882112Y25731536D01*
X10776691Y25731536D01*
X10789285Y25827200D01*
X10779783Y25899379D01*
X10771306Y25963768D01*
X10771305Y25963770D01*
X10770228Y25971954D01*
X10736690Y26052922D01*
X10717515Y26099214D01*
X10717514Y26099216D01*
X10714355Y26106842D01*
X10625474Y26222674D01*
X10618924Y26227700D01*
X10618921Y26227703D01*
X10516196Y26306527D01*
X10516194Y26306528D01*
X10509643Y26311555D01*
X10374754Y26367428D01*
X10230000Y26386485D01*
X10221812Y26385407D01*
X10093432Y26368506D01*
X10093430Y26368505D01*
X10085246Y26367428D01*
X10048133Y26352055D01*
X9957986Y26314715D01*
X9957984Y26314714D01*
X9950358Y26311555D01*
X9834526Y26222674D01*
X9745645Y26106842D01*
X9742486Y26099216D01*
X9742485Y26099214D01*
X9723310Y26052922D01*
X9689772Y25971954D01*
X9688695Y25963770D01*
X9688694Y25963768D01*
X9680217Y25899379D01*
X9670715Y25827200D01*
X8296166Y25827200D01*
X8296656Y25827838D01*
X8350728Y25898307D01*
X8355755Y25904858D01*
X8411628Y26039746D01*
X8414702Y26063091D01*
X8429607Y26176312D01*
X8430685Y26184500D01*
X8411628Y26329254D01*
X8355755Y26464142D01*
X8279142Y26563986D01*
X8271901Y26573423D01*
X8271900Y26573424D01*
X8266874Y26579974D01*
X8260324Y26585000D01*
X8260321Y26585003D01*
X8157596Y26663827D01*
X8157594Y26663828D01*
X8151043Y26668855D01*
X8016154Y26724728D01*
X7976793Y26729910D01*
X7879588Y26742707D01*
X7871400Y26743785D01*
X7863212Y26742707D01*
X7734832Y26725806D01*
X7734830Y26725805D01*
X7726646Y26724728D01*
X7707772Y26716910D01*
X7599386Y26672015D01*
X7599384Y26672014D01*
X7591758Y26668855D01*
X7475926Y26579974D01*
X7387045Y26464142D01*
X7331172Y26329254D01*
X7312115Y26184500D01*
X7313193Y26176312D01*
X7328099Y26063091D01*
X7331172Y26039746D01*
X7387045Y25904858D01*
X7392072Y25898307D01*
X7446145Y25827838D01*
X7475926Y25789026D01*
X7546366Y25734975D01*
X7588231Y25677640D01*
X7592453Y25606769D01*
X7557689Y25544866D01*
X7517878Y25518606D01*
X7464781Y25496612D01*
X7426258Y25480655D01*
X7310426Y25391774D01*
X7221545Y25275942D01*
X7218386Y25268316D01*
X7218385Y25268314D01*
X7193900Y25209202D01*
X7165672Y25141054D01*
X7164595Y25132870D01*
X7164594Y25132868D01*
X7154804Y25058503D01*
X7146615Y24996300D01*
X4215457Y24996300D01*
X4228307Y25093912D01*
X4229385Y25102100D01*
X4221610Y25161157D01*
X4211406Y25238668D01*
X4211405Y25238670D01*
X4210328Y25246854D01*
X4168484Y25347873D01*
X4157615Y25374114D01*
X4157614Y25374116D01*
X4154455Y25381742D01*
X4082414Y25475628D01*
X4070601Y25491023D01*
X4070600Y25491024D01*
X4065574Y25497574D01*
X4059024Y25502600D01*
X4059021Y25502603D01*
X3956296Y25581427D01*
X3956294Y25581428D01*
X3949743Y25586455D01*
X3814854Y25642328D01*
X3670100Y25661385D01*
X3661912Y25660307D01*
X3533532Y25643406D01*
X3533530Y25643405D01*
X3525346Y25642328D01*
X3509910Y25635934D01*
X3398086Y25589615D01*
X3398084Y25589614D01*
X3390458Y25586455D01*
X3274626Y25497574D01*
X3185745Y25381742D01*
X3182586Y25374116D01*
X3182585Y25374114D01*
X3171716Y25347873D01*
X3129872Y25246854D01*
X3128795Y25238670D01*
X3128794Y25238668D01*
X3118590Y25161157D01*
X3110815Y25102100D01*
X1054100Y25102100D01*
X1054100Y26811852D01*
X1074102Y26879973D01*
X1127758Y26926466D01*
X1196545Y26936774D01*
X1257000Y26928815D01*
X1265188Y26929893D01*
X1393566Y26946794D01*
X1401754Y26947872D01*
X1536643Y27003745D01*
X1543196Y27008773D01*
X1645921Y27087597D01*
X1645924Y27087600D01*
X1652474Y27092626D01*
X1741355Y27208458D01*
X1797228Y27343346D01*
X1799199Y27358312D01*
X1815207Y27479912D01*
X1816285Y27488100D01*
X1805229Y27572080D01*
X1798306Y27624668D01*
X1798305Y27624670D01*
X1797228Y27632854D01*
X1772847Y27691714D01*
X1744515Y27760114D01*
X1744514Y27760116D01*
X1741355Y27767742D01*
X1677580Y27850855D01*
X1670336Y27860296D01*
X1644736Y27926517D01*
X1659001Y27996065D01*
X1708602Y28046861D01*
X1770299Y28063000D01*
X5759518Y28063000D01*
X5827639Y28042998D01*
G37*
%TD.AperFunction*%
%TD*%
M02*
