%TF.GenerationSoftware,KiCad,Pcbnew,(6.0.4-0)*%
%TF.CreationDate,2023-05-17T14:52:11-05:00*%
%TF.ProjectId,voltage_sense,766f6c74-6167-4655-9f73-656e73652e6b,rev?*%
%TF.SameCoordinates,Original*%
%TF.FileFunction,Legend,Top*%
%TF.FilePolarity,Positive*%
%FSLAX46Y46*%
G04 Gerber Fmt 4.6, Leading zero omitted, Abs format (unit mm)*
G04 Created by KiCad (PCBNEW (6.0.4-0)) date 2023-05-17 14:52:11*
%MOMM*%
%LPD*%
G01*
G04 APERTURE LIST*
G04 Aperture macros list*
%AMRoundRect*
0 Rectangle with rounded corners*
0 $1 Rounding radius*
0 $2 $3 $4 $5 $6 $7 $8 $9 X,Y pos of 4 corners*
0 Add a 4 corners polygon primitive as box body*
4,1,4,$2,$3,$4,$5,$6,$7,$8,$9,$2,$3,0*
0 Add four circle primitives for the rounded corners*
1,1,$1+$1,$2,$3*
1,1,$1+$1,$4,$5*
1,1,$1+$1,$6,$7*
1,1,$1+$1,$8,$9*
0 Add four rect primitives between the rounded corners*
20,1,$1+$1,$2,$3,$4,$5,0*
20,1,$1+$1,$4,$5,$6,$7,0*
20,1,$1+$1,$6,$7,$8,$9,0*
20,1,$1+$1,$8,$9,$2,$3,0*%
G04 Aperture macros list end*
%ADD10C,0.150000*%
%ADD11C,0.096520*%
%ADD12C,0.100000*%
%ADD13C,0.146710*%
%ADD14C,0.120000*%
%ADD15C,0.127000*%
%ADD16C,0.203200*%
%ADD17RoundRect,0.150000X-0.512500X-0.150000X0.512500X-0.150000X0.512500X0.150000X-0.512500X0.150000X0*%
%ADD18RoundRect,0.200000X-0.200000X-0.275000X0.200000X-0.275000X0.200000X0.275000X-0.200000X0.275000X0*%
%ADD19RoundRect,0.150000X0.825000X0.150000X-0.825000X0.150000X-0.825000X-0.150000X0.825000X-0.150000X0*%
%ADD20R,1.700000X1.700000*%
%ADD21O,1.700000X1.700000*%
%ADD22RoundRect,0.225000X0.250000X-0.225000X0.250000X0.225000X-0.250000X0.225000X-0.250000X-0.225000X0*%
%ADD23C,2.020000*%
%ADD24RoundRect,0.225000X-0.250000X0.225000X-0.250000X-0.225000X0.250000X-0.225000X0.250000X0.225000X0*%
%ADD25RoundRect,0.200000X0.200000X0.275000X-0.200000X0.275000X-0.200000X-0.275000X0.200000X-0.275000X0*%
%ADD26RoundRect,0.200000X0.275000X-0.200000X0.275000X0.200000X-0.275000X0.200000X-0.275000X-0.200000X0*%
%ADD27R,0.600000X0.420000*%
%ADD28RoundRect,0.225000X-0.225000X-0.250000X0.225000X-0.250000X0.225000X0.250000X-0.225000X0.250000X0*%
%ADD29C,2.000000*%
%ADD30C,2.200000*%
%ADD31O,2.500000X1.600000*%
%ADD32O,7.000000X3.500000*%
%ADD33RoundRect,0.101600X-0.950000X0.150000X-0.950000X-0.150000X0.950000X-0.150000X0.950000X0.150000X0*%
%ADD34RoundRect,0.100000X-0.950000X0.150000X-0.950000X-0.150000X0.950000X-0.150000X0.950000X0.150000X0*%
%ADD35C,2.153200*%
%ADD36C,4.400000*%
%ADD37RoundRect,0.250000X-0.325000X-0.650000X0.325000X-0.650000X0.325000X0.650000X-0.325000X0.650000X0*%
%ADD38RoundRect,0.225000X0.225000X0.250000X-0.225000X0.250000X-0.225000X-0.250000X0.225000X-0.250000X0*%
%ADD39R,2.790000X1.190000*%
%ADD40C,2.108200*%
%ADD41C,2.870200*%
G04 APERTURE END LIST*
D10*
%TO.C,U3*%
X22606095Y13983919D02*
X22606095Y13174395D01*
X22653714Y13079157D01*
X22701333Y13031538D01*
X22796571Y12983919D01*
X22987047Y12983919D01*
X23082285Y13031538D01*
X23129904Y13079157D01*
X23177523Y13174395D01*
X23177523Y13983919D01*
X23558476Y13983919D02*
X24177523Y13983919D01*
X23844190Y13602966D01*
X23987047Y13602966D01*
X24082285Y13555347D01*
X24129904Y13507728D01*
X24177523Y13412490D01*
X24177523Y13174395D01*
X24129904Y13079157D01*
X24082285Y13031538D01*
X23987047Y12983919D01*
X23701333Y12983919D01*
X23606095Y13031538D01*
X23558476Y13079157D01*
%TO.C,R10*%
X17137142Y7899119D02*
X16803809Y8375309D01*
X16565714Y7899119D02*
X16565714Y8899119D01*
X16946666Y8899119D01*
X17041904Y8851500D01*
X17089523Y8803880D01*
X17137142Y8708642D01*
X17137142Y8565785D01*
X17089523Y8470547D01*
X17041904Y8422928D01*
X16946666Y8375309D01*
X16565714Y8375309D01*
X18089523Y7899119D02*
X17518095Y7899119D01*
X17803809Y7899119D02*
X17803809Y8899119D01*
X17708571Y8756261D01*
X17613333Y8661023D01*
X17518095Y8613404D01*
X18708571Y8899119D02*
X18803809Y8899119D01*
X18899047Y8851500D01*
X18946666Y8803880D01*
X18994285Y8708642D01*
X19041904Y8518166D01*
X19041904Y8280071D01*
X18994285Y8089595D01*
X18946666Y7994357D01*
X18899047Y7946738D01*
X18803809Y7899119D01*
X18708571Y7899119D01*
X18613333Y7946738D01*
X18565714Y7994357D01*
X18518095Y8089595D01*
X18470476Y8280071D01*
X18470476Y8518166D01*
X18518095Y8708642D01*
X18565714Y8803880D01*
X18613333Y8851500D01*
X18708571Y8899119D01*
%TO.C,U2*%
X30734095Y13848119D02*
X30734095Y13038595D01*
X30781714Y12943357D01*
X30829333Y12895738D01*
X30924571Y12848119D01*
X31115047Y12848119D01*
X31210285Y12895738D01*
X31257904Y12943357D01*
X31305523Y13038595D01*
X31305523Y13848119D01*
X31734095Y13752880D02*
X31781714Y13800500D01*
X31876952Y13848119D01*
X32115047Y13848119D01*
X32210285Y13800500D01*
X32257904Y13752880D01*
X32305523Y13657642D01*
X32305523Y13562404D01*
X32257904Y13419547D01*
X31686476Y12848119D01*
X32305523Y12848119D01*
%TO.C,J2*%
X17724380Y-1606833D02*
X18438666Y-1606833D01*
X18581523Y-1654452D01*
X18676761Y-1749690D01*
X18724380Y-1892547D01*
X18724380Y-1987785D01*
X17819619Y-1178261D02*
X17772000Y-1130642D01*
X17724380Y-1035404D01*
X17724380Y-797309D01*
X17772000Y-702071D01*
X17819619Y-654452D01*
X17914857Y-606833D01*
X18010095Y-606833D01*
X18152952Y-654452D01*
X18724380Y-1225880D01*
X18724380Y-606833D01*
%TO.C,R13*%
X25773142Y21361119D02*
X25439809Y21837309D01*
X25201714Y21361119D02*
X25201714Y22361119D01*
X25582666Y22361119D01*
X25677904Y22313500D01*
X25725523Y22265880D01*
X25773142Y22170642D01*
X25773142Y22027785D01*
X25725523Y21932547D01*
X25677904Y21884928D01*
X25582666Y21837309D01*
X25201714Y21837309D01*
X26725523Y21361119D02*
X26154095Y21361119D01*
X26439809Y21361119D02*
X26439809Y22361119D01*
X26344571Y22218261D01*
X26249333Y22123023D01*
X26154095Y22075404D01*
X27058857Y22361119D02*
X27677904Y22361119D01*
X27344571Y21980166D01*
X27487428Y21980166D01*
X27582666Y21932547D01*
X27630285Y21884928D01*
X27677904Y21789690D01*
X27677904Y21551595D01*
X27630285Y21456357D01*
X27582666Y21408738D01*
X27487428Y21361119D01*
X27201714Y21361119D01*
X27106476Y21408738D01*
X27058857Y21456357D01*
%TO.C,C6*%
X42107142Y25550833D02*
X42154761Y25503214D01*
X42202380Y25360357D01*
X42202380Y25265119D01*
X42154761Y25122261D01*
X42059523Y25027023D01*
X41964285Y24979404D01*
X41773809Y24931785D01*
X41630952Y24931785D01*
X41440476Y24979404D01*
X41345238Y25027023D01*
X41250000Y25122261D01*
X41202380Y25265119D01*
X41202380Y25360357D01*
X41250000Y25503214D01*
X41297619Y25550833D01*
X41202380Y26407976D02*
X41202380Y26217500D01*
X41250000Y26122261D01*
X41297619Y26074642D01*
X41440476Y25979404D01*
X41630952Y25931785D01*
X42011904Y25931785D01*
X42107142Y25979404D01*
X42154761Y26027023D01*
X42202380Y26122261D01*
X42202380Y26312738D01*
X42154761Y26407976D01*
X42107142Y26455595D01*
X42011904Y26503214D01*
X41773809Y26503214D01*
X41678571Y26455595D01*
X41630952Y26407976D01*
X41583333Y26312738D01*
X41583333Y26122261D01*
X41630952Y26027023D01*
X41678571Y25979404D01*
X41773809Y25931785D01*
%TO.C,C7*%
X27502142Y12088833D02*
X27549761Y12041214D01*
X27597380Y11898357D01*
X27597380Y11803119D01*
X27549761Y11660261D01*
X27454523Y11565023D01*
X27359285Y11517404D01*
X27168809Y11469785D01*
X27025952Y11469785D01*
X26835476Y11517404D01*
X26740238Y11565023D01*
X26645000Y11660261D01*
X26597380Y11803119D01*
X26597380Y11898357D01*
X26645000Y12041214D01*
X26692619Y12088833D01*
X26597380Y12422166D02*
X26597380Y13088833D01*
X27597380Y12660261D01*
%TO.C,TP1*%
X23503095Y5818119D02*
X24074523Y5818119D01*
X23788809Y4818119D02*
X23788809Y5818119D01*
X24407857Y4818119D02*
X24407857Y5818119D01*
X24788809Y5818119D01*
X24884047Y5770500D01*
X24931666Y5722880D01*
X24979285Y5627642D01*
X24979285Y5484785D01*
X24931666Y5389547D01*
X24884047Y5341928D01*
X24788809Y5294309D01*
X24407857Y5294309D01*
X25931666Y4818119D02*
X25360238Y4818119D01*
X25645952Y4818119D02*
X25645952Y5818119D01*
X25550714Y5675261D01*
X25455476Y5580023D01*
X25360238Y5532404D01*
%TO.C,R4*%
X10755333Y12057119D02*
X10422000Y12533309D01*
X10183904Y12057119D02*
X10183904Y13057119D01*
X10564857Y13057119D01*
X10660095Y13009500D01*
X10707714Y12961880D01*
X10755333Y12866642D01*
X10755333Y12723785D01*
X10707714Y12628547D01*
X10660095Y12580928D01*
X10564857Y12533309D01*
X10183904Y12533309D01*
X11612476Y12723785D02*
X11612476Y12057119D01*
X11374380Y13104738D02*
X11136285Y12390452D01*
X11755333Y12390452D01*
%TO.C,C31*%
X11947142Y7675642D02*
X11994761Y7628023D01*
X12042380Y7485166D01*
X12042380Y7389928D01*
X11994761Y7247071D01*
X11899523Y7151833D01*
X11804285Y7104214D01*
X11613809Y7056595D01*
X11470952Y7056595D01*
X11280476Y7104214D01*
X11185238Y7151833D01*
X11090000Y7247071D01*
X11042380Y7389928D01*
X11042380Y7485166D01*
X11090000Y7628023D01*
X11137619Y7675642D01*
X11042380Y8008976D02*
X11042380Y8628023D01*
X11423333Y8294690D01*
X11423333Y8437547D01*
X11470952Y8532785D01*
X11518571Y8580404D01*
X11613809Y8628023D01*
X11851904Y8628023D01*
X11947142Y8580404D01*
X11994761Y8532785D01*
X12042380Y8437547D01*
X12042380Y8151833D01*
X11994761Y8056595D01*
X11947142Y8008976D01*
X12042380Y9580404D02*
X12042380Y9008976D01*
X12042380Y9294690D02*
X11042380Y9294690D01*
X11185238Y9199452D01*
X11280476Y9104214D01*
X11328095Y9008976D01*
%TO.C,R6*%
X24090333Y7899119D02*
X23757000Y8375309D01*
X23518904Y7899119D02*
X23518904Y8899119D01*
X23899857Y8899119D01*
X23995095Y8851500D01*
X24042714Y8803880D01*
X24090333Y8708642D01*
X24090333Y8565785D01*
X24042714Y8470547D01*
X23995095Y8422928D01*
X23899857Y8375309D01*
X23518904Y8375309D01*
X24947476Y8899119D02*
X24757000Y8899119D01*
X24661761Y8851500D01*
X24614142Y8803880D01*
X24518904Y8661023D01*
X24471285Y8470547D01*
X24471285Y8089595D01*
X24518904Y7994357D01*
X24566523Y7946738D01*
X24661761Y7899119D01*
X24852238Y7899119D01*
X24947476Y7946738D01*
X24995095Y7994357D01*
X25042714Y8089595D01*
X25042714Y8327690D01*
X24995095Y8422928D01*
X24947476Y8470547D01*
X24852238Y8518166D01*
X24661761Y8518166D01*
X24566523Y8470547D01*
X24518904Y8422928D01*
X24471285Y8327690D01*
%TO.C,C8*%
X18739142Y11072833D02*
X18786761Y11025214D01*
X18834380Y10882357D01*
X18834380Y10787119D01*
X18786761Y10644261D01*
X18691523Y10549023D01*
X18596285Y10501404D01*
X18405809Y10453785D01*
X18262952Y10453785D01*
X18072476Y10501404D01*
X17977238Y10549023D01*
X17882000Y10644261D01*
X17834380Y10787119D01*
X17834380Y10882357D01*
X17882000Y11025214D01*
X17929619Y11072833D01*
X18262952Y11644261D02*
X18215333Y11549023D01*
X18167714Y11501404D01*
X18072476Y11453785D01*
X18024857Y11453785D01*
X17929619Y11501404D01*
X17882000Y11549023D01*
X17834380Y11644261D01*
X17834380Y11834738D01*
X17882000Y11929976D01*
X17929619Y11977595D01*
X18024857Y12025214D01*
X18072476Y12025214D01*
X18167714Y11977595D01*
X18215333Y11929976D01*
X18262952Y11834738D01*
X18262952Y11644261D01*
X18310571Y11549023D01*
X18358190Y11501404D01*
X18453428Y11453785D01*
X18643904Y11453785D01*
X18739142Y11501404D01*
X18786761Y11549023D01*
X18834380Y11644261D01*
X18834380Y11834738D01*
X18786761Y11929976D01*
X18739142Y11977595D01*
X18643904Y12025214D01*
X18453428Y12025214D01*
X18358190Y11977595D01*
X18310571Y11929976D01*
X18262952Y11834738D01*
%TO.C,R66*%
X4945142Y27170119D02*
X4611809Y27646309D01*
X4373714Y27170119D02*
X4373714Y28170119D01*
X4754666Y28170119D01*
X4849904Y28122500D01*
X4897523Y28074880D01*
X4945142Y27979642D01*
X4945142Y27836785D01*
X4897523Y27741547D01*
X4849904Y27693928D01*
X4754666Y27646309D01*
X4373714Y27646309D01*
X5802285Y28170119D02*
X5611809Y28170119D01*
X5516571Y28122500D01*
X5468952Y28074880D01*
X5373714Y27932023D01*
X5326095Y27741547D01*
X5326095Y27360595D01*
X5373714Y27265357D01*
X5421333Y27217738D01*
X5516571Y27170119D01*
X5707047Y27170119D01*
X5802285Y27217738D01*
X5849904Y27265357D01*
X5897523Y27360595D01*
X5897523Y27598690D01*
X5849904Y27693928D01*
X5802285Y27741547D01*
X5707047Y27789166D01*
X5516571Y27789166D01*
X5421333Y27741547D01*
X5373714Y27693928D01*
X5326095Y27598690D01*
X6754666Y28170119D02*
X6564190Y28170119D01*
X6468952Y28122500D01*
X6421333Y28074880D01*
X6326095Y27932023D01*
X6278476Y27741547D01*
X6278476Y27360595D01*
X6326095Y27265357D01*
X6373714Y27217738D01*
X6468952Y27170119D01*
X6659428Y27170119D01*
X6754666Y27217738D01*
X6802285Y27265357D01*
X6849904Y27360595D01*
X6849904Y27598690D01*
X6802285Y27693928D01*
X6754666Y27741547D01*
X6659428Y27789166D01*
X6468952Y27789166D01*
X6373714Y27741547D01*
X6326095Y27693928D01*
X6278476Y27598690D01*
%TO.C,R71*%
X40170380Y3738642D02*
X39694190Y3405309D01*
X40170380Y3167214D02*
X39170380Y3167214D01*
X39170380Y3548166D01*
X39218000Y3643404D01*
X39265619Y3691023D01*
X39360857Y3738642D01*
X39503714Y3738642D01*
X39598952Y3691023D01*
X39646571Y3643404D01*
X39694190Y3548166D01*
X39694190Y3167214D01*
X39170380Y4071976D02*
X39170380Y4738642D01*
X40170380Y4310071D01*
X40170380Y5643404D02*
X40170380Y5071976D01*
X40170380Y5357690D02*
X39170380Y5357690D01*
X39313238Y5262452D01*
X39408476Y5167214D01*
X39456095Y5071976D01*
%TO.C,C32*%
X39059142Y25074642D02*
X39106761Y25027023D01*
X39154380Y24884166D01*
X39154380Y24788928D01*
X39106761Y24646071D01*
X39011523Y24550833D01*
X38916285Y24503214D01*
X38725809Y24455595D01*
X38582952Y24455595D01*
X38392476Y24503214D01*
X38297238Y24550833D01*
X38202000Y24646071D01*
X38154380Y24788928D01*
X38154380Y24884166D01*
X38202000Y25027023D01*
X38249619Y25074642D01*
X38154380Y25407976D02*
X38154380Y26027023D01*
X38535333Y25693690D01*
X38535333Y25836547D01*
X38582952Y25931785D01*
X38630571Y25979404D01*
X38725809Y26027023D01*
X38963904Y26027023D01*
X39059142Y25979404D01*
X39106761Y25931785D01*
X39154380Y25836547D01*
X39154380Y25550833D01*
X39106761Y25455595D01*
X39059142Y25407976D01*
X38249619Y26407976D02*
X38202000Y26455595D01*
X38154380Y26550833D01*
X38154380Y26788928D01*
X38202000Y26884166D01*
X38249619Y26931785D01*
X38344857Y26979404D01*
X38440095Y26979404D01*
X38582952Y26931785D01*
X39154380Y26360357D01*
X39154380Y26979404D01*
%TO.C,R16*%
X19169142Y4310119D02*
X18835809Y4786309D01*
X18597714Y4310119D02*
X18597714Y5310119D01*
X18978666Y5310119D01*
X19073904Y5262500D01*
X19121523Y5214880D01*
X19169142Y5119642D01*
X19169142Y4976785D01*
X19121523Y4881547D01*
X19073904Y4833928D01*
X18978666Y4786309D01*
X18597714Y4786309D01*
X20121523Y4310119D02*
X19550095Y4310119D01*
X19835809Y4310119D02*
X19835809Y5310119D01*
X19740571Y5167261D01*
X19645333Y5072023D01*
X19550095Y5024404D01*
X20978666Y5310119D02*
X20788190Y5310119D01*
X20692952Y5262500D01*
X20645333Y5214880D01*
X20550095Y5072023D01*
X20502476Y4881547D01*
X20502476Y4500595D01*
X20550095Y4405357D01*
X20597714Y4357738D01*
X20692952Y4310119D01*
X20883428Y4310119D01*
X20978666Y4357738D01*
X21026285Y4405357D01*
X21073904Y4500595D01*
X21073904Y4738690D01*
X21026285Y4833928D01*
X20978666Y4881547D01*
X20883428Y4929166D01*
X20692952Y4929166D01*
X20597714Y4881547D01*
X20550095Y4833928D01*
X20502476Y4738690D01*
%TO.C,U4*%
X25106380Y22796595D02*
X25915904Y22796595D01*
X26011142Y22844214D01*
X26058761Y22891833D01*
X26106380Y22987071D01*
X26106380Y23177547D01*
X26058761Y23272785D01*
X26011142Y23320404D01*
X25915904Y23368023D01*
X25106380Y23368023D01*
X25439714Y24272785D02*
X26106380Y24272785D01*
X25058761Y24034690D02*
X25773047Y23796595D01*
X25773047Y24415642D01*
%TO.C,IC1*%
X13755809Y12933119D02*
X13755809Y13933119D01*
X14803428Y13028357D02*
X14755809Y12980738D01*
X14612952Y12933119D01*
X14517714Y12933119D01*
X14374857Y12980738D01*
X14279619Y13075976D01*
X14232000Y13171214D01*
X14184380Y13361690D01*
X14184380Y13504547D01*
X14232000Y13695023D01*
X14279619Y13790261D01*
X14374857Y13885500D01*
X14517714Y13933119D01*
X14612952Y13933119D01*
X14755809Y13885500D01*
X14803428Y13837880D01*
X15755809Y12933119D02*
X15184380Y12933119D01*
X15470095Y12933119D02*
X15470095Y13933119D01*
X15374857Y13790261D01*
X15279619Y13695023D01*
X15184380Y13647404D01*
%TO.C,C11*%
X20489942Y7994357D02*
X20442323Y7946738D01*
X20299466Y7899119D01*
X20204228Y7899119D01*
X20061371Y7946738D01*
X19966133Y8041976D01*
X19918514Y8137214D01*
X19870895Y8327690D01*
X19870895Y8470547D01*
X19918514Y8661023D01*
X19966133Y8756261D01*
X20061371Y8851500D01*
X20204228Y8899119D01*
X20299466Y8899119D01*
X20442323Y8851500D01*
X20489942Y8803880D01*
X21442323Y7899119D02*
X20870895Y7899119D01*
X21156609Y7899119D02*
X21156609Y8899119D01*
X21061371Y8756261D01*
X20966133Y8661023D01*
X20870895Y8613404D01*
X22394704Y7899119D02*
X21823276Y7899119D01*
X22108990Y7899119D02*
X22108990Y8899119D01*
X22013752Y8756261D01*
X21918514Y8661023D01*
X21823276Y8613404D01*
%TO.C,TP9*%
X32599380Y24963595D02*
X32599380Y25535023D01*
X33599380Y25249309D02*
X32599380Y25249309D01*
X33599380Y25868357D02*
X32599380Y25868357D01*
X32599380Y26249309D01*
X32647000Y26344547D01*
X32694619Y26392166D01*
X32789857Y26439785D01*
X32932714Y26439785D01*
X33027952Y26392166D01*
X33075571Y26344547D01*
X33123190Y26249309D01*
X33123190Y25868357D01*
X33599380Y26915976D02*
X33599380Y27106452D01*
X33551761Y27201690D01*
X33504142Y27249309D01*
X33361285Y27344547D01*
X33170809Y27392166D01*
X32789857Y27392166D01*
X32694619Y27344547D01*
X32647000Y27296928D01*
X32599380Y27201690D01*
X32599380Y27011214D01*
X32647000Y26915976D01*
X32694619Y26868357D01*
X32789857Y26820738D01*
X33027952Y26820738D01*
X33123190Y26868357D01*
X33170809Y26915976D01*
X33218428Y27011214D01*
X33218428Y27201690D01*
X33170809Y27296928D01*
X33123190Y27344547D01*
X33027952Y27392166D01*
%TO.C,H7*%
X32766095Y22421119D02*
X32766095Y23421119D01*
X32766095Y22944928D02*
X33337523Y22944928D01*
X33337523Y22421119D02*
X33337523Y23421119D01*
X33718476Y23421119D02*
X34385142Y23421119D01*
X33956571Y22421119D01*
%TO.C,R11*%
X27170142Y24409119D02*
X26836809Y24885309D01*
X26598714Y24409119D02*
X26598714Y25409119D01*
X26979666Y25409119D01*
X27074904Y25361500D01*
X27122523Y25313880D01*
X27170142Y25218642D01*
X27170142Y25075785D01*
X27122523Y24980547D01*
X27074904Y24932928D01*
X26979666Y24885309D01*
X26598714Y24885309D01*
X28122523Y24409119D02*
X27551095Y24409119D01*
X27836809Y24409119D02*
X27836809Y25409119D01*
X27741571Y25266261D01*
X27646333Y25171023D01*
X27551095Y25123404D01*
X29074904Y24409119D02*
X28503476Y24409119D01*
X28789190Y24409119D02*
X28789190Y25409119D01*
X28693952Y25266261D01*
X28598714Y25171023D01*
X28503476Y25123404D01*
%TO.C,J5*%
X34504380Y20812166D02*
X35218666Y20812166D01*
X35361523Y20764547D01*
X35456761Y20669309D01*
X35504380Y20526452D01*
X35504380Y20431214D01*
X34504380Y21764547D02*
X34504380Y21288357D01*
X34980571Y21240738D01*
X34932952Y21288357D01*
X34885333Y21383595D01*
X34885333Y21621690D01*
X34932952Y21716928D01*
X34980571Y21764547D01*
X35075809Y21812166D01*
X35313904Y21812166D01*
X35409142Y21764547D01*
X35456761Y21716928D01*
X35504380Y21621690D01*
X35504380Y21383595D01*
X35456761Y21288357D01*
X35409142Y21240738D01*
D11*
%TO.C,J4*%
X1577297Y14545733D02*
X2439083Y14545733D01*
X2611440Y14488280D01*
X2726345Y14373376D01*
X2783797Y14201019D01*
X2783797Y14086114D01*
X1979464Y15637328D02*
X2783797Y15637328D01*
X1519845Y15350066D02*
X2381630Y15062804D01*
X2381630Y15809685D01*
D12*
X60857Y11938376D02*
X98952Y12052661D01*
X137047Y12090757D01*
X213238Y12128852D01*
X327523Y12128852D01*
X403714Y12090757D01*
X441809Y12052661D01*
X479904Y11976471D01*
X479904Y11671709D01*
X-320095Y11671709D01*
X-320095Y11938376D01*
X-282000Y12014566D01*
X-243904Y12052661D01*
X-167714Y12090757D01*
X-91523Y12090757D01*
X-15333Y12052661D01*
X22761Y12014566D01*
X60857Y11938376D01*
X60857Y11671709D01*
X479904Y12585995D02*
X441809Y12509804D01*
X403714Y12471709D01*
X327523Y12433614D01*
X98952Y12433614D01*
X22761Y12471709D01*
X-15333Y12509804D01*
X-53428Y12585995D01*
X-53428Y12700280D01*
X-15333Y12776471D01*
X22761Y12814566D01*
X98952Y12852661D01*
X327523Y12852661D01*
X403714Y12814566D01*
X441809Y12776471D01*
X479904Y12700280D01*
X479904Y12585995D01*
X479904Y13538376D02*
X60857Y13538376D01*
X-15333Y13500280D01*
X-53428Y13424090D01*
X-53428Y13271709D01*
X-15333Y13195519D01*
X441809Y13538376D02*
X479904Y13462185D01*
X479904Y13271709D01*
X441809Y13195519D01*
X365619Y13157423D01*
X289428Y13157423D01*
X213238Y13195519D01*
X175142Y13271709D01*
X175142Y13462185D01*
X137047Y13538376D01*
X479904Y13919328D02*
X-53428Y13919328D01*
X98952Y13919328D02*
X22761Y13957423D01*
X-15333Y13995519D01*
X-53428Y14071709D01*
X-53428Y14147900D01*
X479904Y14757423D02*
X-320095Y14757423D01*
X441809Y14757423D02*
X479904Y14681233D01*
X479904Y14528852D01*
X441809Y14452661D01*
X403714Y14414566D01*
X327523Y14376471D01*
X98952Y14376471D01*
X22761Y14414566D01*
X-15333Y14452661D01*
X-53428Y14528852D01*
X-53428Y14681233D01*
X-15333Y14757423D01*
X60857Y15747900D02*
X60857Y16014566D01*
X479904Y16128852D02*
X479904Y15747900D01*
X-320095Y15747900D01*
X-320095Y16128852D01*
X479904Y16814566D02*
X-320095Y16814566D01*
X441809Y16814566D02*
X479904Y16738376D01*
X479904Y16585995D01*
X441809Y16509804D01*
X403714Y16471709D01*
X327523Y16433614D01*
X98952Y16433614D01*
X22761Y16471709D01*
X-15333Y16509804D01*
X-53428Y16585995D01*
X-53428Y16738376D01*
X-15333Y16814566D01*
X-53428Y17538376D02*
X594190Y17538376D01*
X670380Y17500280D01*
X708476Y17462185D01*
X746571Y17385995D01*
X746571Y17271709D01*
X708476Y17195519D01*
X441809Y17538376D02*
X479904Y17462185D01*
X479904Y17309804D01*
X441809Y17233614D01*
X403714Y17195519D01*
X327523Y17157423D01*
X98952Y17157423D01*
X22761Y17195519D01*
X-15333Y17233614D01*
X-53428Y17309804D01*
X-53428Y17462185D01*
X-15333Y17538376D01*
X441809Y18224090D02*
X479904Y18147900D01*
X479904Y17995519D01*
X441809Y17919328D01*
X365619Y17881233D01*
X60857Y17881233D01*
X-15333Y17919328D01*
X-53428Y17995519D01*
X-53428Y18147900D01*
X-15333Y18224090D01*
X60857Y18262185D01*
X137047Y18262185D01*
X213238Y17881233D01*
D10*
%TO.C,U1*%
X23114095Y19521119D02*
X23114095Y18711595D01*
X23161714Y18616357D01*
X23209333Y18568738D01*
X23304571Y18521119D01*
X23495047Y18521119D01*
X23590285Y18568738D01*
X23637904Y18616357D01*
X23685523Y18711595D01*
X23685523Y19521119D01*
X24685523Y18521119D02*
X24114095Y18521119D01*
X24399809Y18521119D02*
X24399809Y19521119D01*
X24304571Y19378261D01*
X24209333Y19283023D01*
X24114095Y19235404D01*
%TO.C,R1*%
X11263333Y21295119D02*
X10930000Y21771309D01*
X10691904Y21295119D02*
X10691904Y22295119D01*
X11072857Y22295119D01*
X11168095Y22247500D01*
X11215714Y22199880D01*
X11263333Y22104642D01*
X11263333Y21961785D01*
X11215714Y21866547D01*
X11168095Y21818928D01*
X11072857Y21771309D01*
X10691904Y21771309D01*
X12215714Y21295119D02*
X11644285Y21295119D01*
X11930000Y21295119D02*
X11930000Y22295119D01*
X11834761Y22152261D01*
X11739523Y22057023D01*
X11644285Y22009404D01*
%TO.C,H3*%
X44450095Y6113119D02*
X44450095Y7113119D01*
X44450095Y6636928D02*
X45021523Y6636928D01*
X45021523Y6113119D02*
X45021523Y7113119D01*
X45402476Y7113119D02*
X46021523Y7113119D01*
X45688190Y6732166D01*
X45831047Y6732166D01*
X45926285Y6684547D01*
X45973904Y6636928D01*
X46021523Y6541690D01*
X46021523Y6303595D01*
X45973904Y6208357D01*
X45926285Y6160738D01*
X45831047Y6113119D01*
X45545333Y6113119D01*
X45450095Y6160738D01*
X45402476Y6208357D01*
%TO.C,R12*%
X33312380Y11549642D02*
X32836190Y11216309D01*
X33312380Y10978214D02*
X32312380Y10978214D01*
X32312380Y11359166D01*
X32360000Y11454404D01*
X32407619Y11502023D01*
X32502857Y11549642D01*
X32645714Y11549642D01*
X32740952Y11502023D01*
X32788571Y11454404D01*
X32836190Y11359166D01*
X32836190Y10978214D01*
X33312380Y12502023D02*
X33312380Y11930595D01*
X33312380Y12216309D02*
X32312380Y12216309D01*
X32455238Y12121071D01*
X32550476Y12025833D01*
X32598095Y11930595D01*
X32407619Y12882976D02*
X32360000Y12930595D01*
X32312380Y13025833D01*
X32312380Y13263928D01*
X32360000Y13359166D01*
X32407619Y13406785D01*
X32502857Y13454404D01*
X32598095Y13454404D01*
X32740952Y13406785D01*
X33312380Y12835357D01*
X33312380Y13454404D01*
%TO.C,TP2*%
X24852380Y24963595D02*
X24852380Y25535023D01*
X25852380Y25249309D02*
X24852380Y25249309D01*
X25852380Y25868357D02*
X24852380Y25868357D01*
X24852380Y26249309D01*
X24900000Y26344547D01*
X24947619Y26392166D01*
X25042857Y26439785D01*
X25185714Y26439785D01*
X25280952Y26392166D01*
X25328571Y26344547D01*
X25376190Y26249309D01*
X25376190Y25868357D01*
X24947619Y26820738D02*
X24900000Y26868357D01*
X24852380Y26963595D01*
X24852380Y27201690D01*
X24900000Y27296928D01*
X24947619Y27344547D01*
X25042857Y27392166D01*
X25138095Y27392166D01*
X25280952Y27344547D01*
X25852380Y26773119D01*
X25852380Y27392166D01*
%TO.C,FB1*%
X2062266Y4829728D02*
X1728933Y4829728D01*
X1728933Y4305919D02*
X1728933Y5305919D01*
X2205123Y5305919D01*
X2919409Y4829728D02*
X3062266Y4782109D01*
X3109885Y4734490D01*
X3157504Y4639252D01*
X3157504Y4496395D01*
X3109885Y4401157D01*
X3062266Y4353538D01*
X2967028Y4305919D01*
X2586076Y4305919D01*
X2586076Y5305919D01*
X2919409Y5305919D01*
X3014647Y5258300D01*
X3062266Y5210680D01*
X3109885Y5115442D01*
X3109885Y5020204D01*
X3062266Y4924966D01*
X3014647Y4877347D01*
X2919409Y4829728D01*
X2586076Y4829728D01*
X4109885Y4305919D02*
X3538457Y4305919D01*
X3824171Y4305919D02*
X3824171Y5305919D01*
X3728933Y5163061D01*
X3633695Y5067823D01*
X3538457Y5020204D01*
%TO.C,R18*%
X10787142Y15199119D02*
X10453809Y15675309D01*
X10215714Y15199119D02*
X10215714Y16199119D01*
X10596666Y16199119D01*
X10691904Y16151500D01*
X10739523Y16103880D01*
X10787142Y16008642D01*
X10787142Y15865785D01*
X10739523Y15770547D01*
X10691904Y15722928D01*
X10596666Y15675309D01*
X10215714Y15675309D01*
X11739523Y15199119D02*
X11168095Y15199119D01*
X11453809Y15199119D02*
X11453809Y16199119D01*
X11358571Y16056261D01*
X11263333Y15961023D01*
X11168095Y15913404D01*
X12310952Y15770547D02*
X12215714Y15818166D01*
X12168095Y15865785D01*
X12120476Y15961023D01*
X12120476Y16008642D01*
X12168095Y16103880D01*
X12215714Y16151500D01*
X12310952Y16199119D01*
X12501428Y16199119D01*
X12596666Y16151500D01*
X12644285Y16103880D01*
X12691904Y16008642D01*
X12691904Y15961023D01*
X12644285Y15865785D01*
X12596666Y15818166D01*
X12501428Y15770547D01*
X12310952Y15770547D01*
X12215714Y15722928D01*
X12168095Y15675309D01*
X12120476Y15580071D01*
X12120476Y15389595D01*
X12168095Y15294357D01*
X12215714Y15246738D01*
X12310952Y15199119D01*
X12501428Y15199119D01*
X12596666Y15246738D01*
X12644285Y15294357D01*
X12691904Y15389595D01*
X12691904Y15580071D01*
X12644285Y15675309D01*
X12596666Y15722928D01*
X12501428Y15770547D01*
%TO.C,C19*%
X8231142Y24947642D02*
X8278761Y24900023D01*
X8326380Y24757166D01*
X8326380Y24661928D01*
X8278761Y24519071D01*
X8183523Y24423833D01*
X8088285Y24376214D01*
X7897809Y24328595D01*
X7754952Y24328595D01*
X7564476Y24376214D01*
X7469238Y24423833D01*
X7374000Y24519071D01*
X7326380Y24661928D01*
X7326380Y24757166D01*
X7374000Y24900023D01*
X7421619Y24947642D01*
X8326380Y25900023D02*
X8326380Y25328595D01*
X8326380Y25614309D02*
X7326380Y25614309D01*
X7469238Y25519071D01*
X7564476Y25423833D01*
X7612095Y25328595D01*
X8326380Y26376214D02*
X8326380Y26566690D01*
X8278761Y26661928D01*
X8231142Y26709547D01*
X8088285Y26804785D01*
X7897809Y26852404D01*
X7516857Y26852404D01*
X7421619Y26804785D01*
X7374000Y26757166D01*
X7326380Y26661928D01*
X7326380Y26471452D01*
X7374000Y26376214D01*
X7421619Y26328595D01*
X7516857Y26280976D01*
X7754952Y26280976D01*
X7850190Y26328595D01*
X7897809Y26376214D01*
X7945428Y26471452D01*
X7945428Y26661928D01*
X7897809Y26757166D01*
X7850190Y26804785D01*
X7754952Y26852404D01*
%TO.C,C12*%
X13581142Y7994357D02*
X13533523Y7946738D01*
X13390666Y7899119D01*
X13295428Y7899119D01*
X13152571Y7946738D01*
X13057333Y8041976D01*
X13009714Y8137214D01*
X12962095Y8327690D01*
X12962095Y8470547D01*
X13009714Y8661023D01*
X13057333Y8756261D01*
X13152571Y8851500D01*
X13295428Y8899119D01*
X13390666Y8899119D01*
X13533523Y8851500D01*
X13581142Y8803880D01*
X14533523Y7899119D02*
X13962095Y7899119D01*
X14247809Y7899119D02*
X14247809Y8899119D01*
X14152571Y8756261D01*
X14057333Y8661023D01*
X13962095Y8613404D01*
X14914476Y8803880D02*
X14962095Y8851500D01*
X15057333Y8899119D01*
X15295428Y8899119D01*
X15390666Y8851500D01*
X15438285Y8803880D01*
X15485904Y8708642D01*
X15485904Y8613404D01*
X15438285Y8470547D01*
X14866857Y7899119D01*
X15485904Y7899119D01*
%TO.C,RV1*%
X16676761Y22725119D02*
X16343428Y23201309D01*
X16105333Y22725119D02*
X16105333Y23725119D01*
X16486285Y23725119D01*
X16581523Y23677500D01*
X16629142Y23629880D01*
X16676761Y23534642D01*
X16676761Y23391785D01*
X16629142Y23296547D01*
X16581523Y23248928D01*
X16486285Y23201309D01*
X16105333Y23201309D01*
X16962476Y23725119D02*
X17295809Y22725119D01*
X17629142Y23725119D01*
X18486285Y22725119D02*
X17914857Y22725119D01*
X18200571Y22725119D02*
X18200571Y23725119D01*
X18105333Y23582261D01*
X18010095Y23487023D01*
X17914857Y23439404D01*
%TO.C,C10*%
X28948142Y19993357D02*
X28900523Y19945738D01*
X28757666Y19898119D01*
X28662428Y19898119D01*
X28519571Y19945738D01*
X28424333Y20040976D01*
X28376714Y20136214D01*
X28329095Y20326690D01*
X28329095Y20469547D01*
X28376714Y20660023D01*
X28424333Y20755261D01*
X28519571Y20850500D01*
X28662428Y20898119D01*
X28757666Y20898119D01*
X28900523Y20850500D01*
X28948142Y20802880D01*
X29900523Y19898119D02*
X29329095Y19898119D01*
X29614809Y19898119D02*
X29614809Y20898119D01*
X29519571Y20755261D01*
X29424333Y20660023D01*
X29329095Y20612404D01*
X30519571Y20898119D02*
X30614809Y20898119D01*
X30710047Y20850500D01*
X30757666Y20802880D01*
X30805285Y20707642D01*
X30852904Y20517166D01*
X30852904Y20279071D01*
X30805285Y20088595D01*
X30757666Y19993357D01*
X30710047Y19945738D01*
X30614809Y19898119D01*
X30519571Y19898119D01*
X30424333Y19945738D01*
X30376714Y19993357D01*
X30329095Y20088595D01*
X30281476Y20279071D01*
X30281476Y20517166D01*
X30329095Y20707642D01*
X30376714Y20802880D01*
X30424333Y20850500D01*
X30519571Y20898119D01*
%TO.C,R15*%
X22090142Y754119D02*
X21756809Y1230309D01*
X21518714Y754119D02*
X21518714Y1754119D01*
X21899666Y1754119D01*
X21994904Y1706500D01*
X22042523Y1658880D01*
X22090142Y1563642D01*
X22090142Y1420785D01*
X22042523Y1325547D01*
X21994904Y1277928D01*
X21899666Y1230309D01*
X21518714Y1230309D01*
X23042523Y754119D02*
X22471095Y754119D01*
X22756809Y754119D02*
X22756809Y1754119D01*
X22661571Y1611261D01*
X22566333Y1516023D01*
X22471095Y1468404D01*
X23947285Y1754119D02*
X23471095Y1754119D01*
X23423476Y1277928D01*
X23471095Y1325547D01*
X23566333Y1373166D01*
X23804428Y1373166D01*
X23899666Y1325547D01*
X23947285Y1277928D01*
X23994904Y1182690D01*
X23994904Y944595D01*
X23947285Y849357D01*
X23899666Y801738D01*
X23804428Y754119D01*
X23566333Y754119D01*
X23471095Y801738D01*
X23423476Y849357D01*
%TO.C,H1*%
X18034095Y26281919D02*
X18034095Y27281919D01*
X18034095Y26805728D02*
X18605523Y26805728D01*
X18605523Y26281919D02*
X18605523Y27281919D01*
X19605523Y26281919D02*
X19034095Y26281919D01*
X19319809Y26281919D02*
X19319809Y27281919D01*
X19224571Y27139061D01*
X19129333Y27043823D01*
X19034095Y26996204D01*
%TO.C,R2*%
X11263333Y18247119D02*
X10930000Y18723309D01*
X10691904Y18247119D02*
X10691904Y19247119D01*
X11072857Y19247119D01*
X11168095Y19199500D01*
X11215714Y19151880D01*
X11263333Y19056642D01*
X11263333Y18913785D01*
X11215714Y18818547D01*
X11168095Y18770928D01*
X11072857Y18723309D01*
X10691904Y18723309D01*
X11644285Y19151880D02*
X11691904Y19199500D01*
X11787142Y19247119D01*
X12025238Y19247119D01*
X12120476Y19199500D01*
X12168095Y19151880D01*
X12215714Y19056642D01*
X12215714Y18961404D01*
X12168095Y18818547D01*
X11596666Y18247119D01*
X12215714Y18247119D01*
%TO.C,C5*%
X2005913Y24725357D02*
X1958294Y24677738D01*
X1815437Y24630119D01*
X1720199Y24630119D01*
X1577341Y24677738D01*
X1482103Y24772976D01*
X1434484Y24868214D01*
X1386865Y25058690D01*
X1386865Y25201547D01*
X1434484Y25392023D01*
X1482103Y25487261D01*
X1577341Y25582500D01*
X1720199Y25630119D01*
X1815437Y25630119D01*
X1958294Y25582500D01*
X2005913Y25534880D01*
X2910675Y25630119D02*
X2434484Y25630119D01*
X2386865Y25153928D01*
X2434484Y25201547D01*
X2529722Y25249166D01*
X2767818Y25249166D01*
X2863056Y25201547D01*
X2910675Y25153928D01*
X2958294Y25058690D01*
X2958294Y24820595D01*
X2910675Y24725357D01*
X2863056Y24677738D01*
X2767818Y24630119D01*
X2529722Y24630119D01*
X2434484Y24677738D01*
X2386865Y24725357D01*
%TO.C,C1*%
X21091142Y24026833D02*
X21138761Y23979214D01*
X21186380Y23836357D01*
X21186380Y23741119D01*
X21138761Y23598261D01*
X21043523Y23503023D01*
X20948285Y23455404D01*
X20757809Y23407785D01*
X20614952Y23407785D01*
X20424476Y23455404D01*
X20329238Y23503023D01*
X20234000Y23598261D01*
X20186380Y23741119D01*
X20186380Y23836357D01*
X20234000Y23979214D01*
X20281619Y24026833D01*
X21186380Y24979214D02*
X21186380Y24407785D01*
X21186380Y24693500D02*
X20186380Y24693500D01*
X20329238Y24598261D01*
X20424476Y24503023D01*
X20472095Y24407785D01*
D13*
%TO.C,J1*%
X34243070Y8056326D02*
X34794613Y8056326D01*
X34904921Y8019556D01*
X34978460Y7946017D01*
X35015230Y7835709D01*
X35015230Y7762170D01*
X35015230Y8828486D02*
X35015230Y8387251D01*
X35015230Y8607869D02*
X34243070Y8607869D01*
X34353379Y8534330D01*
X34426918Y8460791D01*
X34463687Y8387251D01*
D14*
%TO.C,U3*%
X23368000Y12596300D02*
X21568000Y12596300D01*
X23368000Y12596300D02*
X24168000Y12596300D01*
X23368000Y9476300D02*
X22568000Y9476300D01*
X23368000Y9476300D02*
X24168000Y9476300D01*
%TO.C,R10*%
X17542742Y7444000D02*
X18017258Y7444000D01*
X17542742Y6399000D02*
X18017258Y6399000D01*
%TO.C,U2*%
X31496000Y14140500D02*
X34946000Y14140500D01*
X31496000Y19260500D02*
X29546000Y19260500D01*
X31496000Y14140500D02*
X29546000Y14140500D01*
X31496000Y19260500D02*
X33446000Y19260500D01*
%TO.C,J2*%
X13842000Y2068571D02*
X13842000Y1671500D01*
X13082000Y2068571D02*
X13082000Y1671500D01*
X8762000Y-988500D02*
X8762000Y-6988500D01*
X7052000Y1671500D02*
X7052000Y-988500D01*
X16382000Y-988500D02*
X16382000Y-6988500D01*
X11302000Y-6988500D02*
X10542000Y-6988500D01*
X12192000Y1671500D02*
X12192000Y-988500D01*
X16082000Y-988500D02*
X16082000Y-6988500D01*
X16382000Y-6988500D02*
X15622000Y-6988500D01*
X13842000Y-6988500D02*
X13082000Y-6988500D01*
X9652000Y1671500D02*
X9652000Y-988500D01*
X8002000Y-6988500D02*
X8002000Y-988500D01*
X10542000Y2068571D02*
X10542000Y1671500D01*
X8762000Y-6988500D02*
X8002000Y-6988500D01*
X16002000Y4381500D02*
X17272000Y4381500D01*
X15722000Y-988500D02*
X15722000Y-6988500D01*
X15962000Y-988500D02*
X15962000Y-6988500D01*
X8002000Y2068571D02*
X8002000Y1671500D01*
X17332000Y-988500D02*
X17332000Y1671500D01*
X17272000Y4381500D02*
X17272000Y3111500D01*
X16202000Y-988500D02*
X16202000Y-6988500D01*
X11302000Y-988500D02*
X11302000Y-6988500D01*
X13842000Y-988500D02*
X13842000Y-6988500D01*
X13082000Y-6988500D02*
X13082000Y-988500D01*
X17332000Y1671500D02*
X7052000Y1671500D01*
X10542000Y-6988500D02*
X10542000Y-988500D01*
X16322000Y-988500D02*
X16322000Y-6988500D01*
X14732000Y1671500D02*
X14732000Y-988500D01*
X8762000Y2068571D02*
X8762000Y1671500D01*
X15622000Y2001500D02*
X15622000Y1671500D01*
X15622000Y-6988500D02*
X15622000Y-988500D01*
X16382000Y2001500D02*
X16382000Y1671500D01*
X15842000Y-988500D02*
X15842000Y-6988500D01*
X7052000Y-988500D02*
X17332000Y-988500D01*
X11302000Y2068571D02*
X11302000Y1671500D01*
%TO.C,R13*%
X26178742Y20906000D02*
X26653258Y20906000D01*
X26178742Y19861000D02*
X26653258Y19861000D01*
%TO.C,C6*%
X43690000Y25576920D02*
X43690000Y25858080D01*
X42670000Y25576920D02*
X42670000Y25858080D01*
%TO.C,C7*%
X28065000Y12114920D02*
X28065000Y12396080D01*
X29085000Y12114920D02*
X29085000Y12396080D01*
D12*
%TO.C,TP1*%
X24611000Y3365500D02*
G75*
G03*
X24611000Y3365500I-1370000J0D01*
G01*
D14*
%TO.C,R4*%
X11192742Y13511000D02*
X11667258Y13511000D01*
X11192742Y14556000D02*
X11667258Y14556000D01*
%TO.C,C31*%
X9650000Y8459080D02*
X9650000Y8177920D01*
X10670000Y8459080D02*
X10670000Y8177920D01*
%TO.C,R6*%
X24019742Y7444000D02*
X24494258Y7444000D01*
X24019742Y6399000D02*
X24494258Y6399000D01*
%TO.C,C8*%
X19302000Y11098920D02*
X19302000Y11380080D01*
X20322000Y11098920D02*
X20322000Y11380080D01*
%TO.C,R66*%
X5825258Y27129000D02*
X5350742Y27129000D01*
X5825258Y26084000D02*
X5350742Y26084000D01*
%TO.C,R71*%
X41670500Y4144242D02*
X41670500Y4618758D01*
X40625500Y4144242D02*
X40625500Y4618758D01*
%TO.C,C32*%
X40642000Y25576920D02*
X40642000Y25858080D01*
X39622000Y25576920D02*
X39622000Y25858080D01*
%TO.C,R16*%
X20049258Y3888000D02*
X19574742Y3888000D01*
X20049258Y2843000D02*
X19574742Y2843000D01*
D12*
%TO.C,U4*%
X24168000Y24021500D02*
X23868000Y24021500D01*
X22568000Y21571500D02*
X22818000Y21571500D01*
X24168000Y21871500D02*
X24168000Y21571500D01*
X22568000Y23721500D02*
X22168000Y23721500D01*
X22568000Y21846500D02*
X22568000Y21571500D01*
X22893000Y24021500D02*
X22568000Y23721500D01*
X24168000Y23721500D02*
X24168000Y24021500D01*
X24168000Y21571500D02*
X23943000Y21571500D01*
D14*
%TO.C,IC1*%
X14732000Y9425500D02*
X15532000Y9425500D01*
X14732000Y12545500D02*
X15532000Y12545500D01*
X14732000Y9425500D02*
X13932000Y9425500D01*
X14732000Y12545500D02*
X12932000Y12545500D01*
%TO.C,C11*%
X20992220Y7431500D02*
X21273380Y7431500D01*
X20992220Y6411500D02*
X21273380Y6411500D01*
%TO.C,TP9*%
X32188000Y26225500D02*
G75*
G03*
X32188000Y26225500I-1200000J0D01*
G01*
%TO.C,R11*%
X27575742Y22909000D02*
X28050258Y22909000D01*
X27575742Y23954000D02*
X28050258Y23954000D01*
%TO.C,J5*%
X51201200Y22397100D02*
X51201200Y7397100D01*
X51001200Y14897100D02*
X50001200Y13897100D01*
X51201200Y7397100D02*
X36201200Y7397100D01*
X36201200Y22397100D02*
X51201200Y22397100D01*
X51001200Y14897100D02*
X50001200Y15897100D01*
X36201200Y7397100D02*
X36201200Y22397100D01*
D15*
%TO.C,J4*%
X3318000Y20197900D02*
X568000Y20197900D01*
X2318000Y19697900D02*
X1568000Y19697900D01*
X1818000Y7447900D02*
X1818000Y6947900D01*
X8018000Y12447900D02*
X8318000Y12447900D01*
X68000Y19697900D02*
X68000Y18697900D01*
X768000Y11097900D02*
X768000Y10097900D01*
X5093200Y17976000D02*
X3318000Y18197900D01*
X3518000Y11097900D02*
X2268000Y11097900D01*
X8318000Y11447900D02*
X7818000Y10947900D01*
X18000Y11097900D02*
X18000Y10097900D01*
X5146281Y19923368D02*
X3568000Y19697900D01*
X4818000Y19847900D02*
X4818000Y18547900D01*
X5096281Y11323369D02*
X3518000Y11097900D01*
X1568000Y19697900D02*
X1318000Y19697900D01*
X768000Y10097900D02*
X1268000Y10097900D01*
X768000Y11097900D02*
X518000Y11097900D01*
X2818000Y22947900D02*
X1818000Y22947900D01*
X1318000Y19697900D02*
X1318000Y18697900D01*
X518000Y10097900D02*
X768000Y10097900D01*
X-682000Y22447900D02*
X-682000Y21447900D01*
X8318000Y21447900D02*
X-682000Y21447900D01*
X2268000Y11097900D02*
X2268000Y10097900D01*
X2318000Y18697900D02*
X3568000Y18697900D01*
X1318000Y19697900D02*
X818000Y19697900D01*
X8318000Y20947900D02*
X7818000Y20447900D01*
X9318000Y19447900D02*
X9318000Y9947900D01*
X1518000Y10097900D02*
X2268000Y10097900D01*
X818000Y19697900D02*
X568000Y19697900D01*
X568000Y18197900D02*
X3318000Y18197900D01*
X2268000Y11097900D02*
X1518000Y11097900D01*
X7818000Y9447900D02*
X8318000Y8947900D01*
X1568000Y19697900D02*
X1568000Y18697900D01*
X1268000Y11097900D02*
X768000Y11097900D01*
X518000Y9597900D02*
X3268000Y9597900D01*
X518000Y11097900D02*
X518000Y10097900D01*
X5043200Y9376000D02*
X3268000Y9597900D01*
X8318000Y12947900D02*
X8018000Y12947900D01*
X1818000Y22947900D02*
X1818000Y22447900D01*
X3568000Y19697900D02*
X2318000Y19697900D01*
X5268000Y9674441D02*
X5268000Y9574457D01*
X2268000Y10097900D02*
X3518000Y10097900D01*
X8318000Y16947900D02*
X8318000Y12947900D01*
X2818000Y22447900D02*
X2818000Y22947900D01*
X4768000Y11247900D02*
X4768000Y9947900D01*
X7818000Y20447900D02*
X7318000Y20447900D01*
X8318000Y20947900D02*
X8318000Y21447900D01*
X3268000Y11597900D02*
X518000Y11597900D01*
X1818000Y22447900D02*
X-682000Y22447900D01*
X1568000Y18697900D02*
X2318000Y18697900D01*
X1268000Y10097900D02*
X1518000Y10097900D01*
X8318000Y7447900D02*
X8318000Y8447900D01*
X-682000Y7447900D02*
X1818000Y7447900D01*
X5318000Y20221343D02*
X5318000Y20121359D01*
X8318000Y22447900D02*
X2818000Y22447900D01*
X2318000Y19697900D02*
X2318000Y18697900D01*
X818000Y19697900D02*
X818000Y18697900D01*
X1518000Y11097900D02*
X1518000Y10097900D01*
X8318000Y8447900D02*
X-682000Y8447900D01*
X6818000Y10447900D02*
X6818000Y9947900D01*
X3518000Y10097900D02*
X5096281Y9872432D01*
X-682000Y8447900D02*
X-682000Y7447900D01*
X1268000Y11097900D02*
X1268000Y10097900D01*
X568000Y18697900D02*
X818000Y18697900D01*
X8318000Y21447900D02*
X8318000Y22447900D01*
X8318000Y17447900D02*
X8018000Y17447900D01*
X2818000Y22447900D02*
X1818000Y22447900D01*
X7818000Y18947900D02*
X8318000Y18447900D01*
X568000Y19697900D02*
X568000Y18697900D01*
X6818000Y19947900D02*
X6818000Y19447900D01*
X3268000Y11597900D02*
X5043200Y11819800D01*
X1818000Y6947900D02*
X2818000Y6947900D01*
X8318000Y12447900D02*
X8318000Y11447900D01*
X7318000Y9447900D02*
X7818000Y9447900D01*
X5268000Y11621344D02*
X5268000Y11521360D01*
X5318000Y18274440D02*
X5318000Y18174456D01*
X7318000Y18947900D02*
X7818000Y18947900D01*
X1818000Y7447900D02*
X2818000Y7447900D01*
X2818000Y7447900D02*
X8318000Y7447900D01*
X1318000Y18697900D02*
X1568000Y18697900D01*
X-682000Y21447900D02*
X-682000Y8447900D01*
X7818000Y17247900D02*
X7818000Y17147900D01*
X3318000Y20197900D02*
X5093200Y20419800D01*
X7818000Y10947900D02*
X7318000Y10947900D01*
X818000Y18697900D02*
X1318000Y18697900D01*
X3568000Y18697900D02*
X5146281Y18472431D01*
X8018000Y16947900D02*
X8318000Y16947900D01*
X2818000Y6947900D02*
X2818000Y7447900D01*
X1518000Y11097900D02*
X1268000Y11097900D01*
X7818000Y12747900D02*
X7818000Y12647900D01*
X8318000Y18447900D02*
X8318000Y17447900D01*
X8318000Y8447900D02*
X8318000Y8947900D01*
X7818000Y17147900D02*
G75*
G03*
X8018000Y16947900I200001J1D01*
G01*
X5146281Y19923367D02*
G75*
G03*
X5318000Y20121359I-28281J197990D01*
G01*
X568000Y20197900D02*
G75*
G03*
X68000Y19697900I1J-500001D01*
G01*
X8018000Y17447900D02*
G75*
G03*
X7818000Y17247900I1J-200001D01*
G01*
X7318000Y10947900D02*
G75*
G03*
X6818000Y10447900I0J-500000D01*
G01*
X68000Y18697900D02*
G75*
G03*
X568000Y18197900I500001J1D01*
G01*
X5318001Y20221341D02*
G75*
G03*
X5093200Y20419800I-199999J4D01*
G01*
X5093200Y17976000D02*
G75*
G03*
X5318000Y18174456I24800J198456D01*
G01*
X6818000Y19447900D02*
G75*
G03*
X7318000Y18947900I500001J1D01*
G01*
X5318000Y18274439D02*
G75*
G03*
X5146281Y18472431I-200002J0D01*
G01*
X5096273Y11323409D02*
G75*
G03*
X5268000Y11521360I-28273J197991D01*
G01*
X5267996Y11621343D02*
G75*
G03*
X5043200Y11819800I-199976J27D01*
G01*
X7318000Y20447900D02*
G75*
G03*
X6818000Y19947900I1J-500001D01*
G01*
X5043203Y9376043D02*
G75*
G03*
X5268000Y9574457I24797J198457D01*
G01*
X18000Y10097900D02*
G75*
G03*
X518000Y9597900I500000J0D01*
G01*
X5268041Y9674441D02*
G75*
G03*
X5096281Y9872432I-200041J-41D01*
G01*
X6818000Y9947900D02*
G75*
G03*
X7318000Y9447900I500000J0D01*
G01*
X518000Y11597900D02*
G75*
G03*
X18000Y11097900I0J-500000D01*
G01*
X8018000Y12947900D02*
G75*
G03*
X7818000Y12747900I0J-200000D01*
G01*
X7818000Y12647900D02*
G75*
G03*
X8018000Y12447900I200000J0D01*
G01*
D14*
%TO.C,U1*%
X23876000Y18133500D02*
X22076000Y18133500D01*
X23876000Y15013500D02*
X23076000Y15013500D01*
X23876000Y18133500D02*
X24676000Y18133500D01*
X23876000Y15013500D02*
X24676000Y15013500D01*
%TO.C,R1*%
X11667258Y23700000D02*
X11192742Y23700000D01*
X11667258Y22655000D02*
X11192742Y22655000D01*
%TO.C,R12*%
X34812500Y11955242D02*
X34812500Y12429758D01*
X33767500Y11955242D02*
X33767500Y12429758D01*
D12*
%TO.C,TP2*%
X24230000Y26225500D02*
G75*
G03*
X24230000Y26225500I-1370000J0D01*
G01*
D14*
%TO.C,FB1*%
X2184348Y1998300D02*
X3606852Y1998300D01*
X2184348Y3818300D02*
X3606852Y3818300D01*
%TO.C,R18*%
X11667258Y16559000D02*
X11192742Y16559000D01*
X11667258Y17604000D02*
X11192742Y17604000D01*
%TO.C,C19*%
X5728580Y25592500D02*
X5447420Y25592500D01*
X5728580Y24572500D02*
X5447420Y24572500D01*
%TO.C,C12*%
X14083420Y6411500D02*
X14364580Y6411500D01*
X14083420Y7431500D02*
X14364580Y7431500D01*
%TO.C,RV1*%
X19547000Y19948500D02*
X19547000Y22408500D01*
X19547000Y15818500D02*
X19547000Y18278500D01*
X14987000Y17408500D02*
X14987000Y20818500D01*
X16493000Y15818500D02*
X19547000Y15818500D01*
X16493000Y22408500D02*
X19547000Y22408500D01*
%TO.C,C10*%
X29731580Y21270500D02*
X29450420Y21270500D01*
X29731580Y22290500D02*
X29450420Y22290500D01*
%TO.C,R15*%
X20049258Y2110000D02*
X19574742Y2110000D01*
X20049258Y1065000D02*
X19574742Y1065000D01*
%TO.C,R2*%
X11667258Y19607000D02*
X11192742Y19607000D01*
X11667258Y20652000D02*
X11192742Y20652000D01*
%TO.C,C5*%
X2172580Y26096500D02*
X1891420Y26096500D01*
X2172580Y27116500D02*
X1891420Y27116500D01*
%TO.C,C1*%
X19814000Y24334080D02*
X19814000Y24052920D01*
X18794000Y24334080D02*
X18794000Y24052920D01*
D16*
%TO.C,J1*%
X27707000Y-10283500D02*
X33507000Y-10283500D01*
X27707000Y-2083500D02*
X27307000Y-2083500D01*
X28407000Y-2983500D02*
X32807000Y-2983500D01*
X29507000Y8416500D02*
X31707000Y8416500D01*
X27307000Y-1283500D02*
X27707000Y-1283500D01*
X33507000Y-10283500D02*
X33507000Y-10883500D01*
X33907000Y-383500D02*
X33907000Y-1283500D01*
X27307000Y-383500D02*
X33907000Y-383500D01*
X26707000Y-383500D02*
X27307000Y-383500D01*
X28407000Y-2983500D02*
X27307000Y-2983500D01*
X27207000Y-3883500D02*
X28407000Y-3883500D01*
X27707000Y-10283500D02*
X27707000Y-10883500D01*
X28407000Y-2983500D02*
X28407000Y-3883500D01*
X27307000Y-2083500D02*
X27307000Y-2983500D01*
X34007000Y-3883500D02*
X35007000Y-3883500D01*
X27707000Y-1283500D02*
X27707000Y-2083500D01*
X27207000Y3916500D02*
X27207000Y6116500D01*
X26207000Y-3883500D02*
X27207000Y-3883500D01*
X34507000Y1616500D02*
X34507000Y-383500D01*
X33507000Y-1283500D02*
X27707000Y-1283500D01*
X34007000Y6116500D02*
X34007000Y3916500D01*
X35007000Y-2983500D02*
X35007000Y-3883500D01*
X32807000Y-3883500D02*
X34007000Y-3883500D01*
X33907000Y-2983500D02*
X35007000Y-2983500D01*
X33507000Y-1283500D02*
X33507000Y-2083500D01*
X27707000Y-10883500D02*
X33507000Y-10883500D01*
X33507000Y-2083500D02*
X33907000Y-2083500D01*
X33907000Y-1283500D02*
X33507000Y-1283500D01*
X32807000Y-2983500D02*
X33907000Y-2983500D01*
X27307000Y-2983500D02*
X26207000Y-2983500D01*
X31707000Y1616500D02*
X29507000Y1616500D01*
X34007000Y-9983500D02*
X33507000Y-10283500D01*
X27207000Y-3883500D02*
X27207000Y-9983500D01*
X33507000Y-2083500D02*
X27707000Y-2083500D01*
X26207000Y-3883500D02*
X26207000Y-2983500D01*
X32807000Y-3883500D02*
X28407000Y-3883500D01*
X27307000Y-383500D02*
X27307000Y-1283500D01*
X33907000Y-2083500D02*
X33907000Y-2983500D01*
X26707000Y1616500D02*
X26707000Y-383500D01*
X32807000Y-2983500D02*
X32807000Y-3883500D01*
X34007000Y-3883500D02*
X34007000Y-9983500D01*
X33907000Y-383500D02*
X34507000Y-383500D01*
X27207000Y-9983500D02*
X27707000Y-10283500D01*
%TD*%
%LPC*%
D17*
%TO.C,U3*%
X22230500Y11986300D03*
X22230500Y11036300D03*
X22230500Y10086300D03*
X24505500Y10086300D03*
X24505500Y11986300D03*
%TD*%
D18*
%TO.C,R10*%
X16955000Y6921500D03*
X18605000Y6921500D03*
%TD*%
D19*
%TO.C,U2*%
X33971000Y14795500D03*
X33971000Y16065500D03*
X33971000Y17335500D03*
X33971000Y18605500D03*
X29021000Y18605500D03*
X29021000Y17335500D03*
X29021000Y16065500D03*
X29021000Y14795500D03*
%TD*%
D20*
%TO.C,J2*%
X16002000Y3111500D03*
D21*
X13462000Y3111500D03*
X10922000Y3111500D03*
X8382000Y3111500D03*
%TD*%
D18*
%TO.C,R13*%
X25591000Y20383500D03*
X27241000Y20383500D03*
%TD*%
D22*
%TO.C,C6*%
X43180000Y24942500D03*
X43180000Y26492500D03*
%TD*%
%TO.C,C7*%
X28575000Y11480500D03*
X28575000Y13030500D03*
%TD*%
D23*
%TO.C,TP1*%
X23241000Y3365500D03*
%TD*%
D18*
%TO.C,R4*%
X10605000Y14033500D03*
X12255000Y14033500D03*
%TD*%
D24*
%TO.C,C31*%
X10160000Y9093500D03*
X10160000Y7543500D03*
%TD*%
D18*
%TO.C,R6*%
X23432000Y6921500D03*
X25082000Y6921500D03*
%TD*%
D22*
%TO.C,C8*%
X19812000Y10464500D03*
X19812000Y12014500D03*
%TD*%
D25*
%TO.C,R66*%
X6413000Y26606500D03*
X4763000Y26606500D03*
%TD*%
D26*
%TO.C,R71*%
X41148000Y3556500D03*
X41148000Y5206500D03*
%TD*%
D22*
%TO.C,C32*%
X40132000Y24942500D03*
X40132000Y26492500D03*
%TD*%
D25*
%TO.C,R16*%
X20637000Y3365500D03*
X18987000Y3365500D03*
%TD*%
D27*
%TO.C,U4*%
X22418000Y23446500D03*
X22418000Y22796500D03*
X22418000Y22146500D03*
X24318000Y22146500D03*
X24318000Y22796500D03*
X24318000Y23446500D03*
%TD*%
D17*
%TO.C,IC1*%
X13594500Y11935500D03*
X13594500Y10985500D03*
X13594500Y10035500D03*
X15869500Y10035500D03*
X15869500Y10985500D03*
X15869500Y11935500D03*
%TD*%
D28*
%TO.C,C11*%
X20357800Y6921500D03*
X21907800Y6921500D03*
%TD*%
D29*
%TO.C,TP9*%
X30988000Y26225500D03*
%TD*%
D30*
%TO.C,H7*%
X35407600Y25667500D03*
%TD*%
D18*
%TO.C,R11*%
X26988000Y23431500D03*
X28638000Y23431500D03*
%TD*%
D31*
%TO.C,J5*%
X38501200Y14897100D03*
D32*
X43581200Y19977100D03*
D31*
X38501200Y17437100D03*
D32*
X43581200Y9817100D03*
%TD*%
D33*
%TO.C,J4*%
X8268000Y10197900D03*
X8268000Y10697900D03*
X8268000Y11197900D03*
X8268000Y11697900D03*
X8268000Y12197900D03*
X8268000Y12697900D03*
X8268000Y13197900D03*
X8268000Y13697900D03*
X8268000Y14197900D03*
X8268000Y14697900D03*
X8268000Y15197900D03*
X8268000Y15697900D03*
X8268000Y16197900D03*
X8268000Y16697900D03*
X8268000Y17197900D03*
X8268000Y17697900D03*
X8268000Y18197900D03*
D34*
X8268000Y18697900D03*
X8268000Y19197900D03*
D35*
X7318000Y7697900D03*
X2418000Y7097900D03*
X7318000Y22197900D03*
X2418000Y22797900D03*
%TD*%
D17*
%TO.C,U1*%
X22738500Y17523500D03*
X22738500Y16573500D03*
X22738500Y15623500D03*
X25013500Y15623500D03*
X25013500Y17523500D03*
%TD*%
D25*
%TO.C,R1*%
X12255000Y23177500D03*
X10605000Y23177500D03*
%TD*%
D36*
%TO.C,H3*%
X45212000Y3365500D03*
%TD*%
D26*
%TO.C,R12*%
X34290000Y11367500D03*
X34290000Y13017500D03*
%TD*%
D23*
%TO.C,TP2*%
X22860000Y26225500D03*
%TD*%
D37*
%TO.C,FB1*%
X1420600Y2908300D03*
X4370600Y2908300D03*
%TD*%
D25*
%TO.C,R18*%
X12255000Y17081500D03*
X10605000Y17081500D03*
%TD*%
D38*
%TO.C,C19*%
X6363000Y25082500D03*
X4813000Y25082500D03*
%TD*%
D28*
%TO.C,C12*%
X13449000Y6921500D03*
X14999000Y6921500D03*
%TD*%
D39*
%TO.C,RV1*%
X14857000Y21653500D03*
X19687000Y19113500D03*
X14857000Y16573500D03*
%TD*%
D38*
%TO.C,C10*%
X30366000Y21780500D03*
X28816000Y21780500D03*
%TD*%
D25*
%TO.C,R15*%
X20637000Y1587500D03*
X18987000Y1587500D03*
%TD*%
D30*
%TO.C,H1*%
X15240000Y25667500D03*
%TD*%
D25*
%TO.C,R2*%
X12255000Y20129500D03*
X10605000Y20129500D03*
%TD*%
D38*
%TO.C,C5*%
X2807000Y26606500D03*
X1257000Y26606500D03*
%TD*%
D24*
%TO.C,C1*%
X19304000Y24968500D03*
X19304000Y23418500D03*
%TD*%
D40*
%TO.C,J1*%
X30607000Y5016500D03*
D41*
X33156900Y7566400D03*
X33156900Y2466600D03*
X28057100Y2466600D03*
X28057100Y7566400D03*
%TD*%
M02*
