%TF.GenerationSoftware,KiCad,Pcbnew,(6.0.4-0)*%
%TF.CreationDate,2023-05-29T12:52:23-05:00*%
%TF.ProjectId,voltage_sense,766f6c74-6167-4655-9f73-656e73652e6b,rev?*%
%TF.SameCoordinates,Original*%
%TF.FileFunction,Copper,L6,Bot*%
%TF.FilePolarity,Positive*%
%FSLAX46Y46*%
G04 Gerber Fmt 4.6, Leading zero omitted, Abs format (unit mm)*
G04 Created by KiCad (PCBNEW (6.0.4-0)) date 2023-05-29 12:52:23*
%MOMM*%
%LPD*%
G01*
G04 APERTURE LIST*
G04 Aperture macros list*
%AMRoundRect*
0 Rectangle with rounded corners*
0 $1 Rounding radius*
0 $2 $3 $4 $5 $6 $7 $8 $9 X,Y pos of 4 corners*
0 Add a 4 corners polygon primitive as box body*
4,1,4,$2,$3,$4,$5,$6,$7,$8,$9,$2,$3,0*
0 Add four circle primitives for the rounded corners*
1,1,$1+$1,$2,$3*
1,1,$1+$1,$4,$5*
1,1,$1+$1,$6,$7*
1,1,$1+$1,$8,$9*
0 Add four rect primitives between the rounded corners*
20,1,$1+$1,$2,$3,$4,$5,0*
20,1,$1+$1,$4,$5,$6,$7,0*
20,1,$1+$1,$6,$7,$8,$9,0*
20,1,$1+$1,$8,$9,$2,$3,0*%
G04 Aperture macros list end*
%TA.AperFunction,ComponentPad*%
%ADD10R,1.700000X1.700000*%
%TD*%
%TA.AperFunction,ComponentPad*%
%ADD11O,1.700000X1.700000*%
%TD*%
%TA.AperFunction,ComponentPad*%
%ADD12C,2.020000*%
%TD*%
%TA.AperFunction,ComponentPad*%
%ADD13C,2.000000*%
%TD*%
%TA.AperFunction,ComponentPad*%
%ADD14O,2.500000X1.600000*%
%TD*%
%TA.AperFunction,ComponentPad*%
%ADD15O,7.000000X3.500000*%
%TD*%
%TA.AperFunction,ComponentPad*%
%ADD16C,1.950000*%
%TD*%
%TA.AperFunction,ComponentPad*%
%ADD17C,4.400000*%
%TD*%
%TA.AperFunction,ComponentPad*%
%ADD18C,1.905000*%
%TD*%
%TA.AperFunction,ComponentPad*%
%ADD19C,2.667000*%
%TD*%
%TA.AperFunction,SMDPad,CuDef*%
%ADD20RoundRect,0.150000X0.512500X0.150000X-0.512500X0.150000X-0.512500X-0.150000X0.512500X-0.150000X0*%
%TD*%
%TA.AperFunction,SMDPad,CuDef*%
%ADD21RoundRect,0.225000X0.225000X0.250000X-0.225000X0.250000X-0.225000X-0.250000X0.225000X-0.250000X0*%
%TD*%
%TA.AperFunction,SMDPad,CuDef*%
%ADD22RoundRect,0.150000X0.825000X0.150000X-0.825000X0.150000X-0.825000X-0.150000X0.825000X-0.150000X0*%
%TD*%
%TA.AperFunction,SMDPad,CuDef*%
%ADD23RoundRect,0.200000X-0.200000X-0.275000X0.200000X-0.275000X0.200000X0.275000X-0.200000X0.275000X0*%
%TD*%
%TA.AperFunction,SMDPad,CuDef*%
%ADD24RoundRect,0.200000X0.275000X-0.200000X0.275000X0.200000X-0.275000X0.200000X-0.275000X-0.200000X0*%
%TD*%
%TA.AperFunction,SMDPad,CuDef*%
%ADD25RoundRect,0.200000X-0.275000X0.200000X-0.275000X-0.200000X0.275000X-0.200000X0.275000X0.200000X0*%
%TD*%
%TA.AperFunction,SMDPad,CuDef*%
%ADD26RoundRect,0.225000X0.250000X-0.225000X0.250000X0.225000X-0.250000X0.225000X-0.250000X-0.225000X0*%
%TD*%
%TA.AperFunction,SMDPad,CuDef*%
%ADD27RoundRect,0.200000X0.200000X0.275000X-0.200000X0.275000X-0.200000X-0.275000X0.200000X-0.275000X0*%
%TD*%
%TA.AperFunction,SMDPad,CuDef*%
%ADD28RoundRect,0.250000X-0.325000X-0.650000X0.325000X-0.650000X0.325000X0.650000X-0.325000X0.650000X0*%
%TD*%
%TA.AperFunction,SMDPad,CuDef*%
%ADD29RoundRect,0.225000X-0.225000X-0.250000X0.225000X-0.250000X0.225000X0.250000X-0.225000X0.250000X0*%
%TD*%
%TA.AperFunction,ViaPad*%
%ADD30C,0.600000*%
%TD*%
%TA.AperFunction,Conductor*%
%ADD31C,0.127000*%
%TD*%
G04 APERTURE END LIST*
D10*
%TO.P,J2,1,Pin_1*%
%TO.N,+5V*%
X35550000Y3168500D03*
D11*
%TO.P,J2,2,Pin_2*%
%TO.N,-15V*%
X33010000Y3168500D03*
%TO.P,J2,3,Pin_3*%
%TO.N,+15V*%
X30470000Y3168500D03*
%TO.P,J2,4,Pin_4*%
%TO.N,GND*%
X27930000Y3168500D03*
%TD*%
D12*
%TO.P,TP1,1*%
%TO.N,Net-(C13-Pad2)*%
X23876000Y3111500D03*
%TD*%
D13*
%TO.P,TP9,1,1*%
%TO.N,GND*%
X30988000Y32225500D03*
%TD*%
D14*
%TO.P,J5,1,In*%
%TO.N,Net-(J5-Pad1)*%
X38608000Y17317500D03*
D15*
%TO.P,J5,2,Ext*%
%TO.N,GND*%
X43688000Y22397500D03*
D14*
X38608000Y19857500D03*
D15*
X43688000Y12237500D03*
%TD*%
D16*
%TO.P,J4,SH,SH*%
%TO.N,Net-(FB1-Pad1)*%
X7318000Y16085500D03*
X2418000Y15485500D03*
X7318000Y30585500D03*
X2418000Y31185500D03*
%TD*%
D17*
%TO.P,H3,1,1*%
%TO.N,Net-(H3-Pad1)*%
X45200000Y3317500D03*
%TD*%
D12*
%TO.P,TP2,1*%
%TO.N,Net-(C1-Pad2)*%
X22860000Y32225500D03*
%TD*%
D18*
%TO.P,J1,1,In*%
%TO.N,/vsense/SMA_OUT*%
X4826000Y5905500D03*
D19*
%TO.P,J1,2,Ext*%
%TO.N,GND*%
X7375900Y3355600D03*
%TO.P,J1,3*%
%TO.N,N/C*%
X2276100Y3355600D03*
%TO.P,J1,4*%
X2276100Y8455400D03*
%TO.P,J1,5*%
X7375900Y8455400D03*
%TD*%
D20*
%TO.P,U9,1,VIN*%
%TO.N,+5V*%
X29458500Y10030500D03*
%TO.P,U9,2,GND*%
%TO.N,GND*%
X29458500Y9080500D03*
%TO.P,U9,3,ON/~{OFF}*%
%TO.N,+5V*%
X29458500Y8130500D03*
%TO.P,U9,4,BP*%
%TO.N,Net-(C19-Pad1)*%
X27183500Y8130500D03*
%TO.P,U9,5,VOUT*%
%TO.N,+3V3*%
X27183500Y10030500D03*
%TD*%
D21*
%TO.P,C2,1*%
%TO.N,GND*%
X20968000Y8445500D03*
%TO.P,C2,2*%
%TO.N,+15V*%
X19418000Y8445500D03*
%TD*%
D22*
%TO.P,U6,1,A0*%
%TO.N,GND*%
X8063000Y25717500D03*
%TO.P,U6,2,A1*%
X8063000Y24447500D03*
%TO.P,U6,3,A2*%
X8063000Y23177500D03*
%TO.P,U6,4,GND*%
X8063000Y21907500D03*
%TO.P,U6,5,SDA*%
%TO.N,/SDA*%
X3113000Y21907500D03*
%TO.P,U6,6,SCL*%
%TO.N,/SCL*%
X3113000Y23177500D03*
%TO.P,U6,7,NC*%
%TO.N,unconnected-(U6-Pad7)*%
X3113000Y24447500D03*
%TO.P,U6,8,VCC*%
%TO.N,+3V3*%
X3113000Y25717500D03*
%TD*%
D21*
%TO.P,C39,1*%
%TO.N,GND*%
X8268000Y27749500D03*
%TO.P,C39,2*%
%TO.N,+5V*%
X6718000Y27749500D03*
%TD*%
D23*
%TO.P,R3,1*%
%TO.N,Net-(IC1-Pad6)*%
X16764000Y12921500D03*
%TO.P,R3,2*%
%TO.N,GND*%
X18414000Y12921500D03*
%TD*%
D24*
%TO.P,R14,1*%
%TO.N,/vsense/SMA_OUT*%
X30734000Y17430500D03*
%TO.P,R14,2*%
%TO.N,Net-(C7-Pad2)*%
X30734000Y19080500D03*
%TD*%
D25*
%TO.P,R9,1*%
%TO.N,Net-(C8-Pad2)*%
X22352000Y17861300D03*
%TO.P,R9,2*%
%TO.N,Net-(R6-Pad1)*%
X22352000Y16211300D03*
%TD*%
D26*
%TO.P,C9,1*%
%TO.N,GND*%
X30480000Y22941500D03*
%TO.P,C9,2*%
%TO.N,+15V*%
X30480000Y24491500D03*
%TD*%
D21*
%TO.P,C13,1*%
%TO.N,GND*%
X16523000Y9842500D03*
%TO.P,C13,2*%
%TO.N,Net-(C13-Pad2)*%
X14973000Y9842500D03*
%TD*%
D27*
%TO.P,R7,1*%
%TO.N,GND*%
X25082000Y12921500D03*
%TO.P,R7,2*%
%TO.N,Net-(R6-Pad1)*%
X23432000Y12921500D03*
%TD*%
D25*
%TO.P,R8,1*%
%TO.N,Net-(C7-Pad1)*%
X33528000Y24541500D03*
%TO.P,R8,2*%
%TO.N,Net-(C8-Pad2)*%
X33528000Y22891500D03*
%TD*%
D28*
%TO.P,FB1,1*%
%TO.N,Net-(FB1-Pad1)*%
X3859000Y19621500D03*
%TO.P,FB1,2*%
%TO.N,GND*%
X6809000Y19621500D03*
%TD*%
D22*
%TO.P,U5,1,NC*%
%TO.N,unconnected-(U5-Pad1)*%
X19493000Y27272500D03*
%TO.P,U5,2,-*%
%TO.N,Net-(C12-Pad2)*%
X19493000Y26002500D03*
%TO.P,U5,3,+*%
%TO.N,Net-(R12-Pad1)*%
X19493000Y24732500D03*
%TO.P,U5,4,V-*%
%TO.N,-15V*%
X19493000Y23462500D03*
%TO.P,U5,5,NC*%
%TO.N,unconnected-(U5-Pad5)*%
X14543000Y23462500D03*
%TO.P,U5,6*%
%TO.N,Net-(C12-Pad1)*%
X14543000Y24732500D03*
%TO.P,U5,7,V+*%
%TO.N,+15V*%
X14543000Y26002500D03*
%TO.P,U5,8,NC*%
%TO.N,unconnected-(U5-Pad8)*%
X14543000Y27272500D03*
%TD*%
D24*
%TO.P,R5,1*%
%TO.N,Net-(C7-Pad1)*%
X28575000Y17430500D03*
%TO.P,R5,2*%
%TO.N,Net-(C7-Pad2)*%
X28575000Y19080500D03*
%TD*%
D29*
%TO.P,C4,1*%
%TO.N,+5V*%
X22974000Y9969500D03*
%TO.P,C4,2*%
%TO.N,GND*%
X24524000Y9969500D03*
%TD*%
D26*
%TO.P,C3,1*%
%TO.N,GND*%
X14224000Y15194500D03*
%TO.P,C3,2*%
%TO.N,+5V*%
X14224000Y16744500D03*
%TD*%
D21*
%TO.P,C47,1*%
%TO.N,GND*%
X28334000Y31940500D03*
%TO.P,C47,2*%
%TO.N,+3V3*%
X26784000Y31940500D03*
%TD*%
D30*
%TO.N,Net-(R12-Pad1)*%
X21061300Y21220500D03*
X32506000Y10192500D03*
%TO.N,Net-(C12-Pad2)*%
X17855100Y25184400D03*
X15391000Y14455000D03*
%TO.N,Net-(C19-Pad1)*%
X25969100Y8298700D03*
%TO.N,Net-(IC1-Pad6)*%
X16975400Y17369200D03*
%TO.N,Net-(R6-Pad1)*%
X23388000Y13932400D03*
%TO.N,Net-(C12-Pad1)*%
X16215200Y25696500D03*
X23555700Y26030500D03*
X13471700Y13932500D03*
%TO.N,/vsense/CMD*%
X10611500Y24613200D03*
X10229600Y18376500D03*
%TO.N,+3V3*%
X22930400Y30496500D03*
X25969100Y9505200D03*
%TO.N,Net-(C8-Pad2)*%
X23326500Y19021300D03*
%TO.N,Net-(C7-Pad2)*%
X27674500Y18102100D03*
X13803800Y19160000D03*
%TO.N,Net-(C7-Pad1)*%
X30730200Y15387800D03*
%TO.N,-15V*%
X30366000Y26868800D03*
X9654600Y24163900D03*
X10668000Y12637700D03*
X34284500Y20362600D03*
X38588900Y29919600D03*
X23829100Y17335500D03*
X21643800Y22573500D03*
X19493000Y22734100D03*
%TO.N,+15V*%
X13131200Y26177600D03*
X36576000Y32451700D03*
X30423700Y16232600D03*
X18538500Y8517900D03*
X25013500Y19014700D03*
X25013500Y22795800D03*
X30480000Y25371900D03*
X9645500Y23062700D03*
%TO.N,+5V*%
X29458500Y7379700D03*
X12513900Y16585500D03*
X29458500Y10760600D03*
X22273200Y10670300D03*
X6831800Y26843400D03*
%TO.N,GND*%
X13301800Y15134300D03*
X6809000Y18292500D03*
X25918200Y12992600D03*
X18414000Y13834000D03*
X9651500Y27170400D03*
X21933900Y8855200D03*
X18148000Y10755500D03*
X6723200Y23641800D03*
X20357800Y13825700D03*
X14923000Y8928200D03*
X6643800Y21950400D03*
X27936500Y27752500D03*
X29219700Y32103600D03*
X10668000Y15972200D03*
X19304000Y31869800D03*
X20447000Y15423100D03*
X24524000Y10873100D03*
X26159100Y29281200D03*
X30569000Y9074300D03*
X30480000Y22056800D03*
X39497000Y32453600D03*
X40238500Y5293400D03*
X37484500Y29919600D03*
X23566000Y29477500D03*
%TD*%
D31*
%TO.N,Net-(C13-Pad2)*%
X21704000Y3111500D02*
X23876000Y3111500D01*
X14973000Y9842500D02*
X21704000Y3111500D01*
%TO.N,Net-(R12-Pad1)*%
X21061300Y23424600D02*
X21061300Y21220500D01*
X19753400Y24732500D02*
X21061300Y23424600D01*
X19493000Y24732500D02*
X19753400Y24732500D01*
%TO.N,/vsense/SMA_OUT*%
X7770300Y5905500D02*
X4826000Y5905500D01*
X13970900Y12106100D02*
X7770300Y5905500D01*
X23687200Y12106100D02*
X13970900Y12106100D01*
X24193600Y12612500D02*
X23687200Y12106100D01*
X24193600Y13163900D02*
X24193600Y12612500D01*
X27025300Y15995600D02*
X24193600Y13163900D01*
X29299100Y15995600D02*
X27025300Y15995600D01*
X30734000Y17430500D02*
X29299100Y15995600D01*
%TO.N,Net-(C12-Pad2)*%
X18673200Y26002500D02*
X17855100Y25184400D01*
X19493000Y26002500D02*
X18673200Y26002500D01*
%TO.N,Net-(C19-Pad1)*%
X26137300Y8130500D02*
X25969100Y8298700D01*
X27183500Y8130500D02*
X26137300Y8130500D01*
%TO.N,Net-(IC1-Pad6)*%
X16764000Y17157800D02*
X16975400Y17369200D01*
X16764000Y12921500D02*
X16764000Y17157800D01*
%TO.N,Net-(FB1-Pad1)*%
X2418000Y18180500D02*
X2418000Y15485500D01*
X3859000Y19621500D02*
X2418000Y18180500D01*
%TO.N,Net-(R6-Pad1)*%
X23432000Y13888400D02*
X23432000Y12921500D01*
X23388000Y13932400D02*
X23432000Y13888400D01*
X23388000Y15175300D02*
X23388000Y13932400D01*
X22352000Y16211300D02*
X23388000Y15175300D01*
%TO.N,Net-(C12-Pad1)*%
X15251200Y24732500D02*
X16215200Y25696500D01*
X14543000Y24732500D02*
X15251200Y24732500D01*
%TO.N,+3V3*%
X24374400Y31940500D02*
X26784000Y31940500D01*
X22930400Y30496500D02*
X24374400Y31940500D01*
X14804400Y30496500D02*
X22930400Y30496500D01*
X10895100Y26587200D02*
X14804400Y30496500D01*
X7464700Y26587200D02*
X10895100Y26587200D01*
X6595000Y25717500D02*
X7464700Y26587200D01*
X3113000Y25717500D02*
X6595000Y25717500D01*
X26494400Y10030500D02*
X25969100Y9505200D01*
X27183500Y10030500D02*
X26494400Y10030500D01*
%TO.N,Net-(C8-Pad2)*%
X23326500Y18835800D02*
X23326500Y19021300D01*
X22352000Y17861300D02*
X23326500Y18835800D01*
X31794900Y21158400D02*
X33528000Y22891500D01*
X25463600Y21158400D02*
X31794900Y21158400D01*
X23326500Y19021300D02*
X25463600Y21158400D01*
%TO.N,Net-(C7-Pad2)*%
X28575000Y19080500D02*
X30734000Y19080500D01*
X28575000Y19002600D02*
X27674500Y18102100D01*
X28575000Y19080500D02*
X28575000Y19002600D01*
%TO.N,Net-(C7-Pad1)*%
X29193800Y18049300D02*
X31400300Y18049300D01*
X28575000Y17430500D02*
X29193800Y18049300D01*
X34206400Y23863100D02*
X33528000Y24541500D01*
X34206400Y21459900D02*
X34206400Y23863100D01*
X31400300Y18653800D02*
X34206400Y21459900D01*
X31400300Y18049300D02*
X31400300Y18653800D01*
X31400500Y16058100D02*
X30730200Y15387800D01*
X31400500Y18049100D02*
X31400500Y16058100D01*
X31400300Y18049300D02*
X31400500Y18049100D01*
%TO.N,-15V*%
X19493000Y23462500D02*
X19493000Y22734100D01*
%TO.N,+15V*%
X14367900Y26177600D02*
X14543000Y26002500D01*
X13131200Y26177600D02*
X14367900Y26177600D01*
X19345600Y8517900D02*
X19418000Y8445500D01*
X18538500Y8517900D02*
X19345600Y8517900D01*
X30480000Y24491500D02*
X30480000Y25371900D01*
%TO.N,+5V*%
X29458500Y7379700D02*
X29458500Y8130500D01*
X14065000Y16585500D02*
X14224000Y16744500D01*
X12513900Y16585500D02*
X14065000Y16585500D01*
X29458500Y10030500D02*
X29458500Y10760600D01*
X22273200Y10670300D02*
X22974000Y9969500D01*
X6831800Y27635700D02*
X6718000Y27749500D01*
X6831800Y26843400D02*
X6831800Y27635700D01*
%TO.N,GND*%
X14163800Y15134300D02*
X14224000Y15194500D01*
X13301800Y15134300D02*
X14163800Y15134300D01*
X6809000Y19621500D02*
X6809000Y18292500D01*
X18414000Y12921500D02*
X18414000Y13834000D01*
X8847100Y27170400D02*
X8268000Y27749500D01*
X9651500Y27170400D02*
X8847100Y27170400D01*
X8063000Y21907500D02*
X8063000Y23177500D01*
X21377700Y8855200D02*
X20968000Y8445500D01*
X21933900Y8855200D02*
X21377700Y8855200D01*
X25153100Y12992600D02*
X25918200Y12992600D01*
X25082000Y12921500D02*
X25153100Y12992600D01*
X6723200Y23641800D02*
X7598700Y23641800D01*
X7598700Y23641800D02*
X8063000Y23177500D01*
X7598700Y23983200D02*
X8063000Y24447500D01*
X7598700Y23641800D02*
X7598700Y23983200D01*
X8063000Y24447500D02*
X8063000Y25717500D01*
X17436000Y10755500D02*
X16523000Y9842500D01*
X18148000Y10755500D02*
X17436000Y10755500D01*
X28497100Y32103600D02*
X28334000Y31940500D01*
X29219700Y32103600D02*
X28497100Y32103600D01*
X24524000Y9969500D02*
X24524000Y10873100D01*
X29464700Y9074300D02*
X29458500Y9080500D01*
X30569000Y9074300D02*
X29464700Y9074300D01*
X30480000Y22941500D02*
X30480000Y22056800D01*
%TD*%
M02*
