M48
; DRILL file {KiCad (6.0.4-0)} date Monday, May 29, 2023 at 12:52:23 PM
; FORMAT={-:-/ absolute / inch / decimal}
; #@! TF.CreationDate,2023-05-29T12:52:23-05:00
; #@! TF.GenerationSoftware,Kicad,Pcbnew,(6.0.4-0)
; #@! TF.FileFunction,Plated,1,6,PTH
FMAT,2
INCH
; #@! TA.AperFunction,Plated,PTH,ViaDrill
T1C0.0118
; #@! TA.AperFunction,Plated,PTH,ComponentDrill
T2C0.0350
; #@! TA.AperFunction,Plated,PTH,ComponentDrill
T3C0.0394
; #@! TA.AperFunction,Plated,PTH,ComponentDrill
T4C0.0402
; #@! TA.AperFunction,Plated,PTH,ComponentDrill
T5C0.0500
; #@! TA.AperFunction,Plated,PTH,ComponentDrill
T6C0.0512
; #@! TA.AperFunction,Plated,PTH,ComponentDrill
T7C0.0700
; #@! TA.AperFunction,Plated,PTH,ComponentDrill
T8C0.0791
; #@! TA.AperFunction,Plated,PTH,ComponentDrill
T9C0.0866
%
G90
G05
T1
X0.2616Y0.8642
X0.2647Y0.9308
X0.2681Y0.7202
X0.269Y1.0568
X0.3797Y0.908
X0.38Y1.0697
X0.3801Y0.9513
X0.4027Y0.7235
X0.4178Y0.969
X0.42Y0.6288
X0.42Y0.4975
X0.4927Y0.653
X0.517Y1.0306
X0.5237Y0.5958
X0.5304Y0.5485
X0.5435Y0.7543
X0.5875Y0.3515
X0.6059Y0.5691
X0.6384Y1.0117
X0.6683Y0.6838
X0.703Y0.9915
X0.7145Y0.4234
X0.725Y0.5446
X0.7299Y0.3354
X0.76Y1.2547
X0.7674Y0.895
X0.8015Y0.5443
X0.805Y0.6072
X0.8292Y0.8355
X0.8521Y0.8887
X0.8635Y0.3486
X0.8769Y0.4201
X0.9028Y1.2006
X0.9184Y0.7489
X0.9208Y0.5485
X0.9274Y1.0248
X0.9278Y1.1605
X0.9382Y0.6825
X0.9655Y0.4281
X0.9848Y0.8975
X0.9848Y0.7486
X1.0204Y0.5115
X1.0224Y0.3742
X1.0224Y0.3267
X1.0299Y1.1528
X1.0895Y0.7127
X1.0999Y1.0926
X1.1504Y1.2639
X1.1598Y0.4236
X1.1598Y0.2905
X1.1955Y1.0578
X1.1978Y0.6391
X1.2Y0.9989
X1.2Y0.8684
X1.2035Y0.3573
X1.2099Y0.6058
X1.2798Y0.4013
X1.3498Y0.8017
X1.44Y1.2776
X1.4758Y1.1779
X1.5192Y1.1779
X1.555Y1.2777
X1.5842Y0.2084
T2
X1.52Y0.7818
X1.52Y0.6818
T3
X1.0996Y0.1247
X1.1996Y0.1247
X1.22Y1.2687
X1.2996Y0.1247
X1.3996Y0.1247
T4
X0.9Y1.2687
X0.94Y0.1225
T5
X0.19Y0.2325
T6
X0.0952Y1.2278
X0.0952Y0.6097
X0.2881Y1.2042
X0.2881Y0.6333
T7
X0.0896Y0.3329
X0.0896Y0.1321
X0.2904Y0.3329
X0.2904Y0.1321
T8
X1.72Y0.8818
X1.72Y0.4818
T9
X1.7795Y0.1306
T0
M30
