M48
; DRILL file {KiCad (6.0.4-0)} date Monday, May 15, 2023 at 03:29:42 PM
; FORMAT={-:-/ absolute / inch / decimal}
; #@! TF.CreationDate,2023-05-15T15:29:42-05:00
; #@! TF.GenerationSoftware,Kicad,Pcbnew,(6.0.4-0)
; #@! TF.FileFunction,Plated,1,6,PTH
FMAT,2
INCH
; #@! TA.AperFunction,Plated,PTH,ViaDrill
T1C0.0118
; #@! TA.AperFunction,Plated,PTH,ComponentDrill
T2C0.0350
; #@! TA.AperFunction,Plated,PTH,ComponentDrill
T3C0.0394
; #@! TA.AperFunction,Plated,PTH,ComponentDrill
T4C0.0402
; #@! TA.AperFunction,Plated,PTH,ComponentDrill
T5C0.0512
; #@! TA.AperFunction,Plated,PTH,ComponentDrill
T6C0.0791
; #@! TA.AperFunction,Plated,PTH,ComponentDrill
T7C0.0866
%
G90
G05
T1
X0.0394Y0.9578
X0.0495Y1.0872
X0.0695Y0.3979
X0.133Y0.0993
X0.1441Y0.9908
X0.1643Y0.4358
X0.1895Y1.0883
X0.2505Y1.087
X0.2539Y0.4852
X0.254Y0.7374
X0.2543Y0.4251
X0.2773Y1.0229
X0.2847Y0.9779
X0.3065Y1.0558
X0.362Y0.5786
X0.3627Y0.638
X0.3654Y0.2418
X0.3654Y0.2983
X0.3739Y0.6882
X0.4028Y1.0259
X0.4075Y0.8779
X0.4142Y0.6802
X0.4448Y0.9675
X0.473Y0.5925
X0.4867Y1.0611
X0.4972Y0.3762
X0.5254Y0.3638
X0.6692Y0.4197
X0.6874Y0.5082
X0.7531Y0.3951
X0.7559Y0.3034
X0.7946Y0.9804
X0.8093Y0.6623
X0.8321Y0.4719
X0.8329Y0.4311
X0.8516Y0.5199
X0.853Y0.6524
X0.94Y0.5175
X0.9712Y0.7176
X0.9748Y0.3589
X0.9915Y0.5003
X1.0283Y0.5375
X1.0509Y0.8934
X1.0565Y0.9721
X1.0582Y0.2861
X1.0687Y0.8222
X1.0695Y0.9247
X1.1362Y0.1025
X1.1375Y1.0795
X1.1424Y0.4178
X1.1442Y0.4958
X1.1664Y0.7697
X1.18Y0.913
X1.18Y0.6173
X1.1971Y0.3794
X1.2228Y0.6413
X1.2946Y0.7724
X1.3233Y0.1746
X1.58Y1.0774
X1.58Y0.9477
X1.5852Y0.2122
X1.7Y1.0773
X1.7Y0.948
T2
X1.5158Y0.6865
X1.5158Y0.5865
T3
X0.3194Y0.1287
X0.4194Y0.1287
X0.5194Y0.1287
X0.7236Y0.1287
X0.8236Y0.1287
X0.9236Y0.1287
X1.0236Y0.1287
X1.22Y1.0325
T4
X0.9Y1.0325
T5
X0.0772Y0.8976
X0.0772Y0.2794
X0.2701Y0.8739
X0.2701Y0.3031
T6
X1.7158Y0.7865
X1.7158Y0.3865
T7
X1.78Y0.1325
T0
M30
