%TF.GenerationSoftware,KiCad,Pcbnew,(6.0.4-0)*%
%TF.CreationDate,2023-05-29T12:52:23-05:00*%
%TF.ProjectId,voltage_sense,766f6c74-6167-4655-9f73-656e73652e6b,rev?*%
%TF.SameCoordinates,Original*%
%TF.FileFunction,Copper,L4,Inr*%
%TF.FilePolarity,Positive*%
%FSLAX46Y46*%
G04 Gerber Fmt 4.6, Leading zero omitted, Abs format (unit mm)*
G04 Created by KiCad (PCBNEW (6.0.4-0)) date 2023-05-29 12:52:23*
%MOMM*%
%LPD*%
G01*
G04 APERTURE LIST*
%TA.AperFunction,ComponentPad*%
%ADD10R,1.700000X1.700000*%
%TD*%
%TA.AperFunction,ComponentPad*%
%ADD11O,1.700000X1.700000*%
%TD*%
%TA.AperFunction,ComponentPad*%
%ADD12C,2.020000*%
%TD*%
%TA.AperFunction,ComponentPad*%
%ADD13C,2.000000*%
%TD*%
%TA.AperFunction,ComponentPad*%
%ADD14O,2.500000X1.600000*%
%TD*%
%TA.AperFunction,ComponentPad*%
%ADD15O,7.000000X3.500000*%
%TD*%
%TA.AperFunction,ComponentPad*%
%ADD16C,1.950000*%
%TD*%
%TA.AperFunction,ComponentPad*%
%ADD17C,4.400000*%
%TD*%
%TA.AperFunction,ComponentPad*%
%ADD18C,1.905000*%
%TD*%
%TA.AperFunction,ComponentPad*%
%ADD19C,2.667000*%
%TD*%
%TA.AperFunction,ViaPad*%
%ADD20C,0.600000*%
%TD*%
%TA.AperFunction,Conductor*%
%ADD21C,0.127000*%
%TD*%
G04 APERTURE END LIST*
D10*
%TO.N,+5V*%
%TO.C,J2*%
X35550000Y3168500D03*
D11*
%TO.N,-15V*%
X33010000Y3168500D03*
%TO.N,+15V*%
X30470000Y3168500D03*
%TO.N,GND*%
X27930000Y3168500D03*
%TD*%
D12*
%TO.N,Net-(C13-Pad2)*%
%TO.C,TP1*%
X23876000Y3111500D03*
%TD*%
D13*
%TO.N,GND*%
%TO.C,TP9*%
X30988000Y32225500D03*
%TD*%
D14*
%TO.N,Net-(J5-Pad1)*%
%TO.C,J5*%
X38608000Y17317500D03*
D15*
%TO.N,GND*%
X43688000Y22397500D03*
D14*
X38608000Y19857500D03*
D15*
X43688000Y12237500D03*
%TD*%
D16*
%TO.N,Net-(FB1-Pad1)*%
%TO.C,J4*%
X7318000Y16085500D03*
X2418000Y15485500D03*
X7318000Y30585500D03*
X2418000Y31185500D03*
%TD*%
D17*
%TO.N,Net-(H3-Pad1)*%
%TO.C,H3*%
X45200000Y3317500D03*
%TD*%
D12*
%TO.N,Net-(C1-Pad2)*%
%TO.C,TP2*%
X22860000Y32225500D03*
%TD*%
D18*
%TO.N,/vsense/SMA_OUT*%
%TO.C,J1*%
X4826000Y5905500D03*
D19*
%TO.N,GND*%
X7375900Y3355600D03*
%TO.N,N/C*%
X2276100Y3355600D03*
X2276100Y8455400D03*
X7375900Y8455400D03*
%TD*%
D20*
%TO.N,Net-(R12-Pad1)*%
X21061300Y21220500D03*
X32506000Y10192500D03*
%TO.N,Net-(C12-Pad2)*%
X17855100Y25184400D03*
X15391000Y14455000D03*
%TO.N,Net-(C19-Pad1)*%
X25969100Y8298700D03*
%TO.N,Net-(IC1-Pad6)*%
X16975400Y17369200D03*
%TO.N,Net-(R6-Pad1)*%
X23388000Y13932400D03*
%TO.N,Net-(C12-Pad1)*%
X16215200Y25696500D03*
X23555700Y26030500D03*
X13471700Y13932500D03*
%TO.N,/vsense/CMD*%
X10611500Y24613200D03*
X10229600Y18376500D03*
%TO.N,+3V3*%
X22930400Y30496500D03*
X25969100Y9505200D03*
%TO.N,Net-(C8-Pad2)*%
X23326500Y19021300D03*
%TO.N,Net-(C7-Pad2)*%
X27674500Y18102100D03*
X13803800Y19160000D03*
%TO.N,Net-(C7-Pad1)*%
X30730200Y15387800D03*
%TO.N,-15V*%
X30366000Y26868800D03*
X9654600Y24163900D03*
X10668000Y12637700D03*
X34284500Y20362600D03*
X38588900Y29919600D03*
X23829100Y17335500D03*
X21643800Y22573500D03*
X19493000Y22734100D03*
%TO.N,+15V*%
X13131200Y26177600D03*
X36576000Y32451700D03*
X30423700Y16232600D03*
X18538500Y8517900D03*
X25013500Y19014700D03*
X25013500Y22795800D03*
X30480000Y25371900D03*
X9645500Y23062700D03*
%TO.N,+5V*%
X29458500Y7379700D03*
X12513900Y16585500D03*
X29458500Y10760600D03*
X22273200Y10670300D03*
X6831800Y26843400D03*
%TO.N,GND*%
X13301800Y15134300D03*
X6809000Y18292500D03*
X25918200Y12992600D03*
X18414000Y13834000D03*
X9651500Y27170400D03*
X21933900Y8855200D03*
X18148000Y10755500D03*
X6723200Y23641800D03*
X20357800Y13825700D03*
X14923000Y8928200D03*
X6643800Y21950400D03*
X27936500Y27752500D03*
X29219700Y32103600D03*
X10668000Y15972200D03*
X19304000Y31869800D03*
X20447000Y15423100D03*
X24524000Y10873100D03*
X26159100Y29281200D03*
X30569000Y9074300D03*
X30480000Y22056800D03*
X39497000Y32453600D03*
X40238500Y5293400D03*
X37484500Y29919600D03*
X23566000Y29477500D03*
%TD*%
D21*
%TO.N,Net-(C7-Pad2)*%
X14861700Y18102100D02*
X13803800Y19160000D01*
X27674500Y18102100D02*
X14861700Y18102100D01*
%TD*%
%TA.AperFunction,Conductor*%
%TO.N,+15V*%
G36*
X47687621Y33952498D02*
G01*
X47734114Y33898842D01*
X47745500Y33846500D01*
X47745500Y19904342D01*
X47725498Y19836221D01*
X47671842Y19789728D01*
X47620034Y19778343D01*
X45109887Y19767698D01*
X40242541Y19747057D01*
X40174336Y19766770D01*
X40127616Y19820228D01*
X40116526Y19861637D01*
X40116230Y19864897D01*
X40098834Y20056050D01*
X40040446Y20254434D01*
X39983898Y20362600D01*
X39947492Y20432239D01*
X39947489Y20432243D01*
X39944637Y20437699D01*
X39939089Y20444600D01*
X39821271Y20591136D01*
X39815057Y20598865D01*
X39656640Y20731792D01*
X39475422Y20831418D01*
X39278304Y20893947D01*
X39272187Y20894633D01*
X39272183Y20894634D01*
X39196163Y20903161D01*
X39117360Y20912000D01*
X38105966Y20912000D01*
X37952189Y20896922D01*
X37754217Y20837151D01*
X37662921Y20788608D01*
X37577067Y20742959D01*
X37577064Y20742957D01*
X37571625Y20740065D01*
X37566855Y20736174D01*
X37566851Y20736172D01*
X37416143Y20613258D01*
X37416140Y20613255D01*
X37411368Y20609363D01*
X37407441Y20604616D01*
X37407439Y20604614D01*
X37283478Y20454771D01*
X37283475Y20454766D01*
X37279550Y20450022D01*
X37276620Y20444603D01*
X37276618Y20444600D01*
X37184122Y20273532D01*
X37184120Y20273527D01*
X37181192Y20268112D01*
X37120040Y20070563D01*
X37119396Y20064438D01*
X37119396Y20064437D01*
X37109169Y19967126D01*
X37098424Y19864897D01*
X37098983Y19858754D01*
X37098980Y19858318D01*
X37078506Y19790338D01*
X37024529Y19744219D01*
X36973517Y19733194D01*
X34734450Y19723699D01*
X34666245Y19743412D01*
X34619525Y19796870D01*
X34609124Y19867101D01*
X34638343Y19931806D01*
X34657212Y19949660D01*
X34673421Y19962097D01*
X34673424Y19962100D01*
X34679974Y19967126D01*
X34768855Y20082958D01*
X34824728Y20217846D01*
X34830265Y20259899D01*
X34842707Y20354412D01*
X34843785Y20362600D01*
X34829749Y20469215D01*
X34825806Y20499168D01*
X34825805Y20499170D01*
X34824728Y20507354D01*
X34768855Y20642242D01*
X34721951Y20703368D01*
X34685001Y20751523D01*
X34685000Y20751524D01*
X34679974Y20758074D01*
X34673424Y20763100D01*
X34673421Y20763103D01*
X34570696Y20841927D01*
X34570694Y20841928D01*
X34564143Y20846955D01*
X34429254Y20902828D01*
X34366247Y20911123D01*
X34292688Y20920807D01*
X34284500Y20921885D01*
X34276312Y20920807D01*
X34147932Y20903906D01*
X34147930Y20903905D01*
X34139746Y20902828D01*
X34126939Y20897523D01*
X34012486Y20850115D01*
X34012484Y20850114D01*
X34004858Y20846955D01*
X33889026Y20758074D01*
X33884003Y20751528D01*
X33864668Y20726330D01*
X33800145Y20642242D01*
X33744272Y20507354D01*
X33743195Y20499170D01*
X33743194Y20499168D01*
X33739251Y20469215D01*
X33725215Y20362600D01*
X33726293Y20354412D01*
X33738736Y20259899D01*
X33744272Y20217846D01*
X33800145Y20082958D01*
X33889026Y19967126D01*
X33916729Y19945868D01*
X33958596Y19888532D01*
X33962818Y19817661D01*
X33928054Y19755758D01*
X33865342Y19722477D01*
X33840559Y19719908D01*
X31641114Y19710581D01*
X31641113Y19710581D01*
X31623000Y19710504D01*
X31622921Y19697284D01*
X31622921Y19697282D01*
X31599831Y15812028D01*
X31575880Y11782098D01*
X31589471Y11782037D01*
X31589473Y11782037D01*
X39897587Y11745044D01*
X39965618Y11724739D01*
X40011872Y11670876D01*
X40015908Y11660795D01*
X40093662Y11439384D01*
X40095715Y11435433D01*
X40095717Y11435427D01*
X40214183Y11207369D01*
X40224517Y11187476D01*
X40227100Y11183861D01*
X40227104Y11183855D01*
X40255283Y11144423D01*
X40389561Y10956520D01*
X40585501Y10751123D01*
X40588997Y10748367D01*
X40588998Y10748366D01*
X40686087Y10671827D01*
X40808426Y10575382D01*
X40880132Y10533732D01*
X41050042Y10435040D01*
X41050048Y10435037D01*
X41053889Y10432806D01*
X41058012Y10431136D01*
X41312861Y10327911D01*
X41312869Y10327908D01*
X41316993Y10326238D01*
X41592488Y10257805D01*
X41834586Y10233000D01*
X45510311Y10233000D01*
X45721158Y10247929D01*
X45725513Y10248867D01*
X45725516Y10248867D01*
X45994319Y10306739D01*
X45994321Y10306739D01*
X45998666Y10307675D01*
X46264987Y10405926D01*
X46418183Y10488586D01*
X46510892Y10538609D01*
X46514808Y10540722D01*
X46743144Y10709373D01*
X46762418Y10728346D01*
X46858245Y10822680D01*
X46945438Y10908514D01*
X47022636Y11009668D01*
X47114950Y11130628D01*
X47114953Y11130632D01*
X47117655Y11134173D01*
X47256359Y11381845D01*
X47267317Y11410168D01*
X47334821Y11584659D01*
X47352667Y11630787D01*
X47395900Y11687101D01*
X47462716Y11711103D01*
X47470729Y11711323D01*
X47620062Y11710658D01*
X47688092Y11690353D01*
X47734346Y11636490D01*
X47745500Y11584659D01*
X47745500Y4221719D01*
X47725498Y4153598D01*
X47671842Y4107105D01*
X47601568Y4097001D01*
X47536988Y4126495D01*
X47499667Y4182783D01*
X47487875Y4219074D01*
X47486649Y4222848D01*
X47355147Y4502302D01*
X47325580Y4548893D01*
X47191780Y4759727D01*
X47189658Y4763071D01*
X46992791Y5001043D01*
X46767651Y5212464D01*
X46653788Y5295190D01*
X46520996Y5391669D01*
X46520991Y5391672D01*
X46517787Y5394000D01*
X46350217Y5486123D01*
X46250604Y5540886D01*
X46250601Y5540888D01*
X46247142Y5542789D01*
X45959982Y5656484D01*
X45660837Y5733291D01*
X45354424Y5772000D01*
X45045576Y5772000D01*
X44739163Y5733291D01*
X44440018Y5656484D01*
X44152858Y5542789D01*
X44149399Y5540888D01*
X44149396Y5540886D01*
X44049783Y5486123D01*
X43882213Y5394000D01*
X43879009Y5391672D01*
X43879004Y5391669D01*
X43746212Y5295190D01*
X43632349Y5212464D01*
X43407209Y5001043D01*
X43210342Y4763071D01*
X43208220Y4759727D01*
X43074421Y4548893D01*
X43044853Y4502302D01*
X42913351Y4222848D01*
X42817912Y3929116D01*
X42760040Y3625739D01*
X42740647Y3317500D01*
X42760040Y3009261D01*
X42817912Y2705884D01*
X42913351Y2412152D01*
X43044853Y2132698D01*
X43046971Y2129360D01*
X43046973Y2129357D01*
X43140515Y1981959D01*
X43210342Y1871929D01*
X43407209Y1633957D01*
X43632349Y1422536D01*
X43635551Y1420209D01*
X43635553Y1420208D01*
X43879004Y1243331D01*
X43879009Y1243328D01*
X43882213Y1241000D01*
X44152858Y1092211D01*
X44440018Y978516D01*
X44739163Y901709D01*
X45045576Y863000D01*
X45354424Y863000D01*
X45660837Y901709D01*
X45959982Y978516D01*
X46247142Y1092211D01*
X46517787Y1241000D01*
X46520991Y1243328D01*
X46520996Y1243331D01*
X46764447Y1420208D01*
X46764449Y1420209D01*
X46767651Y1422536D01*
X46992791Y1633957D01*
X47189658Y1871929D01*
X47259485Y1981959D01*
X47353027Y2129357D01*
X47353029Y2129360D01*
X47355147Y2132698D01*
X47486649Y2412152D01*
X47499667Y2452217D01*
X47539741Y2510823D01*
X47605137Y2538460D01*
X47675094Y2526353D01*
X47727400Y2478347D01*
X47745500Y2413281D01*
X47745500Y698000D01*
X47725498Y629879D01*
X47671842Y583386D01*
X47619500Y572000D01*
X380500Y572000D01*
X312379Y592002D01*
X265886Y645658D01*
X254500Y698000D01*
X254500Y3355600D01*
X683190Y3355600D01*
X702801Y3106414D01*
X711237Y3071278D01*
X753183Y2896563D01*
X761153Y2863364D01*
X763043Y2858801D01*
X763045Y2858795D01*
X848592Y2652266D01*
X856807Y2632434D01*
X987409Y2419311D01*
X1149743Y2229243D01*
X1339811Y2066909D01*
X1552934Y1936307D01*
X1557504Y1934414D01*
X1557508Y1934412D01*
X1779295Y1842545D01*
X1779301Y1842543D01*
X1783864Y1840653D01*
X1788664Y1839501D01*
X1788669Y1839499D01*
X1899932Y1812787D01*
X2026914Y1782301D01*
X2276100Y1762690D01*
X2525286Y1782301D01*
X2652268Y1812787D01*
X2763531Y1839499D01*
X2763536Y1839501D01*
X2768336Y1840653D01*
X2772899Y1842543D01*
X2772905Y1842545D01*
X2994692Y1934412D01*
X2994696Y1934414D01*
X2999266Y1936307D01*
X3212389Y2066909D01*
X3402457Y2229243D01*
X3564791Y2419311D01*
X3695393Y2632434D01*
X3703608Y2652266D01*
X3789155Y2858795D01*
X3789157Y2858801D01*
X3791047Y2863364D01*
X3799018Y2896563D01*
X3840963Y3071278D01*
X3849399Y3106414D01*
X3869010Y3355600D01*
X5782990Y3355600D01*
X5802601Y3106414D01*
X5811037Y3071278D01*
X5852983Y2896563D01*
X5860953Y2863364D01*
X5862843Y2858801D01*
X5862845Y2858795D01*
X5948392Y2652266D01*
X5956607Y2632434D01*
X6087209Y2419311D01*
X6249543Y2229243D01*
X6439611Y2066909D01*
X6652734Y1936307D01*
X6657304Y1934414D01*
X6657308Y1934412D01*
X6879095Y1842545D01*
X6879101Y1842543D01*
X6883664Y1840653D01*
X6888464Y1839501D01*
X6888469Y1839499D01*
X6999732Y1812787D01*
X7126714Y1782301D01*
X7375900Y1762690D01*
X7625086Y1782301D01*
X7752068Y1812787D01*
X7863331Y1839499D01*
X7863336Y1839501D01*
X7868136Y1840653D01*
X7872699Y1842543D01*
X7872705Y1842545D01*
X8094492Y1934412D01*
X8094496Y1934414D01*
X8099066Y1936307D01*
X8312189Y2066909D01*
X8502257Y2229243D01*
X8664591Y2419311D01*
X8795193Y2632434D01*
X8803408Y2652266D01*
X8888955Y2858795D01*
X8888957Y2858801D01*
X8890847Y2863364D01*
X8898818Y2896563D01*
X8940763Y3071278D01*
X8949199Y3106414D01*
X8968810Y3355600D01*
X8966769Y3381536D01*
X12742112Y3381536D01*
X12742312Y3376208D01*
X12742312Y3376206D01*
X12744464Y3318901D01*
X12743705Y3318872D01*
X12744034Y3317484D01*
X12744340Y3317511D01*
X12744374Y3317123D01*
X12744465Y3315662D01*
X12744523Y3315415D01*
X12744648Y3313993D01*
X12750736Y3151831D01*
X12751831Y3146612D01*
X12764628Y3085621D01*
X12763861Y3085460D01*
X12764841Y3083184D01*
X12764937Y3082092D01*
X12766361Y3076778D01*
X12766464Y3076193D01*
X12767635Y3071290D01*
X12797939Y2926863D01*
X12806934Y2904086D01*
X12823975Y2860934D01*
X12824724Y2858959D01*
X12826097Y2853837D01*
X12828422Y2848851D01*
X12828423Y2848849D01*
X12828947Y2847725D01*
X12831934Y2840783D01*
X12882372Y2713064D01*
X12919273Y2652254D01*
X12920811Y2649374D01*
X12920890Y2649420D01*
X12923639Y2644659D01*
X12925965Y2639671D01*
X12929122Y2635163D01*
X12929124Y2635159D01*
X12930674Y2632945D01*
X12935181Y2626038D01*
X12989950Y2535782D01*
X13001621Y2516548D01*
X13005116Y2512521D01*
X13005117Y2512519D01*
X13051993Y2458500D01*
X13055555Y2453937D01*
X13058347Y2450610D01*
X13061505Y2446099D01*
X13067791Y2439813D01*
X13073861Y2433299D01*
X13137640Y2359801D01*
X13152276Y2342934D01*
X13196753Y2306465D01*
X13216309Y2290430D01*
X13223574Y2283848D01*
X13224706Y2282898D01*
X13228599Y2279005D01*
X13233103Y2275851D01*
X13233108Y2275847D01*
X13235936Y2273867D01*
X13243554Y2268090D01*
X13325901Y2200569D01*
X13325907Y2200565D01*
X13330029Y2197185D01*
X13339811Y2191617D01*
X13407355Y2153169D01*
X13417296Y2146878D01*
X13417660Y2146623D01*
X13417667Y2146619D01*
X13422171Y2143465D01*
X13427155Y2141141D01*
X13427160Y2141138D01*
X13429875Y2139872D01*
X13438952Y2135182D01*
X13457353Y2124708D01*
X13529798Y2083470D01*
X13619498Y2050910D01*
X13629753Y2046667D01*
X13631348Y2045923D01*
X13631350Y2045922D01*
X13636337Y2043597D01*
X13641653Y2042173D01*
X13641655Y2042172D01*
X13642719Y2041887D01*
X13643702Y2041624D01*
X13654081Y2038357D01*
X13745871Y2005039D01*
X13846443Y1986852D01*
X13856616Y1984574D01*
X13864592Y1982437D01*
X13870990Y1981877D01*
X13882412Y1980348D01*
X13972069Y1964136D01*
X13976208Y1963941D01*
X13976215Y1963940D01*
X13994670Y1963070D01*
X13994677Y1963070D01*
X13996158Y1963000D01*
X14157712Y1963000D01*
X14237444Y1969765D01*
X14323733Y1977087D01*
X14323737Y1977088D01*
X14329044Y1977538D01*
X14334199Y1978876D01*
X14334205Y1978877D01*
X14546368Y2033944D01*
X14546367Y2033944D01*
X14551539Y2035286D01*
X14698412Y2101448D01*
X14756262Y2127507D01*
X14756265Y2127508D01*
X14761123Y2129697D01*
X14951803Y2258070D01*
X14978826Y2283848D01*
X15109560Y2408563D01*
X15118128Y2416736D01*
X15144984Y2452831D01*
X15252156Y2596876D01*
X15255342Y2601158D01*
X15259415Y2609168D01*
X15357102Y2801306D01*
X15357102Y2801307D01*
X15359520Y2806062D01*
X15427685Y3025589D01*
X15439072Y3111500D01*
X22606670Y3111500D01*
X22625954Y2891083D01*
X22627378Y2885770D01*
X22627378Y2885768D01*
X22671044Y2722807D01*
X22683220Y2677364D01*
X22685543Y2672383D01*
X22685543Y2672382D01*
X22774402Y2481822D01*
X22774405Y2481817D01*
X22776728Y2476835D01*
X22779884Y2472328D01*
X22779885Y2472326D01*
X22852857Y2368112D01*
X22903637Y2295590D01*
X23060090Y2139137D01*
X23064598Y2135980D01*
X23064601Y2135978D01*
X23210321Y2033944D01*
X23241335Y2012228D01*
X23246317Y2009905D01*
X23246322Y2009902D01*
X23404148Y1936307D01*
X23441864Y1918720D01*
X23447172Y1917298D01*
X23447174Y1917297D01*
X23650268Y1862878D01*
X23650270Y1862878D01*
X23655583Y1861454D01*
X23876000Y1842170D01*
X24096417Y1861454D01*
X24101730Y1862878D01*
X24101732Y1862878D01*
X24304826Y1917297D01*
X24304828Y1917298D01*
X24310136Y1918720D01*
X24347852Y1936307D01*
X24505678Y2009902D01*
X24505683Y2009905D01*
X24510665Y2012228D01*
X24541679Y2033944D01*
X24687399Y2135978D01*
X24687402Y2135980D01*
X24691910Y2139137D01*
X24848363Y2295590D01*
X24899144Y2368112D01*
X24972115Y2472326D01*
X24972116Y2472328D01*
X24975272Y2476835D01*
X24977595Y2481817D01*
X24977598Y2481822D01*
X25066457Y2672382D01*
X25066457Y2672383D01*
X25068780Y2677364D01*
X25080957Y2722807D01*
X25124622Y2885768D01*
X25124622Y2885770D01*
X25126046Y2891083D01*
X25145330Y3111500D01*
X25137803Y3197536D01*
X26821148Y3197536D01*
X26834424Y2994978D01*
X26835845Y2989382D01*
X26835846Y2989377D01*
X26871822Y2847725D01*
X26884392Y2798231D01*
X26886809Y2792988D01*
X26923654Y2713064D01*
X26969377Y2613884D01*
X26972710Y2609168D01*
X27082688Y2453552D01*
X27086533Y2448111D01*
X27090675Y2444076D01*
X27147637Y2388587D01*
X27231938Y2306465D01*
X27236742Y2303255D01*
X27251440Y2293434D01*
X27400720Y2193688D01*
X27406023Y2191410D01*
X27406026Y2191408D01*
X27581921Y2115838D01*
X27587228Y2113558D01*
X27660244Y2097036D01*
X27779579Y2070033D01*
X27779584Y2070032D01*
X27785216Y2068758D01*
X27790987Y2068531D01*
X27790989Y2068531D01*
X27850756Y2066183D01*
X27988053Y2060788D01*
X28095348Y2076345D01*
X28183231Y2089087D01*
X28183236Y2089088D01*
X28188945Y2089916D01*
X28194409Y2091771D01*
X28194414Y2091772D01*
X28375693Y2153308D01*
X28375698Y2153310D01*
X28381165Y2155166D01*
X28558276Y2254353D01*
X28562746Y2258070D01*
X28685696Y2360328D01*
X28714345Y2384155D01*
X28740769Y2415926D01*
X28840453Y2535782D01*
X28840455Y2535785D01*
X28844147Y2540224D01*
X28923923Y2682674D01*
X28940510Y2712292D01*
X28940511Y2712294D01*
X28943334Y2717335D01*
X28945720Y2724365D01*
X28946170Y2725004D01*
X28947541Y2728084D01*
X28948146Y2727815D01*
X28986553Y2782441D01*
X29052305Y2809222D01*
X29122098Y2796205D01*
X29173773Y2747520D01*
X29181777Y2731271D01*
X29251770Y2558897D01*
X29256413Y2549706D01*
X29367694Y2368112D01*
X29373777Y2359801D01*
X29513213Y2198833D01*
X29520580Y2191617D01*
X29684434Y2055584D01*
X29692881Y2049669D01*
X29876756Y1942221D01*
X29886042Y1937771D01*
X30085001Y1861797D01*
X30094899Y1858921D01*
X30198250Y1837894D01*
X30212299Y1839090D01*
X30216000Y1849435D01*
X30216000Y1849983D01*
X30724000Y1849983D01*
X30728064Y1836141D01*
X30741478Y1834107D01*
X30748184Y1834966D01*
X30758262Y1837108D01*
X30962255Y1898309D01*
X30971842Y1902067D01*
X31163095Y1995761D01*
X31171945Y2001036D01*
X31345328Y2124708D01*
X31353200Y2131361D01*
X31504052Y2281688D01*
X31510730Y2289535D01*
X31635003Y2462480D01*
X31640313Y2471317D01*
X31734670Y2662233D01*
X31738469Y2671828D01*
X31755066Y2726453D01*
X31794007Y2785817D01*
X31858862Y2814704D01*
X31929038Y2803942D01*
X31982256Y2756949D01*
X31990048Y2742578D01*
X32049377Y2613884D01*
X32052710Y2609168D01*
X32162688Y2453552D01*
X32166533Y2448111D01*
X32170675Y2444076D01*
X32227637Y2388587D01*
X32311938Y2306465D01*
X32316742Y2303255D01*
X32331440Y2293434D01*
X32480720Y2193688D01*
X32486023Y2191410D01*
X32486026Y2191408D01*
X32661921Y2115838D01*
X32667228Y2113558D01*
X32740244Y2097036D01*
X32859579Y2070033D01*
X32859584Y2070032D01*
X32865216Y2068758D01*
X32870987Y2068531D01*
X32870989Y2068531D01*
X32930756Y2066183D01*
X33068053Y2060788D01*
X33175348Y2076345D01*
X33263231Y2089087D01*
X33263236Y2089088D01*
X33268945Y2089916D01*
X33274409Y2091771D01*
X33274414Y2091772D01*
X33455693Y2153308D01*
X33455698Y2153310D01*
X33461165Y2155166D01*
X33638276Y2254353D01*
X33642746Y2258070D01*
X33765696Y2360328D01*
X33794345Y2384155D01*
X33820769Y2415926D01*
X33920453Y2535782D01*
X33920455Y2535785D01*
X33924147Y2540224D01*
X34003923Y2682674D01*
X34020510Y2712292D01*
X34020511Y2712294D01*
X34023334Y2717335D01*
X34025190Y2722802D01*
X34025192Y2722807D01*
X34086728Y2904086D01*
X34086729Y2904091D01*
X34088584Y2909555D01*
X34089412Y2915264D01*
X34089413Y2915269D01*
X34112745Y3076193D01*
X34117712Y3110447D01*
X34119232Y3168500D01*
X34105576Y3317123D01*
X34101187Y3364887D01*
X34101186Y3364890D01*
X34100658Y3370641D01*
X34099090Y3376201D01*
X34047125Y3560454D01*
X34047124Y3560456D01*
X34045557Y3566013D01*
X34034978Y3587467D01*
X33958331Y3742891D01*
X33955776Y3748072D01*
X33834320Y3910721D01*
X33690609Y4043567D01*
X34445500Y4043567D01*
X34445501Y2293434D01*
X34460266Y2219199D01*
X34467161Y2208880D01*
X34467162Y2208878D01*
X34504386Y2153169D01*
X34516516Y2135016D01*
X34600699Y2078766D01*
X34674933Y2064000D01*
X35549858Y2064000D01*
X36425066Y2064001D01*
X36460818Y2071112D01*
X36487126Y2076344D01*
X36487128Y2076345D01*
X36499301Y2078766D01*
X36509621Y2085661D01*
X36509622Y2085662D01*
X36573168Y2128123D01*
X36583484Y2135016D01*
X36639734Y2219199D01*
X36654500Y2293433D01*
X36654499Y4043566D01*
X36639734Y4117801D01*
X36613654Y4156833D01*
X36590377Y4191668D01*
X36583484Y4201984D01*
X36499301Y4258234D01*
X36425067Y4273000D01*
X35550142Y4273000D01*
X34674934Y4272999D01*
X34639182Y4265888D01*
X34612874Y4260656D01*
X34612872Y4260655D01*
X34600699Y4258234D01*
X34590379Y4251339D01*
X34590378Y4251338D01*
X34553112Y4226437D01*
X34516516Y4201984D01*
X34460266Y4117801D01*
X34445500Y4043567D01*
X33690609Y4043567D01*
X33685258Y4048513D01*
X33680375Y4051594D01*
X33680371Y4051597D01*
X33518464Y4153752D01*
X33513581Y4156833D01*
X33325039Y4232054D01*
X33319379Y4233180D01*
X33319375Y4233181D01*
X33131613Y4270529D01*
X33131610Y4270529D01*
X33125946Y4271656D01*
X33120171Y4271732D01*
X33120167Y4271732D01*
X33018793Y4273059D01*
X32922971Y4274313D01*
X32917274Y4273334D01*
X32917273Y4273334D01*
X32829397Y4258234D01*
X32722910Y4239936D01*
X32532463Y4169676D01*
X32358010Y4065888D01*
X32353670Y4062082D01*
X32353666Y4062079D01*
X32263191Y3982734D01*
X32205392Y3932045D01*
X32201817Y3927510D01*
X32201816Y3927509D01*
X32191675Y3914645D01*
X32079720Y3772631D01*
X32077031Y3767520D01*
X32077029Y3767517D01*
X31987589Y3597520D01*
X31938170Y3546548D01*
X31869037Y3530385D01*
X31802141Y3554164D01*
X31762003Y3608527D01*
X31759955Y3607637D01*
X31672972Y3807686D01*
X31668105Y3816761D01*
X31552426Y3995574D01*
X31546136Y4003743D01*
X31402806Y4161260D01*
X31395273Y4168285D01*
X31228139Y4300278D01*
X31219552Y4305983D01*
X31033117Y4408901D01*
X31023705Y4413131D01*
X30822959Y4484220D01*
X30812988Y4486854D01*
X30741837Y4499528D01*
X30728540Y4498068D01*
X30724000Y4483511D01*
X30724000Y1849983D01*
X30216000Y1849983D01*
X30216000Y4485398D01*
X30212082Y4498742D01*
X30197806Y4500729D01*
X30159324Y4494840D01*
X30149288Y4492449D01*
X29946868Y4426288D01*
X29937359Y4422291D01*
X29748463Y4323958D01*
X29739738Y4318464D01*
X29569433Y4190595D01*
X29561726Y4183752D01*
X29414590Y4029783D01*
X29408104Y4021773D01*
X29288098Y3845851D01*
X29283000Y3836877D01*
X29193338Y3643717D01*
X29189777Y3634036D01*
X29185291Y3617860D01*
X29147813Y3557561D01*
X29083684Y3527097D01*
X29013266Y3536140D01*
X28958915Y3581818D01*
X28950867Y3595802D01*
X28878331Y3742891D01*
X28875776Y3748072D01*
X28754320Y3910721D01*
X28605258Y4048513D01*
X28600375Y4051594D01*
X28600371Y4051597D01*
X28438464Y4153752D01*
X28433581Y4156833D01*
X28245039Y4232054D01*
X28239379Y4233180D01*
X28239375Y4233181D01*
X28051613Y4270529D01*
X28051610Y4270529D01*
X28045946Y4271656D01*
X28040171Y4271732D01*
X28040167Y4271732D01*
X27938793Y4273059D01*
X27842971Y4274313D01*
X27837274Y4273334D01*
X27837273Y4273334D01*
X27749397Y4258234D01*
X27642910Y4239936D01*
X27452463Y4169676D01*
X27278010Y4065888D01*
X27273670Y4062082D01*
X27273666Y4062079D01*
X27183191Y3982734D01*
X27125392Y3932045D01*
X27121817Y3927510D01*
X27121816Y3927509D01*
X27111675Y3914645D01*
X26999720Y3772631D01*
X26997031Y3767520D01*
X26997029Y3767517D01*
X26968394Y3713091D01*
X26905203Y3592985D01*
X26845007Y3399122D01*
X26821148Y3197536D01*
X25137803Y3197536D01*
X25126046Y3331917D01*
X25109576Y3393385D01*
X25070203Y3540326D01*
X25070202Y3540328D01*
X25068780Y3545636D01*
X25061870Y3560454D01*
X24977598Y3741178D01*
X24977595Y3741183D01*
X24975272Y3746165D01*
X24960321Y3767517D01*
X24851522Y3922899D01*
X24851520Y3922902D01*
X24848363Y3927410D01*
X24691910Y4083863D01*
X24687402Y4087020D01*
X24687399Y4087022D01*
X24515174Y4207615D01*
X24515172Y4207616D01*
X24510665Y4210772D01*
X24505683Y4213095D01*
X24505678Y4213098D01*
X24315118Y4301957D01*
X24315117Y4301957D01*
X24310136Y4304280D01*
X24304828Y4305702D01*
X24304826Y4305703D01*
X24101732Y4360122D01*
X24101730Y4360122D01*
X24096417Y4361546D01*
X23876000Y4380830D01*
X23655583Y4361546D01*
X23650270Y4360122D01*
X23650268Y4360122D01*
X23447174Y4305703D01*
X23447172Y4305702D01*
X23441864Y4304280D01*
X23436883Y4301957D01*
X23436882Y4301957D01*
X23246322Y4213098D01*
X23246317Y4213095D01*
X23241335Y4210772D01*
X23236828Y4207616D01*
X23236826Y4207615D01*
X23064601Y4087022D01*
X23064598Y4087020D01*
X23060090Y4083863D01*
X22903637Y3927410D01*
X22900480Y3922902D01*
X22900478Y3922899D01*
X22791679Y3767517D01*
X22776728Y3746165D01*
X22774405Y3741183D01*
X22774402Y3741178D01*
X22690130Y3560454D01*
X22683220Y3545636D01*
X22681798Y3540328D01*
X22681797Y3540326D01*
X22642424Y3393385D01*
X22625954Y3331917D01*
X22606670Y3111500D01*
X15439072Y3111500D01*
X15439424Y3114156D01*
X15457188Y3248181D01*
X15457188Y3248184D01*
X15457888Y3253464D01*
X15455536Y3316099D01*
X15456295Y3316128D01*
X15455966Y3317516D01*
X15455660Y3317489D01*
X15455626Y3317877D01*
X15455535Y3319338D01*
X15455477Y3319585D01*
X15455352Y3321007D01*
X15449264Y3483169D01*
X15435372Y3549379D01*
X15436139Y3549540D01*
X15435159Y3551816D01*
X15435063Y3552908D01*
X15433639Y3558222D01*
X15433536Y3558807D01*
X15432362Y3563722D01*
X15431882Y3566013D01*
X15402061Y3708137D01*
X15376025Y3774066D01*
X15375276Y3776041D01*
X15373903Y3781163D01*
X15371053Y3787275D01*
X15368066Y3794217D01*
X15317628Y3921936D01*
X15280727Y3982746D01*
X15279189Y3985626D01*
X15279110Y3985580D01*
X15276361Y3990341D01*
X15274035Y3995329D01*
X15270876Y3999841D01*
X15269326Y4002055D01*
X15264819Y4008962D01*
X15201147Y4113891D01*
X15201145Y4113894D01*
X15198379Y4118452D01*
X15191400Y4126495D01*
X15148007Y4176500D01*
X15144445Y4181063D01*
X15141653Y4184390D01*
X15138495Y4188901D01*
X15132209Y4195187D01*
X15126139Y4201701D01*
X15051224Y4288033D01*
X15051222Y4288035D01*
X15047724Y4292066D01*
X14983692Y4344570D01*
X14976426Y4351152D01*
X14975294Y4352102D01*
X14971401Y4355995D01*
X14966897Y4359149D01*
X14966892Y4359153D01*
X14964064Y4361133D01*
X14956446Y4366910D01*
X14874099Y4434431D01*
X14874093Y4434435D01*
X14869971Y4437815D01*
X14792645Y4481831D01*
X14782704Y4488122D01*
X14782340Y4488377D01*
X14782333Y4488381D01*
X14777829Y4491535D01*
X14772845Y4493859D01*
X14772840Y4493862D01*
X14770125Y4495128D01*
X14761048Y4499818D01*
X14716939Y4524926D01*
X14670202Y4551530D01*
X14580502Y4584090D01*
X14570247Y4588333D01*
X14568652Y4589077D01*
X14568650Y4589078D01*
X14563663Y4591403D01*
X14558347Y4592827D01*
X14558345Y4592828D01*
X14557281Y4593113D01*
X14556298Y4593376D01*
X14545919Y4596643D01*
X14454129Y4629961D01*
X14353557Y4648148D01*
X14343384Y4650426D01*
X14335408Y4652563D01*
X14329010Y4653123D01*
X14317588Y4654652D01*
X14227931Y4670864D01*
X14223792Y4671059D01*
X14223785Y4671060D01*
X14205330Y4671930D01*
X14205323Y4671930D01*
X14203842Y4672000D01*
X14042288Y4672000D01*
X13962556Y4665235D01*
X13876267Y4657913D01*
X13876263Y4657912D01*
X13870956Y4657462D01*
X13865801Y4656124D01*
X13865795Y4656123D01*
X13693058Y4611289D01*
X13648461Y4599714D01*
X13541497Y4551530D01*
X13443738Y4507493D01*
X13443735Y4507492D01*
X13438877Y4505303D01*
X13434453Y4502324D01*
X13434452Y4502324D01*
X13429106Y4498725D01*
X13248197Y4376930D01*
X13244340Y4373251D01*
X13244338Y4373249D01*
X13218404Y4348509D01*
X13081872Y4218264D01*
X12944658Y4033842D01*
X12942242Y4029091D01*
X12942240Y4029087D01*
X12884055Y3914645D01*
X12840480Y3828938D01*
X12772315Y3609411D01*
X12771614Y3604122D01*
X12762604Y3536140D01*
X12742112Y3381536D01*
X8966769Y3381536D01*
X8949199Y3604786D01*
X8910130Y3767517D01*
X8892001Y3843031D01*
X8891999Y3843036D01*
X8890847Y3847836D01*
X8888957Y3852399D01*
X8888955Y3852405D01*
X8797088Y4074192D01*
X8797086Y4074196D01*
X8795193Y4078766D01*
X8664591Y4291889D01*
X8502257Y4481957D01*
X8489973Y4492449D01*
X8382675Y4584090D01*
X8312189Y4644291D01*
X8099066Y4774893D01*
X8094496Y4776786D01*
X8094492Y4776788D01*
X7872705Y4868655D01*
X7872699Y4868657D01*
X7868136Y4870547D01*
X7863336Y4871699D01*
X7863331Y4871701D01*
X7726809Y4904477D01*
X7625086Y4928899D01*
X7375900Y4948510D01*
X7126714Y4928899D01*
X7024991Y4904477D01*
X6888469Y4871701D01*
X6888464Y4871699D01*
X6883664Y4870547D01*
X6879101Y4868657D01*
X6879095Y4868655D01*
X6657308Y4776788D01*
X6657304Y4776786D01*
X6652734Y4774893D01*
X6439611Y4644291D01*
X6369125Y4584090D01*
X6261828Y4492449D01*
X6249543Y4481957D01*
X6087209Y4291889D01*
X5956607Y4078766D01*
X5954714Y4074196D01*
X5954712Y4074192D01*
X5862845Y3852405D01*
X5862843Y3852399D01*
X5860953Y3847836D01*
X5859801Y3843036D01*
X5859799Y3843031D01*
X5841670Y3767517D01*
X5802601Y3604786D01*
X5782990Y3355600D01*
X3869010Y3355600D01*
X3849399Y3604786D01*
X3810330Y3767517D01*
X3792201Y3843031D01*
X3792199Y3843036D01*
X3791047Y3847836D01*
X3789157Y3852399D01*
X3789155Y3852405D01*
X3697288Y4074192D01*
X3697286Y4074196D01*
X3695393Y4078766D01*
X3564791Y4291889D01*
X3402457Y4481957D01*
X3390173Y4492449D01*
X3282875Y4584090D01*
X3212389Y4644291D01*
X2999266Y4774893D01*
X2994696Y4776786D01*
X2994692Y4776788D01*
X2772905Y4868655D01*
X2772899Y4868657D01*
X2768336Y4870547D01*
X2763536Y4871699D01*
X2763531Y4871701D01*
X2627009Y4904477D01*
X2525286Y4928899D01*
X2276100Y4948510D01*
X2026914Y4928899D01*
X1925191Y4904477D01*
X1788669Y4871701D01*
X1788664Y4871699D01*
X1783864Y4870547D01*
X1779301Y4868657D01*
X1779295Y4868655D01*
X1557508Y4776788D01*
X1557504Y4776786D01*
X1552934Y4774893D01*
X1339811Y4644291D01*
X1269325Y4584090D01*
X1162028Y4492449D01*
X1149743Y4481957D01*
X987409Y4291889D01*
X856807Y4078766D01*
X854914Y4074196D01*
X854912Y4074192D01*
X763045Y3852405D01*
X763043Y3852399D01*
X761153Y3847836D01*
X760001Y3843036D01*
X759999Y3843031D01*
X741870Y3767517D01*
X702801Y3604786D01*
X683190Y3355600D01*
X254500Y3355600D01*
X254500Y5905500D01*
X3614389Y5905500D01*
X3632796Y5695106D01*
X3634220Y5689793D01*
X3634220Y5689791D01*
X3663748Y5579593D01*
X3687458Y5491105D01*
X3689780Y5486124D01*
X3689781Y5486123D01*
X3731849Y5395909D01*
X3776714Y5299695D01*
X3897852Y5126691D01*
X4047191Y4977352D01*
X4051699Y4974195D01*
X4051702Y4974193D01*
X4151267Y4904477D01*
X4220194Y4856214D01*
X4225176Y4853891D01*
X4225181Y4853888D01*
X4328125Y4805885D01*
X4411605Y4766958D01*
X4416913Y4765536D01*
X4416915Y4765535D01*
X4610291Y4713720D01*
X4610293Y4713720D01*
X4615606Y4712296D01*
X4826000Y4693889D01*
X5036394Y4712296D01*
X5041707Y4713720D01*
X5041709Y4713720D01*
X5235085Y4765535D01*
X5235087Y4765536D01*
X5240395Y4766958D01*
X5323875Y4805885D01*
X5426819Y4853888D01*
X5426824Y4853891D01*
X5431806Y4856214D01*
X5500733Y4904477D01*
X5600298Y4974193D01*
X5600301Y4974195D01*
X5604809Y4977352D01*
X5754148Y5126691D01*
X5870878Y5293400D01*
X39679215Y5293400D01*
X39698272Y5148646D01*
X39754145Y5013758D01*
X39763902Y5001043D01*
X39819260Y4928899D01*
X39843026Y4897926D01*
X39849576Y4892900D01*
X39849579Y4892897D01*
X39952304Y4814073D01*
X39958857Y4809045D01*
X40093746Y4753172D01*
X40238500Y4734115D01*
X40246688Y4735193D01*
X40375066Y4752094D01*
X40383254Y4753172D01*
X40518143Y4809045D01*
X40524696Y4814073D01*
X40627421Y4892897D01*
X40627424Y4892900D01*
X40633974Y4897926D01*
X40657741Y4928899D01*
X40713098Y5001043D01*
X40722855Y5013758D01*
X40778728Y5148646D01*
X40797785Y5293400D01*
X40778728Y5438154D01*
X40736175Y5540886D01*
X40726015Y5565414D01*
X40726014Y5565416D01*
X40722855Y5573042D01*
X40633974Y5688874D01*
X40627424Y5693900D01*
X40627421Y5693903D01*
X40524696Y5772727D01*
X40524694Y5772728D01*
X40518143Y5777755D01*
X40383254Y5833628D01*
X40238500Y5852685D01*
X40230312Y5851607D01*
X40101932Y5834706D01*
X40101930Y5834705D01*
X40093746Y5833628D01*
X40045930Y5813822D01*
X39966486Y5780915D01*
X39966484Y5780914D01*
X39958858Y5777755D01*
X39843026Y5688874D01*
X39754145Y5573042D01*
X39750986Y5565416D01*
X39750985Y5565414D01*
X39740825Y5540886D01*
X39698272Y5438154D01*
X39679215Y5293400D01*
X5870878Y5293400D01*
X5875286Y5299695D01*
X5920152Y5395909D01*
X5962219Y5486123D01*
X5962220Y5486124D01*
X5964542Y5491105D01*
X5988253Y5579593D01*
X6017780Y5689791D01*
X6017780Y5689793D01*
X6019204Y5695106D01*
X6037611Y5905500D01*
X6019204Y6115894D01*
X5964542Y6319895D01*
X5875286Y6511305D01*
X5754148Y6684309D01*
X5604809Y6833648D01*
X5600301Y6836805D01*
X5600298Y6836807D01*
X5436315Y6951629D01*
X5436312Y6951631D01*
X5431806Y6954786D01*
X5426824Y6957109D01*
X5426819Y6957112D01*
X5245377Y7041719D01*
X5245376Y7041719D01*
X5240395Y7044042D01*
X5235087Y7045464D01*
X5235085Y7045465D01*
X5041709Y7097280D01*
X5041707Y7097280D01*
X5036394Y7098704D01*
X4826000Y7117111D01*
X4615606Y7098704D01*
X4610293Y7097280D01*
X4610291Y7097280D01*
X4416915Y7045465D01*
X4416913Y7045464D01*
X4411605Y7044042D01*
X4406624Y7041720D01*
X4406623Y7041719D01*
X4225176Y6957109D01*
X4225173Y6957107D01*
X4220195Y6954786D01*
X4047191Y6833648D01*
X3897852Y6684309D01*
X3776714Y6511305D01*
X3687458Y6319895D01*
X3632796Y6115894D01*
X3614389Y5905500D01*
X254500Y5905500D01*
X254500Y8455400D01*
X683190Y8455400D01*
X702801Y8206214D01*
X733287Y8079232D01*
X749307Y8012507D01*
X761153Y7963164D01*
X763043Y7958601D01*
X763045Y7958595D01*
X854912Y7736808D01*
X856807Y7732234D01*
X987409Y7519111D01*
X1149743Y7329043D01*
X1339811Y7166709D01*
X1552934Y7036107D01*
X1557504Y7034214D01*
X1557508Y7034212D01*
X1779295Y6942345D01*
X1779301Y6942343D01*
X1783864Y6940453D01*
X1788664Y6939301D01*
X1788669Y6939299D01*
X1899932Y6912587D01*
X2026914Y6882101D01*
X2276100Y6862490D01*
X2525286Y6882101D01*
X2652268Y6912587D01*
X2763531Y6939299D01*
X2763536Y6939301D01*
X2768336Y6940453D01*
X2772899Y6942343D01*
X2772905Y6942345D01*
X2994692Y7034212D01*
X2994696Y7034214D01*
X2999266Y7036107D01*
X3212389Y7166709D01*
X3402457Y7329043D01*
X3564791Y7519111D01*
X3695393Y7732234D01*
X3697288Y7736808D01*
X3789155Y7958595D01*
X3789157Y7958601D01*
X3791047Y7963164D01*
X3802894Y8012507D01*
X3818913Y8079232D01*
X3849399Y8206214D01*
X3869010Y8455400D01*
X5782990Y8455400D01*
X5802601Y8206214D01*
X5833087Y8079232D01*
X5849107Y8012507D01*
X5860953Y7963164D01*
X5862843Y7958601D01*
X5862845Y7958595D01*
X5954712Y7736808D01*
X5956607Y7732234D01*
X6087209Y7519111D01*
X6249543Y7329043D01*
X6439611Y7166709D01*
X6652734Y7036107D01*
X6657304Y7034214D01*
X6657308Y7034212D01*
X6879095Y6942345D01*
X6879101Y6942343D01*
X6883664Y6940453D01*
X6888464Y6939301D01*
X6888469Y6939299D01*
X6999732Y6912587D01*
X7126714Y6882101D01*
X7375900Y6862490D01*
X7625086Y6882101D01*
X7752068Y6912587D01*
X7863331Y6939299D01*
X7863336Y6939301D01*
X7868136Y6940453D01*
X7872699Y6942343D01*
X7872705Y6942345D01*
X8094492Y7034212D01*
X8094496Y7034214D01*
X8099066Y7036107D01*
X8312189Y7166709D01*
X8502257Y7329043D01*
X8545522Y7379700D01*
X28899215Y7379700D01*
X28900293Y7371512D01*
X28905390Y7332799D01*
X28918272Y7234946D01*
X28921431Y7227320D01*
X28967280Y7116632D01*
X28974145Y7100058D01*
X29063026Y6984226D01*
X29069576Y6979200D01*
X29069579Y6979197D01*
X29172304Y6900373D01*
X29178857Y6895345D01*
X29313746Y6839472D01*
X29458500Y6820415D01*
X29466688Y6821493D01*
X29595066Y6838394D01*
X29603254Y6839472D01*
X29738143Y6895345D01*
X29744696Y6900373D01*
X29847421Y6979197D01*
X29847424Y6979200D01*
X29853974Y6984226D01*
X29942855Y7100058D01*
X29949721Y7116632D01*
X29995569Y7227320D01*
X29998728Y7234946D01*
X30011611Y7332799D01*
X30016707Y7371512D01*
X30017785Y7379700D01*
X30014659Y7403445D01*
X29999806Y7516268D01*
X29999805Y7516270D01*
X29998728Y7524454D01*
X29942855Y7659342D01*
X29853974Y7775174D01*
X29847424Y7780200D01*
X29847421Y7780203D01*
X29744696Y7859027D01*
X29744694Y7859028D01*
X29738143Y7864055D01*
X29603254Y7919928D01*
X29458500Y7938985D01*
X29450312Y7937907D01*
X29321932Y7921006D01*
X29321930Y7921005D01*
X29313746Y7919928D01*
X29289240Y7909777D01*
X29186486Y7867215D01*
X29186484Y7867214D01*
X29178858Y7864055D01*
X29063026Y7775174D01*
X28974145Y7659342D01*
X28918272Y7524454D01*
X28917195Y7516270D01*
X28917194Y7516268D01*
X28902341Y7403445D01*
X28899215Y7379700D01*
X8545522Y7379700D01*
X8664591Y7519111D01*
X8795193Y7732234D01*
X8797088Y7736808D01*
X8888955Y7958595D01*
X8888957Y7958601D01*
X8890847Y7963164D01*
X8902694Y8012507D01*
X8918713Y8079232D01*
X8949199Y8206214D01*
X8968810Y8455400D01*
X8949199Y8704586D01*
X8912371Y8857985D01*
X8895514Y8928200D01*
X14363715Y8928200D01*
X14364793Y8920012D01*
X14380292Y8802286D01*
X14382772Y8783446D01*
X14385931Y8775820D01*
X14428191Y8673797D01*
X14438645Y8648558D01*
X14527526Y8532726D01*
X14534076Y8527700D01*
X14534079Y8527697D01*
X14633928Y8451080D01*
X14643357Y8443845D01*
X14778246Y8387972D01*
X14923000Y8368915D01*
X14931188Y8369993D01*
X15059566Y8386894D01*
X15067754Y8387972D01*
X15202643Y8443845D01*
X15212072Y8451080D01*
X15311921Y8527697D01*
X15311924Y8527700D01*
X15318474Y8532726D01*
X15407355Y8648558D01*
X15417810Y8673797D01*
X15460069Y8775820D01*
X15463228Y8783446D01*
X15465709Y8802286D01*
X15472675Y8855200D01*
X21374615Y8855200D01*
X21393672Y8710446D01*
X21396831Y8702820D01*
X21444895Y8586785D01*
X21449545Y8575558D01*
X21538426Y8459726D01*
X21544976Y8454700D01*
X21544979Y8454697D01*
X21647704Y8375873D01*
X21654257Y8370845D01*
X21789146Y8314972D01*
X21933900Y8295915D01*
X21942088Y8296993D01*
X21955054Y8298700D01*
X25409815Y8298700D01*
X25428872Y8153946D01*
X25484745Y8019058D01*
X25573626Y7903226D01*
X25580176Y7898200D01*
X25580179Y7898197D01*
X25682904Y7819373D01*
X25689457Y7814345D01*
X25824346Y7758472D01*
X25969100Y7739415D01*
X25977288Y7740493D01*
X26105666Y7757394D01*
X26113854Y7758472D01*
X26248743Y7814345D01*
X26255296Y7819373D01*
X26358021Y7898197D01*
X26358024Y7898200D01*
X26364574Y7903226D01*
X26453455Y8019058D01*
X26509328Y8153946D01*
X26528385Y8298700D01*
X26509328Y8443454D01*
X26472239Y8532994D01*
X26456615Y8570714D01*
X26456614Y8570716D01*
X26453455Y8578342D01*
X26364574Y8694174D01*
X26358024Y8699200D01*
X26358021Y8699203D01*
X26255296Y8778027D01*
X26255294Y8778028D01*
X26248743Y8783055D01*
X26241114Y8786215D01*
X26233959Y8790346D01*
X26234854Y8791897D01*
X26187461Y8830088D01*
X26165039Y8897451D01*
X26182596Y8966242D01*
X26234557Y9014622D01*
X26240543Y9017355D01*
X26241116Y9017686D01*
X26248743Y9020845D01*
X26255296Y9025873D01*
X26318407Y9074300D01*
X30009715Y9074300D01*
X30028772Y8929546D01*
X30031931Y8921920D01*
X30066834Y8837658D01*
X30084645Y8794658D01*
X30099100Y8775820D01*
X30150070Y8709395D01*
X30173526Y8678826D01*
X30180076Y8673800D01*
X30180079Y8673797D01*
X30282804Y8594973D01*
X30289357Y8589945D01*
X30424246Y8534072D01*
X30432434Y8532994D01*
X30496623Y8524544D01*
X30569000Y8515015D01*
X30577188Y8516093D01*
X30705566Y8532994D01*
X30713754Y8534072D01*
X30848643Y8589945D01*
X30855196Y8594973D01*
X30957921Y8673797D01*
X30957924Y8673800D01*
X30964474Y8678826D01*
X30987931Y8709395D01*
X31038900Y8775820D01*
X31053355Y8794658D01*
X31071167Y8837658D01*
X31106069Y8921920D01*
X31109228Y8929546D01*
X31128285Y9074300D01*
X31119452Y9141393D01*
X31110306Y9210868D01*
X31110305Y9210870D01*
X31109228Y9219054D01*
X31063812Y9328697D01*
X31056515Y9346314D01*
X31056514Y9346316D01*
X31053355Y9353942D01*
X30964474Y9469774D01*
X30957924Y9474800D01*
X30957921Y9474803D01*
X30855196Y9553627D01*
X30855194Y9553628D01*
X30848643Y9558655D01*
X30713754Y9614528D01*
X30569000Y9633585D01*
X30560812Y9632507D01*
X30432432Y9615606D01*
X30432430Y9615605D01*
X30424246Y9614528D01*
X30376430Y9594722D01*
X30296986Y9561815D01*
X30296984Y9561814D01*
X30289358Y9558655D01*
X30173526Y9469774D01*
X30084645Y9353942D01*
X30081486Y9346316D01*
X30081485Y9346314D01*
X30074188Y9328697D01*
X30028772Y9219054D01*
X30027695Y9210870D01*
X30027694Y9210868D01*
X30018548Y9141393D01*
X30009715Y9074300D01*
X26318407Y9074300D01*
X26358021Y9104697D01*
X26358024Y9104700D01*
X26364574Y9109726D01*
X26453455Y9225558D01*
X26463859Y9250674D01*
X26498592Y9334528D01*
X26509328Y9360446D01*
X26512887Y9387475D01*
X26527307Y9497012D01*
X26528385Y9505200D01*
X26509328Y9649954D01*
X26453455Y9784842D01*
X26364574Y9900674D01*
X26358024Y9905700D01*
X26358021Y9905703D01*
X26255296Y9984527D01*
X26255294Y9984528D01*
X26248743Y9989555D01*
X26113854Y10045428D01*
X25969100Y10064485D01*
X25960912Y10063407D01*
X25832532Y10046506D01*
X25832530Y10046505D01*
X25824346Y10045428D01*
X25784896Y10029087D01*
X25697086Y9992715D01*
X25697084Y9992714D01*
X25689458Y9989555D01*
X25665930Y9971501D01*
X25589505Y9912858D01*
X25573626Y9900674D01*
X25484745Y9784842D01*
X25428872Y9649954D01*
X25409815Y9505200D01*
X25410893Y9497012D01*
X25425314Y9387475D01*
X25428872Y9360446D01*
X25439608Y9334528D01*
X25474342Y9250674D01*
X25484745Y9225558D01*
X25573626Y9109726D01*
X25580176Y9104700D01*
X25580179Y9104697D01*
X25682904Y9025873D01*
X25689457Y9020845D01*
X25697086Y9017685D01*
X25704241Y9013554D01*
X25703346Y9012003D01*
X25750739Y8973812D01*
X25773161Y8906449D01*
X25755604Y8837658D01*
X25703643Y8789278D01*
X25697660Y8786546D01*
X25697086Y8786215D01*
X25689458Y8783055D01*
X25573626Y8694174D01*
X25484745Y8578342D01*
X25481586Y8570716D01*
X25481585Y8570714D01*
X25465961Y8532994D01*
X25428872Y8443454D01*
X25409815Y8298700D01*
X21955054Y8298700D01*
X22070466Y8313894D01*
X22078654Y8314972D01*
X22213543Y8370845D01*
X22220096Y8375873D01*
X22322821Y8454697D01*
X22322824Y8454700D01*
X22329374Y8459726D01*
X22418255Y8575558D01*
X22422906Y8586785D01*
X22470969Y8702820D01*
X22474128Y8710446D01*
X22493185Y8855200D01*
X22486438Y8906449D01*
X22475206Y8991768D01*
X22475205Y8991770D01*
X22474128Y8999954D01*
X22430742Y9104697D01*
X22421415Y9127214D01*
X22421414Y9127216D01*
X22418255Y9134842D01*
X22329374Y9250674D01*
X22322824Y9255700D01*
X22322821Y9255703D01*
X22220096Y9334527D01*
X22220094Y9334528D01*
X22213543Y9339555D01*
X22078654Y9395428D01*
X21933900Y9414485D01*
X21925712Y9413407D01*
X21797332Y9396506D01*
X21797330Y9396505D01*
X21789146Y9395428D01*
X21769946Y9387475D01*
X21661886Y9342715D01*
X21661884Y9342714D01*
X21654258Y9339555D01*
X21538426Y9250674D01*
X21449545Y9134842D01*
X21446386Y9127216D01*
X21446385Y9127214D01*
X21437058Y9104697D01*
X21393672Y8999954D01*
X21392595Y8991770D01*
X21392594Y8991768D01*
X21381362Y8906449D01*
X21374615Y8855200D01*
X15472675Y8855200D01*
X15481207Y8920012D01*
X15482285Y8928200D01*
X15471048Y9013554D01*
X15464306Y9064768D01*
X15464305Y9064770D01*
X15463228Y9072954D01*
X15434879Y9141393D01*
X15410515Y9200214D01*
X15410514Y9200216D01*
X15407355Y9207842D01*
X15318474Y9323674D01*
X15311924Y9328700D01*
X15311921Y9328703D01*
X15209196Y9407527D01*
X15209194Y9407528D01*
X15202643Y9412555D01*
X15067754Y9468428D01*
X15019331Y9474803D01*
X14931188Y9486407D01*
X14923000Y9487485D01*
X14914812Y9486407D01*
X14786432Y9469506D01*
X14786430Y9469505D01*
X14778246Y9468428D01*
X14730430Y9448622D01*
X14650986Y9415715D01*
X14650984Y9415714D01*
X14643358Y9412555D01*
X14575448Y9360446D01*
X14548223Y9339555D01*
X14527526Y9323674D01*
X14438645Y9207842D01*
X14435486Y9200216D01*
X14435485Y9200214D01*
X14411121Y9141393D01*
X14382772Y9072954D01*
X14381695Y9064770D01*
X14381694Y9064768D01*
X14374952Y9013554D01*
X14363715Y8928200D01*
X8895514Y8928200D01*
X8892001Y8942831D01*
X8891999Y8942836D01*
X8890847Y8947636D01*
X8888957Y8952199D01*
X8888955Y8952205D01*
X8797088Y9173992D01*
X8797086Y9173996D01*
X8795193Y9178566D01*
X8664591Y9391689D01*
X8502257Y9581757D01*
X8312189Y9744091D01*
X8099066Y9874693D01*
X8094496Y9876586D01*
X8094492Y9876588D01*
X7872705Y9968455D01*
X7872699Y9968457D01*
X7868136Y9970347D01*
X7863336Y9971499D01*
X7863331Y9971501D01*
X7752068Y9998213D01*
X7625086Y10028699D01*
X7375900Y10048310D01*
X7126714Y10028699D01*
X6999732Y9998213D01*
X6888469Y9971501D01*
X6888464Y9971499D01*
X6883664Y9970347D01*
X6879101Y9968457D01*
X6879095Y9968455D01*
X6657308Y9876588D01*
X6657304Y9876586D01*
X6652734Y9874693D01*
X6439611Y9744091D01*
X6249543Y9581757D01*
X6087209Y9391689D01*
X5956607Y9178566D01*
X5954714Y9173996D01*
X5954712Y9173992D01*
X5862845Y8952205D01*
X5862843Y8952199D01*
X5860953Y8947636D01*
X5859801Y8942836D01*
X5859799Y8942831D01*
X5839429Y8857985D01*
X5802601Y8704586D01*
X5782990Y8455400D01*
X3869010Y8455400D01*
X3849399Y8704586D01*
X3812571Y8857985D01*
X3792201Y8942831D01*
X3792199Y8942836D01*
X3791047Y8947636D01*
X3789157Y8952199D01*
X3789155Y8952205D01*
X3697288Y9173992D01*
X3697286Y9173996D01*
X3695393Y9178566D01*
X3564791Y9391689D01*
X3402457Y9581757D01*
X3212389Y9744091D01*
X2999266Y9874693D01*
X2994696Y9876586D01*
X2994692Y9876588D01*
X2772905Y9968455D01*
X2772899Y9968457D01*
X2768336Y9970347D01*
X2763536Y9971499D01*
X2763531Y9971501D01*
X2652268Y9998213D01*
X2525286Y10028699D01*
X2276100Y10048310D01*
X2026914Y10028699D01*
X1899932Y9998213D01*
X1788669Y9971501D01*
X1788664Y9971499D01*
X1783864Y9970347D01*
X1779301Y9968457D01*
X1779295Y9968455D01*
X1557508Y9876588D01*
X1557504Y9876586D01*
X1552934Y9874693D01*
X1339811Y9744091D01*
X1149743Y9581757D01*
X987409Y9391689D01*
X856807Y9178566D01*
X854914Y9173996D01*
X854912Y9173992D01*
X763045Y8952205D01*
X763043Y8952199D01*
X761153Y8947636D01*
X760001Y8942836D01*
X759999Y8942831D01*
X739629Y8857985D01*
X702801Y8704586D01*
X683190Y8455400D01*
X254500Y8455400D01*
X254500Y10755500D01*
X17588715Y10755500D01*
X17589793Y10747312D01*
X17601010Y10662112D01*
X17607772Y10610746D01*
X17615124Y10592997D01*
X17639673Y10533732D01*
X17663645Y10475858D01*
X17752526Y10360026D01*
X17759076Y10355000D01*
X17759079Y10354997D01*
X17861804Y10276173D01*
X17868357Y10271145D01*
X17960447Y10233000D01*
X17990934Y10220372D01*
X18003246Y10215272D01*
X18148000Y10196215D01*
X18156188Y10197293D01*
X18284566Y10214194D01*
X18292754Y10215272D01*
X18305067Y10220372D01*
X18335553Y10233000D01*
X18427643Y10271145D01*
X18434196Y10276173D01*
X18536921Y10354997D01*
X18536924Y10355000D01*
X18543474Y10360026D01*
X18632355Y10475858D01*
X18656328Y10533732D01*
X18680876Y10592997D01*
X18688228Y10610746D01*
X18694991Y10662112D01*
X18696069Y10670300D01*
X21713915Y10670300D01*
X21714993Y10662112D01*
X21730626Y10543368D01*
X21732972Y10525546D01*
X21750108Y10484177D01*
X21782521Y10405926D01*
X21788845Y10390658D01*
X21812295Y10360097D01*
X21846982Y10314893D01*
X21877726Y10274826D01*
X21884276Y10269800D01*
X21884279Y10269797D01*
X21978768Y10197293D01*
X21993557Y10185945D01*
X22128446Y10130072D01*
X22273200Y10111015D01*
X22281388Y10112093D01*
X22409766Y10128994D01*
X22417954Y10130072D01*
X22552843Y10185945D01*
X22561386Y10192500D01*
X31946715Y10192500D01*
X31947793Y10184312D01*
X31957443Y10111015D01*
X31965772Y10047746D01*
X32021645Y9912858D01*
X32110526Y9797026D01*
X32117076Y9792000D01*
X32117079Y9791997D01*
X32183696Y9740880D01*
X32226357Y9708145D01*
X32361246Y9652272D01*
X32506000Y9633215D01*
X32514188Y9634293D01*
X32642566Y9651194D01*
X32650754Y9652272D01*
X32785643Y9708145D01*
X32828304Y9740880D01*
X32894921Y9791997D01*
X32894924Y9792000D01*
X32901474Y9797026D01*
X32990355Y9912858D01*
X33046228Y10047746D01*
X33054558Y10111015D01*
X33064207Y10184312D01*
X33065285Y10192500D01*
X33054447Y10274826D01*
X33047306Y10329068D01*
X33047305Y10329070D01*
X33046228Y10337254D01*
X33022817Y10393773D01*
X32993515Y10464514D01*
X32993514Y10464516D01*
X32990355Y10472142D01*
X32911136Y10575382D01*
X32906501Y10581423D01*
X32906500Y10581424D01*
X32901474Y10587974D01*
X32894924Y10593000D01*
X32894921Y10593003D01*
X32792196Y10671827D01*
X32792194Y10671828D01*
X32785643Y10676855D01*
X32650754Y10732728D01*
X32621860Y10736532D01*
X32514188Y10750707D01*
X32506000Y10751785D01*
X32497812Y10750707D01*
X32369432Y10733806D01*
X32369430Y10733805D01*
X32361246Y10732728D01*
X32313430Y10712922D01*
X32233986Y10680015D01*
X32233984Y10680014D01*
X32226358Y10676855D01*
X32110526Y10587974D01*
X32021645Y10472142D01*
X32018486Y10464516D01*
X32018485Y10464514D01*
X31989183Y10393773D01*
X31965772Y10337254D01*
X31964695Y10329070D01*
X31964694Y10329068D01*
X31957553Y10274826D01*
X31946715Y10192500D01*
X22561386Y10192500D01*
X22567632Y10197293D01*
X22662121Y10269797D01*
X22662124Y10269800D01*
X22668674Y10274826D01*
X22699419Y10314893D01*
X22734105Y10360097D01*
X22757555Y10390658D01*
X22763880Y10405926D01*
X22796292Y10484177D01*
X22813428Y10525546D01*
X22815775Y10543368D01*
X22831407Y10662112D01*
X22832485Y10670300D01*
X22824124Y10733806D01*
X22814506Y10806868D01*
X22814505Y10806870D01*
X22813428Y10815054D01*
X22789385Y10873100D01*
X23964715Y10873100D01*
X23965793Y10864912D01*
X23980604Y10752412D01*
X23983772Y10728346D01*
X23986931Y10720720D01*
X24035643Y10603120D01*
X24039645Y10593458D01*
X24128526Y10477626D01*
X24135076Y10472600D01*
X24135079Y10472597D01*
X24231923Y10398286D01*
X24244357Y10388745D01*
X24379246Y10332872D01*
X24387434Y10331794D01*
X24416929Y10327911D01*
X24524000Y10313815D01*
X24532188Y10314893D01*
X24660566Y10331794D01*
X24668754Y10332872D01*
X24803643Y10388745D01*
X24816077Y10398286D01*
X24912921Y10472597D01*
X24912924Y10472600D01*
X24919474Y10477626D01*
X25008355Y10593458D01*
X25012358Y10603120D01*
X25061069Y10720720D01*
X25064228Y10728346D01*
X25067397Y10752412D01*
X25068475Y10760600D01*
X28899215Y10760600D01*
X28918272Y10615846D01*
X28929817Y10587974D01*
X28958835Y10517920D01*
X28974145Y10480958D01*
X28979172Y10474407D01*
X29044903Y10388745D01*
X29063026Y10365126D01*
X29069576Y10360100D01*
X29069579Y10360097D01*
X29172304Y10281273D01*
X29178857Y10276245D01*
X29313746Y10220372D01*
X29458500Y10201315D01*
X29466688Y10202393D01*
X29595066Y10219294D01*
X29603254Y10220372D01*
X29738143Y10276245D01*
X29744696Y10281273D01*
X29847421Y10360097D01*
X29847424Y10360100D01*
X29853974Y10365126D01*
X29872098Y10388745D01*
X29937828Y10474407D01*
X29942855Y10480958D01*
X29958166Y10517920D01*
X29987183Y10587974D01*
X29998728Y10615846D01*
X30017785Y10760600D01*
X30004052Y10864912D01*
X29999806Y10897168D01*
X29999805Y10897170D01*
X29998728Y10905354D01*
X29976034Y10960142D01*
X29946015Y11032614D01*
X29946014Y11032616D01*
X29942855Y11040242D01*
X29898414Y11098158D01*
X29859001Y11149523D01*
X29859000Y11149524D01*
X29853974Y11156074D01*
X29847424Y11161100D01*
X29847421Y11161103D01*
X29744696Y11239927D01*
X29744694Y11239928D01*
X29738143Y11244955D01*
X29621279Y11293362D01*
X29610883Y11297668D01*
X29603254Y11300828D01*
X29458500Y11319885D01*
X29450312Y11318807D01*
X29321932Y11301906D01*
X29321930Y11301905D01*
X29313746Y11300828D01*
X29293805Y11292568D01*
X29186486Y11248115D01*
X29186484Y11248114D01*
X29178858Y11244955D01*
X29063026Y11156074D01*
X28974145Y11040242D01*
X28970986Y11032616D01*
X28970985Y11032614D01*
X28940966Y10960142D01*
X28918272Y10905354D01*
X28917195Y10897170D01*
X28917194Y10897168D01*
X28912948Y10864912D01*
X28899215Y10760600D01*
X25068475Y10760600D01*
X25082207Y10864912D01*
X25083285Y10873100D01*
X25064228Y11017854D01*
X25008355Y11152742D01*
X24963187Y11211606D01*
X24924501Y11262023D01*
X24924500Y11262024D01*
X24919474Y11268574D01*
X24912924Y11273600D01*
X24912921Y11273603D01*
X24810196Y11352427D01*
X24810194Y11352428D01*
X24803643Y11357455D01*
X24668754Y11413328D01*
X24524000Y11432385D01*
X24515812Y11431307D01*
X24387432Y11414406D01*
X24387430Y11414405D01*
X24379246Y11413328D01*
X24331430Y11393522D01*
X24251986Y11360615D01*
X24251984Y11360614D01*
X24244358Y11357455D01*
X24128526Y11268574D01*
X24123503Y11262028D01*
X24108914Y11243015D01*
X24039645Y11152742D01*
X23983772Y11017854D01*
X23964715Y10873100D01*
X22789385Y10873100D01*
X22785993Y10881288D01*
X22760715Y10942314D01*
X22760714Y10942316D01*
X22757555Y10949942D01*
X22692179Y11035142D01*
X22673701Y11059223D01*
X22673700Y11059224D01*
X22668674Y11065774D01*
X22662124Y11070800D01*
X22662121Y11070803D01*
X22559396Y11149627D01*
X22559394Y11149628D01*
X22552843Y11154655D01*
X22417954Y11210528D01*
X22273200Y11229585D01*
X22265012Y11228507D01*
X22136632Y11211606D01*
X22136630Y11211605D01*
X22128446Y11210528D01*
X22082330Y11191426D01*
X22001186Y11157815D01*
X22001184Y11157814D01*
X21993558Y11154655D01*
X21877726Y11065774D01*
X21788845Y10949942D01*
X21785686Y10942316D01*
X21785685Y10942314D01*
X21760407Y10881288D01*
X21732972Y10815054D01*
X21731895Y10806870D01*
X21731894Y10806868D01*
X21722276Y10733806D01*
X21713915Y10670300D01*
X18696069Y10670300D01*
X18706207Y10747312D01*
X18707285Y10755500D01*
X18688228Y10900254D01*
X18639516Y11017854D01*
X18635515Y11027514D01*
X18635514Y11027516D01*
X18632355Y11035142D01*
X18543474Y11150974D01*
X18536924Y11156000D01*
X18536921Y11156003D01*
X18434196Y11234827D01*
X18434194Y11234828D01*
X18427643Y11239855D01*
X18292754Y11295728D01*
X18278011Y11297669D01*
X18156188Y11313707D01*
X18148000Y11314785D01*
X18139812Y11313707D01*
X18011432Y11296806D01*
X18011430Y11296805D01*
X18003246Y11295728D01*
X17955430Y11275922D01*
X17875986Y11243015D01*
X17875984Y11243014D01*
X17868358Y11239855D01*
X17826020Y11207368D01*
X17763368Y11159293D01*
X17752526Y11150974D01*
X17663645Y11035142D01*
X17660486Y11027516D01*
X17660485Y11027514D01*
X17656484Y11017854D01*
X17607772Y10900254D01*
X17588715Y10755500D01*
X254500Y10755500D01*
X254500Y12637700D01*
X10108715Y12637700D01*
X10127772Y12492946D01*
X10183645Y12358058D01*
X10272526Y12242226D01*
X10279076Y12237200D01*
X10279079Y12237197D01*
X10381804Y12158373D01*
X10388357Y12153345D01*
X10523246Y12097472D01*
X10668000Y12078415D01*
X10676188Y12079493D01*
X10804566Y12096394D01*
X10812754Y12097472D01*
X10947643Y12153345D01*
X10954196Y12158373D01*
X11056921Y12237197D01*
X11056924Y12237200D01*
X11063474Y12242226D01*
X11152355Y12358058D01*
X11208228Y12492946D01*
X11227285Y12637700D01*
X11208228Y12782454D01*
X11184300Y12840220D01*
X11155515Y12909714D01*
X11155514Y12909716D01*
X11152355Y12917342D01*
X11094608Y12992600D01*
X25358915Y12992600D01*
X25377972Y12847846D01*
X25381131Y12840220D01*
X25405059Y12782454D01*
X25433845Y12712958D01*
X25522726Y12597126D01*
X25529276Y12592100D01*
X25529279Y12592097D01*
X25632004Y12513273D01*
X25638557Y12508245D01*
X25773446Y12452372D01*
X25918200Y12433315D01*
X25926388Y12434393D01*
X26054766Y12451294D01*
X26062954Y12452372D01*
X26197843Y12508245D01*
X26204396Y12513273D01*
X26307121Y12592097D01*
X26307124Y12592100D01*
X26313674Y12597126D01*
X26402555Y12712958D01*
X26431342Y12782454D01*
X26455269Y12840220D01*
X26458428Y12847846D01*
X26477485Y12992600D01*
X26458428Y13137354D01*
X26402555Y13272242D01*
X26343162Y13349645D01*
X26318701Y13381523D01*
X26318700Y13381524D01*
X26313674Y13388074D01*
X26307124Y13393100D01*
X26307121Y13393103D01*
X26204396Y13471927D01*
X26204394Y13471928D01*
X26197843Y13476955D01*
X26062954Y13532828D01*
X25918200Y13551885D01*
X25910012Y13550807D01*
X25781632Y13533906D01*
X25781630Y13533905D01*
X25773446Y13532828D01*
X25725630Y13513022D01*
X25646186Y13480115D01*
X25646184Y13480114D01*
X25638558Y13476955D01*
X25522726Y13388074D01*
X25433845Y13272242D01*
X25377972Y13137354D01*
X25358915Y12992600D01*
X11094608Y12992600D01*
X11063474Y13033174D01*
X11056924Y13038200D01*
X11056921Y13038203D01*
X10954196Y13117027D01*
X10954194Y13117028D01*
X10947643Y13122055D01*
X10812754Y13177928D01*
X10668000Y13196985D01*
X10659812Y13195907D01*
X10531432Y13179006D01*
X10531430Y13179005D01*
X10523246Y13177928D01*
X10475430Y13158122D01*
X10395986Y13125215D01*
X10395984Y13125214D01*
X10388358Y13122055D01*
X10272526Y13033174D01*
X10183645Y12917342D01*
X10180486Y12909716D01*
X10180485Y12909714D01*
X10151700Y12840220D01*
X10127772Y12782454D01*
X10108715Y12637700D01*
X254500Y12637700D01*
X254500Y15485500D01*
X1183804Y15485500D01*
X1202554Y15271184D01*
X1258235Y15063380D01*
X1260557Y15058399D01*
X1260558Y15058398D01*
X1346829Y14873389D01*
X1346832Y14873384D01*
X1349155Y14868402D01*
X1352311Y14863895D01*
X1352312Y14863893D01*
X1448156Y14727014D01*
X1472551Y14692174D01*
X1624674Y14540051D01*
X1629182Y14536894D01*
X1629185Y14536892D01*
X1796103Y14420015D01*
X1800902Y14416655D01*
X1805884Y14414332D01*
X1805889Y14414329D01*
X1980298Y14333001D01*
X1995880Y14325735D01*
X2001188Y14324313D01*
X2001190Y14324312D01*
X2023135Y14318432D01*
X2203684Y14270054D01*
X2418000Y14251304D01*
X2632316Y14270054D01*
X2812865Y14318432D01*
X2834810Y14324312D01*
X2834812Y14324313D01*
X2840120Y14325735D01*
X2855702Y14333001D01*
X3030111Y14414329D01*
X3030116Y14414332D01*
X3035098Y14416655D01*
X3039897Y14420015D01*
X3206815Y14536892D01*
X3206818Y14536894D01*
X3211326Y14540051D01*
X3363449Y14692174D01*
X3387845Y14727014D01*
X3483688Y14863893D01*
X3483689Y14863895D01*
X3486845Y14868402D01*
X3489168Y14873384D01*
X3489171Y14873389D01*
X3575442Y15058398D01*
X3575443Y15058399D01*
X3577765Y15063380D01*
X3633446Y15271184D01*
X3652196Y15485500D01*
X3633446Y15699816D01*
X3577765Y15907620D01*
X3559362Y15947085D01*
X3494818Y16085500D01*
X6083804Y16085500D01*
X6102554Y15871184D01*
X6127865Y15776723D01*
X6156095Y15671368D01*
X6158235Y15663380D01*
X6160557Y15658399D01*
X6160558Y15658398D01*
X6246829Y15473389D01*
X6246832Y15473384D01*
X6249155Y15468402D01*
X6252311Y15463895D01*
X6252312Y15463893D01*
X6299860Y15395988D01*
X6372551Y15292174D01*
X6524674Y15140051D01*
X6529182Y15136894D01*
X6529185Y15136892D01*
X6692416Y15022597D01*
X6700902Y15016655D01*
X6705884Y15014332D01*
X6705889Y15014329D01*
X6877452Y14934328D01*
X6895880Y14925735D01*
X6901188Y14924313D01*
X6901190Y14924312D01*
X6960303Y14908473D01*
X7103684Y14870054D01*
X7318000Y14851304D01*
X7532316Y14870054D01*
X7675697Y14908473D01*
X7734810Y14924312D01*
X7734812Y14924313D01*
X7740120Y14925735D01*
X7758548Y14934328D01*
X7930111Y15014329D01*
X7930116Y15014332D01*
X7935098Y15016655D01*
X7943584Y15022597D01*
X8103113Y15134300D01*
X12742515Y15134300D01*
X12743593Y15126112D01*
X12760344Y14998877D01*
X12761572Y14989546D01*
X12764731Y14981920D01*
X12813620Y14863893D01*
X12817445Y14854658D01*
X12906326Y14738826D01*
X12912876Y14733800D01*
X12912879Y14733797D01*
X13015604Y14654973D01*
X13022157Y14649945D01*
X13042642Y14641460D01*
X13128145Y14606043D01*
X13183426Y14561494D01*
X13205847Y14494131D01*
X13188289Y14425340D01*
X13156631Y14389672D01*
X13082776Y14333001D01*
X13082772Y14332997D01*
X13076226Y14327974D01*
X13071203Y14321428D01*
X13068904Y14318432D01*
X12987345Y14212142D01*
X12931472Y14077254D01*
X12930395Y14069070D01*
X12930394Y14069068D01*
X12929138Y14059526D01*
X12912415Y13932500D01*
X12913493Y13924312D01*
X12926461Y13825812D01*
X12931472Y13787746D01*
X12934631Y13780120D01*
X12972320Y13689132D01*
X12987345Y13652858D01*
X13031785Y13594942D01*
X13069296Y13546058D01*
X13076226Y13537026D01*
X13082776Y13532000D01*
X13082779Y13531997D01*
X13185504Y13453173D01*
X13192057Y13448145D01*
X13326946Y13392272D01*
X13471700Y13373215D01*
X13479888Y13374293D01*
X13608266Y13391194D01*
X13616454Y13392272D01*
X13751343Y13448145D01*
X13757896Y13453173D01*
X13860621Y13531997D01*
X13860624Y13532000D01*
X13867174Y13537026D01*
X13874105Y13546058D01*
X13911615Y13594942D01*
X13956055Y13652858D01*
X13971081Y13689132D01*
X14008769Y13780120D01*
X14011928Y13787746D01*
X14016940Y13825812D01*
X14018018Y13834000D01*
X17854715Y13834000D01*
X17855793Y13825812D01*
X17861822Y13780020D01*
X17873772Y13689246D01*
X17929645Y13554358D01*
X17946166Y13532828D01*
X18007364Y13453073D01*
X18018526Y13438526D01*
X18025076Y13433500D01*
X18025079Y13433497D01*
X18127804Y13354673D01*
X18134357Y13349645D01*
X18269246Y13293772D01*
X18277434Y13292694D01*
X18340480Y13284394D01*
X18414000Y13274715D01*
X18422188Y13275793D01*
X18550566Y13292694D01*
X18558754Y13293772D01*
X18693643Y13349645D01*
X18700196Y13354673D01*
X18802921Y13433497D01*
X18802924Y13433500D01*
X18809474Y13438526D01*
X18820637Y13453073D01*
X18881834Y13532828D01*
X18898355Y13554358D01*
X18954228Y13689246D01*
X18966179Y13780020D01*
X18972192Y13825700D01*
X19798515Y13825700D01*
X19799593Y13817512D01*
X19815402Y13697432D01*
X19817572Y13680946D01*
X19873445Y13546058D01*
X19962326Y13430226D01*
X19968876Y13425200D01*
X19968879Y13425197D01*
X20067340Y13349645D01*
X20078157Y13341345D01*
X20213046Y13285472D01*
X20357800Y13266415D01*
X20365988Y13267493D01*
X20420846Y13274715D01*
X20502554Y13285472D01*
X20637443Y13341345D01*
X20648260Y13349645D01*
X20746721Y13425197D01*
X20746724Y13425200D01*
X20753274Y13430226D01*
X20842155Y13546058D01*
X20898028Y13680946D01*
X20900199Y13697432D01*
X20916007Y13817512D01*
X20917085Y13825700D01*
X20913959Y13849445D01*
X20903038Y13932400D01*
X22828715Y13932400D01*
X22847772Y13787646D01*
X22903645Y13652758D01*
X22908672Y13646207D01*
X22987423Y13543577D01*
X22992526Y13536926D01*
X22999076Y13531900D01*
X22999079Y13531897D01*
X23101674Y13453173D01*
X23108357Y13448045D01*
X23243246Y13392172D01*
X23388000Y13373115D01*
X23396188Y13374193D01*
X23524566Y13391094D01*
X23532754Y13392172D01*
X23667643Y13448045D01*
X23674326Y13453173D01*
X23776921Y13531897D01*
X23776924Y13531900D01*
X23783474Y13536926D01*
X23788578Y13543577D01*
X23867328Y13646207D01*
X23872355Y13652758D01*
X23928228Y13787646D01*
X23947285Y13932400D01*
X23941271Y13978080D01*
X23929306Y14068968D01*
X23929305Y14068970D01*
X23928228Y14077154D01*
X23872355Y14212042D01*
X23801005Y14305027D01*
X23788501Y14321323D01*
X23788500Y14321324D01*
X23783474Y14327874D01*
X23776924Y14332900D01*
X23776921Y14332903D01*
X23674196Y14411727D01*
X23674194Y14411728D01*
X23667643Y14416755D01*
X23532754Y14472628D01*
X23388000Y14491685D01*
X23379812Y14490607D01*
X23251432Y14473706D01*
X23251430Y14473705D01*
X23243246Y14472628D01*
X23220456Y14463188D01*
X23115986Y14419915D01*
X23115984Y14419914D01*
X23108358Y14416755D01*
X22992526Y14327874D01*
X22903645Y14212042D01*
X22847772Y14077154D01*
X22846695Y14068970D01*
X22846694Y14068968D01*
X22834729Y13978080D01*
X22828715Y13932400D01*
X20903038Y13932400D01*
X20899106Y13962268D01*
X20899105Y13962270D01*
X20898028Y13970454D01*
X20857222Y14068968D01*
X20845315Y14097714D01*
X20845314Y14097716D01*
X20842155Y14105342D01*
X20782577Y14182986D01*
X20758301Y14214623D01*
X20758300Y14214624D01*
X20753274Y14221174D01*
X20746724Y14226200D01*
X20746721Y14226203D01*
X20643996Y14305027D01*
X20643994Y14305028D01*
X20637443Y14310055D01*
X20502554Y14365928D01*
X20463512Y14371068D01*
X20365988Y14383907D01*
X20357800Y14384985D01*
X20349612Y14383907D01*
X20221232Y14367006D01*
X20221230Y14367005D01*
X20213046Y14365928D01*
X20165230Y14346122D01*
X20085786Y14313215D01*
X20085784Y14313214D01*
X20078158Y14310055D01*
X19962326Y14221174D01*
X19957303Y14214628D01*
X19955319Y14212042D01*
X19873445Y14105342D01*
X19870286Y14097716D01*
X19870285Y14097714D01*
X19858378Y14068968D01*
X19817572Y13970454D01*
X19816495Y13962270D01*
X19816494Y13962268D01*
X19801641Y13849445D01*
X19798515Y13825700D01*
X18972192Y13825700D01*
X18972207Y13825812D01*
X18973285Y13834000D01*
X18961409Y13924212D01*
X18955306Y13970568D01*
X18955305Y13970570D01*
X18954228Y13978754D01*
X18916860Y14068968D01*
X18901515Y14106014D01*
X18901514Y14106016D01*
X18898355Y14113642D01*
X18850999Y14175358D01*
X18814501Y14222923D01*
X18814500Y14222924D01*
X18809474Y14229474D01*
X18802924Y14234500D01*
X18802921Y14234503D01*
X18700196Y14313327D01*
X18700194Y14313328D01*
X18693643Y14318355D01*
X18558754Y14374228D01*
X18414000Y14393285D01*
X18405812Y14392207D01*
X18277432Y14375306D01*
X18277430Y14375305D01*
X18269246Y14374228D01*
X18221430Y14354422D01*
X18141986Y14321515D01*
X18141984Y14321514D01*
X18134358Y14318355D01*
X18018526Y14229474D01*
X17929645Y14113642D01*
X17926486Y14106016D01*
X17926485Y14106014D01*
X17911140Y14068968D01*
X17873772Y13978754D01*
X17872695Y13970570D01*
X17872694Y13970568D01*
X17866591Y13924212D01*
X17854715Y13834000D01*
X14018018Y13834000D01*
X14029907Y13924312D01*
X14030985Y13932500D01*
X14014262Y14059526D01*
X14013006Y14069068D01*
X14013005Y14069070D01*
X14011928Y14077254D01*
X13956055Y14212142D01*
X13874496Y14318432D01*
X13872201Y14321423D01*
X13872200Y14321424D01*
X13867174Y14327974D01*
X13860623Y14333001D01*
X13860621Y14333003D01*
X13757896Y14411827D01*
X13757894Y14411828D01*
X13751343Y14416855D01*
X13659252Y14455000D01*
X14831715Y14455000D01*
X14832793Y14446812D01*
X14849314Y14321323D01*
X14850772Y14310246D01*
X14853931Y14302620D01*
X14890379Y14214628D01*
X14906645Y14175358D01*
X14911672Y14168807D01*
X14982000Y14077154D01*
X14995526Y14059526D01*
X15002076Y14054500D01*
X15002079Y14054497D01*
X15104804Y13975673D01*
X15111357Y13970645D01*
X15246246Y13914772D01*
X15391000Y13895715D01*
X15399188Y13896793D01*
X15527566Y13913694D01*
X15535754Y13914772D01*
X15670643Y13970645D01*
X15677196Y13975673D01*
X15779921Y14054497D01*
X15779924Y14054500D01*
X15786474Y14059526D01*
X15800001Y14077154D01*
X15870328Y14168807D01*
X15875355Y14175358D01*
X15891622Y14214628D01*
X15928069Y14302620D01*
X15931228Y14310246D01*
X15932687Y14321323D01*
X15949207Y14446812D01*
X15950285Y14455000D01*
X15931228Y14599754D01*
X15892946Y14692174D01*
X15878515Y14727014D01*
X15878514Y14727016D01*
X15875355Y14734642D01*
X15786474Y14850474D01*
X15779924Y14855500D01*
X15779921Y14855503D01*
X15677196Y14934327D01*
X15677194Y14934328D01*
X15670643Y14939355D01*
X15535754Y14995228D01*
X15391000Y15014285D01*
X15382812Y15013207D01*
X15254432Y14996306D01*
X15254430Y14996305D01*
X15246246Y14995228D01*
X15232529Y14989546D01*
X15118986Y14942515D01*
X15118984Y14942514D01*
X15111358Y14939355D01*
X14995526Y14850474D01*
X14906645Y14734642D01*
X14903486Y14727016D01*
X14903485Y14727014D01*
X14889054Y14692174D01*
X14850772Y14599754D01*
X14831715Y14455000D01*
X13659252Y14455000D01*
X13645353Y14460757D01*
X13590073Y14505305D01*
X13567652Y14572669D01*
X13585210Y14641460D01*
X13616868Y14677128D01*
X13690721Y14733797D01*
X13690724Y14733800D01*
X13697274Y14738826D01*
X13786155Y14854658D01*
X13789981Y14863893D01*
X13838869Y14981920D01*
X13842028Y14989546D01*
X13843257Y14998877D01*
X13860007Y15126112D01*
X13861085Y15134300D01*
X13857959Y15158045D01*
X13843106Y15270868D01*
X13843105Y15270870D01*
X13842028Y15279054D01*
X13800375Y15379612D01*
X13789315Y15406314D01*
X13789314Y15406316D01*
X13786155Y15413942D01*
X13779128Y15423100D01*
X19887715Y15423100D01*
X19888793Y15414912D01*
X19905465Y15288277D01*
X19906772Y15278346D01*
X19962645Y15143458D01*
X20051526Y15027626D01*
X20058076Y15022600D01*
X20058079Y15022597D01*
X20160804Y14943773D01*
X20167357Y14938745D01*
X20302246Y14882872D01*
X20447000Y14863815D01*
X20455188Y14864893D01*
X20583566Y14881794D01*
X20591754Y14882872D01*
X20726643Y14938745D01*
X20733196Y14943773D01*
X20835921Y15022597D01*
X20835924Y15022600D01*
X20842474Y15027626D01*
X20931355Y15143458D01*
X20987228Y15278346D01*
X20988536Y15288277D01*
X21001638Y15387800D01*
X30170915Y15387800D01*
X30171993Y15379612D01*
X30186329Y15270720D01*
X30189972Y15243046D01*
X30193131Y15235420D01*
X30235017Y15134300D01*
X30245845Y15108158D01*
X30250872Y15101607D01*
X30317843Y15014329D01*
X30334726Y14992326D01*
X30341276Y14987300D01*
X30341279Y14987297D01*
X30444004Y14908473D01*
X30450557Y14903445D01*
X30585446Y14847572D01*
X30730200Y14828515D01*
X30738388Y14829593D01*
X30866766Y14846494D01*
X30874954Y14847572D01*
X31009843Y14903445D01*
X31016396Y14908473D01*
X31119121Y14987297D01*
X31119124Y14987300D01*
X31125674Y14992326D01*
X31142558Y15014329D01*
X31209528Y15101607D01*
X31214555Y15108158D01*
X31225384Y15134300D01*
X31267269Y15235420D01*
X31270428Y15243046D01*
X31274072Y15270720D01*
X31288407Y15379612D01*
X31289485Y15387800D01*
X31278217Y15473389D01*
X31271506Y15524368D01*
X31271505Y15524370D01*
X31270428Y15532554D01*
X31236846Y15613628D01*
X31217715Y15659814D01*
X31217714Y15659816D01*
X31214555Y15667442D01*
X31125674Y15783274D01*
X31119124Y15788300D01*
X31119121Y15788303D01*
X31016396Y15867127D01*
X31016394Y15867128D01*
X31009843Y15872155D01*
X30874954Y15928028D01*
X30730200Y15947085D01*
X30722012Y15946007D01*
X30593632Y15929106D01*
X30593630Y15929105D01*
X30585446Y15928028D01*
X30548205Y15912602D01*
X30458186Y15875315D01*
X30458184Y15875314D01*
X30450558Y15872155D01*
X30334726Y15783274D01*
X30245845Y15667442D01*
X30242686Y15659816D01*
X30242685Y15659814D01*
X30223554Y15613628D01*
X30189972Y15532554D01*
X30188895Y15524370D01*
X30188894Y15524368D01*
X30182183Y15473389D01*
X30170915Y15387800D01*
X21001638Y15387800D01*
X21005207Y15414912D01*
X21006285Y15423100D01*
X20992241Y15529774D01*
X20988306Y15559668D01*
X20988305Y15559670D01*
X20987228Y15567854D01*
X20949137Y15659814D01*
X20934515Y15695114D01*
X20934514Y15695116D01*
X20931355Y15702742D01*
X20842474Y15818574D01*
X20835924Y15823600D01*
X20835921Y15823603D01*
X20733196Y15902427D01*
X20733194Y15902428D01*
X20726643Y15907455D01*
X20591754Y15963328D01*
X20447000Y15982385D01*
X20438812Y15981307D01*
X20310432Y15964406D01*
X20310430Y15964405D01*
X20302246Y15963328D01*
X20263032Y15947085D01*
X20174986Y15910615D01*
X20174984Y15910614D01*
X20167358Y15907455D01*
X20051526Y15818574D01*
X19962645Y15702742D01*
X19959486Y15695116D01*
X19959485Y15695114D01*
X19944863Y15659814D01*
X19906772Y15567854D01*
X19905695Y15559670D01*
X19905694Y15559668D01*
X19901759Y15529774D01*
X19887715Y15423100D01*
X13779128Y15423100D01*
X13697274Y15529774D01*
X13690724Y15534800D01*
X13690721Y15534803D01*
X13587996Y15613627D01*
X13587994Y15613628D01*
X13581443Y15618655D01*
X13446554Y15674528D01*
X13301800Y15693585D01*
X13293612Y15692507D01*
X13165232Y15675606D01*
X13165230Y15675605D01*
X13157046Y15674528D01*
X13142952Y15668690D01*
X13029786Y15621815D01*
X13029784Y15621814D01*
X13022158Y15618655D01*
X12906326Y15529774D01*
X12817445Y15413942D01*
X12814286Y15406316D01*
X12814285Y15406314D01*
X12803225Y15379612D01*
X12761572Y15279054D01*
X12760495Y15270870D01*
X12760494Y15270868D01*
X12745641Y15158045D01*
X12742515Y15134300D01*
X8103113Y15134300D01*
X8106815Y15136892D01*
X8106818Y15136894D01*
X8111326Y15140051D01*
X8263449Y15292174D01*
X8336141Y15395988D01*
X8383688Y15463893D01*
X8383689Y15463895D01*
X8386845Y15468402D01*
X8389168Y15473384D01*
X8389171Y15473389D01*
X8475442Y15658398D01*
X8475443Y15658399D01*
X8477765Y15663380D01*
X8479906Y15671368D01*
X8508135Y15776723D01*
X8533446Y15871184D01*
X8542284Y15972200D01*
X10108715Y15972200D01*
X10109793Y15964012D01*
X10117901Y15902428D01*
X10127772Y15827446D01*
X10143986Y15788303D01*
X10179427Y15702742D01*
X10183645Y15692558D01*
X10272526Y15576726D01*
X10279076Y15571700D01*
X10279079Y15571697D01*
X10381804Y15492873D01*
X10388357Y15487845D01*
X10523246Y15431972D01*
X10668000Y15412915D01*
X10676188Y15413993D01*
X10804566Y15430894D01*
X10812754Y15431972D01*
X10947643Y15487845D01*
X10954196Y15492873D01*
X11056921Y15571697D01*
X11056924Y15571700D01*
X11063474Y15576726D01*
X11152355Y15692558D01*
X11156574Y15702742D01*
X11192014Y15788303D01*
X11208228Y15827446D01*
X11218100Y15902428D01*
X11226207Y15964012D01*
X11227285Y15972200D01*
X11210775Y16097611D01*
X11209306Y16108768D01*
X11209305Y16108770D01*
X11208228Y16116954D01*
X11152355Y16251842D01*
X11063474Y16367674D01*
X11056924Y16372700D01*
X11056921Y16372703D01*
X10954196Y16451527D01*
X10954194Y16451528D01*
X10947643Y16456555D01*
X10812754Y16512428D01*
X10668000Y16531485D01*
X10659812Y16530407D01*
X10531432Y16513506D01*
X10531430Y16513505D01*
X10523246Y16512428D01*
X10511639Y16507620D01*
X10395986Y16459715D01*
X10395984Y16459714D01*
X10388358Y16456555D01*
X10272526Y16367674D01*
X10183645Y16251842D01*
X10127772Y16116954D01*
X10126695Y16108770D01*
X10126694Y16108768D01*
X10125225Y16097611D01*
X10108715Y15972200D01*
X8542284Y15972200D01*
X8552196Y16085500D01*
X8533446Y16299816D01*
X8477765Y16507620D01*
X8441449Y16585500D01*
X11954615Y16585500D01*
X11955693Y16577312D01*
X11972253Y16451527D01*
X11973672Y16440746D01*
X12029545Y16305858D01*
X12118426Y16190026D01*
X12124976Y16185000D01*
X12124979Y16184997D01*
X12226487Y16107107D01*
X12234257Y16101145D01*
X12369146Y16045272D01*
X12513900Y16026215D01*
X12522088Y16027293D01*
X12650466Y16044194D01*
X12658654Y16045272D01*
X12793543Y16101145D01*
X12801313Y16107107D01*
X12902821Y16184997D01*
X12902824Y16185000D01*
X12909374Y16190026D01*
X12998255Y16305858D01*
X13054128Y16440746D01*
X13055548Y16451527D01*
X13072107Y16577312D01*
X13073185Y16585500D01*
X13065130Y16646688D01*
X13055206Y16722068D01*
X13055205Y16722070D01*
X13054128Y16730254D01*
X13027196Y16795272D01*
X13001415Y16857514D01*
X13001414Y16857516D01*
X12998255Y16865142D01*
X12944653Y16934997D01*
X12914401Y16974423D01*
X12914400Y16974424D01*
X12909374Y16980974D01*
X12902824Y16986000D01*
X12902821Y16986003D01*
X12800096Y17064827D01*
X12800094Y17064828D01*
X12793543Y17069855D01*
X12658654Y17125728D01*
X12513900Y17144785D01*
X12505712Y17143707D01*
X12377332Y17126806D01*
X12377330Y17126805D01*
X12369146Y17125728D01*
X12321330Y17105922D01*
X12241886Y17073015D01*
X12241884Y17073014D01*
X12234258Y17069855D01*
X12118426Y16980974D01*
X12113403Y16974428D01*
X12094068Y16949230D01*
X12029545Y16865142D01*
X12026386Y16857516D01*
X12026385Y16857514D01*
X12000604Y16795272D01*
X11973672Y16730254D01*
X11972595Y16722070D01*
X11972594Y16722068D01*
X11962670Y16646688D01*
X11954615Y16585500D01*
X8441449Y16585500D01*
X8437631Y16593688D01*
X8389171Y16697611D01*
X8389168Y16697616D01*
X8386845Y16702598D01*
X8383688Y16707107D01*
X8266608Y16874315D01*
X8266606Y16874318D01*
X8263449Y16878826D01*
X8111326Y17030949D01*
X8106818Y17034106D01*
X8106815Y17034108D01*
X7939607Y17151188D01*
X7939605Y17151189D01*
X7935098Y17154345D01*
X7930116Y17156668D01*
X7930111Y17156671D01*
X7745102Y17242942D01*
X7745101Y17242943D01*
X7740120Y17245265D01*
X7734812Y17246687D01*
X7734810Y17246688D01*
X7670068Y17264035D01*
X7532316Y17300946D01*
X7318000Y17319696D01*
X7103684Y17300946D01*
X6965932Y17264035D01*
X6901190Y17246688D01*
X6901188Y17246687D01*
X6895880Y17245265D01*
X6890899Y17242943D01*
X6890898Y17242942D01*
X6705889Y17156671D01*
X6705884Y17156668D01*
X6700902Y17154345D01*
X6696395Y17151189D01*
X6696393Y17151188D01*
X6529185Y17034108D01*
X6529182Y17034106D01*
X6524674Y17030949D01*
X6372551Y16878826D01*
X6369394Y16874318D01*
X6369392Y16874315D01*
X6252312Y16707107D01*
X6249155Y16702598D01*
X6246832Y16697616D01*
X6246829Y16697611D01*
X6198369Y16593688D01*
X6158235Y16507620D01*
X6102554Y16299816D01*
X6083804Y16085500D01*
X3494818Y16085500D01*
X3489171Y16097611D01*
X3489168Y16097616D01*
X3486845Y16102598D01*
X3429149Y16184997D01*
X3366608Y16274315D01*
X3366606Y16274318D01*
X3363449Y16278826D01*
X3211326Y16430949D01*
X3206818Y16434106D01*
X3206815Y16434108D01*
X3039607Y16551188D01*
X3039605Y16551189D01*
X3035098Y16554345D01*
X3030116Y16556668D01*
X3030111Y16556671D01*
X2845102Y16642942D01*
X2845101Y16642943D01*
X2840120Y16645265D01*
X2834812Y16646687D01*
X2834810Y16646688D01*
X2770068Y16664035D01*
X2632316Y16700946D01*
X2418000Y16719696D01*
X2203684Y16700946D01*
X2065932Y16664035D01*
X2001190Y16646688D01*
X2001188Y16646687D01*
X1995880Y16645265D01*
X1990899Y16642943D01*
X1990898Y16642942D01*
X1805889Y16556671D01*
X1805884Y16556668D01*
X1800902Y16554345D01*
X1796395Y16551189D01*
X1796393Y16551188D01*
X1629185Y16434108D01*
X1629182Y16434106D01*
X1624674Y16430949D01*
X1472551Y16278826D01*
X1469394Y16274318D01*
X1469392Y16274315D01*
X1406851Y16184997D01*
X1349155Y16102598D01*
X1346832Y16097616D01*
X1346829Y16097611D01*
X1276638Y15947085D01*
X1258235Y15907620D01*
X1202554Y15699816D01*
X1183804Y15485500D01*
X254500Y15485500D01*
X254500Y18292500D01*
X6249715Y18292500D01*
X6268772Y18147746D01*
X6324645Y18012858D01*
X6413526Y17897026D01*
X6420076Y17892000D01*
X6420079Y17891997D01*
X6522804Y17813173D01*
X6529357Y17808145D01*
X6664246Y17752272D01*
X6809000Y17733215D01*
X6817188Y17734293D01*
X6945566Y17751194D01*
X6953754Y17752272D01*
X7088643Y17808145D01*
X7095196Y17813173D01*
X7197921Y17891997D01*
X7197924Y17892000D01*
X7204474Y17897026D01*
X7293355Y18012858D01*
X7349228Y18147746D01*
X7368285Y18292500D01*
X7358304Y18368312D01*
X7357226Y18376500D01*
X9670315Y18376500D01*
X9671393Y18368312D01*
X9682452Y18284312D01*
X9689372Y18231746D01*
X9692531Y18224120D01*
X9720776Y18155932D01*
X9745245Y18096858D01*
X9834126Y17981026D01*
X9840676Y17976000D01*
X9840679Y17975997D01*
X9943404Y17897173D01*
X9949957Y17892145D01*
X10084846Y17836272D01*
X10229600Y17817215D01*
X10237788Y17818293D01*
X10366166Y17835194D01*
X10374354Y17836272D01*
X10509243Y17892145D01*
X10515796Y17897173D01*
X10618521Y17975997D01*
X10618524Y17976000D01*
X10625074Y17981026D01*
X10713955Y18096858D01*
X10738425Y18155932D01*
X10766669Y18224120D01*
X10769828Y18231746D01*
X10776749Y18284312D01*
X10787807Y18368312D01*
X10788885Y18376500D01*
X10779836Y18445232D01*
X10770906Y18513068D01*
X10770905Y18513070D01*
X10769828Y18521254D01*
X10726617Y18625573D01*
X10717115Y18648514D01*
X10717114Y18648516D01*
X10713955Y18656142D01*
X10625074Y18771974D01*
X10618524Y18777000D01*
X10618521Y18777003D01*
X10515796Y18855827D01*
X10515794Y18855828D01*
X10509243Y18860855D01*
X10374354Y18916728D01*
X10229600Y18935785D01*
X10221412Y18934707D01*
X10093032Y18917806D01*
X10093030Y18917805D01*
X10084846Y18916728D01*
X10037030Y18896922D01*
X9957586Y18864015D01*
X9957584Y18864014D01*
X9949958Y18860855D01*
X9834126Y18771974D01*
X9745245Y18656142D01*
X9742086Y18648516D01*
X9742085Y18648514D01*
X9732583Y18625573D01*
X9689372Y18521254D01*
X9688295Y18513070D01*
X9688294Y18513068D01*
X9679364Y18445232D01*
X9670315Y18376500D01*
X7357226Y18376500D01*
X7350306Y18429068D01*
X7350305Y18429070D01*
X7349228Y18437254D01*
X7322159Y18502603D01*
X7296515Y18564514D01*
X7296514Y18564516D01*
X7293355Y18572142D01*
X7225704Y18660307D01*
X7209501Y18681423D01*
X7209500Y18681424D01*
X7204474Y18687974D01*
X7197924Y18693000D01*
X7197921Y18693003D01*
X7095196Y18771827D01*
X7095194Y18771828D01*
X7088643Y18776855D01*
X6953754Y18832728D01*
X6809000Y18851785D01*
X6800812Y18850707D01*
X6672432Y18833806D01*
X6672430Y18833805D01*
X6664246Y18832728D01*
X6616430Y18812922D01*
X6536986Y18780015D01*
X6536984Y18780014D01*
X6529358Y18776855D01*
X6413526Y18687974D01*
X6324645Y18572142D01*
X6321486Y18564516D01*
X6321485Y18564514D01*
X6295841Y18502603D01*
X6268772Y18437254D01*
X6267695Y18429070D01*
X6267694Y18429068D01*
X6259696Y18368312D01*
X6249715Y18292500D01*
X254500Y18292500D01*
X254500Y19160000D01*
X13244515Y19160000D01*
X13263572Y19015246D01*
X13319445Y18880358D01*
X13334410Y18860855D01*
X13398866Y18776855D01*
X13408326Y18764526D01*
X13414876Y18759500D01*
X13414879Y18759497D01*
X13516627Y18681423D01*
X13524157Y18675645D01*
X13659046Y18619772D01*
X13803800Y18600715D01*
X13839015Y18605351D01*
X13909164Y18594411D01*
X13944556Y18569524D01*
X14623131Y17890949D01*
X14630557Y17882845D01*
X14654140Y17854740D01*
X14663685Y17849229D01*
X14663689Y17849226D01*
X14685910Y17836397D01*
X14695180Y17830492D01*
X14725234Y17809448D01*
X14735886Y17806594D01*
X14738747Y17805260D01*
X14741713Y17804181D01*
X14751260Y17798668D01*
X14762116Y17796754D01*
X14762121Y17796752D01*
X14787390Y17792296D01*
X14798119Y17789918D01*
X14822912Y17783275D01*
X14822914Y17783275D01*
X14833557Y17780423D01*
X14844532Y17781383D01*
X14844533Y17781383D01*
X14859368Y17782681D01*
X14870116Y17783621D01*
X14881094Y17784100D01*
X16358498Y17784100D01*
X16426619Y17764098D01*
X16473112Y17710442D01*
X16483216Y17640168D01*
X16474908Y17609883D01*
X16435172Y17513954D01*
X16434095Y17505770D01*
X16434094Y17505768D01*
X16419241Y17392945D01*
X16416115Y17369200D01*
X16435172Y17224446D01*
X16438331Y17216820D01*
X16477372Y17122568D01*
X16491045Y17089558D01*
X16496072Y17083007D01*
X16570506Y16986003D01*
X16579926Y16973726D01*
X16586476Y16968700D01*
X16586479Y16968697D01*
X16623844Y16940026D01*
X16695757Y16884845D01*
X16830646Y16828972D01*
X16975400Y16809915D01*
X16983588Y16810993D01*
X17111966Y16827894D01*
X17120154Y16828972D01*
X17255043Y16884845D01*
X17326956Y16940026D01*
X17364321Y16968697D01*
X17364324Y16968700D01*
X17370874Y16973726D01*
X17380295Y16986003D01*
X17454728Y17083007D01*
X17459755Y17089558D01*
X17473429Y17122568D01*
X17512469Y17216820D01*
X17515628Y17224446D01*
X17534685Y17369200D01*
X17531559Y17392945D01*
X17516706Y17505768D01*
X17516705Y17505770D01*
X17515628Y17513954D01*
X17475893Y17609882D01*
X17468304Y17680471D01*
X17500083Y17743958D01*
X17561141Y17780186D01*
X17592302Y17784100D01*
X23226157Y17784100D01*
X23294278Y17764098D01*
X23340771Y17710442D01*
X23350875Y17640168D01*
X23342566Y17609882D01*
X23288872Y17480254D01*
X23269815Y17335500D01*
X23270893Y17327312D01*
X23283358Y17232632D01*
X23288872Y17190746D01*
X23303950Y17154345D01*
X23317113Y17122568D01*
X23344745Y17055858D01*
X23363858Y17030949D01*
X23402206Y16980974D01*
X23433626Y16940026D01*
X23440176Y16935000D01*
X23440179Y16934997D01*
X23542904Y16856173D01*
X23549457Y16851145D01*
X23684346Y16795272D01*
X23829100Y16776215D01*
X23837288Y16777293D01*
X23965666Y16794194D01*
X23973854Y16795272D01*
X24108743Y16851145D01*
X24115296Y16856173D01*
X24218021Y16934997D01*
X24218024Y16935000D01*
X24224574Y16940026D01*
X24255995Y16980974D01*
X24294342Y17030949D01*
X24313455Y17055858D01*
X24341088Y17122568D01*
X24354250Y17154345D01*
X24369328Y17190746D01*
X24374843Y17232632D01*
X24387307Y17327312D01*
X24388385Y17335500D01*
X24369328Y17480254D01*
X24315634Y17609882D01*
X24308045Y17680471D01*
X24339824Y17743958D01*
X24400882Y17780186D01*
X24432043Y17784100D01*
X27157442Y17784100D01*
X27225563Y17764098D01*
X27257402Y17734807D01*
X27279026Y17706626D01*
X27285576Y17701600D01*
X27313112Y17680471D01*
X27394857Y17617745D01*
X27529746Y17561872D01*
X27674500Y17542815D01*
X27682688Y17543893D01*
X27811066Y17560794D01*
X27819254Y17561872D01*
X27954143Y17617745D01*
X27960696Y17622773D01*
X28063421Y17701597D01*
X28063424Y17701600D01*
X28069974Y17706626D01*
X28090377Y17733215D01*
X28114516Y17764674D01*
X28158855Y17822458D01*
X28164131Y17835194D01*
X28211569Y17949720D01*
X28214728Y17957346D01*
X28217184Y17975997D01*
X28232707Y18093912D01*
X28233785Y18102100D01*
X28214728Y18246854D01*
X28158855Y18381742D01*
X28091597Y18469395D01*
X28075001Y18491023D01*
X28075000Y18491024D01*
X28069974Y18497574D01*
X28063423Y18502601D01*
X28063421Y18502603D01*
X27960696Y18581427D01*
X27960694Y18581428D01*
X27954143Y18586455D01*
X27819254Y18642328D01*
X27674500Y18661385D01*
X27666312Y18660307D01*
X27537932Y18643406D01*
X27537930Y18643405D01*
X27529746Y18642328D01*
X27496633Y18628612D01*
X27402486Y18589615D01*
X27402484Y18589614D01*
X27394858Y18586455D01*
X27279026Y18497574D01*
X27257403Y18469394D01*
X27200066Y18427528D01*
X27157442Y18420100D01*
X23818915Y18420100D01*
X23750794Y18440102D01*
X23704301Y18493758D01*
X23694197Y18564032D01*
X23722303Y18625573D01*
X23721974Y18625826D01*
X23723072Y18627257D01*
X23732213Y18639169D01*
X23805828Y18735107D01*
X23810855Y18741658D01*
X23818245Y18759497D01*
X23856025Y18850707D01*
X23866728Y18876546D01*
X23885785Y19021300D01*
X23866728Y19166054D01*
X23810855Y19300942D01*
X23721974Y19416774D01*
X23715424Y19421800D01*
X23715421Y19421803D01*
X23612696Y19500627D01*
X23612694Y19500628D01*
X23606143Y19505655D01*
X23471254Y19561528D01*
X23326500Y19580585D01*
X23318312Y19579507D01*
X23189932Y19562606D01*
X23189930Y19562605D01*
X23181746Y19561528D01*
X23151327Y19548928D01*
X23054486Y19508815D01*
X23054484Y19508814D01*
X23046858Y19505655D01*
X22931026Y19416774D01*
X22842145Y19300942D01*
X22786272Y19166054D01*
X22767215Y19021300D01*
X22786272Y18876546D01*
X22796975Y18850707D01*
X22834756Y18759497D01*
X22842145Y18741658D01*
X22892799Y18675645D01*
X22931026Y18625826D01*
X22929102Y18624350D01*
X22957206Y18572883D01*
X22952141Y18502068D01*
X22909594Y18445232D01*
X22843074Y18420421D01*
X22834085Y18420100D01*
X15045610Y18420100D01*
X14977489Y18440102D01*
X14956515Y18457005D01*
X14394276Y19019244D01*
X14360250Y19081556D01*
X14358449Y19124785D01*
X14362007Y19151812D01*
X14363085Y19160000D01*
X14344028Y19304754D01*
X14300339Y19410228D01*
X14291315Y19432014D01*
X14291314Y19432016D01*
X14288155Y19439642D01*
X14199274Y19555474D01*
X14192724Y19560500D01*
X14192721Y19560503D01*
X14089996Y19639327D01*
X14089994Y19639328D01*
X14083443Y19644355D01*
X13948554Y19700228D01*
X13803800Y19719285D01*
X13795612Y19718207D01*
X13667232Y19701306D01*
X13667230Y19701305D01*
X13659046Y19700228D01*
X13611230Y19680422D01*
X13531786Y19647515D01*
X13531784Y19647514D01*
X13524158Y19644355D01*
X13408326Y19555474D01*
X13319445Y19439642D01*
X13316286Y19432016D01*
X13316285Y19432014D01*
X13307261Y19410228D01*
X13263572Y19304754D01*
X13244515Y19160000D01*
X254500Y19160000D01*
X254500Y21220500D01*
X20502015Y21220500D01*
X20521072Y21075746D01*
X20576945Y20940858D01*
X20608551Y20899668D01*
X20659492Y20833281D01*
X20665826Y20825026D01*
X20672376Y20820000D01*
X20672379Y20819997D01*
X20775104Y20741173D01*
X20781657Y20736145D01*
X20916546Y20680272D01*
X21061300Y20661215D01*
X21069488Y20662293D01*
X21197866Y20679194D01*
X21206054Y20680272D01*
X21340943Y20736145D01*
X21347496Y20741173D01*
X21450221Y20819997D01*
X21450224Y20820000D01*
X21456774Y20825026D01*
X21463109Y20833281D01*
X21514049Y20899668D01*
X21545655Y20940858D01*
X21601528Y21075746D01*
X21620585Y21220500D01*
X21604345Y21343855D01*
X21602606Y21357068D01*
X21602605Y21357070D01*
X21601528Y21365254D01*
X21545655Y21500142D01*
X21456774Y21615974D01*
X21450224Y21621000D01*
X21450221Y21621003D01*
X21347496Y21699827D01*
X21347494Y21699828D01*
X21340943Y21704855D01*
X21206054Y21760728D01*
X21061300Y21779785D01*
X21053112Y21778707D01*
X20924732Y21761806D01*
X20924730Y21761805D01*
X20916546Y21760728D01*
X20868730Y21740922D01*
X20789286Y21708015D01*
X20789284Y21708014D01*
X20781658Y21704855D01*
X20665826Y21615974D01*
X20576945Y21500142D01*
X20521072Y21365254D01*
X20519995Y21357070D01*
X20519994Y21357068D01*
X20518255Y21343855D01*
X20502015Y21220500D01*
X254500Y21220500D01*
X254500Y21950400D01*
X6084515Y21950400D01*
X6103572Y21805646D01*
X6106731Y21798020D01*
X6147404Y21699828D01*
X6159445Y21670758D01*
X6197623Y21621003D01*
X6210983Y21603593D01*
X6248326Y21554926D01*
X6254876Y21549900D01*
X6254879Y21549897D01*
X6329662Y21492514D01*
X6364157Y21466045D01*
X6499046Y21410172D01*
X6643800Y21391115D01*
X6651988Y21392193D01*
X6780366Y21409094D01*
X6788554Y21410172D01*
X6923443Y21466045D01*
X6957938Y21492514D01*
X7032721Y21549897D01*
X7032724Y21549900D01*
X7039274Y21554926D01*
X7076618Y21603593D01*
X7089977Y21621003D01*
X7128155Y21670758D01*
X7140197Y21699828D01*
X7180869Y21798020D01*
X7184028Y21805646D01*
X7203085Y21950400D01*
X7190155Y22048612D01*
X7185106Y22086968D01*
X7185105Y22086970D01*
X7184028Y22095154D01*
X7151031Y22174815D01*
X7131315Y22222414D01*
X7131314Y22222416D01*
X7128155Y22230042D01*
X7052365Y22328814D01*
X7044301Y22339323D01*
X7044300Y22339324D01*
X7039274Y22345874D01*
X7032724Y22350900D01*
X7032721Y22350903D01*
X6929996Y22429727D01*
X6929994Y22429728D01*
X6923443Y22434755D01*
X6788554Y22490628D01*
X6643800Y22509685D01*
X6635612Y22508607D01*
X6507232Y22491706D01*
X6507230Y22491705D01*
X6499046Y22490628D01*
X6451230Y22470822D01*
X6371786Y22437915D01*
X6371784Y22437914D01*
X6364158Y22434755D01*
X6248326Y22345874D01*
X6243303Y22339328D01*
X6235235Y22328814D01*
X6159445Y22230042D01*
X6156286Y22222416D01*
X6156285Y22222414D01*
X6136569Y22174815D01*
X6103572Y22095154D01*
X6102495Y22086970D01*
X6102494Y22086968D01*
X6097445Y22048612D01*
X6084515Y21950400D01*
X254500Y21950400D01*
X254500Y22734100D01*
X18933715Y22734100D01*
X18934793Y22725912D01*
X18951619Y22598106D01*
X18952772Y22589346D01*
X18955931Y22581720D01*
X18994972Y22487468D01*
X19008645Y22454458D01*
X19013672Y22447907D01*
X19088106Y22350903D01*
X19097526Y22338626D01*
X19104076Y22333600D01*
X19104079Y22333597D01*
X19206804Y22254773D01*
X19213357Y22249745D01*
X19348246Y22193872D01*
X19493000Y22174815D01*
X19501188Y22175893D01*
X19629566Y22192794D01*
X19637754Y22193872D01*
X19772643Y22249745D01*
X19779196Y22254773D01*
X19881921Y22333597D01*
X19881924Y22333600D01*
X19888474Y22338626D01*
X19897895Y22350903D01*
X19972328Y22447907D01*
X19977355Y22454458D01*
X19991029Y22487468D01*
X20026664Y22573500D01*
X21084515Y22573500D01*
X21085593Y22565312D01*
X21100475Y22452274D01*
X21103572Y22428746D01*
X21106731Y22421120D01*
X21144966Y22328814D01*
X21159445Y22293858D01*
X21164472Y22287307D01*
X21236554Y22193368D01*
X21248326Y22178026D01*
X21254876Y22173000D01*
X21254879Y22172997D01*
X21356326Y22095154D01*
X21364157Y22089145D01*
X21499046Y22033272D01*
X21643800Y22014215D01*
X21651988Y22015293D01*
X21780366Y22032194D01*
X21788554Y22033272D01*
X21845355Y22056800D01*
X29920715Y22056800D01*
X29921793Y22048612D01*
X29935801Y21942212D01*
X29939772Y21912046D01*
X29942931Y21904420D01*
X29987004Y21798020D01*
X29995645Y21777158D01*
X30000672Y21770607D01*
X30077289Y21670758D01*
X30084526Y21661326D01*
X30091076Y21656300D01*
X30091079Y21656297D01*
X30193804Y21577473D01*
X30200357Y21572445D01*
X30335246Y21516572D01*
X30480000Y21497515D01*
X30488188Y21498593D01*
X30616566Y21515494D01*
X30624754Y21516572D01*
X30759643Y21572445D01*
X30766196Y21577473D01*
X30868921Y21656297D01*
X30868924Y21656300D01*
X30875474Y21661326D01*
X30882712Y21670758D01*
X30959328Y21770607D01*
X30964355Y21777158D01*
X30972997Y21798020D01*
X31017069Y21904420D01*
X31020228Y21912046D01*
X31024200Y21942212D01*
X31038207Y22048612D01*
X31039285Y22056800D01*
X31033232Y22102780D01*
X31021306Y22193368D01*
X31021305Y22193370D01*
X31020228Y22201554D01*
X30981994Y22293858D01*
X30967515Y22328814D01*
X30967514Y22328816D01*
X30964355Y22336442D01*
X30893282Y22429066D01*
X39928628Y22429066D01*
X39928872Y22424631D01*
X39928872Y22424627D01*
X39933365Y22342993D01*
X39944226Y22145628D01*
X39945093Y22141268D01*
X39945094Y22141262D01*
X39970151Y22015293D01*
X39999606Y21867215D01*
X40001084Y21863005D01*
X40001085Y21863003D01*
X40022351Y21802448D01*
X40093662Y21599384D01*
X40095715Y21595433D01*
X40095717Y21595427D01*
X40201848Y21391115D01*
X40224517Y21347476D01*
X40227100Y21343861D01*
X40227104Y21343855D01*
X40259827Y21298064D01*
X40389561Y21116520D01*
X40585501Y20911123D01*
X40588997Y20908367D01*
X40588998Y20908366D01*
X40787945Y20751528D01*
X40808426Y20735382D01*
X40897865Y20683432D01*
X41050042Y20595040D01*
X41050048Y20595037D01*
X41053889Y20592806D01*
X41058012Y20591136D01*
X41312861Y20487911D01*
X41312869Y20487908D01*
X41316993Y20486238D01*
X41592488Y20417805D01*
X41834586Y20393000D01*
X45510311Y20393000D01*
X45721158Y20407929D01*
X45725513Y20408867D01*
X45725516Y20408867D01*
X45994319Y20466739D01*
X45994321Y20466739D01*
X45998666Y20467675D01*
X46264987Y20565926D01*
X46333371Y20602824D01*
X46510892Y20698609D01*
X46514808Y20700722D01*
X46743144Y20869373D01*
X46782755Y20908366D01*
X46942257Y21065383D01*
X46945438Y21068514D01*
X47117655Y21294173D01*
X47256359Y21541845D01*
X47270143Y21577473D01*
X47320645Y21708015D01*
X47358781Y21806591D01*
X47359783Y21810912D01*
X47359785Y21810920D01*
X47411073Y22032194D01*
X47422878Y22083126D01*
X47447372Y22365934D01*
X47443862Y22429727D01*
X47440451Y22491706D01*
X47431774Y22649372D01*
X47418479Y22716213D01*
X47377264Y22923409D01*
X47376394Y22927785D01*
X47361930Y22968974D01*
X47283816Y23191407D01*
X47282338Y23195616D01*
X47273086Y23213428D01*
X47153535Y23443574D01*
X47153534Y23443576D01*
X47151483Y23447524D01*
X47148900Y23451139D01*
X47148896Y23451145D01*
X46989027Y23674858D01*
X46986439Y23678480D01*
X46790499Y23883877D01*
X46752525Y23913814D01*
X46571070Y24056862D01*
X46567574Y24059618D01*
X46447582Y24129315D01*
X46325958Y24199960D01*
X46325952Y24199963D01*
X46322111Y24202194D01*
X46296180Y24212697D01*
X46063139Y24307089D01*
X46063131Y24307092D01*
X46059007Y24308762D01*
X45783512Y24377195D01*
X45541414Y24402000D01*
X41865689Y24402000D01*
X41654842Y24387071D01*
X41650487Y24386133D01*
X41650484Y24386133D01*
X41381681Y24328261D01*
X41381679Y24328261D01*
X41377334Y24327325D01*
X41111013Y24229074D01*
X41107095Y24226960D01*
X40913043Y24122255D01*
X40861192Y24094278D01*
X40632856Y23925627D01*
X40629677Y23922498D01*
X40629674Y23922495D01*
X40590832Y23884258D01*
X40430562Y23726486D01*
X40427856Y23722940D01*
X40261707Y23505232D01*
X40258345Y23500827D01*
X40119641Y23253155D01*
X40118036Y23249006D01*
X40118034Y23249002D01*
X40062221Y23104732D01*
X40017219Y22988409D01*
X40016217Y22984088D01*
X40016215Y22984080D01*
X39989928Y22870668D01*
X39953122Y22711874D01*
X39928628Y22429066D01*
X30893282Y22429066D01*
X30892774Y22429728D01*
X30880501Y22445723D01*
X30880500Y22445724D01*
X30875474Y22452274D01*
X30868924Y22457300D01*
X30868921Y22457303D01*
X30766196Y22536127D01*
X30766194Y22536128D01*
X30759643Y22541155D01*
X30624754Y22597028D01*
X30480000Y22616085D01*
X30471812Y22615007D01*
X30343432Y22598106D01*
X30343430Y22598105D01*
X30335246Y22597028D01*
X30298290Y22581720D01*
X30207986Y22544315D01*
X30207984Y22544314D01*
X30200358Y22541155D01*
X30084526Y22452274D01*
X29995645Y22336442D01*
X29992486Y22328816D01*
X29992485Y22328814D01*
X29978006Y22293858D01*
X29939772Y22201554D01*
X29938695Y22193370D01*
X29938694Y22193368D01*
X29926768Y22102780D01*
X29920715Y22056800D01*
X21845355Y22056800D01*
X21923443Y22089145D01*
X21931274Y22095154D01*
X22032721Y22172997D01*
X22032724Y22173000D01*
X22039274Y22178026D01*
X22051047Y22193368D01*
X22123128Y22287307D01*
X22128155Y22293858D01*
X22142635Y22328814D01*
X22180869Y22421120D01*
X22184028Y22428746D01*
X22187126Y22452274D01*
X22202007Y22565312D01*
X22203085Y22573500D01*
X22193681Y22644930D01*
X22185106Y22710068D01*
X22185105Y22710070D01*
X22184028Y22718254D01*
X22128155Y22853142D01*
X22074237Y22923409D01*
X22044301Y22962423D01*
X22044300Y22962424D01*
X22039274Y22968974D01*
X22032724Y22974000D01*
X22032721Y22974003D01*
X21929996Y23052827D01*
X21929994Y23052828D01*
X21923443Y23057855D01*
X21788554Y23113728D01*
X21643800Y23132785D01*
X21635612Y23131707D01*
X21507232Y23114806D01*
X21507230Y23114805D01*
X21499046Y23113728D01*
X21477328Y23104732D01*
X21371786Y23061015D01*
X21371784Y23061014D01*
X21364158Y23057855D01*
X21315206Y23020293D01*
X21268013Y22984080D01*
X21248326Y22968974D01*
X21159445Y22853142D01*
X21103572Y22718254D01*
X21102495Y22710070D01*
X21102494Y22710068D01*
X21093919Y22644930D01*
X21084515Y22573500D01*
X20026664Y22573500D01*
X20030069Y22581720D01*
X20033228Y22589346D01*
X20034382Y22598106D01*
X20051207Y22725912D01*
X20052285Y22734100D01*
X20033228Y22878854D01*
X19989642Y22984080D01*
X19980515Y23006114D01*
X19980514Y23006116D01*
X19977355Y23013742D01*
X19924584Y23082515D01*
X19893501Y23123023D01*
X19893500Y23123024D01*
X19888474Y23129574D01*
X19881924Y23134600D01*
X19881921Y23134603D01*
X19779196Y23213427D01*
X19779194Y23213428D01*
X19772643Y23218455D01*
X19637754Y23274328D01*
X19493000Y23293385D01*
X19484812Y23292307D01*
X19356432Y23275406D01*
X19356430Y23275405D01*
X19348246Y23274328D01*
X19306517Y23257043D01*
X19220986Y23221615D01*
X19220984Y23221614D01*
X19213358Y23218455D01*
X19097526Y23129574D01*
X19008645Y23013742D01*
X19005486Y23006116D01*
X19005485Y23006114D01*
X18996358Y22984080D01*
X18952772Y22878854D01*
X18933715Y22734100D01*
X254500Y22734100D01*
X254500Y23641800D01*
X6163915Y23641800D01*
X6167041Y23618055D01*
X6168669Y23605693D01*
X6182972Y23497046D01*
X6238845Y23362158D01*
X6243872Y23355607D01*
X6319503Y23257043D01*
X6327726Y23246326D01*
X6334276Y23241300D01*
X6334279Y23241297D01*
X6399297Y23191407D01*
X6443557Y23157445D01*
X6578446Y23101572D01*
X6723200Y23082515D01*
X6731388Y23083593D01*
X6859766Y23100494D01*
X6867954Y23101572D01*
X7002843Y23157445D01*
X7047103Y23191407D01*
X7112121Y23241297D01*
X7112124Y23241300D01*
X7118674Y23246326D01*
X7126898Y23257043D01*
X7202528Y23355607D01*
X7207555Y23362158D01*
X7263428Y23497046D01*
X7277732Y23605693D01*
X7279359Y23618055D01*
X7282485Y23641800D01*
X7263428Y23786554D01*
X7207555Y23921442D01*
X7126303Y24027332D01*
X7123701Y24030723D01*
X7123700Y24030724D01*
X7118674Y24037274D01*
X7112124Y24042300D01*
X7112121Y24042303D01*
X7009396Y24121127D01*
X7009394Y24121128D01*
X7002843Y24126155D01*
X6911719Y24163900D01*
X9095315Y24163900D01*
X9096393Y24155712D01*
X9112863Y24030610D01*
X9114372Y24019146D01*
X9117531Y24011520D01*
X9154407Y23922495D01*
X9170245Y23884258D01*
X9259126Y23768426D01*
X9265676Y23763400D01*
X9265679Y23763397D01*
X9368404Y23684573D01*
X9374957Y23679545D01*
X9509846Y23623672D01*
X9654600Y23604615D01*
X9662788Y23605693D01*
X9791166Y23622594D01*
X9799354Y23623672D01*
X9934243Y23679545D01*
X9940796Y23684573D01*
X10043521Y23763397D01*
X10043524Y23763400D01*
X10050074Y23768426D01*
X10138955Y23884258D01*
X10154358Y23921442D01*
X10191669Y24011519D01*
X10191669Y24011521D01*
X10194828Y24019146D01*
X10195906Y24027332D01*
X10196784Y24030610D01*
X10233735Y24091233D01*
X10297596Y24122255D01*
X10366708Y24114409D01*
X10466746Y24072972D01*
X10611500Y24053915D01*
X10619688Y24054993D01*
X10748066Y24071894D01*
X10756254Y24072972D01*
X10891143Y24128845D01*
X10897696Y24133873D01*
X11000421Y24212697D01*
X11000424Y24212700D01*
X11006974Y24217726D01*
X11014060Y24226960D01*
X11070464Y24300468D01*
X11095855Y24333558D01*
X11117633Y24386133D01*
X11148569Y24460820D01*
X11151728Y24468446D01*
X11170785Y24613200D01*
X11166708Y24644172D01*
X11152806Y24749768D01*
X11152805Y24749770D01*
X11151728Y24757954D01*
X11095855Y24892842D01*
X11006974Y25008674D01*
X11000424Y25013700D01*
X11000421Y25013703D01*
X10897696Y25092527D01*
X10897694Y25092528D01*
X10891143Y25097555D01*
X10756254Y25153428D01*
X10734652Y25156272D01*
X10619688Y25171407D01*
X10611500Y25172485D01*
X10603312Y25171407D01*
X10474932Y25154506D01*
X10474930Y25154505D01*
X10466746Y25153428D01*
X10430207Y25138293D01*
X10339486Y25100715D01*
X10339484Y25100714D01*
X10331858Y25097555D01*
X10216026Y25008674D01*
X10127145Y24892842D01*
X10123986Y24885216D01*
X10123985Y24885214D01*
X10084101Y24788926D01*
X10071272Y24757954D01*
X10070194Y24749768D01*
X10069316Y24746490D01*
X10032365Y24685867D01*
X9968504Y24654845D01*
X9899392Y24662691D01*
X9799354Y24704128D01*
X9654600Y24723185D01*
X9646412Y24722107D01*
X9518032Y24705206D01*
X9518030Y24705205D01*
X9509846Y24704128D01*
X9462030Y24684322D01*
X9382586Y24651415D01*
X9382584Y24651414D01*
X9374958Y24648255D01*
X9259126Y24559374D01*
X9170245Y24443542D01*
X9167086Y24435916D01*
X9167085Y24435914D01*
X9152972Y24401842D01*
X9114372Y24308654D01*
X9113295Y24300470D01*
X9113294Y24300468D01*
X9100062Y24199960D01*
X9095315Y24163900D01*
X6911719Y24163900D01*
X6867954Y24182028D01*
X6723200Y24201085D01*
X6715012Y24200007D01*
X6586632Y24183106D01*
X6586630Y24183105D01*
X6578446Y24182028D01*
X6554449Y24172088D01*
X6451186Y24129315D01*
X6451184Y24129314D01*
X6443558Y24126155D01*
X6327726Y24037274D01*
X6322703Y24030728D01*
X6320097Y24027332D01*
X6238845Y23921442D01*
X6182972Y23786554D01*
X6163915Y23641800D01*
X254500Y23641800D01*
X254500Y25696500D01*
X15655915Y25696500D01*
X15656993Y25688312D01*
X15672131Y25573328D01*
X15674972Y25551746D01*
X15678131Y25544120D01*
X15711301Y25464042D01*
X15730845Y25416858D01*
X15735872Y25410307D01*
X15798143Y25329154D01*
X15819726Y25301026D01*
X15826276Y25296000D01*
X15826279Y25295997D01*
X15929004Y25217173D01*
X15935557Y25212145D01*
X16070446Y25156272D01*
X16078634Y25155194D01*
X16116044Y25150269D01*
X16215200Y25137215D01*
X16223388Y25138293D01*
X16351766Y25155194D01*
X16359954Y25156272D01*
X16427861Y25184400D01*
X17295815Y25184400D01*
X17296893Y25176212D01*
X17300309Y25150268D01*
X17314872Y25039646D01*
X17370745Y24904758D01*
X17459626Y24788926D01*
X17466176Y24783900D01*
X17466179Y24783897D01*
X17546705Y24722107D01*
X17575457Y24700045D01*
X17710346Y24644172D01*
X17855100Y24625115D01*
X17863288Y24626193D01*
X17991666Y24643094D01*
X17999854Y24644172D01*
X18134743Y24700045D01*
X18163495Y24722107D01*
X18244021Y24783897D01*
X18244024Y24783900D01*
X18250574Y24788926D01*
X18339455Y24904758D01*
X18395328Y25039646D01*
X18409892Y25150268D01*
X18413307Y25176212D01*
X18414385Y25184400D01*
X18395328Y25329154D01*
X18361713Y25410307D01*
X18342615Y25456414D01*
X18342614Y25456416D01*
X18339455Y25464042D01*
X18272597Y25551173D01*
X18255601Y25573323D01*
X18255600Y25573324D01*
X18250574Y25579874D01*
X18244024Y25584900D01*
X18244021Y25584903D01*
X18141296Y25663727D01*
X18141294Y25663728D01*
X18134743Y25668755D01*
X17999854Y25724628D01*
X17855100Y25743685D01*
X17846912Y25742607D01*
X17718532Y25725706D01*
X17718530Y25725705D01*
X17710346Y25724628D01*
X17662530Y25704822D01*
X17583086Y25671915D01*
X17583084Y25671914D01*
X17575458Y25668755D01*
X17459626Y25579874D01*
X17370745Y25464042D01*
X17367586Y25456416D01*
X17367585Y25456414D01*
X17348487Y25410307D01*
X17314872Y25329154D01*
X17295815Y25184400D01*
X16427861Y25184400D01*
X16494843Y25212145D01*
X16501396Y25217173D01*
X16604121Y25295997D01*
X16604124Y25296000D01*
X16610674Y25301026D01*
X16632258Y25329154D01*
X16694528Y25410307D01*
X16699555Y25416858D01*
X16719100Y25464042D01*
X16752269Y25544120D01*
X16755428Y25551746D01*
X16758270Y25573328D01*
X16773407Y25688312D01*
X16774485Y25696500D01*
X16767329Y25750858D01*
X16756506Y25833068D01*
X16756505Y25833070D01*
X16755428Y25841254D01*
X16699555Y25976142D01*
X16657845Y26030500D01*
X22996415Y26030500D01*
X22997493Y26022312D01*
X23004576Y25968514D01*
X23015472Y25885746D01*
X23071345Y25750858D01*
X23160226Y25635026D01*
X23166776Y25630000D01*
X23166779Y25629997D01*
X23269504Y25551173D01*
X23276057Y25546145D01*
X23410946Y25490272D01*
X23555700Y25471215D01*
X23563888Y25472293D01*
X23692266Y25489194D01*
X23700454Y25490272D01*
X23835343Y25546145D01*
X23841896Y25551173D01*
X23944621Y25629997D01*
X23944624Y25630000D01*
X23951174Y25635026D01*
X24040055Y25750858D01*
X24095928Y25885746D01*
X24106825Y25968514D01*
X24113907Y26022312D01*
X24114985Y26030500D01*
X24095928Y26175254D01*
X24050836Y26284115D01*
X24043215Y26302514D01*
X24043214Y26302516D01*
X24040055Y26310142D01*
X23951174Y26425974D01*
X23944624Y26431000D01*
X23944621Y26431003D01*
X23841896Y26509827D01*
X23841894Y26509828D01*
X23835343Y26514855D01*
X23700454Y26570728D01*
X23555700Y26589785D01*
X23547512Y26588707D01*
X23419132Y26571806D01*
X23419130Y26571805D01*
X23410946Y26570728D01*
X23394119Y26563758D01*
X23283686Y26518015D01*
X23283684Y26518014D01*
X23276058Y26514855D01*
X23160226Y26425974D01*
X23071345Y26310142D01*
X23068186Y26302516D01*
X23068185Y26302514D01*
X23060564Y26284115D01*
X23015472Y26175254D01*
X22996415Y26030500D01*
X16657845Y26030500D01*
X16610674Y26091974D01*
X16604124Y26097000D01*
X16604121Y26097003D01*
X16501396Y26175827D01*
X16501394Y26175828D01*
X16494843Y26180855D01*
X16359954Y26236728D01*
X16215200Y26255785D01*
X16207012Y26254707D01*
X16078632Y26237806D01*
X16078630Y26237805D01*
X16070446Y26236728D01*
X16022630Y26216922D01*
X15943186Y26184015D01*
X15943184Y26184014D01*
X15935558Y26180855D01*
X15819726Y26091974D01*
X15730845Y25976142D01*
X15674972Y25841254D01*
X15673895Y25833070D01*
X15673894Y25833068D01*
X15663071Y25750858D01*
X15655915Y25696500D01*
X254500Y25696500D01*
X254500Y26843400D01*
X6272515Y26843400D01*
X6291572Y26698646D01*
X6311378Y26650830D01*
X6337111Y26588707D01*
X6347445Y26563758D01*
X6436326Y26447926D01*
X6442876Y26442900D01*
X6442879Y26442897D01*
X6545604Y26364073D01*
X6552157Y26359045D01*
X6687046Y26303172D01*
X6831800Y26284115D01*
X6839988Y26285193D01*
X6968366Y26302094D01*
X6976554Y26303172D01*
X7111443Y26359045D01*
X7117996Y26364073D01*
X7220721Y26442897D01*
X7220724Y26442900D01*
X7227274Y26447926D01*
X7316155Y26563758D01*
X7326490Y26588707D01*
X7352222Y26650830D01*
X7372028Y26698646D01*
X7391085Y26843400D01*
X7372028Y26988154D01*
X7316155Y27123042D01*
X7279816Y27170400D01*
X9092215Y27170400D01*
X9111272Y27025646D01*
X9167145Y26890758D01*
X9256026Y26774926D01*
X9262576Y26769900D01*
X9262579Y26769897D01*
X9344767Y26706832D01*
X9371857Y26686045D01*
X9506746Y26630172D01*
X9651500Y26611115D01*
X9659688Y26612193D01*
X9788066Y26629094D01*
X9796254Y26630172D01*
X9931143Y26686045D01*
X9958233Y26706832D01*
X10040421Y26769897D01*
X10040424Y26769900D01*
X10046974Y26774926D01*
X10119006Y26868800D01*
X29806715Y26868800D01*
X29807793Y26860612D01*
X29819736Y26769897D01*
X29825772Y26724046D01*
X29881645Y26589158D01*
X29970526Y26473326D01*
X29977076Y26468300D01*
X29977079Y26468297D01*
X30040773Y26419423D01*
X30086357Y26384445D01*
X30221246Y26328572D01*
X30366000Y26309515D01*
X30374188Y26310593D01*
X30502566Y26327494D01*
X30510754Y26328572D01*
X30645643Y26384445D01*
X30691227Y26419423D01*
X30754921Y26468297D01*
X30754924Y26468300D01*
X30761474Y26473326D01*
X30850355Y26589158D01*
X30906228Y26724046D01*
X30912265Y26769897D01*
X30924207Y26860612D01*
X30925285Y26868800D01*
X30906228Y27013554D01*
X30850355Y27148442D01*
X30761474Y27264274D01*
X30754924Y27269300D01*
X30754921Y27269303D01*
X30652196Y27348127D01*
X30652194Y27348128D01*
X30645643Y27353155D01*
X30510754Y27409028D01*
X30366000Y27428085D01*
X30357812Y27427007D01*
X30229432Y27410106D01*
X30229430Y27410105D01*
X30221246Y27409028D01*
X30173430Y27389222D01*
X30093986Y27356315D01*
X30093984Y27356314D01*
X30086358Y27353155D01*
X29970526Y27264274D01*
X29881645Y27148442D01*
X29825772Y27013554D01*
X29806715Y26868800D01*
X10119006Y26868800D01*
X10135855Y26890758D01*
X10191728Y27025646D01*
X10210785Y27170400D01*
X10205273Y27212272D01*
X10192806Y27306968D01*
X10192805Y27306970D01*
X10191728Y27315154D01*
X10135855Y27450042D01*
X10046974Y27565874D01*
X10040424Y27570900D01*
X10040421Y27570903D01*
X9937696Y27649727D01*
X9937694Y27649728D01*
X9931143Y27654755D01*
X9796254Y27710628D01*
X9651500Y27729685D01*
X9643312Y27728607D01*
X9514932Y27711706D01*
X9514930Y27711705D01*
X9506746Y27710628D01*
X9458930Y27690822D01*
X9379486Y27657915D01*
X9379484Y27657914D01*
X9371858Y27654755D01*
X9256026Y27565874D01*
X9167145Y27450042D01*
X9111272Y27315154D01*
X9110195Y27306970D01*
X9110194Y27306968D01*
X9097727Y27212272D01*
X9092215Y27170400D01*
X7279816Y27170400D01*
X7248514Y27211194D01*
X7232301Y27232323D01*
X7232300Y27232324D01*
X7227274Y27238874D01*
X7220724Y27243900D01*
X7220721Y27243903D01*
X7117996Y27322727D01*
X7117994Y27322728D01*
X7111443Y27327755D01*
X6976554Y27383628D01*
X6831800Y27402685D01*
X6823612Y27401607D01*
X6695232Y27384706D01*
X6695230Y27384705D01*
X6687046Y27383628D01*
X6639230Y27363822D01*
X6559786Y27330915D01*
X6559784Y27330914D01*
X6552158Y27327755D01*
X6535736Y27315154D01*
X6460891Y27257723D01*
X6436326Y27238874D01*
X6347445Y27123042D01*
X6291572Y26988154D01*
X6272515Y26843400D01*
X254500Y26843400D01*
X254500Y27752500D01*
X27377215Y27752500D01*
X27378293Y27744312D01*
X27383144Y27707468D01*
X27396272Y27607746D01*
X27452145Y27472858D01*
X27486501Y27428085D01*
X27523038Y27380469D01*
X27541026Y27357026D01*
X27547576Y27352000D01*
X27547579Y27351997D01*
X27595594Y27315154D01*
X27656857Y27268145D01*
X27791746Y27212272D01*
X27936500Y27193215D01*
X27944688Y27194293D01*
X28073066Y27211194D01*
X28081254Y27212272D01*
X28216143Y27268145D01*
X28277406Y27315154D01*
X28325421Y27351997D01*
X28325424Y27352000D01*
X28331974Y27357026D01*
X28349963Y27380469D01*
X28386499Y27428085D01*
X28420855Y27472858D01*
X28476728Y27607746D01*
X28489857Y27707468D01*
X28494707Y27744312D01*
X28495785Y27752500D01*
X28476728Y27897254D01*
X28420855Y28032142D01*
X28331974Y28147974D01*
X28325424Y28153000D01*
X28325421Y28153003D01*
X28222696Y28231827D01*
X28222694Y28231828D01*
X28216143Y28236855D01*
X28081254Y28292728D01*
X27936500Y28311785D01*
X27928312Y28310707D01*
X27799932Y28293806D01*
X27799930Y28293805D01*
X27791746Y28292728D01*
X27743930Y28272922D01*
X27664486Y28240015D01*
X27664484Y28240014D01*
X27656858Y28236855D01*
X27541026Y28147974D01*
X27452145Y28032142D01*
X27396272Y27897254D01*
X27377215Y27752500D01*
X254500Y27752500D01*
X254500Y31185500D01*
X1183804Y31185500D01*
X1202554Y30971184D01*
X1258235Y30763380D01*
X1260557Y30758399D01*
X1260558Y30758398D01*
X1346829Y30573389D01*
X1346832Y30573384D01*
X1349155Y30568402D01*
X1352311Y30563895D01*
X1352312Y30563893D01*
X1467823Y30398927D01*
X1472551Y30392174D01*
X1624674Y30240051D01*
X1629182Y30236894D01*
X1629185Y30236892D01*
X1796393Y30119812D01*
X1800902Y30116655D01*
X1805884Y30114332D01*
X1805889Y30114329D01*
X1930616Y30056168D01*
X1995880Y30025735D01*
X2001188Y30024313D01*
X2001190Y30024312D01*
X2046598Y30012145D01*
X2203684Y29970054D01*
X2418000Y29951304D01*
X2632316Y29970054D01*
X2789402Y30012145D01*
X2834810Y30024312D01*
X2834812Y30024313D01*
X2840120Y30025735D01*
X2905384Y30056168D01*
X3030111Y30114329D01*
X3030116Y30114332D01*
X3035098Y30116655D01*
X3039607Y30119812D01*
X3206815Y30236892D01*
X3206818Y30236894D01*
X3211326Y30240051D01*
X3363449Y30392174D01*
X3368178Y30398927D01*
X3483688Y30563893D01*
X3483689Y30563895D01*
X3486845Y30568402D01*
X3489168Y30573384D01*
X3489171Y30573389D01*
X3494818Y30585500D01*
X6083804Y30585500D01*
X6102554Y30371184D01*
X6158235Y30163380D01*
X6160557Y30158399D01*
X6160558Y30158398D01*
X6246829Y29973389D01*
X6246832Y29973384D01*
X6249155Y29968402D01*
X6252311Y29963895D01*
X6252312Y29963893D01*
X6357282Y29813981D01*
X6372551Y29792174D01*
X6524674Y29640051D01*
X6529182Y29636894D01*
X6529185Y29636892D01*
X6637796Y29560842D01*
X6700902Y29516655D01*
X6705884Y29514332D01*
X6705889Y29514329D01*
X6879056Y29433580D01*
X6895880Y29425735D01*
X6901188Y29424313D01*
X6901190Y29424312D01*
X6925613Y29417768D01*
X7103684Y29370054D01*
X7318000Y29351304D01*
X7532316Y29370054D01*
X7710387Y29417768D01*
X7734810Y29424312D01*
X7734812Y29424313D01*
X7740120Y29425735D01*
X7756944Y29433580D01*
X7930111Y29514329D01*
X7930116Y29514332D01*
X7935098Y29516655D01*
X7998204Y29560842D01*
X8106815Y29636892D01*
X8106818Y29636894D01*
X8111326Y29640051D01*
X8263449Y29792174D01*
X8278719Y29813981D01*
X8383688Y29963893D01*
X8383689Y29963895D01*
X8386845Y29968402D01*
X8389168Y29973384D01*
X8389171Y29973389D01*
X8475442Y30158398D01*
X8475443Y30158399D01*
X8477765Y30163380D01*
X8533446Y30371184D01*
X8552196Y30585500D01*
X8533446Y30799816D01*
X8477765Y31007620D01*
X8475442Y31012602D01*
X8389171Y31197611D01*
X8389168Y31197616D01*
X8386845Y31202598D01*
X8383688Y31207107D01*
X8266608Y31374315D01*
X8266606Y31374318D01*
X8263449Y31378826D01*
X8111326Y31530949D01*
X8106818Y31534106D01*
X8106815Y31534108D01*
X7939607Y31651188D01*
X7939605Y31651189D01*
X7935098Y31654345D01*
X7930116Y31656668D01*
X7930111Y31656671D01*
X7876788Y31681536D01*
X12742112Y31681536D01*
X12742312Y31676208D01*
X12742312Y31676206D01*
X12744464Y31618901D01*
X12743705Y31618872D01*
X12744034Y31617484D01*
X12744340Y31617511D01*
X12744374Y31617123D01*
X12744465Y31615662D01*
X12744523Y31615415D01*
X12744648Y31613993D01*
X12750736Y31451831D01*
X12751831Y31446612D01*
X12764628Y31385621D01*
X12763861Y31385460D01*
X12764841Y31383184D01*
X12764937Y31382092D01*
X12766361Y31376778D01*
X12766464Y31376193D01*
X12767635Y31371290D01*
X12797939Y31226863D01*
X12809491Y31197611D01*
X12823975Y31160934D01*
X12824724Y31158959D01*
X12826097Y31153837D01*
X12828422Y31148851D01*
X12828423Y31148849D01*
X12828947Y31147725D01*
X12831934Y31140783D01*
X12882372Y31013064D01*
X12919273Y30952254D01*
X12920811Y30949374D01*
X12920890Y30949420D01*
X12923639Y30944659D01*
X12925965Y30939671D01*
X12929122Y30935163D01*
X12929124Y30935159D01*
X12930674Y30932945D01*
X12935181Y30926038D01*
X12961917Y30881979D01*
X13001621Y30816548D01*
X13005116Y30812521D01*
X13005117Y30812519D01*
X13051993Y30758500D01*
X13055555Y30753937D01*
X13058347Y30750610D01*
X13061505Y30746099D01*
X13067791Y30739813D01*
X13073861Y30733299D01*
X13152276Y30642934D01*
X13205764Y30599076D01*
X13216309Y30590430D01*
X13223574Y30583848D01*
X13224706Y30582898D01*
X13228599Y30579005D01*
X13233103Y30575851D01*
X13233108Y30575847D01*
X13235936Y30573867D01*
X13243554Y30568090D01*
X13325901Y30500569D01*
X13325907Y30500565D01*
X13330029Y30497185D01*
X13334668Y30494545D01*
X13334667Y30494545D01*
X13407355Y30453169D01*
X13417296Y30446878D01*
X13417660Y30446623D01*
X13417667Y30446619D01*
X13422171Y30443465D01*
X13427155Y30441141D01*
X13427160Y30441138D01*
X13429875Y30439872D01*
X13438952Y30435182D01*
X13483061Y30410074D01*
X13529798Y30383470D01*
X13617195Y30351746D01*
X13619498Y30350910D01*
X13629753Y30346667D01*
X13631348Y30345923D01*
X13631350Y30345922D01*
X13636337Y30343597D01*
X13641653Y30342173D01*
X13641655Y30342172D01*
X13642719Y30341887D01*
X13643702Y30341624D01*
X13654081Y30338357D01*
X13745871Y30305039D01*
X13846443Y30286852D01*
X13856616Y30284574D01*
X13864592Y30282437D01*
X13870990Y30281877D01*
X13882412Y30280348D01*
X13972069Y30264136D01*
X13976208Y30263941D01*
X13976215Y30263940D01*
X13994670Y30263070D01*
X13994677Y30263070D01*
X13996158Y30263000D01*
X14157712Y30263000D01*
X14237444Y30269765D01*
X14323733Y30277087D01*
X14323737Y30277088D01*
X14329044Y30277538D01*
X14334199Y30278876D01*
X14334205Y30278877D01*
X14546368Y30333944D01*
X14546367Y30333944D01*
X14551539Y30335286D01*
X14710993Y30407115D01*
X14756262Y30427507D01*
X14756265Y30427508D01*
X14761123Y30429697D01*
X14951803Y30558070D01*
X14967862Y30573389D01*
X15044991Y30646967D01*
X15118128Y30716736D01*
X15255342Y30901158D01*
X15265797Y30921720D01*
X15357102Y31101306D01*
X15357102Y31101307D01*
X15359520Y31106062D01*
X15427685Y31325589D01*
X15438819Y31409590D01*
X15457188Y31548181D01*
X15457188Y31548184D01*
X15457888Y31553464D01*
X15457557Y31562294D01*
X15455536Y31616099D01*
X15456295Y31616128D01*
X15455966Y31617516D01*
X15455660Y31617489D01*
X15455626Y31617877D01*
X15455535Y31619338D01*
X15455477Y31619585D01*
X15455352Y31621007D01*
X15449264Y31783169D01*
X15435372Y31849379D01*
X15436139Y31849540D01*
X15435159Y31851816D01*
X15435063Y31852908D01*
X15433639Y31858222D01*
X15433536Y31858807D01*
X15432362Y31863722D01*
X15431087Y31869800D01*
X18744715Y31869800D01*
X18745793Y31861612D01*
X18752969Y31807107D01*
X18763772Y31725046D01*
X18766931Y31717420D01*
X18808906Y31616085D01*
X18819645Y31590158D01*
X18908526Y31474326D01*
X18915076Y31469300D01*
X18915079Y31469297D01*
X19012770Y31394336D01*
X19024357Y31385445D01*
X19159246Y31329572D01*
X19304000Y31310515D01*
X19312188Y31311593D01*
X19440566Y31328494D01*
X19448754Y31329572D01*
X19583643Y31385445D01*
X19595230Y31394336D01*
X19692921Y31469297D01*
X19692924Y31469300D01*
X19699474Y31474326D01*
X19788355Y31590158D01*
X19799095Y31616085D01*
X19841069Y31717420D01*
X19844228Y31725046D01*
X19855032Y31807107D01*
X19862207Y31861612D01*
X19863285Y31869800D01*
X19859916Y31895393D01*
X19845306Y32006368D01*
X19845305Y32006370D01*
X19844228Y32014554D01*
X19798959Y32123843D01*
X19791515Y32141814D01*
X19791514Y32141816D01*
X19788355Y32149442D01*
X19729994Y32225500D01*
X21590670Y32225500D01*
X21609954Y32005083D01*
X21611378Y31999770D01*
X21611378Y31999768D01*
X21664653Y31800946D01*
X21667220Y31791364D01*
X21669543Y31786383D01*
X21669543Y31786382D01*
X21758402Y31595822D01*
X21758405Y31595817D01*
X21760728Y31590835D01*
X21763884Y31586328D01*
X21763885Y31586326D01*
X21883119Y31416043D01*
X21887637Y31409590D01*
X22044090Y31253137D01*
X22048598Y31249980D01*
X22048601Y31249978D01*
X22204598Y31140748D01*
X22225335Y31126228D01*
X22230317Y31123905D01*
X22230322Y31123902D01*
X22408686Y31040730D01*
X22425864Y31032720D01*
X22431173Y31031298D01*
X22434364Y31030136D01*
X22491535Y30988041D01*
X22516873Y30921720D01*
X22502332Y30852228D01*
X22491232Y30835031D01*
X22446045Y30776142D01*
X22442886Y30768516D01*
X22442885Y30768514D01*
X22423210Y30721014D01*
X22390172Y30641254D01*
X22389095Y30633070D01*
X22389094Y30633068D01*
X22380939Y30571124D01*
X22371115Y30496500D01*
X22372193Y30488312D01*
X22386892Y30376664D01*
X22390172Y30351746D01*
X22396081Y30337480D01*
X22437747Y30236892D01*
X22446045Y30216858D01*
X22534926Y30101026D01*
X22541476Y30096000D01*
X22541479Y30095997D01*
X22642076Y30018806D01*
X22650757Y30012145D01*
X22785646Y29956272D01*
X22930400Y29937215D01*
X22938588Y29938293D01*
X22938591Y29938293D01*
X22954636Y29940405D01*
X23024785Y29929465D01*
X23077882Y29882336D01*
X23097071Y29813981D01*
X23081494Y29757204D01*
X23081645Y29757142D01*
X23025772Y29622254D01*
X23006715Y29477500D01*
X23007793Y29469312D01*
X23023266Y29351783D01*
X23025772Y29332746D01*
X23081645Y29197858D01*
X23170526Y29082026D01*
X23177076Y29077000D01*
X23177079Y29076997D01*
X23265452Y29009186D01*
X23286357Y28993145D01*
X23421246Y28937272D01*
X23566000Y28918215D01*
X23574188Y28919293D01*
X23702566Y28936194D01*
X23710754Y28937272D01*
X23845643Y28993145D01*
X23866548Y29009186D01*
X23954921Y29076997D01*
X23954924Y29077000D01*
X23961474Y29082026D01*
X24050355Y29197858D01*
X24084877Y29281200D01*
X25599815Y29281200D01*
X25618872Y29136446D01*
X25674745Y29001558D01*
X25763626Y28885726D01*
X25770176Y28880700D01*
X25770179Y28880697D01*
X25872904Y28801873D01*
X25879457Y28796845D01*
X26014346Y28740972D01*
X26159100Y28721915D01*
X26167288Y28722993D01*
X26295666Y28739894D01*
X26303854Y28740972D01*
X26438743Y28796845D01*
X26445296Y28801873D01*
X26548021Y28880697D01*
X26548024Y28880700D01*
X26554574Y28885726D01*
X26643455Y29001558D01*
X26699328Y29136446D01*
X26718385Y29281200D01*
X26709093Y29351783D01*
X26700406Y29417768D01*
X26700405Y29417770D01*
X26699328Y29425954D01*
X26660747Y29519097D01*
X26646615Y29553214D01*
X26646614Y29553216D01*
X26643455Y29560842D01*
X26582747Y29639958D01*
X26559601Y29670123D01*
X26559600Y29670124D01*
X26554574Y29676674D01*
X26548024Y29681700D01*
X26548021Y29681703D01*
X26445296Y29760527D01*
X26445294Y29760528D01*
X26438743Y29765555D01*
X26303854Y29821428D01*
X26159100Y29840485D01*
X26150912Y29839407D01*
X26022532Y29822506D01*
X26022530Y29822505D01*
X26014346Y29821428D01*
X25996368Y29813981D01*
X25887086Y29768715D01*
X25887084Y29768714D01*
X25879458Y29765555D01*
X25763626Y29676674D01*
X25674745Y29560842D01*
X25671586Y29553216D01*
X25671585Y29553214D01*
X25657453Y29519097D01*
X25618872Y29425954D01*
X25617795Y29417770D01*
X25617794Y29417768D01*
X25609107Y29351783D01*
X25599815Y29281200D01*
X24084877Y29281200D01*
X24106228Y29332746D01*
X24108735Y29351783D01*
X24124207Y29469312D01*
X24125285Y29477500D01*
X24106228Y29622254D01*
X24050355Y29757142D01*
X23961474Y29872974D01*
X23954924Y29878000D01*
X23954921Y29878003D01*
X23900711Y29919600D01*
X36925215Y29919600D01*
X36926293Y29911412D01*
X36941991Y29792174D01*
X36944272Y29774846D01*
X36948892Y29763693D01*
X36984937Y29676674D01*
X37000145Y29639958D01*
X37089026Y29524126D01*
X37095576Y29519100D01*
X37095579Y29519097D01*
X37160460Y29469312D01*
X37204857Y29435245D01*
X37339746Y29379372D01*
X37484500Y29360315D01*
X37492688Y29361393D01*
X37621066Y29378294D01*
X37629254Y29379372D01*
X37764143Y29435245D01*
X37808540Y29469312D01*
X37873421Y29519097D01*
X37873424Y29519100D01*
X37879974Y29524126D01*
X37936737Y29598101D01*
X37994075Y29639968D01*
X38064946Y29644190D01*
X38126849Y29609426D01*
X38136663Y29598101D01*
X38193426Y29524126D01*
X38199976Y29519100D01*
X38199979Y29519097D01*
X38264860Y29469312D01*
X38309257Y29435245D01*
X38444146Y29379372D01*
X38588900Y29360315D01*
X38597088Y29361393D01*
X38725466Y29378294D01*
X38733654Y29379372D01*
X38868543Y29435245D01*
X38912940Y29469312D01*
X38977821Y29519097D01*
X38977824Y29519100D01*
X38984374Y29524126D01*
X39073255Y29639958D01*
X39088464Y29676674D01*
X39124508Y29763693D01*
X39129128Y29774846D01*
X39131410Y29792174D01*
X39147107Y29911412D01*
X39148185Y29919600D01*
X39141100Y29973417D01*
X39130206Y30056168D01*
X39130205Y30056170D01*
X39129128Y30064354D01*
X39106156Y30119812D01*
X39076415Y30191614D01*
X39076414Y30191616D01*
X39073255Y30199242D01*
X39024159Y30263225D01*
X38989401Y30308523D01*
X38989400Y30308524D01*
X38984374Y30315074D01*
X38977824Y30320100D01*
X38977821Y30320103D01*
X38875096Y30398927D01*
X38875094Y30398928D01*
X38868543Y30403955D01*
X38733654Y30459828D01*
X38588900Y30478885D01*
X38580712Y30477807D01*
X38452332Y30460906D01*
X38452330Y30460905D01*
X38444146Y30459828D01*
X38428070Y30453169D01*
X38316886Y30407115D01*
X38316884Y30407114D01*
X38309258Y30403955D01*
X38193426Y30315074D01*
X38188403Y30308528D01*
X38136663Y30241099D01*
X38079325Y30199232D01*
X38008454Y30195010D01*
X37946551Y30229774D01*
X37936737Y30241099D01*
X37885001Y30308523D01*
X37885000Y30308524D01*
X37879974Y30315074D01*
X37873424Y30320100D01*
X37873421Y30320103D01*
X37770696Y30398927D01*
X37770694Y30398928D01*
X37764143Y30403955D01*
X37629254Y30459828D01*
X37484500Y30478885D01*
X37476312Y30477807D01*
X37347932Y30460906D01*
X37347930Y30460905D01*
X37339746Y30459828D01*
X37323670Y30453169D01*
X37212486Y30407115D01*
X37212484Y30407114D01*
X37204858Y30403955D01*
X37089026Y30315074D01*
X37000145Y30199242D01*
X36996986Y30191616D01*
X36996985Y30191614D01*
X36967244Y30119812D01*
X36944272Y30064354D01*
X36943195Y30056170D01*
X36943194Y30056168D01*
X36932300Y29973417D01*
X36925215Y29919600D01*
X23900711Y29919600D01*
X23852196Y29956827D01*
X23852194Y29956828D01*
X23845643Y29961855D01*
X23710754Y30017728D01*
X23566000Y30036785D01*
X23557812Y30035707D01*
X23557809Y30035707D01*
X23541764Y30033595D01*
X23471615Y30044535D01*
X23418518Y30091664D01*
X23399329Y30160019D01*
X23414906Y30216796D01*
X23414755Y30216858D01*
X23415252Y30218058D01*
X23470628Y30351746D01*
X23473909Y30376664D01*
X23488607Y30488312D01*
X23489685Y30496500D01*
X23479861Y30571124D01*
X23471706Y30633068D01*
X23471705Y30633070D01*
X23470628Y30641254D01*
X23437590Y30721014D01*
X23417915Y30768514D01*
X23417914Y30768516D01*
X23414755Y30776142D01*
X23409727Y30782695D01*
X23409725Y30782698D01*
X23333544Y30881979D01*
X23307943Y30948199D01*
X23322208Y31017748D01*
X23371809Y31068544D01*
X23380256Y31072878D01*
X23489678Y31123902D01*
X23489683Y31123905D01*
X23494665Y31126228D01*
X23515402Y31140748D01*
X23671399Y31249978D01*
X23671402Y31249980D01*
X23675910Y31253137D01*
X23832363Y31409590D01*
X23836882Y31416043D01*
X23956115Y31586326D01*
X23956116Y31586328D01*
X23959272Y31590835D01*
X23961595Y31595817D01*
X23961598Y31595822D01*
X24050457Y31786382D01*
X24050457Y31786383D01*
X24052780Y31791364D01*
X24055348Y31800946D01*
X24108622Y31999768D01*
X24108622Y31999770D01*
X24110046Y32005083D01*
X24118665Y32103600D01*
X28660415Y32103600D01*
X28661493Y32095412D01*
X28676842Y31978826D01*
X28679472Y31958846D01*
X28735345Y31823958D01*
X28824226Y31708126D01*
X28830776Y31703100D01*
X28830779Y31703097D01*
X28933504Y31624273D01*
X28940057Y31619245D01*
X29074946Y31563372D01*
X29219700Y31544315D01*
X29227888Y31545393D01*
X29249066Y31548181D01*
X29364454Y31563372D01*
X29499343Y31619245D01*
X29505896Y31624273D01*
X29608621Y31703097D01*
X29608624Y31703100D01*
X29615174Y31708126D01*
X29620201Y31714677D01*
X29620204Y31714680D01*
X29631767Y31729749D01*
X29689106Y31771615D01*
X29759977Y31775836D01*
X29821879Y31741070D01*
X29845923Y31706292D01*
X29895093Y31600845D01*
X29895097Y31600839D01*
X29897421Y31595854D01*
X29900577Y31591347D01*
X29900578Y31591345D01*
X29982516Y31474326D01*
X30023326Y31416043D01*
X30178543Y31260826D01*
X30183051Y31257669D01*
X30183054Y31257667D01*
X30350032Y31140748D01*
X30358354Y31134921D01*
X30363336Y31132598D01*
X30363341Y31132595D01*
X30430442Y31101306D01*
X30557297Y31042153D01*
X30769326Y30985339D01*
X30988000Y30966208D01*
X31206674Y30985339D01*
X31418703Y31042153D01*
X31545558Y31101306D01*
X31612659Y31132595D01*
X31612664Y31132598D01*
X31617646Y31134921D01*
X31625968Y31140748D01*
X31792946Y31257667D01*
X31792949Y31257669D01*
X31797457Y31260826D01*
X31952674Y31416043D01*
X31993485Y31474326D01*
X32075422Y31591345D01*
X32075423Y31591347D01*
X32078579Y31595854D01*
X32080902Y31600836D01*
X32080905Y31600841D01*
X32118533Y31681536D01*
X43842112Y31681536D01*
X43842312Y31676208D01*
X43842312Y31676206D01*
X43844464Y31618901D01*
X43843705Y31618872D01*
X43844034Y31617484D01*
X43844340Y31617511D01*
X43844374Y31617123D01*
X43844465Y31615662D01*
X43844523Y31615415D01*
X43844648Y31613993D01*
X43850736Y31451831D01*
X43851831Y31446612D01*
X43864628Y31385621D01*
X43863861Y31385460D01*
X43864841Y31383184D01*
X43864937Y31382092D01*
X43866361Y31376778D01*
X43866464Y31376193D01*
X43867635Y31371290D01*
X43897939Y31226863D01*
X43909491Y31197611D01*
X43923975Y31160934D01*
X43924724Y31158959D01*
X43926097Y31153837D01*
X43928422Y31148851D01*
X43928423Y31148849D01*
X43928947Y31147725D01*
X43931934Y31140783D01*
X43982372Y31013064D01*
X44019273Y30952254D01*
X44020811Y30949374D01*
X44020890Y30949420D01*
X44023639Y30944659D01*
X44025965Y30939671D01*
X44029122Y30935163D01*
X44029124Y30935159D01*
X44030674Y30932945D01*
X44035181Y30926038D01*
X44061917Y30881979D01*
X44101621Y30816548D01*
X44105116Y30812521D01*
X44105117Y30812519D01*
X44151993Y30758500D01*
X44155555Y30753937D01*
X44158347Y30750610D01*
X44161505Y30746099D01*
X44167791Y30739813D01*
X44173861Y30733299D01*
X44252276Y30642934D01*
X44305764Y30599076D01*
X44316309Y30590430D01*
X44323574Y30583848D01*
X44324706Y30582898D01*
X44328599Y30579005D01*
X44333103Y30575851D01*
X44333108Y30575847D01*
X44335936Y30573867D01*
X44343554Y30568090D01*
X44425901Y30500569D01*
X44425907Y30500565D01*
X44430029Y30497185D01*
X44434668Y30494545D01*
X44434667Y30494545D01*
X44507355Y30453169D01*
X44517296Y30446878D01*
X44517660Y30446623D01*
X44517667Y30446619D01*
X44522171Y30443465D01*
X44527155Y30441141D01*
X44527160Y30441138D01*
X44529875Y30439872D01*
X44538952Y30435182D01*
X44583061Y30410074D01*
X44629798Y30383470D01*
X44717195Y30351746D01*
X44719498Y30350910D01*
X44729753Y30346667D01*
X44731348Y30345923D01*
X44731350Y30345922D01*
X44736337Y30343597D01*
X44741653Y30342173D01*
X44741655Y30342172D01*
X44742719Y30341887D01*
X44743702Y30341624D01*
X44754081Y30338357D01*
X44845871Y30305039D01*
X44946443Y30286852D01*
X44956616Y30284574D01*
X44964592Y30282437D01*
X44970990Y30281877D01*
X44982412Y30280348D01*
X45072069Y30264136D01*
X45076208Y30263941D01*
X45076215Y30263940D01*
X45094670Y30263070D01*
X45094677Y30263070D01*
X45096158Y30263000D01*
X45257712Y30263000D01*
X45337444Y30269765D01*
X45423733Y30277087D01*
X45423737Y30277088D01*
X45429044Y30277538D01*
X45434199Y30278876D01*
X45434205Y30278877D01*
X45646368Y30333944D01*
X45646367Y30333944D01*
X45651539Y30335286D01*
X45810993Y30407115D01*
X45856262Y30427507D01*
X45856265Y30427508D01*
X45861123Y30429697D01*
X46051803Y30558070D01*
X46067862Y30573389D01*
X46144991Y30646967D01*
X46218128Y30716736D01*
X46355342Y30901158D01*
X46365797Y30921720D01*
X46457102Y31101306D01*
X46457102Y31101307D01*
X46459520Y31106062D01*
X46527685Y31325589D01*
X46538819Y31409590D01*
X46557188Y31548181D01*
X46557188Y31548184D01*
X46557888Y31553464D01*
X46557557Y31562294D01*
X46555536Y31616099D01*
X46556295Y31616128D01*
X46555966Y31617516D01*
X46555660Y31617489D01*
X46555626Y31617877D01*
X46555535Y31619338D01*
X46555477Y31619585D01*
X46555352Y31621007D01*
X46549264Y31783169D01*
X46535372Y31849379D01*
X46536139Y31849540D01*
X46535159Y31851816D01*
X46535063Y31852908D01*
X46533639Y31858222D01*
X46533536Y31858807D01*
X46532362Y31863722D01*
X46523886Y31904122D01*
X46502061Y32008137D01*
X46476025Y32074066D01*
X46475276Y32076041D01*
X46473903Y32081163D01*
X46471053Y32087275D01*
X46468066Y32094217D01*
X46417628Y32221936D01*
X46380727Y32282746D01*
X46379189Y32285626D01*
X46379110Y32285580D01*
X46376361Y32290341D01*
X46374035Y32295329D01*
X46370876Y32299841D01*
X46369326Y32302055D01*
X46364819Y32308962D01*
X46301147Y32413891D01*
X46301145Y32413894D01*
X46298379Y32418452D01*
X46294883Y32422481D01*
X46248007Y32476500D01*
X46244445Y32481063D01*
X46241653Y32484390D01*
X46238495Y32488901D01*
X46232209Y32495187D01*
X46226139Y32501701D01*
X46151224Y32588033D01*
X46151222Y32588035D01*
X46147724Y32592066D01*
X46083692Y32644570D01*
X46076426Y32651152D01*
X46075294Y32652102D01*
X46071401Y32655995D01*
X46066897Y32659149D01*
X46066892Y32659153D01*
X46064064Y32661133D01*
X46056446Y32666910D01*
X45974099Y32734431D01*
X45974093Y32734435D01*
X45969971Y32737815D01*
X45892645Y32781831D01*
X45882704Y32788122D01*
X45882340Y32788377D01*
X45882333Y32788381D01*
X45877829Y32791535D01*
X45872845Y32793859D01*
X45872840Y32793862D01*
X45870125Y32795128D01*
X45861048Y32799818D01*
X45786016Y32842528D01*
X45770202Y32851530D01*
X45680502Y32884090D01*
X45670247Y32888333D01*
X45668652Y32889077D01*
X45668650Y32889078D01*
X45663663Y32891403D01*
X45658347Y32892827D01*
X45658345Y32892828D01*
X45657281Y32893113D01*
X45656298Y32893376D01*
X45645919Y32896643D01*
X45554129Y32929961D01*
X45453557Y32948148D01*
X45443384Y32950426D01*
X45435408Y32952563D01*
X45429010Y32953123D01*
X45417588Y32954652D01*
X45327931Y32970864D01*
X45323792Y32971059D01*
X45323785Y32971060D01*
X45305330Y32971930D01*
X45305323Y32971930D01*
X45303842Y32972000D01*
X45142288Y32972000D01*
X45062556Y32965235D01*
X44976267Y32957913D01*
X44976263Y32957912D01*
X44970956Y32957462D01*
X44965801Y32956124D01*
X44965795Y32956123D01*
X44793058Y32911289D01*
X44748461Y32899714D01*
X44636045Y32849074D01*
X44543738Y32807493D01*
X44543735Y32807492D01*
X44538877Y32805303D01*
X44348197Y32676930D01*
X44344340Y32673251D01*
X44344338Y32673249D01*
X44275610Y32607686D01*
X44181872Y32518264D01*
X44178689Y32513987D01*
X44178689Y32513986D01*
X44171331Y32504097D01*
X44044658Y32333842D01*
X44042242Y32329091D01*
X44042240Y32329087D01*
X43942898Y32133694D01*
X43940480Y32128938D01*
X43872315Y31909411D01*
X43871614Y31904122D01*
X43846505Y31714677D01*
X43842112Y31681536D01*
X32118533Y31681536D01*
X32148250Y31745265D01*
X32171347Y31794797D01*
X32228161Y32006826D01*
X32247292Y32225500D01*
X32228161Y32444174D01*
X32225635Y32453600D01*
X38937715Y32453600D01*
X38938793Y32445412D01*
X38952918Y32338124D01*
X38956772Y32308846D01*
X38959931Y32301220D01*
X38992772Y32221936D01*
X39012645Y32173958D01*
X39017672Y32167407D01*
X39073806Y32094252D01*
X39101526Y32058126D01*
X39108076Y32053100D01*
X39108079Y32053097D01*
X39210804Y31974273D01*
X39217357Y31969245D01*
X39352246Y31913372D01*
X39497000Y31894315D01*
X39505188Y31895393D01*
X39633566Y31912294D01*
X39641754Y31913372D01*
X39776643Y31969245D01*
X39783196Y31974273D01*
X39885921Y32053097D01*
X39885924Y32053100D01*
X39892474Y32058126D01*
X39920195Y32094252D01*
X39976328Y32167407D01*
X39981355Y32173958D01*
X40001229Y32221936D01*
X40034069Y32301220D01*
X40037228Y32308846D01*
X40041083Y32338124D01*
X40055207Y32445412D01*
X40056285Y32453600D01*
X40050810Y32495187D01*
X40038306Y32590168D01*
X40038305Y32590170D01*
X40037228Y32598354D01*
X40006205Y32673249D01*
X39984515Y32725614D01*
X39984514Y32725616D01*
X39981355Y32733242D01*
X39892474Y32849074D01*
X39885924Y32854100D01*
X39885921Y32854103D01*
X39783196Y32932927D01*
X39783194Y32932928D01*
X39776643Y32937955D01*
X39641754Y32993828D01*
X39497000Y33012885D01*
X39488812Y33011807D01*
X39360432Y32994906D01*
X39360430Y32994905D01*
X39352246Y32993828D01*
X39304430Y32974022D01*
X39224986Y32941115D01*
X39224984Y32941114D01*
X39217358Y32937955D01*
X39101526Y32849074D01*
X39012645Y32733242D01*
X39009486Y32725616D01*
X39009485Y32725614D01*
X38987795Y32673249D01*
X38956772Y32598354D01*
X38955695Y32590170D01*
X38955694Y32590168D01*
X38943190Y32495187D01*
X38937715Y32453600D01*
X32225635Y32453600D01*
X32171347Y32656203D01*
X32106566Y32795128D01*
X32080905Y32850159D01*
X32080902Y32850164D01*
X32078579Y32855146D01*
X32075065Y32860165D01*
X31955833Y33030446D01*
X31955831Y33030449D01*
X31952674Y33034957D01*
X31797457Y33190174D01*
X31792949Y33193331D01*
X31792946Y33193333D01*
X31622155Y33312922D01*
X31622153Y33312923D01*
X31617646Y33316079D01*
X31612664Y33318402D01*
X31612659Y33318405D01*
X31511884Y33365396D01*
X31418703Y33408847D01*
X31206674Y33465661D01*
X30988000Y33484792D01*
X30769326Y33465661D01*
X30557297Y33408847D01*
X30464116Y33365396D01*
X30363341Y33318405D01*
X30363336Y33318402D01*
X30358354Y33316079D01*
X30353847Y33312923D01*
X30353845Y33312922D01*
X30183054Y33193333D01*
X30183051Y33193331D01*
X30178543Y33190174D01*
X30023326Y33034957D01*
X30020169Y33030449D01*
X30020167Y33030446D01*
X29900935Y32860165D01*
X29897421Y32855146D01*
X29895098Y32850164D01*
X29895095Y32850159D01*
X29869434Y32795128D01*
X29804653Y32656203D01*
X29803230Y32650892D01*
X29803226Y32650881D01*
X29786221Y32587420D01*
X29749269Y32526797D01*
X29685408Y32495776D01*
X29614914Y32504206D01*
X29587817Y32520066D01*
X29499343Y32587955D01*
X29364454Y32643828D01*
X29219700Y32662885D01*
X29211512Y32661807D01*
X29083132Y32644906D01*
X29083130Y32644905D01*
X29074946Y32643828D01*
X29027130Y32624022D01*
X28947686Y32591115D01*
X28947684Y32591114D01*
X28940058Y32587955D01*
X28824226Y32499074D01*
X28735345Y32383242D01*
X28732186Y32375616D01*
X28732185Y32375614D01*
X28712913Y32329087D01*
X28679472Y32248354D01*
X28678395Y32240170D01*
X28678394Y32240168D01*
X28676463Y32225500D01*
X28660415Y32103600D01*
X24118665Y32103600D01*
X24129330Y32225500D01*
X24110046Y32445917D01*
X24107987Y32453600D01*
X24054203Y32654326D01*
X24054202Y32654328D01*
X24052780Y32659636D01*
X24016325Y32737815D01*
X23961598Y32855178D01*
X23961595Y32855183D01*
X23959272Y32860165D01*
X23911674Y32928142D01*
X23835522Y33036899D01*
X23835520Y33036902D01*
X23832363Y33041410D01*
X23675910Y33197863D01*
X23671402Y33201020D01*
X23671399Y33201022D01*
X23499174Y33321615D01*
X23499172Y33321616D01*
X23494665Y33324772D01*
X23489683Y33327095D01*
X23489678Y33327098D01*
X23299118Y33415957D01*
X23299117Y33415957D01*
X23294136Y33418280D01*
X23288828Y33419702D01*
X23288826Y33419703D01*
X23085732Y33474122D01*
X23085730Y33474122D01*
X23080417Y33475546D01*
X22860000Y33494830D01*
X22639583Y33475546D01*
X22634270Y33474122D01*
X22634268Y33474122D01*
X22431174Y33419703D01*
X22431172Y33419702D01*
X22425864Y33418280D01*
X22420883Y33415957D01*
X22420882Y33415957D01*
X22230322Y33327098D01*
X22230317Y33327095D01*
X22225335Y33324772D01*
X22220828Y33321616D01*
X22220826Y33321615D01*
X22048601Y33201022D01*
X22048598Y33201020D01*
X22044090Y33197863D01*
X21887637Y33041410D01*
X21884480Y33036902D01*
X21884478Y33036899D01*
X21808326Y32928142D01*
X21760728Y32860165D01*
X21758405Y32855183D01*
X21758402Y32855178D01*
X21703675Y32737815D01*
X21667220Y32659636D01*
X21665798Y32654328D01*
X21665797Y32654326D01*
X21612013Y32453600D01*
X21609954Y32445917D01*
X21590670Y32225500D01*
X19729994Y32225500D01*
X19706606Y32255980D01*
X19704501Y32258723D01*
X19704500Y32258724D01*
X19699474Y32265274D01*
X19692924Y32270300D01*
X19692921Y32270303D01*
X19590196Y32349127D01*
X19590194Y32349128D01*
X19583643Y32354155D01*
X19448754Y32410028D01*
X19304000Y32429085D01*
X19295812Y32428007D01*
X19167432Y32411106D01*
X19167430Y32411105D01*
X19159246Y32410028D01*
X19133883Y32399522D01*
X19031986Y32357315D01*
X19031984Y32357314D01*
X19024358Y32354155D01*
X18908526Y32265274D01*
X18819645Y32149442D01*
X18816486Y32141816D01*
X18816485Y32141814D01*
X18809041Y32123843D01*
X18763772Y32014554D01*
X18762695Y32006370D01*
X18762694Y32006368D01*
X18748084Y31895393D01*
X18744715Y31869800D01*
X15431087Y31869800D01*
X15423886Y31904122D01*
X15402061Y32008137D01*
X15376025Y32074066D01*
X15375276Y32076041D01*
X15373903Y32081163D01*
X15371053Y32087275D01*
X15368066Y32094217D01*
X15317628Y32221936D01*
X15280727Y32282746D01*
X15279189Y32285626D01*
X15279110Y32285580D01*
X15276361Y32290341D01*
X15274035Y32295329D01*
X15270876Y32299841D01*
X15269326Y32302055D01*
X15264819Y32308962D01*
X15201147Y32413891D01*
X15201145Y32413894D01*
X15198379Y32418452D01*
X15194883Y32422481D01*
X15148007Y32476500D01*
X15144445Y32481063D01*
X15141653Y32484390D01*
X15138495Y32488901D01*
X15132209Y32495187D01*
X15126139Y32501701D01*
X15051224Y32588033D01*
X15051222Y32588035D01*
X15047724Y32592066D01*
X14983692Y32644570D01*
X14976426Y32651152D01*
X14975294Y32652102D01*
X14971401Y32655995D01*
X14966897Y32659149D01*
X14966892Y32659153D01*
X14964064Y32661133D01*
X14956446Y32666910D01*
X14874099Y32734431D01*
X14874093Y32734435D01*
X14869971Y32737815D01*
X14792645Y32781831D01*
X14782704Y32788122D01*
X14782340Y32788377D01*
X14782333Y32788381D01*
X14777829Y32791535D01*
X14772845Y32793859D01*
X14772840Y32793862D01*
X14770125Y32795128D01*
X14761048Y32799818D01*
X14686016Y32842528D01*
X14670202Y32851530D01*
X14580502Y32884090D01*
X14570247Y32888333D01*
X14568652Y32889077D01*
X14568650Y32889078D01*
X14563663Y32891403D01*
X14558347Y32892827D01*
X14558345Y32892828D01*
X14557281Y32893113D01*
X14556298Y32893376D01*
X14545919Y32896643D01*
X14454129Y32929961D01*
X14353557Y32948148D01*
X14343384Y32950426D01*
X14335408Y32952563D01*
X14329010Y32953123D01*
X14317588Y32954652D01*
X14227931Y32970864D01*
X14223792Y32971059D01*
X14223785Y32971060D01*
X14205330Y32971930D01*
X14205323Y32971930D01*
X14203842Y32972000D01*
X14042288Y32972000D01*
X13962556Y32965235D01*
X13876267Y32957913D01*
X13876263Y32957912D01*
X13870956Y32957462D01*
X13865801Y32956124D01*
X13865795Y32956123D01*
X13693058Y32911289D01*
X13648461Y32899714D01*
X13536045Y32849074D01*
X13443738Y32807493D01*
X13443735Y32807492D01*
X13438877Y32805303D01*
X13248197Y32676930D01*
X13244340Y32673251D01*
X13244338Y32673249D01*
X13175610Y32607686D01*
X13081872Y32518264D01*
X13078689Y32513987D01*
X13078689Y32513986D01*
X13071331Y32504097D01*
X12944658Y32333842D01*
X12942242Y32329091D01*
X12942240Y32329087D01*
X12842898Y32133694D01*
X12840480Y32128938D01*
X12772315Y31909411D01*
X12771614Y31904122D01*
X12746505Y31714677D01*
X12742112Y31681536D01*
X7876788Y31681536D01*
X7745102Y31742942D01*
X7745101Y31742943D01*
X7740120Y31745265D01*
X7734812Y31746687D01*
X7734810Y31746688D01*
X7670068Y31764035D01*
X7532316Y31800946D01*
X7318000Y31819696D01*
X7103684Y31800946D01*
X6965932Y31764035D01*
X6901190Y31746688D01*
X6901188Y31746687D01*
X6895880Y31745265D01*
X6890899Y31742943D01*
X6890898Y31742942D01*
X6705889Y31656671D01*
X6705884Y31656668D01*
X6700902Y31654345D01*
X6696395Y31651189D01*
X6696393Y31651188D01*
X6529185Y31534108D01*
X6529182Y31534106D01*
X6524674Y31530949D01*
X6372551Y31378826D01*
X6369394Y31374318D01*
X6369392Y31374315D01*
X6252312Y31207107D01*
X6249155Y31202598D01*
X6246832Y31197616D01*
X6246829Y31197611D01*
X6160558Y31012602D01*
X6158235Y31007620D01*
X6102554Y30799816D01*
X6083804Y30585500D01*
X3494818Y30585500D01*
X3575442Y30758398D01*
X3575443Y30758399D01*
X3577765Y30763380D01*
X3633446Y30971184D01*
X3652196Y31185500D01*
X3633446Y31399816D01*
X3580400Y31597786D01*
X3579188Y31602310D01*
X3579187Y31602312D01*
X3577765Y31607620D01*
X3573153Y31617511D01*
X3489171Y31797611D01*
X3489168Y31797616D01*
X3486845Y31802598D01*
X3476476Y31817407D01*
X3366608Y31974315D01*
X3366606Y31974318D01*
X3363449Y31978826D01*
X3211326Y32130949D01*
X3206818Y32134106D01*
X3206815Y32134108D01*
X3039607Y32251188D01*
X3039605Y32251189D01*
X3035098Y32254345D01*
X3030116Y32256668D01*
X3030111Y32256671D01*
X2845102Y32342942D01*
X2845101Y32342943D01*
X2840120Y32345265D01*
X2834812Y32346687D01*
X2834810Y32346688D01*
X2726856Y32375614D01*
X2632316Y32400946D01*
X2418000Y32419696D01*
X2203684Y32400946D01*
X2109144Y32375614D01*
X2001190Y32346688D01*
X2001188Y32346687D01*
X1995880Y32345265D01*
X1990899Y32342943D01*
X1990898Y32342942D01*
X1805889Y32256671D01*
X1805884Y32256668D01*
X1800902Y32254345D01*
X1796395Y32251189D01*
X1796393Y32251188D01*
X1629185Y32134108D01*
X1629182Y32134106D01*
X1624674Y32130949D01*
X1472551Y31978826D01*
X1469394Y31974318D01*
X1469392Y31974315D01*
X1359524Y31817407D01*
X1349155Y31802598D01*
X1346832Y31797616D01*
X1346829Y31797611D01*
X1262847Y31617511D01*
X1258235Y31607620D01*
X1256813Y31602312D01*
X1256812Y31602310D01*
X1255600Y31597786D01*
X1202554Y31399816D01*
X1183804Y31185500D01*
X254500Y31185500D01*
X254500Y33846500D01*
X274502Y33914621D01*
X328158Y33961114D01*
X380500Y33972500D01*
X47619500Y33972500D01*
X47687621Y33952498D01*
G37*
%TD.AperFunction*%
%TD*%
M02*
